<svg version="1.1" xmlns="http://www.w3.org/2000/svg" xmlns:xlink="http://www.w3.org/1999/xlink" width="874" height="406"><defs><clipPath id="zJgUPEOogSGh"><path fill="none" stroke="none" d=" M 0 0 L 874 0 L 874 406 L 0 406 L 0 0 Z"/></clipPath></defs><g transform="scale(1,1)" clip-path="url(#zJgUPEOogSGh)"><g><path fill="none" stroke="rgb(0,0,0)" paint-order="fill stroke markers" d=" M 24.381936465096274 28.607294356949197 L 27.3125 36.79487310141468 M 27.3125 36.79487310141468 L 30.7265625 45.86551686529761 L 34.140625 54.43275179871816 L 37.55468749999999 62.496577901676325 L 40.96874999999999 70.05699517417212 L 44.38281249999999 77.11400361620552 L 47.796875 83.66760322777657 L 51.21093749999999 89.71779400888524 L 54.62499999999999 95.26457595953151 M 54.62499999999999 95.26457595953151 L 58.03906249999999 100.30794907971543 L 61.45312499999999 104.84791336943695 L 64.86718749999999 108.88446882869611 L 68.28125 112.41761545749289 L 71.69531249999999 115.44735325582728 L 75.10937499999999 117.9736822236993 L 78.52343749999999 119.99660236110894 L 81.93749999999999 121.5161136680562 L 85.35156249999999 122.5322161445411 L 88.76562499999999 123.04490979056361 L 92.17968749999999 123.05419460612374 L 95.59374999999999 122.5600705912215 L 99.00781249999997 121.56253774585689 L 102.42187499999999 120.06159607002988 L 105.83593749999999 118.05724556374051 L 109.24999999999997 115.54948622698876 M 109.24999999999997 115.54948622698876 L 112.66406249999997 112.53831805977462 L 116.07812499999997 109.02374106209813 L 119.49218749999997 105.00575523395923 L 122.90624999999997 100.48436057535798 L 126.32031249999997 95.45955708629435 L 129.73437499999997 89.93134476676832 L 133.14843749999997 83.89972361677994 L 136.56249999999997 77.36469363632915 M 136.56249999999997 77.36469363632915 L 139.97656249999997 70.32625482541602 L 143.39062499999997 62.784407184040475 L 146.80468749999997 54.73915071220257 L 150.21874999999997 46.190485409902294 M 150.21874999999997 46.190485409902294 L 153.63281249999997 37.13841127713965 M 153.63281249999997 37.13841127713965 L 156.68931320050388 28.607294356949197" stroke-opacity="1" stroke-linecap="round" stroke-linejoin="round" stroke-miterlimit="10" stroke-width="1.5"/><path fill="none" stroke="rgb(0,0,0)" paint-order="fill stroke markers" d=" M 255.9198445943701 28.60729435694924 L 256.0546875 28.992167154886857 M 256.0546875 28.992167154886857 L 259.46874999999994 38.475044277790644 M 259.46874999999994 38.475044277790644 L 262.88281249999994 47.454512570232055 L 266.29687499999994 55.93057203221116 L 269.71093749999994 63.90322266372788 L 273.12499999999994 71.37246446478215 M 273.12499999999994 71.37246446478215 L 276.53906249999994 78.33829743537407 L 279.95312499999994 84.80072157550367 L 283.36718749999994 90.75973688517088 L 286.78124999999994 96.21534336437566 L 290.19531249999994 101.16754101311807 L 293.60937499999994 105.61632983139815 L 297.02343749999994 109.56170981921585 L 300.43749999999994 113.00368097657113 L 303.8515624999999 115.94224330346404 L 307.26562499999994 118.3773967998946 L 310.67968749999994 120.30914146586278 L 314.09374999999994 121.73747730136856 L 317.5078124999999 122.66240430641197 L 320.92187499999994 123.08392248099302 L 324.33593749999994 123.00203182511169 L 327.7499999999999 122.41673233876797 M 327.7499999999999 122.41673233876797 L 331.16406249999994 121.32802402196187 L 334.5781249999999 119.73590687469341 L 337.99218749999994 117.64038089696255 L 341.4062499999999 115.04144608876933 L 344.82031249999994 111.93910245011372 L 348.23437499999994 108.33334998099573 L 351.6484374999999 104.2241886814154 L 355.0624999999999 99.61161855137264 L 358.47656249999994 94.49563959086751 L 361.8906249999999 88.87625179990005 L 365.3046874999999 82.7534551784702 L 368.71874999999994 76.12724972657787 L 372.13281249999994 68.99763544422328 L 375.5468749999999 61.36461233140632 L 378.96093749999994 53.228180388126844 L 382.37499999999994 44.58833961438512 M 382.37499999999994 44.58833961438512 L 385.7890624999999 35.44509001018103 M 385.7890624999999 35.44509001018103 L 388.2272213297777 28.60729435694924" stroke-opacity="1" stroke-linecap="round" stroke-linejoin="round" stroke-miterlimit="10" stroke-width="1.5"/><path fill="none" stroke="rgb(0,0,0)" paint-order="fill stroke markers" d=" M 487.4577527236439 28.60729435694924 L 488.2109374999999 30.747000451945212 M 488.2109374999999 30.747000451945212 L 491.62499999999983 40.138702103407525 M 491.62499999999983 40.138702103407525 L 495.03906249999983 49.026994924407475 L 498.4531249999999 57.41187891494519 L 501.8671874999999 65.29335407502037 L 505.28124999999983 72.67142040463318 L 508.6953124999999 79.54607790378375 L 512.1093749999999 85.91732657247181 L 515.5234374999999 91.78516641069749 L 518.9374999999999 97.14959741846081 L 522.3515624999999 102.01061959576182 L 525.7656249999999 106.3682329426004 L 529.1796874999999 110.22243745897664 L 532.5937499999999 113.57323314489045 L 536.0078124999999 116.4206200003419 L 539.4218749999999 118.76459802533095 L 542.8359374999999 120.60516721985768 L 546.2499999999999 121.94232758392198 M 546.2499999999999 121.94232758392198 L 549.6640624999999 122.77607911752392 L 553.0781249999999 123.10642182066348 L 556.4921874999999 122.93335569334067 L 559.9062499999999 122.25688073555548 L 563.3203124999999 121.07699694730789 L 566.7343749999999 119.39370432859795 L 570.1484374999999 117.20700287942563 L 573.5625 114.51689259979089 L 576.9765624999999 111.32337348969382 L 580.3906249999999 107.62644554913439 L 583.8046874999999 103.42610877811256 L 587.2187499999999 98.72236317662829 L 590.6328124999999 93.51520874468173 L 594.0468749999999 87.80464548227278 L 597.4609375 81.59067338940136 L 600.8749999999999 74.87329246606765 M 600.8749999999999 74.87329246606765 L 604.2890624999999 67.6525027122716 L 607.7031249999999 59.92830412801316 L 611.1171874999999 51.7006967132922 L 614.5312499999999 42.969680468109004 M 614.5312499999999 42.969680468109004 L 617.9453124999999 33.73525539246327 M 617.9453124999999 33.73525539246327 L 619.7651294590514 28.607294356949396" stroke-opacity="1" stroke-linecap="round" stroke-linejoin="round" stroke-miterlimit="10" stroke-width="1.5"/><path fill="none" stroke="rgb(0,0,0)" paint-order="fill stroke markers" d=" M 718.9956608529178 28.607294356949396 L 720.3671874999998 32.48532039824464 M 720.3671874999998 32.48532039824464 L 723.7812499999998 41.78584657826548 M 723.7812499999998 41.78584657826548 L 727.1953124999998 50.582963927823954 L 730.6093749999998 58.876672446920054 L 734.0234374999999 66.66697213555403 L 737.4374999999998 73.95386299372538 M 737.4374999999998 73.95386299372538 L 740.8515624999998 80.73734502143435 L 744.2656249999998 87.01741821868094 L 747.6796874999998 92.79408258546516 L 751.0937499999999 98.06733812178719 L 754.5078124999999 102.83718482764664 L 757.9218749999999 107.10362270304373 L 761.3359374999998 110.86665174797844 L 764.7499999999998 114.12627196245079 M 764.7499999999998 114.12627196245079 L 768.1640624999998 116.88248334646076 L 771.5781249999998 119.13528590000834 L 774.9921874999998 120.88467962309358 L 778.4062499999998 122.13066451571642 L 781.8203124999998 122.87324057787691 L 785.2343749999998 123.112407809575 L 788.6484374999998 122.84816621081072 L 792.0624999999998 122.08051578158407 L 795.4765624999998 120.80945652189503 L 798.8906249999998 119.03498843174363 L 802.3046874999998 116.75711151112985 L 805.7187499999998 113.9758257600536 L 809.1328124999998 110.69113117851506 L 812.5468749999998 106.90302776651416 L 815.9609374999998 102.61151552405087 L 819.3749999999998 97.81659445112521 M 819.3749999999998 97.81659445112521 L 822.7890624999998 92.51826454773719 L 826.2031249999998 86.71652581388679 L 829.6171874999998 80.41137824957379 L 833.0312499999998 73.60282185479863 L 836.4453124999998 66.29085662956109 L 839.8593749999999 58.4754825738609 L 843.2734374999999 50.156699687698605 L 846.6874999999999 41.33450797107393 M 846.6874999999999 41.33450797107393 L 850.1015624999999 32.0089074239869 M 850.1015624999999 32.0089074239869 L 851.3030375883253 28.607294356949396" stroke-opacity="1" stroke-linecap="round" stroke-linejoin="round" stroke-miterlimit="10" stroke-width="1.5"/><path fill="none" stroke="rgb(0,0,0)" paint-order="fill stroke markers" d=" M 7.8435147866308625 134.92572250422 L 7.8435147866308625 31.794136723977587" stroke-opacity="1" stroke-linecap="round" stroke-linejoin="round" stroke-miterlimit="10" stroke-width="1.5"/><path fill="rgb(0,0,0)" stroke="none" paint-order="stroke fill markers" fill-rule="evenodd" d=" M 7.8435147866308625 16.794136723977587 L 11.593514786630863 31.794136723977587 L 4.0935147866308625 31.794136723977587 Z" fill-opacity="1"/><path fill="none" stroke="rgb(0,0,0)" paint-order="fill stroke markers" d=" M 239.3814229159047 134.92572250422 L 239.3814229159047 31.794136723977587" stroke-opacity="1" stroke-linecap="round" stroke-linejoin="round" stroke-miterlimit="10" stroke-width="1.5"/><path fill="rgb(0,0,0)" stroke="none" paint-order="stroke fill markers" fill-rule="evenodd" d=" M 239.3814229159047 16.794136723977587 L 243.1314229159047 31.794136723977587 L 235.6314229159047 31.794136723977587 Z" fill-opacity="1"/><path fill="none" stroke="rgb(0,0,0)" paint-order="fill stroke markers" d=" M 470.91933104517847 134.92572250422 L 470.91933104517847 31.794136723977587" stroke-opacity="1" stroke-linecap="round" stroke-linejoin="round" stroke-miterlimit="10" stroke-width="1.5"/><path fill="rgb(0,0,0)" stroke="none" paint-order="stroke fill markers" fill-rule="evenodd" d=" M 470.91933104517847 16.794136723977587 L 474.66933104517847 31.794136723977587 L 467.16933104517847 31.794136723977587 Z" fill-opacity="1"/><path fill="none" stroke="rgb(0,0,0)" paint-order="fill stroke markers" d=" M 702.4572391744523 134.92572250422 L 702.4572391744523 31.794136723977587" stroke-opacity="1" stroke-linecap="round" stroke-linejoin="round" stroke-miterlimit="10" stroke-width="1.5"/><path fill="rgb(0,0,0)" stroke="none" paint-order="stroke fill markers" fill-rule="evenodd" d=" M 702.4572391744523 16.794136723977587 L 706.2072391744523 31.794136723977587 L 698.7072391744523 31.794136723977587 Z" fill-opacity="1"/><path fill="none" stroke="rgb(0,0,0)" paint-order="fill stroke markers" d=" M 7.8435147866308625 134.92572250422 L 158.2277348789693 134.92572250422" stroke-opacity="1" stroke-linecap="round" stroke-linejoin="round" stroke-miterlimit="10" stroke-width="1.5"/><path fill="rgb(0,0,0)" stroke="none" paint-order="stroke fill markers" fill-rule="evenodd" d=" M 173.2277348789693 134.92572250422 L 158.2277348789693 138.67572250422 L 158.2277348789693 131.17572250422 Z" fill-opacity="1"/><path fill="none" stroke="rgb(0,0,0)" paint-order="fill stroke markers" d=" M 239.3814229159047 134.92572250422 L 389.7656430082431 134.92572250422" stroke-opacity="1" stroke-linecap="round" stroke-linejoin="round" stroke-miterlimit="10" stroke-width="1.5"/><path fill="rgb(0,0,0)" stroke="none" paint-order="stroke fill markers" fill-rule="evenodd" d=" M 404.7656430082431 134.92572250422 L 389.7656430082431 138.67572250422 L 389.7656430082431 131.17572250422 Z" fill-opacity="1"/><path fill="none" stroke="rgb(0,0,0)" paint-order="fill stroke markers" d=" M 470.91933104517847 134.92572250422 L 621.3035511375169 134.92572250422" stroke-opacity="1" stroke-linecap="round" stroke-linejoin="round" stroke-miterlimit="10" stroke-width="1.5"/><path fill="rgb(0,0,0)" stroke="none" paint-order="stroke fill markers" fill-rule="evenodd" d=" M 636.3035511375169 134.92572250422 L 621.3035511375169 138.67572250422 L 621.3035511375169 131.17572250422 Z" fill-opacity="1"/><path fill="none" stroke="rgb(0,0,0)" paint-order="fill stroke markers" d=" M 702.4572391744523 134.92572250422 L 852.8414592667907 134.92572250422" stroke-opacity="1" stroke-linecap="round" stroke-linejoin="round" stroke-miterlimit="10" stroke-width="1.5"/><path fill="rgb(0,0,0)" stroke="none" paint-order="stroke fill markers" fill-rule="evenodd" d=" M 867.8414592667907 134.92572250422 L 852.8414592667907 138.67572250422 L 852.8414592667907 131.17572250422 Z" fill-opacity="1"/><path fill="none" stroke="rgb(255,0,0)" paint-order="fill stroke markers" d=" M 236.9999996692316 255.16876514635294 L 238.98437499999994 257.0303015653675 M 238.98437499999994 257.0303015653675 L 242.3984375 260.1003551278875 L 245.81249999999994 263.00260574692 M 245.81249999999994 263.00260574692 L 249.22656249999994 265.73705342246507 L 252.64062499999994 268.3036981545227 L 256.0546875 270.7025399430928 L 259.46874999999994 272.9335787881755 L 262.88281249999994 274.9968146897707 L 266.29687499999994 276.8922476478785 L 269.71093749999994 278.6198776624988 L 273.12499999999994 280.17970473363164 M 273.12499999999994 280.17970473363164 L 276.53906249999994 281.57172886127705 L 279.95312499999994 282.79595004543495 L 283.36718749999994 283.85236828610545 L 286.78124999999994 284.7409835832885 L 290.19531249999994 285.461795936984 L 293.60937499999994 286.0148053471921 L 297.02343749999994 286.4000118139128 L 300.43749999999994 286.6174153371459 L 303.8515624999999 286.66701591689167 L 307.26562499999994 286.5488135531499 L 310.67968749999994 286.2628082459207 L 314.09374999999994 285.80899999520403 L 317.5078124999999 285.18738880099994 L 320.92187499999994 284.39797466330833 L 324.33593749999994 283.4407575821293 L 327.7499999999999 282.3157375574628 M 327.7499999999999 282.3157375574628 L 331.16406249999994 281.02291458930887 L 334.5781249999999 279.5622886776675 L 337.99218749999994 277.9338598225386 L 341.4062499999999 276.1376280239223 L 344.82031249999994 274.17359328181846 L 348.23437499999994 272.04175559622723 L 351.6484374999999 269.7421149671485 L 355.0624999999999 267.2746713945823 L 358.47656249999994 264.6394248785287 L 361.8906249999999 261.83637541898764 L 365.3046874999999 258.86552301595907 L 368.71874999999994 255.72686766944304 L 372.13281249999994 252.4204093794396 L 375.5468749999999 248.9461481459487 L 378.96093749999994 245.30408396897025 L 382.37499999999994 241.49421684850444 M 382.37499999999994 241.49421684850444 L 385.7890624999999 237.51654678455117 L 389.2031249999999 233.3710737771104 L 392.61718749999994 229.05779782618214 L 396.0312499999999 224.5767189317665 L 399.4453124999999 219.9278370938634 L 402.85937499999994 215.1111523124727 L 406.27343749999994 210.1266645875947 L 409.6874999999999 204.97437391922918 M 409.6874999999999 204.97437391922918 L 413.1015624999999 199.65428030737624 L 416.5156249999999 194.1663837520358 L 419.9296874999999 188.51068425320784 L 423.3437499999999 182.68718181089255 M 423.3437499999999 182.68718181089255 L 426.75781249999994 176.69587642508966 L 430.17187499999994 170.5367680957994 M 430.17187499999994 170.5367680957994 L 433.5859374999999 164.20985682302174 M 433.5859374999999 164.20985682302174 L 435.46106444157454 160.66349620714146" stroke-opacity="0.6980392156862745" stroke-linecap="round" stroke-linejoin="round" stroke-miterlimit="10" stroke-width="2.5"/><path fill="none" stroke="rgb(0,100,0)" paint-order="fill stroke markers" d=" M 236.9999996692316 252.77348188277358 L 238.98437499999994 255.33619508286517 M 238.98437499999994 255.33619508286517 L 242.3984375 259.3531277265588 L 245.81249999999994 262.9607558266041 M 245.81249999999994 262.9607558266041 L 249.22656249999994 266.2348319084245 L 252.64062499999994 269.23184830805764 L 256.0546875 271.9950593261992 L 259.46874999999994 274.55831937299337 L 262.88281249999994 276.94862362806754 L 266.29687499999994 279.1878443839064 L 269.71093749999994 281.29395051672356 L 273.12499999999994 283.2818843898945 M 273.12499999999994 283.2818843898945 L 276.53906249999994 285.16420555141843 L 279.95312499999994 286.95157190504295 L 283.36718749999994 288.65310524015473 L 286.78124999999994 290.2766729473055 L 290.19531249999994 291.82910797357147 L 293.60937499999994 293.31638258509264 L 297.02343749999994 294.7437471101996 L 300.43749999999994 296.11584180520657 L 303.8515624999999 297.43678785853757 L 307.26562499999994 298.7102620343524 L 310.67968749999994 299.93955836301524 L 314.09374999999994 301.1276394855376 L 317.5078124999999 302.2771796667421 L 320.92187499999994 303.3906010485107 L 324.33593749999994 304.4701043792221 L 327.7499999999999 305.5176951995613 M 327.7499999999999 305.5176951995613 L 331.16406249999994 306.53520626777845 L 334.5781249999999 307.52431685440916 L 337.99218749999994 308.4865694166662 L 341.4062499999999 309.42338406826104 L 344.82031249999994 310.33607118543097 L 348.2343749999999 311.2258424300318 L 351.6484374999999 312.0938204223871 L 355.0624999999999 312.94104725763026 L 358.47656249999994 313.7684920276003 L 361.8906249999999 314.57705748446364 L 365.3046874999999 315.36758596096143 L 368.7187499999999 316.14086464463037 L 372.13281249999994 316.89763028878616 L 375.5468749999999 317.6385734309429 L 378.9609374999999 318.36434217920424 L 382.37499999999994 319.0755456186575 L 385.7890624999999 319.77275688263643 L 389.2031249999999 320.45651592765387 L 392.6171874999999 321.12733204566695 L 396.03124999999983 321.785686142956 L 399.4453124999999 322.43203281116246 L 402.8593749999999 323.0668022128241 L 406.27343749999994 323.69040180099705 L 409.6874999999999 324.30321789018046 L 413.1015624999999 324.9056170937114 L 416.5156249999999 325.49794764102296 L 419.92968749999983 326.0805405866171 L 423.3437499999999 326.6537109212609 L 426.7578124999999 327.21775859474565 L 430.17187499999994 327.77296945852214 L 433.5859374999999 328.3196161356283 L 436.9999999999999 328.8579588245372 M 436.9999999999999 328.8579588245372 L 440.4140624999999 329.38824604285924 L 443.8281249999999 329.91071531621753 L 447.2421874999999 330.4255938170783 L 450.6562499999999 330.9330989578357 L 454.0703124999999 331.4334389420264 L 457.4843749999999 331.92681327717224 L 460.8984374999999 332.41341325241217 L 464.3124999999999 332.8934223837853 L 467.72656249999983 333.3670168297586 L 471.1406249999999 333.8343657793548 L 474.5546874999999 334.29563181501953 L 477.9687499999999 334.75097125217536 L 481.3828124999999 335.20053445723795 L 484.7968749999999 335.6444661457123 L 488.2109374999999 336.08290566184854 L 491.62499999999983 336.51598724120913 L 495.0390624999999 336.9438402573855 L 498.4531249999999 337.36658945399864 L 501.8671874999999 337.78435516302454 L 505.2812499999999 338.19725351040057 L 508.6953124999999 338.60539660979185 L 512.1093749999999 339.00889274532636 L 515.5234374999999 339.4078465440436 L 518.9374999999999 339.80235913874463 L 522.3515624999999 340.19252832187715 L 525.7656249999999 340.57844869104116 L 529.1796874999999 340.96021178665745 L 532.5937499999999 341.3379062222995 L 536.0078124999999 341.71161780815356 L 539.4218749999999 342.0814296680363 L 542.8359374999999 342.44742235037074 L 546.2499999999999 342.80967393348897 L 549.6640624999999 343.1682601256086 L 553.0781249999999 343.5232543598001 L 556.4921874999999 343.87472788424634 L 559.9062499999999 344.22274984806876 L 563.3203124999999 344.56738738298145 L 566.7343749999999 344.90870568101155 L 570.1484374999999 345.24676806851414 L 573.5624999999999 345.58163607668905 L 576.9765624999999 345.9133695087975 L 580.3906249999999 346.24202650426207 L 583.8046874999999 346.56766359982134 L 587.2187499999999 346.89033578790065 L 590.6328124999999 347.2100965723491 L 594.0468749999999 347.52699802168473 L 597.4609374999999 347.8410908199806 L 600.8749999999999 348.152424315514 L 604.2890624999999 348.4610465672996 L 607.7031249999999 348.7670043896119 L 611.1171874999999 349.070343394603 L 614.5312499999999 349.37110803311265 L 617.9453124999999 349.6693416337591 L 621.3593749999998 349.9650864404011 L 624.7734374999999 350.2583836480482 L 628.1874999999999 350.5492734372976 L 631.6015624999999 350.8377950073693 L 635.0156249999999 351.1239866078074 L 638.4296874999999 351.40788556891124 L 641.8437499999999 351.6895283309576 L 645.2578124999999 351.968950472271 L 648.6718749999999 352.24618673619545 L 652.0859374999999 352.52127105701993 L 655.4999999999999 352.79423658490526 M 655.4999999999999 352.79423658490526 L 658.9140624999999 353.0651157098584 L 662.3281249999999 353.33394008479695 M 662.3281249999999 353.33394008479695 L 665.7421874999998 353.6007406477463 M 665.7421874999998 353.6007406477463 L 666.9989725708483 353.6984517054116" stroke-opacity="0.6980392156862745" stroke-linecap="round" stroke-linejoin="round" stroke-miterlimit="10" stroke-width="2.5"/><path fill="none" stroke="rgb(0,0,255)" paint-order="fill stroke markers" d=" M 236.9999996692316 253.827894273524 L 238.98437499999994 254.51122406726984 M 238.98437499999994 254.51122406726984 L 242.3984375 255.65242645270166 L 245.81249999999994 256.7527415294336 M 245.81249999999994 256.7527415294336 L 249.22656249999994 257.8149980822099 L 252.64062499999994 258.8417411210824 L 256.0546875 259.8352686129543 L 259.46874999999994 260.7976624558206 L 262.88281249999994 261.7308147457509 L 266.29687499999994 262.6364501698053 L 269.71093749999994 263.51614519093795 L 273.12499999999994 264.3713445610569 M 273.12499999999994 264.3713445610569 L 276.53906249999994 265.20337559669105 L 279.95312499999994 266.01346057146446 L 283.36718749999994 266.80272751584135 L 286.78124999999994 267.5722196636416 L 290.19531249999994 268.3229037438377 L 293.60937499999994 269.0556772829784 L 297.02343749999994 269.7713750566057 L 300.43749999999994 270.47077480596784 L 303.8515624999999 271.1546023182021 L 307.26562499999994 271.8235359531854 L 310.67968749999994 272.4782106878383 L 314.09374999999994 273.1192217383197 L 317.5078124999999 273.7471278119015 L 320.92187499999994 274.36245403304616 L 324.33593749999994 274.96569458208756 L 327.7499999999999 275.5573150797381 M 327.7499999999999 275.5573150797381 L 331.16406249999994 276.1377547462461 L 334.5781249999999 276.70742836028853 L 337.99218749999994 277.2667280394814 L 341.4062499999999 277.81602486165394 L 344.82031249999994 278.3556703436753 L 348.2343749999999 278.8859977925931 L 351.6484374999999 279.407323542091 L 355.0624999999999 279.91994808574935 L 358.47656249999994 280.4241571172771 L 361.8906249999999 280.92022248672924 L 365.3046874999999 281.4084030807244 L 368.7187499999999 281.88894563379677 L 372.13281249999994 282.36208547724993 L 375.5468749999999 282.82804723119983 L 378.9609374999999 283.2870454449034 L 382.37499999999994 283.73928518994154 L 385.7890624999999 284.18496261036057 L 389.2031249999999 284.62426543346766 L 392.6171874999999 285.05737344460897 L 396.03124999999983 285.4844589289353 L 399.4453124999999 285.9056870828729 L 402.8593749999999 286.32121639775767 L 406.27343749999994 286.731199017864 L 409.6874999999999 287.1357810748504 L 413.1015624999999 287.53510300046287 L 416.5156249999999 287.9292998191701 L 419.92968749999983 288.3185014222566 L 423.3437499999999 288.7028328247653 L 426.7578124999999 289.0824144065628 L 430.17187499999994 289.4573621386886 L 433.5859374999999 289.8277877960548 L 436.9999999999999 290.1937991574716 M 436.9999999999999 290.1937991574716 L 440.4140624999999 290.55550019389375 L 443.8281249999999 290.9129912457117 L 447.2421874999999 291.26636918984286 L 450.6562499999999 291.61572759731956 L 454.0703124999999 291.9611568820148 L 457.4843749999999 292.3027444410972 L 460.8984374999999 292.6405747877618 L 464.3124999999999 292.97472967673923 L 467.72656249999983 293.30528822305143 L 471.1406249999999 293.63232701444434 L 474.5546874999999 293.9559202178977 L 477.9687499999999 294.276139680582 L 481.3828124999999 294.59305502560727 L 484.7968749999999 294.90673374288184 L 488.2109374999999 295.21724127537846 L 491.62499999999983 295.5246411010833 L 495.0390624999999 295.8289948108843 L 498.4531249999999 296.13036218263835 L 501.8671874999999 296.42880125164004 L 505.2812499999999 296.72436837769914 L 508.6953124999999 297.017118309022 L 512.1093749999999 297.3071042430763 L 515.5234374999999 297.5943778846099 L 518.9374999999999 297.8789895009815 L 522.3515624999999 298.1609879749506 L 525.7656249999999 298.4404208550667 L 529.1796874999999 298.7173344037862 L 532.5937499999999 298.99177364344024 L 536.0078124999999 299.2637824001666 L 539.4218749999999 299.53340334591314 L 542.8359374999999 299.80067803861414 L 546.2499999999999 300.0656469606331 L 549.6640624999999 300.3283495555615 L 553.0781249999999 300.5888242634576 L 556.4921874999999 300.847108554603 L 559.9062499999999 301.1032389618518 L 563.3203124999999 301.35725111164226 L 566.7343749999999 301.6091797537365 L 570.1484374999999 301.85905878974995 L 573.5624999999999 302.1069213005304 L 576.9765624999999 302.3527995724407 L 580.3906249999999 302.5967251225975 L 583.8046874999999 302.8387287231162 L 587.2187499999999 303.0788404244081 L 590.6328124999999 303.3170895775733 L 594.0468749999999 303.5535048559328 L 597.4609374999999 303.7881142757373 L 600.8749999999999 304.0209452160916 L 604.2890624999999 304.25202443812924 L 607.7031249999999 304.48137810347146 L 611.1171874999999 304.7090317920015 L 614.5312499999999 304.9350105189858 L 617.9453124999999 305.15933875156907 L 621.3593749999998 305.3820404246723 L 624.7734374999999 305.6031389563177 L 628.1874999999999 305.8226572624064 L 631.6015624999999 306.0406177709715 L 635.0156249999999 306.25704243592975 L 638.4296874999999 306.47195275035085 L 641.8437499999999 306.6853697592668 L 645.2578124999999 306.8973140720388 L 648.6718749999999 307.10780587430037 L 652.0859374999999 307.3168649394942 L 655.4999999999999 307.524510640019 M 655.4999999999999 307.524510640019 L 658.9140624999999 307.7307619580016 L 662.3281249999999 307.93563749571064 M 662.3281249999999 307.93563749571064 L 665.7421874999998 308.13915548562437 M 665.7421874999998 308.13915548562437 L 666.9989725708483 308.2137362620415" stroke-opacity="0.6980392156862745" stroke-linecap="round" stroke-linejoin="round" stroke-miterlimit="10" stroke-width="2.5"/><path fill="none" stroke="rgb(153,51,0)" paint-order="fill stroke markers" d=" M 238 255 L 238.21673486847004 256.6509662514401 L 238.43457118344344 258.30101183964155 L 238.65461039142343 259.9492161013655 L 238.87795393891338 261.5946583733733 L 239.10570327241658 263.2364179924262 L 239.33895983843627 264.8735742952855 L 239.57882508347586 266.50520661871246 L 239.8264004540386 268.1303942994684 L 240.0827873966278 269.7482166743145 L 240.34908735774684 271.3577530800121 L 240.62640178389893 272.95808285332254 L 240.9158321215874 274.54828533100704 L 241.2184798173156 276.1274398498268 L 241.53544631758677 277.69462574654324 L 241.86783306890436 279.24892235791754 L 242.2167415177716 280.789409020711 L 242.58327311069166 282.3151650716849 L 242.9685292941681 283.8252698476005 L 243.37361151470407 285.3188026852191 L 243.79962121880288 286.794842921302 L 244.2476598529679 288.2524698926105 L 244.7188288637024 289.69076293590575 L 245.21422969750978 291.10880138794914 L 245.73496380089318 292.50566458550196 L 246.28213262035604 293.88043186532536 L 246.85683760240164 295.2321825641808 L 247.4601801935333 296.5599960188294 L 248.09326184025423 297.8629515660325 L 248.75718398906787 299.1401285425514 L 249.45304808647745 300.3906062851473 L 250.18195557898633 301.6134641305816 L 250.94500791309787 302.80778141561547 L 251.74330653531518 303.9726374770102 L 252.57795289214175 305.10711165152713 L 253.45004843008087 306.2102832759275 L 254.36069459563578 307.2812316869726 L 255.31099283530983 308.3190362214237 L 256.30204459560633 309.32277621604203 L 257.3349513230285 310.29153100758896 L 258.41081446407986 311.2243799328257 L 259.5307354652635 312.12040232851353 L 260.69581577308287 312.9786775314138 L 261.9071568340412 313.7982848782877 L 263.1658600946418 314.5783037058966 L 264.47302700138806 315.31781335100163 L 265.8297590007832 316.01589315036415 L 267.2371575393306 316.67162244074547 L 268.69626757905996 317.28412614457795 L 270.2066521870498 317.8537251443798 L 271.76628328036315 318.3820244568162 L 273.3730544059082 318.87069234701477 L 275.0248591105935 319.32139708010266 L 276.71959094132757 319.7358069212073 L 278.4551434450188 320.11559013545605 L 280.2294101685757 320.4624149879763 L 282.04028465890684 320.7779497438953 L 283.88566046292055 321.0638626683405 L 285.76343112752534 321.3218220264391 L 287.6714901996296 321.55349608331875 L 289.60773122614205 321.7605531041065 L 291.57004775397087 321.9446613539299 L 293.5563333300247 322.1074890979162 L 295.56448150121184 322.2507046011928 L 297.59238581444106 322.37597612888703 L 299.63793981662053 322.48497194612634 L 301.69903705465885 322.57936031803786 L 303.77357107546453 322.66080950974913 L 305.8594354259459 322.73098778638746 L 307.95452365301156 322.79156341308027 L 310.0567293035699 322.84420465495475 L 312.16394592452946 322.8905797771384 L 314.2740670627987 322.93235704475853 L 316.38498626528593 322.9712047229425 L 318.4946016439177 323.0087874885388 L 320.60145867125385 323.0462611681669 L 322.70541472859463 323.08375037797566 L 324.8064858433986 323.12125503216294 L 326.9046880431242 323.15877504492664 L 329.0000373552301 323.1963103304647 L 331.09254980717475 323.23386080297496 L 333.18224142641674 323.2714263766554 L 335.26912824041455 323.30900696570393 L 337.35322627662674 323.34660248431834 L 339.4345515625119 323.3842128466965 L 341.51312012552853 323.4218379670365 L 343.58894799313515 323.45947775953607 L 345.6620511927903 323.4971321383931 L 347.73244575195247 323.53480101780565 L 349.8001476980803 323.5724843119715 L 351.8651730586323 323.6101819350885 L 353.927537861067 323.64789380135466 L 355.98725813284295 323.6856198249678 L 358.04434990141857 323.7233599201258 L 360.0988291942526 323.7611140010266 L 362.1507120388034 323.7988819818682 L 364.2000144625297 323.83666377684824 L 366.24675249288975 323.87445930016486 L 368.2909421573424 323.91226846601586 L 370.3325994833459 323.9500911885991 L 372.3717404983591 323.98792738211256 L 374.4083812298403 324.0257769607541 L 376.4425377052481 324.06363983872154 L 378.474225952041 324.10151593021294 L 380.50346199767773 324.13940514942607 L 382.53026186961654 324.17730741055885 L 384.55464159531624 324.2152226278092 L 386.5766172022351 324.253150715375 L 388.5962047178319 324.29109158745416 L 390.6134201695651 324.3290451582446 L 392.6282795848931 324.36701134194413 L 394.64079899127466 324.40499005275075 L 396.65099441616815 324.4429812048623 L 398.6588818870322 324.4809847124767 L 400.66447743132534 324.5190004897918 L 402.667797076506 324.5570284510056 L 404.6688568500329 324.59506851031585 L 406.66767277936435 324.63312058192054 L 408.66426089195915 324.67118458001755 L 410.65863721527563 324.70926041880483 L 412.65081777677244 324.7473480124802 L 414.6408186039081 324.78544727524155 L 416.6286557241411 324.82355812128685 L 418.61434516493 324.86168046481396 L 420.59790295373335 324.8998142200208 L 422.5793451180097 324.9379593011052 L 424.55868768521754 324.97611562226507 L 426.5359466828155 325.0142830976984 L 428.511138138262 325.05246164160303 L 430.48427807901567 325.0906511681768 L 432.45538253253505 325.12885159161766 L 434.42446752627853 325.1670628261235 L 436.3915490877049 325.2052847858923 L 438.3566432442724 325.2435173851218 L 440.3197660234399 325.28176053800996 L 442.28093345266564 325.3200141587547 L 444.24016155940836 325.358278161554 L 446.19746637112644 325.39655246060556 L 448.15286391527854 325.4348369701074 L 450.1063702193232 325.47313160425745 L 452.05800131071885 325.5114362772535 L 454.00777321692414 325.54975090329356 L 455.9557019653975 325.5880753965754 L 457.9018035835976 325.62640967129704 L 459.8460940989828 325.6647536416563 L 461.78858953901187 325.70310722185116 L 463.72930593114313 325.74147032607937 L 465.6682593028352 325.77984286853894 L 467.6054656815467 325.8182247634278 L 469.54094109473607 325.8566159249437 L 471.4747015698619 325.8950162672847 L 473.4067631343827 325.9334257046486 L 475.33714181575704 325.9718441512333 L 477.2658536414433 326.0102715212367 L 479.1929146389003 326.04870772885675 L 481.1183408355863 326.08715268829127 L 483.0421482589599 326.1256063137383 L 484.9643529364799 326.1640685193955 L 486.8849708956045 326.202539219461 L 488.8040181637924 326.24101832813255 L 490.7215107685022 326.2795057596081 L 492.63746473719226 326.31800142808555 L 494.5518960973213 326.3565052477628 L 496.46482087634774 326.3950171328377 L 498.37625510173007 326.43353699750827 L 500.28621480092687 326.47206475597227 L 502.1947160013969 326.51060032242765 L 504.1017747305984 326.5491436110723 L 506.00740701599 326.5876945361041 L 507.91162888503027 326.62625301172096 L 509.81445636517776 326.6648189521208 L 511.71590548389094 326.7033922715015 L 513.6159922686285 326.741972884061 L 515.5147327468487 326.78056070399714 L 517.4121429460104 326.8191556455078 L 519.3082388935719 326.8577576227909 L 521.2030366169918 326.8963665500444 L 523.0965521437288 326.93498234146614 L 524.9888015012411 326.973604911254 L 526.8798007169876 327.0122341736059 L 528.7695658184265 327.0508700427197 L 530.6581128330167 327.08951243279336 L 532.5454577882164 327.12816125802476 L 534.4316167114844 327.16681643261177 L 536.3166056302791 327.2054778707523 L 538.2004405720589 327.2441454866443 L 540.0831375642828 327.28281919448557 L 541.9647126344089 327.32149890847404 L 543.8451818098958 327.36018454280764 L 545.7245611182021 327.3988760116842 L 547.6028665867866 327.43757322930173 L 549.4801142431074 327.4762761098581 L 551.3563201146233 327.51498456755104 L 553.2315002287927 327.55369851657866 L 555.1056706130742 327.59241787113876 L 556.9788472949264 327.63114254542927 L 558.8510463018077 327.669872453648 L 560.7222836611769 327.708607509993 L 562.5925754004921 327.747347628662 L 564.4619375472123 327.786092723853 L 566.3303861287958 327.8248427097639 L 568.1979371727012 327.86359750059256 L 570.0646067063869 327.90235701053683 L 571.9304107573116 327.9411211537947 L 573.7953653529338 327.97988984456407 L 575.659486520712 328.0186629970428 L 577.5227902881047 328.0574405254288 L 579.3852926825706 328.09622234391986 L 581.2470097315681 328.13500836671403 L 583.1079574625559 328.17379850800916 L 584.9681519029923 328.21259268200305 L 586.8276090803358 328.25139080289375 L 588.6863450220453 328.2901927848791 L 590.544375755579 328.32899854215697 L 592.4017173083957 328.3678079889252 L 594.2583857079538 328.4066210393819 L 596.1143969817118 328.4454376077247 L 597.9697671571283 328.48425760815167 L 599.8245122616618 328.52308095486063 L 601.6786483227708 328.5619075620496 L 603.5321913679139 328.60073734391625 L 605.3851574245497 328.6395702146587 L 607.2375625201366 328.67840608847473 L 609.0894226821332 328.71724487956226 L 610.9407539379981 328.7560865021192 L 612.7915723151898 328.7949308703434 L 614.6418938411667 328.83377789843286 L 616.4917345433877 328.8726275005854 L 618.341110449311 328.9114795909989 L 620.1900375863952 328.95033408387127 L 622.0385319820988 328.98919089340046 L 623.8866096638803 329.0280499337843 L 625.7342866591987 329.0669111192207 L 627.581578995512 329.10577436390764 L 629.4285027002788 329.1446395820429 L 631.2750738009581 329.18350668782443 L 633.1213083250078 329.22237559545016 L 634.967222299887 329.26124621911794 L 636.8128317530537 329.30011847302563 L 638.6581527119669 329.33899227137124 L 640.5032012040848 329.3778675283525 L 642.3479932568664 329.4167441581675 L 644.1925448977697 329.455622075014 L 646.0368721542534 329.49450119309 L 647.8809910537761 329.53338142659334 L 649.7249176237966 329.5722626897218 L 651.568667891773 329.6111448966735 L 653.4122578851639 329.65002796164623 L 655.2557036314281 329.6889117988378 L 657.099021158024 329.72779632244635 L 658.9422264924101 329.7666814466695 L 660.7853356620451 329.8055670857053 L 662.6283646943873 329.8444531537516 L 664.4713296168954 329.88333956500634 L 666.3142464570278 329.92222623366735 L 668.1571312422432 329.96111307393255 L 670 329.99999999999994" stroke-opacity="0.6980392156862745" stroke-linecap="round" stroke-linejoin="round" stroke-miterlimit="10" stroke-width="2.5"/><path fill="none" stroke="rgb(0,153,204)" paint-order="fill stroke markers" d=" M 28.385313735632963 40.197826433569375 L 32.388363054671025 49.80514479926077" stroke-opacity="0.6980392156862745" stroke-linecap="round" stroke-linejoin="round" stroke-miterlimit="10" stroke-width="1.5"/><path fill="none" stroke="rgb(0,153,204)" paint-order="fill stroke markers" d=" M 32.388363054671025 49.80514479926077 L 36.391412373709095 58.61185330114456" stroke-opacity="0.6980392156862745" stroke-linecap="round" stroke-linejoin="round" stroke-miterlimit="10" stroke-width="1.5"/><path fill="none" stroke="rgb(0,153,204)" paint-order="fill stroke markers" d=" M 36.391412373709095 58.61185330114456 L 39.59385182893955 67.41856180302835" stroke-opacity="0.6980392156862745" stroke-linecap="round" stroke-linejoin="round" stroke-miterlimit="10" stroke-width="1.5"/><path fill="none" stroke="rgb(0,153,204)" paint-order="fill stroke markers" d=" M 39.59385182893955 67.41856180302835 L 43.59690114797761 76.22527030491214" stroke-opacity="0.6980392156862745" stroke-linecap="round" stroke-linejoin="round" stroke-miterlimit="10" stroke-width="1.5"/><path fill="none" stroke="rgb(0,153,204)" paint-order="fill stroke markers" d=" M 43.59690114797761 76.22527030491214 L 49.201170194630905 85.03197880679593" stroke-opacity="0.6980392156862745" stroke-linecap="round" stroke-linejoin="round" stroke-miterlimit="10" stroke-width="1.5"/><path fill="none" stroke="rgb(0,153,204)" paint-order="fill stroke markers" d=" M 260.5621742398407 40.998436297377 L 271.77071233314734 67.41856180302835" stroke-opacity="0.6980392156862745" stroke-linecap="round" stroke-linejoin="round" stroke-miterlimit="10" stroke-width="1.5"/><path fill="none" stroke="rgb(0,153,204)" paint-order="fill stroke markers" d=" M 271.77071233314734 67.41856180302835 L 286.18168988168435 94.63929717248735" stroke-opacity="0.6980392156862745" stroke-linecap="round" stroke-linejoin="round" stroke-miterlimit="10" stroke-width="1.5"/><path fill="none" stroke="rgb(0,153,204)" paint-order="fill stroke markers" d=" M 286.18168988168435 94.63929717248735 L 297.3902279749909 108.24966485721683" stroke-opacity="0.6980392156862745" stroke-linecap="round" stroke-linejoin="round" stroke-miterlimit="10" stroke-width="1.5"/><path fill="none" stroke="rgb(0,153,204)" paint-order="fill stroke markers" d=" M 297.3902279749909 108.24966485721683 L 305.39632661306706 117.05637335910062" stroke-opacity="0.6980392156862745" stroke-linecap="round" stroke-linejoin="round" stroke-miterlimit="10" stroke-width="1.5"/><path fill="none" stroke="rgb(0,153,204)" paint-order="fill stroke markers" d=" M 305.39632661306706 117.05637335910062 L 315.804254842566 122.66064240575395" stroke-opacity="0.6980392156862745" stroke-linecap="round" stroke-linejoin="round" stroke-miterlimit="10" stroke-width="1.5"/><path fill="none" stroke="rgb(0,153,204)" paint-order="fill stroke markers" d=" M 499.9735351649501 60.06131980021913 L 518.7939110574775 96.88379437255553" stroke-opacity="0.6980392156862745" stroke-linecap="round" stroke-linejoin="round" stroke-miterlimit="10" stroke-width="1.5"/><path fill="none" stroke="rgb(0,153,204)" paint-order="fill stroke markers" d=" M 518.7939110574775 96.88379437255553 L 594.0754146275871 86.2461906072139" stroke-opacity="0.6980392156862745" stroke-linecap="round" stroke-linejoin="round" stroke-miterlimit="10" stroke-width="1.5"/><path fill="none" stroke="rgb(0,153,204)" paint-order="fill stroke markers" d=" M 594.0754146275871 86.2461906072139 L 509.7928617175731 84.60963618177672" stroke-opacity="0.6980392156862745" stroke-linecap="round" stroke-linejoin="round" stroke-miterlimit="10" stroke-width="1.5"/><path fill="none" stroke="rgb(0,153,204)" paint-order="fill stroke markers" d=" M 509.7928617175731 84.60963618177672 L 580.9829792240898 108.33967535061574" stroke-opacity="0.6980392156862745" stroke-linecap="round" stroke-linejoin="round" stroke-miterlimit="10" stroke-width="1.5"/><path fill="none" stroke="rgb(0,153,204)" paint-order="fill stroke markers" d=" M 727.4546003007162 47.78716160944033 L 829.739251890539 80.5182501181838" stroke-opacity="0.6980392156862745" stroke-linecap="round" stroke-linejoin="round" stroke-miterlimit="10" stroke-width="1.5"/><path fill="none" stroke="rgb(0,153,204)" paint-order="fill stroke markers" d=" M 752.0029166822736 99.3386260107113 L 829.739251890539 80.5182501181838" stroke-opacity="0.6980392156862745" stroke-linecap="round" stroke-linejoin="round" stroke-miterlimit="10" stroke-width="1.5"/><path fill="none" stroke="rgb(0,0,0)" paint-order="fill stroke markers" d=" M 237 366.99999999999994 L 650.9989722400799 366.99999999999994" stroke-opacity="0.6980392156862745" stroke-linecap="round" stroke-linejoin="round" stroke-miterlimit="10" stroke-width="2"/><path fill="rgb(0,0,0)" stroke="none" paint-order="stroke fill markers" fill-rule="evenodd" d=" M 666.9989722400799 366.99999999999994 L 650.9989722400799 370.99999999999994 L 650.9989722400799 362.99999999999994 Z" fill-opacity="0.6980392156862745"/><path fill="none" stroke="rgb(0,0,0)" paint-order="fill stroke markers" d=" M 237 366.99999999999994 L 237 217.61577990766057" stroke-opacity="0.6980392156862745" stroke-linecap="round" stroke-linejoin="round" stroke-miterlimit="10" stroke-width="2"/><path fill="rgb(0,0,0)" stroke="none" paint-order="stroke fill markers" fill-rule="evenodd" d=" M 237 201.61577990766057 L 241 217.61577990766057 L 233 217.61577990766057 Z" fill-opacity="0.6980392156862745"/><path fill="none" stroke="rgb(0,153,204)" paint-order="fill stroke markers" d=" M 580.9829792240898 108.33967535061574 L 543.3772164910077 108.79130363233686" stroke-opacity="0.6980392156862745" stroke-linecap="round" stroke-linejoin="round" stroke-miterlimit="10" stroke-width="1.5"/><path fill="rgb(0,153,204)" stroke="none" paint-order="stroke fill markers" fill-rule="evenodd" d=" M 528.3782980936649 108.97143389033874 L 543.3321839265072 105.04157403300113 L 543.4222490555082 112.5410332316726 Z" fill-opacity="0.6980392156862745"/><path fill="none" stroke="rgb(0,153,204)" paint-order="fill stroke markers" d=" M 727.4546003007162 47.78716160944033 L 774.2823766435583 10.556372791615647" stroke-opacity="0.6980392156862745" stroke-linecap="round" stroke-linejoin="round" stroke-miterlimit="10" stroke-width="1.5"/><path fill="rgb(0,153,204)" stroke="none" paint-order="stroke fill markers" fill-rule="evenodd" d=" M 786.0236615786474 1.2213726270173026 L 776.616126684708 13.491694025387908 L 771.9486266024087 7.621051557843387 Z" fill-opacity="0.6980392156862745"/><path fill="rgb(255,153,0)" stroke="none" paint-order="stroke fill markers" d=" M 31.385313735632963 40.197826433569375 C 31.385313735632963 41.85468068306176 30.042167985125342 43.197826433569375 28.385313735632963 43.197826433569375 C 26.728459486140583 43.197826433569375 25.385313735632963 41.85468068306176 25.385313735632963 40.197826433569375 C 25.385313735632963 38.54097218407699 26.728459486140583 37.197826433569375 28.385313735632963 37.197826433569375 C 30.042167985125342 37.197826433569375 31.385313735632963 38.54097218407699 31.385313735632963 40.197826433569375 Z" fill-opacity="1"/><path fill="none" stroke="rgb(0,0,0)" paint-order="fill stroke markers" d=" M 31.385313735632963 40.197826433569375 C 31.385313735632963 41.85468068306176 30.042167985125342 43.197826433569375 28.385313735632963 43.197826433569375 C 26.728459486140583 43.197826433569375 25.385313735632963 41.85468068306176 25.385313735632963 40.197826433569375 C 25.385313735632963 38.54097218407699 26.728459486140583 37.197826433569375 28.385313735632963 37.197826433569375 C 30.042167985125342 37.197826433569375 31.385313735632963 38.54097218407699 31.385313735632963 40.197826433569375 Z" stroke-opacity="1" stroke-linecap="round" stroke-linejoin="round" stroke-miterlimit="10"/><path fill="rgb(255,153,0)" stroke="none" paint-order="stroke fill markers" d=" M 35.388363054671025 49.80514479926077 C 35.388363054671025 51.46199904875316 34.0452173041634 52.80514479926077 32.388363054671025 52.80514479926077 C 30.731508805178645 52.80514479926077 29.388363054671025 51.46199904875316 29.388363054671025 49.80514479926077 C 29.388363054671025 48.14829054976839 30.731508805178645 46.80514479926077 32.388363054671025 46.80514479926077 C 34.0452173041634 46.80514479926077 35.388363054671025 48.14829054976839 35.388363054671025 49.80514479926077 Z" fill-opacity="1"/><path fill="none" stroke="rgb(0,0,0)" paint-order="fill stroke markers" d=" M 35.388363054671025 49.80514479926077 C 35.388363054671025 51.46199904875316 34.0452173041634 52.80514479926077 32.388363054671025 52.80514479926077 C 30.731508805178645 52.80514479926077 29.388363054671025 51.46199904875316 29.388363054671025 49.80514479926077 C 29.388363054671025 48.14829054976839 30.731508805178645 46.80514479926077 32.388363054671025 46.80514479926077 C 34.0452173041634 46.80514479926077 35.388363054671025 48.14829054976839 35.388363054671025 49.80514479926077 Z" stroke-opacity="1" stroke-linecap="round" stroke-linejoin="round" stroke-miterlimit="10"/><path fill="rgb(255,153,0)" stroke="none" paint-order="stroke fill markers" d=" M 39.391412373709095 58.61185330114456 C 39.391412373709095 60.26870755063695 38.04826662320147 61.61185330114456 36.391412373709095 61.61185330114456 C 34.73455812421671 61.61185330114456 33.391412373709095 60.26870755063695 33.391412373709095 58.61185330114456 C 33.391412373709095 56.95499905165218 34.73455812421671 55.61185330114456 36.391412373709095 55.61185330114456 C 38.04826662320147 55.61185330114456 39.391412373709095 56.95499905165218 39.391412373709095 58.61185330114456 Z" fill-opacity="1"/><path fill="none" stroke="rgb(0,0,0)" paint-order="fill stroke markers" d=" M 39.391412373709095 58.61185330114456 C 39.391412373709095 60.26870755063695 38.04826662320147 61.61185330114456 36.391412373709095 61.61185330114456 C 34.73455812421671 61.61185330114456 33.391412373709095 60.26870755063695 33.391412373709095 58.61185330114456 C 33.391412373709095 56.95499905165218 34.73455812421671 55.61185330114456 36.391412373709095 55.61185330114456 C 38.04826662320147 55.61185330114456 39.391412373709095 56.95499905165218 39.391412373709095 58.61185330114456 Z" stroke-opacity="1" stroke-linecap="round" stroke-linejoin="round" stroke-miterlimit="10"/><path fill="rgb(255,153,0)" stroke="none" paint-order="stroke fill markers" d=" M 42.59385182893955 67.41856180302835 C 42.59385182893955 69.07541605252074 41.25070607843193 70.41856180302835 39.59385182893955 70.41856180302835 C 37.936997579447166 70.41856180302835 36.59385182893955 69.07541605252074 36.59385182893955 67.41856180302835 C 36.59385182893955 65.76170755353597 37.936997579447166 64.41856180302835 39.59385182893955 64.41856180302835 C 41.25070607843193 64.41856180302835 42.59385182893955 65.76170755353597 42.59385182893955 67.41856180302835 Z" fill-opacity="1"/><path fill="none" stroke="rgb(0,0,0)" paint-order="fill stroke markers" d=" M 42.59385182893955 67.41856180302835 C 42.59385182893955 69.07541605252074 41.25070607843193 70.41856180302835 39.59385182893955 70.41856180302835 C 37.936997579447166 70.41856180302835 36.59385182893955 69.07541605252074 36.59385182893955 67.41856180302835 C 36.59385182893955 65.76170755353597 37.936997579447166 64.41856180302835 39.59385182893955 64.41856180302835 C 41.25070607843193 64.41856180302835 42.59385182893955 65.76170755353597 42.59385182893955 67.41856180302835 Z" stroke-opacity="1" stroke-linecap="round" stroke-linejoin="round" stroke-miterlimit="10"/><path fill="rgb(255,153,0)" stroke="none" paint-order="stroke fill markers" d=" M 46.59690114797761 76.22527030491214 C 46.59690114797761 77.88212455440453 45.25375539746999 79.22527030491214 43.59690114797761 79.22527030491214 C 41.94004689848523 79.22527030491214 40.59690114797761 77.88212455440453 40.59690114797761 76.22527030491214 C 40.59690114797761 74.56841605541976 41.94004689848523 73.22527030491214 43.59690114797761 73.22527030491214 C 45.25375539746999 73.22527030491214 46.59690114797761 74.56841605541976 46.59690114797761 76.22527030491214 Z" fill-opacity="1"/><path fill="none" stroke="rgb(0,0,0)" paint-order="fill stroke markers" d=" M 46.59690114797761 76.22527030491214 C 46.59690114797761 77.88212455440453 45.25375539746999 79.22527030491214 43.59690114797761 79.22527030491214 C 41.94004689848523 79.22527030491214 40.59690114797761 77.88212455440453 40.59690114797761 76.22527030491214 C 40.59690114797761 74.56841605541976 41.94004689848523 73.22527030491214 43.59690114797761 73.22527030491214 C 45.25375539746999 73.22527030491214 46.59690114797761 74.56841605541976 46.59690114797761 76.22527030491214 Z" stroke-opacity="1" stroke-linecap="round" stroke-linejoin="round" stroke-miterlimit="10"/><path fill="rgb(255,153,0)" stroke="none" paint-order="stroke fill markers" d=" M 52.201170194630905 85.03197880679593 C 52.201170194630905 86.68883305628832 50.85802444412329 88.03197880679593 49.201170194630905 88.03197880679593 C 47.54431594513852 88.03197880679593 46.201170194630905 86.68883305628832 46.201170194630905 85.03197880679593 C 46.201170194630905 83.37512455730355 47.54431594513852 82.03197880679593 49.201170194630905 82.03197880679593 C 50.85802444412329 82.03197880679593 52.201170194630905 83.37512455730355 52.201170194630905 85.03197880679593 Z" fill-opacity="1"/><path fill="none" stroke="rgb(0,0,0)" paint-order="fill stroke markers" d=" M 52.201170194630905 85.03197880679593 C 52.201170194630905 86.68883305628832 50.85802444412329 88.03197880679593 49.201170194630905 88.03197880679593 C 47.54431594513852 88.03197880679593 46.201170194630905 86.68883305628832 46.201170194630905 85.03197880679593 C 46.201170194630905 83.37512455730355 47.54431594513852 82.03197880679593 49.201170194630905 82.03197880679593 C 50.85802444412329 82.03197880679593 52.201170194630905 83.37512455730355 52.201170194630905 85.03197880679593 Z" stroke-opacity="1" stroke-linecap="round" stroke-linejoin="round" stroke-miterlimit="10"/><path fill="rgb(255,153,0)" stroke="none" paint-order="stroke fill markers" d=" M 274.77071233314734 67.41856180302835 C 274.77071233314734 69.07541605252074 273.4275665826397 70.41856180302835 271.77071233314734 70.41856180302835 C 270.113858083655 70.41856180302835 268.77071233314734 69.07541605252074 268.77071233314734 67.41856180302835 C 268.77071233314734 65.76170755353597 270.113858083655 64.41856180302835 271.77071233314734 64.41856180302835 C 273.4275665826397 64.41856180302835 274.77071233314734 65.76170755353597 274.77071233314734 67.41856180302835 Z" fill-opacity="1"/><path fill="none" stroke="rgb(0,0,0)" paint-order="fill stroke markers" d=" M 274.77071233314734 67.41856180302835 C 274.77071233314734 69.07541605252074 273.4275665826397 70.41856180302835 271.77071233314734 70.41856180302835 C 270.113858083655 70.41856180302835 268.77071233314734 69.07541605252074 268.77071233314734 67.41856180302835 C 268.77071233314734 65.76170755353597 270.113858083655 64.41856180302835 271.77071233314734 64.41856180302835 C 273.4275665826397 64.41856180302835 274.77071233314734 65.76170755353597 274.77071233314734 67.41856180302835 Z" stroke-opacity="1" stroke-linecap="round" stroke-linejoin="round" stroke-miterlimit="10"/><path fill="rgb(255,153,0)" stroke="none" paint-order="stroke fill markers" d=" M 289.18168988168435 94.63929717248735 C 289.18168988168435 96.29615142197973 287.8385441311767 97.63929717248735 286.18168988168435 97.63929717248735 C 284.524835632192 97.63929717248735 283.18168988168435 96.29615142197973 283.18168988168435 94.63929717248735 C 283.18168988168435 92.98244292299496 284.524835632192 91.63929717248735 286.18168988168435 91.63929717248735 C 287.8385441311767 91.63929717248735 289.18168988168435 92.98244292299496 289.18168988168435 94.63929717248735 Z" fill-opacity="1"/><path fill="none" stroke="rgb(0,0,0)" paint-order="fill stroke markers" d=" M 289.18168988168435 94.63929717248735 C 289.18168988168435 96.29615142197973 287.8385441311767 97.63929717248735 286.18168988168435 97.63929717248735 C 284.524835632192 97.63929717248735 283.18168988168435 96.29615142197973 283.18168988168435 94.63929717248735 C 283.18168988168435 92.98244292299496 284.524835632192 91.63929717248735 286.18168988168435 91.63929717248735 C 287.8385441311767 91.63929717248735 289.18168988168435 92.98244292299496 289.18168988168435 94.63929717248735 Z" stroke-opacity="1" stroke-linecap="round" stroke-linejoin="round" stroke-miterlimit="10"/><path fill="rgb(255,153,0)" stroke="none" paint-order="stroke fill markers" d=" M 300.3902279749909 108.24966485721683 C 300.3902279749909 109.90651910670921 299.0470822244833 111.24966485721683 297.3902279749909 111.24966485721683 C 295.73337372549855 111.24966485721683 294.3902279749909 109.90651910670921 294.3902279749909 108.24966485721683 C 294.3902279749909 106.59281060772445 295.73337372549855 105.24966485721683 297.3902279749909 105.24966485721683 C 299.0470822244833 105.24966485721683 300.3902279749909 106.59281060772445 300.3902279749909 108.24966485721683 Z" fill-opacity="1"/><path fill="none" stroke="rgb(0,0,0)" paint-order="fill stroke markers" d=" M 300.3902279749909 108.24966485721683 C 300.3902279749909 109.90651910670921 299.0470822244833 111.24966485721683 297.3902279749909 111.24966485721683 C 295.73337372549855 111.24966485721683 294.3902279749909 109.90651910670921 294.3902279749909 108.24966485721683 C 294.3902279749909 106.59281060772445 295.73337372549855 105.24966485721683 297.3902279749909 105.24966485721683 C 299.0470822244833 105.24966485721683 300.3902279749909 106.59281060772445 300.3902279749909 108.24966485721683 Z" stroke-opacity="1" stroke-linecap="round" stroke-linejoin="round" stroke-miterlimit="10"/><path fill="rgb(255,153,0)" stroke="none" paint-order="stroke fill markers" d=" M 308.39632661306706 117.05637335910062 C 308.39632661306706 118.713227608593 307.05318086255943 120.05637335910062 305.39632661306706 120.05637335910062 C 303.7394723635747 120.05637335910062 302.39632661306706 118.713227608593 302.39632661306706 117.05637335910062 C 302.39632661306706 115.39951910960824 303.7394723635747 114.05637335910062 305.39632661306706 114.05637335910062 C 307.05318086255943 114.05637335910062 308.39632661306706 115.39951910960824 308.39632661306706 117.05637335910062 Z" fill-opacity="1"/><path fill="none" stroke="rgb(0,0,0)" paint-order="fill stroke markers" d=" M 308.39632661306706 117.05637335910062 C 308.39632661306706 118.713227608593 307.05318086255943 120.05637335910062 305.39632661306706 120.05637335910062 C 303.7394723635747 120.05637335910062 302.39632661306706 118.713227608593 302.39632661306706 117.05637335910062 C 302.39632661306706 115.39951910960824 303.7394723635747 114.05637335910062 305.39632661306706 114.05637335910062 C 307.05318086255943 114.05637335910062 308.39632661306706 115.39951910960824 308.39632661306706 117.05637335910062 Z" stroke-opacity="1" stroke-linecap="round" stroke-linejoin="round" stroke-miterlimit="10"/><path fill="rgb(255,153,0)" stroke="none" paint-order="stroke fill markers" d=" M 263.5621742398407 40.998436297377 C 263.5621742398407 42.65529054686938 262.2190284893331 43.998436297377 260.5621742398407 43.998436297377 C 258.90531999034835 43.998436297377 257.5621742398407 42.65529054686938 257.5621742398407 40.998436297377 C 257.5621742398407 39.341582047884614 258.90531999034835 37.998436297377 260.5621742398407 37.998436297377 C 262.2190284893331 37.998436297377 263.5621742398407 39.341582047884614 263.5621742398407 40.998436297377 Z" fill-opacity="1"/><path fill="none" stroke="rgb(0,0,0)" paint-order="fill stroke markers" d=" M 263.5621742398407 40.998436297377 C 263.5621742398407 42.65529054686938 262.2190284893331 43.998436297377 260.5621742398407 43.998436297377 C 258.90531999034835 43.998436297377 257.5621742398407 42.65529054686938 257.5621742398407 40.998436297377 C 257.5621742398407 39.341582047884614 258.90531999034835 37.998436297377 260.5621742398407 37.998436297377 C 262.2190284893331 37.998436297377 263.5621742398407 39.341582047884614 263.5621742398407 40.998436297377 Z" stroke-opacity="1" stroke-linecap="round" stroke-linejoin="round" stroke-miterlimit="10"/><path fill="rgb(255,153,0)" stroke="none" paint-order="stroke fill markers" d=" M 318.804254842566 122.66064240575395 C 318.804254842566 124.31749665524633 317.4611090920584 125.66064240575395 315.804254842566 125.66064240575395 C 314.14740059307366 125.66064240575395 312.804254842566 124.31749665524633 312.804254842566 122.66064240575395 C 312.804254842566 121.00378815626156 314.14740059307366 119.66064240575395 315.804254842566 119.66064240575395 C 317.4611090920584 119.66064240575395 318.804254842566 121.00378815626156 318.804254842566 122.66064240575395 Z" fill-opacity="1"/><path fill="none" stroke="rgb(0,0,0)" paint-order="fill stroke markers" d=" M 318.804254842566 122.66064240575395 C 318.804254842566 124.31749665524633 317.4611090920584 125.66064240575395 315.804254842566 125.66064240575395 C 314.14740059307366 125.66064240575395 312.804254842566 124.31749665524633 312.804254842566 122.66064240575395 C 312.804254842566 121.00378815626156 314.14740059307366 119.66064240575395 315.804254842566 119.66064240575395 C 317.4611090920584 119.66064240575395 318.804254842566 121.00378815626156 318.804254842566 122.66064240575395 Z" stroke-opacity="1" stroke-linecap="round" stroke-linejoin="round" stroke-miterlimit="10"/><path fill="rgb(255,153,0)" stroke="none" paint-order="stroke fill markers" d=" M 502.9735351649501 60.06131980021913 C 502.9735351649501 61.71817404971151 501.63038941444245 63.06131980021913 499.9735351649501 63.06131980021913 C 498.3166809154577 63.06131980021913 496.9735351649501 61.71817404971151 496.9735351649501 60.06131980021913 C 496.9735351649501 58.40446555072675 498.3166809154577 57.06131980021913 499.9735351649501 57.06131980021913 C 501.63038941444245 57.06131980021913 502.9735351649501 58.40446555072675 502.9735351649501 60.06131980021913 Z" fill-opacity="1"/><path fill="none" stroke="rgb(0,0,0)" paint-order="fill stroke markers" d=" M 502.9735351649501 60.06131980021913 C 502.9735351649501 61.71817404971151 501.63038941444245 63.06131980021913 499.9735351649501 63.06131980021913 C 498.3166809154577 63.06131980021913 496.9735351649501 61.71817404971151 496.9735351649501 60.06131980021913 C 496.9735351649501 58.40446555072675 498.3166809154577 57.06131980021913 499.9735351649501 57.06131980021913 C 501.63038941444245 57.06131980021913 502.9735351649501 58.40446555072675 502.9735351649501 60.06131980021913 Z" stroke-opacity="1" stroke-linecap="round" stroke-linejoin="round" stroke-miterlimit="10"/><path fill="rgb(255,153,0)" stroke="none" paint-order="stroke fill markers" d=" M 512.792861717573 84.60963618177672 C 512.792861717573 86.2664904312691 511.44971596706546 87.60963618177672 509.7928617175731 87.60963618177672 C 508.1360074680807 87.60963618177672 506.7928617175731 86.2664904312691 506.7928617175731 84.60963618177672 C 506.7928617175731 82.95278193228434 508.1360074680807 81.60963618177672 509.7928617175731 81.60963618177672 C 511.44971596706546 81.60963618177672 512.792861717573 82.95278193228434 512.792861717573 84.60963618177672 Z" fill-opacity="1"/><path fill="none" stroke="rgb(0,0,0)" paint-order="fill stroke markers" d=" M 512.792861717573 84.60963618177672 C 512.792861717573 86.2664904312691 511.44971596706546 87.60963618177672 509.7928617175731 87.60963618177672 C 508.1360074680807 87.60963618177672 506.7928617175731 86.2664904312691 506.7928617175731 84.60963618177672 C 506.7928617175731 82.95278193228434 508.1360074680807 81.60963618177672 509.7928617175731 81.60963618177672 C 511.44971596706546 81.60963618177672 512.792861717573 82.95278193228434 512.792861717573 84.60963618177672 Z" stroke-opacity="1" stroke-linecap="round" stroke-linejoin="round" stroke-miterlimit="10"/><path fill="rgb(255,153,0)" stroke="none" paint-order="stroke fill markers" d=" M 531.3782980936649 108.97143389033874 C 531.3782980936649 110.62828813983113 530.0351523431573 111.97143389033874 528.3782980936649 111.97143389033874 C 526.7214438441724 111.97143389033874 525.3782980936649 110.62828813983113 525.3782980936649 108.97143389033874 C 525.3782980936649 107.31457964084636 526.7214438441724 105.97143389033874 528.3782980936649 105.97143389033874 C 530.0351523431573 105.97143389033874 531.3782980936649 107.31457964084636 531.3782980936649 108.97143389033874 Z" fill-opacity="1"/><path fill="none" stroke="rgb(0,0,0)" paint-order="fill stroke markers" d=" M 531.3782980936649 108.97143389033874 C 531.3782980936649 110.62828813983113 530.0351523431573 111.97143389033874 528.3782980936649 111.97143389033874 C 526.7214438441724 111.97143389033874 525.3782980936649 110.62828813983113 525.3782980936649 108.97143389033874 C 525.3782980936649 107.31457964084636 526.7214438441724 105.97143389033874 528.3782980936649 105.97143389033874 C 530.0351523431573 105.97143389033874 531.3782980936649 107.31457964084636 531.3782980936649 108.97143389033874 Z" stroke-opacity="1" stroke-linecap="round" stroke-linejoin="round" stroke-miterlimit="10"/><path fill="rgb(255,153,0)" stroke="none" paint-order="stroke fill markers" d=" M 597.0754146275871 86.2461906072139 C 597.0754146275871 87.90304485670629 595.7322688770795 89.2461906072139 594.0754146275871 89.2461906072139 C 592.4185603780946 89.2461906072139 591.0754146275871 87.90304485670629 591.0754146275871 86.2461906072139 C 591.0754146275871 84.58933635772152 592.4185603780946 83.2461906072139 594.0754146275871 83.2461906072139 C 595.7322688770795 83.2461906072139 597.0754146275871 84.58933635772152 597.0754146275871 86.2461906072139 Z" fill-opacity="1"/><path fill="none" stroke="rgb(0,0,0)" paint-order="fill stroke markers" d=" M 597.0754146275871 86.2461906072139 C 597.0754146275871 87.90304485670629 595.7322688770795 89.2461906072139 594.0754146275871 89.2461906072139 C 592.4185603780946 89.2461906072139 591.0754146275871 87.90304485670629 591.0754146275871 86.2461906072139 C 591.0754146275871 84.58933635772152 592.4185603780946 83.2461906072139 594.0754146275871 83.2461906072139 C 595.7322688770795 83.2461906072139 597.0754146275871 84.58933635772152 597.0754146275871 86.2461906072139 Z" stroke-opacity="1" stroke-linecap="round" stroke-linejoin="round" stroke-miterlimit="10"/><path fill="rgb(255,153,0)" stroke="none" paint-order="stroke fill markers" d=" M 583.9829792240898 108.33967535061574 C 583.9829792240898 109.99652960010812 582.6398334735823 111.33967535061574 580.9829792240898 111.33967535061574 C 579.3261249745974 111.33967535061574 577.9829792240898 109.99652960010812 577.9829792240898 108.33967535061574 C 577.9829792240898 106.68282110112335 579.3261249745974 105.33967535061574 580.9829792240898 105.33967535061574 C 582.6398334735823 105.33967535061574 583.9829792240898 106.68282110112335 583.9829792240898 108.33967535061574 Z" fill-opacity="1"/><path fill="none" stroke="rgb(0,0,0)" paint-order="fill stroke markers" d=" M 583.9829792240898 108.33967535061574 C 583.9829792240898 109.99652960010812 582.6398334735823 111.33967535061574 580.9829792240898 111.33967535061574 C 579.3261249745974 111.33967535061574 577.9829792240898 109.99652960010812 577.9829792240898 108.33967535061574 C 577.9829792240898 106.68282110112335 579.3261249745974 105.33967535061574 580.9829792240898 105.33967535061574 C 582.6398334735823 105.33967535061574 583.9829792240898 106.68282110112335 583.9829792240898 108.33967535061574 Z" stroke-opacity="1" stroke-linecap="round" stroke-linejoin="round" stroke-miterlimit="10"/><path fill="rgb(255,153,0)" stroke="none" paint-order="stroke fill markers" d=" M 521.7939110574775 96.88379437255553 C 521.7939110574775 98.54064862204791 520.45076530697 99.88379437255553 518.7939110574775 99.88379437255553 C 517.1370568079851 99.88379437255553 515.7939110574775 98.54064862204791 515.7939110574775 96.88379437255553 C 515.7939110574775 95.22694012306314 517.1370568079851 93.88379437255553 518.7939110574775 93.88379437255553 C 520.45076530697 93.88379437255553 521.7939110574775 95.22694012306314 521.7939110574775 96.88379437255553 Z" fill-opacity="1"/><path fill="none" stroke="rgb(0,0,0)" paint-order="fill stroke markers" d=" M 521.7939110574775 96.88379437255553 C 521.7939110574775 98.54064862204791 520.45076530697 99.88379437255553 518.7939110574775 99.88379437255553 C 517.1370568079851 99.88379437255553 515.7939110574775 98.54064862204791 515.7939110574775 96.88379437255553 C 515.7939110574775 95.22694012306314 517.1370568079851 93.88379437255553 518.7939110574775 93.88379437255553 C 520.45076530697 93.88379437255553 521.7939110574775 95.22694012306314 521.7939110574775 96.88379437255553 Z" stroke-opacity="1" stroke-linecap="round" stroke-linejoin="round" stroke-miterlimit="10"/><path fill="rgb(255,153,0)" stroke="none" paint-order="stroke fill markers" d=" M 755.0029166822736 99.3386260107113 C 755.0029166822736 100.99548026020368 753.659770931766 102.3386260107113 752.0029166822736 102.3386260107113 C 750.3460624327812 102.3386260107113 749.0029166822736 100.99548026020368 749.0029166822736 99.3386260107113 C 749.0029166822736 97.68177176121891 750.3460624327812 96.3386260107113 752.0029166822736 96.3386260107113 C 753.659770931766 96.3386260107113 755.0029166822736 97.68177176121891 755.0029166822736 99.3386260107113 Z" fill-opacity="1"/><path fill="none" stroke="rgb(0,0,0)" paint-order="fill stroke markers" d=" M 755.0029166822736 99.3386260107113 C 755.0029166822736 100.99548026020368 753.659770931766 102.3386260107113 752.0029166822736 102.3386260107113 C 750.3460624327812 102.3386260107113 749.0029166822736 100.99548026020368 749.0029166822736 99.3386260107113 C 749.0029166822736 97.68177176121891 750.3460624327812 96.3386260107113 752.0029166822736 96.3386260107113 C 753.659770931766 96.3386260107113 755.0029166822736 97.68177176121891 755.0029166822736 99.3386260107113 Z" stroke-opacity="1" stroke-linecap="round" stroke-linejoin="round" stroke-miterlimit="10"/><path fill="rgb(255,153,0)" stroke="none" paint-order="stroke fill markers" d=" M 832.739251890539 80.5182501181838 C 832.739251890539 82.17510436767618 831.3961061400314 83.5182501181838 829.739251890539 83.5182501181838 C 828.0823976410466 83.5182501181838 826.739251890539 82.17510436767618 826.739251890539 80.5182501181838 C 826.739251890539 78.86139586869142 828.0823976410466 77.5182501181838 829.739251890539 77.5182501181838 C 831.3961061400314 77.5182501181838 832.739251890539 78.86139586869142 832.739251890539 80.5182501181838 Z" fill-opacity="1"/><path fill="none" stroke="rgb(0,0,0)" paint-order="fill stroke markers" d=" M 832.739251890539 80.5182501181838 C 832.739251890539 82.17510436767618 831.3961061400314 83.5182501181838 829.739251890539 83.5182501181838 C 828.0823976410466 83.5182501181838 826.739251890539 82.17510436767618 826.739251890539 80.5182501181838 C 826.739251890539 78.86139586869142 828.0823976410466 77.5182501181838 829.739251890539 77.5182501181838 C 831.3961061400314 77.5182501181838 832.739251890539 78.86139586869142 832.739251890539 80.5182501181838 Z" stroke-opacity="1" stroke-linecap="round" stroke-linejoin="round" stroke-miterlimit="10"/><path fill="rgb(255,153,0)" stroke="none" paint-order="stroke fill markers" d=" M 730.4546003007162 47.78716160944033 C 730.4546003007162 49.444015858932715 729.1114545502086 50.78716160944033 727.4546003007162 50.78716160944033 C 725.7977460512237 50.78716160944033 724.4546003007162 49.444015858932715 724.4546003007162 47.78716160944033 C 724.4546003007162 46.13030735994795 725.7977460512237 44.78716160944033 727.4546003007162 44.78716160944033 C 729.1114545502086 44.78716160944033 730.4546003007162 46.13030735994795 730.4546003007162 47.78716160944033 Z" fill-opacity="1"/><path fill="none" stroke="rgb(0,0,0)" paint-order="fill stroke markers" d=" M 730.4546003007162 47.78716160944033 C 730.4546003007162 49.444015858932715 729.1114545502086 50.78716160944033 727.4546003007162 50.78716160944033 C 725.7977460512237 50.78716160944033 724.4546003007162 49.444015858932715 724.4546003007162 47.78716160944033 C 724.4546003007162 46.13030735994795 725.7977460512237 44.78716160944033 727.4546003007162 44.78716160944033 C 729.1114545502086 44.78716160944033 730.4546003007162 46.13030735994795 730.4546003007162 47.78716160944033 Z" stroke-opacity="1" stroke-linecap="round" stroke-linejoin="round" stroke-miterlimit="10"/><g transform="scale(23,23)"><g transform="translate(8.391304347826088,9.967391304347826)"><path fill="rgb(0,0,0)" stroke="none" paint-order="stroke fill markers" d=" M 0.367 -0.4 L 0.367 -0.4 L 0.307 -0.083 Q 0.298 -0.021 0.271 0.059000000000000004 Q 0.261 0.088 0.251 0.108 Q 0.216 0.182 0.164 0.2 Q 0.151 0.20500000000000002 0.138 0.20500000000000002 Q 0.088 0.20500000000000002 0.064 0.171 Q 0.053 0.156 0.053 0.136 Q 0.053 0.096 0.08700000000000001 0.081 Q 0.097 0.076 0.108 0.076 Q 0.137 0.076 0.14400000000000002 0.101 Q 0.145 0.106 0.145 0.111 Q 0.145 0.145 0.115 0.159 Q 0.10400000000000001 0.164 0.09 0.165 Q 0.109 0.183 0.138 0.183 Q 0.182 0.183 0.20700000000000002 0.085 Q 0.212 0.062 0.219 0.025 L 0.225 -0.005 L 0.3 -0.4 L 0.234 -0.4 Q 0.209 -0.4 0.20700000000000002 -0.40800000000000003 L 0.20600000000000002 -0.40800000000000003 L 0.20600000000000002 -0.41200000000000003 Q 0.20600000000000002 -0.429 0.223 -0.431 L 0.223 -0.431 L 0.23600000000000002 -0.431 L 0.305 -0.431 Q 0.329 -0.556 0.338 -0.588 Q 0.368 -0.6880000000000001 0.444 -0.7030000000000001 Q 0.455 -0.705 0.465 -0.705 Q 0.517 -0.705 0.541 -0.671 L 0.541 -0.671 Q 0.552 -0.656 0.552 -0.636 Q 0.552 -0.596 0.518 -0.581 Q 0.508 -0.5760000000000001 0.497 -0.5760000000000001 Q 0.468 -0.5760000000000001 0.461 -0.601 Q 0.46 -0.606 0.46 -0.611 Q 0.46 -0.642 0.488 -0.657 Q 0.499 -0.664 0.514 -0.665 Q 0.495 -0.683 0.465 -0.683 Q 0.434 -0.683 0.418 -0.649 Q 0.41100000000000003 -0.635 0.394 -0.545 L 0.373 -0.431 L 0.456 -0.431 Q 0.481 -0.431 0.483 -0.42 Q 0.483 -0.402 0.467 -0.4 L 0.466 -0.4 L 0.453 -0.4 L 0.367 -0.4 Z"/></g><g transform="translate(8.988530347826089,9.967391304347826)"><path fill="rgb(0,0,0)" stroke="none" paint-order="stroke fill markers" d=" M 0.331 0.24 L 0.331 0.24 Q 0.331 0.25 0.321 0.25 Q 0.309 0.25 0.268 0.209 Q 0.20600000000000002 0.147 0.165 0.062 Q 0.099 -0.074 0.099 -0.25 Q 0.099 -0.419 0.162 -0.555 Q 0.214 -0.666 0.294 -0.733 Q 0.315 -0.75 0.321 -0.75 Q 0.331 -0.75 0.331 -0.74 Q 0.331 -0.735 0.318 -0.723 Q 0.157 -0.559 0.157 -0.25 Q 0.157 0.058 0.314 0.218 Q 0.331 0.23500000000000001 0.331 0.24 Z"/></g><g transform="translate(9.377420347826089,9.967391304347826)"><path fill="rgb(0,0,0)" stroke="none" paint-order="stroke fill markers" d=" M 0.334 -0.302 L 0.3 -0.165 Q 0.28300000000000003 -0.097 0.28300000000000003 -0.077 Q 0.28300000000000003 -0.025 0.32 -0.014 Q 0.328 -0.011 0.338 -0.011 Q 0.388 -0.011 0.429 -0.061 Q 0.456 -0.093 0.47100000000000003 -0.14200000000000002 Q 0.47400000000000003 -0.153 0.484 -0.153 Q 0.496 -0.153 0.496 -0.14300000000000002 Q 0.496 -0.11800000000000001 0.465 -0.07100000000000001 Q 0.41100000000000003 0.011 0.336 0.011 Q 0.268 0.011 0.23700000000000002 -0.046 Q 0.231 -0.055 0.228 -0.065 Q 0.20400000000000001 -0.017 0.162 0.002 Q 0.14300000000000002 0.011 0.123 0.011 Q 0.063 0.011 0.039 -0.024 Q 0.029 -0.037 0.029 -0.055 Q 0.029 -0.092 0.061 -0.107 Q 0.07200000000000001 -0.113 0.084 -0.113 Q 0.114 -0.113 0.12 -0.088 Q 0.121 -0.083 0.121 -0.078 Q 0.121 -0.044 0.08700000000000001 -0.028 Q 0.081 -0.025 0.074 -0.024 Q 0.095 -0.011 0.124 -0.011 Q 0.177 -0.011 0.20800000000000002 -0.082 Q 0.214 -0.097 0.219 -0.115 Q 0.273 -0.319 0.273 -0.353 Q 0.267 -0.41500000000000004 0.219 -0.42 Q 0.167 -0.42 0.124 -0.367 L 0.124 -0.366 Q 0.124 -0.365 0.123 -0.365 Q 0.108 -0.34500000000000003 0.096 -0.319 Q 0.091 -0.307 0.08700000000000001 -0.295 L 0.085 -0.289 Q 0.083 -0.278 0.07200000000000001 -0.278 Q 0.06 -0.278 0.06 -0.28800000000000003 Q 0.06 -0.313 0.092 -0.36 Q 0.146 -0.442 0.221 -0.442 Q 0.298 -0.442 0.329 -0.366 Q 0.361 -0.428 0.41400000000000003 -0.44 Q 0.424 -0.442 0.434 -0.442 Q 0.493 -0.442 0.517 -0.40900000000000003 Q 0.527 -0.395 0.527 -0.376 Q 0.527 -0.335 0.49 -0.321 Q 0.481 -0.318 0.47300000000000003 -0.318 Q 0.442 -0.318 0.436 -0.34500000000000003 Q 0.435 -0.34900000000000003 0.435 -0.353 Q 0.435 -0.383 0.464 -0.4 Q 0.47300000000000003 -0.405 0.483 -0.40700000000000003 Q 0.462 -0.42 0.433 -0.42 Q 0.365 -0.42 0.337 -0.314 Q 0.335 -0.308 0.334 -0.302 Z"/></g><g transform="translate(9.94894834782609,9.967391304347826)"><path fill="rgb(0,0,0)" stroke="none" paint-order="stroke fill markers" d=" M 0.289 -0.25 L 0.289 -0.25 Q 0.289 -0.081 0.226 0.055 Q 0.17400000000000002 0.166 0.094 0.233 Q 0.073 0.25 0.067 0.25 Q 0.057 0.25 0.057 0.24 Q 0.057 0.23500000000000001 0.07 0.223 Q 0.231 0.059000000000000004 0.231 -0.25 Q 0.231 -0.555 0.081 -0.712 L 0.076 -0.717 Q 0.057 -0.735 0.057 -0.74 Q 0.057 -0.75 0.067 -0.75 Q 0.079 -0.75 0.12 -0.709 Q 0.182 -0.647 0.223 -0.562 Q 0.289 -0.426 0.289 -0.25 Z"/></g></g><g transform="scale(23,23) translate(24.782608695652176,17.304347826086957) scale(0.1,0.1)"><text fill="rgb(0,0,0)" stroke="none" font-family="Serif" font-size="10px" font-style="normal" font-weight="normal" text-decoration="normal" x="0" y="0" text-anchor="start" dominant-baseline="alphabetic"></text><g transform="scale(10,10) translate(-24.782608695652176,-17.304347826086957)"/></g><g transform="scale(23,23)"><g transform="translate(2.4347826086956523,7.260869565217392)"><path fill="rgb(0,0,255)" stroke="none" paint-order="stroke fill markers" d=" M 0.488 -0.277 L 0.488 -0.277 L 0.374 0.176 Q 0.363 0.215 0.333 0.216 Q 0.31 0.216 0.306 0.195 Q 0.305 0.192 0.305 0.189 Q 0.305 0.185 0.308 0.17300000000000001 L 0.422 -0.28700000000000003 Q 0.432 -0.327 0.432 -0.35000000000000003 Q 0.432 -0.42 0.378 -0.42 Q 0.33 -0.42 0.28200000000000003 -0.385 Q 0.245 -0.356 0.217 -0.299 L 0.214 -0.293 Q 0.21 -0.269 0.203 -0.248 Q 0.198 -0.225 0.186 -0.181 L 0.164 -0.091 Q 0.147 -0.022 0.145 -0.017 Q 0.136 0.009000000000000001 0.108 0.011 Q 0.083 0.006 0.079 -0.016 Q 0.079 -0.014 0.088 -0.059000000000000004 L 0.146 -0.29 Q 0.162 -0.354 0.162 -0.374 Q 0.162 -0.42 0.131 -0.42 Q 0.09 -0.42 0.064 -0.325 Q 0.061 -0.314 0.058 -0.301 Q 0.047 -0.279 0.041 -0.278 Q 0.029 -0.278 0.029 -0.28800000000000003 Q 0.029 -0.304 0.047 -0.355 Q 0.054 -0.373 0.06 -0.385 Q 0.084 -0.434 0.12 -0.441 Q 0.127 -0.442 0.134 -0.442 Q 0.188 -0.442 0.214 -0.397 Q 0.224 -0.378 0.226 -0.355 Q 0.277 -0.429 0.356 -0.44 Q 0.368 -0.442 0.381 -0.442 Q 0.47000000000000003 -0.442 0.491 -0.373 L 0.491 -0.372 Q 0.496 -0.355 0.496 -0.335 Q 0.496 -0.306 0.488 -0.277 Z"/></g><g transform="translate(3.2646481086956527,7.260869565217392) scale(0.1,0.1)"><text fill="rgb(0,0,255)" stroke="none" font-family="Serif" font-size="10px" font-style="normal" font-weight="normal" text-decoration="normal" x="0" y="0" text-anchor="start" dominant-baseline="alphabetic"></text><g transform="scale(10,10) translate(-3.2646481086956527,-7.260869565217392)"/></g></g><g transform="scale(23,23)"><g transform="translate(29.652173913043477,14.565217391304348)"><path fill="rgb(153,51,0)" stroke="none" paint-order="stroke fill markers" d=" M 0.488 -0.277 L 0.488 -0.277 L 0.374 0.176 Q 0.363 0.215 0.333 0.216 Q 0.31 0.216 0.306 0.195 Q 0.305 0.192 0.305 0.189 Q 0.305 0.185 0.308 0.17300000000000001 L 0.422 -0.28700000000000003 Q 0.432 -0.327 0.432 -0.35000000000000003 Q 0.432 -0.42 0.378 -0.42 Q 0.33 -0.42 0.28200000000000003 -0.385 Q 0.245 -0.356 0.217 -0.299 L 0.214 -0.293 Q 0.21 -0.269 0.203 -0.248 Q 0.198 -0.225 0.186 -0.181 L 0.164 -0.091 Q 0.147 -0.022 0.145 -0.017 Q 0.136 0.009000000000000001 0.108 0.011 Q 0.083 0.006 0.079 -0.016 Q 0.079 -0.014 0.088 -0.059000000000000004 L 0.146 -0.29 Q 0.162 -0.354 0.162 -0.374 Q 0.162 -0.42 0.131 -0.42 Q 0.09 -0.42 0.064 -0.325 Q 0.061 -0.314 0.058 -0.301 Q 0.047 -0.279 0.041 -0.278 Q 0.029 -0.278 0.029 -0.28800000000000003 Q 0.029 -0.304 0.047 -0.355 Q 0.054 -0.373 0.06 -0.385 Q 0.084 -0.434 0.12 -0.441 Q 0.127 -0.442 0.134 -0.442 Q 0.188 -0.442 0.214 -0.397 Q 0.224 -0.378 0.226 -0.355 Q 0.277 -0.429 0.356 -0.44 Q 0.368 -0.442 0.381 -0.442 Q 0.47000000000000003 -0.442 0.491 -0.373 L 0.491 -0.372 Q 0.496 -0.355 0.496 -0.335 Q 0.496 -0.306 0.488 -0.277 Z"/></g><g transform="translate(30.482039413043477,14.565217391304348) scale(0.1,0.1)"><text fill="rgb(153,51,0)" stroke="none" font-family="Serif" font-size="10px" font-style="normal" font-weight="normal" text-decoration="normal" x="0" y="0" text-anchor="start" dominant-baseline="alphabetic"></text><g transform="scale(10,10) translate(-30.482039413043477,-14.565217391304348)"/></g></g><g transform="scale(23,23)"><g transform="translate(19.26086956521739,8.304347826086957)"><path fill="rgb(255,0,0)" stroke="none" paint-order="stroke fill markers" d=" M 0.488 -0.277 L 0.488 -0.277 L 0.374 0.176 Q 0.363 0.215 0.333 0.216 Q 0.31 0.216 0.306 0.195 Q 0.305 0.192 0.305 0.189 Q 0.305 0.185 0.308 0.17300000000000001 L 0.422 -0.28700000000000003 Q 0.432 -0.327 0.432 -0.35000000000000003 Q 0.432 -0.42 0.378 -0.42 Q 0.33 -0.42 0.28200000000000003 -0.385 Q 0.245 -0.356 0.217 -0.299 L 0.214 -0.293 Q 0.21 -0.269 0.203 -0.248 Q 0.198 -0.225 0.186 -0.181 L 0.164 -0.091 Q 0.147 -0.022 0.145 -0.017 Q 0.136 0.009000000000000001 0.108 0.011 Q 0.083 0.006 0.079 -0.016 Q 0.079 -0.014 0.088 -0.059000000000000004 L 0.146 -0.29 Q 0.162 -0.354 0.162 -0.374 Q 0.162 -0.42 0.131 -0.42 Q 0.09 -0.42 0.064 -0.325 Q 0.061 -0.314 0.058 -0.301 Q 0.047 -0.279 0.041 -0.278 Q 0.029 -0.278 0.029 -0.28800000000000003 Q 0.029 -0.304 0.047 -0.355 Q 0.054 -0.373 0.06 -0.385 Q 0.084 -0.434 0.12 -0.441 Q 0.127 -0.442 0.134 -0.442 Q 0.188 -0.442 0.214 -0.397 Q 0.224 -0.378 0.226 -0.355 Q 0.277 -0.429 0.356 -0.44 Q 0.368 -0.442 0.381 -0.442 Q 0.47000000000000003 -0.442 0.491 -0.373 L 0.491 -0.372 Q 0.496 -0.355 0.496 -0.335 Q 0.496 -0.306 0.488 -0.277 Z"/></g><g transform="translate(20.09073506521739,8.304347826086957) scale(0.1,0.1)"><text fill="rgb(255,0,0)" stroke="none" font-family="Serif" font-size="10px" font-style="normal" font-weight="normal" text-decoration="normal" x="0" y="0" text-anchor="start" dominant-baseline="alphabetic"></text><g transform="scale(10,10) translate(-20.09073506521739,-8.304347826086957)"/></g></g><g transform="scale(23,23)"><g transform="translate(29.565217391304348,13.217391304347826)"><path fill="rgb(0,0,255)" stroke="none" paint-order="stroke fill markers" d=" M 0.488 -0.277 L 0.488 -0.277 L 0.374 0.176 Q 0.363 0.215 0.333 0.216 Q 0.31 0.216 0.306 0.195 Q 0.305 0.192 0.305 0.189 Q 0.305 0.185 0.308 0.17300000000000001 L 0.422 -0.28700000000000003 Q 0.432 -0.327 0.432 -0.35000000000000003 Q 0.432 -0.42 0.378 -0.42 Q 0.33 -0.42 0.28200000000000003 -0.385 Q 0.245 -0.356 0.217 -0.299 L 0.214 -0.293 Q 0.21 -0.269 0.203 -0.248 Q 0.198 -0.225 0.186 -0.181 L 0.164 -0.091 Q 0.147 -0.022 0.145 -0.017 Q 0.136 0.009000000000000001 0.108 0.011 Q 0.083 0.006 0.079 -0.016 Q 0.079 -0.014 0.088 -0.059000000000000004 L 0.146 -0.29 Q 0.162 -0.354 0.162 -0.374 Q 0.162 -0.42 0.131 -0.42 Q 0.09 -0.42 0.064 -0.325 Q 0.061 -0.314 0.058 -0.301 Q 0.047 -0.279 0.041 -0.278 Q 0.029 -0.278 0.029 -0.28800000000000003 Q 0.029 -0.304 0.047 -0.355 Q 0.054 -0.373 0.06 -0.385 Q 0.084 -0.434 0.12 -0.441 Q 0.127 -0.442 0.134 -0.442 Q 0.188 -0.442 0.214 -0.397 Q 0.224 -0.378 0.226 -0.355 Q 0.277 -0.429 0.356 -0.44 Q 0.368 -0.442 0.381 -0.442 Q 0.47000000000000003 -0.442 0.491 -0.373 L 0.491 -0.372 Q 0.496 -0.355 0.496 -0.335 Q 0.496 -0.306 0.488 -0.277 Z"/></g><g transform="translate(30.395082891304348,13.217391304347826) scale(0.1,0.1)"><text fill="rgb(0,0,255)" stroke="none" font-family="Serif" font-size="10px" font-style="normal" font-weight="normal" text-decoration="normal" x="0" y="0" text-anchor="start" dominant-baseline="alphabetic"></text><g transform="scale(10,10) translate(-30.395082891304348,-13.217391304347826)"/></g></g><g transform="scale(23,23)"><g transform="translate(29.652173913043477,15.956521739130435)"><path fill="rgb(0,100,0)" stroke="none" paint-order="stroke fill markers" d=" M 0.488 -0.277 L 0.488 -0.277 L 0.374 0.176 Q 0.363 0.215 0.333 0.216 Q 0.31 0.216 0.306 0.195 Q 0.305 0.192 0.305 0.189 Q 0.305 0.185 0.308 0.17300000000000001 L 0.422 -0.28700000000000003 Q 0.432 -0.327 0.432 -0.35000000000000003 Q 0.432 -0.42 0.378 -0.42 Q 0.33 -0.42 0.28200000000000003 -0.385 Q 0.245 -0.356 0.217 -0.299 L 0.214 -0.293 Q 0.21 -0.269 0.203 -0.248 Q 0.198 -0.225 0.186 -0.181 L 0.164 -0.091 Q 0.147 -0.022 0.145 -0.017 Q 0.136 0.009000000000000001 0.108 0.011 Q 0.083 0.006 0.079 -0.016 Q 0.079 -0.014 0.088 -0.059000000000000004 L 0.146 -0.29 Q 0.162 -0.354 0.162 -0.374 Q 0.162 -0.42 0.131 -0.42 Q 0.09 -0.42 0.064 -0.325 Q 0.061 -0.314 0.058 -0.301 Q 0.047 -0.279 0.041 -0.278 Q 0.029 -0.278 0.029 -0.28800000000000003 Q 0.029 -0.304 0.047 -0.355 Q 0.054 -0.373 0.06 -0.385 Q 0.084 -0.434 0.12 -0.441 Q 0.127 -0.442 0.134 -0.442 Q 0.188 -0.442 0.214 -0.397 Q 0.224 -0.378 0.226 -0.355 Q 0.277 -0.429 0.356 -0.44 Q 0.368 -0.442 0.381 -0.442 Q 0.47000000000000003 -0.442 0.491 -0.373 L 0.491 -0.372 Q 0.496 -0.355 0.496 -0.335 Q 0.496 -0.306 0.488 -0.277 Z"/></g><g transform="translate(30.482039413043477,15.956521739130435) scale(0.1,0.1)"><text fill="rgb(0,100,0)" stroke="none" font-family="Serif" font-size="10px" font-style="normal" font-weight="normal" text-decoration="normal" x="0" y="0" text-anchor="start" dominant-baseline="alphabetic"></text><g transform="scale(10,10) translate(-30.482039413043477,-15.956521739130435)"/></g></g><g transform="scale(23,23)"><g transform="translate(22.565217391304348,7.217391304347826)"><path fill="rgb(153,51,0)" stroke="none" paint-order="stroke fill markers" d=" M 0.488 -0.277 L 0.488 -0.277 L 0.374 0.176 Q 0.363 0.215 0.333 0.216 Q 0.31 0.216 0.306 0.195 Q 0.305 0.192 0.305 0.189 Q 0.305 0.185 0.308 0.17300000000000001 L 0.422 -0.28700000000000003 Q 0.432 -0.327 0.432 -0.35000000000000003 Q 0.432 -0.42 0.378 -0.42 Q 0.33 -0.42 0.28200000000000003 -0.385 Q 0.245 -0.356 0.217 -0.299 L 0.214 -0.293 Q 0.21 -0.269 0.203 -0.248 Q 0.198 -0.225 0.186 -0.181 L 0.164 -0.091 Q 0.147 -0.022 0.145 -0.017 Q 0.136 0.009000000000000001 0.108 0.011 Q 0.083 0.006 0.079 -0.016 Q 0.079 -0.014 0.088 -0.059000000000000004 L 0.146 -0.29 Q 0.162 -0.354 0.162 -0.374 Q 0.162 -0.42 0.131 -0.42 Q 0.09 -0.42 0.064 -0.325 Q 0.061 -0.314 0.058 -0.301 Q 0.047 -0.279 0.041 -0.278 Q 0.029 -0.278 0.029 -0.28800000000000003 Q 0.029 -0.304 0.047 -0.355 Q 0.054 -0.373 0.06 -0.385 Q 0.084 -0.434 0.12 -0.441 Q 0.127 -0.442 0.134 -0.442 Q 0.188 -0.442 0.214 -0.397 Q 0.224 -0.378 0.226 -0.355 Q 0.277 -0.429 0.356 -0.44 Q 0.368 -0.442 0.381 -0.442 Q 0.47000000000000003 -0.442 0.491 -0.373 L 0.491 -0.372 Q 0.496 -0.355 0.496 -0.335 Q 0.496 -0.306 0.488 -0.277 Z"/></g><g transform="translate(23.395082891304348,7.217391304347826) scale(0.1,0.1)"><text fill="rgb(153,51,0)" stroke="none" font-family="Serif" font-size="10px" font-style="normal" font-weight="normal" text-decoration="normal" x="0" y="0" text-anchor="start" dominant-baseline="alphabetic"></text><g transform="scale(10,10) translate(-23.395082891304348,-7.217391304347826)"/></g></g><g transform="scale(23,23)"><g transform="translate(32.91304347826087,7.260869565217392)"><path fill="rgb(255,0,0)" stroke="none" paint-order="stroke fill markers" d=" M 0.488 -0.277 L 0.488 -0.277 L 0.374 0.176 Q 0.363 0.215 0.333 0.216 Q 0.31 0.216 0.306 0.195 Q 0.305 0.192 0.305 0.189 Q 0.305 0.185 0.308 0.17300000000000001 L 0.422 -0.28700000000000003 Q 0.432 -0.327 0.432 -0.35000000000000003 Q 0.432 -0.42 0.378 -0.42 Q 0.33 -0.42 0.28200000000000003 -0.385 Q 0.245 -0.356 0.217 -0.299 L 0.214 -0.293 Q 0.21 -0.269 0.203 -0.248 Q 0.198 -0.225 0.186 -0.181 L 0.164 -0.091 Q 0.147 -0.022 0.145 -0.017 Q 0.136 0.009000000000000001 0.108 0.011 Q 0.083 0.006 0.079 -0.016 Q 0.079 -0.014 0.088 -0.059000000000000004 L 0.146 -0.29 Q 0.162 -0.354 0.162 -0.374 Q 0.162 -0.42 0.131 -0.42 Q 0.09 -0.42 0.064 -0.325 Q 0.061 -0.314 0.058 -0.301 Q 0.047 -0.279 0.041 -0.278 Q 0.029 -0.278 0.029 -0.28800000000000003 Q 0.029 -0.304 0.047 -0.355 Q 0.054 -0.373 0.06 -0.385 Q 0.084 -0.434 0.12 -0.441 Q 0.127 -0.442 0.134 -0.442 Q 0.188 -0.442 0.214 -0.397 Q 0.224 -0.378 0.226 -0.355 Q 0.277 -0.429 0.356 -0.44 Q 0.368 -0.442 0.381 -0.442 Q 0.47000000000000003 -0.442 0.491 -0.373 L 0.491 -0.372 Q 0.496 -0.355 0.496 -0.335 Q 0.496 -0.306 0.488 -0.277 Z"/></g><g transform="translate(33.74290897826087,7.260869565217392) scale(0.1,0.1)"><text fill="rgb(255,0,0)" stroke="none" font-family="Serif" font-size="10px" font-style="normal" font-weight="normal" text-decoration="normal" x="0" y="0" text-anchor="start" dominant-baseline="alphabetic"></text><g transform="scale(10,10) translate(-33.74290897826087,-7.260869565217392)"/></g></g><g transform="scale(23,23)"><g transform="translate(12.652173913043478,7.217391304347826)"><path fill="rgb(0,100,0)" stroke="none" paint-order="stroke fill markers" d=" M 0.488 -0.277 L 0.488 -0.277 L 0.374 0.176 Q 0.363 0.215 0.333 0.216 Q 0.31 0.216 0.306 0.195 Q 0.305 0.192 0.305 0.189 Q 0.305 0.185 0.308 0.17300000000000001 L 0.422 -0.28700000000000003 Q 0.432 -0.327 0.432 -0.35000000000000003 Q 0.432 -0.42 0.378 -0.42 Q 0.33 -0.42 0.28200000000000003 -0.385 Q 0.245 -0.356 0.217 -0.299 L 0.214 -0.293 Q 0.21 -0.269 0.203 -0.248 Q 0.198 -0.225 0.186 -0.181 L 0.164 -0.091 Q 0.147 -0.022 0.145 -0.017 Q 0.136 0.009000000000000001 0.108 0.011 Q 0.083 0.006 0.079 -0.016 Q 0.079 -0.014 0.088 -0.059000000000000004 L 0.146 -0.29 Q 0.162 -0.354 0.162 -0.374 Q 0.162 -0.42 0.131 -0.42 Q 0.09 -0.42 0.064 -0.325 Q 0.061 -0.314 0.058 -0.301 Q 0.047 -0.279 0.041 -0.278 Q 0.029 -0.278 0.029 -0.28800000000000003 Q 0.029 -0.304 0.047 -0.355 Q 0.054 -0.373 0.06 -0.385 Q 0.084 -0.434 0.12 -0.441 Q 0.127 -0.442 0.134 -0.442 Q 0.188 -0.442 0.214 -0.397 Q 0.224 -0.378 0.226 -0.355 Q 0.277 -0.429 0.356 -0.44 Q 0.368 -0.442 0.381 -0.442 Q 0.47000000000000003 -0.442 0.491 -0.373 L 0.491 -0.372 Q 0.496 -0.355 0.496 -0.335 Q 0.496 -0.306 0.488 -0.277 Z"/></g><g transform="translate(13.482039413043479,7.217391304347826) scale(0.1,0.1)"><text fill="rgb(0,100,0)" stroke="none" font-family="Serif" font-size="10px" font-style="normal" font-weight="normal" text-decoration="normal" x="0" y="0" text-anchor="start" dominant-baseline="alphabetic"></text><g transform="scale(10,10) translate(-13.482039413043479,-7.217391304347826)"/></g></g></g></g></svg>