<?xml version="1.0" encoding="UTF-8"?>
<!DOCTYPE svg  PUBLIC '-//W3C//DTD SVG 1.1//EN'  'http://www.w3.org/Graphics/SVG/1.1/DTD/svg11.dtd'>
<!-- Created with matplotlib (https://matplotlib.org/) -->
<svg width="432pt" height="216pt" version="1.1" viewBox="0 0 432 216" xmlns="http://www.w3.org/2000/svg" xmlns:xlink="http://www.w3.org/1999/xlink">
 <defs>
  <style type="text/css">*{stroke-linecap:butt;stroke-linejoin:round;}</style>
 </defs>
 <g id="figure_1">
  <g id="patch_1">
   <path d="m0 216h432v-216h-432z" fill="#fff"/>
  </g>
  <g id="patch_2">
   <path d="m-21.6 198.72h224.53v-190.08h-224.53z" fill="#fff"/>
  </g>
  <g id="pane3d_1">
   <g id="patch_3">
    <path d="m7.0363 156.74 68.152-36.807-0.72044-93.48-71.089 30.478" fill="#f2f2f2" opacity=".5" stroke="#f2f2f2"/>
   </g>
  </g>
  <g id="pane3d_2">
   <g id="patch_4">
    <path d="m75.188 119.93 102.62 22.322 3.4409-97.341-106.78-18.461" fill="#e6e6e6" opacity=".5" stroke="#e6e6e6"/>
   </g>
  </g>
  <g id="pane3d_3">
   <g id="patch_5">
    <path d="m7.0363 156.74 107.73 26.184 63.036-40.669-102.62-22.322" fill="#ececec" opacity=".5" stroke="#ececec"/>
   </g>
  </g>
  <g id="axis3d_1">
   <g id="line2d_1">
    <path d="m7.0363 156.74 107.73 26.184" fill="none" stroke="#000" stroke-linecap="square" stroke-width=".8"/>
   </g>
   <g id="Line3DCollection_1" fill="none" stroke="#b0b0b0" stroke-width=".8">
    <path d="m9.0841 157.24 68.062-36.879-0.64485-93.554"/>
    <path d="m33.985 163.29 66.949-37.756 0.28525-94.455"/>
    <path d="m59.507 169.49 65.762-38.666 1.2594-95.373"/>
    <path d="m85.671 175.85 64.498-39.608 2.28-96.308"/>
    <path d="m112.5 182.37 63.152-40.586 3.3495-97.26"/>
   </g>
   <g id="xtick_1">
    <g id="line2d_2">
     <path d="m9.6723 156.92-1.7669 0.95739" fill="none" stroke="#000" stroke-linecap="square" stroke-width=".8"/>
    </g>
   </g>
   <g id="xtick_2">
    <g id="line2d_3">
     <path d="m34.565 162.96-1.7396 0.98109" fill="none" stroke="#000" stroke-linecap="square" stroke-width=".8"/>
    </g>
   </g>
   <g id="xtick_3">
    <g id="line2d_4">
     <path d="m60.076 169.16-1.7104 1.0057" fill="none" stroke="#000" stroke-linecap="square" stroke-width=".8"/>
    </g>
   </g>
   <g id="xtick_4">
    <g id="line2d_5">
     <path d="m86.23 175.51-1.6792 1.0312" fill="none" stroke="#000" stroke-linecap="square" stroke-width=".8"/>
    </g>
   </g>
   <g id="xtick_5">
    <g id="line2d_6">
     <path d="m113.05 182.02-1.6458 1.0577" fill="none" stroke="#000" stroke-linecap="square" stroke-width=".8"/>
    </g>
   </g>
  </g>
  <g id="axis3d_2">
   <g id="line2d_7">
    <path d="m177.81 142.25-63.036 40.669" fill="none" stroke="#000" stroke-linecap="square" stroke-width=".8"/>
   </g>
   <g id="Line3DCollection_2" fill="none" stroke="#b0b0b0" stroke-width=".8">
    <path d="m4.9179 56.271 3.5893 99.674 107.63 26.097"/>
    <path d="m22.99 48.523 2.8043 98.085 106.38 25.089"/>
    <path d="m40.361 41.075 2.0759 96.545 105.14 24.138"/>
    <path d="m57.07 33.911 1.3995 95.05 103.92 23.24"/>
    <path d="m73.154 27.015 0.7708 93.599 102.72 22.391"/>
   </g>
   <g id="xtick_6">
    <g id="line2d_8">
     <path d="m115.23 181.82 2.7216 0.65991" fill="none" stroke="#000" stroke-linecap="square" stroke-width=".8"/>
    </g>
   </g>
   <g id="xtick_7">
    <g id="line2d_9">
     <path d="m131.28 171.49 2.6871 0.63376" fill="none" stroke="#000" stroke-linecap="square" stroke-width=".8"/>
    </g>
   </g>
   <g id="xtick_8">
    <g id="line2d_10">
     <path d="m146.69 161.55 2.6533 0.60914" fill="none" stroke="#000" stroke-linecap="square" stroke-width=".8"/>
    </g>
   </g>
   <g id="xtick_9">
    <g id="line2d_11">
     <path d="m161.52 152.01 2.6201 0.58592" fill="none" stroke="#000" stroke-linecap="square" stroke-width=".8"/>
    </g>
   </g>
   <g id="xtick_10">
    <g id="line2d_12">
     <path d="m175.78 142.82 2.5874 0.56401" fill="none" stroke="#000" stroke-linecap="square" stroke-width=".8"/>
    </g>
   </g>
  </g>
  <g id="axis3d_3">
   <g id="line2d_13">
    <path d="m177.81 142.25 3.4409-97.341" fill="none" stroke="#000" stroke-linecap="square" stroke-width=".8"/>
   </g>
   <g id="Line3DCollection_3" fill="none" stroke="#b0b0b0" stroke-width=".8">
    <path d="m178.33 127.47-103.25-21.759-68.597 35.885"/>
    <path d="m179.26 101.21-104.37-20.738-69.389 34.213"/>
    <path d="m180.21 74.377-105.52-19.668-70.199 32.458"/>
    <path d="m181.18 46.938-106.69-18.545-71.028 30.616"/>
   </g>
   <g id="xtick_11">
    <g id="line2d_14">
     <path d="m177.46 127.29 2.6014 0.54821" fill="none" stroke="#000" stroke-linecap="square" stroke-width=".8"/>
    </g>
   </g>
   <g id="xtick_12">
    <g id="line2d_15">
     <path d="m178.38 101.04 2.631 0.52276" fill="none" stroke="#000" stroke-linecap="square" stroke-width=".8"/>
    </g>
   </g>
   <g id="xtick_13">
    <g id="line2d_16">
     <path d="m179.32 74.211 2.6614 0.49604" fill="none" stroke="#000" stroke-linecap="square" stroke-width=".8"/>
    </g>
   </g>
   <g id="xtick_14">
    <g id="line2d_17">
     <path d="m180.28 46.782 2.6924 0.46799" fill="none" stroke="#000" stroke-linecap="square" stroke-width=".8"/>
    </g>
   </g>
  </g>
  <g id="axes_1">
   <g id="Poly3DCollection_1" fill-opacity=".8" stroke="#000" stroke-width=".1">
    <path d="m72.361 77.624 3.7376 5.0901 3.7348 4.6163 2.3378-7.6706 2.3334-8.6214-3.7358-4.6135-3.7377-5.0905-2.3314 8.622z" clip-path="url(#pc0c58ce210)" fill="#1f948c"/>
    <path d="m64.869 66.01 3.7497 6.0472 3.7425 5.5669 2.3387-7.6676 2.3314-8.622-3.7417-5.5705-3.748-6.054-2.3312 8.6298z" clip-path="url(#pc0c58ce210)" fill="#29af7f"/>
    <path d="m79.833 87.331 3.7342 4.145 3.7357 3.6755 2.3387-7.6793 2.3372-8.628-3.7386-3.6663-3.7361-4.139-2.3334 8.6214z" clip-path="url(#pc0c58ce210)" fill="#27808e"/>
    <path d="m67.651 90.128 3.7433 5.0977 3.7396 4.6256 2.3548-5.7922 2.3449-6.7283-3.7348-4.6163-3.7376-5.0901-2.3487 6.7216z" clip-path="url(#pc0c58ce210)" fill="#2c718e"/>
    <path d="m77.031 61.335 3.7377 5.0905 3.7358 4.6135 2.3317-9.5829 2.3328-10.557-3.7426-4.6172-3.7436-5.0989-2.3249 10.565z" clip-path="url(#pc0c58ce210)" fill="#48c16e"/>
    <path d="m60.144 78.504 3.7573 6.0514 3.7492 5.5728 2.3615-5.7819 2.3487-6.7216-3.7425-5.5669-3.7497-6.0472-2.3544 6.7192z" clip-path="url(#pc0c58ce210)" fill="#228d8d"/>
    <path d="m69.541 49.71 3.748 6.054 3.7417 5.5705 2.3268-9.5872 2.3249-10.565-3.7467-5.5835-3.7521-6.0718-2.3189 10.583z" clip-path="url(#pc0c58ce210)" fill="#89d548"/>
    <path d="m75.134 99.851 3.7381 4.156 3.7387 3.6883 2.3499-5.8052 2.3429-6.7391-3.7357-3.6755-3.7342-4.145-2.3449 6.7283z" clip-path="url(#pc0c58ce210)" fill="#365c8d"/>
    <path d="m84.504 71.039 3.7361 4.139 3.7386 3.6663 2.3384-9.5873 2.3424-10.56-3.7472-3.6607-3.7438-4.138-2.3328 10.557z" clip-path="url(#pc0c58ce210)" fill="#27ad81"/>
    <path d="m87.303 95.151 3.7395 3.2074 3.7455 2.7401 2.3414-7.6936 2.3428-8.6416-3.7501-2.7245-3.7432-3.195-2.3372 8.628z" clip-path="url(#pc0c58ce210)" fill="#2d708e"/>
    <path d="m81.683 41.182 3.7436 5.0989 3.7426 4.6172 2.3365-11.547-3.7482-4.6215-3.7487-5.1061z" clip-path="url(#pc0c58ce210)" fill="#b0dd2f"/>
    <path d="m74.184 29.527 3.7521 6.0718 3.7467 5.5835 2.3258-11.559-3.7514-5.5937-3.7564-6.0849z" clip-path="url(#pc0c58ce210)" fill="#f8e621"/>
    <path d="m82.61 107.7 3.7416 3.2219 3.7466 2.7564 2.3468-5.821 2.3427-6.7541-3.7455-2.7401-3.7395-3.2074-2.3429 6.7391z" clip-path="url(#pc0c58ce210)" fill="#3e4989"/>
    <path d="m91.979 78.844 3.7432 3.195 3.7501 2.7245 2.347-9.6004 2.354-10.572-3.7606-2.7094-3.7528-3.1846-2.3424 10.56z" clip-path="url(#pc0c58ce210)" fill="#1f9e89"/>
    <path d="m89.169 50.898 3.7438 4.138 3.7472 3.6607 2.3492-11.547-3.7538-3.6591-3.7499-4.1394z" clip-path="url(#pc0c58ce210)" fill="#75d054"/>
    <path d="m62.878 98.887 3.7549 5.1133 3.7503 4.6415 2.383-3.9301 2.3675-4.8602-3.7396-4.6256-3.7433-5.0977-2.3771 4.8463z" clip-path="url(#pc0c58ce210)" fill="#38598c"/>
    <path d="m55.345 87.232 3.7709 6.0665 3.7618 5.5882 2.3956-3.9125 2.3771-4.8463-3.7492-5.5728-3.7573-6.0514-2.3887 4.8336z" clip-path="url(#pc0c58ce210)" fill="#2b748e"/>
    <path d="m70.383 108.64 3.7478 4.1722 3.7476 3.7048 2.3722-3.9476 2.3596-4.8754-3.7387-3.6883-3.7381-4.156-2.3675 4.8602z" clip-path="url(#pc0c58ce210)" fill="#423f85"/>
    <path d="m94.788 101.1 3.7536 2.273 3.764 1.8057 2.346-7.7137 2.3504-8.6625-3.7705-1.7836-3.7592-2.2542-2.3428 8.6416z" clip-path="url(#pc0c58ce210)" fill="#31668e"/>
    <path d="m96.66 58.697 3.7528 3.1846 3.7606 2.7094 2.3637-11.559-3.7681-2.702-3.7598-3.1802z" clip-path="url(#pc0c58ce210)" fill="#52c569"/>
    <path d="m90.099 113.67 3.7539 2.2911 3.7634 1.8256 2.3455-5.8396 2.3444-6.7735-3.764-1.8057-3.7536-2.273-2.3427 6.7541z" clip-path="url(#pc0c58ce210)" fill="#433d84"/>
    <path d="m99.472 84.764 3.7592 2.2542 3.7705 1.7836 2.3575-9.6221 2.3674-10.595-3.783-1.759-3.7707-2.2344-2.354 10.572z" clip-path="url(#pc0c58ce210)" fill="#20938c"/>
    <path d="m77.879 116.52 3.7495 3.2387 3.7537 2.7735 2.3632-3.9649 2.3536-4.8919-3.7466-2.7564-3.7416-3.2219-2.3596 4.8754z" clip-path="url(#pc0c58ce210)" fill="#472c7a"/>
    <path d="m104.17 64.591 3.7707 2.2344 3.783 1.759 2.3802-11.583-3.7915-1.7457-3.7787-2.224z" clip-path="url(#pc0c58ce210)" fill="#3dbc74"/>
    <path d="m58.02 103.91 3.7725 5.1372 3.7669 4.6642 2.4227-2.0671 2.4013-2.9998-3.7503-4.6415-3.7549-5.1133-2.417 2.9785z" clip-path="url(#pc0c58ce210)" fill="#3e4989"/>
    <path d="m102.31 105.18 3.7767 1.3375 3.7916 0.86788 2.3524-7.7396 2.3598-8.6907-3.8-0.83915-3.7841-1.3121-2.3504 8.6625z" clip-path="url(#pc0c58ce210)" fill="#34618d"/>
    <path d="m85.382 122.53 3.7601 2.3085 3.7687 1.8433 2.3561-3.9822 2.3494-4.9099-3.7634-1.8256-3.7539-2.2911-2.3536 4.8919z" clip-path="url(#pc0c58ce210)" fill="#481d6f"/>
    <path d="m50.449 92.201 3.7905 6.0929 3.7804 5.6132 2.4413-2.042 2.417-2.9785-3.7618-5.5882-3.7709-6.0665-2.4345 2.9554z" clip-path="url(#pc0c58ce210)" fill="#31688e"/>
    <path d="m65.559 113.71 3.7635 4.1936 3.7623 3.725 2.4059-2.0891 2.3876-3.0195-3.7476-3.7048-3.7478-4.1722-2.4013 2.9998z" clip-path="url(#pc0c58ce210)" fill="#472f7d"/>
    <path d="m97.616 117.79 3.7752 1.3592 3.7892 0.89141 2.346-5.8611 2.3478-6.7972-3.7916-0.86788-3.7767-1.3375-2.3444 6.7735z" clip-path="url(#pc0c58ce210)" fill="#453882"/>
    <path d="m107 88.801 3.7841 1.3121 3.8 0.83915 2.3699-9.6527 2.3829-10.628-3.8145-0.80493-3.7976-1.2827-2.3674 10.595z" clip-path="url(#pc0c58ce210)" fill="#21908d"/>
    <path d="m73.085 121.63 3.7634 3.2578 3.7666 2.7915 2.3911-2.1081 2.3757-3.0377-3.7537-2.7735-3.7495-3.2387-2.3876 3.0195z" clip-path="url(#pc0c58ce210)" fill="#481a6c"/>
    <path d="m111.73 68.584 3.7976 1.2827 3.8145 0.80493 2.3987-11.618-3.824-0.78565-3.8066-1.2664z" clip-path="url(#pc0c58ce210)" fill="#35b779"/>
    <path d="m92.91 126.68 3.7795 1.3773 3.7927 0.90989 2.3506-3.9994 2.3469-4.9292-3.7892-0.89141-3.7752-1.3592-2.3494 4.9099z" clip-path="url(#pc0c58ce210)" fill="#481769"/>
    <path d="m109.87 107.38 3.8089 0.39632 3.8285-0.077777 2.3607-7.7715 2.3711-8.7264-3.8388 0.11326-3.8182-0.36423-2.3598 8.6907z" clip-path="url(#pc0c58ce210)" fill="#33628d"/>
    <path d="m80.615 127.68 3.7721 2.3254 3.7799 1.8591 2.3779-2.124 2.3656-3.0543-3.7687-1.8433-3.7601-2.3085-2.3757 3.0377z" clip-path="url(#pc0c58ce210)" fill="#460a5d"/>
    <path d="m105.18 120.04 3.8055 0.4217 3.8242-0.050517 2.3483-5.8856 2.3531-6.8253-3.8285 0.077777-3.8089-0.39632-2.3478 6.7972z" clip-path="url(#pc0c58ce210)" fill="#443983"/>
    <path d="m114.59 90.952 3.8182 0.36423 3.8388-0.11326 2.3844-9.6923 2.4004-10.671-3.8553 0.15731-3.8337-0.32512-2.3829 10.628z" clip-path="url(#pc0c58ce210)" fill="#21918c"/>
    <path d="m53.052 105.16 3.7963 5.1694 3.7897 4.6937 2.4745-0.18532 2.447-1.1297-3.7669-4.6642-3.7725-5.1372-2.4687 1.1007z" clip-path="url(#pc0c58ce210)" fill="#3f4788"/>
    <path d="m45.43 93.381 3.8163 6.1307 3.8052 5.6483 2.4993-0.15245 2.4687-1.1007-3.7804-5.6132-3.7905-6.0929-2.4925 1.067z" clip-path="url(#pc0c58ce210)" fill="#31668e"/>
    <path d="m60.638 115.02 3.7853 4.2205 3.7832 3.7493 2.4517-0.21205 2.4273-1.154-3.7623-3.725-3.7635-4.1936-2.447 1.1297z" clip-path="url(#pc0c58ce210)" fill="#472d7b"/>
    <path d="m119.34 70.672 3.8337 0.32512 3.8553-0.15731 2.4194-11.666-3.8659 0.1827-3.8438-0.30281z" clip-path="url(#pc0c58ce210)" fill="#37b878"/>
    <path d="m100.48 128.97 3.8082 0.44055 3.826-0.031299 2.3469-4.0166 2.3462-4.9501-3.8242 0.050517-3.8055-0.4217-2.3469 4.9292z" clip-path="url(#pc0c58ce210)" fill="#48186a"/>
    <path d="m88.167 131.86 3.7899 1.3919 3.8022 0.92337 2.3665-2.137 2.3571-3.0694-3.7927-0.90989-3.7795-1.3773-2.3656 3.0543z" clip-path="url(#pc0c58ce210)" fill="#440256"/>
    <path d="m68.206 122.99 3.7833 3.2794 3.7856 2.8104 2.4307-0.23276 2.4094-1.1739-3.7666-2.7915-3.7634-3.2578-2.4273 1.154z" clip-path="url(#pc0c58ce210)" fill="#481769"/>
    <path d="m117.51 107.7 3.8505-0.55499 3.8749-1.0359 2.371-7.8095 2.3845-8.7698-3.8872 1.0783-3.8618 0.59392-2.3711 8.7264z" clip-path="url(#pc0c58ce210)" fill="#30698e"/>
    <path d="m112.81 120.41 3.8453-0.52583 3.8688-1.0048 2.3523-5.9131 2.3603-6.858-3.8749 1.0359-3.8505 0.55499-2.3531 6.8253z" clip-path="url(#pc0c58ce210)" fill="#424086"/>
    <path d="m122.24 91.203 3.8618-0.59392 3.8872-1.0783 2.4009-9.7411 2.4201-10.726-3.9059 1.1325-3.8794 0.64298-2.4004 10.671z" clip-path="url(#pc0c58ce210)" fill="#1f968b"/>
    <path d="m75.775 129.08 3.7902 2.3417 3.7971 1.8728 2.4115-0.24746 2.3932-1.1892-3.7799-1.8591-3.7721-2.3254-2.4094 1.1739z" clip-path="url(#pc0c58ce210)" fill="#46075a"/>
    <path d="m127.03 70.84 3.8794-0.64298 3.9059-1.1325 2.4423-11.726-3.9176 1.1641-3.8905 0.67148z" clip-path="url(#pc0c58ce210)" fill="#42be71"/>
    <path d="m95.759 134.18 3.8169 0.4529 3.8339-0.020094 2.3567-2.147 2.3504-3.083-3.826 0.031299-3.8082-0.44055-2.3571 3.0694z" clip-path="url(#pc0c58ce210)" fill="#450457"/>
    <path d="m108.12 129.38 3.8463-0.50624 3.8689-0.98486 2.3448-4.0338 2.3472-4.9724-3.8688 1.0048-3.8453 0.52583-2.3462 4.9501z" clip-path="url(#pc0c58ce210)" fill="#482173"/>
    <path d="m83.362 133.3 3.8063 1.403 3.8178 0.93181 2.394-0.25613 2.3788-1.2-3.8022-0.92337-3.7899-1.3919-2.3932 1.1892z" clip-path="url(#pc0c58ce210)" fill="#440154"/>
    <path d="m47.948 102.58 3.8265 5.2105 3.8188 4.7305 2.5392 1.7336 2.5052 0.76832-3.7897-4.6937-3.7963-5.1694-2.5332-0.80517z" clip-path="url(#pc0c58ce210)" fill="#3b528b"/>
    <path d="m40.263 90.707 3.8487 6.1804 3.8365 5.6936 2.5705 1.7746 2.5332 0.80517-3.8052-5.6483-3.8163-6.1307-2.5634-0.84986z" clip-path="url(#pc0c58ce210)" fill="#2e6f8e"/>
    <path d="m55.593 112.52 3.8134 4.253 3.8103 3.7776 2.51 1.702 2.4792 0.73915-3.7832-3.7493-3.7853-4.2205-2.5052-0.76832z" clip-path="url(#pc0c58ce210)" fill="#443983"/>
    <path d="m125.24 106.11 3.9019-1.5212 3.9314-2.0114 2.3832-7.8538 2.3999-8.821-3.9457 2.0609-3.9152 1.5671-2.3845 8.7698z" clip-path="url(#pc0c58ce210)" fill="#2b748e"/>
    <path d="m120.52 118.88 3.8949-1.4881 3.9234-1.9764 2.3582-5.9437 2.3693-6.8955-3.9314 2.0114-3.9019 1.5212-2.3603 6.858z" clip-path="url(#pc0c58ce210)" fill="#3c4f8a"/>
    <path d="m129.99 89.531 3.9152-1.5671 3.9457-2.0609 2.4195-9.7994 2.4421-10.791-3.9666 2.1255-3.9349 1.6264-2.4201 10.726z" clip-path="url(#pc0c58ce210)" fill="#1fa287"/>
    <path d="m63.217 120.55 3.8094 3.3035 3.8108 2.8304 2.4828 1.6795 2.4551 0.71755-3.7856-2.8104-3.7833-3.2794-2.4792-0.73915z" clip-path="url(#pc0c58ce210)" fill="#482475"/>
    <path d="m103.41 134.61 3.8533-0.49619 3.8752-0.976 2.3485-2.1539 2.3453-3.0951-3.8689 0.98486-3.8463 0.50624-2.3504 3.083z" clip-path="url(#pc0c58ce210)" fill="#470e61"/>
    <path d="m134.81 69.064 3.9349-1.6264 3.9666-2.1255 2.4676-11.799-3.9795 2.1636-3.9473 1.6613z" clip-path="url(#pc0c58ce210)" fill="#5cc863"/>
    <path d="m90.986 135.63 3.8316 0.45867 3.8479-0.01702 2.378-0.25868 2.3659-1.2063-3.8339 0.020094-3.8169-0.4529-2.3788 1.2z" clip-path="url(#pc0c58ce210)" fill="#440154"/>
    <path d="m70.837 126.69 3.8145 2.3575 3.8206 1.8844 2.4573 1.6661 2.4328 0.70351-3.7971-1.8728-3.7902-2.3417-2.4551-0.71755z" clip-path="url(#pc0c58ce210)" fill="#481668"/>
    <path d="m115.83 127.89 3.8941-1.4678 3.9218-1.9556 2.3445-4.051 2.35-4.9963-3.9234 1.9764-3.8949 1.4881-2.3472 4.9724z" clip-path="url(#pc0c58ce210)" fill="#46327e"/>
    <path d="m78.472 130.93 3.8289 1.4104 3.8396 0.93502 2.4336 1.6619 2.4122 0.69705-3.8178-0.93181-3.8063-1.403-2.4328-0.70351z" clip-path="url(#pc0c58ce210)" fill="#470e61"/>
    <path d="m133.07 102.58 3.9635-2.5072 3.9983-3.0092 2.3975-7.9045 2.4175-8.8803-4.0148 3.0662-3.9789 2.5604-2.3999 8.821z" clip-path="url(#pc0c58ce210)" fill="#24868e"/>
    <path d="m128.34 115.42 3.9546-2.4702 3.9885-2.9702 2.366-5.9776 2.3803-6.9377-3.9983 3.0092-3.9635 2.5072-2.3693 6.8955z" clip-path="url(#pc0c58ce210)" fill="#33638d"/>
    <path d="m137.85 85.903 3.9789-2.5604 4.0148-3.0662 2.4405-9.8675 2.4664-10.868-4.038 3.1415-4.0009 2.6303-2.4421 10.791z" clip-path="url(#pc0c58ce210)" fill="#2fb47c"/>
    <path d="m111.14 133.14 3.8996-1.4601 3.9265-1.9492 2.3419-2.1575 2.3418-3.1055-3.9218 1.9556-3.8941 1.4678-2.3453 3.0951z" clip-path="url(#pc0c58ce210)" fill="#482071"/>
    <path d="m98.666 136.07 3.8665-0.49585 3.8877-0.97843 2.3636-0.25498 2.3546-1.2079-3.8752 0.976-3.8533 0.49619-2.3659 1.2063z" clip-path="url(#pc0c58ce210)" fill="#460b5e"/>
    <path d="m42.681 96.063 3.8633 5.2606 3.8545 4.7747 2.6179 3.7095 2.5767 2.7132-3.8188-4.7305-3.8265-5.2105-2.6113-2.7583z" clip-path="url(#pc0c58ce210)" fill="#30698e"/>
    <path d="m34.918 84.071 3.888 6.2426 3.8745 5.7497 2.6559 3.7589 2.6113 2.7583-3.8365-5.6936-3.8487-6.1804-2.6482-2.8144z" clip-path="url(#pc0c58ce210)" fill="#25838e"/>
    <path d="m50.399 106.1 3.848 4.2914 3.8439 3.8102 2.5821 3.6727 2.5443 2.679-3.8103-3.7776-3.8134-4.253-2.5767-2.7132z" clip-path="url(#pc0c58ce210)" fill="#3b518b"/>
    <path d="m142.71 65.312 4.0009-2.6303 4.038-3.1415 2.4954-11.885-4.0522 3.1863-4.0145 2.6717z" clip-path="url(#pc0c58ce210)" fill="#86d549"/>
    <path d="m123.65 124.46 3.9521-2.449 3.9851-2.9487 2.3458-4.0681 2.3545-5.0218-3.9885 2.9702-3.9546 2.4702-2.35 4.9963z" clip-path="url(#pc0c58ce210)" fill="#3f4788"/>
    <path d="m58.09 114.2 3.842 3.3303 3.8425 2.8514 2.5483 3.6484 2.5138 2.6556-3.8108-2.8304-3.8094-3.3035-2.5443-2.679z" clip-path="url(#pc0c58ce210)" fill="#433e85"/>
    <path d="m86.141 133.27 3.8527 0.45762 3.8681-0.022366 2.4113 1.6671 2.3932 0.6983-3.8479 0.01702-3.8316-0.45867-2.4122-0.69705z" clip-path="url(#pc0c58ce210)" fill="#471063"/>
    <path d="m65.775 120.38 3.8453 2.3727 3.8504 1.8938 2.5163 3.6364 2.4851 2.6429-3.8206-1.8844-3.8145-2.3575-2.5138-2.6556z" clip-path="url(#pc0c58ce210)" fill="#46327e"/>
    <path d="m106.42 134.6 3.9113-1.4654 3.9375-1.9573 2.3506-0.2448 2.3448-1.2047-3.9265 1.9492-3.8996 1.4601-2.3546 1.2079z" clip-path="url(#pc0c58ce210)" fill="#481d6f"/>
    <path d="m141.03 97.061 4.0359-3.5183 4.0763-4.0349 2.4139-7.962 2.4373-8.9482-4.095 4.0995-4.0534 3.579-2.4175 8.8803z" clip-path="url(#pc0c58ce210)" fill="#1e9d89"/>
    <path d="m118.96 129.73 3.956-2.4439 3.9883-2.9448 2.3367-2.1578 2.3398-3.1142-3.9851 2.9487-3.9521 2.449-2.3418 3.1055z" clip-path="url(#pc0c58ce210)" fill="#453882"/>
    <path d="m136.29 109.98 4.0251-3.4771 4.0645-3.9917 2.3756-6.0147 2.3933-6.985-4.0763 4.0349-4.0359 3.5183-2.3803 6.9377z" clip-path="url(#pc0c58ce210)" fill="#297a8e"/>
    <path d="m145.85 80.277 4.0534-3.579 4.095-4.0995 2.4638-9.9458 2.4933-10.957-4.1207 4.1861-4.0779 3.6599-2.4664 10.868z" clip-path="url(#pc0c58ce210)" fill="#5ac864"/>
    <path d="m93.861 133.71 3.8861-0.50556 3.9065-0.99256 2.3906 1.6818 2.3756 0.70744-3.8877 0.97843-3.8665 0.49585-2.3932-0.6983z" clip-path="url(#pc0c58ce210)" fill="#481a6c"/>
    <path d="m73.471 124.65 3.8579 1.414 3.8678 0.93271 2.486 3.637 2.4581 2.641-3.8396-0.93502-3.8289-1.4104-2.4851-2.6429z" clip-path="url(#pc0c58ce210)" fill="#472c7a"/>
    <path d="m150.75 59.541 4.0779-3.6599 4.1207-4.1861 2.5259-11.986-4.1362 4.2379-4.0927 3.7081z" clip-path="url(#pc0c58ce210)" fill="#c8e020"/>
    <path d="m131.59 119.07 4.0209-3.4552 4.0595-3.9694 2.3487-4.0851 2.3608-5.0489-4.0645 3.9917-4.0251 3.4771-2.3545 5.0218z" clip-path="url(#pc0c58ce210)" fill="#33628d"/>
    <path d="m37.219 85.462 3.9073 5.3205 3.8972 4.8269 2.7118 5.7637 2.6628 4.7254-3.8545-4.7747-3.8633-5.2606-2.7043-4.7792z" clip-path="url(#pc0c58ce210)" fill="#23888e"/>
    <path d="m29.365 73.327 3.9344 6.318 3.9196 5.8173 2.7569 5.822 2.7043 4.7792-3.8745-5.7497-3.888-6.2426-2.7483-4.8474z" clip-path="url(#pc0c58ce210)" fill="#1fa287"/>
    <path d="m81.196 127 3.8801 0.44939 3.8949-0.036593 2.4573 3.6503 2.4327 2.6502-3.8681 0.022366-3.8527-0.45762-2.4581-2.641z" clip-path="url(#pc0c58ce210)" fill="#472d7b"/>
    <path d="m45.024 95.61 3.8896 4.336 3.8844 3.8472 2.6689 5.7215 2.6236 4.6859-3.8439-3.8102-3.848-4.2914-2.6628-4.7254z" clip-path="url(#pc0c58ce210)" fill="#2c728e"/>
    <path d="m114.27 131.18 3.9664-2.455 3.998-2.9589 2.339-0.22785 2.3364-1.1965-3.9883 2.9448-3.956 2.4439-2.3448 1.2047z" clip-path="url(#pc0c58ce210)" fill="#453581"/>
    <path d="m149.14 89.508 4.1197-4.56 2.4229-7.9934 2.4481-8.9854-4.1395 4.6286-2.4373 8.9482z" clip-path="url(#pc0c58ce210)" fill="#2cb17e"/>
    <path d="m144.38 102.51 4.1069-4.5146 2.3811-6.0346 2.4006-7.0106-4.1197 4.56-2.3933 6.985z" clip-path="url(#pc0c58ce210)" fill="#218f8d"/>
    <path d="m154 72.598 4.1395-4.6286 2.4763-9.989 2.5077-11.007-4.1665 4.721-2.4933 10.957z" clip-path="url(#pc0c58ce210)" fill="#8ed645"/>
    <path d="m101.65 132.21 3.9295-1.484 3.955-1.9806 2.3711 1.7064 2.3594 0.72473-3.9375 1.9573-3.9113 1.4654-2.3756-0.70744z" clip-path="url(#pc0c58ce210)" fill="#472a7a"/>
    <path d="m52.798 103.79 3.8815 3.3599 3.8809 2.8734 2.6283 5.6953 2.5864 4.6606-3.8425-2.8514-3.842-3.3303-2.6236-4.6859z" clip-path="url(#pc0c58ce210)" fill="#33638d"/>
    <path d="m126.91 124.34 4.0233-3.4527 4.0611-3.9683 2.333-2.1545 2.3395-3.1211-4.0595 3.9694-4.0209 3.4552-2.3398 3.1142z" clip-path="url(#pc0c58ce210)" fill="#3a538b"/>
    <path d="m158.95 51.695 4.1665-4.721 2.5421-12.041-4.1827 4.7764z" clip-path="url(#pc0c58ce210)" fill="#fde725"/>
    <path d="m139.67 111.64 4.101-4.492 2.3508-4.0936 2.3646-5.063-4.1069 4.5146-2.3608 5.0489z" clip-path="url(#pc0c58ce210)" fill="#2a768e"/>
    <path d="m60.56 110.03 3.8828 2.3872 3.887 1.9007 2.5895 5.685 2.551 4.6495-3.8504-1.8938-3.8453-2.3727-2.5864-4.6606z" clip-path="url(#pc0c58ce210)" fill="#38588c"/>
    <path d="m88.971 127.41 3.9121-0.52586 3.9319-1.019 2.43 3.6767 2.4086 2.6706-3.9065 0.99256-3.8861 0.50556-2.4327-2.6502z" clip-path="url(#pc0c58ce210)" fill="#453581"/>
    <path d="m68.33 114.31 3.8937 1.4133 3.9028 0.92443 2.5524 5.6908 2.5174 4.6526-3.8678-0.93271-3.8579-1.414-2.551-4.6495z" clip-path="url(#pc0c58ce210)" fill="#3b528b"/>
    <path d="m122.23 125.76 4.0323-3.47 4.0695-3.9888 2.3286-0.20378 2.3294-1.1829-4.0611 3.9683-4.0233 3.4527-2.3364 1.1965z" clip-path="url(#pc0c58ce210)" fill="#3b518b"/>
    <path d="m134.99 116.92 4.1019-4.4924 2.3317-2.1514 2.3399-3.1238-4.101 4.492-2.3395 3.1211z" clip-path="url(#pc0c58ce210)" fill="#306a8e"/>
    <path d="m109.54 128.75 3.9833-2.4829 4.0143-2.9917 2.3528 1.7412 2.3444 0.75053-3.998 2.9589-3.9664 2.455-2.3594-0.72473z" clip-path="url(#pc0c58ce210)" fill="#424086"/>
    <path d="m96.815 125.86 3.9542-1.5168 3.9792-2.0197 2.4038 3.7165 2.3859 2.7027-3.955 1.9806-3.9295 1.484-2.4086-2.6706z" clip-path="url(#pc0c58ce210)" fill="#414487"/>
    <path d="m76.127 116.65 3.9143 0.43341 3.9283-0.060367 2.5169 5.7129 2.4853 4.6703-3.8949 0.036593-3.8801-0.44939-2.5174-4.6526z" clip-path="url(#pc0c58ce210)" fill="#3a538b"/>
    <path d="m31.531 70.584 3.9587 5.3906 3.9474 4.8875 2.8224 7.9202 2.7649 6.8276-3.8972-4.8269-3.9073-5.3205-2.8137-6.8905z" clip-path="url(#pc0c58ce210)" fill="#2db27d"/>
    <path d="m23.569 58.279 3.9886 6.4075 3.9724 5.8971 2.8752 7.988 2.8137 6.8905-3.9196-5.8173-3.9344-6.318-2.8653-6.9718z" clip-path="url(#pc0c58ce210)" fill="#5ec962"/>
    <path d="m39.437 80.862 3.9386 4.3872 3.9321 3.8889 2.7722 7.8723 2.7184 6.7826-3.8844-3.8472-3.8896-4.336-2.7649-6.8276z" clip-path="url(#pc0c58ce210)" fill="#1e9d89"/>
    <path d="m130.34 118.3 4.1097-4.5161 2.3239-0.18894 2.3264-1.174-4.1019 4.4924-2.3294 1.1829z" clip-path="url(#pc0c58ce210)" fill="#31688e"/>
    <path d="m47.307 89.138 3.9281 3.3922 3.9266 2.8964 2.7242 7.8442 2.6741 6.7554-3.8809-2.8734-3.8815-3.3599-2.7184-6.7826z" clip-path="url(#pc0c58ce210)" fill="#218e8d"/>
    <path d="m117.54 123.27 4.048-3.5077 4.0847-4.0316 2.3357 1.7869 2.3307 0.78529-4.0695 3.9888-4.0323 3.47-2.3444-0.75053z" clip-path="url(#pc0c58ce210)" fill="#365c8d"/>
    <path d="m83.969 117.02 3.9449-0.55753 3.964-1.0587 2.4827 5.7518 2.4546 4.7027-3.9319 1.019-3.9121 0.52586-2.4853-4.6703z" clip-path="url(#pc0c58ce210)" fill="#375b8d"/>
    <path d="m55.162 95.427 3.9274 2.4008 3.9307 1.9049 2.6782 7.8358 2.6318 6.746-3.887-1.9007-3.8828-2.3872-2.6741-6.7554z" clip-path="url(#pc0c58ce210)" fill="#25838e"/>
    <path d="m104.75 122.33 4.0069-2.5286 4.0373-3.0441 2.3788 3.7703 2.3643 2.7469-4.0143 2.9917-3.9833 2.4829-2.3859-2.7027z" clip-path="url(#pc0c58ce210)" fill="#38598c"/>
    <path d="m63.02 99.732 3.9365 1.408 3.9448 0.90959 2.634 7.8473 2.5912 6.7546-3.9028-0.92443-3.8937-1.4133-2.6318-6.746z" clip-path="url(#pc0c58ce210)" fill="#277f8e"/>
    <path d="m125.67 115.73 4.1243-4.5642 2.3275 1.814 2.3242 0.80619-4.1097 4.5161-2.3307-0.78529z" clip-path="url(#pc0c58ce210)" fill="#2d718e"/>
    <path d="m91.878 115.41 3.9858-1.5646 4.0102-2.0759 2.4497 5.808 2.4251 4.7506-3.9792 2.0197-3.9542 1.5168-2.4546-4.7027z" clip-path="url(#pc0c58ce210)" fill="#31688e"/>
    <path d="m70.901 102.05 3.9555 0.40893 3.9688-0.094582 2.5913 7.8792 2.5521 6.7815-3.9283 0.060367-3.9143-0.43341-2.5912-6.7546z" clip-path="url(#pc0c58ce210)" fill="#27808e"/>
    <path d="m112.79 116.75 4.0706-3.5669 4.1068-4.0979 2.3547 3.8389 2.3437 2.8039-4.0847 4.0316-4.048 3.5077-2.3643-2.7469z" clip-path="url(#pc0c58ce210)" fill="#2d718e"/>
    <path d="m25.576 51.182 4.0182 5.4718 4.0055 4.9572 2.9519 10.206 2.8847 9.0451-3.9474-4.8875-3.9587-5.3906-2.9414-9.1179z" clip-path="url(#pc0c58ce210)" fill="#a2da37"/>
    <path d="m17.492 38.68 4.0512 6.5122 4.0334 5.99 3.0129 10.284 2.9414 9.1179-3.9724-5.8971-3.9886-6.4075-3.0011-9.213z" clip-path="url(#pc0c58ce210)" fill="#efe51c"/>
    <path d="m33.6 61.611 3.9954 4.4453 3.9877 3.9356 2.8937 10.152 2.8305 8.9942-3.9321-3.8889-3.9386-4.3872-2.8847-9.0451z" clip-path="url(#pc0c58ce210)" fill="#6ccd5a"/>
    <path d="m99.874 111.77 4.0374-2.5933 4.0674-3.1175 2.4176 5.8823 2.3966 4.8144-4.0373 3.0441-4.0069 2.5286-2.4251-4.7506z" clip-path="url(#pc0c58ce210)" fill="#29798e"/>
    <path d="m78.826 102.36 3.9847-0.60162 4.0032-1.1128 2.5499 7.9318 2.5144 6.827-3.964 1.0587-3.9449 0.55753-2.5521-6.7815z" clip-path="url(#pc0c58ce210)" fill="#24868e"/>
    <path d="m41.583 69.992 3.9825 3.4275 3.9798 2.9202 2.8379 10.122 2.7787 8.9651-3.9266-2.8964-3.9281-3.3922-2.8305-8.9942z" clip-path="url(#pc0c58ce210)" fill="#48c16e"/>
    <path d="m120.97 109.09 4.1461-4.6378 2.343 3.879 2.3337 2.8374-4.1243 4.5642-2.3437-2.8039z" clip-path="url(#pc0c58ce210)" fill="#25858e"/>
    <path d="m49.545 76.339 3.9797 2.4132 3.982 1.9058 2.7842 10.116 2.7289 8.9578-3.9307-1.9049-3.9274-2.4008-2.7787-8.9651z" clip-path="url(#pc0c58ce210)" fill="#37b878"/>
    <path d="m57.507 80.659 3.9868 1.3974 3.9942 0.88737 2.7323 10.134 2.6809 8.9725-3.9448-0.90959-3.9365-1.408-2.7289-8.9578z" clip-path="url(#pc0c58ce210)" fill="#2fb47c"/>
    <path d="m86.814 100.65 4.0244-1.629 4.0484-2.1507 2.5096 8.0059 2.4778 6.892-4.0102 2.0759-3.9858 1.5646-2.5144-6.827z" clip-path="url(#pc0c58ce210)" fill="#20928c"/>
    <path d="m107.98 106.06 4.1003-3.6493 4.1361-4.1894 2.3863 5.9755 2.3689 4.8951-4.1068 4.0979-4.0706 3.5669-2.3966-4.8144z" clip-path="url(#pc0c58ce210)" fill="#21918c"/>
    <path d="m65.488 82.943 4.0042 0.37498 4.0168-0.14041 2.682 10.177 2.6345 9.0096-3.9688 0.094582-3.9555-0.40893-2.6809-8.9725z" clip-path="url(#pc0c58ce210)" fill="#31b57b"/>
    <path d="m94.887 96.87 4.0751-2.6787 4.1047-3.2138 2.4702 8.1025 2.4421 6.9771-4.0674 3.1175-4.0374 2.5933-2.4778-6.892z" clip-path="url(#pc0c58ce210)" fill="#20a386"/>
    <path d="m116.22 98.219 4.1751-4.7388 2.3709 6.0296 2.3553 4.942-4.1461 4.6378-2.3689-4.8951z" clip-path="url(#pc0c58ce210)" fill="#20a486"/>
    <path d="m73.509 83.178 4.0321-0.65949 4.05-1.183 2.6331 10.245 2.5894 9.0697-4.0032 1.1128-3.9847 0.60162-2.6345-9.0096z" clip-path="url(#pc0c58ce210)" fill="#3aba76"/>
    <path d="m103.07 90.978 4.1373-3.7567 4.1729-4.3084 2.4314 8.2226 2.4071 7.0835-4.1361 4.1894-4.1003 3.6493-2.4421-6.9771z" clip-path="url(#pc0c58ce210)" fill="#38b977"/>
    <path d="m81.591 81.335 4.0707-1.7115 4.0942-2.2459 2.5851 10.339 2.5454 9.1535-4.0484 2.1507-4.0244 1.629-2.5894-9.0697z" clip-path="url(#pc0c58ce210)" fill="#52c569"/>
    <path d="m111.38 82.913 4.2116-4.8696 2.4121 8.2919 2.3898 7.145-4.1751 4.7388-2.4071-7.0835z" clip-path="url(#pc0c58ce210)" fill="#63cb5f"/>
    <path d="m89.756 77.378 4.1205-2.7869 4.1498-3.3353 2.5379 10.46 2.5021 9.2621-4.1047 3.2138-4.0751 2.6787-2.5454-9.1535z" clip-path="url(#pc0c58ce210)" fill="#7cd250"/>
    <path d="m98.026 71.256 4.1821-3.8919 4.2176-4.4576 2.4912 10.61 2.4594 9.3966-4.1729 4.3084-4.1373 3.7567-2.5021-9.2621z" clip-path="url(#pc0c58ce210)" fill="#bade28"/>
    <path d="m106.43 62.906 4.2562-5.0333 2.4679 10.696 2.4381 9.4742-4.2116 4.8696-2.4594-9.3966z" clip-path="url(#pc0c58ce210)" fill="#f4e61e"/>
   </g>
  </g>
  <g id="axes_2">
   <g id="patch_6">
    <path d="m203.15 198.72h224.53v-190.08h-224.53z" fill="#fff"/>
   </g>
   <g id="PathCollection_1">
    <defs>
     <path id="m132bac6a6d" d="m0 3c0.79561 0 1.5587-0.3161 2.1213-0.87868 0.56258-0.56258 0.87868-1.3257 0.87868-2.1213s-0.3161-1.5587-0.87868-2.1213c-0.56258-0.56258-1.3257-0.87868-2.1213-0.87868s-1.5587 0.3161-2.1213 0.87868c-0.56258 0.56258-0.87868 1.3257-0.87868 2.1213s0.3161 1.5587 0.87868 2.1213c0.56258 0.56258 1.3257 0.87868 2.1213 0.87868z" stroke="#000"/>
    </defs>
    <g clip-path="url(#p6faf649e5b)">
     <use x="315.416132" y="103.68" fill="#00bfff" stroke="#000000" xlink:href="#m132bac6a6d"/>
    </g>
   </g>
   <g id="matplotlib.axis_1">
    <g id="xtick_15">
     <g id="line2d_18">
      <defs>
       <path id="m5f851a0379" d="m0 0v3.5" stroke="#000" stroke-width=".8"/>
      </defs>
      <use x="203.152264" y="198.72" stroke="#000000" stroke-width=".8" xlink:href="#m5f851a0379"/>
     </g>
     <g id="text_1">
      <!-- -4 -->
      <defs>
       <path id="SimHei-45" d="m46.875 32.812h-44.531v6.25h44.531z"/>
       <path id="SimHei-52" d="m46.484 18.75h-8.2031v-17.188h-8.9844v17.188h-26.172v7.4219l26.172 42.969h8.9844v-42.969h8.2031zm-17.188 7.4219v28.906l-17.578-28.906z"/>
      </defs>
      <g transform="translate(196.15 215.29) scale(.14 -.14)">
       <use xlink:href="#SimHei-45"/>
       <use x="50" xlink:href="#SimHei-52"/>
      </g>
     </g>
    </g>
    <g id="xtick_16">
     <g id="line2d_19">
      <use x="259.284198" y="198.72" stroke="#000000" stroke-width=".8" xlink:href="#m5f851a0379"/>
     </g>
     <g id="text_2">
      <!-- -2 -->
      <defs>
       <path id="SimHei-50" d="m44.531 1.5625h-39.844v6.25q2.3438 6.25 6.4375 11.516 4.1094 5.2812 11.922 11.922 5.8594 5.0781 8.3906 9.375 2.5469 4.2969 2.5469 9.375t-2.1562 8.3906q-2.1406 3.3281-6.8281 3.3281-3.9062 0-6.8438-3.5156-2.9219-3.5156-2.9219-12.5h-8.9844q0.39062 11.328 5.2656 17.375 4.8906 6.0625 13.875 6.0625 8.5938 0 13.281-5.2812 4.6875-5.2656 4.6875-14.25 0-7.4219-4.2969-12.891t-10.547-10.938q-7.0312-6.25-9.7656-9.375t-5.0781-7.4219h30.859z"/>
      </defs>
      <g transform="translate(252.28 215.29) scale(.14 -.14)">
       <use xlink:href="#SimHei-45"/>
       <use x="50" xlink:href="#SimHei-50"/>
      </g>
     </g>
    </g>
    <g id="xtick_17">
     <g id="line2d_20">
      <use x="315.416132" y="198.72" stroke="#000000" stroke-width=".8" xlink:href="#m5f851a0379"/>
     </g>
     <g id="text_3">
      <!-- 0 -->
      <defs>
       <path id="SimHei-48" d="m46.484 35.156q0-14.062-5.0781-24.219t-16.406-10.156-16.609 10.156q-5.2656 10.156-5.2656 24.219t5.2656 24.016q5.2812 9.9688 16.609 9.9688t16.406-9.9688q5.0781-9.9531 5.0781-24.016zm-9.375 0q0 12.5-2.9375 19.531-2.9219 7.0312-9.1719 7.0312t-9.375-7.0312-3.125-19.531 3.125-19.734q3.125-7.2188 9.375-7.2188t9.1719 7.2188q2.9375 7.2344 2.9375 19.734z"/>
      </defs>
      <g transform="translate(311.92 215.29) scale(.14 -.14)">
       <use xlink:href="#SimHei-48"/>
      </g>
     </g>
    </g>
    <g id="xtick_18">
     <g id="line2d_21">
      <use x="371.548066" y="198.72" stroke="#000000" stroke-width=".8" xlink:href="#m5f851a0379"/>
     </g>
     <g id="text_4">
      <!-- 2 -->
      <g transform="translate(368.05 215.29) scale(.14 -.14)">
       <use xlink:href="#SimHei-50"/>
      </g>
     </g>
    </g>
    <g id="xtick_19">
     <g id="line2d_22">
      <use x="427.68" y="198.72" stroke="#000000" stroke-width=".8" xlink:href="#m5f851a0379"/>
     </g>
     <g id="text_5">
      <!-- 4 -->
      <g transform="translate(424.18 215.29) scale(.14 -.14)">
       <use xlink:href="#SimHei-52"/>
      </g>
     </g>
    </g>
   </g>
   <g id="matplotlib.axis_2">
    <g id="ytick_1">
     <g id="line2d_23">
      <defs>
       <path id="m97dc9a048a" d="m0 0h-3.5" stroke="#000" stroke-width=".8"/>
      </defs>
      <use x="203.152264" y="198.72" stroke="#000000" stroke-width=".8" xlink:href="#m97dc9a048a"/>
     </g>
     <g id="text_6">
      <!-- -4 -->
      <g transform="translate(182.15 203.51) scale(.14 -.14)">
       <use xlink:href="#SimHei-45"/>
       <use x="50" xlink:href="#SimHei-52"/>
      </g>
     </g>
    </g>
    <g id="ytick_2">
     <g id="line2d_24">
      <use x="203.152264" y="151.2" stroke="#000000" stroke-width=".8" xlink:href="#m97dc9a048a"/>
     </g>
     <g id="text_7">
      <!-- -2 -->
      <g transform="translate(182.15 155.99) scale(.14 -.14)">
       <use xlink:href="#SimHei-45"/>
       <use x="50" xlink:href="#SimHei-50"/>
      </g>
     </g>
    </g>
    <g id="ytick_3">
     <g id="line2d_25">
      <use x="203.152264" y="103.68" stroke="#000000" stroke-width=".8" xlink:href="#m97dc9a048a"/>
     </g>
     <g id="text_8">
      <!-- 0 -->
      <g transform="translate(189.15 108.47) scale(.14 -.14)">
       <use xlink:href="#SimHei-48"/>
      </g>
     </g>
    </g>
    <g id="ytick_4">
     <g id="line2d_26">
      <use x="203.152264" y="56.16" stroke="#000000" stroke-width=".8" xlink:href="#m97dc9a048a"/>
     </g>
     <g id="text_9">
      <!-- 2 -->
      <g transform="translate(189.15 60.945) scale(.14 -.14)">
       <use xlink:href="#SimHei-50"/>
      </g>
     </g>
    </g>
    <g id="ytick_5">
     <g id="line2d_27">
      <use x="203.152264" y="8.64" stroke="#000000" stroke-width=".8" xlink:href="#m97dc9a048a"/>
     </g>
     <g id="text_10">
      <!-- 4 -->
      <g transform="translate(189.15 13.425) scale(.14 -.14)">
       <use xlink:href="#SimHei-52"/>
      </g>
     </g>
    </g>
   </g>
   <g id="LineCollection_2">
    <path d="m295.77 149.66-4.7877-0.84029-3.6321-0.74674-8.4198-2.3421-8.4198-2.953-2.566-1.0862-5.8538-2.9905-6.9138-4.1375-1.506-1.1363-6.9269-5.9917-1.4929-1.7471-4.0775-5.3809-3.495-7.128-0.84728-3.8016-0.66597-3.3264 0.28542-7.128 0.38056-1.3577 1.8005-5.7703 4.1305-7.128 2.4889-2.9387 4.0009-4.1893 4.4189-3.5165 5.2025-3.6115 3.2173-1.8012 8.4198-4.0239 3.2905-1.303 5.1293-1.7017 8.4198-2.2155 8.4198-1.6375 8.4198-1.0596 8.4198-0.48162 8.4198 0.096324 8.4198 0.67427 8.4198 1.2522 8.4198 1.8302 8.4198 2.4081 2.3539 0.83481 6.0659 2.5676 8.4198 4.2538 0.52216 0.30658 7.8976 5.7499 1.661 1.3781 6.5296 7.128 0.22911 0.36554 3.7761 6.7625 2.1432 7.128 0.30617 7.128-1.5309 7.128-3.3679 7.128-1.3268 1.8169-4.3531 5.3111-4.0667 3.6673-4.3731 3.4607-4.0467 2.5399-8.4198 4.5472-0.090536 0.040966-8.3293 3.1227-8.4198 2.5457-6.3518 1.4595-2.068 0.40566-8.4198 1.13-8.4198 0.60849-8.4198 0.086927-8.4198-0.43463-8.4198-0.9562" clip-path="url(#p6faf649e5b)" fill="none" stroke="#46327e" stroke-dasharray="2.96,1.28" stroke-width=".8"/>
   </g>
   <g id="LineCollection_3">
    <path d="m304.19 170.53-4.0823-0.32217-4.3375-0.38106-8.4198-1.1432-8.4198-1.5466-8.4198-1.9501-7.5377-2.107-0.88207-0.27804-8.4198-3.109-8.4198-3.564-0.37068-0.17694-8.0491-4.4043-4.4715-2.7237-3.9483-2.8173-5.4837-4.3107-2.9361-2.7857-4.1901-4.3423-4.2297-5.5268-1.1299-1.6012-3.7178-7.128-2.4057-7.128-1.0935-7.128 0.2187-7.128 1.5309-7.128 2.843-7.128 3.7543-6.4402 0.43482-0.68779 5.9294-7.128 2.0555-1.9928 5.7859-5.1352 2.6339-1.9586 7.6587-5.1694 0.76111-0.44205 8.4198-4.3928 4.9563-2.2931 3.4635-1.4062 8.4198-2.9821 8.4198-2.5457 0.77423-0.19396 7.6456-1.7064 8.4198-1.4904 8.4198-1.1016 8.4198-0.7128 8.4198-0.324 8.4198 0.0648 8.4198 0.4536 8.4198 0.8424 8.4198 1.2312 8.4198 1.62 4.7078 1.1232 3.712 0.99404 8.4198 2.6912 8.4198 3.1276 0.74461 0.31518 7.6752 3.7021 6.3276 3.4259 2.0922 1.3164 8.3278 5.8116 0.092019 0.076645 7.7077 7.0514 0.71212 0.80784 5.1134 6.3202 3.3064 5.3773 0.99474 1.7507 2.7711 7.128 1.4921 7.128 0.21316 7.128-1.0658 7.128-2.3448 7.128-2.0605 4.0532-1.6916 3.0748-5.3056 7.128-1.4225 1.5157-5.7389 5.6123-2.6809 2.1723-6.7174 4.9557-1.7024 1.0721-8.4198 4.781-2.5202 1.2749-5.8996 2.6035-8.4198 3.2607-3.7927 1.2638-4.6271 1.3673-8.4198 2.0846-8.4198 1.6811-8.4198 1.2777-6.9085 0.71728-1.5112 0.14095-8.4198 0.42285-8.4198 0.060406-8.4198-0.30203" clip-path="url(#p6faf649e5b)" fill="none" stroke="#365c8d" stroke-dasharray="2.96,1.28" stroke-width=".8"/>
   </g>
   <g id="LineCollection_4" fill="none" stroke="#277f8e" stroke-dasharray="2.96,1.28" stroke-width=".8">
    <path d="m430.49 148.72-0.10658 0.10183-8.3132 6.7803-0.46136 0.34771-7.9584 5.2323-3.1417 1.8957-5.2781 2.8243-8.4198 4.102-0.45926 0.20174-7.9605 3.1412-8.4198 2.9599-3.3288 1.0269-5.091 1.4256-8.4198 2.0287-8.4198 1.6998-8.4198 1.3708-4.8746 0.60314-3.5452 0.40158-8.4198 0.65256-8.4198 0.35138-8.4198 0.050197-8.4198-0.25099-8.4198-0.55217-6.4387-0.65256-1.9811-0.21932-8.4198-1.2611-8.4198-1.5901-8.4198-1.9191-8.0091-2.1384-0.41072-0.12081-8.4198-2.8391-8.4198-3.2016-2.2833-0.96651-6.1365-2.8915-8.1607-4.2365-0.25907-0.15166-8.4198-5.3839-2.2963-1.5924-6.1235-4.8679" clip-path="url(#p6faf649e5b)"/>
    <path d="m203.15 56.16 8.4198-6.382 1.0673-0.74595 7.3525-4.5096 4.6633-2.6184 3.7565-1.8792 8.4198-3.8232 3.495-1.4256 4.9248-1.8112 8.4198-2.746 8.4198-2.3955 0.7217-0.17528 7.6981-1.7022 8.4198-1.5426 8.4198-1.2235 8.4198-0.9043 8.4198-0.58513 8.4198-0.26597 8.4198 0.053194 8.4198 0.37236 8.4198 0.69152 8.4198 1.0107 8.4198 1.3298 8.4198 1.649 4.7788 1.1171 3.641 0.93482 8.4198 2.5123 8.4198 2.8629 2.1432 0.81797 6.2766 2.6568 8.4198 3.9528 1.0053 0.5184 7.4144 4.2913 4.4982 2.8367 3.9215 2.818 5.5421 4.31 2.8776 2.6008" clip-path="url(#p6faf649e5b)"/>
   </g>
   <g id="LineCollection_5" fill="none" stroke="#1fa187" stroke-dasharray="2.96,1.28" stroke-width=".8">
    <path d="m430.49 169.11-1.7408 1.0983-6.679 3.7855-6.3821 3.3425-2.0377 0.96868-8.4198 3.6737-6.2573 2.4857-2.1625 0.78642-8.4198 2.7608-8.4198 2.4597-4.3731 1.1211-4.0467 0.95657-8.4198 1.7126-8.4198 1.4349-8.4198 1.1571-8.4198 0.87943-8.4198 0.60172-8.4198 0.324-8.4198 0.046285-8.4198-0.23143-8.4198-0.50914-8.4198-0.78686-8.4198-1.0646-8.4198-1.3423-8.4198-1.62-6.9138-1.5583-1.506-0.36811-8.4198-2.3593-8.4198-2.6605-4.9472-1.7402-3.4726-1.3342-8.4198-3.564-4.8226-2.2298-3.5972-1.8323-8.4198-4.6513" clip-path="url(#p6faf649e5b)"/>
    <path d="m203.15 36.547 2.9888-1.7712 5.4309-2.9018 8.4198-4.1483 0.17271-0.077902 8.2471-3.3867 8.4198-3.1384 1.8005-0.60287 6.6193-2.0342 8.4198-2.2946 8.4198-2.0017 3.9292-0.79742 4.4906-0.84213 8.4198-1.3083 8.4198-1.0376 8.4198-0.76694 8.4198-0.49625 8.4198-0.22557 8.4198 0.045114 8.4198 0.3158 8.4198 0.58648 8.4198 0.85716 8.4198 1.1278 8.4198 1.3985 1.7446 0.34587 6.6751 1.4321 8.4198 2.0993 8.4198 2.3923 3.7761 1.2043 4.6436 1.6136 8.4198 3.2448 5.3619 2.2696 3.0579 1.4217 8.4198 4.2651 2.629 1.4412 5.7908 3.5208" clip-path="url(#p6faf649e5b)"/>
   </g>
   <g id="LineCollection_6" fill="none" stroke="#4ac16d" stroke-dasharray="2.96,1.28" stroke-width=".8">
    <path d="m236.07 198.72-7.6587-2.484-8.4198-3.0086-4.1901-1.6354-4.2297-1.7904-8.4198-3.8652" clip-path="url(#p6faf649e5b)"/>
    <path d="m430.49 184.58-8.4198 3.9656-6.9973 3.0453-1.4225 0.57086-8.4198 3.1011-8.4198 2.8234-2.0922 0.63257" clip-path="url(#p6faf649e5b)"/>
    <path d="m203.15 21.407 1.8225-0.88657 6.5973-2.9456 8.4198-3.4664 1.8998-0.71606 6.5199-2.2707 8.4198-2.6617 7.7314-2.1955" clip-path="url(#p6faf649e5b)"/>
    <path d="m386.21 6.264 2.1765 0.57144 8.4198 2.4813 8.4198 2.7519 3.6863 1.3233 4.7335 1.839 8.4198 3.564 3.7658 1.725 4.654 2.3228" clip-path="url(#p6faf649e5b)"/>
   </g>
   <g id="LineCollection_7" fill="none" stroke="#a0da39" stroke-dasharray="2.96,1.28" stroke-width=".8">
    <path d="m430.49 197.47-2.8776 1.2497" clip-path="url(#p6faf649e5b)"/>
    <path d="m203.15 8.7002 5.9048-2.4362" clip-path="url(#p6faf649e5b)"/>
    <path d="m421.84 6.264 0.23068 0.090228 8.4198 3.564" clip-path="url(#p6faf649e5b)"/>
   </g>
   <g id="patch_7">
    <path d="m203.15 198.72v-190.08" fill="none" stroke="#000" stroke-linecap="square" stroke-width=".8"/>
   </g>
   <g id="patch_8">
    <path d="m427.68 198.72v-190.08" fill="none" stroke="#000" stroke-linecap="square" stroke-width=".8"/>
   </g>
   <g id="patch_9">
    <path d="m203.15 198.72h224.53" fill="none" stroke="#000" stroke-linecap="square" stroke-width=".8"/>
   </g>
   <g id="patch_10">
    <path d="m203.15 8.64h224.53" fill="none" stroke="#000" stroke-linecap="square" stroke-width=".8"/>
   </g>
  </g>
 </g>
 <defs>
  <clipPath id="pc0c58ce210">
   <rect x="-21.6" y="8.64" width="224.53" height="190.08"/>
  </clipPath>
  <clipPath id="p6faf649e5b">
   <rect x="203.15" y="8.64" width="224.53" height="190.08"/>
  </clipPath>
 </defs>
</svg>
