<?xml version="1.0" encoding="UTF-8"?>
<!DOCTYPE svg  PUBLIC '-//W3C//DTD SVG 1.1//EN'  'http://www.w3.org/Graphics/SVG/1.1/DTD/svg11.dtd'>
<!-- Created with matplotlib (https://matplotlib.org/) -->
<svg width="432pt" height="216pt" version="1.1" viewBox="0 0 432 216" xmlns="http://www.w3.org/2000/svg" xmlns:xlink="http://www.w3.org/1999/xlink">
 <defs>
  <style type="text/css">*{stroke-linecap:butt;stroke-linejoin:round;}</style>
 </defs>
 <g id="figure_1">
  <g id="patch_1">
   <path d="m0 216h432v-216h-432z" fill="#fff"/>
  </g>
  <g id="patch_2">
   <path d="m-21.6 198.72h224.53v-190.08h-224.53z" fill="#fff"/>
  </g>
  <g id="pane3d_1">
   <g id="patch_3">
    <path d="m7.0363 156.74 68.152-36.807-0.72044-93.48-71.089 30.478" fill="#f2f2f2" opacity=".5" stroke="#f2f2f2"/>
   </g>
  </g>
  <g id="pane3d_2">
   <g id="patch_4">
    <path d="m75.188 119.93 102.62 22.322 3.4409-97.341-106.78-18.461" fill="#e6e6e6" opacity=".5" stroke="#e6e6e6"/>
   </g>
  </g>
  <g id="pane3d_3">
   <g id="patch_5">
    <path d="m7.0363 156.74 107.73 26.184 63.036-40.669-102.62-22.322" fill="#ececec" opacity=".5" stroke="#ececec"/>
   </g>
  </g>
  <g id="axis3d_1">
   <g id="line2d_1">
    <path d="m7.0363 156.74 107.73 26.184" fill="none" stroke="#000" stroke-linecap="square" stroke-width=".8"/>
   </g>
   <g id="Line3DCollection_1" fill="none" stroke="#b0b0b0" stroke-width=".8">
    <path d="m9.0841 157.24 68.062-36.879-0.64485-93.554"/>
    <path d="m33.985 163.29 66.949-37.756 0.28525-94.455"/>
    <path d="m59.507 169.49 65.762-38.666 1.2594-95.373"/>
    <path d="m85.671 175.85 64.498-39.608 2.28-96.308"/>
    <path d="m112.5 182.37 63.152-40.586 3.3495-97.26"/>
   </g>
   <g id="xtick_1">
    <g id="line2d_2">
     <path d="m9.6723 156.92-1.7669 0.95739" fill="none" stroke="#000" stroke-linecap="square" stroke-width=".8"/>
    </g>
   </g>
   <g id="xtick_2">
    <g id="line2d_3">
     <path d="m34.565 162.96-1.7396 0.98109" fill="none" stroke="#000" stroke-linecap="square" stroke-width=".8"/>
    </g>
   </g>
   <g id="xtick_3">
    <g id="line2d_4">
     <path d="m60.076 169.16-1.7104 1.0057" fill="none" stroke="#000" stroke-linecap="square" stroke-width=".8"/>
    </g>
   </g>
   <g id="xtick_4">
    <g id="line2d_5">
     <path d="m86.23 175.51-1.6792 1.0312" fill="none" stroke="#000" stroke-linecap="square" stroke-width=".8"/>
    </g>
   </g>
   <g id="xtick_5">
    <g id="line2d_6">
     <path d="m113.05 182.02-1.6458 1.0577" fill="none" stroke="#000" stroke-linecap="square" stroke-width=".8"/>
    </g>
   </g>
  </g>
  <g id="axis3d_2">
   <g id="line2d_7">
    <path d="m177.81 142.25-63.036 40.669" fill="none" stroke="#000" stroke-linecap="square" stroke-width=".8"/>
   </g>
   <g id="Line3DCollection_2" fill="none" stroke="#b0b0b0" stroke-width=".8">
    <path d="m4.9179 56.271 3.5893 99.674 107.63 26.097"/>
    <path d="m22.99 48.523 2.8043 98.085 106.38 25.089"/>
    <path d="m40.361 41.075 2.0759 96.545 105.14 24.138"/>
    <path d="m57.07 33.911 1.3995 95.05 103.92 23.24"/>
    <path d="m73.154 27.015 0.7708 93.599 102.72 22.391"/>
   </g>
   <g id="xtick_6">
    <g id="line2d_8">
     <path d="m115.23 181.82 2.7216 0.65991" fill="none" stroke="#000" stroke-linecap="square" stroke-width=".8"/>
    </g>
   </g>
   <g id="xtick_7">
    <g id="line2d_9">
     <path d="m131.28 171.49 2.6871 0.63376" fill="none" stroke="#000" stroke-linecap="square" stroke-width=".8"/>
    </g>
   </g>
   <g id="xtick_8">
    <g id="line2d_10">
     <path d="m146.69 161.55 2.6533 0.60914" fill="none" stroke="#000" stroke-linecap="square" stroke-width=".8"/>
    </g>
   </g>
   <g id="xtick_9">
    <g id="line2d_11">
     <path d="m161.52 152.01 2.6201 0.58592" fill="none" stroke="#000" stroke-linecap="square" stroke-width=".8"/>
    </g>
   </g>
   <g id="xtick_10">
    <g id="line2d_12">
     <path d="m175.78 142.82 2.5874 0.56401" fill="none" stroke="#000" stroke-linecap="square" stroke-width=".8"/>
    </g>
   </g>
  </g>
  <g id="axis3d_3">
   <g id="line2d_13">
    <path d="m177.81 142.25 3.4409-97.341" fill="none" stroke="#000" stroke-linecap="square" stroke-width=".8"/>
   </g>
   <g id="Line3DCollection_3" fill="none" stroke="#b0b0b0" stroke-width=".8">
    <path d="m178.33 127.47-103.25-21.759-68.597 35.885"/>
    <path d="m179.26 101.21-104.37-20.738-69.389 34.213"/>
    <path d="m180.21 74.377-105.52-19.668-70.199 32.458"/>
    <path d="m181.18 46.938-106.69-18.545-71.028 30.616"/>
   </g>
   <g id="xtick_11">
    <g id="line2d_14">
     <path d="m177.46 127.29 2.6014 0.54821" fill="none" stroke="#000" stroke-linecap="square" stroke-width=".8"/>
    </g>
   </g>
   <g id="xtick_12">
    <g id="line2d_15">
     <path d="m178.38 101.04 2.631 0.52276" fill="none" stroke="#000" stroke-linecap="square" stroke-width=".8"/>
    </g>
   </g>
   <g id="xtick_13">
    <g id="line2d_16">
     <path d="m179.32 74.211 2.6614 0.49604" fill="none" stroke="#000" stroke-linecap="square" stroke-width=".8"/>
    </g>
   </g>
   <g id="xtick_14">
    <g id="line2d_17">
     <path d="m180.28 46.782 2.6924 0.46799" fill="none" stroke="#000" stroke-linecap="square" stroke-width=".8"/>
    </g>
   </g>
  </g>
  <g id="axes_1">
   <g id="Path3DCollection_1">
    <defs>
     <path id="C0_0_076a30c782" d="m0 2.2361c0.59301 0 1.1618-0.23561 1.5811-0.65493s0.65493-0.98813 0.65493-1.5811-0.23561-1.1618-0.65493-1.5811-0.98813-0.65493-1.5811-0.65493-1.1618 0.23561-1.5811 0.65493-0.65493 0.98813-0.65493 1.5811 0.23561 1.1618 0.65493 1.5811 0.98813 0.65493 1.5811 0.65493z"/>
    </defs>
    <g clip-path="url(#pc2ba3b1668)">
     <use x="17.491624" y="38.679783" fill="#ff0000" stroke="#ff0000" xlink:href="#C0_0_076a30c782"/>
    </g>
    <g clip-path="url(#pc2ba3b1668)">
     <use x="40.361885" y="91.281868" fill="#ff0000" fill-opacity=".50941" stroke="#ff0000" stroke-opacity=".50941" xlink:href="#C0_0_076a30c782"/>
    </g>
    <g clip-path="url(#pc2ba3b1668)">
     <use x="54.988558" y="112.088107" fill="#ff0000" fill-opacity=".3" stroke="#ff0000" stroke-opacity=".3" xlink:href="#C0_0_076a30c782"/>
    </g>
   </g>
   <g id="Poly3DCollection_1" fill-opacity=".4" stroke="#000" stroke-width=".1">
    <path d="m74.388 76.923 3.7361 4.9312 3.7341 4.4579 2.3362-7.9874 2.3332-8.9411-3.7364-4.4551-3.7374-4.9318-2.3299 8.9416z" clip-path="url(#pc2ba3b1668)" fill="#297a8e"/>
    <path d="m66.901 65.629 3.7464 5.8869 3.7402 5.4074 2.3358-7.9846 2.3299-8.9416-3.7406-5.4114-3.746-5.8944-2.3285 8.9498z" clip-path="url(#pc2ba3b1668)" fill="#218e8d"/>
    <path d="m69.687 90.056 3.7405 4.9382 3.7377 4.4668 2.3504-6.1055 2.3419-7.0429-3.7341-4.4579-3.7361-4.9312-2.3445 7.0367z" clip-path="url(#pc2ba3b1668)" fill="#365d8d"/>
    <path d="m62.189 78.754 3.7527 5.8899 3.7455 5.4123 2.3559-6.0959 2.3445-7.0367-3.7402-5.4074-3.7464-5.8869-2.3489 7.0352z" clip-path="url(#pc2ba3b1668)" fill="#2c718e"/>
    <path d="m81.858 86.312 3.7344 3.9868 3.7369 3.5174 2.3384-7.9964 2.3383-8.9482-3.741-3.5077-3.7376-3.9805-2.3332 8.9411z" clip-path="url(#pc2ba3b1668)" fill="#2f6b8e"/>
    <path d="m59.381 52.4 3.7656 6.8582 3.7549 6.3703 2.3373-7.9879 2.3285-8.9498-3.7535-6.3812-3.7633-6.8726-2.3288 8.9656z" clip-path="url(#pc2ba3b1668)" fill="#21a685"/>
    <path d="m79.053 59.997 3.7374 4.9318 3.7364 4.4551 2.3329-9.9062 2.3354-10.885-3.7445-4.4582-3.7446-4.9399-2.3262 10.892z" clip-path="url(#pc2ba3b1668)" fill="#1f9f88"/>
    <path d="m71.567 48.691 3.746 5.8944 3.7406 5.4114 2.3267-9.9101 2.3262-10.892-3.7469-5.4244-3.7514-5.9123-2.3189 10.91z" clip-path="url(#pc2ba3b1668)" fill="#2db27d"/>
    <path d="m77.165 99.461 3.737 3.9977 3.7386 3.5303 2.3468-6.1183 2.3412-7.0538-3.7369-3.5174-3.7344-3.9868-2.3419 7.0429z" clip-path="url(#pc2ba3b1668)" fill="#3e4c8a"/>
    <path d="m54.653 65.525 3.7738 6.8574 3.7621 6.3714 2.3632-6.0895 2.3489-7.0352-3.7549-6.3703-3.7656-6.8582-2.3551 7.0383z" clip-path="url(#pc2ba3b1668)" fill="#238a8d"/>
    <path d="m86.527 69.384 3.7376 3.9805 3.741 3.5077 2.3409-9.9114 2.3463-10.888-3.7509-3.501-3.7466-3.9787-2.3354 10.885z" clip-path="url(#pc2ba3b1668)" fill="#21908d"/>
    <path d="m64.05 35.437 3.7633 6.8726 3.7535 6.3812 2.3224-9.9231 2.3189-10.91-3.758-6.4042-3.7669-6.9006-2.3134 10.939z" clip-path="url(#pc2ba3b1668)" fill="#5ac864"/>
    <path d="m89.329 93.817 3.7415 3.0492 3.7484 2.5816 2.3424-8.0115 2.3452-8.9629-3.7543-2.5649-3.7465-3.036-2.3383 8.9482z" clip-path="url(#pc2ba3b1668)" fill="#355f8d"/>
    <path d="m64.93 99.442 3.7508 4.9526 3.7471 4.4817 2.3757-4.2428 2.3617-5.1728-3.7377-4.4668-3.7405-4.9382-2.37 5.1598z" clip-path="url(#pc2ba3b1668)" fill="#404688"/>
    <path d="m57.408 88.113 3.765 5.9034 3.7568 5.4263 2.387-4.2264 2.37-5.1598-3.7455-5.4123-3.7527-5.8899-2.3803 5.1486z" clip-path="url(#pc2ba3b1668)" fill="#365d8d"/>
    <path d="m84.641 106.99 3.7423 3.0641 3.7483 2.5985 2.345-6.1344 2.3423-7.0694-3.7484-2.5816-3.7415-3.0492-2.3412 7.0538z" clip-path="url(#pc2ba3b1668)" fill="#433e85"/>
    <path d="m72.428 108.88 3.7455 4.0132 3.7461 3.5463 2.3662-4.2596 2.3551-5.1876-3.7386-3.5303-3.737-3.9977-2.3617 5.1728z" clip-path="url(#pc2ba3b1668)" fill="#46337f"/>
    <path d="m94.006 76.872 3.7465 3.036 3.7543 2.5649 2.3508-9.9257 2.3592-10.902-3.7661-2.5483-3.7574-3.0243-2.3463 10.888z" clip-path="url(#pc2ba3b1668)" fill="#25848e"/>
    <path d="m49.845 74.858 3.788 6.8699 3.7753 6.3844 2.4003-4.2102 2.3803-5.1486-3.7621-6.3714-3.7738-6.8574-2.3925 5.1389z" clip-path="url(#pc2ba3b1668)" fill="#2a768e"/>
    <path d="m83.706 39.195 3.7446 4.9399 3.7445 4.4582 2.3406-11.88 2.3485-12.893-3.7585-4.4673-3.7577-4.9555-2.3335 12.907z" clip-path="url(#pc2ba3b1668)" fill="#5cc863"/>
    <path d="m76.208 27.858 3.7514 5.9123 3.7469 5.4244 2.3285-11.891 2.3335-12.907-3.7591-5.4466-3.7627-5.941-2.3203 12.935z" clip-path="url(#pc2ba3b1668)" fill="#8ed645"/>
    <path d="m91.195 48.593 3.7466 3.9787 3.7509 3.501 2.3545-11.881 2.3654-12.893-3.7668-3.4971-3.7616-3.9814-2.3485 12.893z" clip-path="url(#pc2ba3b1668)" fill="#3dbc74"/>
    <path d="m96.819 99.448 3.7574 2.1141 3.7687 1.6461 2.3482-8.0329 2.354-8.9853-3.7765-1.6224-3.7643-2.0939-2.3452 8.9629z" clip-path="url(#pc2ba3b1668)" fill="#39568c"/>
    <path d="m68.683 14.553 3.7669 6.9006 3.758 6.4042 2.3182-11.913 2.3203-12.935-3.7685-6.4395-3.7765-6.9425-2.3088 12.977z" clip-path="url(#pc2ba3b1668)" fill="#d2e21b"/>
    <path d="m79.92 116.44 3.749 3.0806 3.754 2.6156 2.3586-4.2767 2.3504-5.2042-3.7483-2.5985-3.7423-3.0641-2.3551 5.1876z" clip-path="url(#pc2ba3b1668)" fill="#482475"/>
    <path d="m92.132 112.65 3.7564 2.133 3.7668 1.667 2.3449-6.1538 2.3452-7.0898-3.7687-1.6461-3.7574-2.1141-2.3423 7.0694z" clip-path="url(#pc2ba3b1668)" fill="#463480"/>
    <path d="m101.51 82.473 3.7643 2.0939 3.7765 1.6224 2.3626-9.9493 2.374-10.927-3.7903-1.5957-3.7771-2.0722-2.3592 10.902z" clip-path="url(#pc2ba3b1668)" fill="#287d8e"/>
    <path d="m98.693 56.072 3.7574 3.0243 3.7661 2.5483 2.3703-11.895 2.3843-12.906-3.784-2.5314-3.7743-3.014-2.3654 12.893z" clip-path="url(#pc2ba3b1668)" fill="#2cb17e"/>
    <path d="m60.093 105.09 3.7671 4.9747 3.7624 4.5029 2.4125-2.3821 2.3926-3.3133-3.7471-4.4817-3.7508-4.9526-2.4069 3.2934z" clip-path="url(#pc2ba3b1668)" fill="#453882"/>
    <path d="m52.536 93.717 3.7832 5.9275 3.7741 5.4494 2.4298-2.3587 2.4069-3.2934-3.7568-5.4263-3.765-5.9034-2.4232 3.2723z" clip-path="url(#pc2ba3b1668)" fill="#3c508b"/>
    <path d="m67.623 114.57 3.7599 4.0334 3.7596 3.5656 2.3971-2.4029 2.3802-3.3321-3.7461-3.5463-3.7455-4.0132-2.3926 3.3133z" clip-path="url(#pc2ba3b1668)" fill="#482475"/>
    <path d="m87.423 122.13 3.7613 2.1507 3.7708 1.6853 2.3527-4.2943 2.3474-5.2226-3.7668-1.667-3.7564-2.133-2.3504 5.2042z" clip-path="url(#pc2ba3b1668)" fill="#481a6c"/>
    <path d="m44.933 80.412 3.8083 6.8962 3.7946 6.4096 2.4491-2.3326 2.4232-3.2723-3.7753-6.3844-3.788-6.8699-2.4414 3.2499z" clip-path="url(#pc2ba3b1668)" fill="#2f6b8e"/>
    <path d="m104.35 103.21 3.7823 1.177 3.7981 0.70637 2.356-8.0607 2.3648-9.0157-3.8079-0.67554-3.791-1.1498-2.354 8.9853z" clip-path="url(#pc2ba3b1668)" fill="#3a538b"/>
    <path d="m99.655 116.45 3.7795 1.2 3.7944 0.73145 2.3467-6.1766 2.35-7.115-3.7981-0.70637-3.7823-1.177-2.3452 7.0898z" clip-path="url(#pc2ba3b1668)" fill="#46307e"/>
    <path d="m106.22 61.645 3.7771 2.0722 3.7903 1.5957 2.3882-11.921 2.4052-12.934-3.8102-1.5657-3.796-2.0488-2.3843 12.906z" clip-path="url(#pc2ba3b1668)" fill="#24aa83"/>
    <path d="m75.142 122.17 3.7615 3.0991 3.7657 2.6331 2.3835-2.4212 2.3696-3.3498-3.754-2.6156-3.749-3.0806-2.3802 3.3321z" clip-path="url(#pc2ba3b1668)" fill="#481467"/>
    <path d="m109.05 86.189 3.791 1.1498 3.8079 0.67554 2.3764-9.9823 2.3908-10.963-3.8237-0.63867-3.8058-1.118-2.374 10.927z" clip-path="url(#pc2ba3b1668)" fill="#297a8e"/>
    <path d="m94.955 125.97 3.7826 1.2189 3.7967 0.75097 2.3485-4.3123 2.3462-5.2431-3.7944-0.73145-3.7795-1.2-2.3474 5.2226z" clip-path="url(#pc2ba3b1668)" fill="#481668"/>
    <path d="m82.67 127.9 3.7721 2.1673 3.7807 1.7011 2.3716-2.437 2.3607-3.3664-3.7708-1.6853-3.7613-2.1507-2.3696 3.3498z" clip-path="url(#pc2ba3b1668)" fill="#46085c"/>
    <path d="m113.78 65.313 3.8058 1.118 3.8237 0.63867 2.4081-11.96 2.4283-12.975-3.8457-0.59531-3.8268-1.0814-2.4052 12.934z" clip-path="url(#pc2ba3b1668)" fill="#22a785"/>
    <path d="m111.93 105.09 3.8163 0.23357 3.8369-0.24196 2.3656-8.0949 2.3775-9.054-3.8486 0.28008-3.827-0.19912-2.3648 9.0157z" clip-path="url(#pc2ba3b1668)" fill="#39558c"/>
    <path d="m55.153 106.99 3.7895 5.0048 3.7838 4.5305 2.4612-0.50572 2.4353-1.447-3.7624-4.5029-3.7671-4.9747-2.4557 1.42z" clip-path="url(#pc2ba3b1668)" fill="#463480"/>
    <path d="m47.548 95.545 3.8077 5.9625 3.7975 5.4819 2.4847-0.47511 2.4557-1.42-3.7741-5.4494-3.7832-5.9275-2.478 1.3888z" clip-path="url(#pc2ba3b1668)" fill="#3d4d8a"/>
    <path d="m107.23 118.38 3.8117 0.26076 3.8313-0.21263 2.3503-6.2029 2.3566-7.1453-3.8369 0.24196-3.8163-0.23357-2.35 7.115z" clip-path="url(#pc2ba3b1668)" fill="#46337f"/>
    <path d="m62.726 116.52 3.7803 4.0586 3.7791 3.5884 2.4397-0.53074 2.4169-1.4699-3.7596-3.5656-3.7599-4.0334-2.4353 1.447z" clip-path="url(#pc2ba3b1668)" fill="#482071"/>
    <path d="m39.893 82.161 3.8349 6.9364 3.8202 6.4472 2.5102-0.43877 2.478-1.3888-3.7946-6.4096-3.8083-6.8962-2.5025 1.3533z" clip-path="url(#pc2ba3b1668)" fill="#31688e"/>
    <path d="m116.65 88.015 3.827 0.19912 3.8486-0.28008 2.3922-10.025 2.4097-11.01-3.8665 0.32735-3.8439-0.15708-2.3908 10.963z" clip-path="url(#pc2ba3b1668)" fill="#287c8e"/>
    <path d="m70.286 124.17 3.7801 3.1194 3.7834 2.6511 2.4201-0.55023 2.4003-1.4888-3.7657-2.6331-3.7615-3.0991-2.4169 1.4699z" clip-path="url(#pc2ba3b1668)" fill="#471063"/>
    <path d="m90.222 131.77 3.7917 1.2338 3.8049 0.76499 2.3615-2.4503 2.3536-3.3821-3.7967-0.75097-3.7826-1.2189-2.3607 3.3664z" clip-path="url(#pc2ba3b1668)" fill="#450457"/>
    <path d="m102.53 127.94 3.8131 0.2809 3.8318-0.19187 2.3461-4.3308 2.3468-5.2654-3.8313 0.21263-3.8117-0.26076-2.3462 5.2431z" clip-path="url(#pc2ba3b1668)" fill="#48186a"/>
    <path d="m121.41 67.07 3.8439 0.15708 3.8665-0.32735 2.4302-12.011 2.4537-13.031-3.8908 0.38433-3.867-0.10695-2.4283 12.975z" clip-path="url(#pc2ba3b1668)" fill="#23a983"/>
    <path d="m77.849 129.94 3.7889 2.183 3.7967 1.7143 2.4022-0.56423 2.3854-1.5037-3.7807-1.7011-3.7721-2.1673-2.4003 1.4888z" clip-path="url(#pc2ba3b1668)" fill="#450457"/>
    <path d="m119.58 105.08 3.8599-0.72082 3.8853-1.2036 2.3772-8.1358 2.3922-9.1005-3.899 1.2492-3.8725 0.76265-2.3775 9.054z" clip-path="url(#pc2ba3b1668)" fill="#365c8d"/>
    <path d="m114.87 118.43 3.8534-0.68932 3.8779-1.1699 2.3557-6.2327 2.3651-7.1806-3.8853 1.2036-3.8599 0.72082-2.3566 7.1453z" clip-path="url(#pc2ba3b1668)" fill="#443a83"/>
    <path d="m124.32 87.934 3.8725-0.76265 3.899-1.2492 2.4101-10.077 2.4309-11.068-3.9191 1.3071-3.8915 0.81522-2.4097 11.01z" clip-path="url(#pc2ba3b1668)" fill="#26828e"/>
    <path d="m97.819 133.77 3.8205 0.29404 3.8384-0.17963 2.353-2.461 2.3481-3.3967-3.8318 0.19187-3.8131-0.2809-2.3536 3.3821z" clip-path="url(#pc2ba3b1668)" fill="#46075a"/>
    <path d="m50.084 105.07 3.8182 5.043 3.8115 4.5647 2.5227 1.4047 2.4903 0.44404-3.7838-4.5305-3.7895-5.0048-2.5169-0.47835z" clip-path="url(#pc2ba3b1668)" fill="#443b84"/>
    <path d="m42.418 93.535 3.8386 6.0089 3.8273 5.5242 2.5525 1.4428 2.5169 0.47835-3.7975-5.4819-3.8077-5.9625-2.5456-0.51995z" clip-path="url(#pc2ba3b1668)" fill="#3a538b"/>
    <path d="m110.18 128.03 3.853-0.66793 3.8766-1.1479 2.3453-4.3498 2.3491-5.2899-3.8779 1.1699-3.8534 0.68932-2.3468 5.2654z" clip-path="url(#pc2ba3b1668)" fill="#482071"/>
    <path d="m57.713 114.68 3.807 4.0888 3.8048 3.6147 2.4949 1.3753 2.4657 0.41687-3.7791-3.5884-3.7803-4.0586-2.4903-0.44404z" clip-path="url(#pc2ba3b1668)" fill="#482878"/>
    <path d="m85.435 133.84 3.8068 1.2447 3.8192 0.77348 2.386-0.5727 2.3723-1.5146-3.8049-0.76499-3.7917-1.2338-2.3854 1.5037z" clip-path="url(#pc2ba3b1668)" fill="#440154"/>
    <path d="m34.697 80.047 3.8681 6.9911 3.8522 6.4976 2.5845 1.4897 2.5456 0.51995-3.8202-6.4472-3.8349-6.9364-2.5766-0.56905z" clip-path="url(#pc2ba3b1668)" fill="#2e6e8e"/>
    <path d="m129.12 66.899 3.8915-0.81522 3.9191-1.3071 2.4546-12.075 2.4814-13.102-3.9458 1.3781-3.917 0.87915-2.4537 13.031z" clip-path="url(#pc2ba3b1668)" fill="#28ae80"/>
    <path d="m65.325 122.38 3.8049 3.1418 3.8072 2.6696 2.469 1.3545 2.443 0.39675-3.7834-2.6511-3.7801-3.1194-2.4657-0.41687z" clip-path="url(#pc2ba3b1668)" fill="#48186a"/>
    <path d="m127.32 103.16 3.9132-1.6909 3.9438-2.1834 2.3909-8.1835 2.4091-9.1555-3.9596 2.2367-3.928 1.7403-2.3922 9.1005z" clip-path="url(#pc2ba3b1668)" fill="#31668e"/>
    <path d="m122.6 116.57 3.9049-1.655 3.9345-2.1452 2.363-6.2662 2.3755-7.2212-3.9438 2.1834-3.9132 1.6909-2.3651 7.1806z" clip-path="url(#pc2ba3b1668)" fill="#404688"/>
    <path d="m105.48 133.88 3.8588-0.65659 3.8816-1.1375 2.3461-2.4692 2.3443-3.4103-3.8766 1.1479-3.853 0.66793-2.3481 3.3967z" clip-path="url(#pc2ba3b1668)" fill="#471063"/>
    <path d="m132.09 85.922 3.928-1.7403 3.9596-2.2367 2.4302-10.139 2.4543-11.138-3.9819 2.3057-3.9492 1.8037-2.4309 11.068z" clip-path="url(#pc2ba3b1668)" fill="#228b8d"/>
    <path d="m72.937 128.19 3.8118 2.1975 3.8188 1.725 2.4449 1.3424 2.422 0.38365-3.7967-1.7143-3.7889-2.183-2.443-0.39675z" clip-path="url(#pc2ba3b1668)" fill="#470d60"/>
    <path d="m93.061 135.86 3.8339 0.30011 3.8511-0.176 2.3713-0.57556 2.3607-1.5214-3.8384 0.17963-3.8205-0.29404-2.3723 1.5146z" clip-path="url(#pc2ba3b1668)" fill="#440256"/>
    <path d="m117.91 126.21 3.9028-1.6323 3.9315-2.1219 2.3463-4.3693 2.3532-5.3164-3.9345 2.1452-3.9049 1.655-2.3491 5.2899z" clip-path="url(#pc2ba3b1668)" fill="#472d7b"/>
    <path d="m136.93 64.777 3.9492-1.8037 3.9819-2.3057 2.4815-12.153 2.5117-13.188-4.0111 2.3911-3.9771 1.8819-2.4814 13.102z" clip-path="url(#pc2ba3b1668)" fill="#35b779"/>
    <path d="m80.568 132.11 3.828 1.2514 3.8397 0.77625 2.4225 1.3389 2.4027 0.37764-3.8192-0.77348-3.8068-1.2447-2.422-0.38365z" clip-path="url(#pc2ba3b1668)" fill="#46085c"/>
    <path d="m44.858 99.233 3.8536 5.0897 3.8457 4.6058 2.5978 3.3685 2.5585 2.3787-3.8115-4.5647-3.8182-5.043-2.5916-2.4206z" clip-path="url(#pc2ba3b1668)" fill="#3d4d8a"/>
    <path d="m37.118 87.59 3.8762 6.067 3.8637 5.5765 2.6343 3.4145 2.5916 2.4206-3.8273-5.5242-3.8386-6.0089-2.6269-2.4731z" clip-path="url(#pc2ba3b1668)" fill="#33638d"/>
    <path d="m52.557 108.93 3.8402 4.1243 3.837 3.6447 2.5635 3.3346 2.5275 2.347-3.8048-3.6147-3.807-4.0888-2.5585-2.3787z" clip-path="url(#pc2ba3b1668)" fill="#443a83"/>
    <path d="m100.75 135.98 3.8707-0.65544 3.8928-1.1388 2.3582-0.57267 2.3507-1.5241-3.8816 1.1375-3.8588 0.65659-2.3607 1.5214z" clip-path="url(#pc2ba3b1668)" fill="#460b5e"/>
    <path d="m29.318 73.967 3.9083 7.061 3.8911 6.5616 2.6731 3.4725 2.6269 2.4731-3.8522-6.4976-3.8681-6.9911-2.6647-2.5363z" clip-path="url(#pc2ba3b1668)" fill="#287c8e"/>
    <path d="m113.22 132.09 3.9069-1.6229 3.9349-2.1134 2.3407-2.4746 2.3421-3.4228-3.9315 2.1219-3.9028 1.6323-2.3443 3.4103z" clip-path="url(#pc2ba3b1668)" fill="#481d6f"/>
    <path d="m135.18 99.284 3.977-2.6817 4.0129-3.1865 2.4066-8.2383 2.4282-9.2193-4.0308 3.2478-3.9938 2.739-2.4091 9.1555z" clip-path="url(#pc2ba3b1668)" fill="#2b748e"/>
    <path d="m130.44 112.77 3.9667-2.6412 4.0016-3.1437 2.3721-6.3035 2.3879-7.2672-4.0129 3.1865-3.977 2.6817-2.3755 7.2212z" clip-path="url(#pc2ba3b1668)" fill="#39568c"/>
    <path d="m139.98 81.945 3.9938-2.739 4.0308-3.2478 2.4527-10.212 2.4802-11.22-4.0556 3.3282-4.0174 2.8136-2.4543 11.138z" clip-path="url(#pc2ba3b1668)" fill="#1f998a"/>
    <path d="m60.234 116.7 3.8361 3.1663 3.8375 2.6886 2.5311 3.3125 2.4984 2.3256-3.8072-2.6696-3.8049-3.1418-2.5275-2.347z" clip-path="url(#pc2ba3b1668)" fill="#472c7a"/>
    <path d="m88.236 134.14 3.8537 0.29888 3.8701-0.18127 2.4015 1.3442 2.3849 0.37882-3.8511 0.176-3.8339-0.30011-2.4027-0.37764z" clip-path="url(#pc2ba3b1668)" fill="#460b5e"/>
    <path d="m125.74 122.46 3.9628-2.6173 3.9969-3.1191 2.3489-4.3893 2.3591-5.345-4.0016 3.1437-3.9667 2.6412-2.3532 5.3164z" clip-path="url(#pc2ba3b1668)" fill="#423f85"/>
    <path d="m67.908 122.55 3.8412 2.211 3.8473 1.7329 2.5006 3.3024 2.4711 2.3144-3.8188-1.725-3.8118-2.1975-2.4984-2.3256z" clip-path="url(#pc2ba3b1668)" fill="#482173"/>
    <path d="m144.87 60.668 4.0174-2.8136 4.0556-3.3282 2.5109-12.245 2.5447-13.289-4.0874 3.4287-4.0479 2.9065-2.5117 13.188z" clip-path="url(#pc2ba3b1668)" fill="#50c46a"/>
    <path d="m108.51 134.19 3.9174-1.6268 3.9446-2.12 2.3465-0.56382 2.3422-1.5224-3.9349 2.1134-3.9069 1.6229-2.3507 1.5241z" clip-path="url(#pc2ba3b1668)" fill="#481a6c"/>
    <path d="m121.06 128.35 3.9654-2.6098 3.9987-3.1126 2.3369-2.4773 2.3415-3.4342-3.9969 3.1191-3.9628 2.6173-2.3421 3.4228z" clip-path="url(#pc2ba3b1668)" fill="#46307e"/>
    <path d="m75.596 126.5 3.8557 1.2538 3.8665 0.77301 2.4716 3.3041 2.4454 2.3135-3.8397-0.77625-3.828-1.2514-2.4711-2.3144z" clip-path="url(#pc2ba3b1668)" fill="#481d6f"/>
    <path d="m95.959 134.26 3.8889-0.66482 3.9103-1.1524 2.3821 1.3585 2.3686 0.38738-3.8928 1.1388-3.8707 0.65544-2.3849-0.37882z" clip-path="url(#pc2ba3b1668)" fill="#481467"/>
    <path d="m143.17 93.416 4.0516-3.6985 4.0931-4.2184 2.4245-8.3005 2.4495-9.2921-4.1133 4.2881-4.0706 3.7639-2.4282 9.2193z" clip-path="url(#pc2ba3b1668)" fill="#24878e"/>
    <path d="m138.41 106.99 4.0393-3.6533 4.0799-4.1708 2.3832-6.3447 2.4024-7.3188-4.0931 4.2184-4.0516 3.6985-2.3879 7.2672z" clip-path="url(#pc2ba3b1668)" fill="#2f6b8e"/>
    <path d="m148.01 75.958 4.0706-3.7639 4.1133-4.2881 2.4776-10.296 2.5087-11.315-4.1406 4.3804-4.0966 3.8502-2.4802 11.22z" clip-path="url(#pc2ba3b1668)" fill="#25ac82"/>
    <path d="m39.446 89.345 3.8959 5.1454 3.8869 4.6542 2.6879 5.407 2.6409 4.377-3.8457-4.6058-3.8536-5.0897-2.6809-4.427z" clip-path="url(#pc2ba3b1668)" fill="#31668e"/>
    <path d="m31.617 77.568 3.921 6.1376 3.9073 5.6397 2.7314 5.4612 2.6809 4.427-3.8637-5.5765-3.8762-6.067-2.7232-4.4909z" clip-path="url(#pc2ba3b1668)" fill="#297a8e"/>
    <path d="m133.7 116.72 4.0337-3.628 4.0734-4.1449 2.3533-4.4097 2.3668-5.3758-4.0799 4.1708-4.0393 3.6533-2.3591 5.345z" clip-path="url(#pc2ba3b1668)" fill="#39558c"/>
    <path d="m47.228 99.145 3.8802 4.1655 3.876 3.6786 2.6466 5.3683 2.6032 4.3408-3.837-3.6447-3.8402-4.1243-2.6409-4.377z" clip-path="url(#pc2ba3b1668)" fill="#39558c"/>
    <path d="m23.724 63.781 3.9558 7.1468 3.9372 6.6398 2.7774 5.531 2.7232 4.4909-3.8911-6.5616-3.9083-7.061-2.7681-4.569z" clip-path="url(#pc2ba3b1668)" fill="#20928c"/>
    <path d="m83.319 128.52 3.8798 0.28998 3.8955-0.1959 2.4443 3.3181 2.4213 2.3231-3.8701 0.18127-3.8537-0.29888-2.4454-2.3135z" clip-path="url(#pc2ba3b1668)" fill="#482071"/>
    <path d="m152.94 54.526 4.0966-3.8502 4.1406-4.3804 2.543-12.351 2.5805-13.407-4.1754 4.4965-4.1299 3.9584-2.5447 13.289z" clip-path="url(#pc2ba3b1668)" fill="#7cd250"/>
    <path d="m54.985 106.99 3.874 3.193 3.8745 2.708 2.6075 5.3449 2.5674 4.318-3.8375-2.6886-3.8361-3.1663-2.6032-4.3408z" clip-path="url(#pc2ba3b1668)" fill="#3f4889"/>
    <path d="m116.37 130.44 3.9745-2.619 4.0071-3.1246 2.3362-0.54872 2.3351-1.5162-3.9987 3.1126-3.9654 2.6098-2.3422 1.5224z" clip-path="url(#pc2ba3b1668)" fill="#472d7b"/>
    <path d="m103.76 132.44 3.9343-1.6446 3.9608-2.1421 2.3639 1.3823 2.3537 0.40358-3.9446 2.12-3.9174 1.6268-2.3686-0.38738z" clip-path="url(#pc2ba3b1668)" fill="#482173"/>
    <path d="m129.02 122.63 4.0348-3.6227 4.0737-4.1406 2.3346-2.4769 2.3425-3.4442-4.0734 4.1449-4.0337 3.628-2.3415 3.4342z" clip-path="url(#pc2ba3b1668)" fill="#3f4889"/>
    <path d="m62.733 112.89 3.8773 2.2232 3.8824 1.7379 2.5701 5.3369 2.5335 4.3089-3.8473-1.7329-3.8412-2.211-2.5674-4.318z" clip-path="url(#pc2ba3b1668)" fill="#423f85"/>
    <path d="m151.32 85.499 4.1377-4.747 4.1854-5.2851 2.4446-8.3703 2.4733-9.3745-4.2079 5.3634-4.1591 4.8209-2.4495 9.2921z" clip-path="url(#pc2ba3b1668)" fill="#1f9e89"/>
    <path d="m91.094 128.62 3.9136-0.68525 3.9344-1.1787 2.4182 3.3445 2.3986 2.3434-3.9103 1.1524-3.8889 0.66482-2.4213-2.3231z" clip-path="url(#pc2ba3b1668)" fill="#482878"/>
    <path d="m146.53 99.162 4.1234-4.697 4.17-5.2325 2.3962-6.3899 2.4189-7.3763-4.1854 5.2851-4.1377 4.747-2.4024 7.3188z" clip-path="url(#pc2ba3b1668)" fill="#26828e"/>
    <path d="m156.19 67.906 4.1591-4.8209 4.2079-5.3634 2.505-10.391 2.5399-11.423-4.2379 5.4682-4.1877 4.9195-2.5087 11.315z" clip-path="url(#pc2ba3b1668)" fill="#48c16e"/>
    <path d="m70.493 116.85 3.89 1.2514 3.9001 0.76331 2.5345 5.3444 2.5013 4.3135-3.8665-0.77301-3.8557-1.2538-2.5335-4.3089z" clip-path="url(#pc2ba3b1668)" fill="#443b84"/>
    <path d="m141.81 108.95 4.1161-4.6704 4.1618-5.2053 2.3593-4.4306 2.3763-5.4088-4.17 5.2325-4.1234 4.697-2.3668 5.3758z" clip-path="url(#pc2ba3b1668)" fill="#2e6e8e"/>
    <path d="m111.65 128.65 3.9901-2.6456 4.022-3.1557 2.347 1.4157 2.3401 0.42776-4.0071 3.1246-3.9745 2.619-2.3537-0.40358z" clip-path="url(#pc2ba3b1668)" fill="#463480"/>
    <path d="m124.35 124.7 4.0425-3.6375 4.0807-4.1584 2.3271-0.52704 2.3294-1.5053-4.0737 4.1406-4.0348 3.6227-2.3351 1.5162z" clip-path="url(#pc2ba3b1668)" fill="#404588"/>
    <path d="m161.18 46.295 4.1877-4.9195 4.2379-5.4682 2.578-12.473 2.6195-13.543-4.2757 5.6008-4.2239 5.0437-2.5805 13.407z" clip-path="url(#pc2ba3b1668)" fill="#bade28"/>
    <path d="m78.283 118.87 3.9126 0.27286 3.9275-0.22054 2.5004 5.3676 2.4706 4.332-3.8955 0.1959-3.8798-0.28998-2.5013-4.3135z" clip-path="url(#pc2ba3b1668)" fill="#433e85"/>
    <path d="m98.942 126.75 3.9577-1.6769 3.9836-2.1806 2.3934 3.3839 2.3771 2.3748-3.9608 2.1421-3.9343 1.6446-2.3986-2.3434z" clip-path="url(#pc2ba3b1668)" fill="#463480"/>
    <path d="m33.814 75.219 3.9456 5.2107 3.9354 4.7103 2.7944 7.5434 2.739 6.4614-3.8869-4.6542-3.8959-5.1454-2.7862-6.5199z" clip-path="url(#pc2ba3b1668)" fill="#25858e"/>
    <path d="m25.882 63.283 3.9734 6.2215 3.9583 5.7142 2.8454 7.6064 2.7862 6.5199-3.9073-5.6397-3.921-6.1376-2.836-6.5959z" clip-path="url(#pc2ba3b1668)" fill="#1f998a"/>
    <path d="m137.13 114.87 4.1156-4.6673 4.1606-5.2034 2.3337-2.4732 2.3451-3.4528-4.1618 5.2053-4.1161 4.6704-2.3425 3.4442z" clip-path="url(#pc2ba3b1668)" fill="#33628d"/>
    <path d="m41.695 85.14 3.9275 4.2125 3.9221 3.7165 2.7458 7.4997 2.6941 6.4202-3.876-3.6786-3.8802-4.1655-2.739-6.4614z" clip-path="url(#pc2ba3b1668)" fill="#2a768e"/>
    <path d="m17.88 49.3 4.0111 7.2498 3.991 6.7332 2.8991 7.6888 2.836 6.5959-3.9372-6.6398-3.9558-7.1468-2.8885-6.6899z" clip-path="url(#pc2ba3b1668)" fill="#2cb17e"/>
    <path d="m49.545 93.069 3.9191 3.2218 3.9185 2.7278 2.6994 7.4751 2.6514 6.3962-3.8745-2.708-3.874-3.193-2.6941-6.4202z" clip-path="url(#pc2ba3b1668)" fill="#2f6b8e"/>
    <path d="m57.382 99.019 3.9204 2.2339 3.9246 1.7395 2.655 7.4695 2.6106 6.3894-3.8824-1.7379-3.8773-2.2232-2.6514-6.3962z" clip-path="url(#pc2ba3b1668)" fill="#33638d"/>
    <path d="m86.123 118.92 3.9451-0.71751 3.9652-1.2187 2.4676 5.4071 2.4412 4.3648-3.9344 1.1787-3.9136 0.68525-2.4706-4.332z" clip-path="url(#pc2ba3b1668)" fill="#404588"/>
    <path d="m119.67 122.85 4.0569-3.6733 4.0946-4.199 2.3311 1.4595 2.3277 0.46037-4.0807 4.1584-4.0425 3.6375-2.3401-0.42776z" clip-path="url(#pc2ba3b1668)" fill="#3e4c8a"/>
    <path d="m132.48 116.9 4.122-4.6881 4.1663-5.2274 2.3193-0.49833 2.3251-1.4892-4.1606 5.2034-4.1156 4.6673-2.3294 1.5053z" clip-path="url(#pc2ba3b1668)" fill="#355f8d"/>
    <path d="m106.88 122.9 4.0123-2.6903 4.0438-3.2069 2.3697 3.4368 2.3568 2.4179-4.022 3.1557-3.9901 2.6456-2.3771-2.3748z" clip-path="url(#pc2ba3b1668)" fill="#404688"/>
    <path d="m65.227 102.99 3.9314 1.2439 3.9406 0.74652 2.6122 7.4833 2.5714 6.3999-3.9001-0.76331-3.89-1.2514-2.6106-6.3894z" clip-path="url(#pc2ba3b1668)" fill="#34608d"/>
    <path d="m94.033 116.98 3.9879-1.7248 4.0133-2.2365 2.4359 5.4633 2.413 4.4124-3.9836 2.1806-3.9577 1.6769-2.4412-4.3648z" clip-path="url(#pc2ba3b1668)" fill="#3c508b"/>
    <path d="m73.099 104.98 3.9523 0.24674 3.9666-0.2561 2.571 7.5168 2.5338 6.4282-3.9275 0.22054-3.9126-0.27286-2.5714-6.3999z" clip-path="url(#pc2ba3b1668)" fill="#33628d"/>
    <path d="m127.82 114.98 4.1353-4.7337 4.1792-5.2781 2.3163 1.5142 2.3164 0.50193-4.1663 5.2274-4.122 4.6881-2.3277-0.46037z" clip-path="url(#pc2ba3b1668)" fill="#32658e"/>
    <path d="m27.926 56.618 4.0033 5.2863 3.9917 4.7747 2.9193 9.8043 2.8544 8.6565-3.9354-4.7103-3.9456-5.2107-2.9094-8.7241z" clip-path="url(#pc2ba3b1668)" fill="#26ad81"/>
    <path d="m114.94 117 4.0781-3.7311 4.1154-4.2636 2.3469 3.5039 2.3375 2.4731-4.0946 4.199-4.0569 3.6733-2.3568-2.4179z" clip-path="url(#pc2ba3b1668)" fill="#365c8d"/>
    <path d="m19.875 44.497 4.034 6.3198 4.0174 5.8011 2.9783 9.8766 2.9094 8.7241-3.9583-5.7142-3.9734-6.2215-2.9671-8.8132z" clip-path="url(#pc2ba3b1668)" fill="#44bf70"/>
    <path d="m35.921 66.679 3.9826 4.2657 3.9759 3.7586 2.8629 9.7553 2.802 8.6102-3.9221-3.7165-3.9275-4.2125-2.8544-8.6565z" clip-path="url(#pc2ba3b1668)" fill="#1f9e89"/>
    <path d="m11.747 30.283 4.075 7.3713 4.0532 6.843 3.0403 9.9726 2.9671 8.8132-3.991-6.7332-4.0111-7.2498-3.0279-8.9243z" clip-path="url(#pc2ba3b1668)" fill="#7cd250"/>
    <path d="m43.88 74.703 3.9718 3.2529 3.9701 2.7479 2.8087 9.7294 2.7518 8.5849-3.9185-2.7278-3.9191-3.2218-2.802-8.6102z" clip-path="url(#pc2ba3b1668)" fill="#20928c"/>
    <path d="m81.018 104.97 3.9835-0.76266 4.003-1.2736 2.5311 7.5704 2.4975 6.4745-3.9652 1.2187-3.9451 0.71751-2.5338-6.4282z" clip-path="url(#pc2ba3b1668)" fill="#31688e"/>
    <path d="m102.03 113.02 4.0415-2.7545 4.0725-3.2796 2.4052 5.537 2.3858 4.4755-4.0438 3.2069-4.0123 2.6903-2.413-4.4124z" clip-path="url(#pc2ba3b1668)" fill="#34608d"/>
    <path d="m51.822 80.704 3.971 2.2429 3.9743 1.7373 2.7567 9.7268 2.7036 8.5808-3.9246-1.7395-3.9204-2.2339-2.7518-8.5849z" clip-path="url(#pc2ba3b1668)" fill="#228b8d"/>
    <path d="m59.767 84.684 3.9801 1.2305 3.9885 0.72182 2.7064 9.7477 2.6572 8.598-3.9406-0.74652-3.9314-1.2439-2.7036-8.5808z" clip-path="url(#pc2ba3b1668)" fill="#23888e"/>
    <path d="m123.13 109 4.1557-4.8053 4.1992-5.3569 2.3249 3.5861 2.3191 2.5413-4.1792 5.2781-4.1353 4.7337-2.3375-2.4731z" clip-path="url(#pc2ba3b1668)" fill="#2c738e"/>
    <path d="m89.005 102.94 4.0252-1.7896 4.0501-2.3115 2.4922 7.645 2.4622 6.5397-4.0133 2.2365-3.9879 1.7248-2.4975-6.4745z" clip-path="url(#pc2ba3b1668)" fill="#2c718e"/>
    <path d="m110.15 106.99 4.1065-3.8124 4.1434-4.3538 2.3752 5.6291 2.3595 4.5549-4.1154 4.2636-4.0781 3.7311-2.3858-4.4755z" clip-path="url(#pc2ba3b1668)" fill="#2c738e"/>
    <path d="m67.736 86.637 3.9995 0.21063 4.0131-0.30377 2.6577 9.7925 2.6122 8.637-3.9666 0.2561-3.9523-0.24674-2.6572-8.598z" clip-path="url(#pc2ba3b1668)" fill="#238a8d"/>
    <path d="m97.08 98.836 4.0779-2.8398 4.1085-3.3754 2.4542 7.7414 2.4279 6.6245-4.0725 3.2796-4.0415 2.7545-2.4622-6.5397z" clip-path="url(#pc2ba3b1668)" fill="#27808e"/>
    <path d="m21.741 33.248 4.0696 5.3729 4.0565 4.8479 3.0649 12.22 2.9893 10.991-3.9917-4.7747-4.0033-5.2863-3.0526-11.068z" clip-path="url(#pc2ba3b1668)" fill="#86d549"/>
    <path d="m13.552 20.913 4.1035 6.4336 4.0852 5.9013 3.1326 12.302 3.0526 11.068-4.0174-5.8011-4.034-6.3198-3.119-11.171z" clip-path="url(#pc2ba3b1668)" fill="#bddf26"/>
    <path d="m29.867 43.469 4.046 4.3256 4.038 3.8052 3 12.165 2.9287 10.939-3.9759-3.7586-3.9826-4.2657-2.9893-10.991z" clip-path="url(#pc2ba3b1668)" fill="#60ca60"/>
    <path d="m5.2799 6.4292 4.148 7.513 4.1244 6.9706 3.2036 12.413 3.119 11.171-4.0532-6.843-4.075-7.3713-3.1887-11.301z" clip-path="url(#pc2ba3b1668)" fill="#fde725"/>
    <path d="m75.748 86.544 4.0293-0.82205 4.0483-1.3449 2.6102 9.8619 2.5686 8.6983-4.003 1.2736-3.9835 0.76266-2.6122-8.637z" clip-path="url(#pc2ba3b1668)" fill="#21908d"/>
    <path d="m37.951 51.599 4.0327 3.2862 4.0299 2.7679 2.9375 12.138 2.8706 10.912-3.9701-2.7479-3.9718-3.2529-2.9287-10.939z" clip-path="url(#pc2ba3b1668)" fill="#48c16e"/>
    <path d="m118.4 98.82 4.1834-4.9046 4.2266-5.4657 2.3458 5.7408 2.3338 4.6515-4.1992 5.3569-4.1557 4.8053-2.3595-4.5549z" clip-path="url(#pc2ba3b1668)" fill="#238a8d"/>
    <path d="m46.014 57.653 4.0296 2.2496 4.0319 1.7306 2.8773 12.139 2.8145 10.912-3.9743-1.7373-3.971-2.2429-2.8706-10.912z" clip-path="url(#pc2ba3b1668)" fill="#3aba76"/>
    <path d="m83.826 84.377 4.07-1.8731 4.0945-2.4073 2.5637 9.9568 2.526 8.7827-4.0501 2.3115-4.0252 1.7896-2.5686-8.6983z" clip-path="url(#pc2ba3b1668)" fill="#1f998a"/>
    <path d="m105.27 92.62 4.1421-3.9192 4.1788-4.4718 2.4167 7.8607 2.3942 6.7299-4.1434 4.3538-4.1065 3.8124-2.4279-6.6245z" clip-path="url(#pc2ba3b1668)" fill="#20928c"/>
    <path d="m54.075 61.634 4.0369 1.2104 4.0444 0.68814 2.819 12.168 2.7603 10.936-3.9885-0.72182-3.9801-1.2305-2.8145-10.912z" clip-path="url(#pc2ba3b1668)" fill="#35b779"/>
    <path d="m62.156 63.532 4.0546 0.16323 4.0675-0.36506 2.7622 12.226 2.7076 10.987-4.0131 0.30377-3.9995-0.21063-2.7603-10.936z" clip-path="url(#pc2ba3b1668)" fill="#38b977"/>
    <path d="m91.99 80.096 4.1219-2.9483 4.1522-3.497 2.518 10.078 2.4841 8.8913-4.1085 3.3754-4.0779 2.8398-2.526-8.7827z" clip-path="url(#pc2ba3b1668)" fill="#22a785"/>
    <path d="m113.59 84.23 4.2186-5.0342 4.2617-5.6072 2.3796 8.0044 2.361 6.8572-4.2266 5.4657-4.1834 4.9046-2.3942-6.7299z" clip-path="url(#pc2ba3b1668)" fill="#23a983"/>
    <path d="m70.278 63.33 4.0831-0.89744 4.1015-1.4346 2.7067 12.313 2.6561 11.065-4.0483 1.3449-4.0293 0.82205-2.7076-10.987z" clip-path="url(#pc2ba3b1668)" fill="#42be71"/>
    <path d="m100.26 73.651 4.1856-4.054 4.2221-4.6204 2.4726 10.228 2.4428 9.0253-4.1788 4.4718-4.1421 3.9192-2.4841-8.8913z" clip-path="url(#pc2ba3b1668)" fill="#38b977"/>
    <path d="m78.463 60.998 4.1227-1.9774 4.1468-2.5266 2.6521 12.431 2.6057 11.171-4.0945 2.4073-4.07 1.8731-2.6561-11.065z" clip-path="url(#pc2ba3b1668)" fill="#56c667"/>
    <path d="m86.732 56.494 4.1739-3.0828 4.204-3.6471 2.5981 12.58 2.5559 11.306-4.1522 3.497-4.1219 2.9483-2.6057-11.171z" clip-path="url(#pc2ba3b1668)" fill="#77d153"/>
    <path d="m108.67 64.977 4.2618-5.1969 4.3049-5.7845 2.4274 10.407 2.4017 9.1863-4.2617 5.6072-4.2186 5.0342-2.4428-9.0253z" clip-path="url(#pc2ba3b1668)" fill="#67cc5c"/>
    <path d="m95.11 49.764 4.2372-4.2203 4.2736-4.8031 2.5444 12.763 2.5064 11.472-4.2221 4.6204-4.1856 4.054-2.5559-11.306z" clip-path="url(#pc2ba3b1668)" fill="#aadc32"/>
    <path d="m103.62 40.741 4.3134-5.3967 4.3566-6.0019 2.4906 12.982 2.457 11.671-4.3049 5.7845-4.2618 5.1969-2.5064-11.472z" clip-path="url(#pc2ba3b1668)" fill="#eae51a"/>
   </g>
  </g>
  <g id="axes_2">
   <g id="patch_6">
    <path d="m203.15 198.72h224.53v-190.08h-224.53z" fill="#fff"/>
   </g>
   <g id="PathCollection_1">
    <defs>
     <path id="m856432ecce" d="m0 3c0.79561 0 1.5587-0.3161 2.1213-0.87868 0.56258-0.56258 0.87868-1.3257 0.87868-2.1213s-0.3161-1.5587-0.87868-2.1213c-0.56258-0.56258-1.3257-0.87868-2.1213-0.87868s-1.5587 0.3161-2.1213 0.87868c-0.56258 0.56258-0.87868 1.3257-0.87868 2.1213s0.3161 1.5587 0.87868 2.1213c0.56258 0.56258 1.3257 0.87868 2.1213 0.87868z" stroke="#000"/>
    </defs>
    <g clip-path="url(#pac51a84431)">
     <use x="315.416132" y="103.68" fill="#00bfff" stroke="#000000" xlink:href="#m856432ecce"/>
    </g>
   </g>
   <g id="matplotlib.axis_1">
    <g id="xtick_15">
     <g id="line2d_18">
      <defs>
       <path id="m93e4c9811c" d="m0 0v3.5" stroke="#000" stroke-width=".8"/>
      </defs>
      <use x="203.152264" y="198.72" stroke="#000000" stroke-width=".8" xlink:href="#m93e4c9811c"/>
     </g>
     <g id="text_1">
      <!-- -4 -->
      <defs>
       <path id="SimHei-45" d="m46.875 32.812h-44.531v6.25h44.531z"/>
       <path id="SimHei-52" d="m46.484 18.75h-8.2031v-17.188h-8.9844v17.188h-26.172v7.4219l26.172 42.969h8.9844v-42.969h8.2031zm-17.188 7.4219v28.906l-17.578-28.906z"/>
      </defs>
      <g transform="translate(196.15 215.29) scale(.14 -.14)">
       <use xlink:href="#SimHei-45"/>
       <use x="50" xlink:href="#SimHei-52"/>
      </g>
     </g>
    </g>
    <g id="xtick_16">
     <g id="line2d_19">
      <use x="259.284198" y="198.72" stroke="#000000" stroke-width=".8" xlink:href="#m93e4c9811c"/>
     </g>
     <g id="text_2">
      <!-- -2 -->
      <defs>
       <path id="SimHei-50" d="m44.531 1.5625h-39.844v6.25q2.3438 6.25 6.4375 11.516 4.1094 5.2812 11.922 11.922 5.8594 5.0781 8.3906 9.375 2.5469 4.2969 2.5469 9.375t-2.1562 8.3906q-2.1406 3.3281-6.8281 3.3281-3.9062 0-6.8438-3.5156-2.9219-3.5156-2.9219-12.5h-8.9844q0.39062 11.328 5.2656 17.375 4.8906 6.0625 13.875 6.0625 8.5938 0 13.281-5.2812 4.6875-5.2656 4.6875-14.25 0-7.4219-4.2969-12.891t-10.547-10.938q-7.0312-6.25-9.7656-9.375t-5.0781-7.4219h30.859z"/>
      </defs>
      <g transform="translate(252.28 215.29) scale(.14 -.14)">
       <use xlink:href="#SimHei-45"/>
       <use x="50" xlink:href="#SimHei-50"/>
      </g>
     </g>
    </g>
    <g id="xtick_17">
     <g id="line2d_20">
      <use x="315.416132" y="198.72" stroke="#000000" stroke-width=".8" xlink:href="#m93e4c9811c"/>
     </g>
     <g id="text_3">
      <!-- 0 -->
      <defs>
       <path id="SimHei-48" d="m46.484 35.156q0-14.062-5.0781-24.219t-16.406-10.156-16.609 10.156q-5.2656 10.156-5.2656 24.219t5.2656 24.016q5.2812 9.9688 16.609 9.9688t16.406-9.9688q5.0781-9.9531 5.0781-24.016zm-9.375 0q0 12.5-2.9375 19.531-2.9219 7.0312-9.1719 7.0312t-9.375-7.0312-3.125-19.531 3.125-19.734q3.125-7.2188 9.375-7.2188t9.1719 7.2188q2.9375 7.2344 2.9375 19.734z"/>
      </defs>
      <g transform="translate(311.92 215.29) scale(.14 -.14)">
       <use xlink:href="#SimHei-48"/>
      </g>
     </g>
    </g>
    <g id="xtick_18">
     <g id="line2d_21">
      <use x="371.548066" y="198.72" stroke="#000000" stroke-width=".8" xlink:href="#m93e4c9811c"/>
     </g>
     <g id="text_4">
      <!-- 2 -->
      <g transform="translate(368.05 215.29) scale(.14 -.14)">
       <use xlink:href="#SimHei-50"/>
      </g>
     </g>
    </g>
    <g id="xtick_19">
     <g id="line2d_22">
      <use x="427.68" y="198.72" stroke="#000000" stroke-width=".8" xlink:href="#m93e4c9811c"/>
     </g>
     <g id="text_5">
      <!-- 4 -->
      <g transform="translate(424.18 215.29) scale(.14 -.14)">
       <use xlink:href="#SimHei-52"/>
      </g>
     </g>
    </g>
   </g>
   <g id="matplotlib.axis_2">
    <g id="ytick_1">
     <g id="line2d_23">
      <defs>
       <path id="m285dc10c8f" d="m0 0h-3.5" stroke="#000" stroke-width=".8"/>
      </defs>
      <use x="203.152264" y="198.72" stroke="#000000" stroke-width=".8" xlink:href="#m285dc10c8f"/>
     </g>
     <g id="text_6">
      <!-- -4 -->
      <g transform="translate(182.15 203.51) scale(.14 -.14)">
       <use xlink:href="#SimHei-45"/>
       <use x="50" xlink:href="#SimHei-52"/>
      </g>
     </g>
    </g>
    <g id="ytick_2">
     <g id="line2d_24">
      <use x="203.152264" y="151.2" stroke="#000000" stroke-width=".8" xlink:href="#m285dc10c8f"/>
     </g>
     <g id="text_7">
      <!-- -2 -->
      <g transform="translate(182.15 155.99) scale(.14 -.14)">
       <use xlink:href="#SimHei-45"/>
       <use x="50" xlink:href="#SimHei-50"/>
      </g>
     </g>
    </g>
    <g id="ytick_3">
     <g id="line2d_25">
      <use x="203.152264" y="103.68" stroke="#000000" stroke-width=".8" xlink:href="#m285dc10c8f"/>
     </g>
     <g id="text_8">
      <!-- 0 -->
      <g transform="translate(189.15 108.47) scale(.14 -.14)">
       <use xlink:href="#SimHei-48"/>
      </g>
     </g>
    </g>
    <g id="ytick_4">
     <g id="line2d_26">
      <use x="203.152264" y="56.16" stroke="#000000" stroke-width=".8" xlink:href="#m285dc10c8f"/>
     </g>
     <g id="text_9">
      <!-- 2 -->
      <g transform="translate(189.15 60.945) scale(.14 -.14)">
       <use xlink:href="#SimHei-50"/>
      </g>
     </g>
    </g>
    <g id="ytick_5">
     <g id="line2d_27">
      <use x="203.152264" y="8.64" stroke="#000000" stroke-width=".8" xlink:href="#m285dc10c8f"/>
     </g>
     <g id="text_10">
      <!-- 4 -->
      <g transform="translate(189.15 13.425) scale(.14 -.14)">
       <use xlink:href="#SimHei-52"/>
      </g>
     </g>
    </g>
   </g>
   <g id="LineCollection_2">
    <path d="m295.77 149.66-4.7877-0.84029-3.6321-0.74674-8.4198-2.3421-8.4198-2.953-2.566-1.0862-5.8538-2.9905-6.9138-4.1375-1.506-1.1363-6.9269-5.9917-1.4929-1.7471-4.0775-5.3809-3.495-7.128-0.84728-3.8016-0.66597-3.3264 0.28542-7.128 0.38056-1.3577 1.8005-5.7703 4.1305-7.128 2.4889-2.9387 4.0009-4.1893 4.4189-3.5165 5.2025-3.6115 3.2173-1.8012 8.4198-4.0239 3.2905-1.303 5.1293-1.7017 8.4198-2.2155 8.4198-1.6375 8.4198-1.0596 8.4198-0.48162 8.4198 0.096324 8.4198 0.67427 8.4198 1.2522 8.4198 1.8302 8.4198 2.4081 2.3539 0.83481 6.0659 2.5676 8.4198 4.2538 0.52216 0.30658 7.8976 5.7499 1.661 1.3781 6.5296 7.128 0.22911 0.36554 3.7761 6.7625 2.1432 7.128 0.30617 7.128-1.5309 7.128-3.3679 7.128-1.3268 1.8169-4.3531 5.3111-4.0667 3.6673-4.3731 3.4607-4.0467 2.5399-8.4198 4.5472-0.090536 0.040966-8.3293 3.1227-8.4198 2.5457-6.3518 1.4595-2.068 0.40566-8.4198 1.13-8.4198 0.60849-8.4198 0.086927-8.4198-0.43463-8.4198-0.9562" clip-path="url(#pac51a84431)" fill="none" stroke="#46327e" stroke-dasharray="2.96,1.28" stroke-width=".8"/>
   </g>
   <g id="LineCollection_3">
    <path d="m304.19 170.53-4.0823-0.32217-4.3375-0.38106-8.4198-1.1432-8.4198-1.5466-8.4198-1.9501-7.5377-2.107-0.88207-0.27804-8.4198-3.109-8.4198-3.564-0.37068-0.17694-8.0491-4.4043-4.4715-2.7237-3.9483-2.8173-5.4837-4.3107-2.9361-2.7857-4.1901-4.3423-4.2297-5.5268-1.1299-1.6012-3.7178-7.128-2.4057-7.128-1.0935-7.128 0.2187-7.128 1.5309-7.128 2.843-7.128 3.7543-6.4402 0.43482-0.68779 5.9294-7.128 2.0555-1.9928 5.7859-5.1352 2.6339-1.9586 7.6587-5.1694 0.76111-0.44205 8.4198-4.3928 4.9563-2.2931 3.4635-1.4062 8.4198-2.9821 8.4198-2.5457 0.77423-0.19396 7.6456-1.7064 8.4198-1.4904 8.4198-1.1016 8.4198-0.7128 8.4198-0.324 8.4198 0.0648 8.4198 0.4536 8.4198 0.8424 8.4198 1.2312 8.4198 1.62 4.7078 1.1232 3.712 0.99404 8.4198 2.6912 8.4198 3.1276 0.74461 0.31518 7.6752 3.7021 6.3276 3.4259 2.0922 1.3164 8.3278 5.8116 0.092019 0.076645 7.7077 7.0514 0.71212 0.80784 5.1134 6.3202 3.3064 5.3773 0.99474 1.7507 2.7711 7.128 1.4921 7.128 0.21316 7.128-1.0658 7.128-2.3448 7.128-2.0605 4.0532-1.6916 3.0748-5.3056 7.128-1.4225 1.5157-5.7389 5.6123-2.6809 2.1723-6.7174 4.9557-1.7024 1.0721-8.4198 4.781-2.5202 1.2749-5.8996 2.6035-8.4198 3.2607-3.7927 1.2638-4.6271 1.3673-8.4198 2.0846-8.4198 1.6811-8.4198 1.2777-6.9085 0.71728-1.5112 0.14095-8.4198 0.42285-8.4198 0.060406-8.4198-0.30203" clip-path="url(#pac51a84431)" fill="none" stroke="#365c8d" stroke-dasharray="2.96,1.28" stroke-width=".8"/>
   </g>
   <g id="LineCollection_4" fill="none" stroke="#277f8e" stroke-dasharray="2.96,1.28" stroke-width=".8">
    <path d="m430.49 148.72-0.10658 0.10183-8.3132 6.7803-0.46136 0.34771-7.9584 5.2323-3.1417 1.8957-5.2781 2.8243-8.4198 4.102-0.45926 0.20174-7.9605 3.1412-8.4198 2.9599-3.3288 1.0269-5.091 1.4256-8.4198 2.0287-8.4198 1.6998-8.4198 1.3708-4.8746 0.60314-3.5452 0.40158-8.4198 0.65256-8.4198 0.35138-8.4198 0.050197-8.4198-0.25099-8.4198-0.55217-6.4387-0.65256-1.9811-0.21932-8.4198-1.2611-8.4198-1.5901-8.4198-1.9191-8.0091-2.1384-0.41072-0.12081-8.4198-2.8391-8.4198-3.2016-2.2833-0.96651-6.1365-2.8915-8.1607-4.2365-0.25907-0.15166-8.4198-5.3839-2.2963-1.5924-6.1235-4.8679" clip-path="url(#pac51a84431)"/>
    <path d="m203.15 56.16 8.4198-6.382 1.0673-0.74595 7.3525-4.5096 4.6633-2.6184 3.7565-1.8792 8.4198-3.8232 3.495-1.4256 4.9248-1.8112 8.4198-2.746 8.4198-2.3955 0.7217-0.17528 7.6981-1.7022 8.4198-1.5426 8.4198-1.2235 8.4198-0.9043 8.4198-0.58513 8.4198-0.26597 8.4198 0.053194 8.4198 0.37236 8.4198 0.69152 8.4198 1.0107 8.4198 1.3298 8.4198 1.649 4.7788 1.1171 3.641 0.93482 8.4198 2.5123 8.4198 2.8629 2.1432 0.81797 6.2766 2.6568 8.4198 3.9528 1.0053 0.5184 7.4144 4.2913 4.4982 2.8367 3.9215 2.818 5.5421 4.31 2.8776 2.6008" clip-path="url(#pac51a84431)"/>
   </g>
   <g id="LineCollection_5" fill="none" stroke="#1fa187" stroke-dasharray="2.96,1.28" stroke-width=".8">
    <path d="m430.49 169.11-1.7408 1.0983-6.679 3.7855-6.3821 3.3425-2.0377 0.96868-8.4198 3.6737-6.2573 2.4857-2.1625 0.78642-8.4198 2.7608-8.4198 2.4597-4.3731 1.1211-4.0467 0.95657-8.4198 1.7126-8.4198 1.4349-8.4198 1.1571-8.4198 0.87943-8.4198 0.60172-8.4198 0.324-8.4198 0.046285-8.4198-0.23143-8.4198-0.50914-8.4198-0.78686-8.4198-1.0646-8.4198-1.3423-8.4198-1.62-6.9138-1.5583-1.506-0.36811-8.4198-2.3593-8.4198-2.6605-4.9472-1.7402-3.4726-1.3342-8.4198-3.564-4.8226-2.2298-3.5972-1.8323-8.4198-4.6513" clip-path="url(#pac51a84431)"/>
    <path d="m203.15 36.547 2.9888-1.7712 5.4309-2.9018 8.4198-4.1483 0.17271-0.077902 8.2471-3.3867 8.4198-3.1384 1.8005-0.60287 6.6193-2.0342 8.4198-2.2946 8.4198-2.0017 3.9292-0.79742 4.4906-0.84213 8.4198-1.3083 8.4198-1.0376 8.4198-0.76694 8.4198-0.49625 8.4198-0.22557 8.4198 0.045114 8.4198 0.3158 8.4198 0.58648 8.4198 0.85716 8.4198 1.1278 8.4198 1.3985 1.7446 0.34587 6.6751 1.4321 8.4198 2.0993 8.4198 2.3923 3.7761 1.2043 4.6436 1.6136 8.4198 3.2448 5.3619 2.2696 3.0579 1.4217 8.4198 4.2651 2.629 1.4412 5.7908 3.5208" clip-path="url(#pac51a84431)"/>
   </g>
   <g id="LineCollection_6" fill="none" stroke="#4ac16d" stroke-dasharray="2.96,1.28" stroke-width=".8">
    <path d="m236.07 198.72-7.6587-2.484-8.4198-3.0086-4.1901-1.6354-4.2297-1.7904-8.4198-3.8652" clip-path="url(#pac51a84431)"/>
    <path d="m430.49 184.58-8.4198 3.9656-6.9973 3.0453-1.4225 0.57086-8.4198 3.1011-8.4198 2.8234-2.0922 0.63257" clip-path="url(#pac51a84431)"/>
    <path d="m203.15 21.407 1.8225-0.88657 6.5973-2.9456 8.4198-3.4664 1.8998-0.71606 6.5199-2.2707 8.4198-2.6617 7.7314-2.1955" clip-path="url(#pac51a84431)"/>
    <path d="m386.21 6.264 2.1765 0.57144 8.4198 2.4813 8.4198 2.7519 3.6863 1.3233 4.7335 1.839 8.4198 3.564 3.7658 1.725 4.654 2.3228" clip-path="url(#pac51a84431)"/>
   </g>
   <g id="LineCollection_7" fill="none" stroke="#a0da39" stroke-dasharray="2.96,1.28" stroke-width=".8">
    <path d="m430.49 197.47-2.8776 1.2497" clip-path="url(#pac51a84431)"/>
    <path d="m203.15 8.7002 5.9048-2.4362" clip-path="url(#pac51a84431)"/>
    <path d="m421.84 6.264 0.23068 0.090228 8.4198 3.564" clip-path="url(#pac51a84431)"/>
   </g>
   <g id="line2d_28">
    <path d="m217.19 186.84 19.646-33.264 15.717-19.958" clip-path="url(#pac51a84431)" fill="none" stroke="#bfbf00" stroke-dasharray="5.55,2.4" stroke-width="1.5"/>
   </g>
   <g id="patch_7">
    <path d="m203.15 198.72v-190.08" fill="none" stroke="#000" stroke-linecap="square" stroke-width=".8"/>
   </g>
   <g id="patch_8">
    <path d="m427.68 198.72v-190.08" fill="none" stroke="#000" stroke-linecap="square" stroke-width=".8"/>
   </g>
   <g id="patch_9">
    <path d="m203.15 198.72h224.53" fill="none" stroke="#000" stroke-linecap="square" stroke-width=".8"/>
   </g>
   <g id="patch_10">
    <path d="m203.15 8.64h224.53" fill="none" stroke="#000" stroke-linecap="square" stroke-width=".8"/>
   </g>
   <g id="text_11">
    <!-- $x_0$ -->
    <defs>
     <path id="STIXGeneral-Italic-120" d="m24.297 35.5 1.2031-5.7031q5.2969 8.1094 8.5469 11.203t6.5469 3.0938q1.8125 0 2.9531-1.0469 1.1562-1.0469 1.1562-2.6562 0-1.5938-0.95312-2.5938t-2.4531-1q-0.89062 0-2.3906 0.84375-1.5 0.85938-2.8125 0.85938-2.8906 0-9.7969-12.094 0-1.3125 0.79688-4.5l3.2031-13.406q1-4.0938 3-4.0938 1.6094 0 4.7031 4 0.29688 0.39062 0.6875 0.9375 0.40625 0.5625 0.70312 1 0.3125 0.45312 0.70312 0.85938l1.5-0.90625q-4.2969-6.7031-6.7969-9.0469t-5.3906-2.3438q-2.4062 0-3.7031 1.5t-2.2031 5.2969l-2.9062 11.891-8.7969-11.891q-3.0938-4.2031-5.0469-5.5t-4.4531-1.2969q-2.2969 0-3.6406 1.0938-1.3594 1.0938-1.3594 3.0938 0 1.5 0.95312 2.5469 0.95312 1.0625 2.4531 1.0625 1.2031 0 3.2031-1.1094 1.5-0.89062 2.5938-0.89062 1.7031 0 5.0938 4.8906l8.2031 11.609-2.7969 12.391q-1 4.4062-1.8594 5.6094-0.84375 1.2031-2.7344 1.2031-1.2031 0-3.9062-0.70312l-1.7969-0.5-0.29688 1.5938 1.0938 0.40625q8 2.8906 11.703 2.8906 1.8906 0 2.9844-1.7969 1.1094-1.7969 2.1094-6.7969z"/>
     <path id="STIXGeneral-Regular-48" d="m47.594 33q0-6.7031-1.2969-12.656-1.2969-5.9375-3.8438-10.938t-7.0469-7.9062-10.406-2.9062q-6.0938 0-10.703 3.0938-4.5938 3.1094-7.0938 8.3125t-3.6562 11.094q-1.1406 5.9062-1.1406 12.5 0 9.3125 2.2969 16.75 2.2969 7.4531 7.6406 12.344 5.3594 4.9062 13.062 4.9062 9.7969 0 15.984-9.5938 6.2031-9.5938 6.2031-25zm-9.5938-0.5q0 15.797-3.3594 24.141-3.3438 8.3594-9.8438 8.3594-6.2031 0-9.5-8.4062-3.2969-8.3906-3.2969-23.688 0-15.406 3.2969-23.562 3.2969-8.1406 9.7031-8.1406 6.2969 0 9.6406 8.1406 3.3594 8.1562 3.3594 23.156z"/>
    </defs>
    <g transform="translate(222.8 191.59) scale(.14 -.14)">
     <use transform="translate(0 .90625)" xlink:href="#STIXGeneral-Italic-120"/>
     <use transform="translate(44.4 -12.322) scale(.7)" xlink:href="#STIXGeneral-Regular-48"/>
    </g>
   </g>
   <g id="text_12">
    <!-- $x_1$ -->
    <defs>
     <path id="STIXGeneral-Regular-49" d="m39.406 0h-27.609v1.5q5.5 0.29688 7.5 2.0469t2 5.9531v44.906q0 4.8906-3 4.8906-1.3906 0-4.5-1.2031l-2.7031-1v1.4062l17.906 9.0938 0.90625-0.29688v-59.703q0-3.2969 2-4.7031 2-1.3906 7.5-1.3906z"/>
    </defs>
    <g transform="translate(245.25 151.2) scale(.14 -.14)">
     <use transform="translate(0 .90625)" xlink:href="#STIXGeneral-Italic-120"/>
     <use transform="translate(44.4 -12.322) scale(.7)" xlink:href="#STIXGeneral-Regular-49"/>
    </g>
   </g>
   <g id="text_13">
    <!-- $x_2$ -->
    <defs>
     <path id="STIXGeneral-Regular-50" d="m47.406 13.703-5.4062-13.703h-39.094v1.2031l17.797 18.891q7 7.3125 10 13.406t3 12.594q0 6.7031-3.7031 10.406t-10.203 3.7031q-5.3906 0-8.5469-2.8125-3.1562-2.7969-6.1562-10.188l-2.0938 0.5q1.7031 9.2969 6.8438 14.594 5.1562 5.2969 13.953 5.2969 8.2969 0 13.391-5 5.1094-5 5.1094-12.594 0-11.297-12.797-24.797l-16.5-17.609h23.406q3.2969 0 5.2344 1.2969 1.9531 1.3125 4.3594 5.4062z"/>
    </defs>
    <g transform="translate(256.48 129.82) scale(.14 -.14)">
     <use transform="translate(0 .90625)" xlink:href="#STIXGeneral-Italic-120"/>
     <use transform="translate(44.4 -12.322) scale(.7)" xlink:href="#STIXGeneral-Regular-50"/>
    </g>
   </g>
   <g id="PathCollection_2">
    <defs>
     <path id="mcf0be9afcb" d="m0 2c0.53041 0 1.0392-0.21073 1.4142-0.58579 0.37505-0.37505 0.58579-0.88381 0.58579-1.4142s-0.21073-1.0392-0.58579-1.4142c-0.37505-0.37505-0.88381-0.58579-1.4142-0.58579s-1.0392 0.21073-1.4142 0.58579c-0.37505 0.37505-0.58579 0.88381-0.58579 1.4142s0.21073 1.0392 0.58579 1.4142c0.37505 0.37505 0.88381 0.58579 1.4142 0.58579z" stroke="#f00"/>
    </defs>
    <g clip-path="url(#pac51a84431)" fill="#ff0000" stroke="#ff0000">
     <use x="217.185247" y="186.84" xlink:href="#mcf0be9afcb"/>
     <use x="236.831424" y="153.576" xlink:href="#mcf0be9afcb"/>
     <use x="252.548366" y="133.6176" xlink:href="#mcf0be9afcb"/>
    </g>
   </g>
  </g>
 </g>
 <defs>
  <clipPath id="pc2ba3b1668">
   <rect x="-21.6" y="8.64" width="224.53" height="190.08"/>
  </clipPath>
  <clipPath id="pac51a84431">
   <rect x="203.15" y="8.64" width="224.53" height="190.08"/>
  </clipPath>
 </defs>
</svg>
