<svg version="1.1" xmlns="http://www.w3.org/2000/svg" xmlns:xlink="http://www.w3.org/1999/xlink" width="475" height="296"><defs><clipPath id="myIbLGXKIgcw"><path fill="none" stroke="none" d=" M 0 0 L 475 0 L 475 296 L 0 296 L 0 0 Z"/></clipPath></defs><g transform="scale(1,1)" clip-path="url(#myIbLGXKIgcw)"><g><path fill="none" stroke="rgb(0,0,0)" paint-order="fill stroke markers" d=" M 96.5 2.5 L 96.5 296.5" stroke-opacity="1" stroke-miterlimit="10"/><path fill="none" stroke="rgb(0,0,0)" paint-order="fill stroke markers" d=" M 96.5 1.5 L 92.5 5.5" stroke-opacity="1" stroke-miterlimit="10"/><path fill="none" stroke="rgb(0,0,0)" paint-order="fill stroke markers" d=" M 96.5 1.5 L 100.5 5.5" stroke-opacity="1" stroke-miterlimit="10"/><path fill="none" stroke="rgb(0,0,0)" paint-order="fill stroke markers" d=" M 0.5 260.5 L 473.5 260.5" stroke-opacity="1" stroke-miterlimit="10"/><path fill="none" stroke="rgb(0,0,0)" paint-order="fill stroke markers" d=" M 474.5 260.5 L 470.5 256.5" stroke-opacity="1" stroke-miterlimit="10"/><path fill="none" stroke="rgb(0,0,0)" paint-order="fill stroke markers" d=" M 474.5 260.5 L 470.5 264.5" stroke-opacity="1" stroke-miterlimit="10"/><path fill="none" stroke="rgb(0,0,0)" paint-order="fill stroke markers" d=" M 2.5 260.5 L 2.5 263.5" stroke-opacity="1" stroke-miterlimit="10"/><text fill="none" stroke="rgb(255,255,255)" font-family="geogebra-sans-serif, sans-serif" font-size="14px" font-style="normal" font-weight="normal" text-decoration="normal" x="43" y="278" text-anchor="start" dominant-baseline="alphabetic" stroke-opacity="1" stroke-miterlimit="10" stroke-width="4.666666666666667">–2</text><text fill="rgb(0,0,0)" stroke="none" font-family="geogebra-sans-serif, sans-serif" font-size="14px" font-style="normal" font-weight="normal" text-decoration="normal" x="43" y="278" text-anchor="start" dominant-baseline="alphabetic" fill-opacity="1">–2</text><path fill="none" stroke="rgb(0,0,0)" paint-order="fill stroke markers" d=" M 49.5 260.5 L 49.5 263.5" stroke-opacity="1" stroke-miterlimit="10"/><path fill="none" stroke="rgb(0,0,0)" paint-order="fill stroke markers" d=" M 96.5 260.5 L 96.5 263.5" stroke-opacity="1" stroke-miterlimit="10"/><text fill="none" stroke="rgb(255,255,255)" font-family="geogebra-sans-serif, sans-serif" font-size="14px" font-style="normal" font-weight="normal" text-decoration="normal" x="141" y="278" text-anchor="start" dominant-baseline="alphabetic" stroke-opacity="1" stroke-miterlimit="10" stroke-width="4.666666666666667">2</text><text fill="rgb(0,0,0)" stroke="none" font-family="geogebra-sans-serif, sans-serif" font-size="14px" font-style="normal" font-weight="normal" text-decoration="normal" x="141" y="278" text-anchor="start" dominant-baseline="alphabetic" fill-opacity="1">2</text><path fill="none" stroke="rgb(0,0,0)" paint-order="fill stroke markers" d=" M 143.5 260.5 L 143.5 263.5" stroke-opacity="1" stroke-miterlimit="10"/><text fill="none" stroke="rgb(255,255,255)" font-family="geogebra-sans-serif, sans-serif" font-size="14px" font-style="normal" font-weight="normal" text-decoration="normal" x="187" y="278" text-anchor="start" dominant-baseline="alphabetic" stroke-opacity="1" stroke-miterlimit="10" stroke-width="4.666666666666667">4</text><text fill="rgb(0,0,0)" stroke="none" font-family="geogebra-sans-serif, sans-serif" font-size="14px" font-style="normal" font-weight="normal" text-decoration="normal" x="187" y="278" text-anchor="start" dominant-baseline="alphabetic" fill-opacity="1">4</text><path fill="none" stroke="rgb(0,0,0)" paint-order="fill stroke markers" d=" M 190.5 260.5 L 190.5 263.5" stroke-opacity="1" stroke-miterlimit="10"/><text fill="none" stroke="rgb(255,255,255)" font-family="geogebra-sans-serif, sans-serif" font-size="14px" font-style="normal" font-weight="normal" text-decoration="normal" x="234" y="278" text-anchor="start" dominant-baseline="alphabetic" stroke-opacity="1" stroke-miterlimit="10" stroke-width="4.666666666666667">6</text><text fill="rgb(0,0,0)" stroke="none" font-family="geogebra-sans-serif, sans-serif" font-size="14px" font-style="normal" font-weight="normal" text-decoration="normal" x="234" y="278" text-anchor="start" dominant-baseline="alphabetic" fill-opacity="1">6</text><path fill="none" stroke="rgb(0,0,0)" paint-order="fill stroke markers" d=" M 237.5 260.5 L 237.5 263.5" stroke-opacity="1" stroke-miterlimit="10"/><text fill="none" stroke="rgb(255,255,255)" font-family="geogebra-sans-serif, sans-serif" font-size="14px" font-style="normal" font-weight="normal" text-decoration="normal" x="281" y="278" text-anchor="start" dominant-baseline="alphabetic" stroke-opacity="1" stroke-miterlimit="10" stroke-width="4.666666666666667">8</text><text fill="rgb(0,0,0)" stroke="none" font-family="geogebra-sans-serif, sans-serif" font-size="14px" font-style="normal" font-weight="normal" text-decoration="normal" x="281" y="278" text-anchor="start" dominant-baseline="alphabetic" fill-opacity="1">8</text><path fill="none" stroke="rgb(0,0,0)" paint-order="fill stroke markers" d=" M 284.5 260.5 L 284.5 263.5" stroke-opacity="1" stroke-miterlimit="10"/><text fill="none" stroke="rgb(255,255,255)" font-family="geogebra-sans-serif, sans-serif" font-size="14px" font-style="normal" font-weight="normal" text-decoration="normal" x="325" y="278" text-anchor="start" dominant-baseline="alphabetic" stroke-opacity="1" stroke-miterlimit="10" stroke-width="4.666666666666667">10</text><text fill="rgb(0,0,0)" stroke="none" font-family="geogebra-sans-serif, sans-serif" font-size="14px" font-style="normal" font-weight="normal" text-decoration="normal" x="325" y="278" text-anchor="start" dominant-baseline="alphabetic" fill-opacity="1">10</text><path fill="none" stroke="rgb(0,0,0)" paint-order="fill stroke markers" d=" M 331.5 260.5 L 331.5 263.5" stroke-opacity="1" stroke-miterlimit="10"/><text fill="none" stroke="rgb(255,255,255)" font-family="geogebra-sans-serif, sans-serif" font-size="14px" font-style="normal" font-weight="normal" text-decoration="normal" x="372" y="278" text-anchor="start" dominant-baseline="alphabetic" stroke-opacity="1" stroke-miterlimit="10" stroke-width="4.666666666666667">12</text><text fill="rgb(0,0,0)" stroke="none" font-family="geogebra-sans-serif, sans-serif" font-size="14px" font-style="normal" font-weight="normal" text-decoration="normal" x="372" y="278" text-anchor="start" dominant-baseline="alphabetic" fill-opacity="1">12</text><path fill="none" stroke="rgb(0,0,0)" paint-order="fill stroke markers" d=" M 378.5 260.5 L 378.5 263.5" stroke-opacity="1" stroke-miterlimit="10"/><text fill="none" stroke="rgb(255,255,255)" font-family="geogebra-sans-serif, sans-serif" font-size="14px" font-style="normal" font-weight="normal" text-decoration="normal" x="418" y="278" text-anchor="start" dominant-baseline="alphabetic" stroke-opacity="1" stroke-miterlimit="10" stroke-width="4.666666666666667">14</text><text fill="rgb(0,0,0)" stroke="none" font-family="geogebra-sans-serif, sans-serif" font-size="14px" font-style="normal" font-weight="normal" text-decoration="normal" x="418" y="278" text-anchor="start" dominant-baseline="alphabetic" fill-opacity="1">14</text><path fill="none" stroke="rgb(0,0,0)" paint-order="fill stroke markers" d=" M 424.5 260.5 L 424.5 263.5" stroke-opacity="1" stroke-miterlimit="10"/><path fill="none" stroke="rgb(0,0,0)" paint-order="fill stroke markers" d=" M 93.5 182.5 L 96.5 182.5" stroke-opacity="1" stroke-miterlimit="10"/><path fill="none" stroke="rgb(0,0,0)" paint-order="fill stroke markers" d=" M 93.5 104.5 L 96.5 104.5" stroke-opacity="1" stroke-miterlimit="10"/><path fill="none" stroke="rgb(0,0,0)" paint-order="fill stroke markers" d=" M 93.5 25.5 L 96.5 25.5" stroke-opacity="1" stroke-miterlimit="10"/><text fill="none" stroke="rgb(255,255,255)" font-family="geogebra-sans-serif, sans-serif" font-size="14px" font-style="normal" font-weight="normal" text-decoration="normal" x="74" y="188" text-anchor="start" dominant-baseline="alphabetic" stroke-opacity="1" stroke-miterlimit="10" stroke-width="4.666666666666667">50</text><text fill="rgb(0,0,0)" stroke="none" font-family="geogebra-sans-serif, sans-serif" font-size="14px" font-style="normal" font-weight="normal" text-decoration="normal" x="74" y="188" text-anchor="start" dominant-baseline="alphabetic" fill-opacity="1">50</text><text fill="none" stroke="rgb(255,255,255)" font-family="geogebra-sans-serif, sans-serif" font-size="14px" font-style="normal" font-weight="normal" text-decoration="normal" x="66" y="110" text-anchor="start" dominant-baseline="alphabetic" stroke-opacity="1" stroke-miterlimit="10" stroke-width="4.666666666666667">100</text><text fill="rgb(0,0,0)" stroke="none" font-family="geogebra-sans-serif, sans-serif" font-size="14px" font-style="normal" font-weight="normal" text-decoration="normal" x="66" y="110" text-anchor="start" dominant-baseline="alphabetic" fill-opacity="1">100</text><text fill="none" stroke="rgb(255,255,255)" font-family="geogebra-sans-serif, sans-serif" font-size="14px" font-style="normal" font-weight="normal" text-decoration="normal" x="66" y="31" text-anchor="start" dominant-baseline="alphabetic" stroke-opacity="1" stroke-miterlimit="10" stroke-width="4.666666666666667">150</text><text fill="rgb(0,0,0)" stroke="none" font-family="geogebra-sans-serif, sans-serif" font-size="14px" font-style="normal" font-weight="normal" text-decoration="normal" x="66" y="31" text-anchor="start" dominant-baseline="alphabetic" fill-opacity="1">150</text><text fill="none" stroke="rgb(255,255,255)" font-family="geogebra-sans-serif, sans-serif" font-size="14px" font-style="normal" font-weight="normal" text-decoration="normal" x="82" y="278" text-anchor="start" dominant-baseline="alphabetic" stroke-opacity="1" stroke-miterlimit="10" stroke-width="4.666666666666667">0</text><text fill="rgb(0,0,0)" stroke="none" font-family="geogebra-sans-serif, sans-serif" font-size="14px" font-style="normal" font-weight="normal" text-decoration="normal" x="82" y="278" text-anchor="start" dominant-baseline="alphabetic" fill-opacity="1">0</text><path fill="none" stroke="rgb(0,0,0)" paint-order="fill stroke markers" d=" M 0 233.88589845699227 L 3.7109375 235.88505510624444 L 7.421875 237.8059258982494 L 11.1328125 239.64851083300715 L 14.84375 241.41280991051772 L 18.5546875 243.0988231307811 L 22.265625 244.70655049379727 L 25.9765625 246.23599199956624 L 29.6875 247.687147648088 L 33.39843750000001 249.06001743936258 L 37.109375 250.35460137338995 L 40.8203125 251.57089945017012 L 44.53125 252.7089116697031 L 48.2421875 253.76863803198887 L 51.95312499999999 254.75007853702743 L 55.66406249999999 255.65323318481882 L 59.375 256.47810197536296 L 63.0859375 257.22468490866 L 66.796875 257.8929819847097 L 70.5078125 258.4829932035123 L 74.21875 258.99471856506767 L 77.9296875 259.42815806937585 L 81.640625 259.78331171643686 L 85.3515625 260.0601795062506 L 89.0625 260.2587614388172 L 92.7734375 260.3790575141366 L 96.484375 260.42106773220877 L 100.1953125 260.38479209303375 L 103.90624999999999 260.27023059661155 L 107.6171875 260.0773832429421 L 111.328125 259.8062500320255 L 115.0390625 259.4568309638617 L 118.75 259.02912603845067 L 122.46093749999999 258.52313525579245 L 126.171875 257.93885861588706 L 129.8828125 257.2762961187344 L 133.59375 256.5354477643346 L 137.3046875 255.7163135526876 L 141.015625 254.8188934837934 L 144.7265625 253.84318755765202 L 148.4375 252.7891957742634 L 152.1484375 251.65691813362758 L 155.859375 250.4463546357446 L 159.5703125 249.15750528061437 L 163.28125 247.79037006823697 L 166.9921875 246.34494899861238 L 170.703125 244.82124207174058 L 174.4140625 243.21924928762158 L 178.125 241.53897064625536 L 181.8359375 239.78040614764197 L 185.546875 237.94355579178136 L 189.2578125 236.02841957867358 L 192.96875 234.03499750831855 L 196.6796875 231.96328958071638 L 200.390625 229.81329579586696 L 204.1015625 227.58501615377037 L 207.81249999999997 225.2784506544266 L 211.5234375 222.8935992978356 L 215.234375 220.43046208399738 L 218.94531249999997 217.889039012912 L 222.65625 215.26933008457942 L 226.3671875 212.57133529899963 L 230.078125 209.79505465617262 L 233.78906249999997 206.94048815609847 L 237.5 204.00763579877707 L 241.2109375 200.99649758420844 L 244.92187499999997 197.90707351239269 L 248.6328125 194.7393635833297 L 252.34375 191.49336779701952 L 256.0546875 188.1690861534621 L 259.765625 184.76651865265757 L 263.4765625 181.28566529460574 L 267.1875 177.72652607930675 L 270.8984375 174.0891010067606 L 274.609375 170.3733900769672 L 278.3203125 166.5793932899266 L 282.03125 162.70711064563886 L 285.7421875 158.7565421441039 L 289.453125 154.72768778532168 L 293.1640625 150.62054756929234 L 296.875 146.43512149601577 L 300.5859375 142.17140956549193 L 304.296875 137.829411777721 L 308.00781249999994 133.40912813270285 L 311.71875 128.9105586304374 L 315.4296875 124.3337032709249 L 319.14062499999994 119.67856205416516 L 322.8515625 114.94513498015812 L 326.5625 110.13342204890398 L 330.2734375 105.24342326040252 L 333.984375 100.275138614654 L 337.6953125 95.22856811165829 L 341.40625 90.10371175141523 L 345.1171875 84.90056953392511 L 348.828125 79.61914145918777 L 352.5390625 74.25942752720312 L 356.25 68.82142773797142 L 359.96093749999994 63.305142091492485 L 363.671875 57.710570587766256 L 367.3828125 52.03771322679293 L 371.09374999999994 46.286570008572426 L 374.8046875 40.4571409331046 L 378.515625 34.549426000389644 L 382.22656249999994 28.56342521042751 L 385.9375 22.49913856321811 L 389.6484375 16.356566058761615 L 393.35937499999994 10.13570769705791 L 397.0703125 3.836563478106825 L 400.78124999999994 -2.54086659809127 L 404.49218749999994 -8.996582531536546" stroke-opacity="0.6980392156862745" stroke-linecap="round" stroke-linejoin="round" stroke-miterlimit="10" stroke-width="2"/><path fill="none" stroke="rgb(160,160,160)" paint-order="fill stroke markers" d=" M 331.16341516346097 260.42112024072736 L 331.16341516346097 104.05903773218029" stroke-opacity="0.6980392156862745" stroke-linejoin="round" stroke-miterlimit="10" stroke-width="1.5" stroke-dasharray="9.5,8"/><path fill="none" stroke="rgb(160,160,160)" paint-order="fill stroke markers" d=" M 331.16341516346097 104.05903773218029 L 96.62029140064055 104.05903773218029" stroke-opacity="0.6980392156862745" stroke-linejoin="round" stroke-miterlimit="10" stroke-width="1.5" stroke-dasharray="9.5,8"/><path fill="rgb(102,204,255)" stroke="none" paint-order="stroke fill markers" d=" M 336.16341516346097 104.05903773218029 C 336.16341516346097 106.82046148133425 333.9248389126149 109.05903773218029 331.16341516346097 109.05903773218029 C 328.401991414307 109.05903773218029 326.16341516346097 106.82046148133425 326.16341516346097 104.05903773218029 C 326.16341516346097 101.29761398302632 328.401991414307 99.05903773218029 331.16341516346097 99.05903773218029 C 333.9248389126149 99.05903773218029 336.16341516346097 101.29761398302632 336.16341516346097 104.05903773218029 Z" fill-opacity="1"/><path fill="none" stroke="rgb(0,0,0)" paint-order="fill stroke markers" d=" M 336.16341516346097 104.05903773218029 C 336.16341516346097 106.82046148133425 333.9248389126149 109.05903773218029 331.16341516346097 109.05903773218029 C 328.401991414307 109.05903773218029 326.16341516346097 106.82046148133425 326.16341516346097 104.05903773218029 C 326.16341516346097 101.29761398302632 328.401991414307 99.05903773218029 331.16341516346097 99.05903773218029 C 333.9248389126149 99.05903773218029 336.16341516346097 101.29761398302632 336.16341516346097 104.05903773218029 Z" stroke-opacity="1" stroke-linecap="round" stroke-linejoin="round" stroke-miterlimit="10"/><g transform="scale(21,21)"><g transform="translate(16.761904761904763,5.178571428571429)"><path fill="rgb(102,204,255)" stroke="none" paint-order="stroke fill markers" d=" M 0.331 0.24 L 0.331 0.24 Q 0.331 0.25 0.321 0.25 Q 0.309 0.25 0.268 0.209 Q 0.20600000000000002 0.147 0.165 0.062 Q 0.099 -0.074 0.099 -0.25 Q 0.099 -0.419 0.162 -0.555 Q 0.214 -0.666 0.294 -0.733 Q 0.315 -0.75 0.321 -0.75 Q 0.331 -0.75 0.331 -0.74 Q 0.331 -0.735 0.318 -0.723 Q 0.157 -0.559 0.157 -0.25 Q 0.157 0.058 0.314 0.218 Q 0.331 0.23500000000000001 0.331 0.24 Z"/></g><g transform="translate(17.150794761904763,5.178571428571429)"><path fill="rgb(102,204,255)" stroke="none" paint-order="stroke fill markers" d=" M 0.334 -0.302 L 0.3 -0.165 Q 0.28300000000000003 -0.097 0.28300000000000003 -0.077 Q 0.28300000000000003 -0.025 0.32 -0.014 Q 0.328 -0.011 0.338 -0.011 Q 0.388 -0.011 0.429 -0.061 Q 0.456 -0.093 0.47100000000000003 -0.14200000000000002 Q 0.47400000000000003 -0.153 0.484 -0.153 Q 0.496 -0.153 0.496 -0.14300000000000002 Q 0.496 -0.11800000000000001 0.465 -0.07100000000000001 Q 0.41100000000000003 0.011 0.336 0.011 Q 0.268 0.011 0.23700000000000002 -0.046 Q 0.231 -0.055 0.228 -0.065 Q 0.20400000000000001 -0.017 0.162 0.002 Q 0.14300000000000002 0.011 0.123 0.011 Q 0.063 0.011 0.039 -0.024 Q 0.029 -0.037 0.029 -0.055 Q 0.029 -0.092 0.061 -0.107 Q 0.07200000000000001 -0.113 0.084 -0.113 Q 0.114 -0.113 0.12 -0.088 Q 0.121 -0.083 0.121 -0.078 Q 0.121 -0.044 0.08700000000000001 -0.028 Q 0.081 -0.025 0.074 -0.024 Q 0.095 -0.011 0.124 -0.011 Q 0.177 -0.011 0.20800000000000002 -0.082 Q 0.214 -0.097 0.219 -0.115 Q 0.273 -0.319 0.273 -0.353 Q 0.267 -0.41500000000000004 0.219 -0.42 Q 0.167 -0.42 0.124 -0.367 L 0.124 -0.366 Q 0.124 -0.365 0.123 -0.365 Q 0.108 -0.34500000000000003 0.096 -0.319 Q 0.091 -0.307 0.08700000000000001 -0.295 L 0.085 -0.289 Q 0.083 -0.278 0.07200000000000001 -0.278 Q 0.06 -0.278 0.06 -0.28800000000000003 Q 0.06 -0.313 0.092 -0.36 Q 0.146 -0.442 0.221 -0.442 Q 0.298 -0.442 0.329 -0.366 Q 0.361 -0.428 0.41400000000000003 -0.44 Q 0.424 -0.442 0.434 -0.442 Q 0.493 -0.442 0.517 -0.40900000000000003 Q 0.527 -0.395 0.527 -0.376 Q 0.527 -0.335 0.49 -0.321 Q 0.481 -0.318 0.47300000000000003 -0.318 Q 0.442 -0.318 0.436 -0.34500000000000003 Q 0.435 -0.34900000000000003 0.435 -0.353 Q 0.435 -0.383 0.464 -0.4 Q 0.47300000000000003 -0.405 0.483 -0.40700000000000003 Q 0.462 -0.42 0.433 -0.42 Q 0.365 -0.42 0.337 -0.314 Q 0.335 -0.308 0.334 -0.302 Z"/></g><g transform="translate(17.722322761904763,5.328571428571429) scale(0.7,0.7)"><path fill="rgb(102,204,255)" stroke="none" paint-order="stroke fill markers" d=" M 0.46 -0.32 Q 0.46 -0.17400000000000002 0.423 -0.094 Q 0.364 0.018000000000000002 0.249 0.022 Q 0.158 0.022 0.10300000000000001 -0.05 Q 0.092 -0.063 0.084 -0.079 Q 0.039 -0.162 0.039 -0.32 Q 0.039 -0.467 0.076 -0.547 Q 0.126 -0.659 0.23800000000000002 -0.666 L 0.25 -0.666 Q 0.339 -0.666 0.395 -0.595 L 0.395 -0.594 Q 0.40900000000000003 -0.5760000000000001 0.42 -0.554 Q 0.46 -0.46900000000000003 0.46 -0.32 M 0.249 0 L 0.249 0 Q 0.312 0 0.34600000000000003 -0.061 Q 0.36 -0.088 0.366 -0.125 Q 0.377 -0.189 0.377 -0.332 Q 0.377 -0.47100000000000003 0.367 -0.527 Q 0.34900000000000003 -0.622 0.275 -0.641 Q 0.262 -0.644 0.249 -0.644 Q 0.179 -0.644 0.147 -0.5740000000000001 Q 0.136 -0.55 0.13 -0.516 Q 0.122 -0.462 0.122 -0.332 Q 0.122 -0.181 0.133 -0.121 Q 0.151 -0.025 0.221 -0.004 Q 0.23500000000000001 0 0.249 0 Z"/></g><g transform="translate(18.072324161904763,5.178571428571429)"><path fill="rgb(102,204,255)" stroke="none" paint-order="stroke fill markers" d=" M 0.203 -0.001 L 0.203 -0.001 Q 0.203 0.096 0.14 0.169 Q 0.123 0.189 0.112 0.193 Q 0.10200000000000001 0.193 0.10200000000000001 0.182 Q 0.10200000000000001 0.177 0.113 0.166 Q 0.17300000000000001 0.106 0.18 0.019 Q 0.181 0.009000000000000001 0.181 -0.001 Q 0.181 -0.016 0.179 -0.016 Q 0.178 -0.016 0.17400000000000002 -0.013000000000000001 Q 0.16 0 0.139 0 Q 0.10200000000000001 0 0.09 -0.034 Q 0.08600000000000001 -0.043000000000000003 0.08600000000000001 -0.053 Q 0.08600000000000001 -0.089 0.117 -0.10200000000000001 Q 0.127 -0.106 0.139 -0.106 Q 0.183 -0.106 0.198 -0.048 Q 0.203 -0.027 0.203 -0.001 Z"/></g><g transform="translate(18.51677032857143,5.178571428571429)"><path fill="rgb(102,204,255)" stroke="none" paint-order="stroke fill markers" d=" M 0.367 -0.4 L 0.367 -0.4 L 0.307 -0.083 Q 0.298 -0.021 0.271 0.059000000000000004 Q 0.261 0.088 0.251 0.108 Q 0.216 0.182 0.164 0.2 Q 0.151 0.20500000000000002 0.138 0.20500000000000002 Q 0.088 0.20500000000000002 0.064 0.171 Q 0.053 0.156 0.053 0.136 Q 0.053 0.096 0.08700000000000001 0.081 Q 0.097 0.076 0.108 0.076 Q 0.137 0.076 0.14400000000000002 0.101 Q 0.145 0.106 0.145 0.111 Q 0.145 0.145 0.115 0.159 Q 0.10400000000000001 0.164 0.09 0.165 Q 0.109 0.183 0.138 0.183 Q 0.182 0.183 0.20700000000000002 0.085 Q 0.212 0.062 0.219 0.025 L 0.225 -0.005 L 0.3 -0.4 L 0.234 -0.4 Q 0.209 -0.4 0.20700000000000002 -0.40800000000000003 L 0.20600000000000002 -0.40800000000000003 L 0.20600000000000002 -0.41200000000000003 Q 0.20600000000000002 -0.429 0.223 -0.431 L 0.223 -0.431 L 0.23600000000000002 -0.431 L 0.305 -0.431 Q 0.329 -0.556 0.338 -0.588 Q 0.368 -0.6880000000000001 0.444 -0.7030000000000001 Q 0.455 -0.705 0.465 -0.705 Q 0.517 -0.705 0.541 -0.671 L 0.541 -0.671 Q 0.552 -0.656 0.552 -0.636 Q 0.552 -0.596 0.518 -0.581 Q 0.508 -0.5760000000000001 0.497 -0.5760000000000001 Q 0.468 -0.5760000000000001 0.461 -0.601 Q 0.46 -0.606 0.46 -0.611 Q 0.46 -0.642 0.488 -0.657 Q 0.499 -0.664 0.514 -0.665 Q 0.495 -0.683 0.465 -0.683 Q 0.434 -0.683 0.418 -0.649 Q 0.41100000000000003 -0.635 0.394 -0.545 L 0.373 -0.431 L 0.456 -0.431 Q 0.481 -0.431 0.483 -0.42 Q 0.483 -0.402 0.467 -0.4 L 0.466 -0.4 L 0.453 -0.4 L 0.367 -0.4 Z"/></g><g transform="translate(19.113996328571428,5.178571428571429)"><path fill="rgb(102,204,255)" stroke="none" paint-order="stroke fill markers" d=" M 0.331 0.24 L 0.331 0.24 Q 0.331 0.25 0.321 0.25 Q 0.309 0.25 0.268 0.209 Q 0.20600000000000002 0.147 0.165 0.062 Q 0.099 -0.074 0.099 -0.25 Q 0.099 -0.419 0.162 -0.555 Q 0.214 -0.666 0.294 -0.733 Q 0.315 -0.75 0.321 -0.75 Q 0.331 -0.75 0.331 -0.74 Q 0.331 -0.735 0.318 -0.723 Q 0.157 -0.559 0.157 -0.25 Q 0.157 0.058 0.314 0.218 Q 0.331 0.23500000000000001 0.331 0.24 Z"/></g><g transform="translate(19.502886328571428,5.178571428571429)"><path fill="rgb(102,204,255)" stroke="none" paint-order="stroke fill markers" d=" M 0.334 -0.302 L 0.3 -0.165 Q 0.28300000000000003 -0.097 0.28300000000000003 -0.077 Q 0.28300000000000003 -0.025 0.32 -0.014 Q 0.328 -0.011 0.338 -0.011 Q 0.388 -0.011 0.429 -0.061 Q 0.456 -0.093 0.47100000000000003 -0.14200000000000002 Q 0.47400000000000003 -0.153 0.484 -0.153 Q 0.496 -0.153 0.496 -0.14300000000000002 Q 0.496 -0.11800000000000001 0.465 -0.07100000000000001 Q 0.41100000000000003 0.011 0.336 0.011 Q 0.268 0.011 0.23700000000000002 -0.046 Q 0.231 -0.055 0.228 -0.065 Q 0.20400000000000001 -0.017 0.162 0.002 Q 0.14300000000000002 0.011 0.123 0.011 Q 0.063 0.011 0.039 -0.024 Q 0.029 -0.037 0.029 -0.055 Q 0.029 -0.092 0.061 -0.107 Q 0.07200000000000001 -0.113 0.084 -0.113 Q 0.114 -0.113 0.12 -0.088 Q 0.121 -0.083 0.121 -0.078 Q 0.121 -0.044 0.08700000000000001 -0.028 Q 0.081 -0.025 0.074 -0.024 Q 0.095 -0.011 0.124 -0.011 Q 0.177 -0.011 0.20800000000000002 -0.082 Q 0.214 -0.097 0.219 -0.115 Q 0.273 -0.319 0.273 -0.353 Q 0.267 -0.41500000000000004 0.219 -0.42 Q 0.167 -0.42 0.124 -0.367 L 0.124 -0.366 Q 0.124 -0.365 0.123 -0.365 Q 0.108 -0.34500000000000003 0.096 -0.319 Q 0.091 -0.307 0.08700000000000001 -0.295 L 0.085 -0.289 Q 0.083 -0.278 0.07200000000000001 -0.278 Q 0.06 -0.278 0.06 -0.28800000000000003 Q 0.06 -0.313 0.092 -0.36 Q 0.146 -0.442 0.221 -0.442 Q 0.298 -0.442 0.329 -0.366 Q 0.361 -0.428 0.41400000000000003 -0.44 Q 0.424 -0.442 0.434 -0.442 Q 0.493 -0.442 0.517 -0.40900000000000003 Q 0.527 -0.395 0.527 -0.376 Q 0.527 -0.335 0.49 -0.321 Q 0.481 -0.318 0.47300000000000003 -0.318 Q 0.442 -0.318 0.436 -0.34500000000000003 Q 0.435 -0.34900000000000003 0.435 -0.353 Q 0.435 -0.383 0.464 -0.4 Q 0.47300000000000003 -0.405 0.483 -0.40700000000000003 Q 0.462 -0.42 0.433 -0.42 Q 0.365 -0.42 0.337 -0.314 Q 0.335 -0.308 0.334 -0.302 Z"/></g><g transform="translate(20.07441432857143,5.328571428571429) scale(0.7,0.7)"><path fill="rgb(102,204,255)" stroke="none" paint-order="stroke fill markers" d=" M 0.46 -0.32 Q 0.46 -0.17400000000000002 0.423 -0.094 Q 0.364 0.018000000000000002 0.249 0.022 Q 0.158 0.022 0.10300000000000001 -0.05 Q 0.092 -0.063 0.084 -0.079 Q 0.039 -0.162 0.039 -0.32 Q 0.039 -0.467 0.076 -0.547 Q 0.126 -0.659 0.23800000000000002 -0.666 L 0.25 -0.666 Q 0.339 -0.666 0.395 -0.595 L 0.395 -0.594 Q 0.40900000000000003 -0.5760000000000001 0.42 -0.554 Q 0.46 -0.46900000000000003 0.46 -0.32 M 0.249 0 L 0.249 0 Q 0.312 0 0.34600000000000003 -0.061 Q 0.36 -0.088 0.366 -0.125 Q 0.377 -0.189 0.377 -0.332 Q 0.377 -0.47100000000000003 0.367 -0.527 Q 0.34900000000000003 -0.622 0.275 -0.641 Q 0.262 -0.644 0.249 -0.644 Q 0.179 -0.644 0.147 -0.5740000000000001 Q 0.136 -0.55 0.13 -0.516 Q 0.122 -0.462 0.122 -0.332 Q 0.122 -0.181 0.133 -0.121 Q 0.151 -0.025 0.221 -0.004 Q 0.23500000000000001 0 0.249 0 Z"/></g><g transform="translate(20.42441572857143,5.178571428571429)"><path fill="rgb(102,204,255)" stroke="none" paint-order="stroke fill markers" d=" M 0.289 -0.25 L 0.289 -0.25 Q 0.289 -0.081 0.226 0.055 Q 0.17400000000000002 0.166 0.094 0.233 Q 0.073 0.25 0.067 0.25 Q 0.057 0.25 0.057 0.24 Q 0.057 0.23500000000000001 0.07 0.223 Q 0.231 0.059000000000000004 0.231 -0.25 Q 0.231 -0.555 0.081 -0.712 L 0.076 -0.717 Q 0.057 -0.735 0.057 -0.74 Q 0.057 -0.75 0.067 -0.75 Q 0.079 -0.75 0.12 -0.709 Q 0.182 -0.647 0.223 -0.562 Q 0.289 -0.426 0.289 -0.25 Z"/></g><g transform="translate(20.81330572857143,5.178571428571429)"><path fill="rgb(102,204,255)" stroke="none" paint-order="stroke fill markers" d=" M 0.289 -0.25 L 0.289 -0.25 Q 0.289 -0.081 0.226 0.055 Q 0.17400000000000002 0.166 0.094 0.233 Q 0.073 0.25 0.067 0.25 Q 0.057 0.25 0.057 0.24 Q 0.057 0.23500000000000001 0.07 0.223 Q 0.231 0.059000000000000004 0.231 -0.25 Q 0.231 -0.555 0.081 -0.712 L 0.076 -0.717 Q 0.057 -0.735 0.057 -0.74 Q 0.057 -0.75 0.067 -0.75 Q 0.079 -0.75 0.12 -0.709 Q 0.182 -0.647 0.223 -0.562 Q 0.289 -0.426 0.289 -0.25 Z"/></g></g><path fill="rgb(102,204,255)" stroke="none" paint-order="stroke fill markers" d=" M 334.16341516346097 260.42112024072736 C 334.16341516346097 262.07797449021973 332.82026941295334 263.42112024072736 331.16341516346097 263.42112024072736 C 329.5065609139686 263.42112024072736 328.16341516346097 262.07797449021973 328.16341516346097 260.42112024072736 C 328.16341516346097 258.764265991235 329.5065609139686 257.42112024072736 331.16341516346097 257.42112024072736 C 332.82026941295334 257.42112024072736 334.16341516346097 258.764265991235 334.16341516346097 260.42112024072736 Z" fill-opacity="1"/><path fill="none" stroke="rgb(0,0,0)" paint-order="fill stroke markers" d=" M 334.16341516346097 260.42112024072736 C 334.16341516346097 262.07797449021973 332.82026941295334 263.42112024072736 331.16341516346097 263.42112024072736 C 329.5065609139686 263.42112024072736 328.16341516346097 262.07797449021973 328.16341516346097 260.42112024072736 C 328.16341516346097 258.764265991235 329.5065609139686 257.42112024072736 331.16341516346097 257.42112024072736 C 332.82026941295334 257.42112024072736 334.16341516346097 258.764265991235 334.16341516346097 260.42112024072736 Z" stroke-opacity="1" stroke-linecap="round" stroke-linejoin="round" stroke-miterlimit="10"/><path fill="rgb(102,204,255)" stroke="none" paint-order="stroke fill markers" d=" M 99.62029140064055 104.05903773218029 C 99.62029140064055 105.71589198167267 98.27714565013294 107.05903773218029 96.62029140064055 107.05903773218029 C 94.96343715114817 107.05903773218029 93.62029140064055 105.71589198167267 93.62029140064055 104.05903773218029 C 93.62029140064055 102.4021834826879 94.96343715114817 101.05903773218029 96.62029140064055 101.05903773218029 C 98.27714565013294 101.05903773218029 99.62029140064055 102.4021834826879 99.62029140064055 104.05903773218029 Z" fill-opacity="1"/><path fill="none" stroke="rgb(0,0,0)" paint-order="fill stroke markers" d=" M 99.62029140064055 104.05903773218029 C 99.62029140064055 105.71589198167267 98.27714565013294 107.05903773218029 96.62029140064055 107.05903773218029 C 94.96343715114817 107.05903773218029 93.62029140064055 105.71589198167267 93.62029140064055 104.05903773218029 C 93.62029140064055 102.4021834826879 94.96343715114817 101.05903773218029 96.62029140064055 101.05903773218029 C 98.27714565013294 101.05903773218029 99.62029140064055 102.4021834826879 99.62029140064055 104.05903773218029 Z" stroke-opacity="1" stroke-linecap="round" stroke-linejoin="round" stroke-miterlimit="10"/></g></g></svg>