<svg version="1.1" xmlns="http://www.w3.org/2000/svg" xmlns:xlink="http://www.w3.org/1999/xlink" width="371" height="269"><defs><clipPath id="RRUiOZBbrZBz"><path fill="none" stroke="none" d=" M 0 0 L 371 0 L 371 269 L 0 269 L 0 0 Z"/></clipPath></defs><g transform="scale(1,1)" clip-path="url(#RRUiOZBbrZBz)"><g><path fill="none" stroke="rgb(0,0,0)" paint-order="fill stroke markers" d=" M 82.5 2.5 L 82.5 269.5" stroke-opacity="1" stroke-miterlimit="10"/><path fill="none" stroke="rgb(0,0,0)" paint-order="fill stroke markers" d=" M 82.5 1.5 L 76.5 7.5" stroke-opacity="1" stroke-miterlimit="10"/><path fill="none" stroke="rgb(0,0,0)" paint-order="fill stroke markers" d=" M 82.5 1.5 L 88.5 7.5" stroke-opacity="1" stroke-miterlimit="10"/><path fill="none" stroke="rgb(0,0,0)" paint-order="fill stroke markers" d=" M 0.5 227.5 L 369.5 227.5" stroke-opacity="1" stroke-miterlimit="10"/><path fill="none" stroke="rgb(0,0,0)" paint-order="fill stroke markers" d=" M 370.5 227.5 L 364.5 221.5" stroke-opacity="1" stroke-miterlimit="10"/><path fill="none" stroke="rgb(0,0,0)" paint-order="fill stroke markers" d=" M 370.5 227.5 L 364.5 233.5" stroke-opacity="1" stroke-miterlimit="10"/><path fill="rgb(0,153,204)" stroke="none" paint-order="stroke fill markers" d=" M 185.00000000000207 77.00000000000023 C 185.00000000000207 78.65685424949261 183.65685424949444 80.00000000000023 182.00000000000207 80.00000000000023 C 180.3431457505097 80.00000000000023 179.00000000000207 78.65685424949261 179.00000000000207 77.00000000000023 C 179.00000000000207 75.34314575050784 180.3431457505097 74.00000000000023 182.00000000000207 74.00000000000023 C 183.65685424949444 74.00000000000023 185.00000000000207 75.34314575050784 185.00000000000207 77.00000000000023 Z" fill-opacity="1"/><path fill="none" stroke="rgb(0,0,0)" paint-order="fill stroke markers" d=" M 185.00000000000207 77.00000000000023 C 185.00000000000207 78.65685424949261 183.65685424949444 80.00000000000023 182.00000000000207 80.00000000000023 C 180.3431457505097 80.00000000000023 179.00000000000207 78.65685424949261 179.00000000000207 77.00000000000023 C 179.00000000000207 75.34314575050784 180.3431457505097 74.00000000000023 182.00000000000207 74.00000000000023 C 183.65685424949444 74.00000000000023 185.00000000000207 75.34314575050784 185.00000000000207 77.00000000000023 Z" stroke-opacity="1" stroke-linecap="round" stroke-linejoin="round" stroke-miterlimit="10"/><g transform="scale(27,27)"><g transform="translate(7.296296296296297,3.0699063544181593)"><path fill="rgb(0,153,204)" stroke="none" paint-order="stroke fill markers" d=" M 0.5630000000000001 -0.317 L 0.54 -0.228 Q 0.535 -0.20600000000000002 0.518 -0.138 Q 0.504 -0.082 0.504 -0.065 Q 0.504 -0.028 0.527 -0.028 Q 0.5690000000000001 -0.028 0.595 -0.128 Q 0.602 -0.156 0.603 -0.157 Q 0.608 -0.162 0.623 -0.162 Q 0.647 -0.162 0.647 -0.148 Q 0.647 -0.14 0.636 -0.1075 Q 0.625 -0.075 0.609 -0.049 Q 0.5760000000000001 0.008 0.522 0.008 Q 0.444 0.008 0.40800000000000003 -0.047 Q 0.35000000000000003 0.008 0.281 0.008 Q 0.254 0.008 0.2305 0.0035 Q 0.20700000000000002 -0.001 0.1805 -0.0135 Q 0.154 -0.026000000000000002 0.138 -0.054 Q 0.122 -0.082 0.122 -0.122 Q 0.122 -0.18 0.183 -0.332 Q 0.199 -0.38 0.199 -0.395 Q 0.199 -0.405 0.196 -0.41000000000000003 Q 0.193 -0.41500000000000004 0.19 -0.41550000000000004 Q 0.187 -0.41600000000000004 0.182 -0.41600000000000004 Q 0.17300000000000001 -0.41600000000000004 0.163 -0.41200000000000003 Q 0.153 -0.40800000000000003 0.1375 -0.3975 Q 0.122 -0.387 0.1065 -0.3605 Q 0.091 -0.334 0.079 -0.295 Q 0.075 -0.28200000000000003 0.056 -0.28200000000000003 Q 0.032 -0.28200000000000003 0.032 -0.296 Q 0.032 -0.306 0.042 -0.3295 Q 0.052000000000000005 -0.353 0.07 -0.3815 Q 0.088 -0.41000000000000003 0.11950000000000001 -0.431 Q 0.151 -0.452 0.188 -0.452 Q 0.233 -0.452 0.267 -0.4275 Q 0.301 -0.403 0.301 -0.362 Q 0.301 -0.34600000000000003 0.28800000000000003 -0.312 Q 0.229 -0.16 0.229 -0.101 Q 0.229 -0.028 0.289 -0.028 Q 0.34800000000000003 -0.028 0.397 -0.093 Q 0.399 -0.115 0.41200000000000003 -0.163 Q 0.458 -0.35100000000000003 0.46900000000000003 -0.391 Q 0.47800000000000004 -0.42 0.4975 -0.432 Q 0.517 -0.444 0.535 -0.444 Q 0.557 -0.444 0.5695 -0.4305 Q 0.582 -0.417 0.582 -0.4 Q 0.582 -0.393 0.5630000000000001 -0.317 Z"/></g><g transform="translate(8.255091907407408,3.0699063544181593)"><path fill="rgb(0,153,204)" stroke="none" paint-order="stroke fill markers" d=" M 0.687 -0.327 L 0.09 -0.327 Q 0.058 -0.327 0.056 -0.34700000000000003 Q 0.056 -0.367 0.089 -0.367 L 0.6880000000000001 -0.367 Q 0.72 -0.367 0.721 -0.34700000000000003 Q 0.721 -0.327 0.687 -0.327 M 0.6880000000000001 -0.133 L 0.089 -0.133 Q 0.057 -0.133 0.056 -0.153 Q 0.056 -0.17300000000000001 0.09 -0.17300000000000001 L 0.687 -0.17300000000000001 Q 0.719 -0.17300000000000001 0.721 -0.153 Q 0.721 -0.133 0.6880000000000001 -0.133 Z"/></g><g transform="translate(9.310651518518519,1.9598963544181593)"><path fill="rgb(0,153,204)" stroke="none" paint-order="stroke fill markers" d=" M 0.52490234375 1.7568359375 Q 0.431640625 1.67578125 0.365478515625 1.57275390625 Q 0.29931640625 1.4697265625 0.258544921875 1.3525390625 Q 0.2177734375 1.2353515625 0.198974609375 1.11181640625 Q 0.18017578125 0.98828125 0.18017578125 0.85986328125 Q 0.18017578125 0.73095703125 0.198974609375 0.607177734375 Q 0.2177734375 0.4833984375 0.258544921875 0.3662109375 Q 0.29931640625 0.2490234375 0.365478515625 0.14599609375 Q 0.431640625 0.04296875 0.52490234375 -0.0380859375 Q 0.52490234375 -0.0400390625 0.52978515625 -0.0400390625 L 0.55322265625 -0.0400390625 Q 0.55615234375 -0.0400390625 0.55859375 -0.036865234375 Q 0.56103515625 -0.03369140625 0.56103515625 -0.03076171875 Q 0.56103515625 -0.02685546875 0.55908203125 -0.02490234375 Q 0.4736328125 0.060546875 0.416015625 0.16259765625 Q 0.3583984375 0.2646484375 0.32373046875 0.381103515625 Q 0.2890625 0.49755859375 0.2744140625 0.616943359375 Q 0.259765625 0.736328125 0.259765625 0.86083984375 Q 0.259765625 0.98486328125 0.2744140625 1.104736328125 Q 0.2890625 1.224609375 0.32373046875 1.33984375 Q 0.3583984375 1.455078125 0.416748046875 1.5576171875 Q 0.47509765625 1.66015625 0.55908203125 1.744140625 Q 0.56103515625 1.74609375 0.56103515625 1.75 Q 0.56103515625 1.75244140625 0.558349609375 1.755615234375 Q 0.5556640625 1.7587890625 0.55322265625 1.7587890625 L 0.52978515625 1.7587890625 Q 0.52490234375 1.7587890625 0.52490234375 1.7568359375 Z"/></g><g transform="translate(9.90787551851852,2.4546288544181594)"><path fill="rgb(0,153,204)" stroke="none" paint-order="stroke fill markers" d=" M 0.35000000000000003 -0.056 L 0.35000000000000003 -0.056 Q 0.298 0.011 0.231 0.011 Q 0.15 0.011 0.121 -0.048 Q 0.108 -0.074 0.108 -0.109 Q 0.108 -0.163 0.161 -0.305 Q 0.163 -0.312 0.166 -0.319 Q 0.183 -0.362 0.183 -0.387 Q 0.183 -0.42 0.158 -0.42 Q 0.10200000000000001 -0.42 0.067 -0.325 Q 0.066 -0.325 0.066 -0.324 L 0.066 -0.323 Q 0.061 -0.31 0.057 -0.296 Q 0.046 -0.279 0.041 -0.278 Q 0.029 -0.278 0.029 -0.28800000000000003 Q 0.029 -0.306 0.05 -0.35100000000000003 Q 0.094 -0.442 0.161 -0.442 Q 0.214 -0.442 0.23500000000000001 -0.397 Q 0.243 -0.38 0.243 -0.36 Q 0.243 -0.34 0.226 -0.297 Q 0.17200000000000001 -0.154 0.17200000000000001 -0.093 Q 0.17200000000000001 -0.011 0.234 -0.011 Q 0.297 -0.011 0.34 -0.08 Q 0.34600000000000003 -0.089 0.34800000000000003 -0.095 Q 0.37 -0.194 0.423 -0.396 Q 0.431 -0.431 0.462 -0.431 Q 0.487 -0.426 0.491 -0.404 Q 0.491 -0.406 0.47600000000000003 -0.337 Q 0.462 -0.28600000000000003 0.459 -0.269 L 0.431 -0.161 Q 0.41100000000000003 -0.074 0.41100000000000003 -0.057 Q 0.41100000000000003 -0.011 0.442 -0.011 Q 0.484 -0.011 0.511 -0.111 Q 0.514 -0.121 0.517 -0.135 Q 0.525 -0.152 0.531 -0.153 Q 0.543 -0.153 0.543 -0.14300000000000002 Q 0.543 -0.128 0.525 -0.073 Q 0.519 -0.056 0.513 -0.044 Q 0.486 0.011 0.439 0.011 Q 0.382 0.011 0.358 -0.037 Q 0.353 -0.046 0.35000000000000003 -0.056 Z"/></g><g transform="translate(10.480333518518519,2.6046288544181593) scale(0.7,0.7)"><path fill="rgb(0,153,204)" stroke="none" paint-order="stroke fill markers" d=" M 0.294 -0.64 L 0.294 -0.079 Q 0.294 -0.049 0.306 -0.041 Q 0.323 -0.031 0.387 -0.031 L 0.419 -0.031 L 0.419 0 Q 0.384 -0.003 0.257 -0.003 Q 0.13 -0.003 0.095 0 L 0.095 -0.031 L 0.127 -0.031 Q 0.20400000000000001 -0.031 0.215 -0.049 L 0.216 -0.05 Q 0.22 -0.058 0.22 -0.079 L 0.22 -0.597 Q 0.168 -0.5710000000000001 0.089 -0.5710000000000001 L 0.089 -0.602 Q 0.209 -0.602 0.271 -0.666 Q 0.29 -0.666 0.293 -0.659 L 0.293 -0.659 L 0.293 -0.658 Q 0.294 -0.655 0.294 -0.64 Z"/></g><g transform="translate(9.90787551851852,3.4657388544181593)"><path fill="rgb(0,153,204)" stroke="none" paint-order="stroke fill markers" d=" M 0.35000000000000003 -0.056 L 0.35000000000000003 -0.056 Q 0.298 0.011 0.231 0.011 Q 0.15 0.011 0.121 -0.048 Q 0.108 -0.074 0.108 -0.109 Q 0.108 -0.163 0.161 -0.305 Q 0.163 -0.312 0.166 -0.319 Q 0.183 -0.362 0.183 -0.387 Q 0.183 -0.42 0.158 -0.42 Q 0.10200000000000001 -0.42 0.067 -0.325 Q 0.066 -0.325 0.066 -0.324 L 0.066 -0.323 Q 0.061 -0.31 0.057 -0.296 Q 0.046 -0.279 0.041 -0.278 Q 0.029 -0.278 0.029 -0.28800000000000003 Q 0.029 -0.306 0.05 -0.35100000000000003 Q 0.094 -0.442 0.161 -0.442 Q 0.214 -0.442 0.23500000000000001 -0.397 Q 0.243 -0.38 0.243 -0.36 Q 0.243 -0.34 0.226 -0.297 Q 0.17200000000000001 -0.154 0.17200000000000001 -0.093 Q 0.17200000000000001 -0.011 0.234 -0.011 Q 0.297 -0.011 0.34 -0.08 Q 0.34600000000000003 -0.089 0.34800000000000003 -0.095 Q 0.37 -0.194 0.423 -0.396 Q 0.431 -0.431 0.462 -0.431 Q 0.487 -0.426 0.491 -0.404 Q 0.491 -0.406 0.47600000000000003 -0.337 Q 0.462 -0.28600000000000003 0.459 -0.269 L 0.431 -0.161 Q 0.41100000000000003 -0.074 0.41100000000000003 -0.057 Q 0.41100000000000003 -0.011 0.442 -0.011 Q 0.484 -0.011 0.511 -0.111 Q 0.514 -0.121 0.517 -0.135 Q 0.525 -0.152 0.531 -0.153 Q 0.543 -0.153 0.543 -0.14300000000000002 Q 0.543 -0.128 0.525 -0.073 Q 0.519 -0.056 0.513 -0.044 Q 0.486 0.011 0.439 0.011 Q 0.382 0.011 0.358 -0.037 Q 0.353 -0.046 0.35000000000000003 -0.056 Z"/></g><g transform="translate(10.480333518518519,3.6157388544181592) scale(0.7,0.7)"><path fill="rgb(0,153,204)" stroke="none" paint-order="stroke fill markers" d=" M 0.449 -0.17400000000000002 L 0.449 -0.17400000000000002 L 0.421 0 L 0.05 0 Q 0.05 -0.025 0.056 -0.032 L 0.061 -0.037 L 0.253 -0.251 Q 0.358 -0.369 0.358 -0.47200000000000003 Q 0.358 -0.561 0.304 -0.607 L 0.303 -0.608 L 0.302 -0.608 Q 0.27 -0.635 0.224 -0.635 Q 0.152 -0.635 0.109 -0.5730000000000001 Q 0.097 -0.555 0.089 -0.533 Q 0.092 -0.534 0.10200000000000001 -0.534 Q 0.14200000000000002 -0.534 0.153 -0.498 L 0.153 -0.497 Q 0.155 -0.49 0.155 -0.482 Q 0.155 -0.442 0.117 -0.431 Q 0.109 -0.429 0.10300000000000001 -0.429 Q 0.066 -0.429 0.054 -0.46 Q 0.05 -0.47100000000000003 0.05 -0.485 Q 0.05 -0.562 0.109 -0.617 Q 0.162 -0.666 0.23700000000000002 -0.666 Q 0.34700000000000003 -0.666 0.40800000000000003 -0.592 Q 0.443 -0.549 0.448 -0.49 Q 0.449 -0.481 0.449 -0.47200000000000003 Q 0.449 -0.399 0.394 -0.333 Q 0.365 -0.299 0.304 -0.243 L 0.243 -0.189 L 0.233 -0.18 L 0.127 -0.077 L 0.307 -0.077 Q 0.395 -0.077 0.402 -0.085 Q 0.41200000000000003 -0.099 0.424 -0.17400000000000002 L 0.449 -0.17400000000000002 Z"/></g><g transform="translate(10.830334918518519,1.9598963544181593)"><path fill="rgb(0,153,204)" stroke="none" paint-order="stroke fill markers" d=" M 0.0439453125 1.7587890625 Q 0.03515625 1.7587890625 0.03515625 1.75 Q 0.03515625 1.74609375 0.037109375 1.744140625 Q 0.1220703125 1.6591796875 0.1806640625 1.555419921875 Q 0.2392578125 1.45166015625 0.27294921875 1.33837890625 Q 0.306640625 1.22509765625 0.3212890625 1.10546875 Q 0.3359375 0.98583984375 0.3359375 0.85888671875 Q 0.3359375 0.72900390625 0.321044921875 0.6103515625 Q 0.30615234375 0.49169921875 0.2724609375 0.37890625 Q 0.23876953125 0.26611328125 0.180419921875 0.162353515625 Q 0.1220703125 0.05859375 0.037109375 -0.02490234375 Q 0.03515625 -0.02685546875 0.03515625 -0.03076171875 Q 0.03515625 -0.0400390625 0.0439453125 -0.0400390625 L 0.06689453125 -0.0400390625 Q 0.06982421875 -0.0400390625 0.07177734375 -0.0380859375 Q 0.1640625 0.04150390625 0.23095703125 0.145751953125 Q 0.2978515625 0.25 0.338623046875 0.366943359375 Q 0.37939453125 0.48388671875 0.397705078125 0.607421875 Q 0.416015625 0.73095703125 0.416015625 0.85986328125 Q 0.416015625 0.98828125 0.397705078125 1.111572265625 Q 0.37939453125 1.23486328125 0.338623046875 1.35205078125 Q 0.2978515625 1.46923828125 0.23095703125 1.5732421875 Q 0.1640625 1.67724609375 0.07177734375 1.7568359375 Q 0.06982421875 1.7587890625 0.06689453125 1.7587890625 L 0.0439453125 1.7587890625 Z"/></g></g><path fill="rgb(0,0,0)" stroke="none" paint-order="stroke fill markers" d=" M 85.0000000000011 227.00000000000023 C 85.0000000000011 228.6568542494926 83.65685424949348 230.00000000000023 82.0000000000011 230.00000000000023 C 80.34314575050871 230.00000000000023 79.0000000000011 228.6568542494926 79.0000000000011 227.00000000000023 C 79.0000000000011 225.34314575050786 80.34314575050871 224.00000000000023 82.0000000000011 224.00000000000023 C 83.65685424949348 224.00000000000023 85.0000000000011 225.34314575050786 85.0000000000011 227.00000000000023 Z" fill-opacity="1"/><path fill="none" stroke="rgb(0,0,0)" paint-order="fill stroke markers" d=" M 85.0000000000011 227.00000000000023 C 85.0000000000011 228.6568542494926 83.65685424949348 230.00000000000023 82.0000000000011 230.00000000000023 C 80.34314575050871 230.00000000000023 79.0000000000011 228.6568542494926 79.0000000000011 227.00000000000023 C 79.0000000000011 225.34314575050786 80.34314575050871 224.00000000000023 82.0000000000011 224.00000000000023 C 83.65685424949348 224.00000000000023 85.0000000000011 225.34314575050786 85.0000000000011 227.00000000000023 Z" stroke-opacity="1" stroke-linecap="round" stroke-linejoin="round" stroke-miterlimit="10"/><g transform="scale(27,27)"><g transform="translate(1.962962962962963,9.461109777777779)"><path fill="rgb(0,0,0)" stroke="none" paint-order="stroke fill markers" d=" M 0.74 -0.436 L 0.74 -0.436 Q 0.74 -0.281 0.63 -0.149 Q 0.531 -0.029 0.398 0.009000000000000001 Q 0.35100000000000003 0.022 0.305 0.022 Q 0.18 0.022 0.108 -0.066 Q 0.049 -0.138 0.049 -0.245 Q 0.049 -0.395 0.156 -0.529 Q 0.255 -0.65 0.388 -0.6900000000000001 Q 0.437 -0.705 0.485 -0.705 Q 0.612 -0.705 0.684 -0.613 Q 0.74 -0.541 0.74 -0.436 M 0.311 -0.004 L 0.311 -0.004 Q 0.405 -0.004 0.492 -0.088 Q 0.51 -0.105 0.525 -0.124 Q 0.623 -0.246 0.646 -0.41500000000000004 Q 0.651 -0.448 0.651 -0.47500000000000003 Q 0.651 -0.612 0.559 -0.661 Q 0.558 -0.661 0.557 -0.662 Q 0.521 -0.68 0.47900000000000004 -0.68 Q 0.385 -0.68 0.297 -0.599 Q 0.261 -0.5670000000000001 0.233 -0.524 Q 0.157 -0.40900000000000003 0.14400000000000002 -0.249 Q 0.14200000000000002 -0.231 0.14200000000000002 -0.217 Q 0.14200000000000002 -0.089 0.219 -0.033 Q 0.259 -0.004 0.311 -0.004 Z"/></g></g></g></g></svg>