<svg version="1.1" xmlns="http://www.w3.org/2000/svg" xmlns:xlink="http://www.w3.org/1999/xlink" width="676" height="596"><defs><clipPath id="WkuipOqDFDnU"><path fill="none" stroke="none" d=" M 0 0 L 676 0 L 676 596 L 0 596 L 0 0 Z"/></clipPath></defs><g transform="scale(1,1)" clip-path="url(#WkuipOqDFDnU)"><g><path fill="none" stroke="rgb(224,224,224)" paint-order="fill stroke markers" d=" M 253.7011267798369 585.4572143911206 L 4.921292965548389 585.4572143911206" stroke-opacity="1" stroke-linecap="round" stroke-linejoin="round" stroke-miterlimit="10" stroke-width="1.5"/><path fill="none" stroke="rgb(224,224,224)" paint-order="fill stroke markers" d=" M 253.7011267798369 543.9939087554058 L 4.921292965548389 543.9939087554058" stroke-opacity="1" stroke-linecap="round" stroke-linejoin="round" stroke-miterlimit="10" stroke-width="1.5"/><path fill="none" stroke="rgb(224,224,224)" paint-order="fill stroke markers" d=" M 253.7011267798369 502.53060311969097 L 4.921292965548389 502.53060311969097" stroke-opacity="1" stroke-linecap="round" stroke-linejoin="round" stroke-miterlimit="10" stroke-width="1.5"/><path fill="none" stroke="rgb(224,224,224)" paint-order="fill stroke markers" d=" M 253.7011267798369 461.0672974839762 L 4.921292965548389 461.0672974839762" stroke-opacity="1" stroke-linecap="round" stroke-linejoin="round" stroke-miterlimit="10" stroke-width="1.5"/><path fill="none" stroke="rgb(224,224,224)" paint-order="fill stroke markers" d=" M 253.7011267798369 419.6039918482614 L 4.921292965548389 419.6039918482614" stroke-opacity="1" stroke-linecap="round" stroke-linejoin="round" stroke-miterlimit="10" stroke-width="1.5"/><path fill="none" stroke="rgb(224,224,224)" paint-order="fill stroke markers" d=" M 253.7011267798369 378.1406862125466 L 4.921292965548389 378.1406862125466" stroke-opacity="1" stroke-linecap="round" stroke-linejoin="round" stroke-miterlimit="10" stroke-width="1.5"/><path fill="none" stroke="rgb(224,224,224)" paint-order="fill stroke markers" d=" M 253.7011267798369 336.67738057683175 L 4.921292965548389 336.67738057683175" stroke-opacity="1" stroke-linecap="round" stroke-linejoin="round" stroke-miterlimit="10" stroke-width="1.5"/><path fill="none" stroke="rgb(224,224,224)" paint-order="fill stroke markers" d=" M 4.921292965548389 585.4572143911206 L 4.921292965548389 336.67738057683175" stroke-opacity="1" stroke-linecap="round" stroke-linejoin="round" stroke-miterlimit="10" stroke-width="1.5"/><path fill="none" stroke="rgb(224,224,224)" paint-order="fill stroke markers" d=" M 46.384598601263136 585.4572143911206 L 46.384598601263136 336.67738057683175" stroke-opacity="1" stroke-linecap="round" stroke-linejoin="round" stroke-miterlimit="10" stroke-width="1.5"/><path fill="none" stroke="rgb(224,224,224)" paint-order="fill stroke markers" d=" M 87.84790423697788 585.4572143911206 L 87.84790423697788 336.67738057683175" stroke-opacity="1" stroke-linecap="round" stroke-linejoin="round" stroke-miterlimit="10" stroke-width="1.5"/><path fill="none" stroke="rgb(224,224,224)" paint-order="fill stroke markers" d=" M 129.31120987269264 585.4572143911206 L 129.31120987269264 336.67738057683175" stroke-opacity="1" stroke-linecap="round" stroke-linejoin="round" stroke-miterlimit="10" stroke-width="1.5"/><path fill="none" stroke="rgb(224,224,224)" paint-order="fill stroke markers" d=" M 170.7745155084074 585.4572143911206 L 170.7745155084074 336.67738057683175" stroke-opacity="1" stroke-linecap="round" stroke-linejoin="round" stroke-miterlimit="10" stroke-width="1.5"/><path fill="none" stroke="rgb(224,224,224)" paint-order="fill stroke markers" d=" M 212.23782114412217 585.4572143911206 L 212.23782114412217 336.67738057683175" stroke-opacity="1" stroke-linecap="round" stroke-linejoin="round" stroke-miterlimit="10" stroke-width="1.5"/><path fill="none" stroke="rgb(224,224,224)" paint-order="fill stroke markers" d=" M 253.7011267798369 585.4572143911206 L 253.7011267798369 336.67738057683175" stroke-opacity="1" stroke-linecap="round" stroke-linejoin="round" stroke-miterlimit="10" stroke-width="1.5"/><path fill="none" stroke="rgb(224,224,224)" paint-order="fill stroke markers" d=" M 253.7011267798369 253.75076930540217 L 4.921292965548389 253.75076930540217" stroke-opacity="1" stroke-linecap="round" stroke-linejoin="round" stroke-miterlimit="10" stroke-width="1.5"/><path fill="none" stroke="rgb(224,224,224)" paint-order="fill stroke markers" d=" M 253.7011267798369 212.28746366968736 L 4.921292965548389 212.28746366968736" stroke-opacity="1" stroke-linecap="round" stroke-linejoin="round" stroke-miterlimit="10" stroke-width="1.5"/><path fill="none" stroke="rgb(224,224,224)" paint-order="fill stroke markers" d=" M 253.7011267798369 170.82415803397254 L 4.921292965548389 170.82415803397254" stroke-opacity="1" stroke-linecap="round" stroke-linejoin="round" stroke-miterlimit="10" stroke-width="1.5"/><path fill="none" stroke="rgb(224,224,224)" paint-order="fill stroke markers" d=" M 253.7011267798369 129.36085239825775 L 4.921292965548389 129.36085239825775" stroke-opacity="1" stroke-linecap="round" stroke-linejoin="round" stroke-miterlimit="10" stroke-width="1.5"/><path fill="none" stroke="rgb(224,224,224)" paint-order="fill stroke markers" d=" M 253.7011267798369 87.89754676254294 L 4.921292965548389 87.89754676254294" stroke-opacity="1" stroke-linecap="round" stroke-linejoin="round" stroke-miterlimit="10" stroke-width="1.5"/><path fill="none" stroke="rgb(224,224,224)" paint-order="fill stroke markers" d=" M 253.7011267798369 46.43424112682814 L 4.921292965548389 46.43424112682814" stroke-opacity="1" stroke-linecap="round" stroke-linejoin="round" stroke-miterlimit="10" stroke-width="1.5"/><path fill="none" stroke="rgb(224,224,224)" paint-order="fill stroke markers" d=" M 253.7011267798369 4.970935491113337 L 4.921292965548389 4.970935491113337" stroke-opacity="1" stroke-linecap="round" stroke-linejoin="round" stroke-miterlimit="10" stroke-width="1.5"/><path fill="none" stroke="rgb(224,224,224)" paint-order="fill stroke markers" d=" M 253.7011267798369 253.75076930540217 L 253.7011267798369 253.75076930540217" stroke-opacity="1" stroke-linecap="round" stroke-linejoin="round" stroke-miterlimit="10" stroke-width="1.5"/><path fill="none" stroke="rgb(224,224,224)" paint-order="fill stroke markers" d=" M 253.7011267798369 253.75076930540217 L 4.921292965548389 4.970935491113337" stroke-opacity="1" stroke-linecap="round" stroke-linejoin="round" stroke-miterlimit="10" stroke-width="1.5"/><path fill="none" stroke="rgb(224,224,224)" paint-order="fill stroke markers" d=" M 4.921292965548389 253.75076930540217 L 4.921292965548389 253.75076930540217" stroke-opacity="1" stroke-linecap="round" stroke-linejoin="round" stroke-miterlimit="10" stroke-width="1.5"/><path fill="none" stroke="rgb(224,224,224)" paint-order="fill stroke markers" d=" M 87.84790423697788 253.75076930540217 L 4.921292965548389 170.82415803397254" stroke-opacity="1" stroke-linecap="round" stroke-linejoin="round" stroke-miterlimit="10" stroke-width="1.5"/><path fill="none" stroke="rgb(224,224,224)" paint-order="fill stroke markers" d=" M 170.7745155084074 253.75076930540217 L 4.921292965548389 87.89754676254294" stroke-opacity="1" stroke-linecap="round" stroke-linejoin="round" stroke-miterlimit="10" stroke-width="1.5"/><path fill="none" stroke="rgb(224,224,224)" paint-order="fill stroke markers" d=" M 253.7011267798369 253.75076930540217 L 4.921292965548389 4.970935491113337" stroke-opacity="1" stroke-linecap="round" stroke-linejoin="round" stroke-miterlimit="10" stroke-width="1.5"/><path fill="none" stroke="rgb(224,224,224)" paint-order="fill stroke markers" d=" M 253.7011267798369 253.75076930540217 L 4.921292965548389 4.970935491113337" stroke-opacity="1" stroke-linecap="round" stroke-linejoin="round" stroke-miterlimit="10" stroke-width="1.5"/><path fill="none" stroke="rgb(224,224,224)" paint-order="fill stroke markers" d=" M 253.7011267798369 170.82415803397254 L 87.84790423697788 4.970935491113337" stroke-opacity="1" stroke-linecap="round" stroke-linejoin="round" stroke-miterlimit="10" stroke-width="1.5"/><path fill="none" stroke="rgb(224,224,224)" paint-order="fill stroke markers" d=" M 253.7011267798369 87.89754676254294 L 170.7745155084074 4.970935491113337" stroke-opacity="1" stroke-linecap="round" stroke-linejoin="round" stroke-miterlimit="10" stroke-width="1.5"/><path fill="none" stroke="rgb(224,224,224)" paint-order="fill stroke markers" d=" M 253.7011267798369 4.970935491113337 L 253.7011267798369 4.970935491113337" stroke-opacity="1" stroke-linecap="round" stroke-linejoin="round" stroke-miterlimit="10" stroke-width="1.5"/><path fill="none" stroke="rgb(224,224,224)" paint-order="fill stroke markers" d=" M 253.7011267798369 253.75076930540217 L 4.921292965548389 4.970935491113337" stroke-opacity="1" stroke-linecap="round" stroke-linejoin="round" stroke-miterlimit="10" stroke-width="1.5"/><path fill="none" stroke="rgb(224,224,224)" paint-order="fill stroke markers" d=" M 4.921292965548389 4.970935491113337 L 4.921292965548389 4.970935491113337" stroke-opacity="1" stroke-linecap="round" stroke-linejoin="round" stroke-miterlimit="10" stroke-width="1.5"/><path fill="none" stroke="rgb(224,224,224)" paint-order="fill stroke markers" d=" M 668.3341831369844 253.75076930540217 L 419.55434932269594 253.75076930540217" stroke-opacity="1" stroke-linecap="round" stroke-linejoin="round" stroke-miterlimit="10" stroke-width="1.5"/><path fill="none" stroke="rgb(224,224,224)" paint-order="fill stroke markers" d=" M 668.3341831369844 212.28746366968736 L 419.55434932269594 212.28746366968736" stroke-opacity="1" stroke-linecap="round" stroke-linejoin="round" stroke-miterlimit="10" stroke-width="1.5"/><path fill="none" stroke="rgb(224,224,224)" paint-order="fill stroke markers" d=" M 668.3341831369844 170.82415803397254 L 419.55434932269594 170.82415803397254" stroke-opacity="1" stroke-linecap="round" stroke-linejoin="round" stroke-miterlimit="10" stroke-width="1.5"/><path fill="none" stroke="rgb(224,224,224)" paint-order="fill stroke markers" d=" M 668.3341831369844 129.36085239825775 L 419.55434932269594 129.36085239825775" stroke-opacity="1" stroke-linecap="round" stroke-linejoin="round" stroke-miterlimit="10" stroke-width="1.5"/><path fill="none" stroke="rgb(224,224,224)" paint-order="fill stroke markers" d=" M 668.3341831369844 87.89754676254294 L 419.55434932269594 87.89754676254294" stroke-opacity="1" stroke-linecap="round" stroke-linejoin="round" stroke-miterlimit="10" stroke-width="1.5"/><path fill="none" stroke="rgb(224,224,224)" paint-order="fill stroke markers" d=" M 668.3341831369844 46.43424112682814 L 419.55434932269594 46.43424112682814" stroke-opacity="1" stroke-linecap="round" stroke-linejoin="round" stroke-miterlimit="10" stroke-width="1.5"/><path fill="none" stroke="rgb(224,224,224)" paint-order="fill stroke markers" d=" M 668.3341831369844 4.970935491113337 L 419.55434932269594 4.970935491113337" stroke-opacity="1" stroke-linecap="round" stroke-linejoin="round" stroke-miterlimit="10" stroke-width="1.5"/><path fill="none" stroke="rgb(224,224,224)" paint-order="fill stroke markers" d=" M 668.3341831369844 253.75076930540217 L 668.3341831369844 253.75076930540217" stroke-opacity="1" stroke-linecap="round" stroke-linejoin="round" stroke-miterlimit="10" stroke-width="1.5"/><path fill="none" stroke="rgb(224,224,224)" paint-order="fill stroke markers" d=" M 668.3341831369844 253.75076930540217 L 419.55434932269594 4.970935491113337" stroke-opacity="1" stroke-linecap="round" stroke-linejoin="round" stroke-miterlimit="10" stroke-width="1.5"/><path fill="none" stroke="rgb(224,224,224)" paint-order="fill stroke markers" d=" M 419.55434932269594 253.75076930540217 L 419.55434932269594 253.75076930540217" stroke-opacity="1" stroke-linecap="round" stroke-linejoin="round" stroke-miterlimit="10" stroke-width="1.5"/><path fill="none" stroke="rgb(224,224,224)" paint-order="fill stroke markers" d=" M 502.4809605941254 253.75076930540217 L 419.55434932269594 170.82415803397254" stroke-opacity="1" stroke-linecap="round" stroke-linejoin="round" stroke-miterlimit="10" stroke-width="1.5"/><path fill="none" stroke="rgb(224,224,224)" paint-order="fill stroke markers" d=" M 585.4075718655549 253.75076930540217 L 419.55434932269594 87.89754676254294" stroke-opacity="1" stroke-linecap="round" stroke-linejoin="round" stroke-miterlimit="10" stroke-width="1.5"/><path fill="none" stroke="rgb(224,224,224)" paint-order="fill stroke markers" d=" M 668.3341831369844 253.75076930540217 L 419.55434932269594 4.970935491113337" stroke-opacity="1" stroke-linecap="round" stroke-linejoin="round" stroke-miterlimit="10" stroke-width="1.5"/><path fill="none" stroke="rgb(224,224,224)" paint-order="fill stroke markers" d=" M 668.3341831369844 253.75076930540217 L 419.55434932269594 4.970935491113337" stroke-opacity="1" stroke-linecap="round" stroke-linejoin="round" stroke-miterlimit="10" stroke-width="1.5"/><path fill="none" stroke="rgb(224,224,224)" paint-order="fill stroke markers" d=" M 668.3341831369844 170.82415803397254 L 502.4809605941254 4.970935491113337" stroke-opacity="1" stroke-linecap="round" stroke-linejoin="round" stroke-miterlimit="10" stroke-width="1.5"/><path fill="none" stroke="rgb(224,224,224)" paint-order="fill stroke markers" d=" M 668.3341831369844 87.89754676254294 L 585.4075718655549 4.970935491113337" stroke-opacity="1" stroke-linecap="round" stroke-linejoin="round" stroke-miterlimit="10" stroke-width="1.5"/><path fill="none" stroke="rgb(224,224,224)" paint-order="fill stroke markers" d=" M 668.3341831369844 4.970935491113337 L 668.3341831369844 4.970935491113337" stroke-opacity="1" stroke-linecap="round" stroke-linejoin="round" stroke-miterlimit="10" stroke-width="1.5"/><path fill="none" stroke="rgb(224,224,224)" paint-order="fill stroke markers" d=" M 668.3341831369844 253.75076930540217 L 419.55434932269594 4.970935491113337" stroke-opacity="1" stroke-linecap="round" stroke-linejoin="round" stroke-miterlimit="10" stroke-width="1.5"/><path fill="none" stroke="rgb(224,224,224)" paint-order="fill stroke markers" d=" M 419.55434932269594 4.970935491113337 L 419.55434932269594 4.970935491113337" stroke-opacity="1" stroke-linecap="round" stroke-linejoin="round" stroke-miterlimit="10" stroke-width="1.5"/><path fill="rgb(102,0,204)" stroke="none" paint-order="stroke fill markers" fill-rule="evenodd" d=" M 4.921292965548389 585.4572143911206 L 253.7011267798369 585.4572143911206 L 253.7011267798369 336.67738057683175 L 4.921292965548389 336.67738057683175 Z" fill-opacity="0.09803921568627451"/><path fill="rgb(102,0,204)" stroke="none" paint-order="stroke fill markers" fill-rule="evenodd" d=" M 4.921292965548389 253.75076930540217 L 253.7011267798369 253.75076930540217 L 253.7011267798369 4.970935491113337 L 4.921292965548389 4.970935491113337 Z" fill-opacity="0.09803921568627451"/><path fill="rgb(102,204,255)" stroke="none" paint-order="stroke fill markers" fill-rule="evenodd" d=" M 419.55434932269594 253.75076930540217 L 668.3341831369844 253.75076930540217 L 668.3341831369844 4.970935491113337 L 419.55434932269594 4.970935491113337 Z" fill-opacity="0.09803921568627451"/><path fill="none" stroke="rgb(102,0,204)" paint-order="fill stroke markers" d=" M 4.921292965548389 253.75076930540217 L 253.7011267798369 253.75076930540217" stroke-opacity="0.6980392156862745" stroke-linecap="round" stroke-linejoin="round" stroke-miterlimit="10" stroke-width="1.5"/><path fill="none" stroke="rgb(102,0,204)" paint-order="fill stroke markers" d=" M 253.7011267798369 253.75076930540217 L 253.7011267798369 4.970935491113337" stroke-opacity="0.6980392156862745" stroke-linecap="round" stroke-linejoin="round" stroke-miterlimit="10" stroke-width="1.5"/><path fill="none" stroke="rgb(102,0,204)" paint-order="fill stroke markers" d=" M 253.7011267798369 4.970935491113337 L 4.921292965548389 4.970935491113337" stroke-opacity="0.6980392156862745" stroke-linecap="round" stroke-linejoin="round" stroke-miterlimit="10" stroke-width="1.5"/><path fill="none" stroke="rgb(102,0,204)" paint-order="fill stroke markers" d=" M 4.921292965548389 4.970935491113337 L 4.921292965548389 253.75076930540217" stroke-opacity="0.6980392156862745" stroke-linecap="round" stroke-linejoin="round" stroke-miterlimit="10" stroke-width="1.5"/><path fill="none" stroke="rgb(102,204,255)" paint-order="fill stroke markers" d=" M 419.55434932269594 253.75076930540217 L 668.3341831369844 253.75076930540217" stroke-opacity="0.6980392156862745" stroke-linecap="round" stroke-linejoin="round" stroke-miterlimit="10" stroke-width="1.5"/><path fill="none" stroke="rgb(102,204,255)" paint-order="fill stroke markers" d=" M 668.3341831369844 253.75076930540217 L 668.3341831369844 4.970935491113337" stroke-opacity="0.6980392156862745" stroke-linecap="round" stroke-linejoin="round" stroke-miterlimit="10" stroke-width="1.5"/><path fill="none" stroke="rgb(102,204,255)" paint-order="fill stroke markers" d=" M 668.3341831369844 4.970935491113337 L 419.55434932269594 4.970935491113337" stroke-opacity="0.6980392156862745" stroke-linecap="round" stroke-linejoin="round" stroke-miterlimit="10" stroke-width="1.5"/><path fill="none" stroke="rgb(102,204,255)" paint-order="fill stroke markers" d=" M 419.55434932269594 4.970935491113337 L 419.55434932269594 253.75076930540217" stroke-opacity="0.6980392156862745" stroke-linecap="round" stroke-linejoin="round" stroke-miterlimit="10" stroke-width="1.5"/><path fill="none" stroke="rgb(0,0,0)" paint-order="fill stroke markers" d=" M 129.31120987269264 129.36085239825775 L 195.23782114412217 129.36085239825775" stroke-opacity="0.6980392156862745" stroke-linecap="round" stroke-linejoin="round" stroke-miterlimit="10" stroke-width="2.5"/><path fill="rgb(0,0,0)" stroke="none" paint-order="stroke fill markers" fill-rule="evenodd" d=" M 212.23782114412217 129.36085239825775 L 195.23782114412217 133.61085239825775 L 195.23782114412217 125.11085239825775 Z" fill-opacity="0.6980392156862745"/><path fill="none" stroke="rgb(0,0,0)" paint-order="fill stroke markers" d=" M 129.31120987269264 129.36085239825775 L 99.86871951714919 99.91836204271426" stroke-opacity="0.6980392156862745" stroke-linecap="round" stroke-linejoin="round" stroke-miterlimit="10" stroke-width="2.5"/><path fill="rgb(0,0,0)" stroke="none" paint-order="stroke fill markers" fill-rule="evenodd" d=" M 87.84790423697788 87.89754676254294 L 102.87392333719201 96.91315822267144 L 96.86351569710637 102.92356586275709 Z" fill-opacity="0.6980392156862745"/><path fill="none" stroke="rgb(0,0,0)" paint-order="fill stroke markers" d=" M 543.9442662298402 129.36085239825775 L 514.5017758742968 99.91836204271425" stroke-opacity="0.6980392156862745" stroke-linecap="round" stroke-linejoin="round" stroke-miterlimit="10" stroke-width="2.5"/><path fill="rgb(0,0,0)" stroke="none" paint-order="stroke fill markers" fill-rule="evenodd" d=" M 502.4809605941254 87.89754676254294 L 517.5069796943396 96.91315822267143 L 511.49657205425393 102.92356586275707 Z" fill-opacity="0.6980392156862745"/><path fill="none" stroke="rgb(0,0,0)" paint-order="fill stroke markers" d=" M 543.9442662298402 129.36085239825775 L 609.8708775012697 129.36085239825775" stroke-opacity="0.6980392156862745" stroke-linecap="round" stroke-linejoin="round" stroke-miterlimit="10" stroke-width="2.5"/><path fill="rgb(0,0,0)" stroke="none" paint-order="stroke fill markers" fill-rule="evenodd" d=" M 626.8708775012697 129.36085239825775 L 609.8708775012697 133.61085239825775 L 609.8708775012697 125.11085239825775 Z" fill-opacity="0.6980392156862745"/><path fill="none" stroke="rgb(224,224,224)" paint-order="fill stroke markers" d=" M 668.3341831369844 585.4572143911206 L 419.55434932269594 585.4572143911206" stroke-opacity="1" stroke-linecap="round" stroke-linejoin="round" stroke-miterlimit="10" stroke-width="1.5"/><path fill="none" stroke="rgb(224,224,224)" paint-order="fill stroke markers" d=" M 668.3341831369844 543.9939087554058 L 419.55434932269594 543.9939087554058" stroke-opacity="1" stroke-linecap="round" stroke-linejoin="round" stroke-miterlimit="10" stroke-width="1.5"/><path fill="none" stroke="rgb(224,224,224)" paint-order="fill stroke markers" d=" M 668.3341831369844 502.53060311969097 L 419.55434932269594 502.53060311969097" stroke-opacity="1" stroke-linecap="round" stroke-linejoin="round" stroke-miterlimit="10" stroke-width="1.5"/><path fill="none" stroke="rgb(224,224,224)" paint-order="fill stroke markers" d=" M 668.3341831369844 461.0672974839762 L 419.55434932269594 461.0672974839762" stroke-opacity="1" stroke-linecap="round" stroke-linejoin="round" stroke-miterlimit="10" stroke-width="1.5"/><path fill="none" stroke="rgb(224,224,224)" paint-order="fill stroke markers" d=" M 668.3341831369844 419.6039918482614 L 419.55434932269594 419.6039918482614" stroke-opacity="1" stroke-linecap="round" stroke-linejoin="round" stroke-miterlimit="10" stroke-width="1.5"/><path fill="none" stroke="rgb(224,224,224)" paint-order="fill stroke markers" d=" M 668.3341831369844 378.1406862125466 L 419.55434932269594 378.1406862125466" stroke-opacity="1" stroke-linecap="round" stroke-linejoin="round" stroke-miterlimit="10" stroke-width="1.5"/><path fill="none" stroke="rgb(224,224,224)" paint-order="fill stroke markers" d=" M 668.3341831369844 336.67738057683175 L 419.55434932269594 336.67738057683175" stroke-opacity="1" stroke-linecap="round" stroke-linejoin="round" stroke-miterlimit="10" stroke-width="1.5"/><path fill="none" stroke="rgb(224,224,224)" paint-order="fill stroke markers" d=" M 419.55434932269594 585.4572143911206 L 419.55434932269594 336.67738057683175" stroke-opacity="1" stroke-linecap="round" stroke-linejoin="round" stroke-miterlimit="10" stroke-width="1.5"/><path fill="none" stroke="rgb(224,224,224)" paint-order="fill stroke markers" d=" M 461.0176549584107 585.4572143911206 L 461.0176549584107 336.67738057683175" stroke-opacity="1" stroke-linecap="round" stroke-linejoin="round" stroke-miterlimit="10" stroke-width="1.5"/><path fill="none" stroke="rgb(224,224,224)" paint-order="fill stroke markers" d=" M 502.4809605941254 585.4572143911206 L 502.4809605941254 336.67738057683175" stroke-opacity="1" stroke-linecap="round" stroke-linejoin="round" stroke-miterlimit="10" stroke-width="1.5"/><path fill="none" stroke="rgb(224,224,224)" paint-order="fill stroke markers" d=" M 543.9442662298402 585.4572143911206 L 543.9442662298402 336.67738057683175" stroke-opacity="1" stroke-linecap="round" stroke-linejoin="round" stroke-miterlimit="10" stroke-width="1.5"/><path fill="none" stroke="rgb(224,224,224)" paint-order="fill stroke markers" d=" M 585.4075718655549 585.4572143911206 L 585.4075718655549 336.67738057683175" stroke-opacity="1" stroke-linecap="round" stroke-linejoin="round" stroke-miterlimit="10" stroke-width="1.5"/><path fill="none" stroke="rgb(224,224,224)" paint-order="fill stroke markers" d=" M 626.8708775012697 585.4572143911206 L 626.8708775012697 336.67738057683175" stroke-opacity="1" stroke-linecap="round" stroke-linejoin="round" stroke-miterlimit="10" stroke-width="1.5"/><path fill="none" stroke="rgb(224,224,224)" paint-order="fill stroke markers" d=" M 668.3341831369844 585.4572143911206 L 668.3341831369844 336.67738057683175" stroke-opacity="1" stroke-linecap="round" stroke-linejoin="round" stroke-miterlimit="10" stroke-width="1.5"/><path fill="rgb(102,204,255)" stroke="none" paint-order="stroke fill markers" fill-rule="evenodd" d=" M 419.55434932269594 585.4572143911206 L 668.3341831369844 585.4572143911206 L 668.3341831369844 336.67738057683175 L 419.55434932269594 336.67738057683175 Z" fill-opacity="0.09803921568627451"/><path fill="none" stroke="rgb(102,204,255)" paint-order="fill stroke markers" d=" M 419.55434932269594 585.4572143911206 L 668.3341831369844 585.4572143911206" stroke-opacity="0.6980392156862745" stroke-linecap="round" stroke-linejoin="round" stroke-miterlimit="10" stroke-width="1.5"/><path fill="none" stroke="rgb(102,204,255)" paint-order="fill stroke markers" d=" M 668.3341831369844 585.4572143911206 L 668.3341831369844 336.67738057683175" stroke-opacity="0.6980392156862745" stroke-linecap="round" stroke-linejoin="round" stroke-miterlimit="10" stroke-width="1.5"/><path fill="none" stroke="rgb(102,204,255)" paint-order="fill stroke markers" d=" M 668.3341831369844 336.67738057683175 L 419.55434932269594 336.67738057683175" stroke-opacity="0.6980392156862745" stroke-linecap="round" stroke-linejoin="round" stroke-miterlimit="10" stroke-width="1.5"/><path fill="none" stroke="rgb(102,204,255)" paint-order="fill stroke markers" d=" M 419.55434932269594 336.67738057683175 L 419.55434932269594 585.4572143911206" stroke-opacity="0.6980392156862745" stroke-linecap="round" stroke-linejoin="round" stroke-miterlimit="10" stroke-width="1.5"/><path fill="none" stroke="rgb(102,0,204)" paint-order="fill stroke markers" d=" M 4.921292965548389 585.4572143911206 L 253.7011267798369 585.4572143911206" stroke-opacity="0.6980392156862745" stroke-linecap="round" stroke-linejoin="round" stroke-miterlimit="10" stroke-width="1.5"/><path fill="none" stroke="rgb(102,0,204)" paint-order="fill stroke markers" d=" M 253.7011267798369 585.4572143911206 L 253.7011267798369 336.67738057683175" stroke-opacity="0.6980392156862745" stroke-linecap="round" stroke-linejoin="round" stroke-miterlimit="10" stroke-width="1.5"/><path fill="none" stroke="rgb(102,0,204)" paint-order="fill stroke markers" d=" M 253.7011267798369 336.67738057683175 L 4.921292965548389 336.67738057683175" stroke-opacity="0.6980392156862745" stroke-linecap="round" stroke-linejoin="round" stroke-miterlimit="10" stroke-width="1.5"/><path fill="none" stroke="rgb(102,0,204)" paint-order="fill stroke markers" d=" M 4.921292965548389 336.67738057683175 L 4.921292965548389 585.4572143911206" stroke-opacity="0.6980392156862745" stroke-linecap="round" stroke-linejoin="round" stroke-miterlimit="10" stroke-width="1.5"/><path fill="none" stroke="rgb(0,0,0)" paint-order="fill stroke markers" d=" M 129.31120987269264 461.0672974839762 L 153.7745155084074 461.0672974839762" stroke-opacity="0.6980392156862745" stroke-linecap="round" stroke-linejoin="round" stroke-miterlimit="10" stroke-width="2.5"/><path fill="rgb(0,0,0)" stroke="none" paint-order="stroke fill markers" fill-rule="evenodd" d=" M 170.7745155084074 461.0672974839762 L 153.7745155084074 465.3172974839762 L 153.7745155084074 456.8172974839762 Z" fill-opacity="0.6980392156862745"/><path fill="none" stroke="rgb(0,0,0)" paint-order="fill stroke markers" d=" M 129.31120987269264 461.0672974839762 L 129.31120987269264 436.6039918482614" stroke-opacity="0.6980392156862745" stroke-linecap="round" stroke-linejoin="round" stroke-miterlimit="10" stroke-width="2.5"/><path fill="rgb(0,0,0)" stroke="none" paint-order="stroke fill markers" fill-rule="evenodd" d=" M 129.31120987269264 419.6039918482614 L 133.56120987269264 436.6039918482614 L 125.06120987269264 436.6039918482614 Z" fill-opacity="0.6980392156862745"/><path fill="none" stroke="rgb(0,0,0)" paint-order="fill stroke markers" d=" M 543.9442662298402 461.0672974839762 L 568.4075718655549 461.0672974839762" stroke-opacity="0.6980392156862745" stroke-linecap="round" stroke-linejoin="round" stroke-miterlimit="10" stroke-width="2.5"/><path fill="rgb(0,0,0)" stroke="none" paint-order="stroke fill markers" fill-rule="evenodd" d=" M 585.4075718655549 461.0672974839762 L 568.4075718655549 465.3172974839762 L 568.4075718655549 456.8172974839762 Z" fill-opacity="0.6980392156862745"/><path fill="none" stroke="rgb(0,0,0)" paint-order="fill stroke markers" d=" M 543.9442662298402 461.0672974839762 L 543.9442662298402 436.6039918482614" stroke-opacity="0.6980392156862745" stroke-linecap="round" stroke-linejoin="round" stroke-miterlimit="10" stroke-width="2.5"/><path fill="rgb(0,0,0)" stroke="none" paint-order="stroke fill markers" fill-rule="evenodd" d=" M 543.9442662298402 419.6039918482614 L 548.1942662298402 436.6039918482614 L 539.6942662298402 436.6039918482614 Z" fill-opacity="0.6980392156862745"/><path fill="none" stroke="rgb(0,0,0)" paint-order="fill stroke markers" d=" M 46.384598601263136 46.43424112682814 L 610.5249703913756 207.61720449543193" stroke-opacity="0.6980392156862745" stroke-linecap="round" stroke-linejoin="round" stroke-miterlimit="10" stroke-width="2.5"/><path fill="rgb(0,0,0)" stroke="none" paint-order="stroke fill markers" fill-rule="evenodd" d=" M 626.8708775012697 212.28746366968736 L 609.3574055978117 211.70368127290544 L 611.6925351849395 203.53072771795843 Z" fill-opacity="0.6980392156862745"/><path fill="none" stroke="rgb(0,0,0)" paint-order="fill stroke markers" d=" M 46.384598601263136 378.1406862125466 L 610.5249703913756 539.3236495811503" stroke-opacity="0.6980392156862745" stroke-linecap="round" stroke-linejoin="round" stroke-miterlimit="10" stroke-width="2.5"/><path fill="rgb(0,0,0)" stroke="none" paint-order="stroke fill markers" fill-rule="evenodd" d=" M 626.8708775012697 543.9939087554058 L 609.3574055978117 543.4101263586239 L 611.6925351849395 535.2371728036768 Z" fill-opacity="0.6980392156862745"/><path fill="rgb(102,204,255)" stroke="none" paint-order="stroke fill markers" d=" M 548.9442662298402 461.0672974839762 C 548.9442662298402 463.8287212331301 546.7056899789942 466.0672974839762 543.9442662298402 466.0672974839762 C 541.1828424806862 466.0672974839762 538.9442662298402 463.8287212331301 538.9442662298402 461.0672974839762 C 538.9442662298402 458.3058737348222 541.1828424806862 456.0672974839762 543.9442662298402 456.0672974839762 C 546.7056899789942 456.0672974839762 548.9442662298402 458.3058737348222 548.9442662298402 461.0672974839762 Z" fill-opacity="1"/><path fill="none" stroke="rgb(0,0,0)" paint-order="fill stroke markers" d=" M 548.9442662298402 461.0672974839762 C 548.9442662298402 463.8287212331301 546.7056899789942 466.0672974839762 543.9442662298402 466.0672974839762 C 541.1828424806862 466.0672974839762 538.9442662298402 463.8287212331301 538.9442662298402 461.0672974839762 C 538.9442662298402 458.3058737348222 541.1828424806862 456.0672974839762 543.9442662298402 456.0672974839762 C 546.7056899789942 456.0672974839762 548.9442662298402 458.3058737348222 548.9442662298402 461.0672974839762 Z" stroke-opacity="1" stroke-linecap="round" stroke-linejoin="round" stroke-miterlimit="10"/><path fill="rgb(102,204,255)" stroke="none" paint-order="stroke fill markers" d=" M 134.31120987269264 461.0672974839762 C 134.31120987269264 463.8287212331301 132.07263362184662 466.0672974839762 129.31120987269264 466.0672974839762 C 126.54978612353868 466.0672974839762 124.31120987269264 463.8287212331301 124.31120987269264 461.0672974839762 C 124.31120987269264 458.3058737348222 126.54978612353868 456.0672974839762 129.31120987269264 456.0672974839762 C 132.07263362184662 456.0672974839762 134.31120987269264 458.3058737348222 134.31120987269264 461.0672974839762 Z" fill-opacity="1"/><path fill="none" stroke="rgb(0,0,0)" paint-order="fill stroke markers" d=" M 134.31120987269264 461.0672974839762 C 134.31120987269264 463.8287212331301 132.07263362184662 466.0672974839762 129.31120987269264 466.0672974839762 C 126.54978612353868 466.0672974839762 124.31120987269264 463.8287212331301 124.31120987269264 461.0672974839762 C 124.31120987269264 458.3058737348222 126.54978612353868 456.0672974839762 129.31120987269264 456.0672974839762 C 132.07263362184662 456.0672974839762 134.31120987269264 458.3058737348222 134.31120987269264 461.0672974839762 Z" stroke-opacity="1" stroke-linecap="round" stroke-linejoin="round" stroke-miterlimit="10"/><path fill="rgb(153,102,255)" stroke="none" paint-order="stroke fill markers" d=" M 52.384598601263136 46.43424112682814 C 52.384598601263136 49.7479496258129 49.698307100247895 52.43424112682814 46.384598601263136 52.43424112682814 C 43.070890102278376 52.43424112682814 40.384598601263136 49.7479496258129 40.384598601263136 46.43424112682814 C 40.384598601263136 43.12053262784338 43.070890102278376 40.43424112682814 46.384598601263136 40.43424112682814 C 49.698307100247895 40.43424112682814 52.384598601263136 43.12053262784338 52.384598601263136 46.43424112682814 Z" fill-opacity="1"/><path fill="none" stroke="rgb(0,0,0)" paint-order="fill stroke markers" d=" M 52.384598601263136 46.43424112682814 C 52.384598601263136 49.7479496258129 49.698307100247895 52.43424112682814 46.384598601263136 52.43424112682814 C 43.070890102278376 52.43424112682814 40.384598601263136 49.7479496258129 40.384598601263136 46.43424112682814 C 40.384598601263136 43.12053262784338 43.070890102278376 40.43424112682814 46.384598601263136 40.43424112682814 C 49.698307100247895 40.43424112682814 52.384598601263136 43.12053262784338 52.384598601263136 46.43424112682814 Z" stroke-opacity="1" stroke-linecap="round" stroke-linejoin="round" stroke-miterlimit="10"/><path fill="rgb(153,102,255)" stroke="none" paint-order="stroke fill markers" d=" M 52.384598601263136 378.1406862125466 C 52.384598601263136 381.45439471153134 49.698307100247895 384.1406862125466 46.384598601263136 384.1406862125466 C 43.070890102278376 384.1406862125466 40.384598601263136 381.45439471153134 40.384598601263136 378.1406862125466 C 40.384598601263136 374.82697771356186 43.070890102278376 372.1406862125466 46.384598601263136 372.1406862125466 C 49.698307100247895 372.1406862125466 52.384598601263136 374.82697771356186 52.384598601263136 378.1406862125466 Z" fill-opacity="1"/><path fill="none" stroke="rgb(0,0,0)" paint-order="fill stroke markers" d=" M 52.384598601263136 378.1406862125466 C 52.384598601263136 381.45439471153134 49.698307100247895 384.1406862125466 46.384598601263136 384.1406862125466 C 43.070890102278376 384.1406862125466 40.384598601263136 381.45439471153134 40.384598601263136 378.1406862125466 C 40.384598601263136 374.82697771356186 43.070890102278376 372.1406862125466 46.384598601263136 372.1406862125466 C 49.698307100247895 372.1406862125466 52.384598601263136 374.82697771356186 52.384598601263136 378.1406862125466 Z" stroke-opacity="1" stroke-linecap="round" stroke-linejoin="round" stroke-miterlimit="10"/><path fill="rgb(255,0,0)" stroke="none" paint-order="stroke fill markers" d=" M 632.8708775012697 212.28746366968736 C 632.8708775012697 215.60117216867212 630.1845860002544 218.28746366968736 626.8708775012697 218.28746366968736 C 623.5571690022849 218.28746366968736 620.8708775012697 215.60117216867212 620.8708775012697 212.28746366968736 C 620.8708775012697 208.9737551707026 623.5571690022849 206.28746366968736 626.8708775012697 206.28746366968736 C 630.1845860002544 206.28746366968736 632.8708775012697 208.9737551707026 632.8708775012697 212.28746366968736 Z" fill-opacity="1"/><path fill="none" stroke="rgb(0,0,0)" paint-order="fill stroke markers" d=" M 632.8708775012697 212.28746366968736 C 632.8708775012697 215.60117216867212 630.1845860002544 218.28746366968736 626.8708775012697 218.28746366968736 C 623.5571690022849 218.28746366968736 620.8708775012697 215.60117216867212 620.8708775012697 212.28746366968736 C 620.8708775012697 208.9737551707026 623.5571690022849 206.28746366968736 626.8708775012697 206.28746366968736 C 630.1845860002544 206.28746366968736 632.8708775012697 208.9737551707026 632.8708775012697 212.28746366968736 Z" stroke-opacity="1" stroke-linecap="round" stroke-linejoin="round" stroke-miterlimit="10"/><path fill="rgb(255,0,0)" stroke="none" paint-order="stroke fill markers" d=" M 632.8708775012697 543.9939087554058 C 632.8708775012697 547.3076172543905 630.1845860002544 549.9939087554058 626.8708775012697 549.9939087554058 C 623.5571690022849 549.9939087554058 620.8708775012697 547.3076172543905 620.8708775012697 543.9939087554058 C 620.8708775012697 540.680200256421 623.5571690022849 537.9939087554058 626.8708775012697 537.9939087554058 C 630.1845860002544 537.9939087554058 632.8708775012697 540.680200256421 632.8708775012697 543.9939087554058 Z" fill-opacity="1"/><path fill="none" stroke="rgb(0,0,0)" paint-order="fill stroke markers" d=" M 632.8708775012697 543.9939087554058 C 632.8708775012697 547.3076172543905 630.1845860002544 549.9939087554058 626.8708775012697 549.9939087554058 C 623.5571690022849 549.9939087554058 620.8708775012697 547.3076172543905 620.8708775012697 543.9939087554058 C 620.8708775012697 540.680200256421 623.5571690022849 537.9939087554058 626.8708775012697 537.9939087554058 C 630.1845860002544 537.9939087554058 632.8708775012697 540.680200256421 632.8708775012697 543.9939087554058 Z" stroke-opacity="1" stroke-linecap="round" stroke-linejoin="round" stroke-miterlimit="10"/><g transform="scale(31,31)"><g transform="translate(10.225806451612904,14.202240032258064)"><path fill="rgb(0,0,0)" stroke="none" paint-order="stroke fill markers" d=" M 0.645 -0.682 L 0.739 -0.067 Q 0.741 -0.054 0.7435 -0.051500000000000004 Q 0.746 -0.049 0.755 -0.048 Q 0.769 -0.047 0.794 -0.047 Q 0.81 -0.047 0.8165 -0.0465 Q 0.8230000000000001 -0.046 0.8285 -0.042 Q 0.834 -0.038 0.834 -0.029 Q 0.834 -0.016 0.8280000000000001 -0.009000000000000001 Q 0.8220000000000001 -0.002 0.8175 -0.001 Q 0.8130000000000001 0 0.806 0 Q 0.794 0 0.771 -0.001 Q 0.748 -0.002 0.736 -0.002 Q 0.724 -0.002 0.7010000000000001 -0.0025 Q 0.678 -0.003 0.667 -0.003 Q 0.65 -0.003 0.592 -0.0015 Q 0.534 0 0.518 0 Q 0.496 0 0.496 -0.018000000000000002 Q 0.496 -0.032 0.502 -0.0385 Q 0.508 -0.045 0.514 -0.046 Q 0.52 -0.047 0.533 -0.047 Q 0.5740000000000001 -0.047 0.598 -0.052000000000000005 L 0.5750000000000001 -0.198 L 0.305 -0.198 L 0.213 -0.058 Q 0.23500000000000001 -0.047 0.271 -0.047 Q 0.297 -0.047 0.297 -0.029 Q 0.297 0 0.27 0 Q 0.252 0 0.215 -0.0015 Q 0.178 -0.003 0.159 -0.003 Q 0.14300000000000002 -0.003 0.111 -0.0015 Q 0.079 0 0.064 0 Q 0.056 0 0.0505 -0.0055 Q 0.045 -0.011 0.045 -0.018000000000000002 Q 0.045 -0.031 0.051000000000000004 -0.038 Q 0.057 -0.045 0.062 -0.046 Q 0.067 -0.047 0.077 -0.047 Q 0.111 -0.047 0.132 -0.0535 Q 0.153 -0.06 0.1595 -0.0665 Q 0.166 -0.073 0.17400000000000002 -0.085 L 0.5670000000000001 -0.686 Q 0.577 -0.7020000000000001 0.5855 -0.7065 Q 0.594 -0.711 0.611 -0.711 Q 0.63 -0.711 0.636 -0.706 Q 0.642 -0.7010000000000001 0.645 -0.682 M 0.524 -0.533 L 0.336 -0.245 L 0.5680000000000001 -0.245 L 0.524 -0.533 Z"/></g></g><g transform="scale(31,31)"><g transform="translate(10.451612903225806,3.524820677419355)"><path fill="rgb(0,0,0)" stroke="none" paint-order="stroke fill markers" d=" M 0.163 -0.067 L 0.306 -0.637 Q 0.264 -0.639 0.245 -0.639 Q 0.227 -0.639 0.22 -0.6395000000000001 Q 0.213 -0.64 0.20800000000000002 -0.644 Q 0.203 -0.648 0.203 -0.657 Q 0.203 -0.671 0.209 -0.6775 Q 0.215 -0.684 0.221 -0.685 Q 0.227 -0.686 0.24 -0.686 L 0.641 -0.686 Q 0.744 -0.686 0.799 -0.648 Q 0.854 -0.61 0.854 -0.547 Q 0.854 -0.488 0.8005 -0.433 Q 0.747 -0.378 0.637 -0.358 Q 0.711 -0.352 0.7575000000000001 -0.317 Q 0.804 -0.28200000000000003 0.804 -0.221 Q 0.804 -0.186 0.7855 -0.1485 Q 0.767 -0.111 0.7315 -0.077 Q 0.6960000000000001 -0.043000000000000003 0.6355000000000001 -0.021500000000000002 Q 0.5750000000000001 0 0.501 0 L 0.077 0 Q 0.043000000000000003 0 0.043000000000000003 -0.018000000000000002 Q 0.043000000000000003 -0.038 0.055 -0.045 Q 0.059000000000000004 -0.047 0.08700000000000001 -0.047 Q 0.123 -0.047 0.14 -0.048 Q 0.153 -0.049 0.1565 -0.052000000000000005 Q 0.16 -0.055 0.163 -0.067 M 0.431 -0.621 L 0.369 -0.375 L 0.527 -0.375 Q 0.5750000000000001 -0.375 0.614 -0.3925 Q 0.653 -0.41000000000000003 0.6745 -0.4375 Q 0.6960000000000001 -0.465 0.7075 -0.4945 Q 0.719 -0.524 0.719 -0.552 Q 0.719 -0.639 0.618 -0.639 L 0.46900000000000003 -0.639 Q 0.451 -0.639 0.442 -0.638 Q 0.435 -0.637 0.431 -0.621 M 0.312 -0.047 L 0.47200000000000003 -0.047 Q 0.522 -0.047 0.5615 -0.0655 Q 0.601 -0.084 0.6225 -0.1135 Q 0.644 -0.14300000000000002 0.6545 -0.17450000000000002 Q 0.665 -0.20600000000000002 0.665 -0.23700000000000002 Q 0.665 -0.339 0.555 -0.339 L 0.36 -0.339 L 0.28800000000000003 -0.048 Q 0.295 -0.047 0.312 -0.047 Z"/></g></g><path fill="rgb(102,204,255)" stroke="none" paint-order="stroke fill markers" d=" M 548.9442662298402 129.36085239825775 C 548.9442662298402 132.12227614741172 546.7056899789942 134.36085239825775 543.9442662298402 134.36085239825775 C 541.1828424806862 134.36085239825775 538.9442662298402 132.12227614741172 538.9442662298402 129.36085239825775 C 538.9442662298402 126.59942864910379 541.1828424806862 124.36085239825775 543.9442662298402 124.36085239825775 C 546.7056899789942 124.36085239825775 548.9442662298402 126.59942864910379 548.9442662298402 129.36085239825775 Z" fill-opacity="1"/><path fill="none" stroke="rgb(0,0,0)" paint-order="fill stroke markers" d=" M 548.9442662298402 129.36085239825775 C 548.9442662298402 132.12227614741172 546.7056899789942 134.36085239825775 543.9442662298402 134.36085239825775 C 541.1828424806862 134.36085239825775 538.9442662298402 132.12227614741172 538.9442662298402 129.36085239825775 C 538.9442662298402 126.59942864910379 541.1828424806862 124.36085239825775 543.9442662298402 124.36085239825775 C 546.7056899789942 124.36085239825775 548.9442662298402 126.59942864910379 548.9442662298402 129.36085239825775 Z" stroke-opacity="1" stroke-linecap="round" stroke-linejoin="round" stroke-miterlimit="10"/><path fill="rgb(102,204,255)" stroke="none" paint-order="stroke fill markers" d=" M 134.31120987269264 129.36085239825775 C 134.31120987269264 132.12227614741172 132.07263362184662 134.36085239825775 129.31120987269264 134.36085239825775 C 126.54978612353868 134.36085239825775 124.31120987269264 132.12227614741172 124.31120987269264 129.36085239825775 C 124.31120987269264 126.59942864910379 126.54978612353868 124.36085239825775 129.31120987269264 124.36085239825775 C 132.07263362184662 124.36085239825775 134.31120987269264 126.59942864910379 134.31120987269264 129.36085239825775 Z" fill-opacity="1"/><path fill="none" stroke="rgb(0,0,0)" paint-order="fill stroke markers" d=" M 134.31120987269264 129.36085239825775 C 134.31120987269264 132.12227614741172 132.07263362184662 134.36085239825775 129.31120987269264 134.36085239825775 C 126.54978612353868 134.36085239825775 124.31120987269264 132.12227614741172 124.31120987269264 129.36085239825775 C 124.31120987269264 126.59942864910379 126.54978612353868 124.36085239825775 129.31120987269264 124.36085239825775 C 132.07263362184662 124.36085239825775 134.31120987269264 126.59942864910379 134.31120987269264 129.36085239825775 Z" stroke-opacity="1" stroke-linecap="round" stroke-linejoin="round" stroke-miterlimit="10"/></g></g></svg>