<svg version="1.1" xmlns="http://www.w3.org/2000/svg" xmlns:xlink="http://www.w3.org/1999/xlink" width="676" height="301"><defs><clipPath id="zThrJlqRihaN"><path fill="none" stroke="none" d=" M 0 0 L 676 0 L 676 301 L 0 301 L 0 0 Z"/></clipPath></defs><g transform="scale(1,1)" clip-path="url(#zThrJlqRihaN)"><g><path fill="rgb(102,0,204)" stroke="none" paint-order="stroke fill markers" fill-rule="evenodd" d=" M 4.921292965548403 253.75076930540212 L 253.7011267798369 253.75076930540212 L 253.7011267798369 4.970935491113309 L 4.921292965548403 4.970935491113309 Z" fill-opacity="0.09803921568627451"/><path fill="rgb(102,204,255)" stroke="none" paint-order="stroke fill markers" fill-rule="evenodd" d=" M 419.5543493226959 253.75076930540212 L 668.3341831369844 253.75076930540212 L 668.3341831369844 4.970935491113309 L 419.5543493226959 4.970935491113309 Z" fill-opacity="0.09803921568627451"/><path fill="none" stroke="rgb(102,0,204)" paint-order="fill stroke markers" d=" M 4.921292965548403 253.75076930540212 L 253.7011267798369 253.75076930540212" stroke-opacity="0.6980392156862745" stroke-linecap="round" stroke-linejoin="round" stroke-miterlimit="10" stroke-width="1.5"/><path fill="none" stroke="rgb(102,0,204)" paint-order="fill stroke markers" d=" M 253.7011267798369 253.75076930540212 L 253.7011267798369 4.970935491113309" stroke-opacity="0.6980392156862745" stroke-linecap="round" stroke-linejoin="round" stroke-miterlimit="10" stroke-width="1.5"/><path fill="none" stroke="rgb(102,0,204)" paint-order="fill stroke markers" d=" M 253.7011267798369 4.970935491113309 L 4.921292965548403 4.970935491113309" stroke-opacity="0.6980392156862745" stroke-linecap="round" stroke-linejoin="round" stroke-miterlimit="10" stroke-width="1.5"/><path fill="none" stroke="rgb(102,0,204)" paint-order="fill stroke markers" d=" M 4.921292965548403 4.970935491113309 L 4.921292965548403 253.75076930540212" stroke-opacity="0.6980392156862745" stroke-linecap="round" stroke-linejoin="round" stroke-miterlimit="10" stroke-width="1.5"/><path fill="none" stroke="rgb(102,204,255)" paint-order="fill stroke markers" d=" M 419.5543493226959 253.75076930540212 L 668.3341831369844 253.75076930540212" stroke-opacity="0.6980392156862745" stroke-linecap="round" stroke-linejoin="round" stroke-miterlimit="10" stroke-width="1.5"/><path fill="none" stroke="rgb(102,204,255)" paint-order="fill stroke markers" d=" M 668.3341831369844 253.75076930540212 L 668.3341831369844 4.970935491113309" stroke-opacity="0.6980392156862745" stroke-linecap="round" stroke-linejoin="round" stroke-miterlimit="10" stroke-width="1.5"/><path fill="none" stroke="rgb(102,204,255)" paint-order="fill stroke markers" d=" M 668.3341831369844 4.970935491113309 L 419.5543493226959 4.970935491113309" stroke-opacity="0.6980392156862745" stroke-linecap="round" stroke-linejoin="round" stroke-miterlimit="10" stroke-width="1.5"/><path fill="none" stroke="rgb(102,204,255)" paint-order="fill stroke markers" d=" M 419.5543493226959 4.970935491113309 L 419.5543493226959 253.75076930540212" stroke-opacity="0.6980392156862745" stroke-linecap="round" stroke-linejoin="round" stroke-miterlimit="10" stroke-width="1.5"/><path fill="none" stroke="rgb(0,0,0)" paint-order="fill stroke markers" d=" M 46.38459860126315 46.43424112682811 L 610.5249703913756 207.6172044954319" stroke-opacity="0.6980392156862745" stroke-linecap="round" stroke-linejoin="round" stroke-miterlimit="10" stroke-width="2.5"/><path fill="rgb(0,0,0)" stroke="none" paint-order="stroke fill markers" fill-rule="evenodd" d=" M 626.8708775012697 212.28746366968733 L 609.3574055978117 211.7036812729054 L 611.6925351849395 203.5307277179584 Z" fill-opacity="0.6980392156862745"/><path fill="rgb(153,102,255)" stroke="none" paint-order="stroke fill markers" d=" M 51.38459860126315 46.43424112682811 C 51.38459860126315 49.195664875982075 49.14602235041711 51.43424112682811 46.38459860126315 51.43424112682811 C 43.62317485210918 51.43424112682811 41.38459860126315 49.195664875982075 41.38459860126315 46.43424112682811 C 41.38459860126315 43.67281737767414 43.62317485210918 41.43424112682811 46.38459860126315 41.43424112682811 C 49.14602235041711 41.43424112682811 51.38459860126315 43.67281737767414 51.38459860126315 46.43424112682811 Z" fill-opacity="1"/><path fill="none" stroke="rgb(0,0,0)" paint-order="fill stroke markers" d=" M 51.38459860126315 46.43424112682811 C 51.38459860126315 49.195664875982075 49.14602235041711 51.43424112682811 46.38459860126315 51.43424112682811 C 43.62317485210918 51.43424112682811 41.38459860126315 49.195664875982075 41.38459860126315 46.43424112682811 C 41.38459860126315 43.67281737767414 43.62317485210918 41.43424112682811 46.38459860126315 41.43424112682811 C 49.14602235041711 41.43424112682811 51.38459860126315 43.67281737767414 51.38459860126315 46.43424112682811 Z" stroke-opacity="1" stroke-linecap="round" stroke-linejoin="round" stroke-miterlimit="10"/><g transform="scale(27,27)"><g transform="translate(0.4074074074074074,1.7777783333333332)"><path fill="rgb(153,102,255)" stroke="none" paint-order="stroke fill markers" d=" M 0.536 -0.401 Q 0.516 -0.41600000000000004 0.488 -0.41600000000000004 Q 0.461 -0.41600000000000004 0.4375 -0.392 Q 0.41400000000000003 -0.368 0.403 -0.325 Q 0.4 -0.316 0.385 -0.257 Q 0.37 -0.198 0.368 -0.189 Q 0.34600000000000003 -0.099 0.34600000000000003 -0.078 Q 0.34600000000000003 -0.028 0.402 -0.028 Q 0.44 -0.028 0.482 -0.0575 Q 0.524 -0.08700000000000001 0.544 -0.149 Q 0.548 -0.162 0.5670000000000001 -0.162 Q 0.591 -0.162 0.591 -0.148 Q 0.591 -0.134 0.578 -0.1095 Q 0.5650000000000001 -0.085 0.542 -0.058 Q 0.519 -0.031 0.48 -0.0115 Q 0.441 0.008 0.397 0.008 Q 0.295 0.008 0.259 -0.053 Q 0.215 0.008 0.152 0.008 Q 0.105 0.008 0.07150000000000001 -0.0165 Q 0.038 -0.041 0.038 -0.08 Q 0.038 -0.115 0.06 -0.1365 Q 0.082 -0.158 0.11 -0.158 Q 0.133 -0.158 0.1465 -0.14400000000000002 Q 0.16 -0.13 0.16 -0.112 Q 0.16 -0.091 0.1455 -0.07050000000000001 Q 0.131 -0.05 0.106 -0.043000000000000003 Q 0.126 -0.028 0.154 -0.028 Q 0.181 -0.028 0.20450000000000002 -0.051500000000000004 Q 0.228 -0.075 0.23900000000000002 -0.11900000000000001 L 0.273 -0.256 Q 0.296 -0.34800000000000003 0.296 -0.366 Q 0.296 -0.41600000000000004 0.24 -0.41600000000000004 Q 0.202 -0.41600000000000004 0.16 -0.3865 Q 0.11800000000000001 -0.357 0.098 -0.295 Q 0.094 -0.28200000000000003 0.075 -0.28200000000000003 Q 0.051000000000000004 -0.28200000000000003 0.051000000000000004 -0.296 Q 0.051000000000000004 -0.31 0.064 -0.3345 Q 0.077 -0.359 0.1 -0.386 Q 0.123 -0.41300000000000003 0.162 -0.4325 Q 0.201 -0.452 0.245 -0.452 Q 0.34700000000000003 -0.452 0.383 -0.391 Q 0.427 -0.452 0.49 -0.452 Q 0.537 -0.452 0.5705 -0.4275 Q 0.604 -0.403 0.604 -0.364 Q 0.604 -0.329 0.582 -0.3075 Q 0.56 -0.28600000000000003 0.532 -0.28600000000000003 Q 0.509 -0.28600000000000003 0.4955 -0.3 Q 0.482 -0.314 0.482 -0.332 Q 0.482 -0.353 0.4965 -0.3735 Q 0.511 -0.394 0.536 -0.401 Z"/></g></g><path fill="rgb(255,0,0)" stroke="none" paint-order="stroke fill markers" d=" M 631.8708775012697 212.28746366968733 C 631.8708775012697 215.0488874188413 629.6323012504237 217.28746366968733 626.8708775012697 217.28746366968733 C 624.1094537521157 217.28746366968733 621.8708775012697 215.0488874188413 621.8708775012697 212.28746366968733 C 621.8708775012697 209.52603992053335 624.1094537521157 207.28746366968733 626.8708775012697 207.28746366968733 C 629.6323012504237 207.28746366968733 631.8708775012697 209.52603992053335 631.8708775012697 212.28746366968733 Z" fill-opacity="1"/><path fill="none" stroke="rgb(0,0,0)" paint-order="fill stroke markers" d=" M 631.8708775012697 212.28746366968733 C 631.8708775012697 215.0488874188413 629.6323012504237 217.28746366968733 626.8708775012697 217.28746366968733 C 624.1094537521157 217.28746366968733 621.8708775012697 215.0488874188413 621.8708775012697 212.28746366968733 C 621.8708775012697 209.52603992053335 624.1094537521157 207.28746366968733 626.8708775012697 207.28746366968733 C 629.6323012504237 207.28746366968733 631.8708775012697 209.52603992053335 631.8708775012697 212.28746366968733 Z" stroke-opacity="1" stroke-linecap="round" stroke-linejoin="round" stroke-miterlimit="10"/><g transform="scale(27,27)"><g transform="translate(23.703703703703702,8.148148703703704)"><path fill="rgb(255,0,0)" stroke="none" paint-order="stroke fill markers" d=" M 0.577 -0.377 L 0.483 0.001 Q 0.461 0.09 0.3785 0.146 Q 0.296 0.202 0.20500000000000002 0.202 Q 0.145 0.202 0.108 0.178 Q 0.07100000000000001 0.154 0.07100000000000001 0.115 Q 0.07100000000000001 0.083 0.0925 0.061 Q 0.114 0.039 0.14300000000000002 0.039 Q 0.162 0.039 0.177 0.05 Q 0.192 0.061 0.192 0.085 Q 0.192 0.132 0.14400000000000002 0.152 Q 0.167 0.166 0.20500000000000002 0.166 Q 0.26 0.166 0.3085 0.116 Q 0.357 0.066 0.377 -0.022 Q 0.334 0.008 0.281 0.008 Q 0.254 0.008 0.2305 0.0035 Q 0.20700000000000002 -0.001 0.1805 -0.0135 Q 0.154 -0.026000000000000002 0.138 -0.054 Q 0.122 -0.082 0.122 -0.122 Q 0.122 -0.157 0.1355 -0.2005 Q 0.149 -0.244 0.182 -0.33 Q 0.199 -0.375 0.199 -0.395 Q 0.199 -0.405 0.196 -0.41000000000000003 Q 0.193 -0.41500000000000004 0.19 -0.41550000000000004 Q 0.187 -0.41600000000000004 0.182 -0.41600000000000004 Q 0.17400000000000002 -0.41600000000000004 0.1635 -0.41200000000000003 Q 0.153 -0.40800000000000003 0.1375 -0.3975 Q 0.122 -0.387 0.106 -0.3605 Q 0.09 -0.334 0.079 -0.295 Q 0.075 -0.28200000000000003 0.056 -0.28200000000000003 Q 0.032 -0.28200000000000003 0.032 -0.296 Q 0.032 -0.306 0.042 -0.3295 Q 0.052000000000000005 -0.353 0.07 -0.3815 Q 0.088 -0.41000000000000003 0.11950000000000001 -0.431 Q 0.151 -0.452 0.188 -0.452 Q 0.233 -0.452 0.267 -0.4275 Q 0.301 -0.403 0.301 -0.362 Q 0.301 -0.34600000000000003 0.28800000000000003 -0.312 Q 0.229 -0.16 0.229 -0.101 Q 0.229 -0.028 0.289 -0.028 Q 0.319 -0.028 0.357 -0.052000000000000005 Q 0.36 -0.054 0.3675 -0.06 Q 0.375 -0.066 0.3845 -0.078 Q 0.394 -0.09 0.396 -0.1 Q 0.403 -0.127 0.438 -0.266 L 0.464 -0.37 Q 0.468 -0.385 0.47100000000000003 -0.394 Q 0.47400000000000003 -0.403 0.482 -0.4165 Q 0.49 -0.43 0.5035000000000001 -0.437 Q 0.517 -0.444 0.535 -0.444 Q 0.557 -0.444 0.5695 -0.431 Q 0.582 -0.418 0.582 -0.4 Q 0.582 -0.395 0.577 -0.377 Z"/></g></g><g transform="scale(27,27)"><g transform="translate(12,15.612036925925926)"><path fill="rgb(0,0,0)" stroke="none" paint-order="stroke fill markers" d=" M 0.645 -0.682 L 0.739 -0.067 Q 0.741 -0.054 0.7435 -0.051500000000000004 Q 0.746 -0.049 0.755 -0.048 Q 0.769 -0.047 0.794 -0.047 Q 0.81 -0.047 0.8165 -0.0465 Q 0.8230000000000001 -0.046 0.8285 -0.042 Q 0.834 -0.038 0.834 -0.029 Q 0.834 -0.016 0.8280000000000001 -0.009000000000000001 Q 0.8220000000000001 -0.002 0.8175 -0.001 Q 0.8130000000000001 0 0.806 0 Q 0.794 0 0.771 -0.001 Q 0.748 -0.002 0.736 -0.002 Q 0.724 -0.002 0.7010000000000001 -0.0025 Q 0.678 -0.003 0.667 -0.003 Q 0.65 -0.003 0.592 -0.0015 Q 0.534 0 0.518 0 Q 0.496 0 0.496 -0.018000000000000002 Q 0.496 -0.032 0.502 -0.0385 Q 0.508 -0.045 0.514 -0.046 Q 0.52 -0.047 0.533 -0.047 Q 0.5740000000000001 -0.047 0.598 -0.052000000000000005 L 0.5750000000000001 -0.198 L 0.305 -0.198 L 0.213 -0.058 Q 0.23500000000000001 -0.047 0.271 -0.047 Q 0.297 -0.047 0.297 -0.029 Q 0.297 0 0.27 0 Q 0.252 0 0.215 -0.0015 Q 0.178 -0.003 0.159 -0.003 Q 0.14300000000000002 -0.003 0.111 -0.0015 Q 0.079 0 0.064 0 Q 0.056 0 0.0505 -0.0055 Q 0.045 -0.011 0.045 -0.018000000000000002 Q 0.045 -0.031 0.051000000000000004 -0.038 Q 0.057 -0.045 0.062 -0.046 Q 0.067 -0.047 0.077 -0.047 Q 0.111 -0.047 0.132 -0.0535 Q 0.153 -0.06 0.1595 -0.0665 Q 0.166 -0.073 0.17400000000000002 -0.085 L 0.5670000000000001 -0.686 Q 0.577 -0.7020000000000001 0.5855 -0.7065 Q 0.594 -0.711 0.611 -0.711 Q 0.63 -0.711 0.636 -0.706 Q 0.642 -0.7010000000000001 0.645 -0.682 M 0.524 -0.533 L 0.336 -0.245 L 0.5680000000000001 -0.245 L 0.524 -0.533 Z"/></g></g><g transform="scale(27,27)"><g transform="translate(4.481481481481482,10.647501977777779)"><path fill="rgb(0,100,0)" stroke="none" paint-order="stroke fill markers" d=" M 0.268 -0.314 L 0.268 -0.314 L 0.268 -0.092 Q 0.268 -0.051000000000000004 0.28 -0.043000000000000003 Q 0.291 -0.035 0.329 -0.035 Q 0.357 -0.035 0.357 -0.018000000000000002 Q 0.34800000000000003 -0.001 0.324 0 L 0.05 0 Q 0.02 0 0.017 -0.012 Q 0.016 -0.015 0.016 -0.018000000000000002 Q 0.016 -0.035 0.043000000000000003 -0.035 Q 0.09 -0.035 0.099 -0.049 Q 0.10400000000000001 -0.057 0.105 -0.077 L 0.105 -0.092 L 0.105 -0.593 Q 0.105 -0.635 0.092 -0.643 Q 0.081 -0.65 0.043000000000000003 -0.65 Q 0.016 -0.65 0.016 -0.667 Q 0.024 -0.684 0.05 -0.685 L 0.364 -0.685 Q 0.494 -0.685 0.5690000000000001 -0.625 L 0.5700000000000001 -0.624 Q 0.611 -0.59 0.624 -0.541 Q 0.629 -0.521 0.629 -0.498 Q 0.629 -0.369 0.489 -0.333 Q 0.47300000000000003 -0.328 0.454 -0.325 Q 0.495 -0.259 0.578 -0.14100000000000001 Q 0.652 -0.043000000000000003 0.6880000000000001 -0.035 Q 0.7030000000000001 -0.032 0.7030000000000001 -0.018000000000000002 Q 0.6940000000000001 -0.001 0.67 0 L 0.532 0 Q 0.508 0 0.503 -0.007 Q 0.501 -0.009000000000000001 0.499 -0.012 L 0.454 -0.082 L 0.304 -0.314 L 0.268 -0.314 M 0.461 -0.363 L 0.461 -0.363 Q 0.583 -0.385 0.593 -0.47800000000000004 Q 0.594 -0.488 0.594 -0.498 Q 0.594 -0.595 0.482 -0.631 Q 0.468 -0.636 0.454 -0.639 Q 0.492 -0.59 0.492 -0.497 Q 0.492 -0.404 0.461 -0.363 M 0.268 -0.596 L 0.268 -0.34900000000000003 Q 0.385 -0.34900000000000003 0.42 -0.373 Q 0.429 -0.38 0.436 -0.39 Q 0.457 -0.419 0.457 -0.497 Q 0.457 -0.613 0.395 -0.639 Q 0.37 -0.65 0.33 -0.65 Q 0.271 -0.65 0.268 -0.607 L 0.268 -0.596 M 0.132 -0.035 L 0.241 -0.035 Q 0.233 -0.053 0.233 -0.09 L 0.233 -0.599 Q 0.233 -0.634 0.246 -0.65 L 0.132 -0.65 Q 0.14 -0.632 0.14 -0.595 L 0.14 -0.09 Q 0.14 -0.053 0.132 -0.035 M 0.34500000000000003 -0.314 L 0.525 -0.035 L 0.622 -0.035 Q 0.548 -0.109 0.41600000000000004 -0.32 Q 0.386 -0.316 0.364 -0.316 Q 0.359 -0.316 0.34500000000000003 -0.314 Z"/></g><g transform="translate(5.203705481481482,10.228888577777779) scale(0.7,0.7)"><path fill="rgb(0,100,0)" stroke="none" paint-order="stroke fill markers" d=" M 0.449 -0.17400000000000002 L 0.449 -0.17400000000000002 L 0.421 0 L 0.05 0 Q 0.05 -0.025 0.056 -0.032 L 0.061 -0.037 L 0.253 -0.251 Q 0.358 -0.369 0.358 -0.47200000000000003 Q 0.358 -0.561 0.304 -0.607 L 0.303 -0.608 L 0.302 -0.608 Q 0.27 -0.635 0.224 -0.635 Q 0.152 -0.635 0.109 -0.5730000000000001 Q 0.097 -0.555 0.089 -0.533 Q 0.092 -0.534 0.10200000000000001 -0.534 Q 0.14200000000000002 -0.534 0.153 -0.498 L 0.153 -0.497 Q 0.155 -0.49 0.155 -0.482 Q 0.155 -0.442 0.117 -0.431 Q 0.109 -0.429 0.10300000000000001 -0.429 Q 0.066 -0.429 0.054 -0.46 Q 0.05 -0.47100000000000003 0.05 -0.485 Q 0.05 -0.562 0.109 -0.617 Q 0.162 -0.666 0.23700000000000002 -0.666 Q 0.34700000000000003 -0.666 0.40800000000000003 -0.592 Q 0.443 -0.549 0.448 -0.49 Q 0.449 -0.481 0.449 -0.47200000000000003 Q 0.449 -0.399 0.394 -0.333 Q 0.365 -0.299 0.304 -0.243 L 0.243 -0.189 L 0.233 -0.18 L 0.127 -0.077 L 0.307 -0.077 Q 0.395 -0.077 0.402 -0.085 Q 0.41200000000000003 -0.099 0.424 -0.17400000000000002 L 0.449 -0.17400000000000002 Z"/></g></g><g transform="scale(27,27)"><g transform="translate(20.14814814814815,10.684539014814815)"><path fill="rgb(0,100,0)" stroke="none" paint-order="stroke fill markers" d=" M 0.268 -0.314 L 0.268 -0.314 L 0.268 -0.092 Q 0.268 -0.051000000000000004 0.28 -0.043000000000000003 Q 0.291 -0.035 0.329 -0.035 Q 0.357 -0.035 0.357 -0.018000000000000002 Q 0.34800000000000003 -0.001 0.324 0 L 0.05 0 Q 0.02 0 0.017 -0.012 Q 0.016 -0.015 0.016 -0.018000000000000002 Q 0.016 -0.035 0.043000000000000003 -0.035 Q 0.09 -0.035 0.099 -0.049 Q 0.10400000000000001 -0.057 0.105 -0.077 L 0.105 -0.092 L 0.105 -0.593 Q 0.105 -0.635 0.092 -0.643 Q 0.081 -0.65 0.043000000000000003 -0.65 Q 0.016 -0.65 0.016 -0.667 Q 0.024 -0.684 0.05 -0.685 L 0.364 -0.685 Q 0.494 -0.685 0.5690000000000001 -0.625 L 0.5700000000000001 -0.624 Q 0.611 -0.59 0.624 -0.541 Q 0.629 -0.521 0.629 -0.498 Q 0.629 -0.369 0.489 -0.333 Q 0.47300000000000003 -0.328 0.454 -0.325 Q 0.495 -0.259 0.578 -0.14100000000000001 Q 0.652 -0.043000000000000003 0.6880000000000001 -0.035 Q 0.7030000000000001 -0.032 0.7030000000000001 -0.018000000000000002 Q 0.6940000000000001 -0.001 0.67 0 L 0.532 0 Q 0.508 0 0.503 -0.007 Q 0.501 -0.009000000000000001 0.499 -0.012 L 0.454 -0.082 L 0.304 -0.314 L 0.268 -0.314 M 0.461 -0.363 L 0.461 -0.363 Q 0.583 -0.385 0.593 -0.47800000000000004 Q 0.594 -0.488 0.594 -0.498 Q 0.594 -0.595 0.482 -0.631 Q 0.468 -0.636 0.454 -0.639 Q 0.492 -0.59 0.492 -0.497 Q 0.492 -0.404 0.461 -0.363 M 0.268 -0.596 L 0.268 -0.34900000000000003 Q 0.385 -0.34900000000000003 0.42 -0.373 Q 0.429 -0.38 0.436 -0.39 Q 0.457 -0.419 0.457 -0.497 Q 0.457 -0.613 0.395 -0.639 Q 0.37 -0.65 0.33 -0.65 Q 0.271 -0.65 0.268 -0.607 L 0.268 -0.596 M 0.132 -0.035 L 0.241 -0.035 Q 0.233 -0.053 0.233 -0.09 L 0.233 -0.599 Q 0.233 -0.634 0.246 -0.65 L 0.132 -0.65 Q 0.14 -0.632 0.14 -0.595 L 0.14 -0.09 Q 0.14 -0.053 0.132 -0.035 M 0.34500000000000003 -0.314 L 0.525 -0.035 L 0.622 -0.035 Q 0.548 -0.109 0.41600000000000004 -0.32 Q 0.386 -0.316 0.364 -0.316 Q 0.359 -0.316 0.34500000000000003 -0.314 Z"/></g><g transform="translate(20.87037214814815,10.265925614814815) scale(0.7,0.7)"><path fill="rgb(0,100,0)" stroke="none" paint-order="stroke fill markers" d=" M 0.449 -0.17400000000000002 L 0.449 -0.17400000000000002 L 0.421 0 L 0.05 0 Q 0.05 -0.025 0.056 -0.032 L 0.061 -0.037 L 0.253 -0.251 Q 0.358 -0.369 0.358 -0.47200000000000003 Q 0.358 -0.561 0.304 -0.607 L 0.303 -0.608 L 0.302 -0.608 Q 0.27 -0.635 0.224 -0.635 Q 0.152 -0.635 0.109 -0.5730000000000001 Q 0.097 -0.555 0.089 -0.533 Q 0.092 -0.534 0.10200000000000001 -0.534 Q 0.14200000000000002 -0.534 0.153 -0.498 L 0.153 -0.497 Q 0.155 -0.49 0.155 -0.482 Q 0.155 -0.442 0.117 -0.431 Q 0.109 -0.429 0.10300000000000001 -0.429 Q 0.066 -0.429 0.054 -0.46 Q 0.05 -0.47100000000000003 0.05 -0.485 Q 0.05 -0.562 0.109 -0.617 Q 0.162 -0.666 0.23700000000000002 -0.666 Q 0.34700000000000003 -0.666 0.40800000000000003 -0.592 Q 0.443 -0.549 0.448 -0.49 Q 0.449 -0.481 0.449 -0.47200000000000003 Q 0.449 -0.399 0.394 -0.333 Q 0.365 -0.299 0.304 -0.243 L 0.243 -0.189 L 0.233 -0.18 L 0.127 -0.077 L 0.307 -0.077 Q 0.395 -0.077 0.402 -0.085 Q 0.41200000000000003 -0.099 0.424 -0.17400000000000002 L 0.449 -0.17400000000000002 Z"/></g></g><path fill="rgb(102,204,255)" stroke="none" paint-order="stroke fill markers" d=" M 547.9442662298401 129.36085239825772 C 547.9442662298401 131.5699913975809 546.1534052291632 133.36085239825772 543.9442662298401 133.36085239825772 C 541.7351272305169 133.36085239825772 539.9442662298401 131.5699913975809 539.9442662298401 129.36085239825772 C 539.9442662298401 127.15171339893455 541.7351272305169 125.36085239825772 543.9442662298401 125.36085239825772 C 546.1534052291632 125.36085239825772 547.9442662298401 127.15171339893455 547.9442662298401 129.36085239825772 Z" fill-opacity="1"/><path fill="none" stroke="rgb(0,0,0)" paint-order="fill stroke markers" d=" M 547.9442662298401 129.36085239825772 C 547.9442662298401 131.5699913975809 546.1534052291632 133.36085239825772 543.9442662298401 133.36085239825772 C 541.7351272305169 133.36085239825772 539.9442662298401 131.5699913975809 539.9442662298401 129.36085239825772 C 539.9442662298401 127.15171339893455 541.7351272305169 125.36085239825772 543.9442662298401 125.36085239825772 C 546.1534052291632 125.36085239825772 547.9442662298401 127.15171339893455 547.9442662298401 129.36085239825772 Z" stroke-opacity="1" stroke-linecap="round" stroke-linejoin="round" stroke-miterlimit="10"/><path fill="rgb(102,204,255)" stroke="none" paint-order="stroke fill markers" d=" M 133.31120987269264 129.36085239825772 C 133.31120987269264 131.5699913975809 131.5203488720158 133.36085239825772 129.31120987269264 133.36085239825772 C 127.10207087336947 133.36085239825772 125.31120987269264 131.5699913975809 125.31120987269264 129.36085239825772 C 125.31120987269264 127.15171339893455 127.10207087336947 125.36085239825772 129.31120987269264 125.36085239825772 C 131.5203488720158 125.36085239825772 133.31120987269264 127.15171339893455 133.31120987269264 129.36085239825772 Z" fill-opacity="1"/><path fill="none" stroke="rgb(0,0,0)" paint-order="fill stroke markers" d=" M 133.31120987269264 129.36085239825772 C 133.31120987269264 131.5699913975809 131.5203488720158 133.36085239825772 129.31120987269264 133.36085239825772 C 127.10207087336947 133.36085239825772 125.31120987269264 131.5699913975809 125.31120987269264 129.36085239825772 C 125.31120987269264 127.15171339893455 127.10207087336947 125.36085239825772 129.31120987269264 125.36085239825772 C 131.5203488720158 125.36085239825772 133.31120987269264 127.15171339893455 133.31120987269264 129.36085239825772 Z" stroke-opacity="1" stroke-linecap="round" stroke-linejoin="round" stroke-miterlimit="10"/></g></g></svg>