<svg version="1.1" xmlns="http://www.w3.org/2000/svg" xmlns:xlink="http://www.w3.org/1999/xlink" width="675" height="301"><defs><clipPath id="DkmgLiJmgQtN"><path fill="none" stroke="none" d=" M 0 0 L 675 0 L 675 301 L 0 301 L 0 0 Z"/></clipPath></defs><g transform="scale(1,1)" clip-path="url(#DkmgLiJmgQtN)"><g><path fill="none" stroke="rgb(224,224,224)" paint-order="fill stroke markers" d=" M 253.7011267798369 253.75076930540212 L 4.921292965548403 253.75076930540212" stroke-opacity="1" stroke-linecap="round" stroke-linejoin="round" stroke-miterlimit="10" stroke-width="1.5"/><path fill="none" stroke="rgb(224,224,224)" paint-order="fill stroke markers" d=" M 253.7011267798369 212.28746366968733 L 4.921292965548403 212.28746366968733" stroke-opacity="1" stroke-linecap="round" stroke-linejoin="round" stroke-miterlimit="10" stroke-width="1.5"/><path fill="none" stroke="rgb(224,224,224)" paint-order="fill stroke markers" d=" M 253.7011267798369 170.82415803397254 L 4.921292965548403 170.82415803397254" stroke-opacity="1" stroke-linecap="round" stroke-linejoin="round" stroke-miterlimit="10" stroke-width="1.5"/><path fill="none" stroke="rgb(224,224,224)" paint-order="fill stroke markers" d=" M 253.7011267798369 129.36085239825772 L 4.921292965548403 129.36085239825772" stroke-opacity="1" stroke-linecap="round" stroke-linejoin="round" stroke-miterlimit="10" stroke-width="1.5"/><path fill="none" stroke="rgb(224,224,224)" paint-order="fill stroke markers" d=" M 253.7011267798369 87.89754676254292 L 4.921292965548403 87.89754676254292" stroke-opacity="1" stroke-linecap="round" stroke-linejoin="round" stroke-miterlimit="10" stroke-width="1.5"/><path fill="none" stroke="rgb(224,224,224)" paint-order="fill stroke markers" d=" M 253.7011267798369 46.43424112682811 L 4.921292965548403 46.43424112682811" stroke-opacity="1" stroke-linecap="round" stroke-linejoin="round" stroke-miterlimit="10" stroke-width="1.5"/><path fill="none" stroke="rgb(224,224,224)" paint-order="fill stroke markers" d=" M 253.7011267798369 4.970935491113309 L 4.921292965548403 4.970935491113309" stroke-opacity="1" stroke-linecap="round" stroke-linejoin="round" stroke-miterlimit="10" stroke-width="1.5"/><path fill="none" stroke="rgb(224,224,224)" paint-order="fill stroke markers" d=" M 253.7011267798369 253.75076930540212 L 253.7011267798369 253.75076930540212" stroke-opacity="1" stroke-linecap="round" stroke-linejoin="round" stroke-miterlimit="10" stroke-width="1.5"/><path fill="none" stroke="rgb(224,224,224)" paint-order="fill stroke markers" d=" M 253.7011267798369 253.75076930540212 L 4.921292965548403 4.970935491113309" stroke-opacity="1" stroke-linecap="round" stroke-linejoin="round" stroke-miterlimit="10" stroke-width="1.5"/><path fill="none" stroke="rgb(224,224,224)" paint-order="fill stroke markers" d=" M 4.921292965548403 253.75076930540212 L 4.921292965548403 253.75076930540212" stroke-opacity="1" stroke-linecap="round" stroke-linejoin="round" stroke-miterlimit="10" stroke-width="1.5"/><path fill="none" stroke="rgb(224,224,224)" paint-order="fill stroke markers" d=" M 87.8479042369779 253.75076930540212 L 4.921292965548403 170.82415803397254" stroke-opacity="1" stroke-linecap="round" stroke-linejoin="round" stroke-miterlimit="10" stroke-width="1.5"/><path fill="none" stroke="rgb(224,224,224)" paint-order="fill stroke markers" d=" M 170.77451550840738 253.75076930540212 L 4.921292965548403 87.89754676254292" stroke-opacity="1" stroke-linecap="round" stroke-linejoin="round" stroke-miterlimit="10" stroke-width="1.5"/><path fill="none" stroke="rgb(224,224,224)" paint-order="fill stroke markers" d=" M 253.7011267798369 253.75076930540212 L 4.921292965548403 4.970935491113309" stroke-opacity="1" stroke-linecap="round" stroke-linejoin="round" stroke-miterlimit="10" stroke-width="1.5"/><path fill="none" stroke="rgb(224,224,224)" paint-order="fill stroke markers" d=" M 253.7011267798369 253.75076930540212 L 4.921292965548403 4.970935491113309" stroke-opacity="1" stroke-linecap="round" stroke-linejoin="round" stroke-miterlimit="10" stroke-width="1.5"/><path fill="none" stroke="rgb(224,224,224)" paint-order="fill stroke markers" d=" M 253.7011267798369 170.82415803397254 L 87.8479042369779 4.970935491113309" stroke-opacity="1" stroke-linecap="round" stroke-linejoin="round" stroke-miterlimit="10" stroke-width="1.5"/><path fill="none" stroke="rgb(224,224,224)" paint-order="fill stroke markers" d=" M 253.7011267798369 87.89754676254292 L 170.77451550840738 4.970935491113309" stroke-opacity="1" stroke-linecap="round" stroke-linejoin="round" stroke-miterlimit="10" stroke-width="1.5"/><path fill="none" stroke="rgb(224,224,224)" paint-order="fill stroke markers" d=" M 253.7011267798369 4.970935491113309 L 253.7011267798369 4.970935491113309" stroke-opacity="1" stroke-linecap="round" stroke-linejoin="round" stroke-miterlimit="10" stroke-width="1.5"/><path fill="none" stroke="rgb(224,224,224)" paint-order="fill stroke markers" d=" M 253.7011267798369 253.75076930540212 L 4.921292965548403 4.970935491113309" stroke-opacity="1" stroke-linecap="round" stroke-linejoin="round" stroke-miterlimit="10" stroke-width="1.5"/><path fill="none" stroke="rgb(224,224,224)" paint-order="fill stroke markers" d=" M 4.921292965548403 4.970935491113309 L 4.921292965548403 4.970935491113309" stroke-opacity="1" stroke-linecap="round" stroke-linejoin="round" stroke-miterlimit="10" stroke-width="1.5"/><path fill="none" stroke="rgb(224,224,224)" paint-order="fill stroke markers" d=" M 668.3341831369844 253.75076930540212 L 419.5543493226959 253.75076930540212" stroke-opacity="1" stroke-linecap="round" stroke-linejoin="round" stroke-miterlimit="10" stroke-width="1.5"/><path fill="none" stroke="rgb(224,224,224)" paint-order="fill stroke markers" d=" M 668.3341831369844 212.28746366968733 L 419.5543493226959 212.28746366968733" stroke-opacity="1" stroke-linecap="round" stroke-linejoin="round" stroke-miterlimit="10" stroke-width="1.5"/><path fill="none" stroke="rgb(224,224,224)" paint-order="fill stroke markers" d=" M 668.3341831369844 170.82415803397254 L 419.5543493226959 170.82415803397254" stroke-opacity="1" stroke-linecap="round" stroke-linejoin="round" stroke-miterlimit="10" stroke-width="1.5"/><path fill="none" stroke="rgb(224,224,224)" paint-order="fill stroke markers" d=" M 668.3341831369844 129.36085239825772 L 419.5543493226959 129.36085239825772" stroke-opacity="1" stroke-linecap="round" stroke-linejoin="round" stroke-miterlimit="10" stroke-width="1.5"/><path fill="none" stroke="rgb(224,224,224)" paint-order="fill stroke markers" d=" M 668.3341831369844 87.89754676254292 L 419.5543493226959 87.89754676254292" stroke-opacity="1" stroke-linecap="round" stroke-linejoin="round" stroke-miterlimit="10" stroke-width="1.5"/><path fill="none" stroke="rgb(224,224,224)" paint-order="fill stroke markers" d=" M 668.3341831369844 46.43424112682811 L 419.5543493226959 46.43424112682811" stroke-opacity="1" stroke-linecap="round" stroke-linejoin="round" stroke-miterlimit="10" stroke-width="1.5"/><path fill="none" stroke="rgb(224,224,224)" paint-order="fill stroke markers" d=" M 668.3341831369844 4.970935491113309 L 419.5543493226959 4.970935491113309" stroke-opacity="1" stroke-linecap="round" stroke-linejoin="round" stroke-miterlimit="10" stroke-width="1.5"/><path fill="none" stroke="rgb(224,224,224)" paint-order="fill stroke markers" d=" M 668.3341831369844 253.75076930540212 L 668.3341831369844 253.75076930540212" stroke-opacity="1" stroke-linecap="round" stroke-linejoin="round" stroke-miterlimit="10" stroke-width="1.5"/><path fill="none" stroke="rgb(224,224,224)" paint-order="fill stroke markers" d=" M 668.3341831369844 253.75076930540212 L 419.5543493226959 4.970935491113309" stroke-opacity="1" stroke-linecap="round" stroke-linejoin="round" stroke-miterlimit="10" stroke-width="1.5"/><path fill="none" stroke="rgb(224,224,224)" paint-order="fill stroke markers" d=" M 419.5543493226959 253.75076930540212 L 419.5543493226959 253.75076930540212" stroke-opacity="1" stroke-linecap="round" stroke-linejoin="round" stroke-miterlimit="10" stroke-width="1.5"/><path fill="none" stroke="rgb(224,224,224)" paint-order="fill stroke markers" d=" M 502.48096059412535 253.75076930540212 L 419.5543493226959 170.82415803397254" stroke-opacity="1" stroke-linecap="round" stroke-linejoin="round" stroke-miterlimit="10" stroke-width="1.5"/><path fill="none" stroke="rgb(224,224,224)" paint-order="fill stroke markers" d=" M 585.4075718655549 253.75076930540212 L 419.5543493226959 87.89754676254292" stroke-opacity="1" stroke-linecap="round" stroke-linejoin="round" stroke-miterlimit="10" stroke-width="1.5"/><path fill="none" stroke="rgb(224,224,224)" paint-order="fill stroke markers" d=" M 668.3341831369844 253.75076930540212 L 419.5543493226959 4.970935491113309" stroke-opacity="1" stroke-linecap="round" stroke-linejoin="round" stroke-miterlimit="10" stroke-width="1.5"/><path fill="none" stroke="rgb(224,224,224)" paint-order="fill stroke markers" d=" M 668.3341831369844 253.75076930540212 L 419.5543493226959 4.970935491113309" stroke-opacity="1" stroke-linecap="round" stroke-linejoin="round" stroke-miterlimit="10" stroke-width="1.5"/><path fill="none" stroke="rgb(224,224,224)" paint-order="fill stroke markers" d=" M 668.3341831369844 170.82415803397254 L 502.48096059412535 4.970935491113309" stroke-opacity="1" stroke-linecap="round" stroke-linejoin="round" stroke-miterlimit="10" stroke-width="1.5"/><path fill="none" stroke="rgb(224,224,224)" paint-order="fill stroke markers" d=" M 668.3341831369844 87.89754676254292 L 585.4075718655549 4.970935491113309" stroke-opacity="1" stroke-linecap="round" stroke-linejoin="round" stroke-miterlimit="10" stroke-width="1.5"/><path fill="none" stroke="rgb(224,224,224)" paint-order="fill stroke markers" d=" M 668.3341831369844 4.970935491113309 L 668.3341831369844 4.970935491113309" stroke-opacity="1" stroke-linecap="round" stroke-linejoin="round" stroke-miterlimit="10" stroke-width="1.5"/><path fill="none" stroke="rgb(224,224,224)" paint-order="fill stroke markers" d=" M 668.3341831369844 253.75076930540212 L 419.5543493226959 4.970935491113309" stroke-opacity="1" stroke-linecap="round" stroke-linejoin="round" stroke-miterlimit="10" stroke-width="1.5"/><path fill="none" stroke="rgb(224,224,224)" paint-order="fill stroke markers" d=" M 419.5543493226959 4.970935491113309 L 419.5543493226959 4.970935491113309" stroke-opacity="1" stroke-linecap="round" stroke-linejoin="round" stroke-miterlimit="10" stroke-width="1.5"/><path fill="rgb(102,0,204)" stroke="none" paint-order="stroke fill markers" fill-rule="evenodd" d=" M 4.921292965548403 253.75076930540212 L 253.7011267798369 253.75076930540212 L 253.7011267798369 4.970935491113309 L 4.921292965548403 4.970935491113309 Z" fill-opacity="0.09803921568627451"/><path fill="rgb(102,204,255)" stroke="none" paint-order="stroke fill markers" fill-rule="evenodd" d=" M 419.5543493226959 253.75076930540212 L 668.3341831369844 253.75076930540212 L 668.3341831369844 4.970935491113309 L 419.5543493226959 4.970935491113309 Z" fill-opacity="0.09803921568627451"/><path fill="none" stroke="rgb(102,0,204)" paint-order="fill stroke markers" d=" M 4.921292965548403 253.75076930540212 L 253.7011267798369 253.75076930540212" stroke-opacity="0.6980392156862745" stroke-linecap="round" stroke-linejoin="round" stroke-miterlimit="10" stroke-width="1.5"/><path fill="none" stroke="rgb(102,0,204)" paint-order="fill stroke markers" d=" M 253.7011267798369 253.75076930540212 L 253.7011267798369 4.970935491113309" stroke-opacity="0.6980392156862745" stroke-linecap="round" stroke-linejoin="round" stroke-miterlimit="10" stroke-width="1.5"/><path fill="none" stroke="rgb(102,0,204)" paint-order="fill stroke markers" d=" M 253.7011267798369 4.970935491113309 L 4.921292965548403 4.970935491113309" stroke-opacity="0.6980392156862745" stroke-linecap="round" stroke-linejoin="round" stroke-miterlimit="10" stroke-width="1.5"/><path fill="none" stroke="rgb(102,0,204)" paint-order="fill stroke markers" d=" M 4.921292965548403 4.970935491113309 L 4.921292965548403 253.75076930540212" stroke-opacity="0.6980392156862745" stroke-linecap="round" stroke-linejoin="round" stroke-miterlimit="10" stroke-width="1.5"/><path fill="none" stroke="rgb(102,204,255)" paint-order="fill stroke markers" d=" M 419.5543493226959 253.75076930540212 L 668.3341831369844 253.75076930540212" stroke-opacity="0.6980392156862745" stroke-linecap="round" stroke-linejoin="round" stroke-miterlimit="10" stroke-width="1.5"/><path fill="none" stroke="rgb(102,204,255)" paint-order="fill stroke markers" d=" M 668.3341831369844 253.75076930540212 L 668.3341831369844 4.970935491113309" stroke-opacity="0.6980392156862745" stroke-linecap="round" stroke-linejoin="round" stroke-miterlimit="10" stroke-width="1.5"/><path fill="none" stroke="rgb(102,204,255)" paint-order="fill stroke markers" d=" M 668.3341831369844 4.970935491113309 L 419.5543493226959 4.970935491113309" stroke-opacity="0.6980392156862745" stroke-linecap="round" stroke-linejoin="round" stroke-miterlimit="10" stroke-width="1.5"/><path fill="none" stroke="rgb(102,204,255)" paint-order="fill stroke markers" d=" M 419.5543493226959 4.970935491113309 L 419.5543493226959 253.75076930540212" stroke-opacity="0.6980392156862745" stroke-linecap="round" stroke-linejoin="round" stroke-miterlimit="10" stroke-width="1.5"/><path fill="none" stroke="rgb(0,0,0)" paint-order="fill stroke markers" d=" M 129.31120987269264 129.36085239825772 L 195.23782114412214 129.36085239825772" stroke-opacity="0.6980392156862745" stroke-linecap="round" stroke-linejoin="round" stroke-miterlimit="10" stroke-width="2.5"/><path fill="rgb(0,0,0)" stroke="none" paint-order="stroke fill markers" fill-rule="evenodd" d=" M 212.23782114412214 129.36085239825772 L 195.23782114412214 133.61085239825772 L 195.23782114412214 125.11085239825772 Z" fill-opacity="0.6980392156862745"/><g transform="scale(27,27)"><g transform="translate(6.333333333333333,5.7037042592592595)"><path fill="rgb(0,0,0)" stroke="none" paint-order="stroke fill markers" d=" M 0.052000000000000005 0.129 L 0.169 -0.336 Q 0.17500000000000002 -0.357 0.17500000000000002 -0.379 Q 0.17500000000000002 -0.41600000000000004 0.152 -0.41600000000000004 Q 0.109 -0.41600000000000004 0.084 -0.316 Q 0.077 -0.28800000000000003 0.076 -0.28700000000000003 Q 0.07100000000000001 -0.28200000000000003 0.056 -0.28200000000000003 Q 0.032 -0.28200000000000003 0.032 -0.296 Q 0.032 -0.304 0.043000000000000003 -0.3365 Q 0.054 -0.369 0.07 -0.395 Q 0.10300000000000001 -0.452 0.157 -0.452 Q 0.234 -0.452 0.272 -0.398 Q 0.33 -0.452 0.41100000000000003 -0.452 Q 0.483 -0.452 0.5345 -0.41200000000000003 Q 0.586 -0.372 0.586 -0.28700000000000003 Q 0.586 -0.176 0.5065000000000001 -0.084 Q 0.427 0.008 0.304 0.008 Q 0.242 0.008 0.203 -0.028 L 0.16 0.146 Q 0.17300000000000001 0.147 0.203 0.147 Q 0.229 0.147 0.229 0.165 Q 0.229 0.194 0.203 0.194 Q 0.186 0.194 0.15 0.1925 Q 0.114 0.191 0.096 0.191 Q 0.081 0.191 0.0495 0.1925 Q 0.018000000000000002 0.194 0.004 0.194 Q -0.015 0.194 -0.015 0.17500000000000002 Q -0.015 0.162 -0.009000000000000001 0.1555 Q -0.003 0.149 0.003 0.148 Q 0.009000000000000001 0.147 0.02 0.147 Q 0.04 0.147 0.046 0.145 Q 0.048 0.14300000000000002 0.052000000000000005 0.129 M 0.28200000000000003 -0.35100000000000003 L 0.221 -0.1 L 0.219 -0.08600000000000001 Q 0.219 -0.07200000000000001 0.2415 -0.05 Q 0.264 -0.028 0.302 -0.028 Q 0.381 -0.028 0.423 -0.126 Q 0.437 -0.16 0.455 -0.232 Q 0.47300000000000003 -0.304 0.47300000000000003 -0.34 Q 0.47300000000000003 -0.41600000000000004 0.406 -0.41600000000000004 Q 0.372 -0.41600000000000004 0.339 -0.3975 Q 0.306 -0.379 0.28200000000000003 -0.35100000000000003 Z"/></g><g transform="translate(6.934257333333333,5.85370425925926) scale(0.7,0.7)"><path fill="rgb(0,0,0)" stroke="none" paint-order="stroke fill markers" d=" M 0.354 -0.623 L 0.354 -0.047 L 0.494 -0.047 L 0.494 0 Q 0.45 -0.003 0.295 -0.003 Q 0.14 -0.003 0.096 0 L 0.096 -0.047 L 0.23500000000000001 -0.047 L 0.23500000000000001 -0.5640000000000001 Q 0.17300000000000001 -0.544 0.105 -0.544 L 0.085 -0.544 L 0.085 -0.591 L 0.105 -0.591 Q 0.229 -0.591 0.306 -0.648 Q 0.315 -0.655 0.328 -0.655 Q 0.34600000000000003 -0.655 0.35000000000000003 -0.6485 Q 0.354 -0.642 0.354 -0.623 Z"/></g></g><path fill="none" stroke="rgb(0,0,0)" paint-order="fill stroke markers" d=" M 129.31120987269264 129.36085239825772 L 99.8687195171492 99.91836204271424" stroke-opacity="0.6980392156862745" stroke-linecap="round" stroke-linejoin="round" stroke-miterlimit="10" stroke-width="2.5"/><path fill="rgb(0,0,0)" stroke="none" paint-order="stroke fill markers" fill-rule="evenodd" d=" M 87.8479042369779 87.89754676254292 L 102.87392333719202 96.91315822267141 L 96.86351569710638 102.92356586275706 Z" fill-opacity="0.6980392156862745"/><g transform="scale(27,27)"><g transform="translate(2.5925925925925926,4.333333888888889)"><path fill="rgb(0,0,0)" stroke="none" paint-order="stroke fill markers" d=" M 0.052000000000000005 0.129 L 0.169 -0.336 Q 0.17500000000000002 -0.357 0.17500000000000002 -0.379 Q 0.17500000000000002 -0.41600000000000004 0.152 -0.41600000000000004 Q 0.109 -0.41600000000000004 0.084 -0.316 Q 0.077 -0.28800000000000003 0.076 -0.28700000000000003 Q 0.07100000000000001 -0.28200000000000003 0.056 -0.28200000000000003 Q 0.032 -0.28200000000000003 0.032 -0.296 Q 0.032 -0.304 0.043000000000000003 -0.3365 Q 0.054 -0.369 0.07 -0.395 Q 0.10300000000000001 -0.452 0.157 -0.452 Q 0.234 -0.452 0.272 -0.398 Q 0.33 -0.452 0.41100000000000003 -0.452 Q 0.483 -0.452 0.5345 -0.41200000000000003 Q 0.586 -0.372 0.586 -0.28700000000000003 Q 0.586 -0.176 0.5065000000000001 -0.084 Q 0.427 0.008 0.304 0.008 Q 0.242 0.008 0.203 -0.028 L 0.16 0.146 Q 0.17300000000000001 0.147 0.203 0.147 Q 0.229 0.147 0.229 0.165 Q 0.229 0.194 0.203 0.194 Q 0.186 0.194 0.15 0.1925 Q 0.114 0.191 0.096 0.191 Q 0.081 0.191 0.0495 0.1925 Q 0.018000000000000002 0.194 0.004 0.194 Q -0.015 0.194 -0.015 0.17500000000000002 Q -0.015 0.162 -0.009000000000000001 0.1555 Q -0.003 0.149 0.003 0.148 Q 0.009000000000000001 0.147 0.02 0.147 Q 0.04 0.147 0.046 0.145 Q 0.048 0.14300000000000002 0.052000000000000005 0.129 M 0.28200000000000003 -0.35100000000000003 L 0.221 -0.1 L 0.219 -0.08600000000000001 Q 0.219 -0.07200000000000001 0.2415 -0.05 Q 0.264 -0.028 0.302 -0.028 Q 0.381 -0.028 0.423 -0.126 Q 0.437 -0.16 0.455 -0.232 Q 0.47300000000000003 -0.304 0.47300000000000003 -0.34 Q 0.47300000000000003 -0.41600000000000004 0.406 -0.41600000000000004 Q 0.372 -0.41600000000000004 0.339 -0.3975 Q 0.306 -0.379 0.28200000000000003 -0.35100000000000003 Z"/></g><g transform="translate(3.1935165925925926,4.48333388888889) scale(0.7,0.7)"><path fill="rgb(0,0,0)" stroke="none" paint-order="stroke fill markers" d=" M 0.517 -0.222 L 0.486 0 L 0.057 0 L 0.057 -0.018000000000000002 Q 0.057 -0.034 0.059000000000000004 -0.0385 Q 0.061 -0.043000000000000003 0.07 -0.052000000000000005 L 0.271 -0.257 Q 0.379 -0.367 0.379 -0.465 Q 0.379 -0.525 0.34400000000000003 -0.5665 Q 0.309 -0.608 0.247 -0.608 Q 0.186 -0.608 0.14400000000000002 -0.5730000000000001 Q 0.155 -0.5700000000000001 0.166 -0.5645 Q 0.177 -0.559 0.189 -0.542 Q 0.201 -0.525 0.201 -0.501 Q 0.201 -0.466 0.1785 -0.4475 Q 0.156 -0.429 0.129 -0.429 Q 0.10400000000000001 -0.429 0.0805 -0.4465 Q 0.057 -0.464 0.057 -0.503 Q 0.057 -0.5700000000000001 0.11850000000000001 -0.6125 Q 0.18 -0.655 0.272 -0.655 Q 0.379 -0.655 0.448 -0.603 Q 0.517 -0.551 0.517 -0.466 Q 0.517 -0.431 0.507 -0.404 Q 0.497 -0.377 0.46900000000000003 -0.34750000000000003 Q 0.441 -0.318 0.417 -0.299 Q 0.393 -0.28 0.339 -0.24 Q 0.292 -0.20600000000000002 0.195 -0.125 L 0.342 -0.125 Q 0.433 -0.125 0.444 -0.131 Q 0.457 -0.138 0.47000000000000003 -0.222 L 0.517 -0.222 Z"/></g></g><path fill="none" stroke="rgb(0,0,0)" paint-order="fill stroke markers" d=" M 543.9442662298401 129.36085239825772 L 514.5017758742966 99.91836204271424" stroke-opacity="0.6980392156862745" stroke-linecap="round" stroke-linejoin="round" stroke-miterlimit="10" stroke-width="2.5"/><path fill="rgb(0,0,0)" stroke="none" paint-order="stroke fill markers" fill-rule="evenodd" d=" M 502.48096059412535 87.89754676254292 L 517.5069796943395 96.91315822267141 L 511.4965720542538 102.92356586275706 Z" fill-opacity="0.6980392156862745"/><g transform="scale(27,27)"><g transform="translate(17.962962962962962,4.370370925925926)"><path fill="rgb(0,0,0)" stroke="none" paint-order="stroke fill markers" d=" M 0.052000000000000005 0.129 L 0.169 -0.336 Q 0.17500000000000002 -0.357 0.17500000000000002 -0.379 Q 0.17500000000000002 -0.41600000000000004 0.152 -0.41600000000000004 Q 0.109 -0.41600000000000004 0.084 -0.316 Q 0.077 -0.28800000000000003 0.076 -0.28700000000000003 Q 0.07100000000000001 -0.28200000000000003 0.056 -0.28200000000000003 Q 0.032 -0.28200000000000003 0.032 -0.296 Q 0.032 -0.304 0.043000000000000003 -0.3365 Q 0.054 -0.369 0.07 -0.395 Q 0.10300000000000001 -0.452 0.157 -0.452 Q 0.234 -0.452 0.272 -0.398 Q 0.33 -0.452 0.41100000000000003 -0.452 Q 0.483 -0.452 0.5345 -0.41200000000000003 Q 0.586 -0.372 0.586 -0.28700000000000003 Q 0.586 -0.176 0.5065000000000001 -0.084 Q 0.427 0.008 0.304 0.008 Q 0.242 0.008 0.203 -0.028 L 0.16 0.146 Q 0.17300000000000001 0.147 0.203 0.147 Q 0.229 0.147 0.229 0.165 Q 0.229 0.194 0.203 0.194 Q 0.186 0.194 0.15 0.1925 Q 0.114 0.191 0.096 0.191 Q 0.081 0.191 0.0495 0.1925 Q 0.018000000000000002 0.194 0.004 0.194 Q -0.015 0.194 -0.015 0.17500000000000002 Q -0.015 0.162 -0.009000000000000001 0.1555 Q -0.003 0.149 0.003 0.148 Q 0.009000000000000001 0.147 0.02 0.147 Q 0.04 0.147 0.046 0.145 Q 0.048 0.14300000000000002 0.052000000000000005 0.129 M 0.28200000000000003 -0.35100000000000003 L 0.221 -0.1 L 0.219 -0.08600000000000001 Q 0.219 -0.07200000000000001 0.2415 -0.05 Q 0.264 -0.028 0.302 -0.028 Q 0.381 -0.028 0.423 -0.126 Q 0.437 -0.16 0.455 -0.232 Q 0.47300000000000003 -0.304 0.47300000000000003 -0.34 Q 0.47300000000000003 -0.41600000000000004 0.406 -0.41600000000000004 Q 0.372 -0.41600000000000004 0.339 -0.3975 Q 0.306 -0.379 0.28200000000000003 -0.35100000000000003 Z"/></g><g transform="translate(18.56388696296296,4.520370925925926) scale(0.7,0.7)"><path fill="rgb(0,0,0)" stroke="none" paint-order="stroke fill markers" d=" M 0.517 -0.222 L 0.486 0 L 0.057 0 L 0.057 -0.018000000000000002 Q 0.057 -0.034 0.059000000000000004 -0.0385 Q 0.061 -0.043000000000000003 0.07 -0.052000000000000005 L 0.271 -0.257 Q 0.379 -0.367 0.379 -0.465 Q 0.379 -0.525 0.34400000000000003 -0.5665 Q 0.309 -0.608 0.247 -0.608 Q 0.186 -0.608 0.14400000000000002 -0.5730000000000001 Q 0.155 -0.5700000000000001 0.166 -0.5645 Q 0.177 -0.559 0.189 -0.542 Q 0.201 -0.525 0.201 -0.501 Q 0.201 -0.466 0.1785 -0.4475 Q 0.156 -0.429 0.129 -0.429 Q 0.10400000000000001 -0.429 0.0805 -0.4465 Q 0.057 -0.464 0.057 -0.503 Q 0.057 -0.5700000000000001 0.11850000000000001 -0.6125 Q 0.18 -0.655 0.272 -0.655 Q 0.379 -0.655 0.448 -0.603 Q 0.517 -0.551 0.517 -0.466 Q 0.517 -0.431 0.507 -0.404 Q 0.497 -0.377 0.46900000000000003 -0.34750000000000003 Q 0.441 -0.318 0.417 -0.299 Q 0.393 -0.28 0.339 -0.24 Q 0.292 -0.20600000000000002 0.195 -0.125 L 0.342 -0.125 Q 0.433 -0.125 0.444 -0.131 Q 0.457 -0.138 0.47000000000000003 -0.222 L 0.517 -0.222 Z"/></g></g><path fill="none" stroke="rgb(0,0,0)" paint-order="fill stroke markers" d=" M 543.9442662298401 129.36085239825772 L 609.8708775012697 129.36085239825772" stroke-opacity="0.6980392156862745" stroke-linecap="round" stroke-linejoin="round" stroke-miterlimit="10" stroke-width="2.5"/><path fill="rgb(0,0,0)" stroke="none" paint-order="stroke fill markers" fill-rule="evenodd" d=" M 626.8708775012697 129.36085239825772 L 609.8708775012697 133.61085239825772 L 609.8708775012697 125.11085239825772 Z" fill-opacity="0.6980392156862745"/><g transform="scale(27,27)"><g transform="translate(21.703703703703702,5.777778333333333)"><path fill="rgb(0,0,0)" stroke="none" paint-order="stroke fill markers" d=" M 0.052000000000000005 0.129 L 0.169 -0.336 Q 0.17500000000000002 -0.357 0.17500000000000002 -0.379 Q 0.17500000000000002 -0.41600000000000004 0.152 -0.41600000000000004 Q 0.109 -0.41600000000000004 0.084 -0.316 Q 0.077 -0.28800000000000003 0.076 -0.28700000000000003 Q 0.07100000000000001 -0.28200000000000003 0.056 -0.28200000000000003 Q 0.032 -0.28200000000000003 0.032 -0.296 Q 0.032 -0.304 0.043000000000000003 -0.3365 Q 0.054 -0.369 0.07 -0.395 Q 0.10300000000000001 -0.452 0.157 -0.452 Q 0.234 -0.452 0.272 -0.398 Q 0.33 -0.452 0.41100000000000003 -0.452 Q 0.483 -0.452 0.5345 -0.41200000000000003 Q 0.586 -0.372 0.586 -0.28700000000000003 Q 0.586 -0.176 0.5065000000000001 -0.084 Q 0.427 0.008 0.304 0.008 Q 0.242 0.008 0.203 -0.028 L 0.16 0.146 Q 0.17300000000000001 0.147 0.203 0.147 Q 0.229 0.147 0.229 0.165 Q 0.229 0.194 0.203 0.194 Q 0.186 0.194 0.15 0.1925 Q 0.114 0.191 0.096 0.191 Q 0.081 0.191 0.0495 0.1925 Q 0.018000000000000002 0.194 0.004 0.194 Q -0.015 0.194 -0.015 0.17500000000000002 Q -0.015 0.162 -0.009000000000000001 0.1555 Q -0.003 0.149 0.003 0.148 Q 0.009000000000000001 0.147 0.02 0.147 Q 0.04 0.147 0.046 0.145 Q 0.048 0.14300000000000002 0.052000000000000005 0.129 M 0.28200000000000003 -0.35100000000000003 L 0.221 -0.1 L 0.219 -0.08600000000000001 Q 0.219 -0.07200000000000001 0.2415 -0.05 Q 0.264 -0.028 0.302 -0.028 Q 0.381 -0.028 0.423 -0.126 Q 0.437 -0.16 0.455 -0.232 Q 0.47300000000000003 -0.304 0.47300000000000003 -0.34 Q 0.47300000000000003 -0.41600000000000004 0.406 -0.41600000000000004 Q 0.372 -0.41600000000000004 0.339 -0.3975 Q 0.306 -0.379 0.28200000000000003 -0.35100000000000003 Z"/></g><g transform="translate(22.3046277037037,5.927778333333333) scale(0.7,0.7)"><path fill="rgb(0,0,0)" stroke="none" paint-order="stroke fill markers" d=" M 0.354 -0.623 L 0.354 -0.047 L 0.494 -0.047 L 0.494 0 Q 0.45 -0.003 0.295 -0.003 Q 0.14 -0.003 0.096 0 L 0.096 -0.047 L 0.23500000000000001 -0.047 L 0.23500000000000001 -0.5640000000000001 Q 0.17300000000000001 -0.544 0.105 -0.544 L 0.085 -0.544 L 0.085 -0.591 L 0.105 -0.591 Q 0.229 -0.591 0.306 -0.648 Q 0.315 -0.655 0.328 -0.655 Q 0.34600000000000003 -0.655 0.35000000000000003 -0.6485 Q 0.354 -0.642 0.354 -0.623 Z"/></g></g><path fill="none" stroke="rgb(0,0,0)" paint-order="fill stroke markers" d=" M 46.38459860126315 46.43424112682811 L 610.5249703913756 207.6172044954319" stroke-opacity="0.6980392156862745" stroke-linecap="round" stroke-linejoin="round" stroke-miterlimit="10" stroke-width="2.5"/><path fill="rgb(0,0,0)" stroke="none" paint-order="stroke fill markers" fill-rule="evenodd" d=" M 626.8708775012697 212.28746366968733 L 609.3574055978117 211.7036812729054 L 611.6925351849395 203.5307277179584 Z" fill-opacity="0.6980392156862745"/><path fill="rgb(153,102,255)" stroke="none" paint-order="stroke fill markers" d=" M 51.38459860126315 46.43424112682811 C 51.38459860126315 49.195664875982075 49.14602235041711 51.43424112682811 46.38459860126315 51.43424112682811 C 43.62317485210918 51.43424112682811 41.38459860126315 49.195664875982075 41.38459860126315 46.43424112682811 C 41.38459860126315 43.67281737767414 43.62317485210918 41.43424112682811 46.38459860126315 41.43424112682811 C 49.14602235041711 41.43424112682811 51.38459860126315 43.67281737767414 51.38459860126315 46.43424112682811 Z" fill-opacity="1"/><path fill="none" stroke="rgb(0,0,0)" paint-order="fill stroke markers" d=" M 51.38459860126315 46.43424112682811 C 51.38459860126315 49.195664875982075 49.14602235041711 51.43424112682811 46.38459860126315 51.43424112682811 C 43.62317485210918 51.43424112682811 41.38459860126315 49.195664875982075 41.38459860126315 46.43424112682811 C 41.38459860126315 43.67281737767414 43.62317485210918 41.43424112682811 46.38459860126315 41.43424112682811 C 49.14602235041711 41.43424112682811 51.38459860126315 43.67281737767414 51.38459860126315 46.43424112682811 Z" stroke-opacity="1" stroke-linecap="round" stroke-linejoin="round" stroke-miterlimit="10"/><g transform="scale(27,27)"><g transform="translate(1.962962962962963,1.2314814814814814)"><path fill="rgb(153,102,255)" stroke="none" paint-order="stroke fill markers" d=" M 0.255 0.25 L 0.11800000000000001 0.25 L 0.11800000000000001 -0.75 L 0.255 -0.75 L 0.255 -0.71 L 0.158 -0.71 L 0.158 0.21 L 0.255 0.21 L 0.255 0.25 Z"/></g><g transform="translate(2.240741962962963,1.2314814814814814)"><path fill="rgb(153,102,255)" stroke="none" paint-order="stroke fill markers" d=" M 0.536 -0.401 Q 0.516 -0.41600000000000004 0.488 -0.41600000000000004 Q 0.461 -0.41600000000000004 0.4375 -0.392 Q 0.41400000000000003 -0.368 0.403 -0.325 Q 0.4 -0.316 0.385 -0.257 Q 0.37 -0.198 0.368 -0.189 Q 0.34600000000000003 -0.099 0.34600000000000003 -0.078 Q 0.34600000000000003 -0.028 0.402 -0.028 Q 0.44 -0.028 0.482 -0.0575 Q 0.524 -0.08700000000000001 0.544 -0.149 Q 0.548 -0.162 0.5670000000000001 -0.162 Q 0.591 -0.162 0.591 -0.148 Q 0.591 -0.134 0.578 -0.1095 Q 0.5650000000000001 -0.085 0.542 -0.058 Q 0.519 -0.031 0.48 -0.0115 Q 0.441 0.008 0.397 0.008 Q 0.295 0.008 0.259 -0.053 Q 0.215 0.008 0.152 0.008 Q 0.105 0.008 0.07150000000000001 -0.0165 Q 0.038 -0.041 0.038 -0.08 Q 0.038 -0.115 0.06 -0.1365 Q 0.082 -0.158 0.11 -0.158 Q 0.133 -0.158 0.1465 -0.14400000000000002 Q 0.16 -0.13 0.16 -0.112 Q 0.16 -0.091 0.1455 -0.07050000000000001 Q 0.131 -0.05 0.106 -0.043000000000000003 Q 0.126 -0.028 0.154 -0.028 Q 0.181 -0.028 0.20450000000000002 -0.051500000000000004 Q 0.228 -0.075 0.23900000000000002 -0.11900000000000001 L 0.273 -0.256 Q 0.296 -0.34800000000000003 0.296 -0.366 Q 0.296 -0.41600000000000004 0.24 -0.41600000000000004 Q 0.202 -0.41600000000000004 0.16 -0.3865 Q 0.11800000000000001 -0.357 0.098 -0.295 Q 0.094 -0.28200000000000003 0.075 -0.28200000000000003 Q 0.051000000000000004 -0.28200000000000003 0.051000000000000004 -0.296 Q 0.051000000000000004 -0.31 0.064 -0.3345 Q 0.077 -0.359 0.1 -0.386 Q 0.123 -0.41300000000000003 0.162 -0.4325 Q 0.201 -0.452 0.245 -0.452 Q 0.34700000000000003 -0.452 0.383 -0.391 Q 0.427 -0.452 0.49 -0.452 Q 0.537 -0.452 0.5705 -0.4275 Q 0.604 -0.403 0.604 -0.364 Q 0.604 -0.329 0.582 -0.3075 Q 0.56 -0.28600000000000003 0.532 -0.28600000000000003 Q 0.509 -0.28600000000000003 0.4955 -0.3 Q 0.482 -0.314 0.482 -0.332 Q 0.482 -0.353 0.4965 -0.3735 Q 0.511 -0.394 0.536 -0.401 Z"/></g><g transform="translate(2.899768962962963,1.2314814814814814)"><path fill="rgb(153,102,255)" stroke="none" paint-order="stroke fill markers" d=" M 0.159 -0.75 L 0.159 0.25 L 0.022 0.25 L 0.022 0.21 L 0.11900000000000001 0.21 L 0.11900000000000001 -0.71 L 0.022 -0.71 L 0.022 -0.75 L 0.159 -0.75 Z"/></g><g transform="translate(3.1775479629629633,1.3814814814814813) scale(0.7,0.7)"><path fill="rgb(153,102,255)" stroke="none" paint-order="stroke fill markers" d=" M 0.34600000000000003 -0.683 L 0.485 -0.683 Q 0.603 -0.683 0.675 -0.632 Q 0.733 -0.59 0.733 -0.524 Q 0.733 -0.418 0.619 -0.323 Q 0.513 -0.23500000000000001 0.382 -0.211 Q 0.34700000000000003 -0.20500000000000002 0.315 -0.20500000000000002 Q 0.296 -0.20500000000000002 0.296 -0.212 Q 0.296 -0.223 0.321 -0.24 Q 0.34800000000000003 -0.259 0.381 -0.26 Q 0.538 -0.265 0.612 -0.375 Q 0.648 -0.429 0.648 -0.481 Q 0.648 -0.5670000000000001 0.542 -0.606 L 0.541 -0.607 Q 0.483 -0.628 0.41100000000000003 -0.628 L 0.357 -0.628 Q 0.323 -0.311 0.192 0.005 Q 0.183 0.024 0.145 0.042 Q 0.128 0.05 0.11800000000000001 0.05 Q 0.108 0.05 0.108 0.043000000000000003 Q 0.108 0.042 0.111 0.033 Q 0.251 -0.312 0.276 -0.628 Q 0.146 -0.622 0.116 -0.5650000000000001 Q 0.111 -0.556 0.106 -0.54 Q 0.095 -0.509 0.048 -0.493 Q 0.036000000000000004 -0.489 0.03 -0.489 Q 0.028 -0.489 0.02 -0.492 Q 0.035 -0.5740000000000001 0.14100000000000001 -0.631 Q 0.23700000000000002 -0.683 0.34600000000000003 -0.683 Z"/></g></g><path fill="rgb(255,0,0)" stroke="none" paint-order="stroke fill markers" d=" M 631.8708775012697 212.28746366968733 C 631.8708775012697 215.0488874188413 629.6323012504237 217.28746366968733 626.8708775012697 217.28746366968733 C 624.1094537521157 217.28746366968733 621.8708775012697 215.0488874188413 621.8708775012697 212.28746366968733 C 621.8708775012697 209.52603992053335 624.1094537521157 207.28746366968733 626.8708775012697 207.28746366968733 C 629.6323012504237 207.28746366968733 631.8708775012697 209.52603992053335 631.8708775012697 212.28746366968733 Z" fill-opacity="1"/><path fill="none" stroke="rgb(0,0,0)" paint-order="fill stroke markers" d=" M 631.8708775012697 212.28746366968733 C 631.8708775012697 215.0488874188413 629.6323012504237 217.28746366968733 626.8708775012697 217.28746366968733 C 624.1094537521157 217.28746366968733 621.8708775012697 215.0488874188413 621.8708775012697 212.28746366968733 C 621.8708775012697 209.52603992053335 624.1094537521157 207.28746366968733 626.8708775012697 207.28746366968733 C 629.6323012504237 207.28746366968733 631.8708775012697 209.52603992053335 631.8708775012697 212.28746366968733 Z" stroke-opacity="1" stroke-linecap="round" stroke-linejoin="round" stroke-miterlimit="10"/><g transform="scale(27,27)"><g transform="translate(23.037037037037038,7.342592592592593)"><path fill="rgb(255,0,0)" stroke="none" paint-order="stroke fill markers" d=" M 0.255 0.25 L 0.11800000000000001 0.25 L 0.11800000000000001 -0.75 L 0.255 -0.75 L 0.255 -0.71 L 0.158 -0.71 L 0.158 0.21 L 0.255 0.21 L 0.255 0.25 Z"/></g><g transform="translate(23.314816037037037,7.342592592592593)"><path fill="rgb(255,0,0)" stroke="none" paint-order="stroke fill markers" d=" M 0.577 -0.377 L 0.483 0.001 Q 0.461 0.09 0.3785 0.146 Q 0.296 0.202 0.20500000000000002 0.202 Q 0.145 0.202 0.108 0.178 Q 0.07100000000000001 0.154 0.07100000000000001 0.115 Q 0.07100000000000001 0.083 0.0925 0.061 Q 0.114 0.039 0.14300000000000002 0.039 Q 0.162 0.039 0.177 0.05 Q 0.192 0.061 0.192 0.085 Q 0.192 0.132 0.14400000000000002 0.152 Q 0.167 0.166 0.20500000000000002 0.166 Q 0.26 0.166 0.3085 0.116 Q 0.357 0.066 0.377 -0.022 Q 0.334 0.008 0.281 0.008 Q 0.254 0.008 0.2305 0.0035 Q 0.20700000000000002 -0.001 0.1805 -0.0135 Q 0.154 -0.026000000000000002 0.138 -0.054 Q 0.122 -0.082 0.122 -0.122 Q 0.122 -0.157 0.1355 -0.2005 Q 0.149 -0.244 0.182 -0.33 Q 0.199 -0.375 0.199 -0.395 Q 0.199 -0.405 0.196 -0.41000000000000003 Q 0.193 -0.41500000000000004 0.19 -0.41550000000000004 Q 0.187 -0.41600000000000004 0.182 -0.41600000000000004 Q 0.17400000000000002 -0.41600000000000004 0.1635 -0.41200000000000003 Q 0.153 -0.40800000000000003 0.1375 -0.3975 Q 0.122 -0.387 0.106 -0.3605 Q 0.09 -0.334 0.079 -0.295 Q 0.075 -0.28200000000000003 0.056 -0.28200000000000003 Q 0.032 -0.28200000000000003 0.032 -0.296 Q 0.032 -0.306 0.042 -0.3295 Q 0.052000000000000005 -0.353 0.07 -0.3815 Q 0.088 -0.41000000000000003 0.11950000000000001 -0.431 Q 0.151 -0.452 0.188 -0.452 Q 0.233 -0.452 0.267 -0.4275 Q 0.301 -0.403 0.301 -0.362 Q 0.301 -0.34600000000000003 0.28800000000000003 -0.312 Q 0.229 -0.16 0.229 -0.101 Q 0.229 -0.028 0.289 -0.028 Q 0.319 -0.028 0.357 -0.052000000000000005 Q 0.36 -0.054 0.3675 -0.06 Q 0.375 -0.066 0.3845 -0.078 Q 0.394 -0.09 0.396 -0.1 Q 0.403 -0.127 0.438 -0.266 L 0.464 -0.37 Q 0.468 -0.385 0.47100000000000003 -0.394 Q 0.47400000000000003 -0.403 0.482 -0.4165 Q 0.49 -0.43 0.5035000000000001 -0.437 Q 0.517 -0.444 0.535 -0.444 Q 0.557 -0.444 0.5695 -0.431 Q 0.582 -0.418 0.582 -0.4 Q 0.582 -0.395 0.577 -0.377 Z"/></g><g transform="translate(23.905092037037036,7.342592592592593)"><path fill="rgb(255,0,0)" stroke="none" paint-order="stroke fill markers" d=" M 0.159 -0.75 L 0.159 0.25 L 0.022 0.25 L 0.022 0.21 L 0.11900000000000001 0.21 L 0.11900000000000001 -0.71 L 0.022 -0.71 L 0.022 -0.75 L 0.159 -0.75 Z"/></g><g transform="translate(24.182871037037035,7.492592592592593) scale(0.7,0.7)"><path fill="rgb(255,0,0)" stroke="none" paint-order="stroke fill markers" d=" M 0.34600000000000003 -0.683 L 0.485 -0.683 Q 0.603 -0.683 0.675 -0.632 Q 0.733 -0.59 0.733 -0.524 Q 0.733 -0.418 0.619 -0.323 Q 0.513 -0.23500000000000001 0.382 -0.211 Q 0.34700000000000003 -0.20500000000000002 0.315 -0.20500000000000002 Q 0.296 -0.20500000000000002 0.296 -0.212 Q 0.296 -0.223 0.321 -0.24 Q 0.34800000000000003 -0.259 0.381 -0.26 Q 0.538 -0.265 0.612 -0.375 Q 0.648 -0.429 0.648 -0.481 Q 0.648 -0.5670000000000001 0.542 -0.606 L 0.541 -0.607 Q 0.483 -0.628 0.41100000000000003 -0.628 L 0.357 -0.628 Q 0.323 -0.311 0.192 0.005 Q 0.183 0.024 0.145 0.042 Q 0.128 0.05 0.11800000000000001 0.05 Q 0.108 0.05 0.108 0.043000000000000003 Q 0.108 0.042 0.111 0.033 Q 0.251 -0.312 0.276 -0.628 Q 0.146 -0.622 0.116 -0.5650000000000001 Q 0.111 -0.556 0.106 -0.54 Q 0.095 -0.509 0.048 -0.493 Q 0.036000000000000004 -0.489 0.03 -0.489 Q 0.028 -0.489 0.02 -0.492 Q 0.035 -0.5740000000000001 0.14100000000000001 -0.631 Q 0.23700000000000002 -0.683 0.34600000000000003 -0.683 Z"/></g></g><g transform="scale(27,27)"><g transform="translate(12.037037037037036,4.093518407407408)"><path fill="rgb(0,0,0)" stroke="none" paint-order="stroke fill markers" d=" M 0.163 -0.067 L 0.306 -0.637 Q 0.264 -0.639 0.245 -0.639 Q 0.227 -0.639 0.22 -0.6395000000000001 Q 0.213 -0.64 0.20800000000000002 -0.644 Q 0.203 -0.648 0.203 -0.657 Q 0.203 -0.671 0.209 -0.6775 Q 0.215 -0.684 0.221 -0.685 Q 0.227 -0.686 0.24 -0.686 L 0.641 -0.686 Q 0.744 -0.686 0.799 -0.648 Q 0.854 -0.61 0.854 -0.547 Q 0.854 -0.488 0.8005 -0.433 Q 0.747 -0.378 0.637 -0.358 Q 0.711 -0.352 0.7575000000000001 -0.317 Q 0.804 -0.28200000000000003 0.804 -0.221 Q 0.804 -0.186 0.7855 -0.1485 Q 0.767 -0.111 0.7315 -0.077 Q 0.6960000000000001 -0.043000000000000003 0.6355000000000001 -0.021500000000000002 Q 0.5750000000000001 0 0.501 0 L 0.077 0 Q 0.043000000000000003 0 0.043000000000000003 -0.018000000000000002 Q 0.043000000000000003 -0.038 0.055 -0.045 Q 0.059000000000000004 -0.047 0.08700000000000001 -0.047 Q 0.123 -0.047 0.14 -0.048 Q 0.153 -0.049 0.1565 -0.052000000000000005 Q 0.16 -0.055 0.163 -0.067 M 0.431 -0.621 L 0.369 -0.375 L 0.527 -0.375 Q 0.5750000000000001 -0.375 0.614 -0.3925 Q 0.653 -0.41000000000000003 0.6745 -0.4375 Q 0.6960000000000001 -0.465 0.7075 -0.4945 Q 0.719 -0.524 0.719 -0.552 Q 0.719 -0.639 0.618 -0.639 L 0.46900000000000003 -0.639 Q 0.451 -0.639 0.442 -0.638 Q 0.435 -0.637 0.431 -0.621 M 0.312 -0.047 L 0.47200000000000003 -0.047 Q 0.522 -0.047 0.5615 -0.0655 Q 0.601 -0.084 0.6225 -0.1135 Q 0.644 -0.14300000000000002 0.6545 -0.17450000000000002 Q 0.665 -0.20600000000000002 0.665 -0.23700000000000002 Q 0.665 -0.339 0.555 -0.339 L 0.36 -0.339 L 0.28800000000000003 -0.048 Q 0.295 -0.047 0.312 -0.047 Z"/></g></g><g transform="scale(27,27)"><g transform="translate(4.481481481481482,10.647501977777779)"><path fill="rgb(0,100,0)" stroke="none" paint-order="stroke fill markers" d=" M 0.268 -0.314 L 0.268 -0.314 L 0.268 -0.092 Q 0.268 -0.051000000000000004 0.28 -0.043000000000000003 Q 0.291 -0.035 0.329 -0.035 Q 0.357 -0.035 0.357 -0.018000000000000002 Q 0.34800000000000003 -0.001 0.324 0 L 0.05 0 Q 0.02 0 0.017 -0.012 Q 0.016 -0.015 0.016 -0.018000000000000002 Q 0.016 -0.035 0.043000000000000003 -0.035 Q 0.09 -0.035 0.099 -0.049 Q 0.10400000000000001 -0.057 0.105 -0.077 L 0.105 -0.092 L 0.105 -0.593 Q 0.105 -0.635 0.092 -0.643 Q 0.081 -0.65 0.043000000000000003 -0.65 Q 0.016 -0.65 0.016 -0.667 Q 0.024 -0.684 0.05 -0.685 L 0.364 -0.685 Q 0.494 -0.685 0.5690000000000001 -0.625 L 0.5700000000000001 -0.624 Q 0.611 -0.59 0.624 -0.541 Q 0.629 -0.521 0.629 -0.498 Q 0.629 -0.369 0.489 -0.333 Q 0.47300000000000003 -0.328 0.454 -0.325 Q 0.495 -0.259 0.578 -0.14100000000000001 Q 0.652 -0.043000000000000003 0.6880000000000001 -0.035 Q 0.7030000000000001 -0.032 0.7030000000000001 -0.018000000000000002 Q 0.6940000000000001 -0.001 0.67 0 L 0.532 0 Q 0.508 0 0.503 -0.007 Q 0.501 -0.009000000000000001 0.499 -0.012 L 0.454 -0.082 L 0.304 -0.314 L 0.268 -0.314 M 0.461 -0.363 L 0.461 -0.363 Q 0.583 -0.385 0.593 -0.47800000000000004 Q 0.594 -0.488 0.594 -0.498 Q 0.594 -0.595 0.482 -0.631 Q 0.468 -0.636 0.454 -0.639 Q 0.492 -0.59 0.492 -0.497 Q 0.492 -0.404 0.461 -0.363 M 0.268 -0.596 L 0.268 -0.34900000000000003 Q 0.385 -0.34900000000000003 0.42 -0.373 Q 0.429 -0.38 0.436 -0.39 Q 0.457 -0.419 0.457 -0.497 Q 0.457 -0.613 0.395 -0.639 Q 0.37 -0.65 0.33 -0.65 Q 0.271 -0.65 0.268 -0.607 L 0.268 -0.596 M 0.132 -0.035 L 0.241 -0.035 Q 0.233 -0.053 0.233 -0.09 L 0.233 -0.599 Q 0.233 -0.634 0.246 -0.65 L 0.132 -0.65 Q 0.14 -0.632 0.14 -0.595 L 0.14 -0.09 Q 0.14 -0.053 0.132 -0.035 M 0.34500000000000003 -0.314 L 0.525 -0.035 L 0.622 -0.035 Q 0.548 -0.109 0.41600000000000004 -0.32 Q 0.386 -0.316 0.364 -0.316 Q 0.359 -0.316 0.34500000000000003 -0.314 Z"/></g><g transform="translate(5.203705481481482,10.228888577777779) scale(0.7,0.7)"><path fill="rgb(0,100,0)" stroke="none" paint-order="stroke fill markers" d=" M 0.449 -0.17400000000000002 L 0.449 -0.17400000000000002 L 0.421 0 L 0.05 0 Q 0.05 -0.025 0.056 -0.032 L 0.061 -0.037 L 0.253 -0.251 Q 0.358 -0.369 0.358 -0.47200000000000003 Q 0.358 -0.561 0.304 -0.607 L 0.303 -0.608 L 0.302 -0.608 Q 0.27 -0.635 0.224 -0.635 Q 0.152 -0.635 0.109 -0.5730000000000001 Q 0.097 -0.555 0.089 -0.533 Q 0.092 -0.534 0.10200000000000001 -0.534 Q 0.14200000000000002 -0.534 0.153 -0.498 L 0.153 -0.497 Q 0.155 -0.49 0.155 -0.482 Q 0.155 -0.442 0.117 -0.431 Q 0.109 -0.429 0.10300000000000001 -0.429 Q 0.066 -0.429 0.054 -0.46 Q 0.05 -0.47100000000000003 0.05 -0.485 Q 0.05 -0.562 0.109 -0.617 Q 0.162 -0.666 0.23700000000000002 -0.666 Q 0.34700000000000003 -0.666 0.40800000000000003 -0.592 Q 0.443 -0.549 0.448 -0.49 Q 0.449 -0.481 0.449 -0.47200000000000003 Q 0.449 -0.399 0.394 -0.333 Q 0.365 -0.299 0.304 -0.243 L 0.243 -0.189 L 0.233 -0.18 L 0.127 -0.077 L 0.307 -0.077 Q 0.395 -0.077 0.402 -0.085 Q 0.41200000000000003 -0.099 0.424 -0.17400000000000002 L 0.449 -0.17400000000000002 Z"/></g></g><g transform="scale(27,27)"><g transform="translate(20.14814814814815,10.684539014814815)"><path fill="rgb(0,100,0)" stroke="none" paint-order="stroke fill markers" d=" M 0.268 -0.314 L 0.268 -0.314 L 0.268 -0.092 Q 0.268 -0.051000000000000004 0.28 -0.043000000000000003 Q 0.291 -0.035 0.329 -0.035 Q 0.357 -0.035 0.357 -0.018000000000000002 Q 0.34800000000000003 -0.001 0.324 0 L 0.05 0 Q 0.02 0 0.017 -0.012 Q 0.016 -0.015 0.016 -0.018000000000000002 Q 0.016 -0.035 0.043000000000000003 -0.035 Q 0.09 -0.035 0.099 -0.049 Q 0.10400000000000001 -0.057 0.105 -0.077 L 0.105 -0.092 L 0.105 -0.593 Q 0.105 -0.635 0.092 -0.643 Q 0.081 -0.65 0.043000000000000003 -0.65 Q 0.016 -0.65 0.016 -0.667 Q 0.024 -0.684 0.05 -0.685 L 0.364 -0.685 Q 0.494 -0.685 0.5690000000000001 -0.625 L 0.5700000000000001 -0.624 Q 0.611 -0.59 0.624 -0.541 Q 0.629 -0.521 0.629 -0.498 Q 0.629 -0.369 0.489 -0.333 Q 0.47300000000000003 -0.328 0.454 -0.325 Q 0.495 -0.259 0.578 -0.14100000000000001 Q 0.652 -0.043000000000000003 0.6880000000000001 -0.035 Q 0.7030000000000001 -0.032 0.7030000000000001 -0.018000000000000002 Q 0.6940000000000001 -0.001 0.67 0 L 0.532 0 Q 0.508 0 0.503 -0.007 Q 0.501 -0.009000000000000001 0.499 -0.012 L 0.454 -0.082 L 0.304 -0.314 L 0.268 -0.314 M 0.461 -0.363 L 0.461 -0.363 Q 0.583 -0.385 0.593 -0.47800000000000004 Q 0.594 -0.488 0.594 -0.498 Q 0.594 -0.595 0.482 -0.631 Q 0.468 -0.636 0.454 -0.639 Q 0.492 -0.59 0.492 -0.497 Q 0.492 -0.404 0.461 -0.363 M 0.268 -0.596 L 0.268 -0.34900000000000003 Q 0.385 -0.34900000000000003 0.42 -0.373 Q 0.429 -0.38 0.436 -0.39 Q 0.457 -0.419 0.457 -0.497 Q 0.457 -0.613 0.395 -0.639 Q 0.37 -0.65 0.33 -0.65 Q 0.271 -0.65 0.268 -0.607 L 0.268 -0.596 M 0.132 -0.035 L 0.241 -0.035 Q 0.233 -0.053 0.233 -0.09 L 0.233 -0.599 Q 0.233 -0.634 0.246 -0.65 L 0.132 -0.65 Q 0.14 -0.632 0.14 -0.595 L 0.14 -0.09 Q 0.14 -0.053 0.132 -0.035 M 0.34500000000000003 -0.314 L 0.525 -0.035 L 0.622 -0.035 Q 0.548 -0.109 0.41600000000000004 -0.32 Q 0.386 -0.316 0.364 -0.316 Q 0.359 -0.316 0.34500000000000003 -0.314 Z"/></g><g transform="translate(20.87037214814815,10.265925614814815) scale(0.7,0.7)"><path fill="rgb(0,100,0)" stroke="none" paint-order="stroke fill markers" d=" M 0.449 -0.17400000000000002 L 0.449 -0.17400000000000002 L 0.421 0 L 0.05 0 Q 0.05 -0.025 0.056 -0.032 L 0.061 -0.037 L 0.253 -0.251 Q 0.358 -0.369 0.358 -0.47200000000000003 Q 0.358 -0.561 0.304 -0.607 L 0.303 -0.608 L 0.302 -0.608 Q 0.27 -0.635 0.224 -0.635 Q 0.152 -0.635 0.109 -0.5730000000000001 Q 0.097 -0.555 0.089 -0.533 Q 0.092 -0.534 0.10200000000000001 -0.534 Q 0.14200000000000002 -0.534 0.153 -0.498 L 0.153 -0.497 Q 0.155 -0.49 0.155 -0.482 Q 0.155 -0.442 0.117 -0.431 Q 0.109 -0.429 0.10300000000000001 -0.429 Q 0.066 -0.429 0.054 -0.46 Q 0.05 -0.47100000000000003 0.05 -0.485 Q 0.05 -0.562 0.109 -0.617 Q 0.162 -0.666 0.23700000000000002 -0.666 Q 0.34700000000000003 -0.666 0.40800000000000003 -0.592 Q 0.443 -0.549 0.448 -0.49 Q 0.449 -0.481 0.449 -0.47200000000000003 Q 0.449 -0.399 0.394 -0.333 Q 0.365 -0.299 0.304 -0.243 L 0.243 -0.189 L 0.233 -0.18 L 0.127 -0.077 L 0.307 -0.077 Q 0.395 -0.077 0.402 -0.085 Q 0.41200000000000003 -0.099 0.424 -0.17400000000000002 L 0.449 -0.17400000000000002 Z"/></g></g><path fill="rgb(102,204,255)" stroke="none" paint-order="stroke fill markers" d=" M 547.9442662298401 129.36085239825772 C 547.9442662298401 131.5699913975809 546.1534052291632 133.36085239825772 543.9442662298401 133.36085239825772 C 541.7351272305169 133.36085239825772 539.9442662298401 131.5699913975809 539.9442662298401 129.36085239825772 C 539.9442662298401 127.15171339893455 541.7351272305169 125.36085239825772 543.9442662298401 125.36085239825772 C 546.1534052291632 125.36085239825772 547.9442662298401 127.15171339893455 547.9442662298401 129.36085239825772 Z" fill-opacity="1"/><path fill="none" stroke="rgb(0,0,0)" paint-order="fill stroke markers" d=" M 547.9442662298401 129.36085239825772 C 547.9442662298401 131.5699913975809 546.1534052291632 133.36085239825772 543.9442662298401 133.36085239825772 C 541.7351272305169 133.36085239825772 539.9442662298401 131.5699913975809 539.9442662298401 129.36085239825772 C 539.9442662298401 127.15171339893455 541.7351272305169 125.36085239825772 543.9442662298401 125.36085239825772 C 546.1534052291632 125.36085239825772 547.9442662298401 127.15171339893455 547.9442662298401 129.36085239825772 Z" stroke-opacity="1" stroke-linecap="round" stroke-linejoin="round" stroke-miterlimit="10"/><path fill="rgb(102,204,255)" stroke="none" paint-order="stroke fill markers" d=" M 133.31120987269264 129.36085239825772 C 133.31120987269264 131.5699913975809 131.5203488720158 133.36085239825772 129.31120987269264 133.36085239825772 C 127.10207087336947 133.36085239825772 125.31120987269264 131.5699913975809 125.31120987269264 129.36085239825772 C 125.31120987269264 127.15171339893455 127.10207087336947 125.36085239825772 129.31120987269264 125.36085239825772 C 131.5203488720158 125.36085239825772 133.31120987269264 127.15171339893455 133.31120987269264 129.36085239825772 Z" fill-opacity="1"/><path fill="none" stroke="rgb(0,0,0)" paint-order="fill stroke markers" d=" M 133.31120987269264 129.36085239825772 C 133.31120987269264 131.5699913975809 131.5203488720158 133.36085239825772 129.31120987269264 133.36085239825772 C 127.10207087336947 133.36085239825772 125.31120987269264 131.5699913975809 125.31120987269264 129.36085239825772 C 125.31120987269264 127.15171339893455 127.10207087336947 125.36085239825772 129.31120987269264 125.36085239825772 C 131.5203488720158 125.36085239825772 133.31120987269264 127.15171339893455 133.31120987269264 129.36085239825772 Z" stroke-opacity="1" stroke-linecap="round" stroke-linejoin="round" stroke-miterlimit="10"/></g></g></svg>