<svg version="1.1" xmlns="http://www.w3.org/2000/svg" xmlns:xlink="http://www.w3.org/1999/xlink" width="566" height="496"><defs><clipPath id="IiRaJPiCLIRw"><path fill="none" stroke="none" d=" M 0 0 L 566 0 L 566 496 L 0 496 L 0 0 Z"/></clipPath></defs><g transform="scale(1,1)" clip-path="url(#IiRaJPiCLIRw)"><g><path fill="none" stroke="rgb(192,192,192)" paint-order="fill stroke markers" d=" M 125.74046113797797 200.0972521657972 L 228.3253556081751 29.122428048801254" stroke-opacity="1" stroke-linecap="round" stroke-linejoin="round" stroke-miterlimit="10" stroke-width="1.5"/><path fill="none" stroke="rgb(192,192,192)" paint-order="fill stroke markers" d=" M 177.03290837307654 200.0972521657972 L 228.3253556081751 114.60984010729922" stroke-opacity="1" stroke-linecap="round" stroke-linejoin="round" stroke-miterlimit="10" stroke-width="1.5"/><path fill="none" stroke="rgb(192,192,192)" paint-order="fill stroke markers" d=" M 228.3253556081751 200.0972521657972 L 228.3253556081751 200.0972521657972" stroke-opacity="1" stroke-linecap="round" stroke-linejoin="round" stroke-miterlimit="10" stroke-width="1.5"/><path fill="none" stroke="rgb(192,192,192)" paint-order="fill stroke markers" d=" M 74.44801390287941 200.0972521657972 L 189.85602018185116 7.750575034176762" stroke-opacity="1" stroke-linecap="round" stroke-linejoin="round" stroke-miterlimit="10" stroke-width="1.5"/><path fill="none" stroke="rgb(192,192,192)" paint-order="fill stroke markers" d=" M 35.97867847655547 7.750575034176762 L 35.97867847655547 7.750575034176762" stroke-opacity="1" stroke-linecap="round" stroke-linejoin="round" stroke-miterlimit="10" stroke-width="1.5"/><path fill="none" stroke="rgb(192,192,192)" paint-order="fill stroke markers" d=" M 87.27112571165404 7.750575034176762 L 35.97867847655547 93.23798709267473" stroke-opacity="1" stroke-linecap="round" stroke-linejoin="round" stroke-miterlimit="10" stroke-width="1.5"/><path fill="none" stroke="rgb(192,192,192)" paint-order="fill stroke markers" d=" M 138.5635729467526 7.750575034176762 L 35.97867847655547 178.7253991511727" stroke-opacity="1" stroke-linecap="round" stroke-linejoin="round" stroke-miterlimit="10" stroke-width="1.5"/><path fill="none" stroke="rgb(192,192,192)" paint-order="fill stroke markers" d=" M 228.3253556081751 200.0972521657972 L 228.3253556081751 200.0972521657972" stroke-opacity="1" stroke-linecap="round" stroke-linejoin="round" stroke-miterlimit="10" stroke-width="1.5"/><path fill="none" stroke="rgb(192,192,192)" paint-order="fill stroke markers" d=" M 228.3253556081751 200.0972521657972 L 35.97867847655547 7.750575034176762" stroke-opacity="1" stroke-linecap="round" stroke-linejoin="round" stroke-miterlimit="10" stroke-width="1.5"/><path fill="none" stroke="rgb(192,192,192)" paint-order="fill stroke markers" d=" M 35.97867847655547 200.0972521657972 L 35.97867847655547 200.0972521657972" stroke-opacity="1" stroke-linecap="round" stroke-linejoin="round" stroke-miterlimit="10" stroke-width="1.5"/><path fill="none" stroke="rgb(192,192,192)" paint-order="fill stroke markers" d=" M 100.09423752042869 200.0972521657972 L 35.97867847655547 135.9816931219237" stroke-opacity="1" stroke-linecap="round" stroke-linejoin="round" stroke-miterlimit="10" stroke-width="1.5"/><path fill="none" stroke="rgb(192,192,192)" paint-order="fill stroke markers" d=" M 164.20979656430188 200.0972521657972 L 35.97867847655547 71.86613407805024" stroke-opacity="1" stroke-linecap="round" stroke-linejoin="round" stroke-miterlimit="10" stroke-width="1.5"/><path fill="none" stroke="rgb(192,192,192)" paint-order="fill stroke markers" d=" M 228.3253556081751 200.0972521657972 L 35.97867847655547 7.750575034176762" stroke-opacity="1" stroke-linecap="round" stroke-linejoin="round" stroke-miterlimit="10" stroke-width="1.5"/><path fill="none" stroke="rgb(192,192,192)" paint-order="fill stroke markers" d=" M 228.3253556081751 200.0972521657972 L 35.97867847655547 7.750575034176762" stroke-opacity="1" stroke-linecap="round" stroke-linejoin="round" stroke-miterlimit="10" stroke-width="1.5"/><path fill="none" stroke="rgb(192,192,192)" paint-order="fill stroke markers" d=" M 228.3253556081751 135.9816931219237 L 100.09423752042869 7.750575034176762" stroke-opacity="1" stroke-linecap="round" stroke-linejoin="round" stroke-miterlimit="10" stroke-width="1.5"/><path fill="none" stroke="rgb(192,192,192)" paint-order="fill stroke markers" d=" M 228.3253556081751 71.86613407805024 L 164.20979656430188 7.750575034176762" stroke-opacity="1" stroke-linecap="round" stroke-linejoin="round" stroke-miterlimit="10" stroke-width="1.5"/><path fill="none" stroke="rgb(192,192,192)" paint-order="fill stroke markers" d=" M 228.3253556081751 7.750575034176762 L 228.3253556081751 7.750575034176762" stroke-opacity="1" stroke-linecap="round" stroke-linejoin="round" stroke-miterlimit="10" stroke-width="1.5"/><path fill="none" stroke="rgb(192,192,192)" paint-order="fill stroke markers" d=" M 228.3253556081751 200.0972521657972 L 35.97867847655547 7.750575034176762" stroke-opacity="1" stroke-linecap="round" stroke-linejoin="round" stroke-miterlimit="10" stroke-width="1.5"/><path fill="none" stroke="rgb(192,192,192)" paint-order="fill stroke markers" d=" M 35.97867847655547 7.750575034176762 L 35.97867847655547 7.750575034176762" stroke-opacity="1" stroke-linecap="round" stroke-linejoin="round" stroke-miterlimit="10" stroke-width="1.5"/><path fill="none" stroke="rgb(192,192,192)" paint-order="fill stroke markers" d=" M 548.9031508275411 200.0972521657972 L 548.9031508275411 200.0972521657972" stroke-opacity="1" stroke-linecap="round" stroke-linejoin="round" stroke-miterlimit="10" stroke-width="1.5"/><path fill="none" stroke="rgb(192,192,192)" paint-order="fill stroke markers" d=" M 548.9031508275411 200.0972521657972 L 356.5564736959215 7.750575034176762" stroke-opacity="1" stroke-linecap="round" stroke-linejoin="round" stroke-miterlimit="10" stroke-width="1.5"/><path fill="none" stroke="rgb(192,192,192)" paint-order="fill stroke markers" d=" M 356.5564736959215 200.0972521657972 L 356.5564736959215 200.0972521657972" stroke-opacity="1" stroke-linecap="round" stroke-linejoin="round" stroke-miterlimit="10" stroke-width="1.5"/><path fill="none" stroke="rgb(192,192,192)" paint-order="fill stroke markers" d=" M 420.6720327397947 200.0972521657972 L 356.5564736959215 135.9816931219237" stroke-opacity="1" stroke-linecap="round" stroke-linejoin="round" stroke-miterlimit="10" stroke-width="1.5"/><path fill="none" stroke="rgb(192,192,192)" paint-order="fill stroke markers" d=" M 484.7875917836679 200.0972521657972 L 356.5564736959215 71.86613407805024" stroke-opacity="1" stroke-linecap="round" stroke-linejoin="round" stroke-miterlimit="10" stroke-width="1.5"/><path fill="none" stroke="rgb(192,192,192)" paint-order="fill stroke markers" d=" M 548.9031508275411 200.0972521657972 L 356.5564736959215 7.750575034176762" stroke-opacity="1" stroke-linecap="round" stroke-linejoin="round" stroke-miterlimit="10" stroke-width="1.5"/><path fill="none" stroke="rgb(192,192,192)" paint-order="fill stroke markers" d=" M 548.9031508275411 200.0972521657972 L 356.5564736959215 7.750575034176762" stroke-opacity="1" stroke-linecap="round" stroke-linejoin="round" stroke-miterlimit="10" stroke-width="1.5"/><path fill="none" stroke="rgb(192,192,192)" paint-order="fill stroke markers" d=" M 548.9031508275411 135.9816931219237 L 420.6720327397947 7.750575034176762" stroke-opacity="1" stroke-linecap="round" stroke-linejoin="round" stroke-miterlimit="10" stroke-width="1.5"/><path fill="none" stroke="rgb(192,192,192)" paint-order="fill stroke markers" d=" M 548.9031508275411 71.86613407805024 L 484.7875917836679 7.750575034176762" stroke-opacity="1" stroke-linecap="round" stroke-linejoin="round" stroke-miterlimit="10" stroke-width="1.5"/><path fill="none" stroke="rgb(192,192,192)" paint-order="fill stroke markers" d=" M 548.9031508275411 7.750575034176762 L 548.9031508275411 7.750575034176762" stroke-opacity="1" stroke-linecap="round" stroke-linejoin="round" stroke-miterlimit="10" stroke-width="1.5"/><path fill="none" stroke="rgb(192,192,192)" paint-order="fill stroke markers" d=" M 548.9031508275411 200.0972521657972 L 356.5564736959215 7.750575034176762" stroke-opacity="1" stroke-linecap="round" stroke-linejoin="round" stroke-miterlimit="10" stroke-width="1.5"/><path fill="none" stroke="rgb(192,192,192)" paint-order="fill stroke markers" d=" M 356.5564736959215 7.750575034176762 L 356.5564736959215 7.750575034176762" stroke-opacity="1" stroke-linecap="round" stroke-linejoin="round" stroke-miterlimit="10" stroke-width="1.5"/><path fill="none" stroke="rgb(192,192,192)" paint-order="fill stroke markers" d=" M 446.318256357344 200.0972521657972 L 548.9031508275411 29.122428048801254" stroke-opacity="1" stroke-linecap="round" stroke-linejoin="round" stroke-miterlimit="10" stroke-width="1.5"/><path fill="none" stroke="rgb(192,192,192)" paint-order="fill stroke markers" d=" M 497.6107035924426 200.0972521657972 L 548.9031508275411 114.60984010729922" stroke-opacity="1" stroke-linecap="round" stroke-linejoin="round" stroke-miterlimit="10" stroke-width="1.5"/><path fill="none" stroke="rgb(192,192,192)" paint-order="fill stroke markers" d=" M 548.9031508275411 200.0972521657972 L 548.9031508275411 200.0972521657972" stroke-opacity="1" stroke-linecap="round" stroke-linejoin="round" stroke-miterlimit="10" stroke-width="1.5"/><path fill="none" stroke="rgb(192,192,192)" paint-order="fill stroke markers" d=" M 395.0258091222454 200.0972521657972 L 510.4338154012172 7.750575034176762" stroke-opacity="1" stroke-linecap="round" stroke-linejoin="round" stroke-miterlimit="10" stroke-width="1.5"/><path fill="none" stroke="rgb(192,192,192)" paint-order="fill stroke markers" d=" M 356.5564736959215 7.750575034176762 L 356.5564736959215 7.750575034176762" stroke-opacity="1" stroke-linecap="round" stroke-linejoin="round" stroke-miterlimit="10" stroke-width="1.5"/><path fill="none" stroke="rgb(192,192,192)" paint-order="fill stroke markers" d=" M 407.8489209310201 7.750575034176762 L 356.5564736959215 93.23798709267473" stroke-opacity="1" stroke-linecap="round" stroke-linejoin="round" stroke-miterlimit="10" stroke-width="1.5"/><path fill="none" stroke="rgb(192,192,192)" paint-order="fill stroke markers" d=" M 459.1413681661186 7.750575034176762 L 356.5564736959215 178.7253991511727" stroke-opacity="1" stroke-linecap="round" stroke-linejoin="round" stroke-miterlimit="10" stroke-width="1.5"/><path fill="none" stroke="rgb(192,192,192)" paint-order="fill stroke markers" d=" M 228.3253556081751 488.6172678632278 L 35.97867847655547 488.6172678632278" stroke-opacity="1" stroke-linecap="round" stroke-linejoin="round" stroke-miterlimit="10" stroke-width="1.5"/><path fill="none" stroke="rgb(192,192,192)" paint-order="fill stroke markers" d=" M 228.3253556081751 456.5594883412911 L 35.97867847655547 456.5594883412911" stroke-opacity="1" stroke-linecap="round" stroke-linejoin="round" stroke-miterlimit="10" stroke-width="1.5"/><path fill="none" stroke="rgb(192,192,192)" paint-order="fill stroke markers" d=" M 228.3253556081751 424.50170881935435 L 35.97867847655547 424.50170881935435" stroke-opacity="1" stroke-linecap="round" stroke-linejoin="round" stroke-miterlimit="10" stroke-width="1.5"/><path fill="none" stroke="rgb(192,192,192)" paint-order="fill stroke markers" d=" M 228.3253556081751 392.4439292974176 L 35.97867847655547 392.4439292974176" stroke-opacity="1" stroke-linecap="round" stroke-linejoin="round" stroke-miterlimit="10" stroke-width="1.5"/><path fill="none" stroke="rgb(192,192,192)" paint-order="fill stroke markers" d=" M 228.3253556081751 360.3861497754809 L 35.97867847655547 360.3861497754809" stroke-opacity="1" stroke-linecap="round" stroke-linejoin="round" stroke-miterlimit="10" stroke-width="1.5"/><path fill="none" stroke="rgb(192,192,192)" paint-order="fill stroke markers" d=" M 228.3253556081751 328.3283702535441 L 35.97867847655547 328.3283702535441" stroke-opacity="1" stroke-linecap="round" stroke-linejoin="round" stroke-miterlimit="10" stroke-width="1.5"/><path fill="none" stroke="rgb(192,192,192)" paint-order="fill stroke markers" d=" M 228.3253556081751 296.2705907316074 L 35.97867847655547 296.2705907316074" stroke-opacity="1" stroke-linecap="round" stroke-linejoin="round" stroke-miterlimit="10" stroke-width="1.5"/><path fill="none" stroke="rgb(192,192,192)" paint-order="fill stroke markers" d=" M 35.97867847655547 488.6172678632278 L 35.97867847655547 296.2705907316074" stroke-opacity="1" stroke-linecap="round" stroke-linejoin="round" stroke-miterlimit="10" stroke-width="1.5"/><path fill="none" stroke="rgb(192,192,192)" paint-order="fill stroke markers" d=" M 68.03645799849208 488.6172678632278 L 68.03645799849208 296.2705907316074" stroke-opacity="1" stroke-linecap="round" stroke-linejoin="round" stroke-miterlimit="10" stroke-width="1.5"/><path fill="none" stroke="rgb(192,192,192)" paint-order="fill stroke markers" d=" M 100.09423752042869 488.6172678632278 L 100.09423752042869 296.2705907316074" stroke-opacity="1" stroke-linecap="round" stroke-linejoin="round" stroke-miterlimit="10" stroke-width="1.5"/><path fill="none" stroke="rgb(192,192,192)" paint-order="fill stroke markers" d=" M 132.1520170423653 488.6172678632278 L 132.1520170423653 296.2705907316074" stroke-opacity="1" stroke-linecap="round" stroke-linejoin="round" stroke-miterlimit="10" stroke-width="1.5"/><path fill="none" stroke="rgb(192,192,192)" paint-order="fill stroke markers" d=" M 164.20979656430188 488.6172678632278 L 164.20979656430188 296.2705907316074" stroke-opacity="1" stroke-linecap="round" stroke-linejoin="round" stroke-miterlimit="10" stroke-width="1.5"/><path fill="none" stroke="rgb(192,192,192)" paint-order="fill stroke markers" d=" M 196.26757608623848 488.6172678632278 L 196.26757608623848 296.2705907316074" stroke-opacity="1" stroke-linecap="round" stroke-linejoin="round" stroke-miterlimit="10" stroke-width="1.5"/><path fill="none" stroke="rgb(192,192,192)" paint-order="fill stroke markers" d=" M 228.3253556081751 488.6172678632278 L 228.3253556081751 296.2705907316074" stroke-opacity="1" stroke-linecap="round" stroke-linejoin="round" stroke-miterlimit="10" stroke-width="1.5"/><path fill="none" stroke="rgb(192,192,192)" paint-order="fill stroke markers" d=" M 548.9031508275411 488.6172678632278 L 356.5564736959215 488.6172678632278" stroke-opacity="1" stroke-linecap="round" stroke-linejoin="round" stroke-miterlimit="10" stroke-width="1.5"/><path fill="none" stroke="rgb(192,192,192)" paint-order="fill stroke markers" d=" M 548.9031508275411 456.5594883412911 L 356.5564736959215 456.5594883412911" stroke-opacity="1" stroke-linecap="round" stroke-linejoin="round" stroke-miterlimit="10" stroke-width="1.5"/><path fill="none" stroke="rgb(192,192,192)" paint-order="fill stroke markers" d=" M 548.9031508275411 424.50170881935435 L 356.5564736959215 424.50170881935435" stroke-opacity="1" stroke-linecap="round" stroke-linejoin="round" stroke-miterlimit="10" stroke-width="1.5"/><path fill="none" stroke="rgb(192,192,192)" paint-order="fill stroke markers" d=" M 548.9031508275411 392.4439292974176 L 356.5564736959215 392.4439292974176" stroke-opacity="1" stroke-linecap="round" stroke-linejoin="round" stroke-miterlimit="10" stroke-width="1.5"/><path fill="none" stroke="rgb(192,192,192)" paint-order="fill stroke markers" d=" M 548.9031508275411 360.3861497754809 L 356.5564736959215 360.3861497754809" stroke-opacity="1" stroke-linecap="round" stroke-linejoin="round" stroke-miterlimit="10" stroke-width="1.5"/><path fill="none" stroke="rgb(192,192,192)" paint-order="fill stroke markers" d=" M 548.9031508275411 328.3283702535441 L 356.5564736959215 328.3283702535441" stroke-opacity="1" stroke-linecap="round" stroke-linejoin="round" stroke-miterlimit="10" stroke-width="1.5"/><path fill="none" stroke="rgb(192,192,192)" paint-order="fill stroke markers" d=" M 548.9031508275411 296.2705907316074 L 356.5564736959215 296.2705907316074" stroke-opacity="1" stroke-linecap="round" stroke-linejoin="round" stroke-miterlimit="10" stroke-width="1.5"/><path fill="none" stroke="rgb(192,192,192)" paint-order="fill stroke markers" d=" M 356.5564736959215 488.6172678632278 L 356.5564736959215 296.2705907316074" stroke-opacity="1" stroke-linecap="round" stroke-linejoin="round" stroke-miterlimit="10" stroke-width="1.5"/><path fill="none" stroke="rgb(192,192,192)" paint-order="fill stroke markers" d=" M 388.6142532178581 488.6172678632278 L 388.6142532178581 296.2705907316074" stroke-opacity="1" stroke-linecap="round" stroke-linejoin="round" stroke-miterlimit="10" stroke-width="1.5"/><path fill="none" stroke="rgb(192,192,192)" paint-order="fill stroke markers" d=" M 420.6720327397947 488.6172678632278 L 420.6720327397947 296.2705907316074" stroke-opacity="1" stroke-linecap="round" stroke-linejoin="round" stroke-miterlimit="10" stroke-width="1.5"/><path fill="none" stroke="rgb(192,192,192)" paint-order="fill stroke markers" d=" M 452.7298122617313 488.6172678632278 L 452.7298122617313 296.2705907316074" stroke-opacity="1" stroke-linecap="round" stroke-linejoin="round" stroke-miterlimit="10" stroke-width="1.5"/><path fill="none" stroke="rgb(192,192,192)" paint-order="fill stroke markers" d=" M 484.7875917836679 488.6172678632278 L 484.7875917836679 296.2705907316074" stroke-opacity="1" stroke-linecap="round" stroke-linejoin="round" stroke-miterlimit="10" stroke-width="1.5"/><path fill="none" stroke="rgb(192,192,192)" paint-order="fill stroke markers" d=" M 516.8453713056045 488.6172678632278 L 516.8453713056045 296.2705907316074" stroke-opacity="1" stroke-linecap="round" stroke-linejoin="round" stroke-miterlimit="10" stroke-width="1.5"/><path fill="none" stroke="rgb(192,192,192)" paint-order="fill stroke markers" d=" M 548.9031508275411 488.6172678632278 L 548.9031508275411 296.2705907316074" stroke-opacity="1" stroke-linecap="round" stroke-linejoin="round" stroke-miterlimit="10" stroke-width="1.5"/><path fill="rgb(204,102,255)" stroke="none" paint-order="stroke fill markers" fill-rule="evenodd" d=" M 35.97867847655547 488.6172678632278 L 228.3253556081751 488.6172678632278 L 228.3253556081751 296.2705907316074 L 35.97867847655547 296.2705907316074 Z" fill-opacity="0.09803921568627451"/><path fill="rgb(0,153,255)" stroke="none" paint-order="stroke fill markers" fill-rule="evenodd" d=" M 356.5564736959215 488.6172678632278 L 548.9031508275411 488.6172678632278 L 548.9031508275411 296.2705907316074 L 356.5564736959215 296.2705907316074 Z" fill-opacity="0.09803921568627451"/><path fill="none" stroke="rgb(0,0,0)" paint-order="fill stroke markers" d=" M 35.97867847655547 200.0972521657972 L 228.3253556081751 200.0972521657972" stroke-opacity="0.6980392156862745" stroke-linecap="round" stroke-linejoin="round" stroke-miterlimit="10" stroke-width="2.5"/><path fill="none" stroke="rgb(0,0,0)" paint-order="fill stroke markers" d=" M 228.3253556081751 200.0972521657972 L 228.3253556081751 7.750575034176762" stroke-opacity="0.6980392156862745" stroke-linecap="round" stroke-linejoin="round" stroke-miterlimit="10" stroke-width="2.5"/><path fill="none" stroke="rgb(0,0,0)" paint-order="fill stroke markers" d=" M 228.3253556081751 7.750575034176762 L 35.97867847655547 7.750575034176762" stroke-opacity="0.6980392156862745" stroke-linecap="round" stroke-linejoin="round" stroke-miterlimit="10" stroke-width="2.5"/><path fill="none" stroke="rgb(0,0,0)" paint-order="fill stroke markers" d=" M 35.97867847655547 7.750575034176762 L 35.97867847655547 200.0972521657972" stroke-opacity="0.6980392156862745" stroke-linecap="round" stroke-linejoin="round" stroke-miterlimit="10" stroke-width="2.5"/><path fill="none" stroke="rgb(0,0,0)" paint-order="fill stroke markers" d=" M 356.5564736959215 200.0972521657972 L 548.9031508275411 200.0972521657972" stroke-opacity="0.6980392156862745" stroke-linecap="round" stroke-linejoin="round" stroke-miterlimit="10" stroke-width="2.5"/><path fill="none" stroke="rgb(0,0,0)" paint-order="fill stroke markers" d=" M 548.9031508275411 200.0972521657972 L 548.9031508275411 7.750575034176762" stroke-opacity="0.6980392156862745" stroke-linecap="round" stroke-linejoin="round" stroke-miterlimit="10" stroke-width="2.5"/><path fill="none" stroke="rgb(0,0,0)" paint-order="fill stroke markers" d=" M 548.9031508275411 7.750575034176762 L 356.5564736959215 7.750575034176762" stroke-opacity="0.6980392156862745" stroke-linecap="round" stroke-linejoin="round" stroke-miterlimit="10" stroke-width="2.5"/><path fill="none" stroke="rgb(0,0,0)" paint-order="fill stroke markers" d=" M 356.5564736959215 7.750575034176762 L 356.5564736959215 200.0972521657972" stroke-opacity="0.6980392156862745" stroke-linecap="round" stroke-linejoin="round" stroke-miterlimit="10" stroke-width="2.5"/><path fill="none" stroke="rgb(204,102,255)" paint-order="fill stroke markers" d=" M 35.97867847655547 488.6172678632278 L 228.3253556081751 488.6172678632278" stroke-opacity="0.6980392156862745" stroke-linecap="round" stroke-linejoin="round" stroke-miterlimit="10" stroke-width="2.5"/><path fill="none" stroke="rgb(204,102,255)" paint-order="fill stroke markers" d=" M 228.3253556081751 488.6172678632278 L 228.3253556081751 296.2705907316074" stroke-opacity="0.6980392156862745" stroke-linecap="round" stroke-linejoin="round" stroke-miterlimit="10" stroke-width="2.5"/><path fill="none" stroke="rgb(204,102,255)" paint-order="fill stroke markers" d=" M 228.3253556081751 296.2705907316074 L 35.97867847655547 296.2705907316074" stroke-opacity="0.6980392156862745" stroke-linecap="round" stroke-linejoin="round" stroke-miterlimit="10" stroke-width="2.5"/><path fill="none" stroke="rgb(204,102,255)" paint-order="fill stroke markers" d=" M 35.97867847655547 296.2705907316074 L 35.97867847655547 488.6172678632278" stroke-opacity="0.6980392156862745" stroke-linecap="round" stroke-linejoin="round" stroke-miterlimit="10" stroke-width="2.5"/><path fill="none" stroke="rgb(0,153,255)" paint-order="fill stroke markers" d=" M 356.5564736959215 488.6172678632278 L 548.9031508275411 488.6172678632278" stroke-opacity="0.6980392156862745" stroke-linecap="round" stroke-linejoin="round" stroke-miterlimit="10" stroke-width="2.5"/><path fill="none" stroke="rgb(0,153,255)" paint-order="fill stroke markers" d=" M 548.9031508275411 488.6172678632278 L 548.9031508275411 296.2705907316074" stroke-opacity="0.6980392156862745" stroke-linecap="round" stroke-linejoin="round" stroke-miterlimit="10" stroke-width="2.5"/><path fill="none" stroke="rgb(0,153,255)" paint-order="fill stroke markers" d=" M 548.9031508275411 296.2705907316074 L 356.5564736959215 296.2705907316074" stroke-opacity="0.6980392156862745" stroke-linecap="round" stroke-linejoin="round" stroke-miterlimit="10" stroke-width="2.5"/><path fill="none" stroke="rgb(0,153,255)" paint-order="fill stroke markers" d=" M 356.5564736959215 296.2705907316074 L 356.5564736959215 488.6172678632278" stroke-opacity="0.6980392156862745" stroke-linecap="round" stroke-linejoin="round" stroke-miterlimit="10" stroke-width="2.5"/><path fill="none" stroke="rgb(0,0,0)" paint-order="fill stroke markers" d=" M 132.1520170423653 103.92391359998697 L 147.4489238415498 78.42906893467932" stroke-opacity="0.6980392156862745" stroke-linecap="round" stroke-linejoin="round" stroke-miterlimit="10" stroke-width="2.5"/><path fill="rgb(0,0,0)" stroke="none" paint-order="stroke fill markers" fill-rule="evenodd" d=" M 156.19535168381773 63.85168919756605 L 151.0932687758281 80.6156758952463 L 143.8045789072715 76.24246197411235 Z" fill-opacity="0.6980392156862745"/><g transform="scale(27,27)"><g transform="translate(4.222222222222222,2.703704259259259)"><path fill="rgb(0,0,0)" stroke="none" paint-order="stroke fill markers" d=" M 0.052000000000000005 0.129 L 0.169 -0.336 Q 0.17500000000000002 -0.357 0.17500000000000002 -0.379 Q 0.17500000000000002 -0.41600000000000004 0.152 -0.41600000000000004 Q 0.109 -0.41600000000000004 0.084 -0.316 Q 0.077 -0.28800000000000003 0.076 -0.28700000000000003 Q 0.07100000000000001 -0.28200000000000003 0.056 -0.28200000000000003 Q 0.032 -0.28200000000000003 0.032 -0.296 Q 0.032 -0.304 0.043000000000000003 -0.3365 Q 0.054 -0.369 0.07 -0.395 Q 0.10300000000000001 -0.452 0.157 -0.452 Q 0.234 -0.452 0.272 -0.398 Q 0.33 -0.452 0.41100000000000003 -0.452 Q 0.483 -0.452 0.5345 -0.41200000000000003 Q 0.586 -0.372 0.586 -0.28700000000000003 Q 0.586 -0.176 0.5065000000000001 -0.084 Q 0.427 0.008 0.304 0.008 Q 0.242 0.008 0.203 -0.028 L 0.16 0.146 Q 0.17300000000000001 0.147 0.203 0.147 Q 0.229 0.147 0.229 0.165 Q 0.229 0.194 0.203 0.194 Q 0.186 0.194 0.15 0.1925 Q 0.114 0.191 0.096 0.191 Q 0.081 0.191 0.0495 0.1925 Q 0.018000000000000002 0.194 0.004 0.194 Q -0.015 0.194 -0.015 0.17500000000000002 Q -0.015 0.162 -0.009000000000000001 0.1555 Q -0.003 0.149 0.003 0.148 Q 0.009000000000000001 0.147 0.02 0.147 Q 0.04 0.147 0.046 0.145 Q 0.048 0.14300000000000002 0.052000000000000005 0.129 M 0.28200000000000003 -0.35100000000000003 L 0.221 -0.1 L 0.219 -0.08600000000000001 Q 0.219 -0.07200000000000001 0.2415 -0.05 Q 0.264 -0.028 0.302 -0.028 Q 0.381 -0.028 0.423 -0.126 Q 0.437 -0.16 0.455 -0.232 Q 0.47300000000000003 -0.304 0.47300000000000003 -0.34 Q 0.47300000000000003 -0.41600000000000004 0.406 -0.41600000000000004 Q 0.372 -0.41600000000000004 0.339 -0.3975 Q 0.306 -0.379 0.28200000000000003 -0.35100000000000003 Z"/></g><g transform="translate(4.823146222222222,2.853704259259259) scale(0.7,0.7)"><path fill="rgb(0,0,0)" stroke="none" paint-order="stroke fill markers" d=" M 0.517 -0.222 L 0.486 0 L 0.057 0 L 0.057 -0.018000000000000002 Q 0.057 -0.034 0.059000000000000004 -0.0385 Q 0.061 -0.043000000000000003 0.07 -0.052000000000000005 L 0.271 -0.257 Q 0.379 -0.367 0.379 -0.465 Q 0.379 -0.525 0.34400000000000003 -0.5665 Q 0.309 -0.608 0.247 -0.608 Q 0.186 -0.608 0.14400000000000002 -0.5730000000000001 Q 0.155 -0.5700000000000001 0.166 -0.5645 Q 0.177 -0.559 0.189 -0.542 Q 0.201 -0.525 0.201 -0.501 Q 0.201 -0.466 0.1785 -0.4475 Q 0.156 -0.429 0.129 -0.429 Q 0.10400000000000001 -0.429 0.0805 -0.4465 Q 0.057 -0.464 0.057 -0.503 Q 0.057 -0.5700000000000001 0.11850000000000001 -0.6125 Q 0.18 -0.655 0.272 -0.655 Q 0.379 -0.655 0.448 -0.603 Q 0.517 -0.551 0.517 -0.466 Q 0.517 -0.431 0.507 -0.404 Q 0.497 -0.377 0.46900000000000003 -0.34750000000000003 Q 0.441 -0.318 0.417 -0.299 Q 0.393 -0.28 0.339 -0.24 Q 0.292 -0.20600000000000002 0.195 -0.125 L 0.342 -0.125 Q 0.433 -0.125 0.444 -0.131 Q 0.457 -0.138 0.47000000000000003 -0.222 L 0.517 -0.222 Z"/></g></g><path fill="none" stroke="rgb(0,0,0)" paint-order="fill stroke markers" d=" M 132.1520170423653 103.92391359998697 L 152.1889812841306 123.96087784175238" stroke-opacity="0.6980392156862745" stroke-linecap="round" stroke-linejoin="round" stroke-miterlimit="10" stroke-width="2.5"/><path fill="rgb(0,0,0)" stroke="none" paint-order="stroke fill markers" fill-rule="evenodd" d=" M 164.20979656430188 135.9816931219237 L 149.18377746408777 126.9660816617952 L 155.1941851041734 120.95567402170956 Z" fill-opacity="0.6980392156862745"/><g transform="scale(27,27)"><g transform="translate(4.592592592592593,5.296296851851852)"><path fill="rgb(0,0,0)" stroke="none" paint-order="stroke fill markers" d=" M 0.052000000000000005 0.129 L 0.169 -0.336 Q 0.17500000000000002 -0.357 0.17500000000000002 -0.379 Q 0.17500000000000002 -0.41600000000000004 0.152 -0.41600000000000004 Q 0.109 -0.41600000000000004 0.084 -0.316 Q 0.077 -0.28800000000000003 0.076 -0.28700000000000003 Q 0.07100000000000001 -0.28200000000000003 0.056 -0.28200000000000003 Q 0.032 -0.28200000000000003 0.032 -0.296 Q 0.032 -0.304 0.043000000000000003 -0.3365 Q 0.054 -0.369 0.07 -0.395 Q 0.10300000000000001 -0.452 0.157 -0.452 Q 0.234 -0.452 0.272 -0.398 Q 0.33 -0.452 0.41100000000000003 -0.452 Q 0.483 -0.452 0.5345 -0.41200000000000003 Q 0.586 -0.372 0.586 -0.28700000000000003 Q 0.586 -0.176 0.5065000000000001 -0.084 Q 0.427 0.008 0.304 0.008 Q 0.242 0.008 0.203 -0.028 L 0.16 0.146 Q 0.17300000000000001 0.147 0.203 0.147 Q 0.229 0.147 0.229 0.165 Q 0.229 0.194 0.203 0.194 Q 0.186 0.194 0.15 0.1925 Q 0.114 0.191 0.096 0.191 Q 0.081 0.191 0.0495 0.1925 Q 0.018000000000000002 0.194 0.004 0.194 Q -0.015 0.194 -0.015 0.17500000000000002 Q -0.015 0.162 -0.009000000000000001 0.1555 Q -0.003 0.149 0.003 0.148 Q 0.009000000000000001 0.147 0.02 0.147 Q 0.04 0.147 0.046 0.145 Q 0.048 0.14300000000000002 0.052000000000000005 0.129 M 0.28200000000000003 -0.35100000000000003 L 0.221 -0.1 L 0.219 -0.08600000000000001 Q 0.219 -0.07200000000000001 0.2415 -0.05 Q 0.264 -0.028 0.302 -0.028 Q 0.381 -0.028 0.423 -0.126 Q 0.437 -0.16 0.455 -0.232 Q 0.47300000000000003 -0.304 0.47300000000000003 -0.34 Q 0.47300000000000003 -0.41600000000000004 0.406 -0.41600000000000004 Q 0.372 -0.41600000000000004 0.339 -0.3975 Q 0.306 -0.379 0.28200000000000003 -0.35100000000000003 Z"/></g><g transform="translate(5.193516592592593,5.446296851851852) scale(0.7,0.7)"><path fill="rgb(0,0,0)" stroke="none" paint-order="stroke fill markers" d=" M 0.354 -0.623 L 0.354 -0.047 L 0.494 -0.047 L 0.494 0 Q 0.45 -0.003 0.295 -0.003 Q 0.14 -0.003 0.096 0 L 0.096 -0.047 L 0.23500000000000001 -0.047 L 0.23500000000000001 -0.5640000000000001 Q 0.17300000000000001 -0.544 0.105 -0.544 L 0.085 -0.544 L 0.085 -0.591 L 0.105 -0.591 Q 0.229 -0.591 0.306 -0.648 Q 0.315 -0.655 0.328 -0.655 Q 0.34600000000000003 -0.655 0.35000000000000003 -0.6485 Q 0.354 -0.642 0.354 -0.623 Z"/></g></g><path fill="none" stroke="rgb(0,0,0)" paint-order="fill stroke markers" d=" M 452.7298122617313 103.92391359998697 L 468.02671906091587 78.42906893467932" stroke-opacity="0.6980392156862745" stroke-linecap="round" stroke-linejoin="round" stroke-miterlimit="10" stroke-width="2.5"/><path fill="rgb(0,0,0)" stroke="none" paint-order="stroke fill markers" fill-rule="evenodd" d=" M 476.7731469031838 63.85168919756605 L 471.6710639951942 80.6156758952463 L 464.38237412663756 76.24246197411235 Z" fill-opacity="0.6980392156862745"/><g transform="scale(27,27)"><g transform="translate(16.037037037037038,2.703704259259259)"><path fill="rgb(0,0,0)" stroke="none" paint-order="stroke fill markers" d=" M 0.052000000000000005 0.129 L 0.169 -0.336 Q 0.17500000000000002 -0.357 0.17500000000000002 -0.379 Q 0.17500000000000002 -0.41600000000000004 0.152 -0.41600000000000004 Q 0.109 -0.41600000000000004 0.084 -0.316 Q 0.077 -0.28800000000000003 0.076 -0.28700000000000003 Q 0.07100000000000001 -0.28200000000000003 0.056 -0.28200000000000003 Q 0.032 -0.28200000000000003 0.032 -0.296 Q 0.032 -0.304 0.043000000000000003 -0.3365 Q 0.054 -0.369 0.07 -0.395 Q 0.10300000000000001 -0.452 0.157 -0.452 Q 0.234 -0.452 0.272 -0.398 Q 0.33 -0.452 0.41100000000000003 -0.452 Q 0.483 -0.452 0.5345 -0.41200000000000003 Q 0.586 -0.372 0.586 -0.28700000000000003 Q 0.586 -0.176 0.5065000000000001 -0.084 Q 0.427 0.008 0.304 0.008 Q 0.242 0.008 0.203 -0.028 L 0.16 0.146 Q 0.17300000000000001 0.147 0.203 0.147 Q 0.229 0.147 0.229 0.165 Q 0.229 0.194 0.203 0.194 Q 0.186 0.194 0.15 0.1925 Q 0.114 0.191 0.096 0.191 Q 0.081 0.191 0.0495 0.1925 Q 0.018000000000000002 0.194 0.004 0.194 Q -0.015 0.194 -0.015 0.17500000000000002 Q -0.015 0.162 -0.009000000000000001 0.1555 Q -0.003 0.149 0.003 0.148 Q 0.009000000000000001 0.147 0.02 0.147 Q 0.04 0.147 0.046 0.145 Q 0.048 0.14300000000000002 0.052000000000000005 0.129 M 0.28200000000000003 -0.35100000000000003 L 0.221 -0.1 L 0.219 -0.08600000000000001 Q 0.219 -0.07200000000000001 0.2415 -0.05 Q 0.264 -0.028 0.302 -0.028 Q 0.381 -0.028 0.423 -0.126 Q 0.437 -0.16 0.455 -0.232 Q 0.47300000000000003 -0.304 0.47300000000000003 -0.34 Q 0.47300000000000003 -0.41600000000000004 0.406 -0.41600000000000004 Q 0.372 -0.41600000000000004 0.339 -0.3975 Q 0.306 -0.379 0.28200000000000003 -0.35100000000000003 Z"/></g><g transform="translate(16.637961037037037,2.853704259259259) scale(0.7,0.7)"><path fill="rgb(0,0,0)" stroke="none" paint-order="stroke fill markers" d=" M 0.517 -0.222 L 0.486 0 L 0.057 0 L 0.057 -0.018000000000000002 Q 0.057 -0.034 0.059000000000000004 -0.0385 Q 0.061 -0.043000000000000003 0.07 -0.052000000000000005 L 0.271 -0.257 Q 0.379 -0.367 0.379 -0.465 Q 0.379 -0.525 0.34400000000000003 -0.5665 Q 0.309 -0.608 0.247 -0.608 Q 0.186 -0.608 0.14400000000000002 -0.5730000000000001 Q 0.155 -0.5700000000000001 0.166 -0.5645 Q 0.177 -0.559 0.189 -0.542 Q 0.201 -0.525 0.201 -0.501 Q 0.201 -0.466 0.1785 -0.4475 Q 0.156 -0.429 0.129 -0.429 Q 0.10400000000000001 -0.429 0.0805 -0.4465 Q 0.057 -0.464 0.057 -0.503 Q 0.057 -0.5700000000000001 0.11850000000000001 -0.6125 Q 0.18 -0.655 0.272 -0.655 Q 0.379 -0.655 0.448 -0.603 Q 0.517 -0.551 0.517 -0.466 Q 0.517 -0.431 0.507 -0.404 Q 0.497 -0.377 0.46900000000000003 -0.34750000000000003 Q 0.441 -0.318 0.417 -0.299 Q 0.393 -0.28 0.339 -0.24 Q 0.292 -0.20600000000000002 0.195 -0.125 L 0.342 -0.125 Q 0.433 -0.125 0.444 -0.131 Q 0.457 -0.138 0.47000000000000003 -0.222 L 0.517 -0.222 Z"/></g></g><path fill="none" stroke="rgb(0,0,0)" paint-order="fill stroke markers" d=" M 452.7298122617313 103.92391359998697 L 472.7667765034966 123.96087784175238" stroke-opacity="0.6980392156862745" stroke-linecap="round" stroke-linejoin="round" stroke-miterlimit="10" stroke-width="2.5"/><path fill="rgb(0,0,0)" stroke="none" paint-order="stroke fill markers" fill-rule="evenodd" d=" M 484.7875917836679 135.9816931219237 L 469.7615726834538 126.9660816617952 L 475.7719803235394 120.95567402170956 Z" fill-opacity="0.6980392156862745"/><g transform="scale(27,27)"><g transform="translate(16.444444444444443,5.222222777777778)"><path fill="rgb(0,0,0)" stroke="none" paint-order="stroke fill markers" d=" M 0.052000000000000005 0.129 L 0.169 -0.336 Q 0.17500000000000002 -0.357 0.17500000000000002 -0.379 Q 0.17500000000000002 -0.41600000000000004 0.152 -0.41600000000000004 Q 0.109 -0.41600000000000004 0.084 -0.316 Q 0.077 -0.28800000000000003 0.076 -0.28700000000000003 Q 0.07100000000000001 -0.28200000000000003 0.056 -0.28200000000000003 Q 0.032 -0.28200000000000003 0.032 -0.296 Q 0.032 -0.304 0.043000000000000003 -0.3365 Q 0.054 -0.369 0.07 -0.395 Q 0.10300000000000001 -0.452 0.157 -0.452 Q 0.234 -0.452 0.272 -0.398 Q 0.33 -0.452 0.41100000000000003 -0.452 Q 0.483 -0.452 0.5345 -0.41200000000000003 Q 0.586 -0.372 0.586 -0.28700000000000003 Q 0.586 -0.176 0.5065000000000001 -0.084 Q 0.427 0.008 0.304 0.008 Q 0.242 0.008 0.203 -0.028 L 0.16 0.146 Q 0.17300000000000001 0.147 0.203 0.147 Q 0.229 0.147 0.229 0.165 Q 0.229 0.194 0.203 0.194 Q 0.186 0.194 0.15 0.1925 Q 0.114 0.191 0.096 0.191 Q 0.081 0.191 0.0495 0.1925 Q 0.018000000000000002 0.194 0.004 0.194 Q -0.015 0.194 -0.015 0.17500000000000002 Q -0.015 0.162 -0.009000000000000001 0.1555 Q -0.003 0.149 0.003 0.148 Q 0.009000000000000001 0.147 0.02 0.147 Q 0.04 0.147 0.046 0.145 Q 0.048 0.14300000000000002 0.052000000000000005 0.129 M 0.28200000000000003 -0.35100000000000003 L 0.221 -0.1 L 0.219 -0.08600000000000001 Q 0.219 -0.07200000000000001 0.2415 -0.05 Q 0.264 -0.028 0.302 -0.028 Q 0.381 -0.028 0.423 -0.126 Q 0.437 -0.16 0.455 -0.232 Q 0.47300000000000003 -0.304 0.47300000000000003 -0.34 Q 0.47300000000000003 -0.41600000000000004 0.406 -0.41600000000000004 Q 0.372 -0.41600000000000004 0.339 -0.3975 Q 0.306 -0.379 0.28200000000000003 -0.35100000000000003 Z"/></g><g transform="translate(17.045368444444442,5.372222777777778) scale(0.7,0.7)"><path fill="rgb(0,0,0)" stroke="none" paint-order="stroke fill markers" d=" M 0.354 -0.623 L 0.354 -0.047 L 0.494 -0.047 L 0.494 0 Q 0.45 -0.003 0.295 -0.003 Q 0.14 -0.003 0.096 0 L 0.096 -0.047 L 0.23500000000000001 -0.047 L 0.23500000000000001 -0.5640000000000001 Q 0.17300000000000001 -0.544 0.105 -0.544 L 0.085 -0.544 L 0.085 -0.591 L 0.105 -0.591 Q 0.229 -0.591 0.306 -0.648 Q 0.315 -0.655 0.328 -0.655 Q 0.34600000000000003 -0.655 0.35000000000000003 -0.6485 Q 0.354 -0.642 0.354 -0.623 Z"/></g></g><path fill="none" stroke="rgb(0,0,0)" paint-order="fill stroke markers" d=" M 180.23868632527018 55.83724431708187 L 499.8646129642891 40.616962096176145" stroke-opacity="0.6980392156862745" stroke-linejoin="round" stroke-miterlimit="10" stroke-width="2.5" stroke-dasharray="10.5,8"/><path fill="rgb(0,0,0)" stroke="none" paint-order="stroke fill markers" fill-rule="evenodd" d=" M 516.8453713056045 39.8083545561135 L 500.0667648493048 44.862151681505004 L 499.66246107927344 36.371772510847286 Z" fill-opacity="0.6980392156862745"/><g transform="scale(27,27)"><g transform="translate(10.666666666666666,1.4240727407407408)"><path fill="rgb(0,0,0)" stroke="none" paint-order="stroke fill markers" d=" M 0.37 -0.6950000000000001 L 0.5700000000000001 -0.074 Q 0.58 -0.045 0.592 -0.038 Q 0.607 -0.031 0.661 -0.031 L 0.661 0 Q 0.544 -0.003 0.538 -0.003 Q 0.429 -0.003 0.394 0 L 0.394 -0.031 Q 0.47900000000000004 -0.031 0.47900000000000004 -0.061 Q 0.47900000000000004 -0.065 0.47400000000000003 -0.079 L 0.316 -0.5710000000000001 L 0.166 -0.105 Q 0.161 -0.091 0.161 -0.083 Q 0.161 -0.051000000000000004 0.199 -0.038 Q 0.216 -0.031 0.23800000000000002 -0.031 L 0.23800000000000002 0 Q 0.145 -0.003 0.125 -0.003 Q 0.082 -0.003 0.032 0 L 0.032 -0.031 Q 0.108 -0.031 0.132 -0.1 L 0.324 -0.6950000000000001 Q 0.329 -0.712 0.336 -0.715 L 0.337 -0.715 Q 0.34 -0.716 0.34700000000000003 -0.716 Q 0.362 -0.716 0.368 -0.7020000000000001 Q 0.369 -0.6990000000000001 0.37 -0.6950000000000001 Z"/></g></g><path fill="none" stroke="rgb(0,0,0)" paint-order="fill stroke markers" d=" M 132.1520170423653 392.4439292974176 L 147.20979656430188 392.4439292974176" stroke-opacity="0.6980392156862745" stroke-linecap="round" stroke-linejoin="round" stroke-miterlimit="10" stroke-width="2.5"/><path fill="rgb(0,0,0)" stroke="none" paint-order="stroke fill markers" fill-rule="evenodd" d=" M 164.20979656430188 392.4439292974176 L 147.20979656430188 396.6939292974176 L 147.20979656430188 388.1939292974176 Z" fill-opacity="0.6980392156862745"/><g transform="scale(27,27)"><g transform="translate(5.037037037037037,15.33333388888889)"><path fill="rgb(0,0,0)" stroke="none" paint-order="stroke fill markers" d=" M 0.222 -0.218 L 0.178 -0.218 Q 0.163 -0.162 0.163 -0.125 Q 0.163 -0.028 0.261 -0.028 Q 0.396 -0.028 0.47100000000000003 -0.107 Q 0.481 -0.11800000000000001 0.486 -0.11800000000000001 Q 0.493 -0.11800000000000001 0.502 -0.108 Q 0.511 -0.098 0.511 -0.092 Q 0.511 -0.081 0.482 -0.0565 Q 0.453 -0.032 0.41300000000000003 -0.016 Q 0.35000000000000003 0.008 0.258 0.008 Q 0.159 0.008 0.10400000000000001 -0.039 Q 0.049 -0.08600000000000001 0.049 -0.17200000000000001 Q 0.049 -0.29 0.1365 -0.371 Q 0.224 -0.452 0.358 -0.452 Q 0.42 -0.452 0.4575 -0.4255 Q 0.495 -0.399 0.495 -0.356 Q 0.495 -0.272 0.396 -0.23800000000000002 Q 0.336 -0.218 0.222 -0.218 M 0.187 -0.254 Q 0.216 -0.254 0.232 -0.254 Q 0.248 -0.254 0.278 -0.256 Q 0.308 -0.258 0.326 -0.2615 Q 0.34400000000000003 -0.265 0.367 -0.2725 Q 0.39 -0.28 0.403 -0.2905 Q 0.41600000000000004 -0.301 0.4255 -0.3175 Q 0.435 -0.334 0.435 -0.355 Q 0.435 -0.386 0.41200000000000003 -0.401 Q 0.389 -0.41600000000000004 0.358 -0.41600000000000004 Q 0.292 -0.41600000000000004 0.246 -0.37 Q 0.20600000000000002 -0.333 0.187 -0.254 Z"/></g><g transform="translate(5.590646037037037,15.48333388888889) scale(0.7,0.7)"><path fill="rgb(0,0,0)" stroke="none" paint-order="stroke fill markers" d=" M 0.354 -0.623 L 0.354 -0.047 L 0.494 -0.047 L 0.494 0 Q 0.45 -0.003 0.295 -0.003 Q 0.14 -0.003 0.096 0 L 0.096 -0.047 L 0.23500000000000001 -0.047 L 0.23500000000000001 -0.5640000000000001 Q 0.17300000000000001 -0.544 0.105 -0.544 L 0.085 -0.544 L 0.085 -0.591 L 0.105 -0.591 Q 0.229 -0.591 0.306 -0.648 Q 0.315 -0.655 0.328 -0.655 Q 0.34600000000000003 -0.655 0.35000000000000003 -0.6485 Q 0.354 -0.642 0.354 -0.623 Z"/></g></g><path fill="none" stroke="rgb(0,0,0)" paint-order="fill stroke markers" d=" M 132.1520170423653 392.4439292974176 L 132.1520170423653 377.3861497754809" stroke-opacity="0.6980392156862745" stroke-linecap="round" stroke-linejoin="round" stroke-miterlimit="10" stroke-width="2.5"/><path fill="rgb(0,0,0)" stroke="none" paint-order="stroke fill markers" fill-rule="evenodd" d=" M 132.1520170423653 360.3861497754809 L 136.4020170423653 377.3861497754809 L 127.90201704236529 377.3861497754809 Z" fill-opacity="0.6980392156862745"/><g transform="scale(27,27)"><g transform="translate(3.740740740740741,14.18518574074074)"><path fill="rgb(0,0,0)" stroke="none" paint-order="stroke fill markers" d=" M 0.222 -0.218 L 0.178 -0.218 Q 0.163 -0.162 0.163 -0.125 Q 0.163 -0.028 0.261 -0.028 Q 0.396 -0.028 0.47100000000000003 -0.107 Q 0.481 -0.11800000000000001 0.486 -0.11800000000000001 Q 0.493 -0.11800000000000001 0.502 -0.108 Q 0.511 -0.098 0.511 -0.092 Q 0.511 -0.081 0.482 -0.0565 Q 0.453 -0.032 0.41300000000000003 -0.016 Q 0.35000000000000003 0.008 0.258 0.008 Q 0.159 0.008 0.10400000000000001 -0.039 Q 0.049 -0.08600000000000001 0.049 -0.17200000000000001 Q 0.049 -0.29 0.1365 -0.371 Q 0.224 -0.452 0.358 -0.452 Q 0.42 -0.452 0.4575 -0.4255 Q 0.495 -0.399 0.495 -0.356 Q 0.495 -0.272 0.396 -0.23800000000000002 Q 0.336 -0.218 0.222 -0.218 M 0.187 -0.254 Q 0.216 -0.254 0.232 -0.254 Q 0.248 -0.254 0.278 -0.256 Q 0.308 -0.258 0.326 -0.2615 Q 0.34400000000000003 -0.265 0.367 -0.2725 Q 0.39 -0.28 0.403 -0.2905 Q 0.41600000000000004 -0.301 0.4255 -0.3175 Q 0.435 -0.334 0.435 -0.355 Q 0.435 -0.386 0.41200000000000003 -0.401 Q 0.389 -0.41600000000000004 0.358 -0.41600000000000004 Q 0.292 -0.41600000000000004 0.246 -0.37 Q 0.20600000000000002 -0.333 0.187 -0.254 Z"/></g><g transform="translate(4.294349740740741,14.33518574074074) scale(0.7,0.7)"><path fill="rgb(0,0,0)" stroke="none" paint-order="stroke fill markers" d=" M 0.517 -0.222 L 0.486 0 L 0.057 0 L 0.057 -0.018000000000000002 Q 0.057 -0.034 0.059000000000000004 -0.0385 Q 0.061 -0.043000000000000003 0.07 -0.052000000000000005 L 0.271 -0.257 Q 0.379 -0.367 0.379 -0.465 Q 0.379 -0.525 0.34400000000000003 -0.5665 Q 0.309 -0.608 0.247 -0.608 Q 0.186 -0.608 0.14400000000000002 -0.5730000000000001 Q 0.155 -0.5700000000000001 0.166 -0.5645 Q 0.177 -0.559 0.189 -0.542 Q 0.201 -0.525 0.201 -0.501 Q 0.201 -0.466 0.1785 -0.4475 Q 0.156 -0.429 0.129 -0.429 Q 0.10400000000000001 -0.429 0.0805 -0.4465 Q 0.057 -0.464 0.057 -0.503 Q 0.057 -0.5700000000000001 0.11850000000000001 -0.6125 Q 0.18 -0.655 0.272 -0.655 Q 0.379 -0.655 0.448 -0.603 Q 0.517 -0.551 0.517 -0.466 Q 0.517 -0.431 0.507 -0.404 Q 0.497 -0.377 0.46900000000000003 -0.34750000000000003 Q 0.441 -0.318 0.417 -0.299 Q 0.393 -0.28 0.339 -0.24 Q 0.292 -0.20600000000000002 0.195 -0.125 L 0.342 -0.125 Q 0.433 -0.125 0.444 -0.131 Q 0.457 -0.138 0.47000000000000003 -0.222 L 0.517 -0.222 Z"/></g></g><path fill="none" stroke="rgb(0,0,0)" paint-order="fill stroke markers" d=" M 452.7298122617313 392.4439292974176 L 467.7875917836679 392.4439292974176" stroke-opacity="0.6980392156862745" stroke-linecap="round" stroke-linejoin="round" stroke-miterlimit="10" stroke-width="2.5"/><path fill="rgb(0,0,0)" stroke="none" paint-order="stroke fill markers" fill-rule="evenodd" d=" M 484.7875917836679 392.4439292974176 L 467.7875917836679 396.6939292974176 L 467.7875917836679 388.1939292974176 Z" fill-opacity="0.6980392156862745"/><g transform="scale(27,27)"><g transform="translate(16.88888888888889,15.33333388888889)"><path fill="rgb(0,0,0)" stroke="none" paint-order="stroke fill markers" d=" M 0.222 -0.218 L 0.178 -0.218 Q 0.163 -0.162 0.163 -0.125 Q 0.163 -0.028 0.261 -0.028 Q 0.396 -0.028 0.47100000000000003 -0.107 Q 0.481 -0.11800000000000001 0.486 -0.11800000000000001 Q 0.493 -0.11800000000000001 0.502 -0.108 Q 0.511 -0.098 0.511 -0.092 Q 0.511 -0.081 0.482 -0.0565 Q 0.453 -0.032 0.41300000000000003 -0.016 Q 0.35000000000000003 0.008 0.258 0.008 Q 0.159 0.008 0.10400000000000001 -0.039 Q 0.049 -0.08600000000000001 0.049 -0.17200000000000001 Q 0.049 -0.29 0.1365 -0.371 Q 0.224 -0.452 0.358 -0.452 Q 0.42 -0.452 0.4575 -0.4255 Q 0.495 -0.399 0.495 -0.356 Q 0.495 -0.272 0.396 -0.23800000000000002 Q 0.336 -0.218 0.222 -0.218 M 0.187 -0.254 Q 0.216 -0.254 0.232 -0.254 Q 0.248 -0.254 0.278 -0.256 Q 0.308 -0.258 0.326 -0.2615 Q 0.34400000000000003 -0.265 0.367 -0.2725 Q 0.39 -0.28 0.403 -0.2905 Q 0.41600000000000004 -0.301 0.4255 -0.3175 Q 0.435 -0.334 0.435 -0.355 Q 0.435 -0.386 0.41200000000000003 -0.401 Q 0.389 -0.41600000000000004 0.358 -0.41600000000000004 Q 0.292 -0.41600000000000004 0.246 -0.37 Q 0.20600000000000002 -0.333 0.187 -0.254 Z"/></g><g transform="translate(17.44249788888889,15.48333388888889) scale(0.7,0.7)"><path fill="rgb(0,0,0)" stroke="none" paint-order="stroke fill markers" d=" M 0.354 -0.623 L 0.354 -0.047 L 0.494 -0.047 L 0.494 0 Q 0.45 -0.003 0.295 -0.003 Q 0.14 -0.003 0.096 0 L 0.096 -0.047 L 0.23500000000000001 -0.047 L 0.23500000000000001 -0.5640000000000001 Q 0.17300000000000001 -0.544 0.105 -0.544 L 0.085 -0.544 L 0.085 -0.591 L 0.105 -0.591 Q 0.229 -0.591 0.306 -0.648 Q 0.315 -0.655 0.328 -0.655 Q 0.34600000000000003 -0.655 0.35000000000000003 -0.6485 Q 0.354 -0.642 0.354 -0.623 Z"/></g></g><path fill="none" stroke="rgb(0,0,0)" paint-order="fill stroke markers" d=" M 452.7298122617313 392.4439292974176 L 452.7298122617313 377.3861497754809" stroke-opacity="0.6980392156862745" stroke-linecap="round" stroke-linejoin="round" stroke-miterlimit="10" stroke-width="2.5"/><path fill="rgb(0,0,0)" stroke="none" paint-order="stroke fill markers" fill-rule="evenodd" d=" M 452.7298122617313 360.3861497754809 L 456.9798122617313 377.3861497754809 L 448.4798122617313 377.3861497754809 Z" fill-opacity="0.6980392156862745"/><g transform="scale(27,27)"><g transform="translate(15.592592592592593,14.148148703703704)"><path fill="rgb(0,0,0)" stroke="none" paint-order="stroke fill markers" d=" M 0.222 -0.218 L 0.178 -0.218 Q 0.163 -0.162 0.163 -0.125 Q 0.163 -0.028 0.261 -0.028 Q 0.396 -0.028 0.47100000000000003 -0.107 Q 0.481 -0.11800000000000001 0.486 -0.11800000000000001 Q 0.493 -0.11800000000000001 0.502 -0.108 Q 0.511 -0.098 0.511 -0.092 Q 0.511 -0.081 0.482 -0.0565 Q 0.453 -0.032 0.41300000000000003 -0.016 Q 0.35000000000000003 0.008 0.258 0.008 Q 0.159 0.008 0.10400000000000001 -0.039 Q 0.049 -0.08600000000000001 0.049 -0.17200000000000001 Q 0.049 -0.29 0.1365 -0.371 Q 0.224 -0.452 0.358 -0.452 Q 0.42 -0.452 0.4575 -0.4255 Q 0.495 -0.399 0.495 -0.356 Q 0.495 -0.272 0.396 -0.23800000000000002 Q 0.336 -0.218 0.222 -0.218 M 0.187 -0.254 Q 0.216 -0.254 0.232 -0.254 Q 0.248 -0.254 0.278 -0.256 Q 0.308 -0.258 0.326 -0.2615 Q 0.34400000000000003 -0.265 0.367 -0.2725 Q 0.39 -0.28 0.403 -0.2905 Q 0.41600000000000004 -0.301 0.4255 -0.3175 Q 0.435 -0.334 0.435 -0.355 Q 0.435 -0.386 0.41200000000000003 -0.401 Q 0.389 -0.41600000000000004 0.358 -0.41600000000000004 Q 0.292 -0.41600000000000004 0.246 -0.37 Q 0.20600000000000002 -0.333 0.187 -0.254 Z"/></g><g transform="translate(16.146201592592593,14.298148703703704) scale(0.7,0.7)"><path fill="rgb(0,0,0)" stroke="none" paint-order="stroke fill markers" d=" M 0.517 -0.222 L 0.486 0 L 0.057 0 L 0.057 -0.018000000000000002 Q 0.057 -0.034 0.059000000000000004 -0.0385 Q 0.061 -0.043000000000000003 0.07 -0.052000000000000005 L 0.271 -0.257 Q 0.379 -0.367 0.379 -0.465 Q 0.379 -0.525 0.34400000000000003 -0.5665 Q 0.309 -0.608 0.247 -0.608 Q 0.186 -0.608 0.14400000000000002 -0.5730000000000001 Q 0.155 -0.5700000000000001 0.166 -0.5645 Q 0.177 -0.559 0.189 -0.542 Q 0.201 -0.525 0.201 -0.501 Q 0.201 -0.466 0.1785 -0.4475 Q 0.156 -0.429 0.129 -0.429 Q 0.10400000000000001 -0.429 0.0805 -0.4465 Q 0.057 -0.464 0.057 -0.503 Q 0.057 -0.5700000000000001 0.11850000000000001 -0.6125 Q 0.18 -0.655 0.272 -0.655 Q 0.379 -0.655 0.448 -0.603 Q 0.517 -0.551 0.517 -0.466 Q 0.517 -0.431 0.507 -0.404 Q 0.497 -0.377 0.46900000000000003 -0.34750000000000003 Q 0.441 -0.318 0.417 -0.299 Q 0.393 -0.28 0.339 -0.24 Q 0.292 -0.20600000000000002 0.195 -0.125 L 0.342 -0.125 Q 0.433 -0.125 0.444 -0.131 Q 0.457 -0.138 0.47000000000000003 -0.222 L 0.517 -0.222 Z"/></g></g><path fill="none" stroke="rgb(0,0,0)" paint-order="fill stroke markers" d=" M 180.23868632527018 344.3572600145125 L 499.8646129642891 329.1369777936068" stroke-opacity="0.6980392156862745" stroke-linecap="round" stroke-linejoin="round" stroke-miterlimit="10" stroke-width="2.5"/><path fill="rgb(0,0,0)" stroke="none" paint-order="stroke fill markers" fill-rule="evenodd" d=" M 516.8453713056045 328.3283702535441 L 500.0667648493048 333.38216737893566 L 499.66246107927344 324.8917882082779 Z" fill-opacity="0.6980392156862745"/><g transform="scale(27,27)"><g transform="translate(10.62962962962963,13.57222088888889)"><path fill="rgb(0,0,0)" stroke="none" paint-order="stroke fill markers" d=" M 0.179 -0.115 L 0.527 -0.6990000000000001 Q 0.537 -0.715 0.553 -0.716 Q 0.5680000000000001 -0.716 0.5700000000000001 -0.706 Q 0.5710000000000001 -0.7030000000000001 0.5720000000000001 -0.6920000000000001 L 0.633 -0.067 Q 0.636 -0.042 0.645 -0.037 L 0.646 -0.037 L 0.646 -0.037 L 0.646 -0.037 L 0.646 -0.037 L 0.646 -0.036000000000000004 Q 0.658 -0.031 0.6980000000000001 -0.031 Q 0.72 -0.031 0.721 -0.02 Q 0.721 0 0.7030000000000001 0 L 0.591 -0.003 L 0.59 -0.003 L 0.466 0 L 0.465 0 Q 0.451 0 0.451 -0.011 Q 0.459 -0.03 0.47500000000000003 -0.031 Q 0.547 -0.031 0.547 -0.064 Q 0.547 -0.063 0.531 -0.231 L 0.28 -0.231 L 0.20400000000000001 -0.10300000000000001 Q 0.19 -0.078 0.19 -0.066 Q 0.19 -0.035 0.23700000000000002 -0.031 Q 0.253 -0.031 0.253 -0.019 Q 0.253 0 0.234 0 L 0.138 -0.003 L 0.134 -0.003 L 0.05 0 L 0.048 0 Q 0.035 0 0.035 -0.011 Q 0.035 -0.029 0.05 -0.03 L 0.05 -0.031 L 0.056 -0.031 Q 0.11900000000000001 -0.035 0.159 -0.085 Q 0.169 -0.098 0.179 -0.115 M 0.299 -0.262 L 0.528 -0.262 L 0.496 -0.592 L 0.299 -0.262 Z"/></g></g><path fill="none" stroke="rgb(0,0,0)" paint-order="fill stroke markers" d=" M 180.23868632527018 344.3572600145125 L 180.23868632527018 72.83724431708187" stroke-opacity="0.6980392156862745" stroke-linejoin="round" stroke-miterlimit="10" stroke-width="2.5" stroke-dasharray="10.5,8"/><path fill="rgb(0,0,0)" stroke="none" paint-order="stroke fill markers" fill-rule="evenodd" d=" M 180.23868632527018 55.83724431708187 L 184.48868632527018 72.83724431708187 L 175.98868632527018 72.83724431708187 Z" fill-opacity="0.6980392156862745"/><g transform="scale(27,27)"><g transform="translate(4.555555555555555,9.271410207407406)"><path fill="rgb(0,0,0)" stroke="none" paint-order="stroke fill markers" d=" M 0.303 -0.316 L 0.303 -0.316 L 0.241 -0.066 L 0.23800000000000002 -0.049 Q 0.23800000000000002 -0.032 0.28400000000000003 -0.031 L 0.28400000000000003 -0.031 L 0.28400000000000003 -0.031 L 0.303 -0.031 Q 0.329 -0.031 0.331 -0.02 Q 0.331 0 0.311 0 L 0.247 -0.002 L 0.246 -0.002 L 0.184 -0.003 L 0.182 -0.003 L 0.056 0 L 0.055 0 Q 0.04 0 0.04 -0.012 Q 0.04 -0.029 0.056 -0.031 L 0.068 -0.031 Q 0.133 -0.031 0.146 -0.045 Q 0.152 -0.052000000000000005 0.158 -0.073 Q 0.158 -0.074 0.159 -0.078 L 0.293 -0.615 Q 0.297 -0.631 0.297 -0.634 Q 0.297 -0.646 0.281 -0.649 L 0.28 -0.649 L 0.28 -0.649 Q 0.278 -0.65 0.275 -0.65 Q 0.251 -0.652 0.232 -0.652 Q 0.20600000000000002 -0.652 0.20400000000000001 -0.66 Q 0.203 -0.662 0.203 -0.664 Q 0.203 -0.681 0.22 -0.683 L 0.22 -0.683 L 0.233 -0.683 L 0.557 -0.683 Q 0.678 -0.683 0.73 -0.609 Q 0.754 -0.5740000000000001 0.754 -0.532 Q 0.754 -0.451 0.671 -0.385 Q 0.583 -0.316 0.47300000000000003 -0.316 L 0.303 -0.316 M 0.375 -0.614 L 0.307 -0.342 L 0.448 -0.342 Q 0.543 -0.342 0.602 -0.395 Q 0.643 -0.433 0.658 -0.522 L 0.658 -0.523 Q 0.661 -0.542 0.661 -0.556 Q 0.661 -0.652 0.525 -0.652 L 0.429 -0.652 Q 0.393 -0.652 0.385 -0.642 L 0.385 -0.642 L 0.385 -0.641 L 0.384 -0.641 L 0.384 -0.64 Q 0.38 -0.634 0.375 -0.614 Z"/></g><g transform="translate(5.336459555555555,8.858518207407407) scale(0.7,0.7)"><path fill="rgb(0,0,0)" stroke="none" paint-order="stroke fill markers" d=" M 0.661 -0.23 L 0.116 -0.23 Q 0.084 -0.23 0.083 -0.25 Q 0.083 -0.27 0.116 -0.27 L 0.661 -0.27 Q 0.6930000000000001 -0.27 0.6940000000000001 -0.25 Q 0.6940000000000001 -0.23 0.661 -0.23 Z"/></g><g transform="translate(5.880906255555555,8.858518207407407) scale(0.7,0.7)"><path fill="rgb(0,0,0)" stroke="none" paint-order="stroke fill markers" d=" M 0.294 -0.64 L 0.294 -0.079 Q 0.294 -0.049 0.306 -0.041 Q 0.323 -0.031 0.387 -0.031 L 0.419 -0.031 L 0.419 0 Q 0.384 -0.003 0.257 -0.003 Q 0.13 -0.003 0.095 0 L 0.095 -0.031 L 0.127 -0.031 Q 0.20400000000000001 -0.031 0.215 -0.049 L 0.216 -0.05 Q 0.22 -0.058 0.22 -0.079 L 0.22 -0.597 Q 0.168 -0.5710000000000001 0.089 -0.5710000000000001 L 0.089 -0.602 Q 0.209 -0.602 0.271 -0.666 Q 0.29 -0.666 0.293 -0.659 L 0.293 -0.659 L 0.293 -0.658 Q 0.294 -0.655 0.294 -0.64 Z"/></g></g><path fill="none" stroke="rgb(0,0,0)" paint-order="fill stroke markers" d=" M 516.8453713056045 39.8083545561135 L 516.8453713056045 311.3283702535441" stroke-opacity="0.6980392156862745" stroke-linejoin="round" stroke-miterlimit="10" stroke-width="2.5" stroke-dasharray="10.5,8"/><path fill="rgb(0,0,0)" stroke="none" paint-order="stroke fill markers" fill-rule="evenodd" d=" M 516.8453713056045 328.3283702535441 L 512.5953713056045 311.3283702535441 L 521.0953713056045 311.3283702535441 Z" fill-opacity="0.6980392156862745"/><g transform="scale(27,27)"><g transform="translate(19.555555555555557,9.349998666666666)"><path fill="rgb(0,0,0)" stroke="none" paint-order="stroke fill markers" d=" M 0.303 -0.316 L 0.303 -0.316 L 0.241 -0.066 L 0.23800000000000002 -0.049 Q 0.23800000000000002 -0.032 0.28400000000000003 -0.031 L 0.28400000000000003 -0.031 L 0.28400000000000003 -0.031 L 0.303 -0.031 Q 0.329 -0.031 0.331 -0.02 Q 0.331 0 0.311 0 L 0.247 -0.002 L 0.246 -0.002 L 0.184 -0.003 L 0.182 -0.003 L 0.056 0 L 0.055 0 Q 0.04 0 0.04 -0.012 Q 0.04 -0.029 0.056 -0.031 L 0.068 -0.031 Q 0.133 -0.031 0.146 -0.045 Q 0.152 -0.052000000000000005 0.158 -0.073 Q 0.158 -0.074 0.159 -0.078 L 0.293 -0.615 Q 0.297 -0.631 0.297 -0.634 Q 0.297 -0.646 0.281 -0.649 L 0.28 -0.649 L 0.28 -0.649 Q 0.278 -0.65 0.275 -0.65 Q 0.251 -0.652 0.232 -0.652 Q 0.20600000000000002 -0.652 0.20400000000000001 -0.66 Q 0.203 -0.662 0.203 -0.664 Q 0.203 -0.681 0.22 -0.683 L 0.22 -0.683 L 0.233 -0.683 L 0.557 -0.683 Q 0.678 -0.683 0.73 -0.609 Q 0.754 -0.5740000000000001 0.754 -0.532 Q 0.754 -0.451 0.671 -0.385 Q 0.583 -0.316 0.47300000000000003 -0.316 L 0.303 -0.316 M 0.375 -0.614 L 0.307 -0.342 L 0.448 -0.342 Q 0.543 -0.342 0.602 -0.395 Q 0.643 -0.433 0.658 -0.522 L 0.658 -0.523 Q 0.661 -0.542 0.661 -0.556 Q 0.661 -0.652 0.525 -0.652 L 0.429 -0.652 Q 0.393 -0.652 0.385 -0.642 L 0.385 -0.642 L 0.385 -0.641 L 0.384 -0.641 L 0.384 -0.64 Q 0.38 -0.634 0.375 -0.614 Z"/></g></g><path fill="rgb(102,204,255)" stroke="none" paint-order="stroke fill markers" d=" M 456.7298122617313 392.4439292974176 C 456.7298122617313 394.65306829674074 454.93895126105446 396.4439292974176 452.7298122617313 396.4439292974176 C 450.52067326240814 396.4439292974176 448.7298122617313 394.65306829674074 448.7298122617313 392.4439292974176 C 448.7298122617313 390.2347902980944 450.52067326240814 388.4439292974176 452.7298122617313 388.4439292974176 C 454.93895126105446 388.4439292974176 456.7298122617313 390.2347902980944 456.7298122617313 392.4439292974176 Z" fill-opacity="1"/><path fill="none" stroke="rgb(0,0,0)" paint-order="fill stroke markers" d=" M 456.7298122617313 392.4439292974176 C 456.7298122617313 394.65306829674074 454.93895126105446 396.4439292974176 452.7298122617313 396.4439292974176 C 450.52067326240814 396.4439292974176 448.7298122617313 394.65306829674074 448.7298122617313 392.4439292974176 C 448.7298122617313 390.2347902980944 450.52067326240814 388.4439292974176 452.7298122617313 388.4439292974176 C 454.93895126105446 388.4439292974176 456.7298122617313 390.2347902980944 456.7298122617313 392.4439292974176 Z" stroke-opacity="1" stroke-linecap="round" stroke-linejoin="round" stroke-miterlimit="10"/><path fill="rgb(255,51,102)" stroke="none" paint-order="stroke fill markers" d=" M 521.8453713056045 328.3283702535441 C 521.8453713056045 331.08979400269806 519.6067950547585 333.3283702535441 516.8453713056045 333.3283702535441 C 514.0839475564505 333.3283702535441 511.84537130560454 331.08979400269806 511.84537130560454 328.3283702535441 C 511.84537130560454 325.56694650439016 514.0839475564505 323.3283702535441 516.8453713056045 323.3283702535441 C 519.6067950547585 323.3283702535441 521.8453713056045 325.56694650439016 521.8453713056045 328.3283702535441 Z" fill-opacity="1"/><path fill="none" stroke="rgb(0,0,0)" paint-order="fill stroke markers" d=" M 521.8453713056045 328.3283702535441 C 521.8453713056045 331.08979400269806 519.6067950547585 333.3283702535441 516.8453713056045 333.3283702535441 C 514.0839475564505 333.3283702535441 511.84537130560454 331.08979400269806 511.84537130560454 328.3283702535441 C 511.84537130560454 325.56694650439016 514.0839475564505 323.3283702535441 516.8453713056045 323.3283702535441 C 519.6067950547585 323.3283702535441 521.8453713056045 325.56694650439016 521.8453713056045 328.3283702535441 Z" stroke-opacity="1" stroke-linecap="round" stroke-linejoin="round" stroke-miterlimit="10"/><g transform="scale(27,27)"><g transform="translate(19.22222222222222,12.888889444444445)"><path fill="rgb(255,51,102)" stroke="none" paint-order="stroke fill markers" d=" M 0.536 -0.401 Q 0.516 -0.41600000000000004 0.488 -0.41600000000000004 Q 0.461 -0.41600000000000004 0.4375 -0.392 Q 0.41400000000000003 -0.368 0.403 -0.325 Q 0.4 -0.316 0.385 -0.257 Q 0.37 -0.198 0.368 -0.189 Q 0.34600000000000003 -0.099 0.34600000000000003 -0.078 Q 0.34600000000000003 -0.028 0.402 -0.028 Q 0.44 -0.028 0.482 -0.0575 Q 0.524 -0.08700000000000001 0.544 -0.149 Q 0.548 -0.162 0.5670000000000001 -0.162 Q 0.591 -0.162 0.591 -0.148 Q 0.591 -0.134 0.578 -0.1095 Q 0.5650000000000001 -0.085 0.542 -0.058 Q 0.519 -0.031 0.48 -0.0115 Q 0.441 0.008 0.397 0.008 Q 0.295 0.008 0.259 -0.053 Q 0.215 0.008 0.152 0.008 Q 0.105 0.008 0.07150000000000001 -0.0165 Q 0.038 -0.041 0.038 -0.08 Q 0.038 -0.115 0.06 -0.1365 Q 0.082 -0.158 0.11 -0.158 Q 0.133 -0.158 0.1465 -0.14400000000000002 Q 0.16 -0.13 0.16 -0.112 Q 0.16 -0.091 0.1455 -0.07050000000000001 Q 0.131 -0.05 0.106 -0.043000000000000003 Q 0.126 -0.028 0.154 -0.028 Q 0.181 -0.028 0.20450000000000002 -0.051500000000000004 Q 0.228 -0.075 0.23900000000000002 -0.11900000000000001 L 0.273 -0.256 Q 0.296 -0.34800000000000003 0.296 -0.366 Q 0.296 -0.41600000000000004 0.24 -0.41600000000000004 Q 0.202 -0.41600000000000004 0.16 -0.3865 Q 0.11800000000000001 -0.357 0.098 -0.295 Q 0.094 -0.28200000000000003 0.075 -0.28200000000000003 Q 0.051000000000000004 -0.28200000000000003 0.051000000000000004 -0.296 Q 0.051000000000000004 -0.31 0.064 -0.3345 Q 0.077 -0.359 0.1 -0.386 Q 0.123 -0.41300000000000003 0.162 -0.4325 Q 0.201 -0.452 0.245 -0.452 Q 0.34700000000000003 -0.452 0.383 -0.391 Q 0.427 -0.452 0.49 -0.452 Q 0.537 -0.452 0.5705 -0.4275 Q 0.604 -0.403 0.604 -0.364 Q 0.604 -0.329 0.582 -0.3075 Q 0.56 -0.28600000000000003 0.532 -0.28600000000000003 Q 0.509 -0.28600000000000003 0.4955 -0.3 Q 0.482 -0.314 0.482 -0.332 Q 0.482 -0.353 0.4965 -0.3735 Q 0.511 -0.394 0.536 -0.401 Z"/></g><g transform="translate(19.881249222222223,13.038889444444445) scale(0.7,0.7)"><path fill="rgb(255,51,102)" stroke="none" paint-order="stroke fill markers" d=" M 0.088 -0.059000000000000004 L 0.088 -0.059000000000000004 L 0.146 -0.29 Q 0.162 -0.354 0.162 -0.374 Q 0.162 -0.42 0.131 -0.42 Q 0.09 -0.42 0.064 -0.325 Q 0.061 -0.314 0.058 -0.301 Q 0.047 -0.279 0.041 -0.278 Q 0.029 -0.278 0.029 -0.28800000000000003 Q 0.029 -0.304 0.049 -0.36 L 0.049 -0.361 Q 0.049 -0.362 0.05 -0.362 L 0.05 -0.363 L 0.05 -0.364 L 0.059000000000000004 -0.385 Q 0.081 -0.425 0.10400000000000001 -0.435 Q 0.11800000000000001 -0.442 0.134 -0.442 Q 0.19 -0.442 0.215 -0.395 Q 0.224 -0.377 0.226 -0.355 Q 0.29 -0.442 0.382 -0.442 Q 0.468 -0.442 0.491 -0.376 Q 0.497 -0.358 0.497 -0.335 Q 0.497 -0.28400000000000003 0.436 -0.115 Q 0.418 -0.07100000000000001 0.418 -0.044 Q 0.418 -0.011 0.442 -0.011 Q 0.508 -0.011 0.544 -0.135 Q 0.549 -0.151 0.554 -0.152 L 0.554 -0.153 L 0.559 -0.153 Q 0.5710000000000001 -0.153 0.5710000000000001 -0.14300000000000002 Q 0.5710000000000001 -0.126 0.55 -0.08 Q 0.507 0.011 0.44 0.011 Q 0.389 0.011 0.367 -0.032 Q 0.358 -0.05 0.358 -0.07100000000000001 Q 0.358 -0.091 0.368 -0.117 Q 0.433 -0.292 0.433 -0.35000000000000003 Q 0.433 -0.42 0.379 -0.42 Q 0.289 -0.42 0.228 -0.32 Q 0.221 -0.309 0.216 -0.298 L 0.203 -0.248 Q 0.198 -0.225 0.186 -0.181 L 0.164 -0.091 Q 0.147 -0.022 0.145 -0.017 Q 0.136 0.009000000000000001 0.108 0.011 Q 0.083 0.006 0.079 -0.016 Q 0.079 -0.014 0.088 -0.059000000000000004 Z"/></g></g><path fill="rgb(102,204,255)" stroke="none" paint-order="stroke fill markers" d=" M 136.1520170423653 392.4439292974176 C 136.1520170423653 394.65306829674074 134.36115604168845 396.4439292974176 132.1520170423653 396.4439292974176 C 129.9428780430421 396.4439292974176 128.1520170423653 394.65306829674074 128.1520170423653 392.4439292974176 C 128.1520170423653 390.2347902980944 129.9428780430421 388.4439292974176 132.1520170423653 388.4439292974176 C 134.36115604168845 388.4439292974176 136.1520170423653 390.2347902980944 136.1520170423653 392.4439292974176 Z" fill-opacity="1"/><path fill="none" stroke="rgb(0,0,0)" paint-order="fill stroke markers" d=" M 136.1520170423653 392.4439292974176 C 136.1520170423653 394.65306829674074 134.36115604168845 396.4439292974176 132.1520170423653 396.4439292974176 C 129.9428780430421 396.4439292974176 128.1520170423653 394.65306829674074 128.1520170423653 392.4439292974176 C 128.1520170423653 390.2347902980944 129.9428780430421 388.4439292974176 132.1520170423653 388.4439292974176 C 134.36115604168845 388.4439292974176 136.1520170423653 390.2347902980944 136.1520170423653 392.4439292974176 Z" stroke-opacity="1" stroke-linecap="round" stroke-linejoin="round" stroke-miterlimit="10"/><path fill="rgb(153,51,255)" stroke="none" paint-order="stroke fill markers" d=" M 185.23868632527018 344.3572600145125 C 185.23868632527018 347.11868376366647 183.00011007442416 349.3572600145125 180.23868632527018 349.3572600145125 C 177.4772625761162 349.3572600145125 175.23868632527018 347.11868376366647 175.23868632527018 344.3572600145125 C 175.23868632527018 341.59583626535857 177.4772625761162 339.3572600145125 180.23868632527018 339.3572600145125 C 183.00011007442416 339.3572600145125 185.23868632527018 341.59583626535857 185.23868632527018 344.3572600145125 Z" fill-opacity="1"/><path fill="none" stroke="rgb(0,0,0)" paint-order="fill stroke markers" d=" M 185.23868632527018 344.3572600145125 C 185.23868632527018 347.11868376366647 183.00011007442416 349.3572600145125 180.23868632527018 349.3572600145125 C 177.4772625761162 349.3572600145125 175.23868632527018 347.11868376366647 175.23868632527018 344.3572600145125 C 175.23868632527018 341.59583626535857 177.4772625761162 339.3572600145125 180.23868632527018 339.3572600145125 C 183.00011007442416 339.3572600145125 185.23868632527018 341.59583626535857 185.23868632527018 344.3572600145125 Z" stroke-opacity="1" stroke-linecap="round" stroke-linejoin="round" stroke-miterlimit="10"/><g transform="scale(27,27)"><g transform="translate(5.7407407407407405,13.740741296296296)"><path fill="rgb(153,51,255)" stroke="none" paint-order="stroke fill markers" d=" M 0.536 -0.401 Q 0.516 -0.41600000000000004 0.488 -0.41600000000000004 Q 0.461 -0.41600000000000004 0.4375 -0.392 Q 0.41400000000000003 -0.368 0.403 -0.325 Q 0.4 -0.316 0.385 -0.257 Q 0.37 -0.198 0.368 -0.189 Q 0.34600000000000003 -0.099 0.34600000000000003 -0.078 Q 0.34600000000000003 -0.028 0.402 -0.028 Q 0.44 -0.028 0.482 -0.0575 Q 0.524 -0.08700000000000001 0.544 -0.149 Q 0.548 -0.162 0.5670000000000001 -0.162 Q 0.591 -0.162 0.591 -0.148 Q 0.591 -0.134 0.578 -0.1095 Q 0.5650000000000001 -0.085 0.542 -0.058 Q 0.519 -0.031 0.48 -0.0115 Q 0.441 0.008 0.397 0.008 Q 0.295 0.008 0.259 -0.053 Q 0.215 0.008 0.152 0.008 Q 0.105 0.008 0.07150000000000001 -0.0165 Q 0.038 -0.041 0.038 -0.08 Q 0.038 -0.115 0.06 -0.1365 Q 0.082 -0.158 0.11 -0.158 Q 0.133 -0.158 0.1465 -0.14400000000000002 Q 0.16 -0.13 0.16 -0.112 Q 0.16 -0.091 0.1455 -0.07050000000000001 Q 0.131 -0.05 0.106 -0.043000000000000003 Q 0.126 -0.028 0.154 -0.028 Q 0.181 -0.028 0.20450000000000002 -0.051500000000000004 Q 0.228 -0.075 0.23900000000000002 -0.11900000000000001 L 0.273 -0.256 Q 0.296 -0.34800000000000003 0.296 -0.366 Q 0.296 -0.41600000000000004 0.24 -0.41600000000000004 Q 0.202 -0.41600000000000004 0.16 -0.3865 Q 0.11800000000000001 -0.357 0.098 -0.295 Q 0.094 -0.28200000000000003 0.075 -0.28200000000000003 Q 0.051000000000000004 -0.28200000000000003 0.051000000000000004 -0.296 Q 0.051000000000000004 -0.31 0.064 -0.3345 Q 0.077 -0.359 0.1 -0.386 Q 0.123 -0.41300000000000003 0.162 -0.4325 Q 0.201 -0.452 0.245 -0.452 Q 0.34700000000000003 -0.452 0.383 -0.391 Q 0.427 -0.452 0.49 -0.452 Q 0.537 -0.452 0.5705 -0.4275 Q 0.604 -0.403 0.604 -0.364 Q 0.604 -0.329 0.582 -0.3075 Q 0.56 -0.28600000000000003 0.532 -0.28600000000000003 Q 0.509 -0.28600000000000003 0.4955 -0.3 Q 0.482 -0.314 0.482 -0.332 Q 0.482 -0.353 0.4965 -0.3735 Q 0.511 -0.394 0.536 -0.401 Z"/></g><g transform="translate(6.3997677407407405,13.890741296296296) scale(0.7,0.7)"><path fill="rgb(153,51,255)" stroke="none" paint-order="stroke fill markers" d=" M 0.46 -0.32 Q 0.46 -0.17400000000000002 0.423 -0.094 Q 0.364 0.018000000000000002 0.249 0.022 Q 0.158 0.022 0.10300000000000001 -0.05 Q 0.092 -0.063 0.084 -0.079 Q 0.039 -0.162 0.039 -0.32 Q 0.039 -0.467 0.076 -0.547 Q 0.126 -0.659 0.23800000000000002 -0.666 L 0.25 -0.666 Q 0.339 -0.666 0.395 -0.595 L 0.395 -0.594 Q 0.40900000000000003 -0.5760000000000001 0.42 -0.554 Q 0.46 -0.46900000000000003 0.46 -0.32 M 0.249 0 L 0.249 0 Q 0.312 0 0.34600000000000003 -0.061 Q 0.36 -0.088 0.366 -0.125 Q 0.377 -0.189 0.377 -0.332 Q 0.377 -0.47100000000000003 0.367 -0.527 Q 0.34900000000000003 -0.622 0.275 -0.641 Q 0.262 -0.644 0.249 -0.644 Q 0.179 -0.644 0.147 -0.5740000000000001 Q 0.136 -0.55 0.13 -0.516 Q 0.122 -0.462 0.122 -0.332 Q 0.122 -0.181 0.133 -0.121 Q 0.151 -0.025 0.221 -0.004 Q 0.23500000000000001 0 0.249 0 Z"/></g></g><path fill="rgb(153,51,255)" stroke="none" paint-order="stroke fill markers" d=" M 185.23868632527018 55.83724431708187 C 185.23868632527018 58.59866806623583 183.00011007442416 60.83724431708187 180.23868632527018 60.83724431708187 C 177.4772625761162 60.83724431708187 175.23868632527018 58.59866806623583 175.23868632527018 55.83724431708187 C 175.23868632527018 53.0758205679279 177.4772625761162 50.83724431708187 180.23868632527018 50.83724431708187 C 183.00011007442416 50.83724431708187 185.23868632527018 53.0758205679279 185.23868632527018 55.83724431708187 Z" fill-opacity="1"/><path fill="none" stroke="rgb(0,0,0)" paint-order="fill stroke markers" d=" M 185.23868632527018 55.83724431708187 C 185.23868632527018 58.59866806623583 183.00011007442416 60.83724431708187 180.23868632527018 60.83724431708187 C 177.4772625761162 60.83724431708187 175.23868632527018 58.59866806623583 175.23868632527018 55.83724431708187 C 175.23868632527018 53.0758205679279 177.4772625761162 50.83724431708187 180.23868632527018 50.83724431708187 C 183.00011007442416 50.83724431708187 185.23868632527018 53.0758205679279 185.23868632527018 55.83724431708187 Z" stroke-opacity="1" stroke-linecap="round" stroke-linejoin="round" stroke-miterlimit="10"/><path fill="rgb(255,51,102)" stroke="none" paint-order="stroke fill markers" d=" M 521.8453713056045 39.8083545561135 C 521.8453713056045 42.56977830526746 519.6067950547585 44.8083545561135 516.8453713056045 44.8083545561135 C 514.0839475564505 44.8083545561135 511.84537130560454 42.56977830526746 511.84537130560454 39.8083545561135 C 511.84537130560454 37.04693080695953 514.0839475564505 34.8083545561135 516.8453713056045 34.8083545561135 C 519.6067950547585 34.8083545561135 521.8453713056045 37.04693080695953 521.8453713056045 39.8083545561135 Z" fill-opacity="1"/><path fill="none" stroke="rgb(0,0,0)" paint-order="fill stroke markers" d=" M 521.8453713056045 39.8083545561135 C 521.8453713056045 42.56977830526746 519.6067950547585 44.8083545561135 516.8453713056045 44.8083545561135 C 514.0839475564505 44.8083545561135 511.84537130560454 42.56977830526746 511.84537130560454 39.8083545561135 C 511.84537130560454 37.04693080695953 514.0839475564505 34.8083545561135 516.8453713056045 34.8083545561135 C 519.6067950547585 34.8083545561135 521.8453713056045 37.04693080695953 521.8453713056045 39.8083545561135 Z" stroke-opacity="1" stroke-linecap="round" stroke-linejoin="round" stroke-miterlimit="10"/><path fill="rgb(102,204,255)" stroke="none" paint-order="stroke fill markers" d=" M 456.7298122617313 103.92391359998697 C 456.7298122617313 106.13305259931015 454.93895126105446 107.92391359998697 452.7298122617313 107.92391359998697 C 450.52067326240814 107.92391359998697 448.7298122617313 106.13305259931015 448.7298122617313 103.92391359998697 C 448.7298122617313 101.7147746006638 450.52067326240814 99.92391359998697 452.7298122617313 99.92391359998697 C 454.93895126105446 99.92391359998697 456.7298122617313 101.7147746006638 456.7298122617313 103.92391359998697 Z" fill-opacity="1"/><path fill="none" stroke="rgb(0,0,0)" paint-order="fill stroke markers" d=" M 456.7298122617313 103.92391359998697 C 456.7298122617313 106.13305259931015 454.93895126105446 107.92391359998697 452.7298122617313 107.92391359998697 C 450.52067326240814 107.92391359998697 448.7298122617313 106.13305259931015 448.7298122617313 103.92391359998697 C 448.7298122617313 101.7147746006638 450.52067326240814 99.92391359998697 452.7298122617313 99.92391359998697 C 454.93895126105446 99.92391359998697 456.7298122617313 101.7147746006638 456.7298122617313 103.92391359998697 Z" stroke-opacity="1" stroke-linecap="round" stroke-linejoin="round" stroke-miterlimit="10"/><path fill="rgb(102,204,255)" stroke="none" paint-order="stroke fill markers" d=" M 136.1520170423653 103.92391359998697 C 136.1520170423653 106.13305259931015 134.36115604168845 107.92391359998697 132.1520170423653 107.92391359998697 C 129.9428780430421 107.92391359998697 128.1520170423653 106.13305259931015 128.1520170423653 103.92391359998697 C 128.1520170423653 101.7147746006638 129.9428780430421 99.92391359998697 132.1520170423653 99.92391359998697 C 134.36115604168845 99.92391359998697 136.1520170423653 101.7147746006638 136.1520170423653 103.92391359998697 Z" fill-opacity="1"/><path fill="none" stroke="rgb(0,0,0)" paint-order="fill stroke markers" d=" M 136.1520170423653 103.92391359998697 C 136.1520170423653 106.13305259931015 134.36115604168845 107.92391359998697 132.1520170423653 107.92391359998697 C 129.9428780430421 107.92391359998697 128.1520170423653 106.13305259931015 128.1520170423653 103.92391359998697 C 128.1520170423653 101.7147746006638 129.9428780430421 99.92391359998697 132.1520170423653 99.92391359998697 C 134.36115604168845 99.92391359998697 136.1520170423653 101.7147746006638 136.1520170423653 103.92391359998697 Z" stroke-opacity="1" stroke-linecap="round" stroke-linejoin="round" stroke-miterlimit="10"/></g></g></svg>