<svg version="1.1" xmlns="http://www.w3.org/2000/svg" xmlns:xlink="http://www.w3.org/1999/xlink" width="665" height="380"><defs><clipPath id="KmqPaHgXvQVC"><path fill="none" stroke="none" d=" M 0 0 L 665 0 L 665 380 L 0 380 L 0 0 Z"/></clipPath></defs><g transform="scale(1,1)" clip-path="url(#KmqPaHgXvQVC)"><g><path fill="rgb(244,0,153)" stroke="none" paint-order="stroke fill markers" fill-rule="evenodd" d=" M 19.499999999996128 281.50000000000034 L 280 212.00000000000037 L 353.4999999999992 94.5000000000004 L 92.99999999999537 164.0000000000004 Z" fill-opacity="0.09803921568627451"/><g transform="scale(27,27)"><g transform="translate(7.2592592592592595,6.683332)"><path fill="rgb(244,0,153)" stroke="none" paint-order="stroke fill markers" d=" M 0.645 -0.6950000000000001 L 0.645 -0.6950000000000001 L 0.591 -0.47600000000000003 Q 0.582 -0.457 0.5760000000000001 -0.456 Q 0.5640000000000001 -0.456 0.5640000000000001 -0.466 L 0.5680000000000001 -0.52 L 0.5680000000000001 -0.522 Q 0.5680000000000001 -0.66 0.452 -0.675 Q 0.439 -0.677 0.424 -0.677 Q 0.34600000000000003 -0.677 0.291 -0.614 Q 0.249 -0.5660000000000001 0.249 -0.511 Q 0.249 -0.451 0.298 -0.425 Q 0.304 -0.422 0.31 -0.42 Q 0.315 -0.419 0.377 -0.402 Q 0.46900000000000003 -0.378 0.487 -0.366 Q 0.495 -0.361 0.504 -0.352 Q 0.553 -0.306 0.553 -0.23500000000000001 Q 0.553 -0.14300000000000002 0.481 -0.064 Q 0.399 0.019 0.299 0.022 Q 0.183 0.022 0.13 -0.05 L 0.081 0.007 Q 0.068 0.022 0.063 0.022 Q 0.052000000000000005 0.022 0.052000000000000005 0.012 L 0.109 -0.213 L 0.109 -0.215 Q 0.111 -0.222 0.112 -0.223 Q 0.116 -0.227 0.122 -0.227 Q 0.134 -0.227 0.134 -0.216 L 0.132 -0.209 Q 0.126 -0.17300000000000001 0.126 -0.155 Q 0.126 -0.042 0.241 -0.016 Q 0.269 -0.009000000000000001 0.301 -0.009000000000000001 Q 0.38 -0.009000000000000001 0.436 -0.077 Q 0.481 -0.13 0.481 -0.193 Q 0.481 -0.271 0.40900000000000003 -0.294 L 0.389 -0.299 L 0.28200000000000003 -0.327 Q 0.216 -0.34600000000000003 0.19 -0.40700000000000003 Q 0.178 -0.436 0.178 -0.46900000000000003 Q 0.178 -0.56 0.254 -0.633 Q 0.33 -0.705 0.425 -0.705 Q 0.527 -0.705 0.5680000000000001 -0.633 L 0.616 -0.6900000000000001 Q 0.629 -0.705 0.634 -0.705 Q 0.645 -0.705 0.645 -0.6950000000000001 Z"/></g><g transform="translate(7.87245425925926,6.833332) scale(0.7,0.7)"><path fill="rgb(244,0,153)" stroke="none" paint-order="stroke fill markers" d=" M 0.294 -0.64 L 0.294 -0.079 Q 0.294 -0.049 0.306 -0.041 Q 0.323 -0.031 0.387 -0.031 L 0.419 -0.031 L 0.419 0 Q 0.384 -0.003 0.257 -0.003 Q 0.13 -0.003 0.095 0 L 0.095 -0.031 L 0.127 -0.031 Q 0.20400000000000001 -0.031 0.215 -0.049 L 0.216 -0.05 Q 0.22 -0.058 0.22 -0.079 L 0.22 -0.597 Q 0.168 -0.5710000000000001 0.089 -0.5710000000000001 L 0.089 -0.602 Q 0.209 -0.602 0.271 -0.666 Q 0.29 -0.666 0.293 -0.659 L 0.293 -0.659 L 0.293 -0.658 Q 0.294 -0.655 0.294 -0.64 Z"/></g></g><path fill="none" stroke="rgb(244,0,153)" paint-order="fill stroke markers" d=" M 19.499999999996128 281.50000000000034 L 280 212.00000000000037" stroke-opacity="0.6980392156862745" stroke-linecap="round" stroke-linejoin="round" stroke-miterlimit="10" stroke-width="1.5"/><path fill="none" stroke="rgb(244,0,153)" paint-order="fill stroke markers" d=" M 280 212.00000000000037 L 353.4999999999992 94.5000000000004" stroke-opacity="0.6980392156862745" stroke-linecap="round" stroke-linejoin="round" stroke-miterlimit="10" stroke-width="1.5"/><path fill="none" stroke="rgb(244,0,153)" paint-order="fill stroke markers" d=" M 353.4999999999992 94.5000000000004 L 92.99999999999537 164.0000000000004" stroke-opacity="0.6980392156862745" stroke-linecap="round" stroke-linejoin="round" stroke-miterlimit="10" stroke-width="1.5"/><path fill="none" stroke="rgb(0,153,204)" paint-order="fill stroke markers" d=" M 19.499999999996128 281.50000000000034 L 83.98450587945788 178.4125246144652" stroke-opacity="0.6980392156862745" stroke-linecap="round" stroke-linejoin="round" stroke-miterlimit="10" stroke-width="2.5"/><path fill="rgb(0,153,204)" stroke="none" paint-order="stroke fill markers" fill-rule="evenodd" d=" M 92.99999999999537 164.0000000000004 L 87.58763703307409 180.66639814459958 L 80.38137472584168 176.15865108433084 Z" fill-opacity="0.6980392156862745"/><path fill="rgb(0,0,0)" stroke="none" paint-order="stroke fill markers" d=" M 285 212.00000000000037 C 285 214.76142374915435 282.76142374915395 217.00000000000037 280 217.00000000000037 C 277.23857625084605 217.00000000000037 275 214.76142374915435 275 212.00000000000037 C 275 209.2385762508464 277.23857625084605 207.00000000000037 280 207.00000000000037 C 282.76142374915395 207.00000000000037 285 209.2385762508464 285 212.00000000000037 Z" fill-opacity="1"/><path fill="none" stroke="rgb(0,0,0)" paint-order="fill stroke markers" d=" M 285 212.00000000000037 C 285 214.76142374915435 282.76142374915395 217.00000000000037 280 217.00000000000037 C 277.23857625084605 217.00000000000037 275 214.76142374915435 275 212.00000000000037 C 275 209.2385762508464 277.23857625084605 207.00000000000037 280 207.00000000000037 C 282.76142374915395 207.00000000000037 285 209.2385762508464 285 212.00000000000037 Z" stroke-opacity="1" stroke-linecap="round" stroke-linejoin="round" stroke-miterlimit="10"/><g transform="scale(27,27)"><g transform="translate(8.925925925925926,8.663600058121862)"><path fill="rgb(0,0,0)" stroke="none" paint-order="stroke fill markers" d=" M 0.52490234375 1.7568359375 Q 0.431640625 1.67578125 0.365478515625 1.57275390625 Q 0.29931640625 1.4697265625 0.258544921875 1.3525390625 Q 0.2177734375 1.2353515625 0.198974609375 1.11181640625 Q 0.18017578125 0.98828125 0.18017578125 0.85986328125 Q 0.18017578125 0.73095703125 0.198974609375 0.607177734375 Q 0.2177734375 0.4833984375 0.258544921875 0.3662109375 Q 0.29931640625 0.2490234375 0.365478515625 0.14599609375 Q 0.431640625 0.04296875 0.52490234375 -0.0380859375 Q 0.52490234375 -0.0400390625 0.52978515625 -0.0400390625 L 0.55322265625 -0.0400390625 Q 0.55615234375 -0.0400390625 0.55859375 -0.036865234375 Q 0.56103515625 -0.03369140625 0.56103515625 -0.03076171875 Q 0.56103515625 -0.02685546875 0.55908203125 -0.02490234375 Q 0.4736328125 0.060546875 0.416015625 0.16259765625 Q 0.3583984375 0.2646484375 0.32373046875 0.381103515625 Q 0.2890625 0.49755859375 0.2744140625 0.616943359375 Q 0.259765625 0.736328125 0.259765625 0.86083984375 Q 0.259765625 0.98486328125 0.2744140625 1.104736328125 Q 0.2890625 1.224609375 0.32373046875 1.33984375 Q 0.3583984375 1.455078125 0.416748046875 1.5576171875 Q 0.47509765625 1.66015625 0.55908203125 1.744140625 Q 0.56103515625 1.74609375 0.56103515625 1.75 Q 0.56103515625 1.75244140625 0.558349609375 1.755615234375 Q 0.5556640625 1.7587890625 0.55322265625 1.7587890625 L 0.52978515625 1.7587890625 Q 0.52490234375 1.7587890625 0.52490234375 1.7568359375 Z"/></g><g transform="translate(9.523149925925926,9.158332558121863)"><path fill="rgb(0,0,0)" stroke="none" paint-order="stroke fill markers" d=" M 0.373 -0.378 Q 0.378 -0.41200000000000003 0.404 -0.42 Q 0.40900000000000003 -0.422 0.41500000000000004 -0.422 Q 0.441 -0.422 0.444 -0.395 Q 0.444 -0.389 0.437 -0.361 L 0.401 -0.221 Q 0.386 -0.158 0.379 -0.131 Q 0.366 -0.079 0.366 -0.057 Q 0.366 -0.011 0.396 -0.011 Q 0.434 -0.011 0.46 -0.091 Q 0.465 -0.108 0.47200000000000003 -0.135 Q 0.48 -0.152 0.486 -0.153 Q 0.498 -0.153 0.498 -0.14300000000000002 Q 0.498 -0.128 0.48 -0.073 Q 0.47400000000000003 -0.056 0.468 -0.044 Q 0.44 0.011 0.394 0.011 Q 0.338 0.011 0.313 -0.037 Q 0.306 -0.049 0.303 -0.064 Q 0.24 0.011 0.17300000000000001 0.011 Q 0.098 0.011 0.062 -0.057 Q 0.04 -0.097 0.04 -0.149 Q 0.04 -0.257 0.115 -0.34900000000000003 Q 0.185 -0.433 0.267 -0.441 Q 0.274 -0.442 0.281 -0.442 Q 0.342 -0.442 0.373 -0.378 M 0.308 -0.11900000000000001 L 0.308 -0.11900000000000001 L 0.358 -0.315 Q 0.361 -0.33 0.361 -0.332 Q 0.361 -0.353 0.343 -0.383 Q 0.321 -0.42 0.28200000000000003 -0.42 Q 0.23 -0.42 0.183 -0.352 Q 0.17400000000000002 -0.339 0.166 -0.324 Q 0.137 -0.266 0.117 -0.159 Q 0.111 -0.125 0.111 -0.105 Q 0.111 -0.037 0.149 -0.017 Q 0.16 -0.011 0.17500000000000002 -0.011 Q 0.231 -0.011 0.28800000000000003 -0.082 Q 0.302 -0.098 0.307 -0.115 L 0.307 -0.116 Q 0.308 -0.11800000000000001 0.308 -0.11900000000000001 Z"/></g><g transform="translate(10.051739925925926,9.308332558121863) scale(0.7,0.7)"><path fill="rgb(0,0,0)" stroke="none" paint-order="stroke fill markers" d=" M 0.294 -0.64 L 0.294 -0.079 Q 0.294 -0.049 0.306 -0.041 Q 0.323 -0.031 0.387 -0.031 L 0.419 -0.031 L 0.419 0 Q 0.384 -0.003 0.257 -0.003 Q 0.13 -0.003 0.095 0 L 0.095 -0.031 L 0.127 -0.031 Q 0.20400000000000001 -0.031 0.215 -0.049 L 0.216 -0.05 Q 0.22 -0.058 0.22 -0.079 L 0.22 -0.597 Q 0.168 -0.5710000000000001 0.089 -0.5710000000000001 L 0.089 -0.602 Q 0.209 -0.602 0.271 -0.666 Q 0.29 -0.666 0.293 -0.659 L 0.293 -0.659 L 0.293 -0.658 Q 0.294 -0.655 0.294 -0.64 Z"/></g><g transform="translate(10.401741325925926,9.308332558121863) scale(0.7,0.7)"><path fill="rgb(0,0,0)" stroke="none" paint-order="stroke fill markers" d=" M 0.294 -0.64 L 0.294 -0.079 Q 0.294 -0.049 0.306 -0.041 Q 0.323 -0.031 0.387 -0.031 L 0.419 -0.031 L 0.419 0 Q 0.384 -0.003 0.257 -0.003 Q 0.13 -0.003 0.095 0 L 0.095 -0.031 L 0.127 -0.031 Q 0.20400000000000001 -0.031 0.215 -0.049 L 0.216 -0.05 Q 0.22 -0.058 0.22 -0.079 L 0.22 -0.597 Q 0.168 -0.5710000000000001 0.089 -0.5710000000000001 L 0.089 -0.602 Q 0.209 -0.602 0.271 -0.666 Q 0.29 -0.666 0.293 -0.659 L 0.293 -0.659 L 0.293 -0.658 Q 0.294 -0.655 0.294 -0.64 Z"/></g><g transform="translate(9.523149925925926,10.169442558121863)"><path fill="rgb(0,0,0)" stroke="none" paint-order="stroke fill markers" d=" M 0.373 -0.378 Q 0.378 -0.41200000000000003 0.404 -0.42 Q 0.40900000000000003 -0.422 0.41500000000000004 -0.422 Q 0.441 -0.422 0.444 -0.395 Q 0.444 -0.389 0.437 -0.361 L 0.401 -0.221 Q 0.386 -0.158 0.379 -0.131 Q 0.366 -0.079 0.366 -0.057 Q 0.366 -0.011 0.396 -0.011 Q 0.434 -0.011 0.46 -0.091 Q 0.465 -0.108 0.47200000000000003 -0.135 Q 0.48 -0.152 0.486 -0.153 Q 0.498 -0.153 0.498 -0.14300000000000002 Q 0.498 -0.128 0.48 -0.073 Q 0.47400000000000003 -0.056 0.468 -0.044 Q 0.44 0.011 0.394 0.011 Q 0.338 0.011 0.313 -0.037 Q 0.306 -0.049 0.303 -0.064 Q 0.24 0.011 0.17300000000000001 0.011 Q 0.098 0.011 0.062 -0.057 Q 0.04 -0.097 0.04 -0.149 Q 0.04 -0.257 0.115 -0.34900000000000003 Q 0.185 -0.433 0.267 -0.441 Q 0.274 -0.442 0.281 -0.442 Q 0.342 -0.442 0.373 -0.378 M 0.308 -0.11900000000000001 L 0.308 -0.11900000000000001 L 0.358 -0.315 Q 0.361 -0.33 0.361 -0.332 Q 0.361 -0.353 0.343 -0.383 Q 0.321 -0.42 0.28200000000000003 -0.42 Q 0.23 -0.42 0.183 -0.352 Q 0.17400000000000002 -0.339 0.166 -0.324 Q 0.137 -0.266 0.117 -0.159 Q 0.111 -0.125 0.111 -0.105 Q 0.111 -0.037 0.149 -0.017 Q 0.16 -0.011 0.17500000000000002 -0.011 Q 0.231 -0.011 0.28800000000000003 -0.082 Q 0.302 -0.098 0.307 -0.115 L 0.307 -0.116 Q 0.308 -0.11800000000000001 0.308 -0.11900000000000001 Z"/></g><g transform="translate(10.051739925925926,10.319442558121864) scale(0.7,0.7)"><path fill="rgb(0,0,0)" stroke="none" paint-order="stroke fill markers" d=" M 0.449 -0.17400000000000002 L 0.449 -0.17400000000000002 L 0.421 0 L 0.05 0 Q 0.05 -0.025 0.056 -0.032 L 0.061 -0.037 L 0.253 -0.251 Q 0.358 -0.369 0.358 -0.47200000000000003 Q 0.358 -0.561 0.304 -0.607 L 0.303 -0.608 L 0.302 -0.608 Q 0.27 -0.635 0.224 -0.635 Q 0.152 -0.635 0.109 -0.5730000000000001 Q 0.097 -0.555 0.089 -0.533 Q 0.092 -0.534 0.10200000000000001 -0.534 Q 0.14200000000000002 -0.534 0.153 -0.498 L 0.153 -0.497 Q 0.155 -0.49 0.155 -0.482 Q 0.155 -0.442 0.117 -0.431 Q 0.109 -0.429 0.10300000000000001 -0.429 Q 0.066 -0.429 0.054 -0.46 Q 0.05 -0.47100000000000003 0.05 -0.485 Q 0.05 -0.562 0.109 -0.617 Q 0.162 -0.666 0.23700000000000002 -0.666 Q 0.34700000000000003 -0.666 0.40800000000000003 -0.592 Q 0.443 -0.549 0.448 -0.49 Q 0.449 -0.481 0.449 -0.47200000000000003 Q 0.449 -0.399 0.394 -0.333 Q 0.365 -0.299 0.304 -0.243 L 0.243 -0.189 L 0.233 -0.18 L 0.127 -0.077 L 0.307 -0.077 Q 0.395 -0.077 0.402 -0.085 Q 0.41200000000000003 -0.099 0.424 -0.17400000000000002 L 0.449 -0.17400000000000002 Z"/></g><g transform="translate(10.401741325925926,10.319442558121864) scale(0.7,0.7)"><path fill="rgb(0,0,0)" stroke="none" paint-order="stroke fill markers" d=" M 0.294 -0.64 L 0.294 -0.079 Q 0.294 -0.049 0.306 -0.041 Q 0.323 -0.031 0.387 -0.031 L 0.419 -0.031 L 0.419 0 Q 0.384 -0.003 0.257 -0.003 Q 0.13 -0.003 0.095 0 L 0.095 -0.031 L 0.127 -0.031 Q 0.20400000000000001 -0.031 0.215 -0.049 L 0.216 -0.05 Q 0.22 -0.058 0.22 -0.079 L 0.22 -0.597 Q 0.168 -0.5710000000000001 0.089 -0.5710000000000001 L 0.089 -0.602 Q 0.209 -0.602 0.271 -0.666 Q 0.29 -0.666 0.293 -0.659 L 0.293 -0.659 L 0.293 -0.658 Q 0.294 -0.655 0.294 -0.64 Z"/></g><g transform="translate(10.751742725925926,8.663600058121862)"><path fill="rgb(0,0,0)" stroke="none" paint-order="stroke fill markers" d=" M 0.0439453125 1.7587890625 Q 0.03515625 1.7587890625 0.03515625 1.75 Q 0.03515625 1.74609375 0.037109375 1.744140625 Q 0.1220703125 1.6591796875 0.1806640625 1.555419921875 Q 0.2392578125 1.45166015625 0.27294921875 1.33837890625 Q 0.306640625 1.22509765625 0.3212890625 1.10546875 Q 0.3359375 0.98583984375 0.3359375 0.85888671875 Q 0.3359375 0.72900390625 0.321044921875 0.6103515625 Q 0.30615234375 0.49169921875 0.2724609375 0.37890625 Q 0.23876953125 0.26611328125 0.180419921875 0.162353515625 Q 0.1220703125 0.05859375 0.037109375 -0.02490234375 Q 0.03515625 -0.02685546875 0.03515625 -0.03076171875 Q 0.03515625 -0.0400390625 0.0439453125 -0.0400390625 L 0.06689453125 -0.0400390625 Q 0.06982421875 -0.0400390625 0.07177734375 -0.0380859375 Q 0.1640625 0.04150390625 0.23095703125 0.145751953125 Q 0.2978515625 0.25 0.338623046875 0.366943359375 Q 0.37939453125 0.48388671875 0.397705078125 0.607421875 Q 0.416015625 0.73095703125 0.416015625 0.85986328125 Q 0.416015625 0.98828125 0.397705078125 1.111572265625 Q 0.37939453125 1.23486328125 0.338623046875 1.35205078125 Q 0.2978515625 1.46923828125 0.23095703125 1.5732421875 Q 0.1640625 1.67724609375 0.07177734375 1.7568359375 Q 0.06982421875 1.7587890625 0.06689453125 1.7587890625 L 0.0439453125 1.7587890625 Z"/></g></g><path fill="rgb(0,0,0)" stroke="none" paint-order="stroke fill markers" d=" M 97.99999999999537 164.0000000000004 C 97.99999999999537 166.76142374915437 95.76142374914933 169.0000000000004 92.99999999999537 169.0000000000004 C 90.2385762508414 169.0000000000004 87.99999999999537 166.76142374915437 87.99999999999537 164.0000000000004 C 87.99999999999537 161.23857625084642 90.2385762508414 159.0000000000004 92.99999999999537 159.0000000000004 C 95.76142374914933 159.0000000000004 97.99999999999537 161.23857625084642 97.99999999999537 164.0000000000004 Z" fill-opacity="1"/><path fill="none" stroke="rgb(0,0,0)" paint-order="fill stroke markers" d=" M 97.99999999999537 164.0000000000004 C 97.99999999999537 166.76142374915437 95.76142374914933 169.0000000000004 92.99999999999537 169.0000000000004 C 90.2385762508414 169.0000000000004 87.99999999999537 166.76142374915437 87.99999999999537 164.0000000000004 C 87.99999999999537 161.23857625084642 90.2385762508414 159.0000000000004 92.99999999999537 159.0000000000004 C 95.76142374914933 159.0000000000004 97.99999999999537 161.23857625084642 97.99999999999537 164.0000000000004 Z" stroke-opacity="1" stroke-linecap="round" stroke-linejoin="round" stroke-miterlimit="10"/><g transform="scale(27,27)"><g transform="translate(0.8888888888888888,4.071007465529271)"><path fill="rgb(0,0,0)" stroke="none" paint-order="stroke fill markers" d=" M 0.52490234375 1.7568359375 Q 0.431640625 1.67578125 0.365478515625 1.57275390625 Q 0.29931640625 1.4697265625 0.258544921875 1.3525390625 Q 0.2177734375 1.2353515625 0.198974609375 1.11181640625 Q 0.18017578125 0.98828125 0.18017578125 0.85986328125 Q 0.18017578125 0.73095703125 0.198974609375 0.607177734375 Q 0.2177734375 0.4833984375 0.258544921875 0.3662109375 Q 0.29931640625 0.2490234375 0.365478515625 0.14599609375 Q 0.431640625 0.04296875 0.52490234375 -0.0380859375 Q 0.52490234375 -0.0400390625 0.52978515625 -0.0400390625 L 0.55322265625 -0.0400390625 Q 0.55615234375 -0.0400390625 0.55859375 -0.036865234375 Q 0.56103515625 -0.03369140625 0.56103515625 -0.03076171875 Q 0.56103515625 -0.02685546875 0.55908203125 -0.02490234375 Q 0.4736328125 0.060546875 0.416015625 0.16259765625 Q 0.3583984375 0.2646484375 0.32373046875 0.381103515625 Q 0.2890625 0.49755859375 0.2744140625 0.616943359375 Q 0.259765625 0.736328125 0.259765625 0.86083984375 Q 0.259765625 0.98486328125 0.2744140625 1.104736328125 Q 0.2890625 1.224609375 0.32373046875 1.33984375 Q 0.3583984375 1.455078125 0.416748046875 1.5576171875 Q 0.47509765625 1.66015625 0.55908203125 1.744140625 Q 0.56103515625 1.74609375 0.56103515625 1.75 Q 0.56103515625 1.75244140625 0.558349609375 1.755615234375 Q 0.5556640625 1.7587890625 0.55322265625 1.7587890625 L 0.52978515625 1.7587890625 Q 0.52490234375 1.7587890625 0.52490234375 1.7568359375 Z"/></g><g transform="translate(1.4861128888888888,4.565739965529271)"><path fill="rgb(0,0,0)" stroke="none" paint-order="stroke fill markers" d=" M 0.373 -0.378 Q 0.378 -0.41200000000000003 0.404 -0.42 Q 0.40900000000000003 -0.422 0.41500000000000004 -0.422 Q 0.441 -0.422 0.444 -0.395 Q 0.444 -0.389 0.437 -0.361 L 0.401 -0.221 Q 0.386 -0.158 0.379 -0.131 Q 0.366 -0.079 0.366 -0.057 Q 0.366 -0.011 0.396 -0.011 Q 0.434 -0.011 0.46 -0.091 Q 0.465 -0.108 0.47200000000000003 -0.135 Q 0.48 -0.152 0.486 -0.153 Q 0.498 -0.153 0.498 -0.14300000000000002 Q 0.498 -0.128 0.48 -0.073 Q 0.47400000000000003 -0.056 0.468 -0.044 Q 0.44 0.011 0.394 0.011 Q 0.338 0.011 0.313 -0.037 Q 0.306 -0.049 0.303 -0.064 Q 0.24 0.011 0.17300000000000001 0.011 Q 0.098 0.011 0.062 -0.057 Q 0.04 -0.097 0.04 -0.149 Q 0.04 -0.257 0.115 -0.34900000000000003 Q 0.185 -0.433 0.267 -0.441 Q 0.274 -0.442 0.281 -0.442 Q 0.342 -0.442 0.373 -0.378 M 0.308 -0.11900000000000001 L 0.308 -0.11900000000000001 L 0.358 -0.315 Q 0.361 -0.33 0.361 -0.332 Q 0.361 -0.353 0.343 -0.383 Q 0.321 -0.42 0.28200000000000003 -0.42 Q 0.23 -0.42 0.183 -0.352 Q 0.17400000000000002 -0.339 0.166 -0.324 Q 0.137 -0.266 0.117 -0.159 Q 0.111 -0.125 0.111 -0.105 Q 0.111 -0.037 0.149 -0.017 Q 0.16 -0.011 0.17500000000000002 -0.011 Q 0.231 -0.011 0.28800000000000003 -0.082 Q 0.302 -0.098 0.307 -0.115 L 0.307 -0.116 Q 0.308 -0.11800000000000001 0.308 -0.11900000000000001 Z"/></g><g transform="translate(2.014702888888889,4.715739965529272) scale(0.7,0.7)"><path fill="rgb(0,0,0)" stroke="none" paint-order="stroke fill markers" d=" M 0.294 -0.64 L 0.294 -0.079 Q 0.294 -0.049 0.306 -0.041 Q 0.323 -0.031 0.387 -0.031 L 0.419 -0.031 L 0.419 0 Q 0.384 -0.003 0.257 -0.003 Q 0.13 -0.003 0.095 0 L 0.095 -0.031 L 0.127 -0.031 Q 0.20400000000000001 -0.031 0.215 -0.049 L 0.216 -0.05 Q 0.22 -0.058 0.22 -0.079 L 0.22 -0.597 Q 0.168 -0.5710000000000001 0.089 -0.5710000000000001 L 0.089 -0.602 Q 0.209 -0.602 0.271 -0.666 Q 0.29 -0.666 0.293 -0.659 L 0.293 -0.659 L 0.293 -0.658 Q 0.294 -0.655 0.294 -0.64 Z"/></g><g transform="translate(2.364704288888889,4.715739965529272) scale(0.7,0.7)"><path fill="rgb(0,0,0)" stroke="none" paint-order="stroke fill markers" d=" M 0.449 -0.17400000000000002 L 0.449 -0.17400000000000002 L 0.421 0 L 0.05 0 Q 0.05 -0.025 0.056 -0.032 L 0.061 -0.037 L 0.253 -0.251 Q 0.358 -0.369 0.358 -0.47200000000000003 Q 0.358 -0.561 0.304 -0.607 L 0.303 -0.608 L 0.302 -0.608 Q 0.27 -0.635 0.224 -0.635 Q 0.152 -0.635 0.109 -0.5730000000000001 Q 0.097 -0.555 0.089 -0.533 Q 0.092 -0.534 0.10200000000000001 -0.534 Q 0.14200000000000002 -0.534 0.153 -0.498 L 0.153 -0.497 Q 0.155 -0.49 0.155 -0.482 Q 0.155 -0.442 0.117 -0.431 Q 0.109 -0.429 0.10300000000000001 -0.429 Q 0.066 -0.429 0.054 -0.46 Q 0.05 -0.47100000000000003 0.05 -0.485 Q 0.05 -0.562 0.109 -0.617 Q 0.162 -0.666 0.23700000000000002 -0.666 Q 0.34700000000000003 -0.666 0.40800000000000003 -0.592 Q 0.443 -0.549 0.448 -0.49 Q 0.449 -0.481 0.449 -0.47200000000000003 Q 0.449 -0.399 0.394 -0.333 Q 0.365 -0.299 0.304 -0.243 L 0.243 -0.189 L 0.233 -0.18 L 0.127 -0.077 L 0.307 -0.077 Q 0.395 -0.077 0.402 -0.085 Q 0.41200000000000003 -0.099 0.424 -0.17400000000000002 L 0.449 -0.17400000000000002 Z"/></g><g transform="translate(1.4861128888888888,5.576849965529272)"><path fill="rgb(0,0,0)" stroke="none" paint-order="stroke fill markers" d=" M 0.373 -0.378 Q 0.378 -0.41200000000000003 0.404 -0.42 Q 0.40900000000000003 -0.422 0.41500000000000004 -0.422 Q 0.441 -0.422 0.444 -0.395 Q 0.444 -0.389 0.437 -0.361 L 0.401 -0.221 Q 0.386 -0.158 0.379 -0.131 Q 0.366 -0.079 0.366 -0.057 Q 0.366 -0.011 0.396 -0.011 Q 0.434 -0.011 0.46 -0.091 Q 0.465 -0.108 0.47200000000000003 -0.135 Q 0.48 -0.152 0.486 -0.153 Q 0.498 -0.153 0.498 -0.14300000000000002 Q 0.498 -0.128 0.48 -0.073 Q 0.47400000000000003 -0.056 0.468 -0.044 Q 0.44 0.011 0.394 0.011 Q 0.338 0.011 0.313 -0.037 Q 0.306 -0.049 0.303 -0.064 Q 0.24 0.011 0.17300000000000001 0.011 Q 0.098 0.011 0.062 -0.057 Q 0.04 -0.097 0.04 -0.149 Q 0.04 -0.257 0.115 -0.34900000000000003 Q 0.185 -0.433 0.267 -0.441 Q 0.274 -0.442 0.281 -0.442 Q 0.342 -0.442 0.373 -0.378 M 0.308 -0.11900000000000001 L 0.308 -0.11900000000000001 L 0.358 -0.315 Q 0.361 -0.33 0.361 -0.332 Q 0.361 -0.353 0.343 -0.383 Q 0.321 -0.42 0.28200000000000003 -0.42 Q 0.23 -0.42 0.183 -0.352 Q 0.17400000000000002 -0.339 0.166 -0.324 Q 0.137 -0.266 0.117 -0.159 Q 0.111 -0.125 0.111 -0.105 Q 0.111 -0.037 0.149 -0.017 Q 0.16 -0.011 0.17500000000000002 -0.011 Q 0.231 -0.011 0.28800000000000003 -0.082 Q 0.302 -0.098 0.307 -0.115 L 0.307 -0.116 Q 0.308 -0.11800000000000001 0.308 -0.11900000000000001 Z"/></g><g transform="translate(2.014702888888889,5.726849965529272) scale(0.7,0.7)"><path fill="rgb(0,0,0)" stroke="none" paint-order="stroke fill markers" d=" M 0.449 -0.17400000000000002 L 0.449 -0.17400000000000002 L 0.421 0 L 0.05 0 Q 0.05 -0.025 0.056 -0.032 L 0.061 -0.037 L 0.253 -0.251 Q 0.358 -0.369 0.358 -0.47200000000000003 Q 0.358 -0.561 0.304 -0.607 L 0.303 -0.608 L 0.302 -0.608 Q 0.27 -0.635 0.224 -0.635 Q 0.152 -0.635 0.109 -0.5730000000000001 Q 0.097 -0.555 0.089 -0.533 Q 0.092 -0.534 0.10200000000000001 -0.534 Q 0.14200000000000002 -0.534 0.153 -0.498 L 0.153 -0.497 Q 0.155 -0.49 0.155 -0.482 Q 0.155 -0.442 0.117 -0.431 Q 0.109 -0.429 0.10300000000000001 -0.429 Q 0.066 -0.429 0.054 -0.46 Q 0.05 -0.47100000000000003 0.05 -0.485 Q 0.05 -0.562 0.109 -0.617 Q 0.162 -0.666 0.23700000000000002 -0.666 Q 0.34700000000000003 -0.666 0.40800000000000003 -0.592 Q 0.443 -0.549 0.448 -0.49 Q 0.449 -0.481 0.449 -0.47200000000000003 Q 0.449 -0.399 0.394 -0.333 Q 0.365 -0.299 0.304 -0.243 L 0.243 -0.189 L 0.233 -0.18 L 0.127 -0.077 L 0.307 -0.077 Q 0.395 -0.077 0.402 -0.085 Q 0.41200000000000003 -0.099 0.424 -0.17400000000000002 L 0.449 -0.17400000000000002 Z"/></g><g transform="translate(2.364704288888889,5.726849965529272) scale(0.7,0.7)"><path fill="rgb(0,0,0)" stroke="none" paint-order="stroke fill markers" d=" M 0.449 -0.17400000000000002 L 0.449 -0.17400000000000002 L 0.421 0 L 0.05 0 Q 0.05 -0.025 0.056 -0.032 L 0.061 -0.037 L 0.253 -0.251 Q 0.358 -0.369 0.358 -0.47200000000000003 Q 0.358 -0.561 0.304 -0.607 L 0.303 -0.608 L 0.302 -0.608 Q 0.27 -0.635 0.224 -0.635 Q 0.152 -0.635 0.109 -0.5730000000000001 Q 0.097 -0.555 0.089 -0.533 Q 0.092 -0.534 0.10200000000000001 -0.534 Q 0.14200000000000002 -0.534 0.153 -0.498 L 0.153 -0.497 Q 0.155 -0.49 0.155 -0.482 Q 0.155 -0.442 0.117 -0.431 Q 0.109 -0.429 0.10300000000000001 -0.429 Q 0.066 -0.429 0.054 -0.46 Q 0.05 -0.47100000000000003 0.05 -0.485 Q 0.05 -0.562 0.109 -0.617 Q 0.162 -0.666 0.23700000000000002 -0.666 Q 0.34700000000000003 -0.666 0.40800000000000003 -0.592 Q 0.443 -0.549 0.448 -0.49 Q 0.449 -0.481 0.449 -0.47200000000000003 Q 0.449 -0.399 0.394 -0.333 Q 0.365 -0.299 0.304 -0.243 L 0.243 -0.189 L 0.233 -0.18 L 0.127 -0.077 L 0.307 -0.077 Q 0.395 -0.077 0.402 -0.085 Q 0.41200000000000003 -0.099 0.424 -0.17400000000000002 L 0.449 -0.17400000000000002 Z"/></g><g transform="translate(2.7147056888888885,4.071007465529271)"><path fill="rgb(0,0,0)" stroke="none" paint-order="stroke fill markers" d=" M 0.0439453125 1.7587890625 Q 0.03515625 1.7587890625 0.03515625 1.75 Q 0.03515625 1.74609375 0.037109375 1.744140625 Q 0.1220703125 1.6591796875 0.1806640625 1.555419921875 Q 0.2392578125 1.45166015625 0.27294921875 1.33837890625 Q 0.306640625 1.22509765625 0.3212890625 1.10546875 Q 0.3359375 0.98583984375 0.3359375 0.85888671875 Q 0.3359375 0.72900390625 0.321044921875 0.6103515625 Q 0.30615234375 0.49169921875 0.2724609375 0.37890625 Q 0.23876953125 0.26611328125 0.180419921875 0.162353515625 Q 0.1220703125 0.05859375 0.037109375 -0.02490234375 Q 0.03515625 -0.02685546875 0.03515625 -0.03076171875 Q 0.03515625 -0.0400390625 0.0439453125 -0.0400390625 L 0.06689453125 -0.0400390625 Q 0.06982421875 -0.0400390625 0.07177734375 -0.0380859375 Q 0.1640625 0.04150390625 0.23095703125 0.145751953125 Q 0.2978515625 0.25 0.338623046875 0.366943359375 Q 0.37939453125 0.48388671875 0.397705078125 0.607421875 Q 0.416015625 0.73095703125 0.416015625 0.85986328125 Q 0.416015625 0.98828125 0.397705078125 1.111572265625 Q 0.37939453125 1.23486328125 0.338623046875 1.35205078125 Q 0.2978515625 1.46923828125 0.23095703125 1.5732421875 Q 0.1640625 1.67724609375 0.07177734375 1.7568359375 Q 0.06982421875 1.7587890625 0.06689453125 1.7587890625 L 0.0439453125 1.7587890625 Z"/></g></g><path fill="rgb(255,51,102)" stroke="none" paint-order="stroke fill markers" fill-rule="evenodd" d=" M 280 212.00000000000037 L 585.0000000000001 132.0000000000004 L 658.4999999999992 14.500000000000398 L 353.4999999999992 94.5000000000004 Z" fill-opacity="0.09803921568627451"/><g transform="scale(27,27)"><g transform="translate(17.14814814814815,4.349998666666666)"><path fill="rgb(255,51,102)" stroke="none" paint-order="stroke fill markers" d=" M 0.645 -0.6950000000000001 L 0.645 -0.6950000000000001 L 0.591 -0.47600000000000003 Q 0.582 -0.457 0.5760000000000001 -0.456 Q 0.5640000000000001 -0.456 0.5640000000000001 -0.466 L 0.5680000000000001 -0.52 L 0.5680000000000001 -0.522 Q 0.5680000000000001 -0.66 0.452 -0.675 Q 0.439 -0.677 0.424 -0.677 Q 0.34600000000000003 -0.677 0.291 -0.614 Q 0.249 -0.5660000000000001 0.249 -0.511 Q 0.249 -0.451 0.298 -0.425 Q 0.304 -0.422 0.31 -0.42 Q 0.315 -0.419 0.377 -0.402 Q 0.46900000000000003 -0.378 0.487 -0.366 Q 0.495 -0.361 0.504 -0.352 Q 0.553 -0.306 0.553 -0.23500000000000001 Q 0.553 -0.14300000000000002 0.481 -0.064 Q 0.399 0.019 0.299 0.022 Q 0.183 0.022 0.13 -0.05 L 0.081 0.007 Q 0.068 0.022 0.063 0.022 Q 0.052000000000000005 0.022 0.052000000000000005 0.012 L 0.109 -0.213 L 0.109 -0.215 Q 0.111 -0.222 0.112 -0.223 Q 0.116 -0.227 0.122 -0.227 Q 0.134 -0.227 0.134 -0.216 L 0.132 -0.209 Q 0.126 -0.17300000000000001 0.126 -0.155 Q 0.126 -0.042 0.241 -0.016 Q 0.269 -0.009000000000000001 0.301 -0.009000000000000001 Q 0.38 -0.009000000000000001 0.436 -0.077 Q 0.481 -0.13 0.481 -0.193 Q 0.481 -0.271 0.40900000000000003 -0.294 L 0.389 -0.299 L 0.28200000000000003 -0.327 Q 0.216 -0.34600000000000003 0.19 -0.40700000000000003 Q 0.178 -0.436 0.178 -0.46900000000000003 Q 0.178 -0.56 0.254 -0.633 Q 0.33 -0.705 0.425 -0.705 Q 0.527 -0.705 0.5680000000000001 -0.633 L 0.616 -0.6900000000000001 Q 0.629 -0.705 0.634 -0.705 Q 0.645 -0.705 0.645 -0.6950000000000001 Z"/></g><g transform="translate(17.76134314814815,4.4999986666666665) scale(0.7,0.7)"><path fill="rgb(255,51,102)" stroke="none" paint-order="stroke fill markers" d=" M 0.449 -0.17400000000000002 L 0.449 -0.17400000000000002 L 0.421 0 L 0.05 0 Q 0.05 -0.025 0.056 -0.032 L 0.061 -0.037 L 0.253 -0.251 Q 0.358 -0.369 0.358 -0.47200000000000003 Q 0.358 -0.561 0.304 -0.607 L 0.303 -0.608 L 0.302 -0.608 Q 0.27 -0.635 0.224 -0.635 Q 0.152 -0.635 0.109 -0.5730000000000001 Q 0.097 -0.555 0.089 -0.533 Q 0.092 -0.534 0.10200000000000001 -0.534 Q 0.14200000000000002 -0.534 0.153 -0.498 L 0.153 -0.497 Q 0.155 -0.49 0.155 -0.482 Q 0.155 -0.442 0.117 -0.431 Q 0.109 -0.429 0.10300000000000001 -0.429 Q 0.066 -0.429 0.054 -0.46 Q 0.05 -0.47100000000000003 0.05 -0.485 Q 0.05 -0.562 0.109 -0.617 Q 0.162 -0.666 0.23700000000000002 -0.666 Q 0.34700000000000003 -0.666 0.40800000000000003 -0.592 Q 0.443 -0.549 0.448 -0.49 Q 0.449 -0.481 0.449 -0.47200000000000003 Q 0.449 -0.399 0.394 -0.333 Q 0.365 -0.299 0.304 -0.243 L 0.243 -0.189 L 0.233 -0.18 L 0.127 -0.077 L 0.307 -0.077 Q 0.395 -0.077 0.402 -0.085 Q 0.41200000000000003 -0.099 0.424 -0.17400000000000002 L 0.449 -0.17400000000000002 Z"/></g></g><path fill="rgb(0,153,204)" stroke="none" paint-order="stroke fill markers" fill-rule="evenodd" d=" M 19.499999999996128 281.50000000000034 L 585.0000000000001 132.0000000000004 L 658.4999999999993 14.500000000000455 L 92.99999999999537 164.0000000000004 Z" fill-opacity="0.09803921568627451"/><g transform="scale(27,27)"><g transform="translate(12.518518518518519,2.4240727407407405)"><path fill="rgb(0,153,204)" stroke="none" paint-order="stroke fill markers" d=" M 0.645 -0.6950000000000001 L 0.645 -0.6950000000000001 L 0.591 -0.47600000000000003 Q 0.582 -0.457 0.5760000000000001 -0.456 Q 0.5640000000000001 -0.456 0.5640000000000001 -0.466 L 0.5680000000000001 -0.52 L 0.5680000000000001 -0.522 Q 0.5680000000000001 -0.66 0.452 -0.675 Q 0.439 -0.677 0.424 -0.677 Q 0.34600000000000003 -0.677 0.291 -0.614 Q 0.249 -0.5660000000000001 0.249 -0.511 Q 0.249 -0.451 0.298 -0.425 Q 0.304 -0.422 0.31 -0.42 Q 0.315 -0.419 0.377 -0.402 Q 0.46900000000000003 -0.378 0.487 -0.366 Q 0.495 -0.361 0.504 -0.352 Q 0.553 -0.306 0.553 -0.23500000000000001 Q 0.553 -0.14300000000000002 0.481 -0.064 Q 0.399 0.019 0.299 0.022 Q 0.183 0.022 0.13 -0.05 L 0.081 0.007 Q 0.068 0.022 0.063 0.022 Q 0.052000000000000005 0.022 0.052000000000000005 0.012 L 0.109 -0.213 L 0.109 -0.215 Q 0.111 -0.222 0.112 -0.223 Q 0.116 -0.227 0.122 -0.227 Q 0.134 -0.227 0.134 -0.216 L 0.132 -0.209 Q 0.126 -0.17300000000000001 0.126 -0.155 Q 0.126 -0.042 0.241 -0.016 Q 0.269 -0.009000000000000001 0.301 -0.009000000000000001 Q 0.38 -0.009000000000000001 0.436 -0.077 Q 0.481 -0.13 0.481 -0.193 Q 0.481 -0.271 0.40900000000000003 -0.294 L 0.389 -0.299 L 0.28200000000000003 -0.327 Q 0.216 -0.34600000000000003 0.19 -0.40700000000000003 Q 0.178 -0.436 0.178 -0.46900000000000003 Q 0.178 -0.56 0.254 -0.633 Q 0.33 -0.705 0.425 -0.705 Q 0.527 -0.705 0.5680000000000001 -0.633 L 0.616 -0.6900000000000001 Q 0.629 -0.705 0.634 -0.705 Q 0.645 -0.705 0.645 -0.6950000000000001 Z"/></g><g transform="translate(13.131713518518518,2.5740727407407404) scale(0.7,0.7)"><path fill="rgb(0,153,204)" stroke="none" paint-order="stroke fill markers" d=" M 0.29 -0.352 L 0.29 -0.352 Q 0.39 -0.332 0.434 -0.254 Q 0.457 -0.215 0.457 -0.171 Q 0.457 -0.08600000000000001 0.387 -0.028 Q 0.326 0.022 0.244 0.022 Q 0.145 0.022 0.085 -0.037 Q 0.042 -0.079 0.042 -0.135 Q 0.042 -0.182 0.084 -0.191 Q 0.091 -0.193 0.098 -0.193 Q 0.136 -0.193 0.149 -0.161 Q 0.153 -0.148 0.154 -0.137 Q 0.154 -0.097 0.11800000000000001 -0.085 Q 0.10400000000000001 -0.08 0.088 -0.082 Q 0.125 -0.02 0.216 -0.008 Q 0.229 -0.006 0.241 -0.006 Q 0.305 -0.006 0.335 -0.069 Q 0.354 -0.109 0.354 -0.171 Q 0.354 -0.304 0.274 -0.331 Q 0.256 -0.337 0.23500000000000001 -0.337 L 0.191 -0.337 Q 0.169 -0.337 0.167 -0.34800000000000003 Q 0.167 -0.358 0.182 -0.36 Q 0.197 -0.36 0.221 -0.363 Q 0.272 -0.365 0.301 -0.402 L 0.301 -0.403 L 0.302 -0.404 L 0.303 -0.405 L 0.304 -0.405 L 0.31 -0.41500000000000004 Q 0.338 -0.462 0.338 -0.529 Q 0.338 -0.622 0.266 -0.638 Q 0.254 -0.641 0.242 -0.641 Q 0.17200000000000001 -0.641 0.128 -0.601 Q 0.117 -0.591 0.109 -0.579 Q 0.171 -0.579 0.171 -0.529 Q 0.171 -0.493 0.14 -0.481 Q 0.131 -0.47800000000000004 0.12 -0.47800000000000004 Q 0.081 -0.47800000000000004 0.07100000000000001 -0.513 L 0.07100000000000001 -0.513 L 0.07100000000000001 -0.514 Q 0.069 -0.522 0.069 -0.53 Q 0.069 -0.597 0.135 -0.637 Q 0.183 -0.666 0.246 -0.666 Q 0.337 -0.666 0.393 -0.612 L 0.395 -0.61 Q 0.43 -0.5740000000000001 0.43 -0.528 Q 0.43 -0.445 0.359 -0.389 Q 0.328 -0.365 0.29 -0.352 Z"/></g></g><path fill="none" stroke="rgb(255,51,102)" paint-order="fill stroke markers" d=" M 280 212.00000000000037 L 585.0000000000001 132.0000000000004" stroke-opacity="0.6980392156862745" stroke-linecap="round" stroke-linejoin="round" stroke-miterlimit="10" stroke-width="1.5"/><path fill="none" stroke="rgb(255,51,102)" paint-order="fill stroke markers" d=" M 585.0000000000001 132.0000000000004 L 658.4999999999992 14.500000000000398" stroke-opacity="0.6980392156862745" stroke-linecap="round" stroke-linejoin="round" stroke-miterlimit="10" stroke-width="1.5"/><path fill="none" stroke="rgb(255,51,102)" paint-order="fill stroke markers" d=" M 658.4999999999992 14.500000000000398 L 353.4999999999992 94.5000000000004" stroke-opacity="0.6980392156862745" stroke-linecap="round" stroke-linejoin="round" stroke-miterlimit="10" stroke-width="1.5"/><path fill="none" stroke="rgb(255,51,102)" paint-order="fill stroke markers" d=" M 353.4999999999992 94.5000000000004 L 280 212.00000000000037" stroke-opacity="0.6980392156862745" stroke-linecap="round" stroke-linejoin="round" stroke-miterlimit="10" stroke-width="1.5"/><path fill="none" stroke="rgb(0,153,204)" paint-order="fill stroke markers" d=" M 19.499999999996128 281.50000000000034 L 585.0000000000001 132.0000000000004" stroke-opacity="0.6980392156862745" stroke-linecap="round" stroke-linejoin="round" stroke-miterlimit="10" stroke-width="1.5"/><path fill="none" stroke="rgb(0,153,204)" paint-order="fill stroke markers" d=" M 585.0000000000001 132.0000000000004 L 658.4999999999993 14.500000000000455" stroke-opacity="0.6980392156862745" stroke-linecap="round" stroke-linejoin="round" stroke-miterlimit="10" stroke-width="1.5"/><path fill="none" stroke="rgb(0,153,204)" paint-order="fill stroke markers" d=" M 658.4999999999993 14.500000000000455 L 92.99999999999537 164.0000000000004" stroke-opacity="0.6980392156862745" stroke-linecap="round" stroke-linejoin="round" stroke-miterlimit="10" stroke-width="1.5"/><path fill="none" stroke="rgb(0,153,204)" paint-order="fill stroke markers" d=" M 92.99999999999537 164.0000000000004 L 19.499999999996128 281.50000000000034" stroke-opacity="0.6980392156862745" stroke-linecap="round" stroke-linejoin="round" stroke-miterlimit="10" stroke-width="1.5"/><path fill="none" stroke="rgb(0,153,255)" paint-order="fill stroke markers" d=" M 19.499999999996128 281.50000000000034 L 263.57452941062223 216.38222727816444" stroke-opacity="0.6980392156862745" stroke-linecap="round" stroke-linejoin="round" stroke-miterlimit="10" stroke-width="2.5"/><path fill="rgb(0,153,255)" stroke="none" paint-order="stroke fill markers" fill-rule="evenodd" d=" M 280 212.00000000000037 L 264.67008623016324 220.4885949255089 L 262.47897259108123 212.27585963081998 Z" fill-opacity="0.6980392156862745"/><path fill="none" stroke="rgb(0,0,0)" paint-order="fill stroke markers" d=" M 280 212.00000000000037 L 568.5562463853474 136.31311570220436" stroke-opacity="0.6980392156862745" stroke-linecap="round" stroke-linejoin="round" stroke-miterlimit="10" stroke-width="2.5"/><path fill="rgb(0,0,0)" stroke="none" paint-order="stroke fill markers" fill-rule="evenodd" d=" M 585.0000000000001 132.0000000000004 L 569.6345253108984 140.42405410586753 L 567.4779674597964 132.2021772985412 Z" fill-opacity="0.6980392156862745"/><path fill="none" stroke="rgb(0,0,0)" paint-order="fill stroke markers" d=" M 280 212.00000000000037 L 345.54515224658377 107.21693348335171" stroke-opacity="0.6980392156862745" stroke-linecap="round" stroke-linejoin="round" stroke-miterlimit="10" stroke-width="1.5"/><path fill="rgb(0,0,0)" stroke="none" paint-order="stroke fill markers" fill-rule="evenodd" d=" M 353.4999999999992 94.5000000000004 L 348.7243856174216 109.20564542170557 L 342.36591887574593 105.22822154499785 Z" fill-opacity="0.6980392156862745"/><path fill="none" stroke="rgb(0,0,0)" paint-order="fill stroke markers" d=" M 19.499999999996128 281.50000000000034 L 570.4982095449708 135.83380667201962" stroke-opacity="0.6980392156862745" stroke-linecap="round" stroke-linejoin="round" stroke-miterlimit="10" stroke-width="1.5"/><path fill="rgb(0,0,0)" stroke="none" paint-order="stroke fill markers" fill-rule="evenodd" d=" M 585.0000000000001 132.0000000000004 L 571.4566612129756 139.45925428577695 L 569.539757876966 132.2083590582623 Z" fill-opacity="0.6980392156862745"/><path fill="rgb(77,77,255)" stroke="none" paint-order="stroke fill markers" d=" M 590.0000000000001 132.0000000000004 C 590.0000000000001 134.76142374915437 587.7614237491541 137.0000000000004 585.0000000000001 137.0000000000004 C 582.2385762508461 137.0000000000004 580.0000000000001 134.76142374915437 580.0000000000001 132.0000000000004 C 580.0000000000001 129.23857625084642 582.2385762508461 127.0000000000004 585.0000000000001 127.0000000000004 C 587.7614237491541 127.0000000000004 590.0000000000001 129.23857625084642 590.0000000000001 132.0000000000004 Z" fill-opacity="1"/><path fill="none" stroke="rgb(0,0,0)" paint-order="fill stroke markers" d=" M 590.0000000000001 132.0000000000004 C 590.0000000000001 134.76142374915437 587.7614237491541 137.0000000000004 585.0000000000001 137.0000000000004 C 582.2385762508461 137.0000000000004 580.0000000000001 134.76142374915437 580.0000000000001 132.0000000000004 C 580.0000000000001 129.23857625084642 582.2385762508461 127.0000000000004 585.0000000000001 127.0000000000004 C 587.7614237491541 127.0000000000004 590.0000000000001 129.23857625084642 590.0000000000001 132.0000000000004 Z" stroke-opacity="1" stroke-linecap="round" stroke-linejoin="round" stroke-miterlimit="10"/><g transform="scale(27,27)"><g transform="translate(20.555555555555557,5.442301872936677)"><path fill="rgb(77,77,255)" stroke="none" paint-order="stroke fill markers" d=" M 0.662109375 2.35693359375 Q 0.5390625 2.248046875 0.451171875 2.10888671875 Q 0.36328125 1.9697265625 0.31005859375 1.81494140625 Q 0.2568359375 1.66015625 0.232421875 1.494873046875 Q 0.2080078125 1.32958984375 0.2080078125 1.16015625 Q 0.2080078125 0.98974609375 0.232421875 0.823974609375 Q 0.2568359375 0.658203125 0.309814453125 0.50390625 Q 0.36279296875 0.349609375 0.450927734375 0.210205078125 Q 0.5390625 0.07080078125 0.662109375 -0.0380859375 Q 0.662109375 -0.0400390625 0.6669921875 -0.0400390625 L 0.69287109375 -0.0400390625 Q 0.69580078125 -0.0400390625 0.698486328125 -0.037109375 Q 0.701171875 -0.0341796875 0.701171875 -0.03076171875 Q 0.701171875 -0.02685546875 0.69921875 -0.02490234375 Q 0.5849609375 0.087890625 0.506103515625 0.22607421875 Q 0.42724609375 0.3642578125 0.380859375 0.51708984375 Q 0.33447265625 0.669921875 0.314697265625 0.8310546875 Q 0.294921875 0.9921875 0.294921875 1.16015625 Q 0.294921875 1.32763671875 0.314453125 1.486572265625 Q 0.333984375 1.6455078125 0.380859375 1.80029296875 Q 0.427734375 1.955078125 0.5068359375 2.09326171875 Q 0.5859375 2.2314453125 0.69921875 2.34423828125 Q 0.701171875 2.34619140625 0.701171875 2.35009765625 Q 0.701171875 2.35302734375 0.6982421875 2.35595703125 Q 0.6953125 2.35888671875 0.69287109375 2.35888671875 L 0.6669921875 2.35888671875 Q 0.662109375 2.35888671875 0.662109375 2.35693359375 Z"/></g><g transform="translate(21.291670055555556,6.237037372936678)"><path fill="rgb(77,77,255)" stroke="none" paint-order="stroke fill markers" d=" M 0.23900000000000002 -0.683 L 0.165 -0.382 Q 0.223 -0.442 0.28200000000000003 -0.442 Q 0.357 -0.442 0.394 -0.373 Q 0.41500000000000004 -0.333 0.41500000000000004 -0.28200000000000003 Q 0.41500000000000004 -0.176 0.341 -0.084 Q 0.272 0.001 0.189 0.01 Q 0.181 0.011 0.17400000000000002 0.011 Q 0.10200000000000001 0.011 0.067 -0.056 Q 0.047 -0.094 0.047 -0.146 Q 0.047 -0.18 0.063 -0.247 L 0.145 -0.5730000000000001 Q 0.159 -0.632 0.159 -0.635 Q 0.159 -0.646 0.145 -0.649 L 0.145 -0.649 Q 0.133 -0.652 0.109 -0.652 Q 0.08700000000000001 -0.652 0.085 -0.664 Q 0.085 -0.681 0.10400000000000001 -0.684 L 0.226 -0.6940000000000001 Q 0.23900000000000002 -0.6940000000000001 0.23900000000000002 -0.683 M 0.145 -0.305 L 0.123 -0.213 Q 0.107 -0.15 0.107 -0.112 Q 0.107 -0.026000000000000002 0.159 -0.013000000000000001 Q 0.166 -0.011 0.17400000000000002 -0.011 Q 0.227 -0.011 0.273 -0.081 Q 0.28300000000000003 -0.096 0.292 -0.114 Q 0.319 -0.171 0.337 -0.268 Q 0.343 -0.303 0.343 -0.326 Q 0.343 -0.406 0.294 -0.418 L 0.293 -0.419 Q 0.28700000000000003 -0.42 0.28 -0.42 Q 0.22 -0.42 0.16 -0.34 Q 0.152 -0.33 0.145 -0.305 Z"/></g><g transform="translate(21.720837055555556,6.387037372936678) scale(0.7,0.7)"><path fill="rgb(77,77,255)" stroke="none" paint-order="stroke fill markers" d=" M 0.294 -0.64 L 0.294 -0.079 Q 0.294 -0.049 0.306 -0.041 Q 0.323 -0.031 0.387 -0.031 L 0.419 -0.031 L 0.419 0 Q 0.384 -0.003 0.257 -0.003 Q 0.13 -0.003 0.095 0 L 0.095 -0.031 L 0.127 -0.031 Q 0.20400000000000001 -0.031 0.215 -0.049 L 0.216 -0.05 Q 0.22 -0.058 0.22 -0.079 L 0.22 -0.597 Q 0.168 -0.5710000000000001 0.089 -0.5710000000000001 L 0.089 -0.602 Q 0.209 -0.602 0.271 -0.666 Q 0.29 -0.666 0.293 -0.659 L 0.293 -0.659 L 0.293 -0.658 Q 0.294 -0.655 0.294 -0.64 Z"/></g><g transform="translate(22.070838455555556,6.387037372936678) scale(0.7,0.7)"><path fill="rgb(77,77,255)" stroke="none" paint-order="stroke fill markers" d=" M 0.294 -0.64 L 0.294 -0.079 Q 0.294 -0.049 0.306 -0.041 Q 0.323 -0.031 0.387 -0.031 L 0.419 -0.031 L 0.419 0 Q 0.384 -0.003 0.257 -0.003 Q 0.13 -0.003 0.095 0 L 0.095 -0.031 L 0.127 -0.031 Q 0.20400000000000001 -0.031 0.215 -0.049 L 0.216 -0.05 Q 0.22 -0.058 0.22 -0.079 L 0.22 -0.597 Q 0.168 -0.5710000000000001 0.089 -0.5710000000000001 L 0.089 -0.602 Q 0.209 -0.602 0.271 -0.666 Q 0.29 -0.666 0.293 -0.659 L 0.293 -0.659 L 0.293 -0.658 Q 0.294 -0.655 0.294 -0.64 Z"/></g><g transform="translate(21.291670055555556,7.512037372936678)"><path fill="rgb(77,77,255)" stroke="none" paint-order="stroke fill markers" d=" M 0.23900000000000002 -0.683 L 0.165 -0.382 Q 0.223 -0.442 0.28200000000000003 -0.442 Q 0.357 -0.442 0.394 -0.373 Q 0.41500000000000004 -0.333 0.41500000000000004 -0.28200000000000003 Q 0.41500000000000004 -0.176 0.341 -0.084 Q 0.272 0.001 0.189 0.01 Q 0.181 0.011 0.17400000000000002 0.011 Q 0.10200000000000001 0.011 0.067 -0.056 Q 0.047 -0.094 0.047 -0.146 Q 0.047 -0.18 0.063 -0.247 L 0.145 -0.5730000000000001 Q 0.159 -0.632 0.159 -0.635 Q 0.159 -0.646 0.145 -0.649 L 0.145 -0.649 Q 0.133 -0.652 0.109 -0.652 Q 0.08700000000000001 -0.652 0.085 -0.664 Q 0.085 -0.681 0.10400000000000001 -0.684 L 0.226 -0.6940000000000001 Q 0.23900000000000002 -0.6940000000000001 0.23900000000000002 -0.683 M 0.145 -0.305 L 0.123 -0.213 Q 0.107 -0.15 0.107 -0.112 Q 0.107 -0.026000000000000002 0.159 -0.013000000000000001 Q 0.166 -0.011 0.17400000000000002 -0.011 Q 0.227 -0.011 0.273 -0.081 Q 0.28300000000000003 -0.096 0.292 -0.114 Q 0.319 -0.171 0.337 -0.268 Q 0.343 -0.303 0.343 -0.326 Q 0.343 -0.406 0.294 -0.418 L 0.293 -0.419 Q 0.28700000000000003 -0.42 0.28 -0.42 Q 0.22 -0.42 0.16 -0.34 Q 0.152 -0.33 0.145 -0.305 Z"/></g><g transform="translate(21.720837055555556,7.662037372936679) scale(0.7,0.7)"><path fill="rgb(77,77,255)" stroke="none" paint-order="stroke fill markers" d=" M 0.449 -0.17400000000000002 L 0.449 -0.17400000000000002 L 0.421 0 L 0.05 0 Q 0.05 -0.025 0.056 -0.032 L 0.061 -0.037 L 0.253 -0.251 Q 0.358 -0.369 0.358 -0.47200000000000003 Q 0.358 -0.561 0.304 -0.607 L 0.303 -0.608 L 0.302 -0.608 Q 0.27 -0.635 0.224 -0.635 Q 0.152 -0.635 0.109 -0.5730000000000001 Q 0.097 -0.555 0.089 -0.533 Q 0.092 -0.534 0.10200000000000001 -0.534 Q 0.14200000000000002 -0.534 0.153 -0.498 L 0.153 -0.497 Q 0.155 -0.49 0.155 -0.482 Q 0.155 -0.442 0.117 -0.431 Q 0.109 -0.429 0.10300000000000001 -0.429 Q 0.066 -0.429 0.054 -0.46 Q 0.05 -0.47100000000000003 0.05 -0.485 Q 0.05 -0.562 0.109 -0.617 Q 0.162 -0.666 0.23700000000000002 -0.666 Q 0.34700000000000003 -0.666 0.40800000000000003 -0.592 Q 0.443 -0.549 0.448 -0.49 Q 0.449 -0.481 0.449 -0.47200000000000003 Q 0.449 -0.399 0.394 -0.333 Q 0.365 -0.299 0.304 -0.243 L 0.243 -0.189 L 0.233 -0.18 L 0.127 -0.077 L 0.307 -0.077 Q 0.395 -0.077 0.402 -0.085 Q 0.41200000000000003 -0.099 0.424 -0.17400000000000002 L 0.449 -0.17400000000000002 Z"/></g><g transform="translate(22.070838455555556,7.662037372936679) scale(0.7,0.7)"><path fill="rgb(77,77,255)" stroke="none" paint-order="stroke fill markers" d=" M 0.294 -0.64 L 0.294 -0.079 Q 0.294 -0.049 0.306 -0.041 Q 0.323 -0.031 0.387 -0.031 L 0.419 -0.031 L 0.419 0 Q 0.384 -0.003 0.257 -0.003 Q 0.13 -0.003 0.095 0 L 0.095 -0.031 L 0.127 -0.031 Q 0.20400000000000001 -0.031 0.215 -0.049 L 0.216 -0.05 Q 0.22 -0.058 0.22 -0.079 L 0.22 -0.597 Q 0.168 -0.5710000000000001 0.089 -0.5710000000000001 L 0.089 -0.602 Q 0.209 -0.602 0.271 -0.666 Q 0.29 -0.666 0.293 -0.659 L 0.293 -0.659 L 0.293 -0.658 Q 0.294 -0.655 0.294 -0.64 Z"/></g><g transform="translate(22.420839855555556,5.442301872936677)"><path fill="rgb(77,77,255)" stroke="none" paint-order="stroke fill markers" d=" M 0.04296875 2.35888671875 Q 0.0341796875 2.35888671875 0.0341796875 2.35009765625 Q 0.0341796875 2.34619140625 0.0361328125 2.34423828125 Q 0.150390625 2.2314453125 0.22900390625 2.093017578125 Q 0.3076171875 1.95458984375 0.35400390625 1.802001953125 Q 0.400390625 1.6494140625 0.420166015625 1.489990234375 Q 0.43994140625 1.33056640625 0.43994140625 1.1591796875 Q 0.43994140625 0.98583984375 0.420166015625 0.82763671875 Q 0.400390625 0.66943359375 0.3544921875 0.517578125 Q 0.30859375 0.36572265625 0.22900390625 0.226318359375 Q 0.1494140625 0.0869140625 0.0361328125 -0.02490234375 Q 0.0341796875 -0.02685546875 0.0341796875 -0.03076171875 Q 0.0341796875 -0.0400390625 0.04296875 -0.0400390625 L 0.06884765625 -0.0400390625 Q 0.072265625 -0.0400390625 0.07421875 -0.0380859375 Q 0.19775390625 0.0712890625 0.28564453125 0.210693359375 Q 0.37353515625 0.35009765625 0.42626953125 0.5048828125 Q 0.47900390625 0.65966796875 0.5029296875 0.82470703125 Q 0.52685546875 0.98974609375 0.52685546875 1.16015625 Q 0.52685546875 1.32958984375 0.5029296875 1.494140625 Q 0.47900390625 1.65869140625 0.42626953125 1.813720703125 Q 0.37353515625 1.96875 0.28564453125 2.108154296875 Q 0.19775390625 2.24755859375 0.07421875 2.35693359375 Q 0.072265625 2.35888671875 0.06884765625 2.35888671875 L 0.04296875 2.35888671875 Z"/></g></g><g transform="scale(27,27)"><g transform="translate(8.555555555555555,13.31574062962963)"><path fill="rgb(0,0,0)" stroke="none" paint-order="stroke fill markers" d=" M 0.71 -0.668 L 0.662 -0.48 Q 0.658 -0.465 0.6545 -0.4615 Q 0.651 -0.458 0.637 -0.458 Q 0.613 -0.458 0.613 -0.47300000000000003 L 0.614 -0.487 Q 0.616 -0.501 0.616 -0.512 Q 0.616 -0.591 0.5715 -0.6255000000000001 Q 0.527 -0.66 0.457 -0.66 Q 0.376 -0.66 0.334 -0.6145 Q 0.292 -0.5690000000000001 0.292 -0.523 Q 0.292 -0.494 0.311 -0.47200000000000003 Q 0.33 -0.45 0.363 -0.443 L 0.441 -0.425 Q 0.511 -0.40900000000000003 0.5355 -0.3995 Q 0.56 -0.39 0.585 -0.365 Q 0.63 -0.32 0.63 -0.248 Q 0.63 -0.20800000000000002 0.6125 -0.1635 Q 0.595 -0.11900000000000001 0.5625 -0.0775 Q 0.53 -0.036000000000000004 0.47350000000000003 -0.0095 Q 0.417 0.017 0.34700000000000003 0.017 Q 0.223 0.017 0.158 -0.041 Q 0.15 -0.034 0.126 -0.014 Q 0.10200000000000001 0.006 0.101 0.007 Q 0.089 0.017 0.081 0.017 Q 0.064 0.017 0.064 0.003 L 0.115 -0.20500000000000002 Q 0.11900000000000001 -0.22 0.123 -0.224 Q 0.127 -0.228 0.14100000000000001 -0.228 Q 0.164 -0.228 0.164 -0.214 Q 0.164 -0.213 0.1635 -0.2095 Q 0.163 -0.20600000000000002 0.163 -0.20400000000000001 Q 0.158 -0.185 0.158 -0.163 Q 0.158 -0.095 0.215 -0.06 Q 0.266 -0.03 0.35100000000000003 -0.03 Q 0.397 -0.03 0.432 -0.047 Q 0.467 -0.064 0.4855 -0.089 Q 0.504 -0.114 0.513 -0.1385 Q 0.522 -0.163 0.522 -0.183 Q 0.522 -0.254 0.443 -0.273 Q 0.393 -0.28400000000000003 0.365 -0.291 Q 0.303 -0.305 0.2795 -0.3135 Q 0.256 -0.322 0.232 -0.34400000000000003 Q 0.184 -0.39 0.184 -0.458 Q 0.184 -0.498 0.2015 -0.5395 Q 0.219 -0.581 0.252 -0.6185 Q 0.28500000000000003 -0.656 0.3395 -0.6795 Q 0.394 -0.7030000000000001 0.46 -0.7030000000000001 Q 0.562 -0.7030000000000001 0.619 -0.645 L 0.674 -0.6910000000000001 Q 0.687 -0.7030000000000001 0.6960000000000001 -0.7030000000000001 Q 0.714 -0.7030000000000001 0.714 -0.6880000000000001 Q 0.714 -0.68 0.71 -0.668 Z"/></g><g transform="translate(9.248261555555555,13.46574062962963) scale(0.7,0.7)"><path fill="rgb(0,0,0)" stroke="none" paint-order="stroke fill markers" d=" M 0.352 -0.352 Q 0.403 -0.341 0.4395 -0.3205 Q 0.47600000000000003 -0.3 0.4935 -0.2745 Q 0.511 -0.249 0.5185 -0.2265 Q 0.526 -0.20400000000000001 0.526 -0.18 Q 0.526 -0.10300000000000001 0.4625 -0.046 Q 0.399 0.011 0.274 0.011 Q 0.176 0.011 0.112 -0.0305 Q 0.048 -0.07200000000000001 0.048 -0.139 Q 0.048 -0.176 0.07 -0.1965 Q 0.092 -0.217 0.125 -0.217 Q 0.158 -0.217 0.1795 -0.196 Q 0.201 -0.17500000000000002 0.201 -0.14100000000000001 Q 0.201 -0.082 0.14300000000000002 -0.066 Q 0.197 -0.032 0.269 -0.032 Q 0.299 -0.032 0.32 -0.044 Q 0.341 -0.056 0.35100000000000003 -0.07050000000000001 Q 0.361 -0.085 0.3665 -0.109 Q 0.372 -0.133 0.3725 -0.1465 Q 0.373 -0.16 0.373 -0.181 Q 0.373 -0.203 0.3725 -0.2165 Q 0.372 -0.23 0.366 -0.2545 Q 0.36 -0.279 0.34950000000000003 -0.293 Q 0.339 -0.307 0.317 -0.3185 Q 0.295 -0.33 0.264 -0.33 L 0.22 -0.33 Q 0.209 -0.33 0.20450000000000002 -0.3305 Q 0.2 -0.331 0.196 -0.335 Q 0.192 -0.339 0.192 -0.34800000000000003 Q 0.192 -0.364 0.20400000000000001 -0.365 Q 0.215 -0.367 0.252 -0.369 Q 0.277 -0.37 0.296 -0.3805 Q 0.315 -0.391 0.3255 -0.40800000000000003 Q 0.336 -0.425 0.343 -0.441 Q 0.35000000000000003 -0.457 0.353 -0.47600000000000003 Q 0.356 -0.495 0.3565 -0.5035000000000001 Q 0.357 -0.512 0.357 -0.519 Q 0.357 -0.616 0.271 -0.616 Q 0.20600000000000002 -0.616 0.161 -0.58 Q 0.219 -0.5660000000000001 0.219 -0.51 Q 0.219 -0.481 0.2 -0.461 Q 0.181 -0.441 0.149 -0.441 Q 0.12 -0.441 0.1 -0.4605 Q 0.08 -0.48 0.08 -0.511 Q 0.08 -0.5720000000000001 0.1345 -0.6135 Q 0.189 -0.655 0.277 -0.655 Q 0.379 -0.655 0.4365 -0.6155 Q 0.494 -0.5760000000000001 0.494 -0.516 Q 0.494 -0.456 0.452 -0.41300000000000003 Q 0.41000000000000003 -0.37 0.352 -0.352 Z"/></g><g transform="translate(9.928538066666666,13.31574062962963)"><path fill="rgb(0,0,0)" stroke="none" paint-order="stroke fill markers" d=" M 0.788 -0.332 L 0.105 -0.332 Q 0.064 -0.332 0.064 -0.362 Q 0.064 -0.393 0.11 -0.393 L 0.783 -0.393 Q 0.8290000000000001 -0.393 0.8290000000000001 -0.362 Q 0.8290000000000001 -0.332 0.788 -0.332 M 0.783 -0.108 L 0.11 -0.108 Q 0.064 -0.108 0.064 -0.139 Q 0.064 -0.169 0.105 -0.169 L 0.788 -0.169 Q 0.8290000000000001 -0.169 0.8290000000000001 -0.139 Q 0.8290000000000001 -0.108 0.783 -0.108 Z"/></g><g transform="translate(11.100756677777778,13.31574062962963)"><path fill="rgb(0,0,0)" stroke="none" paint-order="stroke fill markers" d=" M 0.71 -0.668 L 0.662 -0.48 Q 0.658 -0.465 0.6545 -0.4615 Q 0.651 -0.458 0.637 -0.458 Q 0.613 -0.458 0.613 -0.47300000000000003 L 0.614 -0.487 Q 0.616 -0.501 0.616 -0.512 Q 0.616 -0.591 0.5715 -0.6255000000000001 Q 0.527 -0.66 0.457 -0.66 Q 0.376 -0.66 0.334 -0.6145 Q 0.292 -0.5690000000000001 0.292 -0.523 Q 0.292 -0.494 0.311 -0.47200000000000003 Q 0.33 -0.45 0.363 -0.443 L 0.441 -0.425 Q 0.511 -0.40900000000000003 0.5355 -0.3995 Q 0.56 -0.39 0.585 -0.365 Q 0.63 -0.32 0.63 -0.248 Q 0.63 -0.20800000000000002 0.6125 -0.1635 Q 0.595 -0.11900000000000001 0.5625 -0.0775 Q 0.53 -0.036000000000000004 0.47350000000000003 -0.0095 Q 0.417 0.017 0.34700000000000003 0.017 Q 0.223 0.017 0.158 -0.041 Q 0.15 -0.034 0.126 -0.014 Q 0.10200000000000001 0.006 0.101 0.007 Q 0.089 0.017 0.081 0.017 Q 0.064 0.017 0.064 0.003 L 0.115 -0.20500000000000002 Q 0.11900000000000001 -0.22 0.123 -0.224 Q 0.127 -0.228 0.14100000000000001 -0.228 Q 0.164 -0.228 0.164 -0.214 Q 0.164 -0.213 0.1635 -0.2095 Q 0.163 -0.20600000000000002 0.163 -0.20400000000000001 Q 0.158 -0.185 0.158 -0.163 Q 0.158 -0.095 0.215 -0.06 Q 0.266 -0.03 0.35100000000000003 -0.03 Q 0.397 -0.03 0.432 -0.047 Q 0.467 -0.064 0.4855 -0.089 Q 0.504 -0.114 0.513 -0.1385 Q 0.522 -0.163 0.522 -0.183 Q 0.522 -0.254 0.443 -0.273 Q 0.393 -0.28400000000000003 0.365 -0.291 Q 0.303 -0.305 0.2795 -0.3135 Q 0.256 -0.322 0.232 -0.34400000000000003 Q 0.184 -0.39 0.184 -0.458 Q 0.184 -0.498 0.2015 -0.5395 Q 0.219 -0.581 0.252 -0.6185 Q 0.28500000000000003 -0.656 0.3395 -0.6795 Q 0.394 -0.7030000000000001 0.46 -0.7030000000000001 Q 0.562 -0.7030000000000001 0.619 -0.645 L 0.674 -0.6910000000000001 Q 0.687 -0.7030000000000001 0.6960000000000001 -0.7030000000000001 Q 0.714 -0.7030000000000001 0.714 -0.6880000000000001 Q 0.714 -0.68 0.71 -0.668 Z"/></g><g transform="translate(11.793462677777777,13.46574062962963) scale(0.7,0.7)"><path fill="rgb(0,0,0)" stroke="none" paint-order="stroke fill markers" d=" M 0.354 -0.623 L 0.354 -0.047 L 0.494 -0.047 L 0.494 0 Q 0.45 -0.003 0.295 -0.003 Q 0.14 -0.003 0.096 0 L 0.096 -0.047 L 0.23500000000000001 -0.047 L 0.23500000000000001 -0.5640000000000001 Q 0.17300000000000001 -0.544 0.105 -0.544 L 0.085 -0.544 L 0.085 -0.591 L 0.105 -0.591 Q 0.229 -0.591 0.306 -0.648 Q 0.315 -0.655 0.328 -0.655 Q 0.34600000000000003 -0.655 0.35000000000000003 -0.6485 Q 0.354 -0.642 0.354 -0.623 Z"/></g><g transform="translate(12.418183466666665,13.31574062962963)"><path fill="rgb(0,0,0)" stroke="none" paint-order="stroke fill markers" d=" M 0.47700000000000004 -0.22 L 0.47700000000000004 0.09 Q 0.47700000000000004 0.132 0.446 0.132 Q 0.41600000000000004 0.132 0.41600000000000004 0.09 L 0.41600000000000004 -0.22 L 0.107 -0.22 Q 0.064 -0.22 0.064 -0.25 Q 0.064 -0.281 0.107 -0.281 L 0.41600000000000004 -0.281 L 0.41600000000000004 -0.591 Q 0.41600000000000004 -0.633 0.447 -0.633 Q 0.47700000000000004 -0.633 0.47700000000000004 -0.591 L 0.47700000000000004 -0.281 L 0.786 -0.281 Q 0.8290000000000001 -0.281 0.8290000000000001 -0.25 Q 0.8290000000000001 -0.22 0.786 -0.22 L 0.47700000000000004 -0.22 Z"/></g><g transform="translate(13.534846355555553,13.31574062962963)"><path fill="rgb(0,0,0)" stroke="none" paint-order="stroke fill markers" d=" M 0.71 -0.668 L 0.662 -0.48 Q 0.658 -0.465 0.6545 -0.4615 Q 0.651 -0.458 0.637 -0.458 Q 0.613 -0.458 0.613 -0.47300000000000003 L 0.614 -0.487 Q 0.616 -0.501 0.616 -0.512 Q 0.616 -0.591 0.5715 -0.6255000000000001 Q 0.527 -0.66 0.457 -0.66 Q 0.376 -0.66 0.334 -0.6145 Q 0.292 -0.5690000000000001 0.292 -0.523 Q 0.292 -0.494 0.311 -0.47200000000000003 Q 0.33 -0.45 0.363 -0.443 L 0.441 -0.425 Q 0.511 -0.40900000000000003 0.5355 -0.3995 Q 0.56 -0.39 0.585 -0.365 Q 0.63 -0.32 0.63 -0.248 Q 0.63 -0.20800000000000002 0.6125 -0.1635 Q 0.595 -0.11900000000000001 0.5625 -0.0775 Q 0.53 -0.036000000000000004 0.47350000000000003 -0.0095 Q 0.417 0.017 0.34700000000000003 0.017 Q 0.223 0.017 0.158 -0.041 Q 0.15 -0.034 0.126 -0.014 Q 0.10200000000000001 0.006 0.101 0.007 Q 0.089 0.017 0.081 0.017 Q 0.064 0.017 0.064 0.003 L 0.115 -0.20500000000000002 Q 0.11900000000000001 -0.22 0.123 -0.224 Q 0.127 -0.228 0.14100000000000001 -0.228 Q 0.164 -0.228 0.164 -0.214 Q 0.164 -0.213 0.1635 -0.2095 Q 0.163 -0.20600000000000002 0.163 -0.20400000000000001 Q 0.158 -0.185 0.158 -0.163 Q 0.158 -0.095 0.215 -0.06 Q 0.266 -0.03 0.35100000000000003 -0.03 Q 0.397 -0.03 0.432 -0.047 Q 0.467 -0.064 0.4855 -0.089 Q 0.504 -0.114 0.513 -0.1385 Q 0.522 -0.163 0.522 -0.183 Q 0.522 -0.254 0.443 -0.273 Q 0.393 -0.28400000000000003 0.365 -0.291 Q 0.303 -0.305 0.2795 -0.3135 Q 0.256 -0.322 0.232 -0.34400000000000003 Q 0.184 -0.39 0.184 -0.458 Q 0.184 -0.498 0.2015 -0.5395 Q 0.219 -0.581 0.252 -0.6185 Q 0.28500000000000003 -0.656 0.3395 -0.6795 Q 0.394 -0.7030000000000001 0.46 -0.7030000000000001 Q 0.562 -0.7030000000000001 0.619 -0.645 L 0.674 -0.6910000000000001 Q 0.687 -0.7030000000000001 0.6960000000000001 -0.7030000000000001 Q 0.714 -0.7030000000000001 0.714 -0.6880000000000001 Q 0.714 -0.68 0.71 -0.668 Z"/></g><g transform="translate(14.227552355555552,13.46574062962963) scale(0.7,0.7)"><path fill="rgb(0,0,0)" stroke="none" paint-order="stroke fill markers" d=" M 0.517 -0.222 L 0.486 0 L 0.057 0 L 0.057 -0.018000000000000002 Q 0.057 -0.034 0.059000000000000004 -0.0385 Q 0.061 -0.043000000000000003 0.07 -0.052000000000000005 L 0.271 -0.257 Q 0.379 -0.367 0.379 -0.465 Q 0.379 -0.525 0.34400000000000003 -0.5665 Q 0.309 -0.608 0.247 -0.608 Q 0.186 -0.608 0.14400000000000002 -0.5730000000000001 Q 0.155 -0.5700000000000001 0.166 -0.5645 Q 0.177 -0.559 0.189 -0.542 Q 0.201 -0.525 0.201 -0.501 Q 0.201 -0.466 0.1785 -0.4475 Q 0.156 -0.429 0.129 -0.429 Q 0.10400000000000001 -0.429 0.0805 -0.4465 Q 0.057 -0.464 0.057 -0.503 Q 0.057 -0.5700000000000001 0.11850000000000001 -0.6125 Q 0.18 -0.655 0.272 -0.655 Q 0.379 -0.655 0.448 -0.603 Q 0.517 -0.551 0.517 -0.466 Q 0.517 -0.431 0.507 -0.404 Q 0.497 -0.377 0.46900000000000003 -0.34750000000000003 Q 0.441 -0.318 0.417 -0.299 Q 0.393 -0.28 0.339 -0.24 Q 0.292 -0.20600000000000002 0.195 -0.125 L 0.342 -0.125 Q 0.433 -0.125 0.444 -0.131 Q 0.457 -0.138 0.47000000000000003 -0.222 L 0.517 -0.222 Z"/></g></g></g></g></svg>