<svg version="1.1" xmlns="http://www.w3.org/2000/svg" xmlns:xlink="http://www.w3.org/1999/xlink" width="476" height="141"><defs><clipPath id="tulbwKUuSMlZ"><path fill="none" stroke="none" d=" M 0 0 L 476 0 L 476 141 L 0 141 L 0 0 Z"/></clipPath></defs><g transform="scale(1,1)" clip-path="url(#tulbwKUuSMlZ)"><g><path fill="rgb(102,204,255)" stroke="none" paint-order="stroke fill markers" fill-rule="evenodd" d=" M 127.99999999999838 50.00000000000006 L 326.49999999999255 50.00000000000006 L 326.49999999999255 28.000000000000064 L 127.99999999999838 28.000000000000064 Z" fill-opacity="0.09803921568627451"/><path fill="rgb(102,204,255)" stroke="none" paint-order="stroke fill markers" fill-rule="evenodd" d=" M 127.99999999999969 112.00000000000003 L 326.49999999999386 112.00000000000003 L 326.49999999999386 90.00000000000004 L 127.99999999999969 90.00000000000004 Z" fill-opacity="0.09803921568627451"/><path fill="rgb(204,153,255)" stroke="none" paint-order="stroke fill markers" fill-rule="evenodd" d=" M 150.00000000000048 128.00000000000003 L 171.99999999999983 128.00000000000003 L 171.99999999999983 16.50000000000007 L 150.00000000000048 16.50000000000007 Z" fill-opacity="0.09803921568627451"/><path fill="rgb(255,102,153)" stroke="none" paint-order="stroke fill markers" fill-rule="evenodd" d=" M 272.0000000000007 126.00000000000003 L 294.00000000000006 126.00000000000003 L 294.00000000000006 14.500000000000071 L 272.0000000000007 14.500000000000071 Z" fill-opacity="0.09803921568627451"/><path fill="none" stroke="rgb(102,204,255)" paint-order="fill stroke markers" d=" M 127.99999999999838 50.00000000000006 L 326.49999999999255 50.00000000000006" stroke-opacity="0.6980392156862745" stroke-linecap="round" stroke-linejoin="round" stroke-miterlimit="10" stroke-width="1.5"/><path fill="none" stroke="rgb(102,204,255)" paint-order="fill stroke markers" d=" M 326.49999999999255 50.00000000000006 L 326.49999999999255 28.000000000000064" stroke-opacity="0.6980392156862745" stroke-linecap="round" stroke-linejoin="round" stroke-miterlimit="10" stroke-width="1.5"/><path fill="none" stroke="rgb(102,204,255)" paint-order="fill stroke markers" d=" M 326.49999999999255 28.000000000000064 L 127.99999999999838 28.000000000000064" stroke-opacity="0.6980392156862745" stroke-linecap="round" stroke-linejoin="round" stroke-miterlimit="10" stroke-width="1.5"/><path fill="none" stroke="rgb(102,204,255)" paint-order="fill stroke markers" d=" M 127.99999999999838 28.000000000000064 L 127.99999999999838 50.00000000000006" stroke-opacity="0.6980392156862745" stroke-linecap="round" stroke-linejoin="round" stroke-miterlimit="10" stroke-width="1.5"/><path fill="none" stroke="rgb(102,204,255)" paint-order="fill stroke markers" d=" M 127.99999999999969 112.00000000000003 L 326.49999999999386 112.00000000000003" stroke-opacity="0.6980392156862745" stroke-linecap="round" stroke-linejoin="round" stroke-miterlimit="10" stroke-width="1.5"/><path fill="none" stroke="rgb(102,204,255)" paint-order="fill stroke markers" d=" M 326.49999999999386 112.00000000000003 L 326.49999999999386 90.00000000000004" stroke-opacity="0.6980392156862745" stroke-linecap="round" stroke-linejoin="round" stroke-miterlimit="10" stroke-width="1.5"/><path fill="none" stroke="rgb(102,204,255)" paint-order="fill stroke markers" d=" M 326.49999999999386 90.00000000000004 L 127.99999999999969 90.00000000000004" stroke-opacity="0.6980392156862745" stroke-linecap="round" stroke-linejoin="round" stroke-miterlimit="10" stroke-width="1.5"/><path fill="none" stroke="rgb(102,204,255)" paint-order="fill stroke markers" d=" M 127.99999999999969 90.00000000000004 L 127.99999999999969 112.00000000000003" stroke-opacity="0.6980392156862745" stroke-linecap="round" stroke-linejoin="round" stroke-miterlimit="10" stroke-width="1.5"/><path fill="none" stroke="rgb(204,153,255)" paint-order="fill stroke markers" d=" M 150.00000000000048 128.00000000000003 L 171.99999999999983 128.00000000000003" stroke-opacity="0.6980392156862745" stroke-linecap="round" stroke-linejoin="round" stroke-miterlimit="10" stroke-width="2.5"/><path fill="none" stroke="rgb(204,153,255)" paint-order="fill stroke markers" d=" M 171.99999999999983 128.00000000000003 L 171.99999999999983 16.50000000000007" stroke-opacity="0.6980392156862745" stroke-linecap="round" stroke-linejoin="round" stroke-miterlimit="10" stroke-width="2.5"/><path fill="none" stroke="rgb(204,153,255)" paint-order="fill stroke markers" d=" M 171.99999999999983 16.50000000000007 L 150.00000000000048 16.50000000000007" stroke-opacity="0.6980392156862745" stroke-linecap="round" stroke-linejoin="round" stroke-miterlimit="10" stroke-width="2.5"/><path fill="none" stroke="rgb(204,153,255)" paint-order="fill stroke markers" d=" M 150.00000000000048 16.50000000000007 L 150.00000000000048 128.00000000000003" stroke-opacity="0.6980392156862745" stroke-linecap="round" stroke-linejoin="round" stroke-miterlimit="10" stroke-width="2.5"/><path fill="none" stroke="rgb(255,102,153)" paint-order="fill stroke markers" d=" M 272.0000000000007 126.00000000000003 L 294.00000000000006 126.00000000000003" stroke-opacity="0.6980392156862745" stroke-linecap="round" stroke-linejoin="round" stroke-miterlimit="10" stroke-width="1.5"/><path fill="none" stroke="rgb(255,102,153)" paint-order="fill stroke markers" d=" M 294.00000000000006 126.00000000000003 L 294.00000000000006 14.500000000000071" stroke-opacity="0.6980392156862745" stroke-linecap="round" stroke-linejoin="round" stroke-miterlimit="10" stroke-width="1.5"/><path fill="none" stroke="rgb(255,102,153)" paint-order="fill stroke markers" d=" M 294.00000000000006 14.500000000000071 L 272.0000000000007 14.500000000000071" stroke-opacity="0.6980392156862745" stroke-linecap="round" stroke-linejoin="round" stroke-miterlimit="10" stroke-width="1.5"/><path fill="none" stroke="rgb(255,102,153)" paint-order="fill stroke markers" d=" M 272.0000000000007 14.500000000000071 L 272.0000000000007 126.00000000000003" stroke-opacity="0.6980392156862745" stroke-linecap="round" stroke-linejoin="round" stroke-miterlimit="10" stroke-width="1.5"/><g transform="scale(21,21)"><g transform="translate(6.571428571428571,1.278094238095238)"><path fill="rgb(0,0,0)" stroke="none" paint-order="stroke fill markers" d=" M 0.2998046875 1.77001953125 Q 0.291015625 1.77001953125 0.291015625 1.7587890625 Q 0.291015625 1.5009765625 0.313232421875 1.264404296875 Q 0.33544921875 1.02783203125 0.390625 0.798583984375 Q 0.44580078125 0.5693359375 0.545654296875 0.3564453125 Q 0.6455078125 0.1435546875 0.796875 -0.0361328125 Q 0.802734375 -0.0390625 0.80419921875 -0.0390625 L 0.8349609375 -0.0390625 Q 0.837890625 -0.0390625 0.84033203125 -0.035888671875 Q 0.8427734375 -0.03271484375 0.8427734375 -0.02978515625 Q 0.8427734375 -0.02587890625 0.8408203125 -0.02392578125 Q 0.70556640625 0.16064453125 0.618896484375 0.373046875 Q 0.5322265625 0.58544921875 0.486083984375 0.81298828125 Q 0.43994140625 1.04052734375 0.4228515625 1.272705078125 Q 0.40576171875 1.5048828125 0.40576171875 1.76123046875 Q 0.40576171875 1.763671875 0.403076171875 1.766845703125 Q 0.400390625 1.77001953125 0.39794921875 1.77001953125 L 0.2998046875 1.77001953125 Z"/></g><g transform="translate(6.571428571428571,3.038113238095238)"><path fill="rgb(0,0,0)" stroke="none" paint-order="stroke fill markers" d=" M 0.291015625 0.60107421875 L 0.291015625 -0.0009765625 Q 0.291015625 -0.00439453125 0.293701171875 -0.007080078125 Q 0.29638671875 -0.009765625 0.2998046875 -0.009765625 L 0.39794921875 -0.009765625 Q 0.40087890625 -0.009765625 0.4033203125 -0.007080078125 Q 0.40576171875 -0.00439453125 0.40576171875 -0.0009765625 L 0.40576171875 0.60107421875 Q 0.40576171875 0.603515625 0.403076171875 0.606689453125 Q 0.400390625 0.60986328125 0.39794921875 0.60986328125 L 0.2998046875 0.60986328125 Q 0.291015625 0.60986328125 0.291015625 0.60107421875 Z"/></g><g transform="translate(6.571428571428571,3.6781182380952377)"><path fill="rgb(0,0,0)" stroke="none" paint-order="stroke fill markers" d=" M 0.796875 1.755859375 Q 0.64599609375 1.57666015625 0.5458984375 1.36328125 Q 0.44580078125 1.14990234375 0.390625 0.9208984375 Q 0.33544921875 0.69189453125 0.313232421875 0.455322265625 Q 0.291015625 0.21875 0.291015625 -0.0390625 Q 0.291015625 -0.0498046875 0.2998046875 -0.0498046875 L 0.39794921875 -0.0498046875 Q 0.40087890625 -0.0498046875 0.4033203125 -0.047119140625 Q 0.40576171875 -0.04443359375 0.40576171875 -0.041015625 Q 0.40576171875 0.21484375 0.4228515625 0.447021484375 Q 0.43994140625 0.67919921875 0.486083984375 0.906494140625 Q 0.5322265625 1.1337890625 0.618896484375 1.34619140625 Q 0.70556640625 1.55859375 0.8408203125 1.744140625 Q 0.8427734375 1.74609375 0.8427734375 1.75 Q 0.8427734375 1.75244140625 0.840087890625 1.755615234375 Q 0.83740234375 1.7587890625 0.8349609375 1.7587890625 L 0.80419921875 1.7587890625 Q 0.802734375 1.7587890625 0.80078125 1.7578125 Q 0.798828125 1.7568359375 0.796875 1.755859375 Z"/></g><g transform="translate(7.446431571428571,2.154784238095238)"><path fill="rgb(255,0,0)" stroke="none" paint-order="stroke fill markers" d=" M 0.294 -0.64 L 0.294 -0.079 Q 0.294 -0.049 0.306 -0.041 Q 0.323 -0.031 0.387 -0.031 L 0.419 -0.031 L 0.419 0 Q 0.384 -0.003 0.257 -0.003 Q 0.13 -0.003 0.095 0 L 0.095 -0.031 L 0.127 -0.031 Q 0.20400000000000001 -0.031 0.215 -0.049 L 0.216 -0.05 Q 0.22 -0.058 0.22 -0.079 L 0.22 -0.597 Q 0.168 -0.5710000000000001 0.089 -0.5710000000000001 L 0.089 -0.602 Q 0.209 -0.602 0.271 -0.666 Q 0.29 -0.666 0.293 -0.659 L 0.293 -0.659 L 0.293 -0.658 Q 0.294 -0.655 0.294 -0.64 Z"/></g><g transform="translate(9.19643457142857,2.154784238095238)"><path fill="rgb(0,0,0)" stroke="none" paint-order="stroke fill markers" d=" M 0.449 -0.17400000000000002 L 0.449 -0.17400000000000002 L 0.421 0 L 0.05 0 Q 0.05 -0.025 0.056 -0.032 L 0.061 -0.037 L 0.253 -0.251 Q 0.358 -0.369 0.358 -0.47200000000000003 Q 0.358 -0.561 0.304 -0.607 L 0.303 -0.608 L 0.302 -0.608 Q 0.27 -0.635 0.224 -0.635 Q 0.152 -0.635 0.109 -0.5730000000000001 Q 0.097 -0.555 0.089 -0.533 Q 0.092 -0.534 0.10200000000000001 -0.534 Q 0.14200000000000002 -0.534 0.153 -0.498 L 0.153 -0.497 Q 0.155 -0.49 0.155 -0.482 Q 0.155 -0.442 0.117 -0.431 Q 0.109 -0.429 0.10300000000000001 -0.429 Q 0.066 -0.429 0.054 -0.46 Q 0.05 -0.47100000000000003 0.05 -0.485 Q 0.05 -0.562 0.109 -0.617 Q 0.162 -0.666 0.23700000000000002 -0.666 Q 0.34700000000000003 -0.666 0.40800000000000003 -0.592 Q 0.443 -0.549 0.448 -0.49 Q 0.449 -0.481 0.449 -0.47200000000000003 Q 0.449 -0.399 0.394 -0.333 Q 0.365 -0.299 0.304 -0.243 L 0.243 -0.189 L 0.233 -0.18 L 0.127 -0.077 L 0.307 -0.077 Q 0.395 -0.077 0.402 -0.085 Q 0.41200000000000003 -0.099 0.424 -0.17400000000000002 L 0.449 -0.17400000000000002 Z"/></g><g transform="translate(11.19643857142857,2.154784238095238)"><path fill="rgb(0,0,0)" stroke="none" paint-order="stroke fill markers" d=" M 0.29 -0.352 L 0.29 -0.352 Q 0.39 -0.332 0.434 -0.254 Q 0.457 -0.215 0.457 -0.171 Q 0.457 -0.08600000000000001 0.387 -0.028 Q 0.326 0.022 0.244 0.022 Q 0.145 0.022 0.085 -0.037 Q 0.042 -0.079 0.042 -0.135 Q 0.042 -0.182 0.084 -0.191 Q 0.091 -0.193 0.098 -0.193 Q 0.136 -0.193 0.149 -0.161 Q 0.153 -0.148 0.154 -0.137 Q 0.154 -0.097 0.11800000000000001 -0.085 Q 0.10400000000000001 -0.08 0.088 -0.082 Q 0.125 -0.02 0.216 -0.008 Q 0.229 -0.006 0.241 -0.006 Q 0.305 -0.006 0.335 -0.069 Q 0.354 -0.109 0.354 -0.171 Q 0.354 -0.304 0.274 -0.331 Q 0.256 -0.337 0.23500000000000001 -0.337 L 0.191 -0.337 Q 0.169 -0.337 0.167 -0.34800000000000003 Q 0.167 -0.358 0.182 -0.36 Q 0.197 -0.36 0.221 -0.363 Q 0.272 -0.365 0.301 -0.402 L 0.301 -0.403 L 0.302 -0.404 L 0.303 -0.405 L 0.304 -0.405 L 0.31 -0.41500000000000004 Q 0.338 -0.462 0.338 -0.529 Q 0.338 -0.622 0.266 -0.638 Q 0.254 -0.641 0.242 -0.641 Q 0.17200000000000001 -0.641 0.128 -0.601 Q 0.117 -0.591 0.109 -0.579 Q 0.171 -0.579 0.171 -0.529 Q 0.171 -0.493 0.14 -0.481 Q 0.131 -0.47800000000000004 0.12 -0.47800000000000004 Q 0.081 -0.47800000000000004 0.07100000000000001 -0.513 L 0.07100000000000001 -0.513 L 0.07100000000000001 -0.514 Q 0.069 -0.522 0.069 -0.53 Q 0.069 -0.597 0.135 -0.637 Q 0.183 -0.666 0.246 -0.666 Q 0.337 -0.666 0.393 -0.612 L 0.395 -0.61 Q 0.43 -0.5740000000000001 0.43 -0.528 Q 0.43 -0.445 0.359 -0.389 Q 0.328 -0.365 0.29 -0.352 Z"/></g><g transform="translate(13.196442571428571,2.154784238095238)"><path fill="rgb(255,0,0)" stroke="none" paint-order="stroke fill markers" d=" M 0.028 -0.165 L 0.028 -0.196 L 0.335 -0.665 Q 0.343 -0.677 0.355 -0.677 Q 0.369 -0.677 0.371 -0.666 L 0.371 -0.651 L 0.371 -0.196 L 0.47100000000000003 -0.196 L 0.47100000000000003 -0.165 L 0.371 -0.165 L 0.371 -0.078 Q 0.371 -0.047 0.383 -0.04 Q 0.397 -0.031 0.447 -0.031 L 0.468 -0.031 L 0.468 0 Q 0.427 -0.003 0.332 -0.003 Q 0.23800000000000002 -0.003 0.197 0 L 0.197 -0.031 L 0.218 -0.031 Q 0.28 -0.031 0.29 -0.048 Q 0.294 -0.055 0.294 -0.078 L 0.294 -0.165 L 0.028 -0.165 M 0.3 -0.196 L 0.3 -0.5690000000000001 L 0.056 -0.196 L 0.3 -0.196 Z"/></g><g transform="translate(7.446431571428571,3.660338238095238)"><path fill="rgb(0,0,0)" stroke="none" paint-order="stroke fill markers" d=" M 0.449 -0.201 L 0.449 -0.201 Q 0.449 -0.098 0.372 -0.031 Q 0.31 0.022 0.231 0.022 Q 0.139 0.022 0.085 -0.055 Q 0.05 -0.10400000000000001 0.05 -0.161 Q 0.05 -0.20700000000000002 0.091 -0.213 Q 0.095 -0.214 0.099 -0.214 Q 0.136 -0.214 0.147 -0.181 Q 0.149 -0.17300000000000001 0.149 -0.165 Q 0.149 -0.133 0.121 -0.121 Q 0.111 -0.116 0.099 -0.116 Q 0.088 -0.116 0.082 -0.11800000000000001 Q 0.1 -0.055 0.159 -0.024 Q 0.192 -0.006 0.229 -0.006 Q 0.296 -0.006 0.336 -0.07100000000000001 Q 0.36 -0.113 0.36 -0.20800000000000002 Q 0.36 -0.292 0.342 -0.334 Q 0.314 -0.398 0.257 -0.398 Q 0.176 -0.398 0.128 -0.328 Q 0.122 -0.319 0.115 -0.319 Q 0.10200000000000001 -0.319 0.101 -0.333 L 0.101 -0.34500000000000003 L 0.101 -0.641 Q 0.101 -0.664 0.111 -0.665 Q 0.115 -0.665 0.123 -0.662 Q 0.186 -0.634 0.256 -0.634 Q 0.328 -0.634 0.392 -0.663 Q 0.397 -0.666 0.4 -0.666 Q 0.41000000000000003 -0.666 0.41000000000000003 -0.655 Q 0.41000000000000003 -0.642 0.378 -0.613 Q 0.31 -0.551 0.217 -0.551 Q 0.17500000000000002 -0.551 0.132 -0.5640000000000001 L 0.132 -0.369 Q 0.184 -0.42 0.259 -0.42 Q 0.34700000000000003 -0.42 0.404 -0.343 Q 0.449 -0.28200000000000003 0.449 -0.201 Z"/></g><g transform="translate(9.19643457142857,3.660338238095238)"><path fill="rgb(0,0,0)" stroke="none" paint-order="stroke fill markers" d=" M 0.132 -0.328 L 0.132 -0.328 Q 0.17300000000000001 -0.427 0.257 -0.427 Q 0.34900000000000003 -0.427 0.40800000000000003 -0.35100000000000003 Q 0.441 -0.31 0.452 -0.255 Q 0.457 -0.23 0.457 -0.20400000000000001 Q 0.457 -0.093 0.38 -0.026000000000000002 Q 0.324 0.022 0.251 0.022 Q 0.149 0.022 0.092 -0.075 Q 0.042 -0.162 0.042 -0.316 Q 0.042 -0.489 0.14 -0.591 Q 0.213 -0.666 0.305 -0.666 Q 0.392 -0.666 0.422 -0.605 Q 0.432 -0.584 0.432 -0.558 Q 0.432 -0.518 0.395 -0.511 Q 0.39 -0.51 0.386 -0.51 Q 0.354 -0.51 0.343 -0.538 Q 0.34 -0.546 0.34 -0.556 Q 0.34 -0.601 0.395 -0.601 Q 0.369 -0.641 0.307 -0.641 Q 0.23700000000000002 -0.641 0.189 -0.578 Q 0.132 -0.503 0.132 -0.352 L 0.132 -0.328 M 0.251 -0.006 L 0.251 -0.006 Q 0.318 -0.006 0.35000000000000003 -0.07100000000000001 Q 0.367 -0.107 0.367 -0.20500000000000002 Q 0.367 -0.305 0.34900000000000003 -0.342 Q 0.318 -0.404 0.256 -0.404 Q 0.177 -0.404 0.147 -0.31 Q 0.134 -0.271 0.134 -0.226 Q 0.134 -0.128 0.152 -0.081 Q 0.171 -0.035 0.211 -0.015 Q 0.23 -0.006 0.251 -0.006 Z"/></g><g transform="translate(11.19643857142857,3.660338238095238)"><path fill="rgb(0,0,0)" stroke="none" paint-order="stroke fill markers" d=" M 0.47600000000000003 -0.609 L 0.341 -0.419 Q 0.298 -0.359 0.279 -0.248 Q 0.268 -0.17400000000000002 0.268 -0.084 L 0.268 -0.033 Q 0.268 0.022 0.222 0.022 Q 0.176 0.022 0.176 -0.033 Q 0.176 -0.2 0.273 -0.368 L 0.299 -0.40900000000000003 L 0.41100000000000003 -0.5670000000000001 L 0.20400000000000001 -0.5670000000000001 Q 0.113 -0.5670000000000001 0.106 -0.561 Q 0.096 -0.552 0.081 -0.47000000000000003 L 0.056 -0.47000000000000003 L 0.089 -0.676 L 0.114 -0.676 Q 0.11800000000000001 -0.659 0.132 -0.653 L 0.133 -0.653 L 0.133 -0.653 Q 0.159 -0.644 0.242 -0.644 L 0.485 -0.644 Q 0.485 -0.621 0.47600000000000003 -0.609 Z"/></g><g transform="translate(13.196442571428571,3.660338238095238)"><path fill="rgb(0,0,0)" stroke="none" paint-order="stroke fill markers" d=" M 0.163 -0.457 L 0.28700000000000003 -0.377 Q 0.386 -0.435 0.386 -0.517 Q 0.386 -0.583 0.326 -0.62 Q 0.291 -0.641 0.249 -0.641 Q 0.177 -0.641 0.136 -0.596 L 0.136 -0.596 L 0.135 -0.595 Q 0.113 -0.5690000000000001 0.113 -0.538 Q 0.113 -0.49 0.163 -0.457 M 0.309 -0.362 L 0.309 -0.362 Q 0.386 -0.314 0.403 -0.296 Q 0.406 -0.294 0.40800000000000003 -0.291 Q 0.457 -0.23700000000000002 0.457 -0.168 Q 0.457 -0.079 0.383 -0.023 Q 0.325 0.022 0.249 0.022 Q 0.154 0.022 0.092 -0.037 Q 0.042 -0.085 0.042 -0.151 Q 0.042 -0.263 0.186 -0.335 Q 0.124 -0.377 0.113 -0.389 Q 0.069 -0.438 0.069 -0.499 Q 0.069 -0.579 0.136 -0.629 Q 0.186 -0.666 0.25 -0.666 Q 0.337 -0.666 0.391 -0.611 Q 0.43 -0.5710000000000001 0.43 -0.517 Q 0.43 -0.424 0.309 -0.362 M 0.209 -0.32 L 0.209 -0.32 Q 0.097 -0.25 0.092 -0.151 Q 0.092 -0.078 0.155 -0.035 Q 0.197 -0.006 0.25 -0.006 Q 0.328 -0.006 0.375 -0.055 Q 0.40700000000000003 -0.089 0.40700000000000003 -0.132 Q 0.40700000000000003 -0.19 0.343 -0.23500000000000001 Q 0.341 -0.23600000000000002 0.332 -0.242 L 0.209 -0.32 Z"/></g><g transform="translate(7.446431571428571,5.165892238095238)"><path fill="rgb(255,0,0)" stroke="none" paint-order="stroke fill markers" d=" M 0.367 -0.318 Q 0.327 -0.218 0.242 -0.218 Q 0.149 -0.218 0.09 -0.294 L 0.09 -0.295 Q 0.042 -0.357 0.042 -0.441 Q 0.042 -0.525 0.091 -0.586 L 0.106 -0.603 Q 0.166 -0.666 0.253 -0.666 Q 0.353 -0.666 0.40800000000000003 -0.5690000000000001 Q 0.457 -0.482 0.457 -0.329 Q 0.457 -0.158 0.365 -0.055 Q 0.296 0.022 0.20600000000000002 0.022 Q 0.108 0.022 0.077 -0.039 Q 0.067 -0.06 0.067 -0.08600000000000001 Q 0.067 -0.126 0.10400000000000001 -0.133 Q 0.109 -0.134 0.113 -0.134 Q 0.145 -0.134 0.156 -0.106 Q 0.159 -0.098 0.159 -0.088 Q 0.159 -0.048 0.11900000000000001 -0.043000000000000003 Q 0.113 -0.042 0.107 -0.042 Q 0.136 -0.006 0.20500000000000002 -0.006 Q 0.276 -0.006 0.321 -0.077 Q 0.367 -0.15 0.367 -0.28600000000000003 L 0.367 -0.318 M 0.243 -0.241 Q 0.321 -0.241 0.352 -0.333 Q 0.365 -0.374 0.365 -0.421 Q 0.365 -0.519 0.34900000000000003 -0.562 Q 0.323 -0.632 0.266 -0.64 Q 0.259 -0.641 0.253 -0.641 Q 0.187 -0.641 0.153 -0.578 Q 0.132 -0.541 0.132 -0.452 L 0.132 -0.44 Q 0.132 -0.341 0.15 -0.304 Q 0.181 -0.241 0.243 -0.241 Z"/></g><g transform="translate(8.946433571428571,5.165892238095238)"><path fill="rgb(0,0,0)" stroke="none" paint-order="stroke fill markers" d=" M 0.294 -0.64 L 0.294 -0.079 Q 0.294 -0.049 0.306 -0.041 Q 0.323 -0.031 0.387 -0.031 L 0.419 -0.031 L 0.419 0 Q 0.384 -0.003 0.257 -0.003 Q 0.13 -0.003 0.095 0 L 0.095 -0.031 L 0.127 -0.031 Q 0.20400000000000001 -0.031 0.215 -0.049 L 0.216 -0.05 Q 0.22 -0.058 0.22 -0.079 L 0.22 -0.597 Q 0.168 -0.5710000000000001 0.089 -0.5710000000000001 L 0.089 -0.602 Q 0.209 -0.602 0.271 -0.666 Q 0.29 -0.666 0.293 -0.659 L 0.293 -0.659 L 0.293 -0.658 Q 0.294 -0.655 0.294 -0.64 Z"/></g><g transform="translate(9.446435571428571,5.165892238095238)"><path fill="rgb(0,0,0)" stroke="none" paint-order="stroke fill markers" d=" M 0.46 -0.32 Q 0.46 -0.17400000000000002 0.423 -0.094 Q 0.364 0.018000000000000002 0.249 0.022 Q 0.158 0.022 0.10300000000000001 -0.05 Q 0.092 -0.063 0.084 -0.079 Q 0.039 -0.162 0.039 -0.32 Q 0.039 -0.467 0.076 -0.547 Q 0.126 -0.659 0.23800000000000002 -0.666 L 0.25 -0.666 Q 0.339 -0.666 0.395 -0.595 L 0.395 -0.594 Q 0.40900000000000003 -0.5760000000000001 0.42 -0.554 Q 0.46 -0.46900000000000003 0.46 -0.32 M 0.249 0 L 0.249 0 Q 0.312 0 0.34600000000000003 -0.061 Q 0.36 -0.088 0.366 -0.125 Q 0.377 -0.189 0.377 -0.332 Q 0.377 -0.47100000000000003 0.367 -0.527 Q 0.34900000000000003 -0.622 0.275 -0.641 Q 0.262 -0.644 0.249 -0.644 Q 0.179 -0.644 0.147 -0.5740000000000001 Q 0.136 -0.55 0.13 -0.516 Q 0.122 -0.462 0.122 -0.332 Q 0.122 -0.181 0.133 -0.121 Q 0.151 -0.025 0.221 -0.004 Q 0.23500000000000001 0 0.249 0 Z"/></g><g transform="translate(10.946437571428572,5.165892238095238)"><path fill="rgb(0,0,0)" stroke="none" paint-order="stroke fill markers" d=" M 0.294 -0.64 L 0.294 -0.079 Q 0.294 -0.049 0.306 -0.041 Q 0.323 -0.031 0.387 -0.031 L 0.419 -0.031 L 0.419 0 Q 0.384 -0.003 0.257 -0.003 Q 0.13 -0.003 0.095 0 L 0.095 -0.031 L 0.127 -0.031 Q 0.20400000000000001 -0.031 0.215 -0.049 L 0.216 -0.05 Q 0.22 -0.058 0.22 -0.079 L 0.22 -0.597 Q 0.168 -0.5710000000000001 0.089 -0.5710000000000001 L 0.089 -0.602 Q 0.209 -0.602 0.271 -0.666 Q 0.29 -0.666 0.293 -0.659 L 0.293 -0.659 L 0.293 -0.658 Q 0.294 -0.655 0.294 -0.64 Z"/></g><g transform="translate(11.446439571428572,5.165892238095238)"><path fill="rgb(0,0,0)" stroke="none" paint-order="stroke fill markers" d=" M 0.294 -0.64 L 0.294 -0.079 Q 0.294 -0.049 0.306 -0.041 Q 0.323 -0.031 0.387 -0.031 L 0.419 -0.031 L 0.419 0 Q 0.384 -0.003 0.257 -0.003 Q 0.13 -0.003 0.095 0 L 0.095 -0.031 L 0.127 -0.031 Q 0.20400000000000001 -0.031 0.215 -0.049 L 0.216 -0.05 Q 0.22 -0.058 0.22 -0.079 L 0.22 -0.597 Q 0.168 -0.5710000000000001 0.089 -0.5710000000000001 L 0.089 -0.602 Q 0.209 -0.602 0.271 -0.666 Q 0.29 -0.666 0.293 -0.659 L 0.293 -0.659 L 0.293 -0.658 Q 0.294 -0.655 0.294 -0.64 Z"/></g><g transform="translate(12.946441571428572,5.165892238095238)"><path fill="rgb(255,0,0)" stroke="none" paint-order="stroke fill markers" d=" M 0.294 -0.64 L 0.294 -0.079 Q 0.294 -0.049 0.306 -0.041 Q 0.323 -0.031 0.387 -0.031 L 0.419 -0.031 L 0.419 0 Q 0.384 -0.003 0.257 -0.003 Q 0.13 -0.003 0.095 0 L 0.095 -0.031 L 0.127 -0.031 Q 0.20400000000000001 -0.031 0.215 -0.049 L 0.216 -0.05 Q 0.22 -0.058 0.22 -0.079 L 0.22 -0.597 Q 0.168 -0.5710000000000001 0.089 -0.5710000000000001 L 0.089 -0.602 Q 0.209 -0.602 0.271 -0.666 Q 0.29 -0.666 0.293 -0.659 L 0.293 -0.659 L 0.293 -0.658 Q 0.294 -0.655 0.294 -0.64 Z"/></g><g transform="translate(13.446443571428572,5.165892238095238)"><path fill="rgb(255,0,0)" stroke="none" paint-order="stroke fill markers" d=" M 0.449 -0.17400000000000002 L 0.449 -0.17400000000000002 L 0.421 0 L 0.05 0 Q 0.05 -0.025 0.056 -0.032 L 0.061 -0.037 L 0.253 -0.251 Q 0.358 -0.369 0.358 -0.47200000000000003 Q 0.358 -0.561 0.304 -0.607 L 0.303 -0.608 L 0.302 -0.608 Q 0.27 -0.635 0.224 -0.635 Q 0.152 -0.635 0.109 -0.5730000000000001 Q 0.097 -0.555 0.089 -0.533 Q 0.092 -0.534 0.10200000000000001 -0.534 Q 0.14200000000000002 -0.534 0.153 -0.498 L 0.153 -0.497 Q 0.155 -0.49 0.155 -0.482 Q 0.155 -0.442 0.117 -0.431 Q 0.109 -0.429 0.10300000000000001 -0.429 Q 0.066 -0.429 0.054 -0.46 Q 0.05 -0.47100000000000003 0.05 -0.485 Q 0.05 -0.562 0.109 -0.617 Q 0.162 -0.666 0.23700000000000002 -0.666 Q 0.34700000000000003 -0.666 0.40800000000000003 -0.592 Q 0.443 -0.549 0.448 -0.49 Q 0.449 -0.481 0.449 -0.47200000000000003 Q 0.449 -0.399 0.394 -0.333 Q 0.365 -0.299 0.304 -0.243 L 0.243 -0.189 L 0.233 -0.18 L 0.127 -0.077 L 0.307 -0.077 Q 0.395 -0.077 0.402 -0.085 Q 0.41200000000000003 -0.099 0.424 -0.17400000000000002 L 0.449 -0.17400000000000002 Z"/></g><g transform="translate(13.946445571428569,1.278094238095238)"><path fill="rgb(0,0,0)" stroke="none" paint-order="stroke fill markers" d=" M 0.4677734375 1.76123046875 Q 0.4677734375 1.49609375 0.451171875 1.268798828125 Q 0.4345703125 1.04150390625 0.388427734375 0.814208984375 Q 0.34228515625 0.5869140625 0.25537109375 0.373779296875 Q 0.16845703125 0.16064453125 0.033203125 -0.02392578125 Q 0.03076171875 -0.0263671875 0.03076171875 -0.02978515625 Q 0.03076171875 -0.0390625 0.0400390625 -0.0390625 L 0.07080078125 -0.0390625 Q 0.07421875 -0.0390625 0.0771484375 -0.0361328125 Q 0.228515625 0.1435546875 0.328369140625 0.3564453125 Q 0.42822265625 0.5693359375 0.483642578125 0.799560546875 Q 0.5390625 1.02978515625 0.56103515625 1.264404296875 Q 0.5830078125 1.4990234375 0.5830078125 1.7587890625 Q 0.5830078125 1.77001953125 0.5751953125 1.77001953125 L 0.47705078125 1.77001953125 Q 0.4677734375 1.77001953125 0.4677734375 1.76123046875 Z"/></g><g transform="translate(13.946445571428569,3.038113238095238)"><path fill="rgb(0,0,0)" stroke="none" paint-order="stroke fill markers" d=" M 0.4677734375 0.60107421875 L 0.4677734375 -0.0009765625 Q 0.4677734375 -0.00439453125 0.47021484375 -0.007080078125 Q 0.47265625 -0.009765625 0.47705078125 -0.009765625 L 0.5751953125 -0.009765625 Q 0.578125 -0.009765625 0.58056640625 -0.007080078125 Q 0.5830078125 -0.00439453125 0.5830078125 -0.0009765625 L 0.5830078125 0.60107421875 Q 0.5830078125 0.603515625 0.580322265625 0.606689453125 Q 0.57763671875 0.60986328125 0.5751953125 0.60986328125 L 0.47705078125 0.60986328125 Q 0.4677734375 0.60986328125 0.4677734375 0.60107421875 Z"/></g><g transform="translate(13.946445571428569,3.6781182380952377)"><path fill="rgb(0,0,0)" stroke="none" paint-order="stroke fill markers" d=" M 0.0400390625 1.7587890625 Q 0.03076171875 1.7587890625 0.03076171875 1.75 Q 0.03076171875 1.74658203125 0.033203125 1.744140625 Q 0.16845703125 1.55859375 0.25537109375 1.345458984375 Q 0.34228515625 1.13232421875 0.388427734375 0.9052734375 Q 0.4345703125 0.67822265625 0.451171875 0.450927734375 Q 0.4677734375 0.2236328125 0.4677734375 -0.041015625 Q 0.4677734375 -0.04443359375 0.47021484375 -0.047119140625 Q 0.47265625 -0.0498046875 0.47705078125 -0.0498046875 L 0.5751953125 -0.0498046875 Q 0.57861328125 -0.0498046875 0.580810546875 -0.046875 Q 0.5830078125 -0.0439453125 0.5830078125 -0.0390625 Q 0.5830078125 0.220703125 0.56103515625 0.455322265625 Q 0.5390625 0.68994140625 0.483642578125 0.919921875 Q 0.42822265625 1.14990234375 0.328125 1.36328125 Q 0.22802734375 1.57666015625 0.0771484375 1.755859375 Q 0.07421875 1.7587890625 0.07080078125 1.7587890625 L 0.0400390625 1.7587890625 Z"/></g></g></g></g></svg>