<svg version="1.1" xmlns="http://www.w3.org/2000/svg" xmlns:xlink="http://www.w3.org/1999/xlink" width="1132" height="325"><defs><clipPath id="vefXtqSpyabT"><path fill="none" stroke="none" d=" M 0 0 L 1132 0 L 1132 325 L 0 325 L 0 0 Z"/></clipPath></defs><g transform="scale(1,1)" clip-path="url(#vefXtqSpyabT)"><g><path fill="none" stroke="rgb(192,192,192)" paint-order="fill stroke markers" d=" M 455.003138162358 227.96962650755026 L 495.05234168311836 268.01883002831084" stroke-opacity="1" stroke-linecap="round" stroke-linejoin="round" stroke-miterlimit="10"/><path fill="none" stroke="rgb(192,192,192)" paint-order="fill stroke markers" d=" M 455.003138162358 171.88185632565066 L 551.1401118650176 268.01883002831084" stroke-opacity="1" stroke-linecap="round" stroke-linejoin="round" stroke-miterlimit="10"/><path fill="none" stroke="rgb(192,192,192)" paint-order="fill stroke markers" d=" M 455.003138162358 115.7940861437511 L 607.2278820469168 268.01883002831084" stroke-opacity="1" stroke-linecap="round" stroke-linejoin="round" stroke-miterlimit="10"/><path fill="none" stroke="rgb(192,192,192)" paint-order="fill stroke markers" d=" M 455.003138162358 59.7063159618515 L 663.3156522288159 268.01883002831084" stroke-opacity="1" stroke-linecap="round" stroke-linejoin="round" stroke-miterlimit="10"/><path fill="none" stroke="rgb(192,192,192)" paint-order="fill stroke markers" d=" M 455.003138162358 3.6185457799519725 L 719.4034224107152 268.01883002831084" stroke-opacity="1" stroke-linecap="round" stroke-linejoin="round" stroke-miterlimit="10"/><path fill="none" stroke="rgb(192,192,192)" paint-order="fill stroke markers" d=" M 46.504698998646376 268.01883002831084 L 310.90498324700343 268.01883002831084" stroke-opacity="1" stroke-linecap="round" stroke-linejoin="round" stroke-miterlimit="10"/><path fill="none" stroke="rgb(192,192,192)" paint-order="fill stroke markers" d=" M 46.504698998646376 201.9187589662211 L 310.90498324700343 201.9187589662211" stroke-opacity="1" stroke-linecap="round" stroke-linejoin="round" stroke-miterlimit="10"/><path fill="none" stroke="rgb(192,192,192)" paint-order="fill stroke markers" d=" M 46.504698998646376 135.81868790413137 L 310.90498324700343 135.81868790413137" stroke-opacity="1" stroke-linecap="round" stroke-linejoin="round" stroke-miterlimit="10"/><path fill="none" stroke="rgb(192,192,192)" paint-order="fill stroke markers" d=" M 46.504698998646376 69.71861684204164 L 310.90498324700343 69.71861684204164" stroke-opacity="1" stroke-linecap="round" stroke-linejoin="round" stroke-miterlimit="10"/><path fill="none" stroke="rgb(192,192,192)" paint-order="fill stroke markers" d=" M 46.504698998646376 3.6185457799519156 L 310.90498324700343 3.6185457799519156" stroke-opacity="1" stroke-linecap="round" stroke-linejoin="round" stroke-miterlimit="10"/><path fill="none" stroke="rgb(192,192,192)" paint-order="fill stroke markers" d=" M 46.504698998646376 135.81868790413137 L 46.636899140770566 268.01883002831084" stroke-opacity="1" stroke-linecap="round" stroke-linejoin="round" stroke-miterlimit="10"/><path fill="none" stroke="rgb(192,192,192)" paint-order="fill stroke markers" d=" M 79.6869346718152 268.01883002831084 L 79.42253438756683 3.6185457799519156" stroke-opacity="1" stroke-linecap="round" stroke-linejoin="round" stroke-miterlimit="10"/><path fill="none" stroke="rgb(192,192,192)" paint-order="fill stroke markers" d=" M 112.73697020285982 268.01883002831084 L 112.47256991861147 3.6185457799519156" stroke-opacity="1" stroke-linecap="round" stroke-linejoin="round" stroke-miterlimit="10"/><path fill="none" stroke="rgb(192,192,192)" paint-order="fill stroke markers" d=" M 145.78700573390446 268.01883002831084 L 145.5226054496561 3.6185457799519156" stroke-opacity="1" stroke-linecap="round" stroke-linejoin="round" stroke-miterlimit="10"/><path fill="none" stroke="rgb(192,192,192)" paint-order="fill stroke markers" d=" M 178.8370412649491 268.01883002831084 L 178.57264098070073 3.6185457799519156" stroke-opacity="1" stroke-linecap="round" stroke-linejoin="round" stroke-miterlimit="10"/><path fill="none" stroke="rgb(192,192,192)" paint-order="fill stroke markers" d=" M 211.88707679599372 268.01883002831084 L 211.62267651174537 3.6185457799519156" stroke-opacity="1" stroke-linecap="round" stroke-linejoin="round" stroke-miterlimit="10"/><path fill="none" stroke="rgb(192,192,192)" paint-order="fill stroke markers" d=" M 244.93711232703836 268.01883002831084 L 244.67271204279 3.6185457799519156" stroke-opacity="1" stroke-linecap="round" stroke-linejoin="round" stroke-miterlimit="10"/><path fill="none" stroke="rgb(192,192,192)" paint-order="fill stroke markers" d=" M 277.987147858083 268.01883002831084 L 277.7227475738346 3.6185457799519156" stroke-opacity="1" stroke-linecap="round" stroke-linejoin="round" stroke-miterlimit="10"/><path fill="none" stroke="rgb(192,192,192)" paint-order="fill stroke markers" d=" M 310.90498324700343 135.81868790413137 L 310.7727831048793 3.6185457799519156" stroke-opacity="1" stroke-linecap="round" stroke-linejoin="round" stroke-miterlimit="10"/><path fill="none" stroke="rgb(192,192,192)" paint-order="fill stroke markers" d=" M 455.003138162358 3.6185457799519725 L 719.4034224107152 268.01883002831084" stroke-opacity="1" stroke-linecap="round" stroke-linejoin="round" stroke-miterlimit="10"/><path fill="none" stroke="rgb(192,192,192)" paint-order="fill stroke markers" d=" M 863.5015773260698 247.9942282679305 L 1127.901861574427 247.9942282679305" stroke-opacity="1" stroke-linecap="round" stroke-linejoin="round" stroke-miterlimit="10"/><path fill="none" stroke="rgb(192,192,192)" paint-order="fill stroke markers" d=" M 863.5015773260698 219.9503431769807 L 1127.901861574427 219.9503431769807" stroke-opacity="1" stroke-linecap="round" stroke-linejoin="round" stroke-miterlimit="10"/><path fill="none" stroke="rgb(192,192,192)" paint-order="fill stroke markers" d=" M 863.5015773260698 191.90645808603094 L 1127.901861574427 191.90645808603094" stroke-opacity="1" stroke-linecap="round" stroke-linejoin="round" stroke-miterlimit="10"/><path fill="none" stroke="rgb(192,192,192)" paint-order="fill stroke markers" d=" M 863.5015773260698 163.86257299508117 L 1127.901861574427 163.86257299508117" stroke-opacity="1" stroke-linecap="round" stroke-linejoin="round" stroke-miterlimit="10"/><path fill="none" stroke="rgb(192,192,192)" paint-order="fill stroke markers" d=" M 863.5015773260698 135.81868790413137 L 1127.901861574427 135.81868790413137" stroke-opacity="1" stroke-linecap="round" stroke-linejoin="round" stroke-miterlimit="10"/><path fill="none" stroke="rgb(192,192,192)" paint-order="fill stroke markers" d=" M 863.5015773260698 107.77480281318158 L 1127.901861574427 107.77480281318158" stroke-opacity="1" stroke-linecap="round" stroke-linejoin="round" stroke-miterlimit="10"/><path fill="none" stroke="rgb(192,192,192)" paint-order="fill stroke markers" d=" M 863.5015773260698 79.7309177222318 L 1127.901861574427 79.7309177222318" stroke-opacity="1" stroke-linecap="round" stroke-linejoin="round" stroke-miterlimit="10"/><path fill="none" stroke="rgb(192,192,192)" paint-order="fill stroke markers" d=" M 863.5015773260698 51.68703263128201 L 1127.901861574427 51.68703263128201" stroke-opacity="1" stroke-linecap="round" stroke-linejoin="round" stroke-miterlimit="10"/><path fill="none" stroke="rgb(192,192,192)" paint-order="fill stroke markers" d=" M 863.5015773260698 23.643147540332208 L 1127.901861574427 23.643147540332208" stroke-opacity="1" stroke-linecap="round" stroke-linejoin="round" stroke-miterlimit="10"/><path fill="none" stroke="rgb(192,192,192)" paint-order="fill stroke markers" d=" M 455.003138162358 3.6185457799519725 L 455.00313816235797 3.6185457799519156" stroke-opacity="1" stroke-linecap="round" stroke-linejoin="round" stroke-miterlimit="10"/><path fill="none" stroke="rgb(192,192,192)" paint-order="fill stroke markers" d=" M 719.4034224107152 268.01883002831084 L 719.4034224107152 268.01883002831084" stroke-opacity="1" stroke-linecap="round" stroke-linejoin="round" stroke-miterlimit="10"/><path fill="none" stroke="rgb(192,192,192)" paint-order="fill stroke markers" d=" M 719.4034224107152 268.01883002831084 L 455.00313816235797 3.6185457799519156" stroke-opacity="1" stroke-linecap="round" stroke-linejoin="round" stroke-miterlimit="10"/><path fill="none" stroke="rgb(192,192,192)" paint-order="fill stroke markers" d=" M 719.4034224107152 268.01883002831084 L 455.00313816235797 3.6185457799519156" stroke-opacity="1" stroke-linecap="round" stroke-linejoin="round" stroke-miterlimit="10"/><path fill="none" stroke="rgb(192,192,192)" paint-order="fill stroke markers" d=" M 719.4034224107152 211.93105984641124 L 511.0909083442572 3.6185457799519156" stroke-opacity="1" stroke-linecap="round" stroke-linejoin="round" stroke-miterlimit="10"/><path fill="none" stroke="rgb(192,192,192)" paint-order="fill stroke markers" d=" M 719.4034224107152 155.84328966451164 L 567.1786785261563 3.6185457799519156" stroke-opacity="1" stroke-linecap="round" stroke-linejoin="round" stroke-miterlimit="10"/><path fill="none" stroke="rgb(192,192,192)" paint-order="fill stroke markers" d=" M 719.4034224107152 99.75551948261204 L 623.2664487080557 3.6185457799519156" stroke-opacity="1" stroke-linecap="round" stroke-linejoin="round" stroke-miterlimit="10"/><path fill="none" stroke="rgb(192,192,192)" paint-order="fill stroke markers" d=" M 719.4034224107152 43.667749300712444 L 679.3542188899548 3.6185457799519156" stroke-opacity="1" stroke-linecap="round" stroke-linejoin="round" stroke-miterlimit="10"/><path fill="none" stroke="rgb(192,192,192)" paint-order="fill stroke markers" d=" M 455.003138162358 268.01883002831073 L 455.00313816235797 268.01883002831084" stroke-opacity="1" stroke-linecap="round" stroke-linejoin="round" stroke-miterlimit="10"/><path fill="none" stroke="rgb(192,192,192)" paint-order="fill stroke markers" d=" M 863.5015773260698 241.57880160347491 L 889.9416057509054 268.01883002831084" stroke-opacity="1" stroke-linecap="round" stroke-linejoin="round" stroke-miterlimit="10"/><path fill="none" stroke="rgb(192,192,192)" paint-order="fill stroke markers" d=" M 863.5015773260698 201.9187589662211 L 929.6016483881588 268.01883002831084" stroke-opacity="1" stroke-linecap="round" stroke-linejoin="round" stroke-miterlimit="10"/><path fill="none" stroke="rgb(192,192,192)" paint-order="fill stroke markers" d=" M 863.5015773260698 162.25871632896715 L 969.2616910254123 268.01883002831084" stroke-opacity="1" stroke-linecap="round" stroke-linejoin="round" stroke-miterlimit="10"/><path fill="none" stroke="rgb(192,192,192)" paint-order="fill stroke markers" d=" M 863.5015773260698 122.59867369171323 L 1008.9217336626659 268.01883002831084" stroke-opacity="1" stroke-linecap="round" stroke-linejoin="round" stroke-miterlimit="10"/><path fill="none" stroke="rgb(192,192,192)" paint-order="fill stroke markers" d=" M 863.5015773260698 82.93863105445942 L 1048.5817762999195 268.01883002831084" stroke-opacity="1" stroke-linecap="round" stroke-linejoin="round" stroke-miterlimit="10"/><path fill="none" stroke="rgb(192,192,192)" paint-order="fill stroke markers" d=" M 863.5015773260698 43.2785884172055 L 1088.241818937173 268.01883002831084" stroke-opacity="1" stroke-linecap="round" stroke-linejoin="round" stroke-miterlimit="10"/><path fill="none" stroke="rgb(192,192,192)" paint-order="fill stroke markers" d=" M 863.5015773260698 3.6185457799516882 L 1127.9018615744267 268.01883002831084" stroke-opacity="1" stroke-linecap="round" stroke-linejoin="round" stroke-miterlimit="10"/><path fill="none" stroke="rgb(192,192,192)" paint-order="fill stroke markers" d=" M 455.003138162358 268.01883002831073 L 719.4034224107152 3.6185457799519156" stroke-opacity="1" stroke-linecap="round" stroke-linejoin="round" stroke-miterlimit="10"/><path fill="none" stroke="rgb(192,192,192)" paint-order="fill stroke markers" d=" M 863.5015773260698 3.6185457799516882 L 1127.901861574427 268.0188300283111" stroke-opacity="1" stroke-linecap="round" stroke-linejoin="round" stroke-miterlimit="10"/><path fill="none" stroke="rgb(192,192,192)" paint-order="fill stroke markers" d=" M 455.003138162358 268.01883002831073 L 719.4034224107152 3.6185457799519156" stroke-opacity="1" stroke-linecap="round" stroke-linejoin="round" stroke-miterlimit="10"/><path fill="none" stroke="rgb(192,192,192)" paint-order="fill stroke markers" d=" M 455.003138162358 211.93105984641124 L 663.3156522288159 3.6185457799519156" stroke-opacity="1" stroke-linecap="round" stroke-linejoin="round" stroke-miterlimit="10"/><path fill="none" stroke="rgb(192,192,192)" paint-order="fill stroke markers" d=" M 455.003138162358 155.84328966451164 L 607.2278820469168 3.6185457799519156" stroke-opacity="1" stroke-linecap="round" stroke-linejoin="round" stroke-miterlimit="10"/><path fill="none" stroke="rgb(192,192,192)" paint-order="fill stroke markers" d=" M 455.003138162358 99.75551948261207 L 551.1401118650176 3.6185457799519156" stroke-opacity="1" stroke-linecap="round" stroke-linejoin="round" stroke-miterlimit="10"/><path fill="none" stroke="rgb(192,192,192)" paint-order="fill stroke markers" d=" M 455.003138162358 43.66774930071247 L 495.05234168311836 3.6185457799519156" stroke-opacity="1" stroke-linecap="round" stroke-linejoin="round" stroke-miterlimit="10"/><path fill="none" stroke="rgb(192,192,192)" paint-order="fill stroke markers" d=" M 863.5015773260698 3.6185457799516882 L 863.50157732607 3.6185457799519156" stroke-opacity="1" stroke-linecap="round" stroke-linejoin="round" stroke-miterlimit="10"/><path fill="none" stroke="rgb(192,192,192)" paint-order="fill stroke markers" d=" M 679.3542188899548 268.01883002831084 L 719.4034224107152 227.9696265075503" stroke-opacity="1" stroke-linecap="round" stroke-linejoin="round" stroke-miterlimit="10"/><path fill="none" stroke="rgb(192,192,192)" paint-order="fill stroke markers" d=" M 623.2664487080557 268.01883002831084 L 719.4034224107152 171.8818563256507" stroke-opacity="1" stroke-linecap="round" stroke-linejoin="round" stroke-miterlimit="10"/><path fill="none" stroke="rgb(192,192,192)" paint-order="fill stroke markers" d=" M 567.1786785261563 268.01883002831084 L 719.4034224107152 115.7940861437511" stroke-opacity="1" stroke-linecap="round" stroke-linejoin="round" stroke-miterlimit="10"/><path fill="none" stroke="rgb(192,192,192)" paint-order="fill stroke markers" d=" M 511.0909083442572 268.01883002831084 L 719.4034224107152 59.7063159618515" stroke-opacity="1" stroke-linecap="round" stroke-linejoin="round" stroke-miterlimit="10"/><path fill="none" stroke="rgb(192,192,192)" paint-order="fill stroke markers" d=" M 455.00313816235797 268.01883002831084 L 719.4034224107152 3.6185457799519156" stroke-opacity="1" stroke-linecap="round" stroke-linejoin="round" stroke-miterlimit="10"/><path fill="none" stroke="rgb(192,192,192)" paint-order="fill stroke markers" d=" M 1127.9018615744267 268.01883002831084 L 1127.901861574427 268.0188300283111" stroke-opacity="1" stroke-linecap="round" stroke-linejoin="round" stroke-miterlimit="10"/><path fill="none" stroke="rgb(192,192,192)" paint-order="fill stroke markers" d=" M 455.00313816235797 268.01883002831084 L 719.4034224107152 3.6185457799519156" stroke-opacity="1" stroke-linecap="round" stroke-linejoin="round" stroke-miterlimit="10"/><path fill="none" stroke="rgb(192,192,192)" paint-order="fill stroke markers" d=" M 1127.9018615744267 268.01883002831084 L 863.50157732607 3.6185457799519156" stroke-opacity="1" stroke-linecap="round" stroke-linejoin="round" stroke-miterlimit="10"/><path fill="none" stroke="rgb(192,192,192)" paint-order="fill stroke markers" d=" M 719.4034224107152 3.6185457799519156 L 719.4034224107152 3.6185457799519156" stroke-opacity="1" stroke-linecap="round" stroke-linejoin="round" stroke-miterlimit="10"/><path fill="none" stroke="rgb(192,192,192)" paint-order="fill stroke markers" d=" M 1127.901861574427 268.0188300283111 L 863.50157732607 3.6185457799519156" stroke-opacity="1" stroke-linecap="round" stroke-linejoin="round" stroke-miterlimit="10"/><path fill="none" stroke="rgb(192,192,192)" paint-order="fill stroke markers" d=" M 1127.901861574427 228.35878739105712 L 903.1616199633236 3.6185457799519156" stroke-opacity="1" stroke-linecap="round" stroke-linejoin="round" stroke-miterlimit="10"/><path fill="none" stroke="rgb(192,192,192)" paint-order="fill stroke markers" d=" M 1127.901861574427 188.6987447538032 L 942.8216626005769 3.6185457799519156" stroke-opacity="1" stroke-linecap="round" stroke-linejoin="round" stroke-miterlimit="10"/><path fill="none" stroke="rgb(192,192,192)" paint-order="fill stroke markers" d=" M 1127.901861574427 149.0387021165494 L 982.4817052378305 3.6185457799519156" stroke-opacity="1" stroke-linecap="round" stroke-linejoin="round" stroke-miterlimit="10"/><path fill="none" stroke="rgb(192,192,192)" paint-order="fill stroke markers" d=" M 1127.901861574427 109.37865947929545 L 1022.1417478750841 3.6185457799519156" stroke-opacity="1" stroke-linecap="round" stroke-linejoin="round" stroke-miterlimit="10"/><path fill="none" stroke="rgb(192,192,192)" paint-order="fill stroke markers" d=" M 1127.901861574427 69.71861684204164 L 1061.8017905123377 3.6185457799519156" stroke-opacity="1" stroke-linecap="round" stroke-linejoin="round" stroke-miterlimit="10"/><path fill="none" stroke="rgb(192,192,192)" paint-order="fill stroke markers" d=" M 1127.901861574427 30.058574204787718 L 1101.4618331495913 3.6185457799519156" stroke-opacity="1" stroke-linecap="round" stroke-linejoin="round" stroke-miterlimit="10"/><path fill="rgb(0,100,0)" stroke="none" paint-order="stroke fill markers" fill-rule="evenodd" d=" M 178.70484112282492 135.81868790413137 L 192.84697674655493 135.81868790413137 L 192.84697674655587 121.67655228040032 L 178.70484112282492 121.67655228040127 L 178.70484112282492 135.81868790413137" fill-opacity="0.09803921568627451"/><path fill="none" stroke="rgb(0,100,0)" paint-order="fill stroke markers" d=" M 178.70484112282492 135.81868790413137 L 192.84697674655493 135.81868790413137 L 192.84697674655587 121.67655228040032 L 178.70484112282492 121.67655228040127 L 178.70484112282492 135.81868790413137" stroke-opacity="0.6980392156862745" stroke-linecap="round" stroke-linejoin="round" stroke-miterlimit="10" stroke-width="2.5"/><path fill="rgb(0,100,0)" stroke="none" paint-order="stroke fill markers" fill-rule="evenodd" d=" M 587.2032802865366 135.81868790413137 L 597.2032802865359 125.81868790413196 L 587.2032802865366 115.81868790413122 L 577.2032802865373 125.81868790413196 L 587.2032802865366 135.81868790413137" fill-opacity="0.09803921568627451"/><path fill="none" stroke="rgb(0,100,0)" paint-order="fill stroke markers" d=" M 587.2032802865366 135.81868790413137 L 597.2032802865359 125.81868790413196 L 587.2032802865366 115.81868790413122 L 577.2032802865373 125.81868790413196 L 587.2032802865366 135.81868790413137" stroke-opacity="0.6980392156862745" stroke-linecap="round" stroke-linejoin="round" stroke-miterlimit="10" stroke-width="2.5"/><path fill="rgb(0,100,0)" stroke="none" paint-order="stroke fill markers" d=" M 1010.7017194502482 135.81868790413137 C 1010.7017194502482 129.75175423198448 1007.0470867805248 124.28220991805048 1001.4419709357246 121.96049491646197 C 995.8368550909245 119.63877991487347 989.3850876730341 120.92211624574901 985.09511773245 125.21208618633307 L 995.7017194502482 135.81868790413137 Z" fill-opacity="0.09803921568627451"/><path fill="none" stroke="rgb(0,100,0)" paint-order="fill stroke markers" d=" M 1010.7017194502482 135.81868790413137 C 1010.7017194502482 129.75175423198448 1007.0470867805248 124.28220991805048 1001.4419709357246 121.96049491646197 C 995.8368550909245 119.63877991487347 989.3850876730341 120.92211624574901 985.09511773245 125.21208618633307 L 995.7017194502482 135.81868790413137 Z" stroke-opacity="0.6980392156862745" stroke-linecap="round" stroke-linejoin="round" stroke-miterlimit="10" stroke-width="2.5"/><path fill="none" stroke="rgb(0,0,0)" paint-order="fill stroke markers" d=" M 46.504698998646376 3.6185457799519156 L 46.504698998646376 268.01883002831084" stroke-opacity="0.6980392156862745" stroke-linecap="round" stroke-linejoin="round" stroke-miterlimit="10" stroke-width="2.5"/><path fill="none" stroke="rgb(0,0,0)" paint-order="fill stroke markers" d=" M 46.504698998646376 268.01883002831084 L 310.90498324700343 268.01883002831084" stroke-opacity="0.6980392156862745" stroke-linecap="round" stroke-linejoin="round" stroke-miterlimit="10" stroke-width="2.5"/><path fill="none" stroke="rgb(0,0,0)" paint-order="fill stroke markers" d=" M 310.90498324700343 268.01883002831084 L 310.90498324700343 3.6185457799519156" stroke-opacity="0.6980392156862745" stroke-linecap="round" stroke-linejoin="round" stroke-miterlimit="10" stroke-width="2.5"/><path fill="none" stroke="rgb(0,0,0)" paint-order="fill stroke markers" d=" M 310.90498324700343 3.6185457799519156 L 46.504698998646376 3.6185457799519156" stroke-opacity="0.6980392156862745" stroke-linecap="round" stroke-linejoin="round" stroke-miterlimit="10" stroke-width="2.5"/><path fill="none" stroke="rgb(0,0,0)" paint-order="fill stroke markers" d=" M 455.003138162358 3.6185457799519156 L 455.003138162358 268.01883002831084" stroke-opacity="0.6980392156862745" stroke-linecap="round" stroke-linejoin="round" stroke-miterlimit="10" stroke-width="2.5"/><path fill="none" stroke="rgb(0,0,0)" paint-order="fill stroke markers" d=" M 455.003138162358 268.01883002831084 L 719.4034224107152 268.01883002831084" stroke-opacity="0.6980392156862745" stroke-linecap="round" stroke-linejoin="round" stroke-miterlimit="10" stroke-width="2.5"/><path fill="none" stroke="rgb(0,0,0)" paint-order="fill stroke markers" d=" M 719.4034224107152 268.01883002831084 L 719.4034224107152 3.6185457799519156" stroke-opacity="0.6980392156862745" stroke-linecap="round" stroke-linejoin="round" stroke-miterlimit="10" stroke-width="2.5"/><path fill="none" stroke="rgb(0,0,0)" paint-order="fill stroke markers" d=" M 719.4034224107152 3.6185457799519156 L 455.003138162358 3.6185457799519156" stroke-opacity="0.6980392156862745" stroke-linecap="round" stroke-linejoin="round" stroke-miterlimit="10" stroke-width="2.5"/><path fill="none" stroke="rgb(0,0,0)" paint-order="fill stroke markers" d=" M 863.5015773260698 3.6185457799519156 L 863.5015773260698 268.01883002831084" stroke-opacity="0.6980392156862745" stroke-linecap="round" stroke-linejoin="round" stroke-miterlimit="10" stroke-width="2.5"/><path fill="none" stroke="rgb(0,0,0)" paint-order="fill stroke markers" d=" M 863.5015773260698 268.01883002831084 L 1127.901861574427 268.01883002831084" stroke-opacity="0.6980392156862745" stroke-linecap="round" stroke-linejoin="round" stroke-miterlimit="10" stroke-width="2.5"/><path fill="none" stroke="rgb(0,0,0)" paint-order="fill stroke markers" d=" M 1127.901861574427 268.01883002831084 L 1127.901861574427 3.6185457799519156" stroke-opacity="0.6980392156862745" stroke-linecap="round" stroke-linejoin="round" stroke-miterlimit="10" stroke-width="2.5"/><path fill="none" stroke="rgb(0,0,0)" paint-order="fill stroke markers" d=" M 1127.901861574427 3.6185457799519156 L 863.5015773260698 3.6185457799519156" stroke-opacity="0.6980392156862745" stroke-linecap="round" stroke-linejoin="round" stroke-miterlimit="10" stroke-width="2.5"/><path fill="none" stroke="rgb(0,0,0)" paint-order="fill stroke markers" d=" M 178.70484112282492 135.81868790413137 L 192.75487665386956 135.81868790413137" stroke-opacity="0.6980392156862745" stroke-linecap="round" stroke-linejoin="round" stroke-miterlimit="10" stroke-width="3.5"/><path fill="rgb(0,0,0)" stroke="none" paint-order="stroke fill markers" fill-rule="evenodd" d=" M 211.75487665386956 135.81868790413137 L 192.75487665386956 140.56868790413137 L 192.75487665386956 131.06868790413137 Z" fill-opacity="0.6980392156862745"/><path fill="none" stroke="rgb(0,0,0)" paint-order="fill stroke markers" d=" M 587.2032802865366 135.81868790413137 L 572.5944240381314 121.20983165572602" stroke-opacity="0.6980392156862745" stroke-linecap="round" stroke-linejoin="round" stroke-miterlimit="10" stroke-width="3.5"/><path fill="rgb(0,0,0)" stroke="none" paint-order="stroke fill markers" fill-rule="evenodd" d=" M 559.159395195587 107.77480281318158 L 575.9531812487675 117.85107444508994 L 569.2356668274953 124.5685888663621 Z" fill-opacity="0.6980392156862745"/><path fill="none" stroke="rgb(0,0,0)" paint-order="fill stroke markers" d=" M 995.7017194502482 135.81868790413137 L 1016.3617620875018 135.81868790413137" stroke-opacity="0.6980392156862745" stroke-linecap="round" stroke-linejoin="round" stroke-miterlimit="10" stroke-width="3.5"/><path fill="rgb(0,0,0)" stroke="none" paint-order="stroke fill markers" fill-rule="evenodd" d=" M 1035.3617620875018 135.81868790413137 L 1016.3617620875018 140.56868790413137 L 1016.3617620875018 131.06868790413137 Z" fill-opacity="0.6980392156862745"/><path fill="none" stroke="rgb(0,0,0)" paint-order="fill stroke markers" d=" M 995.7017194502482 135.81868790413137 L 981.092863201843 121.20983165572605" stroke-opacity="0.6980392156862745" stroke-linecap="round" stroke-linejoin="round" stroke-miterlimit="10" stroke-width="3.5"/><path fill="rgb(0,0,0)" stroke="none" paint-order="stroke fill markers" fill-rule="evenodd" d=" M 967.6578343592987 107.77480281318158 L 984.4516204124791 117.85107444508996 L 977.7341059912069 124.56858886636213 Z" fill-opacity="0.6980392156862745"/><path fill="none" stroke="rgb(0,0,0)" paint-order="fill stroke markers" d=" M 587.2032802865366 135.81868790413137 L 601.8121365349418 121.20983165572602" stroke-opacity="0.6980392156862745" stroke-linecap="round" stroke-linejoin="round" stroke-miterlimit="10" stroke-width="3.5"/><path fill="rgb(0,0,0)" stroke="none" paint-order="stroke fill markers" fill-rule="evenodd" d=" M 615.2471653774862 107.77480281318158 L 605.1708937455779 124.5685888663621 L 598.4533793243057 117.85107444508994 Z" fill-opacity="0.6980392156862745"/><path fill="none" stroke="rgb(0,0,0)" paint-order="fill stroke markers" d=" M 178.70484112282492 135.81868790413137 L 178.70484112282492 88.71861684204164" stroke-opacity="0.6980392156862745" stroke-linecap="round" stroke-linejoin="round" stroke-miterlimit="10" stroke-width="3.5"/><path fill="rgb(0,0,0)" stroke="none" paint-order="stroke fill markers" fill-rule="evenodd" d=" M 178.70484112282492 69.71861684204164 L 183.45484112282492 88.71861684204164 L 173.95484112282492 88.71861684204164 Z" fill-opacity="0.6980392156862745"/><path fill="rgb(102,204,255)" stroke="none" paint-order="stroke fill markers" d=" M 182.70484112282492 135.81868790413137 C 182.70484112282492 138.02782690345452 180.91398012214808 139.81868790413137 178.70484112282492 139.81868790413137 C 176.49570212350173 139.81868790413137 174.70484112282492 138.02782690345452 174.70484112282492 135.81868790413137 C 174.70484112282492 133.60954890480818 176.49570212350173 131.81868790413137 178.70484112282492 131.81868790413137 C 180.91398012214808 131.81868790413137 182.70484112282492 133.60954890480818 182.70484112282492 135.81868790413137 Z" fill-opacity="1"/><path fill="none" stroke="rgb(0,0,0)" paint-order="fill stroke markers" d=" M 182.70484112282492 135.81868790413137 C 182.70484112282492 138.02782690345452 180.91398012214808 139.81868790413137 178.70484112282492 139.81868790413137 C 176.49570212350173 139.81868790413137 174.70484112282492 138.02782690345452 174.70484112282492 135.81868790413137 C 174.70484112282492 133.60954890480818 176.49570212350173 131.81868790413137 178.70484112282492 131.81868790413137 C 180.91398012214808 131.81868790413137 182.70484112282492 133.60954890480818 182.70484112282492 135.81868790413137 Z" stroke-opacity="1" stroke-linecap="round" stroke-linejoin="round" stroke-miterlimit="10"/><path fill="rgb(102,204,255)" stroke="none" paint-order="stroke fill markers" d=" M 591.2032802865366 135.81868790413137 C 591.2032802865366 138.02782690345452 589.4124192858598 139.81868790413137 587.2032802865366 139.81868790413137 C 584.9941412872134 139.81868790413137 583.2032802865366 138.02782690345452 583.2032802865366 135.81868790413137 C 583.2032802865366 133.60954890480818 584.9941412872134 131.81868790413137 587.2032802865366 131.81868790413137 C 589.4124192858598 131.81868790413137 591.2032802865366 133.60954890480818 591.2032802865366 135.81868790413137 Z" fill-opacity="1"/><path fill="none" stroke="rgb(0,0,0)" paint-order="fill stroke markers" d=" M 591.2032802865366 135.81868790413137 C 591.2032802865366 138.02782690345452 589.4124192858598 139.81868790413137 587.2032802865366 139.81868790413137 C 584.9941412872134 139.81868790413137 583.2032802865366 138.02782690345452 583.2032802865366 135.81868790413137 C 583.2032802865366 133.60954890480818 584.9941412872134 131.81868790413137 587.2032802865366 131.81868790413137 C 589.4124192858598 131.81868790413137 591.2032802865366 133.60954890480818 591.2032802865366 135.81868790413137 Z" stroke-opacity="1" stroke-linecap="round" stroke-linejoin="round" stroke-miterlimit="10"/><path fill="rgb(102,204,255)" stroke="none" paint-order="stroke fill markers" d=" M 999.7017194502482 135.81868790413137 C 999.7017194502482 138.02782690345452 997.9108584495714 139.81868790413137 995.7017194502482 139.81868790413137 C 993.4925804509251 139.81868790413137 991.7017194502482 138.02782690345452 991.7017194502482 135.81868790413137 C 991.7017194502482 133.60954890480818 993.4925804509251 131.81868790413137 995.7017194502482 131.81868790413137 C 997.9108584495714 131.81868790413137 999.7017194502482 133.60954890480818 999.7017194502482 135.81868790413137 Z" fill-opacity="1"/><path fill="none" stroke="rgb(0,0,0)" paint-order="fill stroke markers" d=" M 999.7017194502482 135.81868790413137 C 999.7017194502482 138.02782690345452 997.9108584495714 139.81868790413137 995.7017194502482 139.81868790413137 C 993.4925804509251 139.81868790413137 991.7017194502482 138.02782690345452 991.7017194502482 135.81868790413137 C 991.7017194502482 133.60954890480818 993.4925804509251 131.81868790413137 995.7017194502482 131.81868790413137 C 997.9108584495714 131.81868790413137 999.7017194502482 133.60954890480818 999.7017194502482 135.81868790413137 Z" stroke-opacity="1" stroke-linecap="round" stroke-linejoin="round" stroke-miterlimit="10"/><g transform="scale(31,31) translate(16.70967741935484,9.96774193548387) scale(0.1,0.1)"><text fill="rgb(0,0,0)" stroke="none" font-family="Serif" font-size="10px" font-style="normal" font-weight="normal" text-decoration="normal" x="0" y="0" text-anchor="start" dominant-baseline="alphabetic">标准正交基</text><g transform="scale(10,10) translate(-16.70967741935484,-9.96774193548387)"/></g><g transform="scale(31,31) translate(27.774193548387096,9.96774193548387) scale(0.1,0.1)"><text fill="rgb(0,0,0)" stroke="none" font-family="Serif" font-size="10px" font-style="normal" font-weight="normal" text-decoration="normal" x="0" y="0" text-anchor="start" dominant-baseline="alphabetic">长度均为</text><g transform="scale(10,10) translate(-27.774193548387096,-9.96774193548387)"><g transform="translate(31.81419354898314,9.96774193548387)"><path fill="rgb(0,0,0)" stroke="none" paint-order="stroke fill markers" d=" M 0.294 -0.64 L 0.294 -0.079 Q 0.294 -0.049 0.306 -0.041 Q 0.323 -0.031 0.387 -0.031 L 0.419 -0.031 L 0.419 0 Q 0.384 -0.003 0.257 -0.003 Q 0.13 -0.003 0.095 0 L 0.095 -0.031 L 0.127 -0.031 Q 0.20400000000000001 -0.031 0.215 -0.049 L 0.216 -0.05 Q 0.22 -0.058 0.22 -0.079 L 0.22 -0.597 Q 0.168 -0.5710000000000001 0.089 -0.5710000000000001 L 0.089 -0.602 Q 0.209 -0.602 0.271 -0.666 Q 0.29 -0.666 0.293 -0.659 L 0.293 -0.659 L 0.293 -0.658 Q 0.294 -0.655 0.294 -0.64 Z"/></g><g transform="translate(32.31419554898314,9.96774193548387) scale(0.1,0.1)"><text fill="rgb(0,0,0)" stroke="none" font-family="Serif" font-size="10px" font-style="normal" font-weight="normal" text-decoration="normal" x="0" y="0" text-anchor="start" dominant-baseline="alphabetic">但不正交</text><g transform="scale(10,10) translate(-32.31419554898314,-9.96774193548387)"/></g></g></g><g transform="scale(31,31) translate(0.06451612903225806,9.935483870967742) scale(0.1,0.1)"><text fill="rgb(0,0,0)" stroke="none" font-family="Serif" font-size="10px" font-style="normal" font-weight="normal" text-decoration="normal" x="0" y="0" text-anchor="start" dominant-baseline="alphabetic">正交基</text><g transform="scale(10,10) translate(-0.06451612903225806,-9.935483870967742) translate(3.1045161296283044,9.935483870967742) scale(0.1,0.1)"><text fill="rgb(0,0,0)" stroke="none" font-family="Serif" font-size="10px" font-style="normal" font-weight="normal" text-decoration="normal" x="0" y="0" text-anchor="start" dominant-baseline="alphabetic">，</text><g transform="scale(10,10) translate(-3.1045161296283044,-9.935483870967742) translate(4.144516130224351,9.935483870967742) scale(0.1,0.1)"><text fill="rgb(0,0,0)" stroke="none" font-family="Serif" font-size="10px" font-style="normal" font-weight="normal" text-decoration="normal" x="0" y="0" text-anchor="start" dominant-baseline="alphabetic">不是标准正交基</text><g transform="scale(10,10) translate(-4.144516130224351,-9.935483870967742)"/></g></g></g></g></g></svg>