<svg version="1.1" xmlns="http://www.w3.org/2000/svg" xmlns:xlink="http://www.w3.org/1999/xlink" width="785" height="359"><defs><clipPath id="pLtzJbPmWMzc"><path fill="none" stroke="none" d=" M 0 0 L 785 0 L 785 359 L 0 359 L 0 0 Z"/></clipPath></defs><g transform="scale(1,1)" clip-path="url(#pLtzJbPmWMzc)"><g><path fill="none" stroke="rgb(192,192,192)" paint-order="fill stroke markers" d=" M 9.903311683876638 314.79551198067696 L 317.7832689644895 314.79551198067696" stroke-opacity="1" stroke-linecap="round" stroke-linejoin="round" stroke-miterlimit="10" stroke-width="1.5"/><path fill="none" stroke="rgb(192,192,192)" paint-order="fill stroke markers" d=" M 9.903311683876638 263.48218576724145 L 317.7832689644895 263.48218576724145" stroke-opacity="1" stroke-linecap="round" stroke-linejoin="round" stroke-miterlimit="10" stroke-width="1.5"/><path fill="none" stroke="rgb(192,192,192)" paint-order="fill stroke markers" d=" M 9.903311683876638 212.16885955380596 L 317.7832689644895 212.16885955380596" stroke-opacity="1" stroke-linecap="round" stroke-linejoin="round" stroke-miterlimit="10" stroke-width="1.5"/><path fill="none" stroke="rgb(192,192,192)" paint-order="fill stroke markers" d=" M 9.903311683876638 160.85553334037044 L 317.7832689644895 160.85553334037044" stroke-opacity="1" stroke-linecap="round" stroke-linejoin="round" stroke-miterlimit="10" stroke-width="1.5"/><path fill="none" stroke="rgb(192,192,192)" paint-order="fill stroke markers" d=" M 9.903311683876638 109.54220712693493 L 317.7832689644895 109.54220712693493" stroke-opacity="1" stroke-linecap="round" stroke-linejoin="round" stroke-miterlimit="10" stroke-width="1.5"/><path fill="none" stroke="rgb(192,192,192)" paint-order="fill stroke markers" d=" M 9.903311683876638 58.228880913499424 L 317.7832689644895 58.228880913499424" stroke-opacity="1" stroke-linecap="round" stroke-linejoin="round" stroke-miterlimit="10" stroke-width="1.5"/><path fill="none" stroke="rgb(192,192,192)" paint-order="fill stroke markers" d=" M 9.903311683876638 6.915554700063922 L 317.7832689644895 6.915554700063922" stroke-opacity="1" stroke-linecap="round" stroke-linejoin="round" stroke-miterlimit="10" stroke-width="1.5"/><path fill="none" stroke="rgb(192,192,192)" paint-order="fill stroke markers" d=" M 9.903311683876638 314.79551198067696 L 9.903311683876638 6.915554700063922" stroke-opacity="1" stroke-linecap="round" stroke-linejoin="round" stroke-miterlimit="10" stroke-width="1.5"/><path fill="none" stroke="rgb(192,192,192)" paint-order="fill stroke markers" d=" M 61.216637897312125 314.79551198067696 L 61.216637897312125 6.915554700063922" stroke-opacity="1" stroke-linecap="round" stroke-linejoin="round" stroke-miterlimit="10" stroke-width="1.5"/><path fill="none" stroke="rgb(192,192,192)" paint-order="fill stroke markers" d=" M 112.5299641107476 314.79551198067696 L 112.5299641107476 6.915554700063922" stroke-opacity="1" stroke-linecap="round" stroke-linejoin="round" stroke-miterlimit="10" stroke-width="1.5"/><path fill="none" stroke="rgb(192,192,192)" paint-order="fill stroke markers" d=" M 163.84329032418307 314.79551198067696 L 163.84329032418307 6.915554700063922" stroke-opacity="1" stroke-linecap="round" stroke-linejoin="round" stroke-miterlimit="10" stroke-width="1.5"/><path fill="none" stroke="rgb(192,192,192)" paint-order="fill stroke markers" d=" M 215.15661653761856 314.79551198067696 L 215.15661653761856 6.915554700063922" stroke-opacity="1" stroke-linecap="round" stroke-linejoin="round" stroke-miterlimit="10" stroke-width="1.5"/><path fill="none" stroke="rgb(192,192,192)" paint-order="fill stroke markers" d=" M 266.469942751054 314.79551198067696 L 266.469942751054 6.915554700063922" stroke-opacity="1" stroke-linecap="round" stroke-linejoin="round" stroke-miterlimit="10" stroke-width="1.5"/><path fill="none" stroke="rgb(192,192,192)" paint-order="fill stroke markers" d=" M 317.7832689644895 314.79551198067696 L 317.7832689644895 6.915554700063922" stroke-opacity="1" stroke-linecap="round" stroke-linejoin="round" stroke-miterlimit="10" stroke-width="1.5"/><path fill="none" stroke="rgb(192,192,192)" paint-order="fill stroke markers" d=" M 471.7232476047959 314.79551198067696 L 779.6032048854088 314.79551198067696" stroke-opacity="1" stroke-linecap="round" stroke-linejoin="round" stroke-miterlimit="10" stroke-width="1.5"/><path fill="none" stroke="rgb(192,192,192)" paint-order="fill stroke markers" d=" M 471.7232476047959 263.48218576724145 L 779.6032048854088 263.48218576724145" stroke-opacity="1" stroke-linecap="round" stroke-linejoin="round" stroke-miterlimit="10" stroke-width="1.5"/><path fill="none" stroke="rgb(192,192,192)" paint-order="fill stroke markers" d=" M 471.7232476047959 212.16885955380596 L 779.6032048854088 212.16885955380596" stroke-opacity="1" stroke-linecap="round" stroke-linejoin="round" stroke-miterlimit="10" stroke-width="1.5"/><path fill="none" stroke="rgb(192,192,192)" paint-order="fill stroke markers" d=" M 471.7232476047959 160.85553334037044 L 779.6032048854088 160.85553334037044" stroke-opacity="1" stroke-linecap="round" stroke-linejoin="round" stroke-miterlimit="10" stroke-width="1.5"/><path fill="none" stroke="rgb(192,192,192)" paint-order="fill stroke markers" d=" M 471.7232476047959 109.54220712693493 L 779.6032048854088 109.54220712693493" stroke-opacity="1" stroke-linecap="round" stroke-linejoin="round" stroke-miterlimit="10" stroke-width="1.5"/><path fill="none" stroke="rgb(192,192,192)" paint-order="fill stroke markers" d=" M 471.7232476047959 58.228880913499424 L 779.6032048854088 58.228880913499424" stroke-opacity="1" stroke-linecap="round" stroke-linejoin="round" stroke-miterlimit="10" stroke-width="1.5"/><path fill="none" stroke="rgb(192,192,192)" paint-order="fill stroke markers" d=" M 471.7232476047959 6.915554700063922 L 779.6032048854088 6.915554700063922" stroke-opacity="1" stroke-linecap="round" stroke-linejoin="round" stroke-miterlimit="10" stroke-width="1.5"/><path fill="none" stroke="rgb(192,192,192)" paint-order="fill stroke markers" d=" M 471.7232476047959 314.79551198067696 L 471.7232476047959 6.915554700063922" stroke-opacity="1" stroke-linecap="round" stroke-linejoin="round" stroke-miterlimit="10" stroke-width="1.5"/><path fill="none" stroke="rgb(192,192,192)" paint-order="fill stroke markers" d=" M 523.0365738182314 314.79551198067696 L 523.0365738182314 6.915554700063922" stroke-opacity="1" stroke-linecap="round" stroke-linejoin="round" stroke-miterlimit="10" stroke-width="1.5"/><path fill="none" stroke="rgb(192,192,192)" paint-order="fill stroke markers" d=" M 574.3499000316668 314.79551198067696 L 574.3499000316668 6.915554700063922" stroke-opacity="1" stroke-linecap="round" stroke-linejoin="round" stroke-miterlimit="10" stroke-width="1.5"/><path fill="none" stroke="rgb(192,192,192)" paint-order="fill stroke markers" d=" M 625.6632262451024 314.79551198067696 L 625.6632262451024 6.915554700063922" stroke-opacity="1" stroke-linecap="round" stroke-linejoin="round" stroke-miterlimit="10" stroke-width="1.5"/><path fill="none" stroke="rgb(192,192,192)" paint-order="fill stroke markers" d=" M 676.9765524585378 314.79551198067696 L 676.9765524585378 6.915554700063922" stroke-opacity="1" stroke-linecap="round" stroke-linejoin="round" stroke-miterlimit="10" stroke-width="1.5"/><path fill="none" stroke="rgb(192,192,192)" paint-order="fill stroke markers" d=" M 728.2898786719733 314.79551198067696 L 728.2898786719733 6.915554700063922" stroke-opacity="1" stroke-linecap="round" stroke-linejoin="round" stroke-miterlimit="10" stroke-width="1.5"/><path fill="none" stroke="rgb(192,192,192)" paint-order="fill stroke markers" d=" M 779.6032048854088 314.79551198067696 L 779.6032048854088 6.915554700063922" stroke-opacity="1" stroke-linecap="round" stroke-linejoin="round" stroke-miterlimit="10" stroke-width="1.5"/><path fill="rgb(127,0,255)" stroke="none" paint-order="stroke fill markers" fill-rule="evenodd" d=" M 9.903311683876638 314.79551198067696 L 9.903311683876638 6.915554700063922 L 317.7832689644895 6.915554700063922 L 317.7832689644895 314.79551198067696 Z" fill-opacity="0.09803921568627451"/><path fill="rgb(0,153,204)" stroke="none" paint-order="stroke fill markers" fill-rule="evenodd" d=" M 471.7232476047959 314.79551198067696 L 471.7232476047959 6.915554700063922 L 779.6032048854088 6.915554700063922 L 779.6032048854088 314.79551198067696 Z" fill-opacity="0.09803921568627451"/><path fill="rgb(0,153,255)" stroke="none" paint-order="stroke fill markers" fill-rule="evenodd" d=" M 163.84329032418307 160.85553334037044 L 215.15661653761856 160.85553334037044 L 215.15661653761856 109.54220712693493 L 163.84329032418307 109.54220712693493 Z" fill-opacity="1"/><path fill="rgb(204,102,255)" stroke="none" paint-order="stroke fill markers" fill-rule="evenodd" d=" M 625.6632262451024 160.85553334037044 L 676.9765524585378 160.85553334037044 L 676.9765524585378 109.54220712693493 L 625.6632262451024 109.54220712693493 Z" fill-opacity="1"/><path fill="none" stroke="rgb(127,0,255)" paint-order="fill stroke markers" d=" M 9.903311683876638 314.79551198067696 L 9.903311683876638 6.915554700063922" stroke-opacity="0.6980392156862745" stroke-linecap="round" stroke-linejoin="round" stroke-miterlimit="10" stroke-width="1.5"/><path fill="none" stroke="rgb(127,0,255)" paint-order="fill stroke markers" d=" M 9.903311683876638 6.915554700063922 L 317.7832689644895 6.915554700063922" stroke-opacity="0.6980392156862745" stroke-linecap="round" stroke-linejoin="round" stroke-miterlimit="10" stroke-width="1.5"/><path fill="none" stroke="rgb(127,0,255)" paint-order="fill stroke markers" d=" M 317.7832689644895 6.915554700063922 L 317.7832689644895 314.79551198067696" stroke-opacity="0.6980392156862745" stroke-linecap="round" stroke-linejoin="round" stroke-miterlimit="10" stroke-width="1.5"/><path fill="none" stroke="rgb(127,0,255)" paint-order="fill stroke markers" d=" M 317.7832689644895 314.79551198067696 L 9.903311683876638 314.79551198067696" stroke-opacity="0.6980392156862745" stroke-linecap="round" stroke-linejoin="round" stroke-miterlimit="10" stroke-width="1.5"/><path fill="none" stroke="rgb(0,153,204)" paint-order="fill stroke markers" d=" M 471.7232476047959 314.79551198067696 L 471.7232476047959 6.915554700063922" stroke-opacity="0.6980392156862745" stroke-linecap="round" stroke-linejoin="round" stroke-miterlimit="10" stroke-width="1.5"/><path fill="none" stroke="rgb(0,153,204)" paint-order="fill stroke markers" d=" M 471.7232476047959 6.915554700063922 L 779.6032048854088 6.915554700063922" stroke-opacity="0.6980392156862745" stroke-linecap="round" stroke-linejoin="round" stroke-miterlimit="10" stroke-width="1.5"/><path fill="none" stroke="rgb(0,153,204)" paint-order="fill stroke markers" d=" M 779.6032048854088 6.915554700063922 L 779.6032048854088 314.79551198067696" stroke-opacity="0.6980392156862745" stroke-linecap="round" stroke-linejoin="round" stroke-miterlimit="10" stroke-width="1.5"/><path fill="none" stroke="rgb(0,153,204)" paint-order="fill stroke markers" d=" M 779.6032048854088 314.79551198067696 L 471.7232476047959 314.79551198067696" stroke-opacity="0.6980392156862745" stroke-linecap="round" stroke-linejoin="round" stroke-miterlimit="10" stroke-width="1.5"/><path fill="none" stroke="rgb(0,0,0)" paint-order="fill stroke markers" d=" M 163.84329032418307 160.85553334037044 L 198.15661653761856 160.85553334037044" stroke-opacity="0.6980392156862745" stroke-linecap="round" stroke-linejoin="round" stroke-miterlimit="10" stroke-width="2.5"/><path fill="rgb(0,0,0)" stroke="none" paint-order="stroke fill markers" fill-rule="evenodd" d=" M 215.15661653761856 160.85553334037044 L 198.15661653761856 165.10553334037044 L 198.15661653761856 156.60553334037044 Z" fill-opacity="0.6980392156862745"/><g transform="scale(27,27)"><g transform="translate(6.703703703703703,6.9895512962962965)"><path fill="rgb(0,0,0)" stroke="none" paint-order="stroke fill markers" d=" M 0.334 -0.646 Q 0.334 -0.62 0.312 -0.5985 Q 0.29 -0.577 0.263 -0.577 Q 0.242 -0.577 0.228 -0.5905 Q 0.214 -0.604 0.214 -0.625 Q 0.214 -0.651 0.23550000000000001 -0.6725 Q 0.257 -0.6940000000000001 0.28500000000000003 -0.6940000000000001 Q 0.306 -0.6940000000000001 0.32 -0.68 Q 0.334 -0.666 0.334 -0.646 M 0.359 -0.148 Q 0.359 -0.132 0.343 -0.0975 Q 0.327 -0.063 0.289 -0.0275 Q 0.251 0.008 0.20400000000000001 0.008 Q 0.157 0.008 0.1235 -0.0175 Q 0.09 -0.043000000000000003 0.09 -0.082 Q 0.09 -0.095 0.098 -0.116 L 0.165 -0.289 Q 0.198 -0.372 0.198 -0.394 Q 0.198 -0.41600000000000004 0.182 -0.41600000000000004 Q 0.168 -0.41600000000000004 0.1525 -0.40850000000000003 Q 0.137 -0.401 0.115 -0.372 Q 0.093 -0.343 0.079 -0.295 Q 0.075 -0.28200000000000003 0.056 -0.28200000000000003 Q 0.032 -0.28200000000000003 0.032 -0.296 Q 0.032 -0.312 0.048 -0.34650000000000003 Q 0.064 -0.381 0.10200000000000001 -0.4165 Q 0.14 -0.452 0.187 -0.452 Q 0.234 -0.452 0.2675 -0.4265 Q 0.301 -0.401 0.301 -0.362 Q 0.301 -0.34900000000000003 0.293 -0.328 L 0.226 -0.155 Q 0.193 -0.07200000000000001 0.193 -0.05 Q 0.193 -0.028 0.209 -0.028 Q 0.223 -0.028 0.23850000000000002 -0.035500000000000004 Q 0.254 -0.043000000000000003 0.276 -0.07200000000000001 Q 0.298 -0.101 0.312 -0.149 Q 0.316 -0.162 0.335 -0.162 Q 0.359 -0.162 0.359 -0.148 Z"/></g></g><path fill="none" stroke="rgb(0,0,0)" paint-order="fill stroke markers" d=" M 163.84329032418307 160.85553334037044 L 163.84329032418307 126.54220712693493" stroke-opacity="0.6980392156862745" stroke-linecap="round" stroke-linejoin="round" stroke-miterlimit="10" stroke-width="2.5"/><path fill="rgb(0,0,0)" stroke="none" paint-order="stroke fill markers" fill-rule="evenodd" d=" M 163.84329032418307 109.54220712693493 L 168.09329032418307 126.54220712693493 L 159.59329032418307 126.54220712693493 Z" fill-opacity="0.6980392156862745"/><g transform="scale(27,27)"><g transform="translate(5.2592592592592595,5.026588333333333)"><path fill="rgb(0,0,0)" stroke="none" paint-order="stroke fill markers" d=" M 0.45 -0.646 Q 0.45 -0.62 0.4285 -0.5985 Q 0.40700000000000003 -0.577 0.379 -0.577 Q 0.358 -0.577 0.34400000000000003 -0.591 Q 0.33 -0.605 0.33 -0.625 Q 0.33 -0.651 0.352 -0.6725 Q 0.374 -0.6940000000000001 0.401 -0.6940000000000001 Q 0.422 -0.6940000000000001 0.436 -0.68 Q 0.45 -0.666 0.45 -0.646 M 0.20400000000000001 0.046 L 0.3 -0.336 Q 0.306 -0.362 0.306 -0.379 Q 0.306 -0.41600000000000004 0.28200000000000003 -0.41600000000000004 Q 0.249 -0.41600000000000004 0.212 -0.387 Q 0.17500000000000002 -0.358 0.149 -0.298 Q 0.14400000000000002 -0.28700000000000003 0.1405 -0.28450000000000003 Q 0.137 -0.28200000000000003 0.124 -0.28200000000000003 Q 0.1 -0.28200000000000003 0.1 -0.296 Q 0.1 -0.304 0.113 -0.328 Q 0.126 -0.352 0.1485 -0.3805 Q 0.171 -0.40900000000000003 0.2085 -0.4305 Q 0.246 -0.452 0.28700000000000003 -0.452 Q 0.337 -0.452 0.375 -0.4255 Q 0.41300000000000003 -0.399 0.41300000000000003 -0.354 Q 0.41300000000000003 -0.338 0.40800000000000003 -0.32 L 0.316 0.046 Q 0.305 0.09 0.277 0.1225 Q 0.249 0.155 0.2135 0.171 Q 0.178 0.187 0.1465 0.1945 Q 0.115 0.202 0.088 0.202 Q 0.042 0.202 0.014 0.182 Q -0.014 0.162 -0.014 0.131 Q -0.014 0.1 0.008 0.079 Q 0.03 0.058 0.057 0.058 Q 0.08 0.058 0.0935 0.07200000000000001 Q 0.107 0.08600000000000001 0.107 0.10400000000000001 Q 0.107 0.14200000000000002 0.07200000000000001 0.164 Q 0.078 0.166 0.088 0.166 Q 0.127 0.166 0.1595 0.131 Q 0.192 0.096 0.20400000000000001 0.046 Z"/></g></g><path fill="none" stroke="rgb(0,0,0)" paint-order="fill stroke markers" d=" M 625.6632262451024 160.85553334037044 L 659.9765524585378 160.85553334037044" stroke-opacity="0.6980392156862745" stroke-linecap="round" stroke-linejoin="round" stroke-miterlimit="10" stroke-width="2.5"/><path fill="rgb(0,0,0)" stroke="none" paint-order="stroke fill markers" fill-rule="evenodd" d=" M 676.9765524585378 160.85553334037044 L 659.9765524585378 165.10553334037044 L 659.9765524585378 156.60553334037044 Z" fill-opacity="0.6980392156862745"/><g transform="scale(27,27)"><g transform="translate(23.925925925925927,6.952514259259259)"><path fill="rgb(0,0,0)" stroke="none" paint-order="stroke fill markers" d=" M 0.334 -0.646 Q 0.334 -0.62 0.312 -0.5985 Q 0.29 -0.577 0.263 -0.577 Q 0.242 -0.577 0.228 -0.5905 Q 0.214 -0.604 0.214 -0.625 Q 0.214 -0.651 0.23550000000000001 -0.6725 Q 0.257 -0.6940000000000001 0.28500000000000003 -0.6940000000000001 Q 0.306 -0.6940000000000001 0.32 -0.68 Q 0.334 -0.666 0.334 -0.646 M 0.359 -0.148 Q 0.359 -0.132 0.343 -0.0975 Q 0.327 -0.063 0.289 -0.0275 Q 0.251 0.008 0.20400000000000001 0.008 Q 0.157 0.008 0.1235 -0.0175 Q 0.09 -0.043000000000000003 0.09 -0.082 Q 0.09 -0.095 0.098 -0.116 L 0.165 -0.289 Q 0.198 -0.372 0.198 -0.394 Q 0.198 -0.41600000000000004 0.182 -0.41600000000000004 Q 0.168 -0.41600000000000004 0.1525 -0.40850000000000003 Q 0.137 -0.401 0.115 -0.372 Q 0.093 -0.343 0.079 -0.295 Q 0.075 -0.28200000000000003 0.056 -0.28200000000000003 Q 0.032 -0.28200000000000003 0.032 -0.296 Q 0.032 -0.312 0.048 -0.34650000000000003 Q 0.064 -0.381 0.10200000000000001 -0.4165 Q 0.14 -0.452 0.187 -0.452 Q 0.234 -0.452 0.2675 -0.4265 Q 0.301 -0.401 0.301 -0.362 Q 0.301 -0.34900000000000003 0.293 -0.328 L 0.226 -0.155 Q 0.193 -0.07200000000000001 0.193 -0.05 Q 0.193 -0.028 0.209 -0.028 Q 0.223 -0.028 0.23850000000000002 -0.035500000000000004 Q 0.254 -0.043000000000000003 0.276 -0.07200000000000001 Q 0.298 -0.101 0.312 -0.149 Q 0.316 -0.162 0.335 -0.162 Q 0.359 -0.162 0.359 -0.148 Z"/></g></g><path fill="none" stroke="rgb(0,0,0)" paint-order="fill stroke markers" d=" M 625.6632262451024 160.85553334037044 L 625.6632262451024 126.54220712693493" stroke-opacity="0.6980392156862745" stroke-linecap="round" stroke-linejoin="round" stroke-miterlimit="10" stroke-width="2.5"/><path fill="rgb(0,0,0)" stroke="none" paint-order="stroke fill markers" fill-rule="evenodd" d=" M 625.6632262451024 109.54220712693493 L 629.9132262451024 126.54220712693493 L 621.4132262451024 126.54220712693493 Z" fill-opacity="0.6980392156862745"/><g transform="scale(27,27)"><g transform="translate(22.37037037037037,5.174736481481482)"><path fill="rgb(0,0,0)" stroke="none" paint-order="stroke fill markers" d=" M 0.45 -0.646 Q 0.45 -0.62 0.4285 -0.5985 Q 0.40700000000000003 -0.577 0.379 -0.577 Q 0.358 -0.577 0.34400000000000003 -0.591 Q 0.33 -0.605 0.33 -0.625 Q 0.33 -0.651 0.352 -0.6725 Q 0.374 -0.6940000000000001 0.401 -0.6940000000000001 Q 0.422 -0.6940000000000001 0.436 -0.68 Q 0.45 -0.666 0.45 -0.646 M 0.20400000000000001 0.046 L 0.3 -0.336 Q 0.306 -0.362 0.306 -0.379 Q 0.306 -0.41600000000000004 0.28200000000000003 -0.41600000000000004 Q 0.249 -0.41600000000000004 0.212 -0.387 Q 0.17500000000000002 -0.358 0.149 -0.298 Q 0.14400000000000002 -0.28700000000000003 0.1405 -0.28450000000000003 Q 0.137 -0.28200000000000003 0.124 -0.28200000000000003 Q 0.1 -0.28200000000000003 0.1 -0.296 Q 0.1 -0.304 0.113 -0.328 Q 0.126 -0.352 0.1485 -0.3805 Q 0.171 -0.40900000000000003 0.2085 -0.4305 Q 0.246 -0.452 0.28700000000000003 -0.452 Q 0.337 -0.452 0.375 -0.4255 Q 0.41300000000000003 -0.399 0.41300000000000003 -0.354 Q 0.41300000000000003 -0.338 0.40800000000000003 -0.32 L 0.316 0.046 Q 0.305 0.09 0.277 0.1225 Q 0.249 0.155 0.2135 0.171 Q 0.178 0.187 0.1465 0.1945 Q 0.115 0.202 0.088 0.202 Q 0.042 0.202 0.014 0.182 Q -0.014 0.162 -0.014 0.131 Q -0.014 0.1 0.008 0.079 Q 0.03 0.058 0.057 0.058 Q 0.08 0.058 0.0935 0.07200000000000001 Q 0.107 0.08600000000000001 0.107 0.10400000000000001 Q 0.107 0.14200000000000002 0.07200000000000001 0.164 Q 0.078 0.166 0.088 0.166 Q 0.127 0.166 0.1595 0.131 Q 0.192 0.096 0.20400000000000001 0.046 Z"/></g></g><path fill="none" stroke="rgb(160,160,160)" paint-order="fill stroke markers" d=" M 343.43993207120724 160.85553334037044 L 431.0665844980782 160.85553334037044" stroke-opacity="0.6980392156862745" stroke-linecap="round" stroke-linejoin="round" stroke-miterlimit="10" stroke-width="1.5"/><path fill="rgb(160,160,160)" stroke="none" paint-order="stroke fill markers" fill-rule="evenodd" d=" M 446.0665844980782 160.85553334037044 L 431.0665844980782 164.60553334037044 L 431.0665844980782 157.10553334037044 Z" fill-opacity="0.6980392156862745"/><g transform="scale(27,27)"><g transform="translate(12.777777777777779,3.225184185185185)"><path fill="rgb(160,160,160)" stroke="none" paint-order="stroke fill markers" d=" M 0.662109375 2.35693359375 Q 0.5390625 2.248046875 0.451171875 2.10888671875 Q 0.36328125 1.9697265625 0.31005859375 1.81494140625 Q 0.2568359375 1.66015625 0.232421875 1.494873046875 Q 0.2080078125 1.32958984375 0.2080078125 1.16015625 Q 0.2080078125 0.98974609375 0.232421875 0.823974609375 Q 0.2568359375 0.658203125 0.309814453125 0.50390625 Q 0.36279296875 0.349609375 0.450927734375 0.210205078125 Q 0.5390625 0.07080078125 0.662109375 -0.0380859375 Q 0.662109375 -0.0400390625 0.6669921875 -0.0400390625 L 0.69287109375 -0.0400390625 Q 0.69580078125 -0.0400390625 0.698486328125 -0.037109375 Q 0.701171875 -0.0341796875 0.701171875 -0.03076171875 Q 0.701171875 -0.02685546875 0.69921875 -0.02490234375 Q 0.5849609375 0.087890625 0.506103515625 0.22607421875 Q 0.42724609375 0.3642578125 0.380859375 0.51708984375 Q 0.33447265625 0.669921875 0.314697265625 0.8310546875 Q 0.294921875 0.9921875 0.294921875 1.16015625 Q 0.294921875 1.32763671875 0.314453125 1.486572265625 Q 0.333984375 1.6455078125 0.380859375 1.80029296875 Q 0.427734375 1.955078125 0.5068359375 2.09326171875 Q 0.5859375 2.2314453125 0.69921875 2.34423828125 Q 0.701171875 2.34619140625 0.701171875 2.35009765625 Q 0.701171875 2.35302734375 0.6982421875 2.35595703125 Q 0.6953125 2.35888671875 0.69287109375 2.35888671875 L 0.6669921875 2.35888671875 Q 0.662109375 2.35888671875 0.662109375 2.35693359375 Z"/></g><g transform="translate(13.513892277777778,4.169919685185185)"><path fill="rgb(160,160,160)" stroke="none" paint-order="stroke fill markers" d=" M 0.294 -0.64 L 0.294 -0.079 Q 0.294 -0.049 0.306 -0.041 Q 0.323 -0.031 0.387 -0.031 L 0.419 -0.031 L 0.419 0 Q 0.384 -0.003 0.257 -0.003 Q 0.13 -0.003 0.095 0 L 0.095 -0.031 L 0.127 -0.031 Q 0.20400000000000001 -0.031 0.215 -0.049 L 0.216 -0.05 Q 0.22 -0.058 0.22 -0.079 L 0.22 -0.597 Q 0.168 -0.5710000000000001 0.089 -0.5710000000000001 L 0.089 -0.602 Q 0.209 -0.602 0.271 -0.666 Q 0.29 -0.666 0.293 -0.659 L 0.293 -0.659 L 0.293 -0.658 Q 0.294 -0.655 0.294 -0.64 Z"/></g><g transform="translate(15.013894277777778,4.169919685185185)"><path fill="rgb(160,160,160)" stroke="none" paint-order="stroke fill markers" d=" M 0.46 -0.32 Q 0.46 -0.17400000000000002 0.423 -0.094 Q 0.364 0.018000000000000002 0.249 0.022 Q 0.158 0.022 0.10300000000000001 -0.05 Q 0.092 -0.063 0.084 -0.079 Q 0.039 -0.162 0.039 -0.32 Q 0.039 -0.467 0.076 -0.547 Q 0.126 -0.659 0.23800000000000002 -0.666 L 0.25 -0.666 Q 0.339 -0.666 0.395 -0.595 L 0.395 -0.594 Q 0.40900000000000003 -0.5760000000000001 0.42 -0.554 Q 0.46 -0.46900000000000003 0.46 -0.32 M 0.249 0 L 0.249 0 Q 0.312 0 0.34600000000000003 -0.061 Q 0.36 -0.088 0.366 -0.125 Q 0.377 -0.189 0.377 -0.332 Q 0.377 -0.47100000000000003 0.367 -0.527 Q 0.34900000000000003 -0.622 0.275 -0.641 Q 0.262 -0.644 0.249 -0.644 Q 0.179 -0.644 0.147 -0.5740000000000001 Q 0.136 -0.55 0.13 -0.516 Q 0.122 -0.462 0.122 -0.332 Q 0.122 -0.181 0.133 -0.121 Q 0.151 -0.025 0.221 -0.004 Q 0.23500000000000001 0 0.249 0 Z"/></g><g transform="translate(13.513892277777778,5.244918685185185)"><path fill="rgb(160,160,160)" stroke="none" paint-order="stroke fill markers" d=" M 0.46 -0.32 Q 0.46 -0.17400000000000002 0.423 -0.094 Q 0.364 0.018000000000000002 0.249 0.022 Q 0.158 0.022 0.10300000000000001 -0.05 Q 0.092 -0.063 0.084 -0.079 Q 0.039 -0.162 0.039 -0.32 Q 0.039 -0.467 0.076 -0.547 Q 0.126 -0.659 0.23800000000000002 -0.666 L 0.25 -0.666 Q 0.339 -0.666 0.395 -0.595 L 0.395 -0.594 Q 0.40900000000000003 -0.5760000000000001 0.42 -0.554 Q 0.46 -0.46900000000000003 0.46 -0.32 M 0.249 0 L 0.249 0 Q 0.312 0 0.34600000000000003 -0.061 Q 0.36 -0.088 0.366 -0.125 Q 0.377 -0.189 0.377 -0.332 Q 0.377 -0.47100000000000003 0.367 -0.527 Q 0.34900000000000003 -0.622 0.275 -0.641 Q 0.262 -0.644 0.249 -0.644 Q 0.179 -0.644 0.147 -0.5740000000000001 Q 0.136 -0.55 0.13 -0.516 Q 0.122 -0.462 0.122 -0.332 Q 0.122 -0.181 0.133 -0.121 Q 0.151 -0.025 0.221 -0.004 Q 0.23500000000000001 0 0.249 0 Z"/></g><g transform="translate(15.013894277777778,5.244918685185185)"><path fill="rgb(160,160,160)" stroke="none" paint-order="stroke fill markers" d=" M 0.294 -0.64 L 0.294 -0.079 Q 0.294 -0.049 0.306 -0.041 Q 0.323 -0.031 0.387 -0.031 L 0.419 -0.031 L 0.419 0 Q 0.384 -0.003 0.257 -0.003 Q 0.13 -0.003 0.095 0 L 0.095 -0.031 L 0.127 -0.031 Q 0.20400000000000001 -0.031 0.215 -0.049 L 0.216 -0.05 Q 0.22 -0.058 0.22 -0.079 L 0.22 -0.597 Q 0.168 -0.5710000000000001 0.089 -0.5710000000000001 L 0.089 -0.602 Q 0.209 -0.602 0.271 -0.666 Q 0.29 -0.666 0.293 -0.659 L 0.293 -0.659 L 0.293 -0.658 Q 0.294 -0.655 0.294 -0.64 Z"/></g><g transform="translate(15.513896277777778,3.225184185185185)"><path fill="rgb(160,160,160)" stroke="none" paint-order="stroke fill markers" d=" M 0.04296875 2.35888671875 Q 0.0341796875 2.35888671875 0.0341796875 2.35009765625 Q 0.0341796875 2.34619140625 0.0361328125 2.34423828125 Q 0.150390625 2.2314453125 0.22900390625 2.093017578125 Q 0.3076171875 1.95458984375 0.35400390625 1.802001953125 Q 0.400390625 1.6494140625 0.420166015625 1.489990234375 Q 0.43994140625 1.33056640625 0.43994140625 1.1591796875 Q 0.43994140625 0.98583984375 0.420166015625 0.82763671875 Q 0.400390625 0.66943359375 0.3544921875 0.517578125 Q 0.30859375 0.36572265625 0.22900390625 0.226318359375 Q 0.1494140625 0.0869140625 0.0361328125 -0.02490234375 Q 0.0341796875 -0.02685546875 0.0341796875 -0.03076171875 Q 0.0341796875 -0.0400390625 0.04296875 -0.0400390625 L 0.06884765625 -0.0400390625 Q 0.072265625 -0.0400390625 0.07421875 -0.0380859375 Q 0.19775390625 0.0712890625 0.28564453125 0.210693359375 Q 0.37353515625 0.35009765625 0.42626953125 0.5048828125 Q 0.47900390625 0.65966796875 0.5029296875 0.82470703125 Q 0.52685546875 0.98974609375 0.52685546875 1.16015625 Q 0.52685546875 1.32958984375 0.5029296875 1.494140625 Q 0.47900390625 1.65869140625 0.42626953125 1.813720703125 Q 0.37353515625 1.96875 0.28564453125 2.108154296875 Q 0.19775390625 2.24755859375 0.07421875 2.35693359375 Q 0.072265625 2.35888671875 0.06884765625 2.35888671875 L 0.04296875 2.35888671875 Z"/></g></g><path fill="rgb(255,102,153)" stroke="none" paint-order="stroke fill markers" d=" M 167.84329032418307 160.85553334037044 C 167.84329032418307 163.06467233969363 166.05242932350626 164.85553334037044 163.84329032418307 164.85553334037044 C 161.6341513248599 164.85553334037044 159.84329032418307 163.06467233969363 159.84329032418307 160.85553334037044 C 159.84329032418307 158.64639434104726 161.6341513248599 156.85553334037044 163.84329032418307 156.85553334037044 C 166.05242932350626 156.85553334037044 167.84329032418307 158.64639434104726 167.84329032418307 160.85553334037044 Z" fill-opacity="1"/><path fill="none" stroke="rgb(0,0,0)" paint-order="fill stroke markers" d=" M 167.84329032418307 160.85553334037044 C 167.84329032418307 163.06467233969363 166.05242932350626 164.85553334037044 163.84329032418307 164.85553334037044 C 161.6341513248599 164.85553334037044 159.84329032418307 163.06467233969363 159.84329032418307 160.85553334037044 C 159.84329032418307 158.64639434104726 161.6341513248599 156.85553334037044 163.84329032418307 156.85553334037044 C 166.05242932350626 156.85553334037044 167.84329032418307 158.64639434104726 167.84329032418307 160.85553334037044 Z" stroke-opacity="1" stroke-linecap="round" stroke-linejoin="round" stroke-miterlimit="10"/><path fill="rgb(255,102,153)" stroke="none" paint-order="stroke fill markers" d=" M 629.6632262451024 160.85553334037044 C 629.6632262451024 163.06467233969363 627.8723652444255 164.85553334037044 625.6632262451024 164.85553334037044 C 623.4540872457792 164.85553334037044 621.6632262451024 163.06467233969363 621.6632262451024 160.85553334037044 C 621.6632262451024 158.64639434104726 623.4540872457792 156.85553334037044 625.6632262451024 156.85553334037044 C 627.8723652444255 156.85553334037044 629.6632262451024 158.64639434104726 629.6632262451024 160.85553334037044 Z" fill-opacity="1"/><path fill="none" stroke="rgb(0,0,0)" paint-order="fill stroke markers" d=" M 629.6632262451024 160.85553334037044 C 629.6632262451024 163.06467233969363 627.8723652444255 164.85553334037044 625.6632262451024 164.85553334037044 C 623.4540872457792 164.85553334037044 621.6632262451024 163.06467233969363 621.6632262451024 160.85553334037044 C 621.6632262451024 158.64639434104726 623.4540872457792 156.85553334037044 625.6632262451024 156.85553334037044 C 627.8723652444255 156.85553334037044 629.6632262451024 158.64639434104726 629.6632262451024 160.85553334037044 Z" stroke-opacity="1" stroke-linecap="round" stroke-linejoin="round" stroke-miterlimit="10"/><path fill="rgb(204,102,255)" stroke="none" paint-order="stroke fill markers" d=" M 219.15661653761856 160.85553334037044 C 219.15661653761856 163.06467233969363 217.36575553694172 164.85553334037044 215.15661653761856 164.85553334037044 C 212.94747753829537 164.85553334037044 211.15661653761856 163.06467233969363 211.15661653761856 160.85553334037044 C 211.15661653761856 158.64639434104726 212.94747753829537 156.85553334037044 215.15661653761856 156.85553334037044 C 217.36575553694172 156.85553334037044 219.15661653761856 158.64639434104726 219.15661653761856 160.85553334037044 Z" fill-opacity="1"/><path fill="none" stroke="rgb(0,0,0)" paint-order="fill stroke markers" d=" M 219.15661653761856 160.85553334037044 C 219.15661653761856 163.06467233969363 217.36575553694172 164.85553334037044 215.15661653761856 164.85553334037044 C 212.94747753829537 164.85553334037044 211.15661653761856 163.06467233969363 211.15661653761856 160.85553334037044 C 211.15661653761856 158.64639434104726 212.94747753829537 156.85553334037044 215.15661653761856 156.85553334037044 C 217.36575553694172 156.85553334037044 219.15661653761856 158.64639434104726 219.15661653761856 160.85553334037044 Z" stroke-opacity="1" stroke-linecap="round" stroke-linejoin="round" stroke-miterlimit="10"/><path fill="rgb(102,204,255)" stroke="none" paint-order="stroke fill markers" d=" M 219.15661653761856 109.54220712693493 C 219.15661653761856 111.7513461262581 217.36575553694172 113.54220712693493 215.15661653761856 113.54220712693493 C 212.94747753829537 113.54220712693493 211.15661653761856 111.7513461262581 211.15661653761856 109.54220712693493 C 211.15661653761856 107.33306812761175 212.94747753829537 105.54220712693493 215.15661653761856 105.54220712693493 C 217.36575553694172 105.54220712693493 219.15661653761856 107.33306812761175 219.15661653761856 109.54220712693493 Z" fill-opacity="1"/><path fill="none" stroke="rgb(0,0,0)" paint-order="fill stroke markers" d=" M 219.15661653761856 109.54220712693493 C 219.15661653761856 111.7513461262581 217.36575553694172 113.54220712693493 215.15661653761856 113.54220712693493 C 212.94747753829537 113.54220712693493 211.15661653761856 111.7513461262581 211.15661653761856 109.54220712693493 C 211.15661653761856 107.33306812761175 212.94747753829537 105.54220712693493 215.15661653761856 105.54220712693493 C 217.36575553694172 105.54220712693493 219.15661653761856 107.33306812761175 219.15661653761856 109.54220712693493 Z" stroke-opacity="1" stroke-linecap="round" stroke-linejoin="round" stroke-miterlimit="10"/><path fill="rgb(255,153,0)" stroke="none" paint-order="stroke fill markers" d=" M 167.84329032418307 109.54220712693493 C 167.84329032418307 111.7513461262581 166.05242932350626 113.54220712693493 163.84329032418307 113.54220712693493 C 161.6341513248599 113.54220712693493 159.84329032418307 111.7513461262581 159.84329032418307 109.54220712693493 C 159.84329032418307 107.33306812761175 161.6341513248599 105.54220712693493 163.84329032418307 105.54220712693493 C 166.05242932350626 105.54220712693493 167.84329032418307 107.33306812761175 167.84329032418307 109.54220712693493 Z" fill-opacity="1"/><path fill="none" stroke="rgb(0,0,0)" paint-order="fill stroke markers" d=" M 167.84329032418307 109.54220712693493 C 167.84329032418307 111.7513461262581 166.05242932350626 113.54220712693493 163.84329032418307 113.54220712693493 C 161.6341513248599 113.54220712693493 159.84329032418307 111.7513461262581 159.84329032418307 109.54220712693493 C 159.84329032418307 107.33306812761175 161.6341513248599 105.54220712693493 163.84329032418307 105.54220712693493 C 166.05242932350626 105.54220712693493 167.84329032418307 107.33306812761175 167.84329032418307 109.54220712693493 Z" stroke-opacity="1" stroke-linecap="round" stroke-linejoin="round" stroke-miterlimit="10"/><path fill="rgb(204,102,255)" stroke="none" paint-order="stroke fill markers" d=" M 680.9765524585378 160.85553334037044 C 680.9765524585378 163.06467233969363 679.1856914578609 164.85553334037044 676.9765524585378 164.85553334037044 C 674.7674134592146 164.85553334037044 672.9765524585378 163.06467233969363 672.9765524585378 160.85553334037044 C 672.9765524585378 158.64639434104726 674.7674134592146 156.85553334037044 676.9765524585378 156.85553334037044 C 679.1856914578609 156.85553334037044 680.9765524585378 158.64639434104726 680.9765524585378 160.85553334037044 Z" fill-opacity="1"/><path fill="none" stroke="rgb(0,0,0)" paint-order="fill stroke markers" d=" M 680.9765524585378 160.85553334037044 C 680.9765524585378 163.06467233969363 679.1856914578609 164.85553334037044 676.9765524585378 164.85553334037044 C 674.7674134592146 164.85553334037044 672.9765524585378 163.06467233969363 672.9765524585378 160.85553334037044 C 672.9765524585378 158.64639434104726 674.7674134592146 156.85553334037044 676.9765524585378 156.85553334037044 C 679.1856914578609 156.85553334037044 680.9765524585378 158.64639434104726 680.9765524585378 160.85553334037044 Z" stroke-opacity="1" stroke-linecap="round" stroke-linejoin="round" stroke-miterlimit="10"/><path fill="rgb(102,204,255)" stroke="none" paint-order="stroke fill markers" d=" M 680.9765524585378 109.54220712693493 C 680.9765524585378 111.7513461262581 679.1856914578609 113.54220712693493 676.9765524585378 113.54220712693493 C 674.7674134592146 113.54220712693493 672.9765524585378 111.7513461262581 672.9765524585378 109.54220712693493 C 672.9765524585378 107.33306812761175 674.7674134592146 105.54220712693493 676.9765524585378 105.54220712693493 C 679.1856914578609 105.54220712693493 680.9765524585378 107.33306812761175 680.9765524585378 109.54220712693493 Z" fill-opacity="1"/><path fill="none" stroke="rgb(0,0,0)" paint-order="fill stroke markers" d=" M 680.9765524585378 109.54220712693493 C 680.9765524585378 111.7513461262581 679.1856914578609 113.54220712693493 676.9765524585378 113.54220712693493 C 674.7674134592146 113.54220712693493 672.9765524585378 111.7513461262581 672.9765524585378 109.54220712693493 C 672.9765524585378 107.33306812761175 674.7674134592146 105.54220712693493 676.9765524585378 105.54220712693493 C 679.1856914578609 105.54220712693493 680.9765524585378 107.33306812761175 680.9765524585378 109.54220712693493 Z" stroke-opacity="1" stroke-linecap="round" stroke-linejoin="round" stroke-miterlimit="10"/><path fill="rgb(255,153,0)" stroke="none" paint-order="stroke fill markers" d=" M 629.6632262451024 109.54220712693493 C 629.6632262451024 111.7513461262581 627.8723652444255 113.54220712693493 625.6632262451024 113.54220712693493 C 623.4540872457792 113.54220712693493 621.6632262451024 111.7513461262581 621.6632262451024 109.54220712693493 C 621.6632262451024 107.33306812761175 623.4540872457792 105.54220712693493 625.6632262451024 105.54220712693493 C 627.8723652444255 105.54220712693493 629.6632262451024 107.33306812761175 629.6632262451024 109.54220712693493 Z" fill-opacity="1"/><path fill="none" stroke="rgb(0,0,0)" paint-order="fill stroke markers" d=" M 629.6632262451024 109.54220712693493 C 629.6632262451024 111.7513461262581 627.8723652444255 113.54220712693493 625.6632262451024 113.54220712693493 C 623.4540872457792 113.54220712693493 621.6632262451024 111.7513461262581 621.6632262451024 109.54220712693493 C 621.6632262451024 107.33306812761175 623.4540872457792 105.54220712693493 625.6632262451024 105.54220712693493 C 627.8723652444255 105.54220712693493 629.6632262451024 107.33306812761175 629.6632262451024 109.54220712693493 Z" stroke-opacity="1" stroke-linecap="round" stroke-linejoin="round" stroke-miterlimit="10"/><g transform="scale(27,27)"><g transform="translate(5.555555555555555,12.8640028)"><path fill="rgb(0,100,0)" stroke="none" paint-order="stroke fill markers" d=" M 0.268 -0.314 L 0.268 -0.314 L 0.268 -0.092 Q 0.268 -0.051000000000000004 0.28 -0.043000000000000003 Q 0.291 -0.035 0.329 -0.035 Q 0.357 -0.035 0.357 -0.018000000000000002 Q 0.34800000000000003 -0.001 0.324 0 L 0.05 0 Q 0.02 0 0.017 -0.012 Q 0.016 -0.015 0.016 -0.018000000000000002 Q 0.016 -0.035 0.043000000000000003 -0.035 Q 0.09 -0.035 0.099 -0.049 Q 0.10400000000000001 -0.057 0.105 -0.077 L 0.105 -0.092 L 0.105 -0.593 Q 0.105 -0.635 0.092 -0.643 Q 0.081 -0.65 0.043000000000000003 -0.65 Q 0.016 -0.65 0.016 -0.667 Q 0.024 -0.684 0.05 -0.685 L 0.364 -0.685 Q 0.494 -0.685 0.5690000000000001 -0.625 L 0.5700000000000001 -0.624 Q 0.611 -0.59 0.624 -0.541 Q 0.629 -0.521 0.629 -0.498 Q 0.629 -0.369 0.489 -0.333 Q 0.47300000000000003 -0.328 0.454 -0.325 Q 0.495 -0.259 0.578 -0.14100000000000001 Q 0.652 -0.043000000000000003 0.6880000000000001 -0.035 Q 0.7030000000000001 -0.032 0.7030000000000001 -0.018000000000000002 Q 0.6940000000000001 -0.001 0.67 0 L 0.532 0 Q 0.508 0 0.503 -0.007 Q 0.501 -0.009000000000000001 0.499 -0.012 L 0.454 -0.082 L 0.304 -0.314 L 0.268 -0.314 M 0.461 -0.363 L 0.461 -0.363 Q 0.583 -0.385 0.593 -0.47800000000000004 Q 0.594 -0.488 0.594 -0.498 Q 0.594 -0.595 0.482 -0.631 Q 0.468 -0.636 0.454 -0.639 Q 0.492 -0.59 0.492 -0.497 Q 0.492 -0.404 0.461 -0.363 M 0.268 -0.596 L 0.268 -0.34900000000000003 Q 0.385 -0.34900000000000003 0.42 -0.373 Q 0.429 -0.38 0.436 -0.39 Q 0.457 -0.419 0.457 -0.497 Q 0.457 -0.613 0.395 -0.639 Q 0.37 -0.65 0.33 -0.65 Q 0.271 -0.65 0.268 -0.607 L 0.268 -0.596 M 0.132 -0.035 L 0.241 -0.035 Q 0.233 -0.053 0.233 -0.09 L 0.233 -0.599 Q 0.233 -0.634 0.246 -0.65 L 0.132 -0.65 Q 0.14 -0.632 0.14 -0.595 L 0.14 -0.09 Q 0.14 -0.053 0.132 -0.035 M 0.34500000000000003 -0.314 L 0.525 -0.035 L 0.622 -0.035 Q 0.548 -0.109 0.41600000000000004 -0.32 Q 0.386 -0.316 0.364 -0.316 Q 0.359 -0.316 0.34500000000000003 -0.314 Z"/></g><g transform="translate(6.277779555555555,12.4511108) scale(0.7,0.7)"><path fill="rgb(0,100,0)" stroke="none" paint-order="stroke fill markers" d=" M 0.449 -0.17400000000000002 L 0.449 -0.17400000000000002 L 0.421 0 L 0.05 0 Q 0.05 -0.025 0.056 -0.032 L 0.061 -0.037 L 0.253 -0.251 Q 0.358 -0.369 0.358 -0.47200000000000003 Q 0.358 -0.561 0.304 -0.607 L 0.303 -0.608 L 0.302 -0.608 Q 0.27 -0.635 0.224 -0.635 Q 0.152 -0.635 0.109 -0.5730000000000001 Q 0.097 -0.555 0.089 -0.533 Q 0.092 -0.534 0.10200000000000001 -0.534 Q 0.14200000000000002 -0.534 0.153 -0.498 L 0.153 -0.497 Q 0.155 -0.49 0.155 -0.482 Q 0.155 -0.442 0.117 -0.431 Q 0.109 -0.429 0.10300000000000001 -0.429 Q 0.066 -0.429 0.054 -0.46 Q 0.05 -0.47100000000000003 0.05 -0.485 Q 0.05 -0.562 0.109 -0.617 Q 0.162 -0.666 0.23700000000000002 -0.666 Q 0.34700000000000003 -0.666 0.40800000000000003 -0.592 Q 0.443 -0.549 0.448 -0.49 Q 0.449 -0.481 0.449 -0.47200000000000003 Q 0.449 -0.399 0.394 -0.333 Q 0.365 -0.299 0.304 -0.243 L 0.243 -0.189 L 0.233 -0.18 L 0.127 -0.077 L 0.307 -0.077 Q 0.395 -0.077 0.402 -0.085 Q 0.41200000000000003 -0.099 0.424 -0.17400000000000002 L 0.449 -0.17400000000000002 Z"/></g></g><g transform="scale(27,27)"><g transform="translate(22.74074074074074,12.8640028)"><path fill="rgb(0,100,0)" stroke="none" paint-order="stroke fill markers" d=" M 0.268 -0.314 L 0.268 -0.314 L 0.268 -0.092 Q 0.268 -0.051000000000000004 0.28 -0.043000000000000003 Q 0.291 -0.035 0.329 -0.035 Q 0.357 -0.035 0.357 -0.018000000000000002 Q 0.34800000000000003 -0.001 0.324 0 L 0.05 0 Q 0.02 0 0.017 -0.012 Q 0.016 -0.015 0.016 -0.018000000000000002 Q 0.016 -0.035 0.043000000000000003 -0.035 Q 0.09 -0.035 0.099 -0.049 Q 0.10400000000000001 -0.057 0.105 -0.077 L 0.105 -0.092 L 0.105 -0.593 Q 0.105 -0.635 0.092 -0.643 Q 0.081 -0.65 0.043000000000000003 -0.65 Q 0.016 -0.65 0.016 -0.667 Q 0.024 -0.684 0.05 -0.685 L 0.364 -0.685 Q 0.494 -0.685 0.5690000000000001 -0.625 L 0.5700000000000001 -0.624 Q 0.611 -0.59 0.624 -0.541 Q 0.629 -0.521 0.629 -0.498 Q 0.629 -0.369 0.489 -0.333 Q 0.47300000000000003 -0.328 0.454 -0.325 Q 0.495 -0.259 0.578 -0.14100000000000001 Q 0.652 -0.043000000000000003 0.6880000000000001 -0.035 Q 0.7030000000000001 -0.032 0.7030000000000001 -0.018000000000000002 Q 0.6940000000000001 -0.001 0.67 0 L 0.532 0 Q 0.508 0 0.503 -0.007 Q 0.501 -0.009000000000000001 0.499 -0.012 L 0.454 -0.082 L 0.304 -0.314 L 0.268 -0.314 M 0.461 -0.363 L 0.461 -0.363 Q 0.583 -0.385 0.593 -0.47800000000000004 Q 0.594 -0.488 0.594 -0.498 Q 0.594 -0.595 0.482 -0.631 Q 0.468 -0.636 0.454 -0.639 Q 0.492 -0.59 0.492 -0.497 Q 0.492 -0.404 0.461 -0.363 M 0.268 -0.596 L 0.268 -0.34900000000000003 Q 0.385 -0.34900000000000003 0.42 -0.373 Q 0.429 -0.38 0.436 -0.39 Q 0.457 -0.419 0.457 -0.497 Q 0.457 -0.613 0.395 -0.639 Q 0.37 -0.65 0.33 -0.65 Q 0.271 -0.65 0.268 -0.607 L 0.268 -0.596 M 0.132 -0.035 L 0.241 -0.035 Q 0.233 -0.053 0.233 -0.09 L 0.233 -0.599 Q 0.233 -0.634 0.246 -0.65 L 0.132 -0.65 Q 0.14 -0.632 0.14 -0.595 L 0.14 -0.09 Q 0.14 -0.053 0.132 -0.035 M 0.34500000000000003 -0.314 L 0.525 -0.035 L 0.622 -0.035 Q 0.548 -0.109 0.41600000000000004 -0.32 Q 0.386 -0.316 0.364 -0.316 Q 0.359 -0.316 0.34500000000000003 -0.314 Z"/></g><g transform="translate(23.46296474074074,12.4511108) scale(0.7,0.7)"><path fill="rgb(0,100,0)" stroke="none" paint-order="stroke fill markers" d=" M 0.449 -0.17400000000000002 L 0.449 -0.17400000000000002 L 0.421 0 L 0.05 0 Q 0.05 -0.025 0.056 -0.032 L 0.061 -0.037 L 0.253 -0.251 Q 0.358 -0.369 0.358 -0.47200000000000003 Q 0.358 -0.561 0.304 -0.607 L 0.303 -0.608 L 0.302 -0.608 Q 0.27 -0.635 0.224 -0.635 Q 0.152 -0.635 0.109 -0.5730000000000001 Q 0.097 -0.555 0.089 -0.533 Q 0.092 -0.534 0.10200000000000001 -0.534 Q 0.14200000000000002 -0.534 0.153 -0.498 L 0.153 -0.497 Q 0.155 -0.49 0.155 -0.482 Q 0.155 -0.442 0.117 -0.431 Q 0.109 -0.429 0.10300000000000001 -0.429 Q 0.066 -0.429 0.054 -0.46 Q 0.05 -0.47100000000000003 0.05 -0.485 Q 0.05 -0.562 0.109 -0.617 Q 0.162 -0.666 0.23700000000000002 -0.666 Q 0.34700000000000003 -0.666 0.40800000000000003 -0.592 Q 0.443 -0.549 0.448 -0.49 Q 0.449 -0.481 0.449 -0.47200000000000003 Q 0.449 -0.399 0.394 -0.333 Q 0.365 -0.299 0.304 -0.243 L 0.243 -0.189 L 0.233 -0.18 L 0.127 -0.077 L 0.307 -0.077 Q 0.395 -0.077 0.402 -0.085 Q 0.41200000000000003 -0.099 0.424 -0.17400000000000002 L 0.449 -0.17400000000000002 Z"/></g></g></g></g></svg>