<svg version="1.1" xmlns="http://www.w3.org/2000/svg" xmlns:xlink="http://www.w3.org/1999/xlink" width="743" height="205"><defs><clipPath id="cDsvGUXlAAAf"><path fill="none" stroke="none" d=" M 0 0 L 743 0 L 743 205 L 0 205 L 0 0 Z"/></clipPath></defs><g transform="scale(1,1)" clip-path="url(#cDsvGUXlAAAf)"><g><path fill="rgb(128,128,128)" stroke="none" paint-order="stroke fill markers" fill-rule="evenodd" d=" M 137.8501748946228 134.2350654839949 L 137.8501748946228 71.64941616288218 L 200.43582421573538 71.64941616288218 L 200.43582421573538 134.2350654839949 Z" fill-opacity="0.09803921568627451"/><path fill="rgb(128,128,128)" stroke="none" paint-order="stroke fill markers" fill-rule="evenodd" d=" M 513.3640708212984 134.2350654839949 L 575.9497201424109 134.2350654839949 L 607.2425448029671 71.64941616288218 L 544.6568954818546 71.64941616288218 Z" fill-opacity="0.09803921568627451"/><path fill="none" stroke="rgb(128,128,128)" paint-order="fill stroke markers" d=" M 137.8501748946228 134.2350654839949 L 137.8501748946228 71.64941616288218" stroke-opacity="1" stroke-linecap="round" stroke-linejoin="round" stroke-miterlimit="10" stroke-width="1.5"/><path fill="none" stroke="rgb(128,128,128)" paint-order="fill stroke markers" d=" M 137.8501748946228 71.64941616288218 L 200.43582421573538 71.64941616288218" stroke-opacity="1" stroke-linecap="round" stroke-linejoin="round" stroke-miterlimit="10" stroke-width="1.5"/><path fill="none" stroke="rgb(128,128,128)" paint-order="fill stroke markers" d=" M 200.43582421573538 71.64941616288218 L 200.43582421573538 134.2350654839949" stroke-opacity="1" stroke-linecap="round" stroke-linejoin="round" stroke-miterlimit="10" stroke-width="1.5"/><path fill="none" stroke="rgb(128,128,128)" paint-order="fill stroke markers" d=" M 200.43582421573538 134.2350654839949 L 137.8501748946228 134.2350654839949" stroke-opacity="1" stroke-linecap="round" stroke-linejoin="round" stroke-miterlimit="10" stroke-width="1.5"/><path fill="none" stroke="rgb(128,128,128)" paint-order="fill stroke markers" d=" M 513.3640708212984 134.2350654839949 L 575.9497201424109 134.2350654839949" stroke-opacity="1" stroke-linecap="round" stroke-linejoin="round" stroke-miterlimit="10"/><path fill="none" stroke="rgb(128,128,128)" paint-order="fill stroke markers" d=" M 575.9497201424109 134.2350654839949 L 607.2425448029671 71.64941616288218" stroke-opacity="1" stroke-linecap="round" stroke-linejoin="round" stroke-miterlimit="10"/><path fill="none" stroke="rgb(128,128,128)" paint-order="fill stroke markers" d=" M 607.2425448029671 71.64941616288218 L 544.6568954818546 71.64941616288218" stroke-opacity="1" stroke-linecap="round" stroke-linejoin="round" stroke-miterlimit="10"/><path fill="none" stroke="rgb(128,128,128)" paint-order="fill stroke markers" d=" M 544.6568954818546 71.64941616288218 L 513.3640708212984 134.2350654839949" stroke-opacity="1" stroke-linecap="round" stroke-linejoin="round" stroke-miterlimit="10"/><path fill="none" stroke="rgb(192,192,192)" paint-order="fill stroke markers" d=" M 513.3640708212984 71.64941616288218 L 544.6568954818546 71.64941616288218" stroke-opacity="0.6980392156862745" stroke-linejoin="round" stroke-miterlimit="10" stroke-dasharray="5,4"/><path fill="none" stroke="rgb(192,192,192)" paint-order="fill stroke markers" d=" M 607.2425448029671 71.64941616288218 L 607.2425448029671 134.2350654839949" stroke-opacity="0.6980392156862745" stroke-linejoin="round" stroke-miterlimit="10" stroke-dasharray="5,4"/><path fill="none" stroke="rgb(0,0,0)" paint-order="fill stroke markers" d=" M 75.26452557351021 134.2350654839949 L 249.02147353684796 134.2350654839949" stroke-opacity="1" stroke-linecap="round" stroke-linejoin="round" stroke-miterlimit="10"/><path fill="rgb(0,0,0)" stroke="none" paint-order="stroke fill markers" fill-rule="evenodd" d=" M 263.02147353684796 134.2350654839949 L 249.02147353684796 137.7350654839949 L 249.02147353684796 130.7350654839949 Z" fill-opacity="1"/><path fill="none" stroke="rgb(0,0,0)" paint-order="fill stroke markers" d=" M 137.8501748946228 196.82071480510763 L 137.8501748946228 23.06376684176945" stroke-opacity="1" stroke-linecap="round" stroke-linejoin="round" stroke-miterlimit="10"/><path fill="rgb(0,0,0)" stroke="none" paint-order="stroke fill markers" fill-rule="evenodd" d=" M 137.8501748946228 9.06376684176945 L 141.3501748946228 23.06376684176945 L 134.3501748946228 23.06376684176945 Z" fill-opacity="1"/><path fill="none" stroke="rgb(0,0,0)" paint-order="fill stroke markers" d=" M 137.8501748946228 134.2350654839949 L 190.53632927912372 81.54891109949385" stroke-opacity="1" stroke-linecap="round" stroke-linejoin="round" stroke-miterlimit="10"/><path fill="rgb(0,0,0)" stroke="none" paint-order="stroke fill markers" fill-rule="evenodd" d=" M 200.43582421573538 71.64941616288218 L 193.01120301327663 84.02378483364676 L 188.0614555449708 79.07403736534094 Z" fill-opacity="1"/><path fill="none" stroke="rgb(0,0,0)" paint-order="fill stroke markers" d=" M 450.7784215001857 134.2350654839949 L 624.5353694635235 134.2350654839949" stroke-opacity="1" stroke-linecap="round" stroke-linejoin="round" stroke-miterlimit="10"/><path fill="rgb(0,0,0)" stroke="none" paint-order="stroke fill markers" fill-rule="evenodd" d=" M 638.5353694635235 134.2350654839949 L 624.5353694635235 137.7350654839949 L 624.5353694635235 130.7350654839949 Z" fill-opacity="1"/><path fill="none" stroke="rgb(0,0,0)" paint-order="fill stroke markers" d=" M 513.3640708212984 196.82071480510763 L 513.3640708212984 23.06376684176945" stroke-opacity="1" stroke-linecap="round" stroke-linejoin="round" stroke-miterlimit="10"/><path fill="rgb(0,0,0)" stroke="none" paint-order="stroke fill markers" fill-rule="evenodd" d=" M 513.3640708212984 9.06376684176945 L 516.8640708212984 23.06376684176945 L 509.86407082129836 23.06376684176945 Z" fill-opacity="1"/><path fill="none" stroke="rgb(0,0,0)" paint-order="fill stroke markers" d=" M 513.3640708212984 134.2350654839949 L 595.5938406822373 79.4152189100354" stroke-opacity="1" stroke-linecap="round" stroke-linejoin="round" stroke-miterlimit="10"/><path fill="rgb(0,0,0)" stroke="none" paint-order="stroke fill markers" fill-rule="evenodd" d=" M 607.2425448029671 71.64941616288218 L 597.5352913690257 82.32739494021786 L 593.652389995449 76.50304287985296 Z" fill-opacity="1"/><path fill="none" stroke="rgb(0,0,0)" paint-order="fill stroke markers" d=" M 302 108 L 413.17129864222517 108" stroke-opacity="0.6980392156862745" stroke-linecap="round" stroke-linejoin="round" stroke-miterlimit="10"/><path fill="rgb(0,0,0)" stroke="none" paint-order="stroke fill markers" fill-rule="evenodd" d=" M 427.17129864222517 108 L 413.17129864222517 111.5 L 413.17129864222517 104.5 Z" fill-opacity="0.6980392156862745"/><g transform="scale(27,27)"><g transform="translate(12.962962962962964,3.3527776666666664)"><path fill="rgb(0,0,0)" stroke="none" paint-order="stroke fill markers" d=" M 0.645 -0.682 L 0.739 -0.067 Q 0.741 -0.054 0.7435 -0.051500000000000004 Q 0.746 -0.049 0.755 -0.048 Q 0.769 -0.047 0.794 -0.047 Q 0.81 -0.047 0.8165 -0.0465 Q 0.8230000000000001 -0.046 0.8285 -0.042 Q 0.834 -0.038 0.834 -0.029 Q 0.834 -0.016 0.8280000000000001 -0.009000000000000001 Q 0.8220000000000001 -0.002 0.8175 -0.001 Q 0.8130000000000001 0 0.806 0 Q 0.794 0 0.771 -0.001 Q 0.748 -0.002 0.736 -0.002 Q 0.724 -0.002 0.7010000000000001 -0.0025 Q 0.678 -0.003 0.667 -0.003 Q 0.65 -0.003 0.592 -0.0015 Q 0.534 0 0.518 0 Q 0.496 0 0.496 -0.018000000000000002 Q 0.496 -0.032 0.502 -0.0385 Q 0.508 -0.045 0.514 -0.046 Q 0.52 -0.047 0.533 -0.047 Q 0.5740000000000001 -0.047 0.598 -0.052000000000000005 L 0.5750000000000001 -0.198 L 0.305 -0.198 L 0.213 -0.058 Q 0.23500000000000001 -0.047 0.271 -0.047 Q 0.297 -0.047 0.297 -0.029 Q 0.297 0 0.27 0 Q 0.252 0 0.215 -0.0015 Q 0.178 -0.003 0.159 -0.003 Q 0.14300000000000002 -0.003 0.111 -0.0015 Q 0.079 0 0.064 0 Q 0.056 0 0.0505 -0.0055 Q 0.045 -0.011 0.045 -0.018000000000000002 Q 0.045 -0.031 0.051000000000000004 -0.038 Q 0.057 -0.045 0.062 -0.046 Q 0.067 -0.047 0.077 -0.047 Q 0.111 -0.047 0.132 -0.0535 Q 0.153 -0.06 0.1595 -0.0665 Q 0.166 -0.073 0.17400000000000002 -0.085 L 0.5670000000000001 -0.686 Q 0.577 -0.7020000000000001 0.5855 -0.7065 Q 0.594 -0.711 0.611 -0.711 Q 0.63 -0.711 0.636 -0.706 Q 0.642 -0.7010000000000001 0.645 -0.682 M 0.524 -0.533 L 0.336 -0.245 L 0.5680000000000001 -0.245 L 0.524 -0.533 Z"/></g></g><path fill="rgb(0,0,0)" stroke="none" paint-order="stroke fill markers" d=" M 201.43582421573538 134.2350654839949 C 201.43582421573538 134.7873502338257 200.98810896556617 135.2350654839949 200.43582421573538 135.2350654839949 C 199.8835394659046 135.2350654839949 199.43582421573538 134.7873502338257 199.43582421573538 134.2350654839949 C 199.43582421573538 133.6827807341641 199.8835394659046 133.2350654839949 200.43582421573538 133.2350654839949 C 200.98810896556617 133.2350654839949 201.43582421573538 133.6827807341641 201.43582421573538 134.2350654839949 Z" fill-opacity="1"/><path fill="none" stroke="rgb(0,0,0)" paint-order="fill stroke markers" d=" M 201.43582421573538 134.2350654839949 C 201.43582421573538 134.7873502338257 200.98810896556617 135.2350654839949 200.43582421573538 135.2350654839949 C 199.8835394659046 135.2350654839949 199.43582421573538 134.7873502338257 199.43582421573538 134.2350654839949 C 199.43582421573538 133.6827807341641 199.8835394659046 133.2350654839949 200.43582421573538 133.2350654839949 C 200.98810896556617 133.2350654839949 201.43582421573538 133.6827807341641 201.43582421573538 134.2350654839949 Z" stroke-opacity="1" stroke-linecap="round" stroke-linejoin="round" stroke-miterlimit="10"/><path fill="rgb(0,0,0)" stroke="none" paint-order="stroke fill markers" d=" M 138.8501748946228 71.64941616288218 C 138.8501748946228 72.20170091271297 138.4024596444536 72.64941616288218 137.8501748946228 72.64941616288218 C 137.297890144792 72.64941616288218 136.8501748946228 72.20170091271297 136.8501748946228 71.64941616288218 C 136.8501748946228 71.09713141305139 137.297890144792 70.64941616288218 137.8501748946228 70.64941616288218 C 138.4024596444536 70.64941616288218 138.8501748946228 71.09713141305139 138.8501748946228 71.64941616288218 Z" fill-opacity="1"/><path fill="none" stroke="rgb(0,0,0)" paint-order="fill stroke markers" d=" M 138.8501748946228 71.64941616288218 C 138.8501748946228 72.20170091271297 138.4024596444536 72.64941616288218 137.8501748946228 72.64941616288218 C 137.297890144792 72.64941616288218 136.8501748946228 72.20170091271297 136.8501748946228 71.64941616288218 C 136.8501748946228 71.09713141305139 137.297890144792 70.64941616288218 137.8501748946228 70.64941616288218 C 138.4024596444536 70.64941616288218 138.8501748946228 71.09713141305139 138.8501748946228 71.64941616288218 Z" stroke-opacity="1" stroke-linecap="round" stroke-linejoin="round" stroke-miterlimit="10"/><path fill="rgb(0,0,0)" stroke="none" paint-order="stroke fill markers" d=" M 514.3640708212984 71.64941616288218 C 514.3640708212984 72.20170091271297 513.9163555711292 72.64941616288218 513.3640708212984 72.64941616288218 C 512.8117860714675 72.64941616288218 512.3640708212984 72.20170091271297 512.3640708212984 71.64941616288218 C 512.3640708212984 71.09713141305139 512.8117860714675 70.64941616288218 513.3640708212984 70.64941616288218 C 513.9163555711292 70.64941616288218 514.3640708212984 71.09713141305139 514.3640708212984 71.64941616288218 Z" fill-opacity="1"/><path fill="none" stroke="rgb(0,0,0)" paint-order="fill stroke markers" d=" M 514.3640708212984 71.64941616288218 C 514.3640708212984 72.20170091271297 513.9163555711292 72.64941616288218 513.3640708212984 72.64941616288218 C 512.8117860714675 72.64941616288218 512.3640708212984 72.20170091271297 512.3640708212984 71.64941616288218 C 512.3640708212984 71.09713141305139 512.8117860714675 70.64941616288218 513.3640708212984 70.64941616288218 C 513.9163555711292 70.64941616288218 514.3640708212984 71.09713141305139 514.3640708212984 71.64941616288218 Z" stroke-opacity="1" stroke-linecap="round" stroke-linejoin="round" stroke-miterlimit="10"/><path fill="rgb(0,0,0)" stroke="none" paint-order="stroke fill markers" d=" M 608.2425448029671 134.2350654839949 C 608.2425448029671 134.7873502338257 607.794829552798 135.2350654839949 607.2425448029671 135.2350654839949 C 606.6902600531363 135.2350654839949 606.2425448029671 134.7873502338257 606.2425448029671 134.2350654839949 C 606.2425448029671 133.6827807341641 606.6902600531363 133.2350654839949 607.2425448029671 133.2350654839949 C 607.794829552798 133.2350654839949 608.2425448029671 133.6827807341641 608.2425448029671 134.2350654839949 Z" fill-opacity="1"/><path fill="none" stroke="rgb(0,0,0)" paint-order="fill stroke markers" d=" M 608.2425448029671 134.2350654839949 C 608.2425448029671 134.7873502338257 607.794829552798 135.2350654839949 607.2425448029671 135.2350654839949 C 606.6902600531363 135.2350654839949 606.2425448029671 134.7873502338257 606.2425448029671 134.2350654839949 C 606.2425448029671 133.6827807341641 606.6902600531363 133.2350654839949 607.2425448029671 133.2350654839949 C 607.794829552798 133.2350654839949 608.2425448029671 133.6827807341641 608.2425448029671 134.2350654839949 Z" stroke-opacity="1" stroke-linecap="round" stroke-linejoin="round" stroke-miterlimit="10"/></g></g></svg>