<svg version="1.1" xmlns="http://www.w3.org/2000/svg" xmlns:xlink="http://www.w3.org/1999/xlink" width="879" height="232"><defs><clipPath id="gleKSFegvBAX"><path fill="none" stroke="none" d=" M 0 0 L 879 0 L 879 232 L 0 232 L 0 0 Z"/></clipPath></defs><g transform="scale(1,1)" clip-path="url(#gleKSFegvBAX)"><g><path fill="rgb(128,128,128)" stroke="none" paint-order="stroke fill markers" fill-rule="evenodd" d=" M 99.42875868796226 149.57553431052696 L 99.42875868796226 88.48001949705983 L 160.52427350142918 88.48001949705983 L 160.52427350142918 149.57553431052696 Z" fill-opacity="0.09803921568627451"/><path fill="rgb(128,128,128)" stroke="none" paint-order="stroke fill markers" fill-rule="evenodd" d=" M 404.9063327552969 149.57553431052696 L 466.0018475687638 149.57553431052696 L 496.5496049754973 88.48001949705983 L 435.45409016203035 88.48001949705983 Z" fill-opacity="0.09803921568627451"/><path fill="rgb(128,128,128)" stroke="none" paint-order="stroke fill markers" fill-rule="evenodd" d=" M 710.3839068226315 88.48001949705983 L 771.4794216360984 88.48001949705983 L 771.4794216360984 149.57553431052696 L 710.3839068226315 149.57553431052696 Z" fill-opacity="0.09803921568627451"/><path fill="none" stroke="rgb(128,128,128)" paint-order="fill stroke markers" d=" M 99.42875868796226 149.57553431052696 L 99.42875868796226 88.48001949705983" stroke-opacity="1" stroke-linecap="round" stroke-linejoin="round" stroke-miterlimit="10" stroke-width="1.5"/><path fill="none" stroke="rgb(128,128,128)" paint-order="fill stroke markers" d=" M 99.42875868796226 88.48001949705983 L 160.52427350142918 88.48001949705983" stroke-opacity="1" stroke-linecap="round" stroke-linejoin="round" stroke-miterlimit="10" stroke-width="1.5"/><path fill="none" stroke="rgb(128,128,128)" paint-order="fill stroke markers" d=" M 160.52427350142918 88.48001949705983 L 160.52427350142918 149.57553431052696" stroke-opacity="1" stroke-linecap="round" stroke-linejoin="round" stroke-miterlimit="10" stroke-width="1.5"/><path fill="none" stroke="rgb(128,128,128)" paint-order="fill stroke markers" d=" M 160.52427350142918 149.57553431052696 L 99.42875868796226 149.57553431052696" stroke-opacity="1" stroke-linecap="round" stroke-linejoin="round" stroke-miterlimit="10" stroke-width="1.5"/><path fill="none" stroke="rgb(128,128,128)" paint-order="fill stroke markers" d=" M 404.9063327552969 149.57553431052696 L 466.0018475687638 149.57553431052696" stroke-opacity="1" stroke-linecap="round" stroke-linejoin="round" stroke-miterlimit="10"/><path fill="none" stroke="rgb(128,128,128)" paint-order="fill stroke markers" d=" M 466.0018475687638 149.57553431052696 L 496.5496049754973 88.48001949705983" stroke-opacity="1" stroke-linecap="round" stroke-linejoin="round" stroke-miterlimit="10"/><path fill="none" stroke="rgb(128,128,128)" paint-order="fill stroke markers" d=" M 496.5496049754973 88.48001949705983 L 435.45409016203035 88.48001949705983" stroke-opacity="1" stroke-linecap="round" stroke-linejoin="round" stroke-miterlimit="10"/><path fill="none" stroke="rgb(128,128,128)" paint-order="fill stroke markers" d=" M 435.45409016203035 88.48001949705983 L 404.9063327552969 149.57553431052696" stroke-opacity="1" stroke-linecap="round" stroke-linejoin="round" stroke-miterlimit="10"/><path fill="none" stroke="rgb(192,192,192)" paint-order="fill stroke markers" d=" M 404.9063327552969 88.48001949705983 L 435.45409016203035 88.48001949705983" stroke-opacity="0.6980392156862745" stroke-linejoin="round" stroke-miterlimit="10" stroke-dasharray="5,4"/><path fill="none" stroke="rgb(192,192,192)" paint-order="fill stroke markers" d=" M 496.5496049754973 88.48001949705983 L 496.5496049754973 149.57553431052696" stroke-opacity="0.6980392156862745" stroke-linejoin="round" stroke-miterlimit="10" stroke-dasharray="5,4"/><path fill="none" stroke="rgb(128,128,128)" paint-order="fill stroke markers" d=" M 710.3839068226315 88.48001949705983 L 771.4794216360984 88.48001949705983" stroke-opacity="0.6980392156862745" stroke-linecap="round" stroke-linejoin="round" stroke-miterlimit="10"/><path fill="none" stroke="rgb(128,128,128)" paint-order="fill stroke markers" d=" M 771.4794216360984 88.48001949705983 L 771.4794216360984 149.57553431052696" stroke-opacity="0.6980392156862745" stroke-linecap="round" stroke-linejoin="round" stroke-miterlimit="10"/><path fill="none" stroke="rgb(128,128,128)" paint-order="fill stroke markers" d=" M 771.4794216360984 149.57553431052696 L 710.3839068226315 149.57553431052696" stroke-opacity="0.6980392156862745" stroke-linecap="round" stroke-linejoin="round" stroke-miterlimit="10"/><path fill="none" stroke="rgb(128,128,128)" paint-order="fill stroke markers" d=" M 710.3839068226315 149.57553431052696 L 710.3839068226315 88.48001949705983" stroke-opacity="0.6980392156862745" stroke-linecap="round" stroke-linejoin="round" stroke-miterlimit="10"/><path fill="none" stroke="rgb(0,0,0)" paint-order="fill stroke markers" d=" M 38.33324387449533 149.57553431052696 L 207.6197883148961 149.57553431052696" stroke-opacity="1" stroke-linecap="round" stroke-linejoin="round" stroke-miterlimit="10"/><path fill="rgb(0,0,0)" stroke="none" paint-order="stroke fill markers" fill-rule="evenodd" d=" M 221.6197883148961 149.57553431052696 L 207.6197883148961 153.07553431052696 L 207.6197883148961 146.07553431052696 Z" fill-opacity="1"/><path fill="none" stroke="rgb(0,0,0)" paint-order="fill stroke markers" d=" M 99.42875868796226 210.6710491239941 L 99.42875868796226 41.38450468359268" stroke-opacity="1" stroke-linecap="round" stroke-linejoin="round" stroke-miterlimit="10"/><path fill="rgb(0,0,0)" stroke="none" paint-order="stroke fill markers" fill-rule="evenodd" d=" M 99.42875868796226 27.38450468359268 L 102.92875868796226 41.38450468359268 L 95.92875868796226 41.38450468359268 Z" fill-opacity="1"/><path fill="none" stroke="rgb(0,0,0)" paint-order="fill stroke markers" d=" M 99.42875868796226 149.57553431052696 L 150.62477856481752 98.37951443367152" stroke-opacity="1" stroke-linecap="round" stroke-linejoin="round" stroke-miterlimit="10"/><path fill="rgb(0,0,0)" stroke="none" paint-order="stroke fill markers" fill-rule="evenodd" d=" M 160.52427350142918 88.48001949705983 L 153.09965229897043 100.85438816782442 L 148.1499048306646 95.90464069951861 Z" fill-opacity="1"/><path fill="none" stroke="rgb(0,0,0)" paint-order="fill stroke markers" d=" M 343.81081794182995 149.57553431052696 L 513.0973623822307 149.57553431052696" stroke-opacity="1" stroke-linecap="round" stroke-linejoin="round" stroke-miterlimit="10"/><path fill="rgb(0,0,0)" stroke="none" paint-order="stroke fill markers" fill-rule="evenodd" d=" M 527.0973623822307 149.57553431052696 L 513.0973623822307 153.07553431052696 L 513.0973623822307 146.07553431052696 Z" fill-opacity="1"/><path fill="none" stroke="rgb(0,0,0)" paint-order="fill stroke markers" d=" M 404.9063327552969 210.6710491239941 L 404.9063327552969 41.38450468359268" stroke-opacity="1" stroke-linecap="round" stroke-linejoin="round" stroke-miterlimit="10"/><path fill="rgb(0,0,0)" stroke="none" paint-order="stroke fill markers" fill-rule="evenodd" d=" M 404.9063327552969 27.38450468359268 L 408.4063327552969 41.38450468359268 L 401.4063327552969 41.38450468359268 Z" fill-opacity="1"/><path fill="none" stroke="rgb(0,0,0)" paint-order="fill stroke markers" d=" M 404.9063327552969 149.57553431052696 L 484.9009008547675 96.24582224421306" stroke-opacity="1" stroke-linecap="round" stroke-linejoin="round" stroke-miterlimit="10"/><path fill="rgb(0,0,0)" stroke="none" paint-order="stroke fill markers" fill-rule="evenodd" d=" M 496.5496049754973 88.48001949705983 L 486.8423515415558 99.15799827439551 L 482.9594501679792 93.33364621403061 Z" fill-opacity="1"/><path fill="none" stroke="rgb(0,0,0)" paint-order="fill stroke markers" d=" M 649.2883920091646 149.57553431052696 L 818.5749364495654 149.57553431052696" stroke-opacity="0.6980392156862745" stroke-linecap="round" stroke-linejoin="round" stroke-miterlimit="10"/><path fill="rgb(0,0,0)" stroke="none" paint-order="stroke fill markers" fill-rule="evenodd" d=" M 832.5749364495654 149.57553431052696 L 818.5749364495654 153.07553431052696 L 818.5749364495654 146.07553431052696 Z" fill-opacity="0.6980392156862745"/><path fill="none" stroke="rgb(0,0,0)" paint-order="fill stroke markers" d=" M 710.3839068226315 210.6710491239941 L 710.3839068226315 41.38450468359268" stroke-opacity="0.6980392156862745" stroke-linecap="round" stroke-linejoin="round" stroke-miterlimit="10"/><path fill="rgb(0,0,0)" stroke="none" paint-order="stroke fill markers" fill-rule="evenodd" d=" M 710.3839068226315 27.38450468359268 L 713.8839068226315 41.38450468359268 L 706.8839068226315 41.38450468359268 Z" fill-opacity="0.6980392156862745"/><path fill="none" stroke="rgb(0,0,0)" paint-order="fill stroke markers" d=" M 710.3839068226315 149.57553431052696 L 761.5799266994868 98.37951443367152" stroke-opacity="0.6980392156862745" stroke-linecap="round" stroke-linejoin="round" stroke-miterlimit="10"/><path fill="rgb(0,0,0)" stroke="none" paint-order="stroke fill markers" fill-rule="evenodd" d=" M 771.4794216360984 88.48001949705983 L 764.0548004336397 100.85438816782442 L 759.1050529653339 95.90464069951861 Z" fill-opacity="0.6980392156862745"/><path fill="none" stroke="rgb(0,0,0)" paint-order="fill stroke markers" d=" M 245.99999999999994 119 L 310.4241692575069 119" stroke-opacity="0.6980392156862745" stroke-linecap="round" stroke-linejoin="round" stroke-miterlimit="10" stroke-width="1.5"/><path fill="rgb(0,0,0)" stroke="none" paint-order="stroke fill markers" fill-rule="evenodd" d=" M 325.4241692575069 119 L 310.4241692575069 122.75 L 310.4241692575069 115.25 Z" fill-opacity="0.6980392156862745"/><g transform="scale(27,27)"><g transform="translate(10.222222222222221,3.797222111111111)"><path fill="rgb(0,0,0)" stroke="none" paint-order="stroke fill markers" d=" M 0.645 -0.682 L 0.739 -0.067 Q 0.741 -0.054 0.7435 -0.051500000000000004 Q 0.746 -0.049 0.755 -0.048 Q 0.769 -0.047 0.794 -0.047 Q 0.81 -0.047 0.8165 -0.0465 Q 0.8230000000000001 -0.046 0.8285 -0.042 Q 0.834 -0.038 0.834 -0.029 Q 0.834 -0.016 0.8280000000000001 -0.009000000000000001 Q 0.8220000000000001 -0.002 0.8175 -0.001 Q 0.8130000000000001 0 0.806 0 Q 0.794 0 0.771 -0.001 Q 0.748 -0.002 0.736 -0.002 Q 0.724 -0.002 0.7010000000000001 -0.0025 Q 0.678 -0.003 0.667 -0.003 Q 0.65 -0.003 0.592 -0.0015 Q 0.534 0 0.518 0 Q 0.496 0 0.496 -0.018000000000000002 Q 0.496 -0.032 0.502 -0.0385 Q 0.508 -0.045 0.514 -0.046 Q 0.52 -0.047 0.533 -0.047 Q 0.5740000000000001 -0.047 0.598 -0.052000000000000005 L 0.5750000000000001 -0.198 L 0.305 -0.198 L 0.213 -0.058 Q 0.23500000000000001 -0.047 0.271 -0.047 Q 0.297 -0.047 0.297 -0.029 Q 0.297 0 0.27 0 Q 0.252 0 0.215 -0.0015 Q 0.178 -0.003 0.159 -0.003 Q 0.14300000000000002 -0.003 0.111 -0.0015 Q 0.079 0 0.064 0 Q 0.056 0 0.0505 -0.0055 Q 0.045 -0.011 0.045 -0.018000000000000002 Q 0.045 -0.031 0.051000000000000004 -0.038 Q 0.057 -0.045 0.062 -0.046 Q 0.067 -0.047 0.077 -0.047 Q 0.111 -0.047 0.132 -0.0535 Q 0.153 -0.06 0.1595 -0.0665 Q 0.166 -0.073 0.17400000000000002 -0.085 L 0.5670000000000001 -0.686 Q 0.577 -0.7020000000000001 0.5855 -0.7065 Q 0.594 -0.711 0.611 -0.711 Q 0.63 -0.711 0.636 -0.706 Q 0.642 -0.7010000000000001 0.645 -0.682 M 0.524 -0.533 L 0.336 -0.245 L 0.5680000000000001 -0.245 L 0.524 -0.533 Z"/></g></g><path fill="none" stroke="rgb(0,0,0)" paint-order="fill stroke markers" d=" M 553.9999999999998 121 L 618.4241692575068 121" stroke-opacity="0.6980392156862745" stroke-linecap="round" stroke-linejoin="round" stroke-miterlimit="10" stroke-width="1.5"/><path fill="rgb(0,0,0)" stroke="none" paint-order="stroke fill markers" fill-rule="evenodd" d=" M 633.4241692575068 121 L 618.4241692575068 124.75 L 618.4241692575068 117.25 Z" fill-opacity="0.6980392156862745"/><g transform="scale(27,27)"><g transform="translate(21.40740740740741,4.015094348148148)"><path fill="rgb(0,0,0)" stroke="none" paint-order="stroke fill markers" d=" M 0.645 -0.682 L 0.739 -0.067 Q 0.741 -0.054 0.7435 -0.051500000000000004 Q 0.746 -0.049 0.755 -0.048 Q 0.769 -0.047 0.794 -0.047 Q 0.81 -0.047 0.8165 -0.0465 Q 0.8230000000000001 -0.046 0.8285 -0.042 Q 0.834 -0.038 0.834 -0.029 Q 0.834 -0.016 0.8280000000000001 -0.009000000000000001 Q 0.8220000000000001 -0.002 0.8175 -0.001 Q 0.8130000000000001 0 0.806 0 Q 0.794 0 0.771 -0.001 Q 0.748 -0.002 0.736 -0.002 Q 0.724 -0.002 0.7010000000000001 -0.0025 Q 0.678 -0.003 0.667 -0.003 Q 0.65 -0.003 0.592 -0.0015 Q 0.534 0 0.518 0 Q 0.496 0 0.496 -0.018000000000000002 Q 0.496 -0.032 0.502 -0.0385 Q 0.508 -0.045 0.514 -0.046 Q 0.52 -0.047 0.533 -0.047 Q 0.5740000000000001 -0.047 0.598 -0.052000000000000005 L 0.5750000000000001 -0.198 L 0.305 -0.198 L 0.213 -0.058 Q 0.23500000000000001 -0.047 0.271 -0.047 Q 0.297 -0.047 0.297 -0.029 Q 0.297 0 0.27 0 Q 0.252 0 0.215 -0.0015 Q 0.178 -0.003 0.159 -0.003 Q 0.14300000000000002 -0.003 0.111 -0.0015 Q 0.079 0 0.064 0 Q 0.056 0 0.0505 -0.0055 Q 0.045 -0.011 0.045 -0.018000000000000002 Q 0.045 -0.031 0.051000000000000004 -0.038 Q 0.057 -0.045 0.062 -0.046 Q 0.067 -0.047 0.077 -0.047 Q 0.111 -0.047 0.132 -0.0535 Q 0.153 -0.06 0.1595 -0.0665 Q 0.166 -0.073 0.17400000000000002 -0.085 L 0.5670000000000001 -0.686 Q 0.577 -0.7020000000000001 0.5855 -0.7065 Q 0.594 -0.711 0.611 -0.711 Q 0.63 -0.711 0.636 -0.706 Q 0.642 -0.7010000000000001 0.645 -0.682 M 0.524 -0.533 L 0.336 -0.245 L 0.5680000000000001 -0.245 L 0.524 -0.533 Z"/></g><g transform="translate(22.27684740740741,3.599258948148148) scale(0.7,0.7)"><path fill="rgb(0,0,0)" stroke="none" paint-order="stroke fill markers" d=" M 0.661 -0.23 L 0.116 -0.23 Q 0.084 -0.23 0.083 -0.25 Q 0.083 -0.27 0.116 -0.27 L 0.661 -0.27 Q 0.6930000000000001 -0.27 0.6940000000000001 -0.25 Q 0.6940000000000001 -0.23 0.661 -0.23 Z"/></g><g transform="translate(22.82129410740741,3.599258948148148) scale(0.7,0.7)"><path fill="rgb(0,0,0)" stroke="none" paint-order="stroke fill markers" d=" M 0.294 -0.64 L 0.294 -0.079 Q 0.294 -0.049 0.306 -0.041 Q 0.323 -0.031 0.387 -0.031 L 0.419 -0.031 L 0.419 0 Q 0.384 -0.003 0.257 -0.003 Q 0.13 -0.003 0.095 0 L 0.095 -0.031 L 0.127 -0.031 Q 0.20400000000000001 -0.031 0.215 -0.049 L 0.216 -0.05 Q 0.22 -0.058 0.22 -0.079 L 0.22 -0.597 Q 0.168 -0.5710000000000001 0.089 -0.5710000000000001 L 0.089 -0.602 Q 0.209 -0.602 0.271 -0.666 Q 0.29 -0.666 0.293 -0.659 L 0.293 -0.659 L 0.293 -0.658 Q 0.294 -0.655 0.294 -0.64 Z"/></g></g><path fill="rgb(0,0,0)" stroke="none" paint-order="stroke fill markers" d=" M 161.52427350142918 149.57553431052696 C 161.52427350142918 150.12781906035775 161.07655825125997 150.57553431052696 160.52427350142918 150.57553431052696 C 159.9719887515984 150.57553431052696 159.52427350142918 150.12781906035775 159.52427350142918 149.57553431052696 C 159.52427350142918 149.02324956069617 159.9719887515984 148.57553431052696 160.52427350142918 148.57553431052696 C 161.07655825125997 148.57553431052696 161.52427350142918 149.02324956069617 161.52427350142918 149.57553431052696 Z" fill-opacity="1"/><path fill="none" stroke="rgb(0,0,0)" paint-order="fill stroke markers" d=" M 161.52427350142918 149.57553431052696 C 161.52427350142918 150.12781906035775 161.07655825125997 150.57553431052696 160.52427350142918 150.57553431052696 C 159.9719887515984 150.57553431052696 159.52427350142918 150.12781906035775 159.52427350142918 149.57553431052696 C 159.52427350142918 149.02324956069617 159.9719887515984 148.57553431052696 160.52427350142918 148.57553431052696 C 161.07655825125997 148.57553431052696 161.52427350142918 149.02324956069617 161.52427350142918 149.57553431052696 Z" stroke-opacity="1" stroke-linecap="round" stroke-linejoin="round" stroke-miterlimit="10"/><path fill="rgb(0,0,0)" stroke="none" paint-order="stroke fill markers" d=" M 100.42875868796226 88.48001949705983 C 100.42875868796226 89.03230424689062 99.98104343779305 89.48001949705983 99.42875868796226 89.48001949705983 C 98.87647393813147 89.48001949705983 98.42875868796226 89.03230424689062 98.42875868796226 88.48001949705983 C 98.42875868796226 87.92773474722904 98.87647393813147 87.48001949705983 99.42875868796226 87.48001949705983 C 99.98104343779305 87.48001949705983 100.42875868796226 87.92773474722904 100.42875868796226 88.48001949705983 Z" fill-opacity="1"/><path fill="none" stroke="rgb(0,0,0)" paint-order="fill stroke markers" d=" M 100.42875868796226 88.48001949705983 C 100.42875868796226 89.03230424689062 99.98104343779305 89.48001949705983 99.42875868796226 89.48001949705983 C 98.87647393813147 89.48001949705983 98.42875868796226 89.03230424689062 98.42875868796226 88.48001949705983 C 98.42875868796226 87.92773474722904 98.87647393813147 87.48001949705983 99.42875868796226 87.48001949705983 C 99.98104343779305 87.48001949705983 100.42875868796226 87.92773474722904 100.42875868796226 88.48001949705983 Z" stroke-opacity="1" stroke-linecap="round" stroke-linejoin="round" stroke-miterlimit="10"/><path fill="rgb(0,0,0)" stroke="none" paint-order="stroke fill markers" d=" M 405.9063327552969 88.48001949705983 C 405.9063327552969 89.03230424689062 405.4586175051277 89.48001949705983 404.9063327552969 89.48001949705983 C 404.3540480054661 89.48001949705983 403.9063327552969 89.03230424689062 403.9063327552969 88.48001949705983 C 403.9063327552969 87.92773474722904 404.3540480054661 87.48001949705983 404.9063327552969 87.48001949705983 C 405.4586175051277 87.48001949705983 405.9063327552969 87.92773474722904 405.9063327552969 88.48001949705983 Z" fill-opacity="1"/><path fill="none" stroke="rgb(0,0,0)" paint-order="fill stroke markers" d=" M 405.9063327552969 88.48001949705983 C 405.9063327552969 89.03230424689062 405.4586175051277 89.48001949705983 404.9063327552969 89.48001949705983 C 404.3540480054661 89.48001949705983 403.9063327552969 89.03230424689062 403.9063327552969 88.48001949705983 C 403.9063327552969 87.92773474722904 404.3540480054661 87.48001949705983 404.9063327552969 87.48001949705983 C 405.4586175051277 87.48001949705983 405.9063327552969 87.92773474722904 405.9063327552969 88.48001949705983 Z" stroke-opacity="1" stroke-linecap="round" stroke-linejoin="round" stroke-miterlimit="10"/><path fill="rgb(0,0,0)" stroke="none" paint-order="stroke fill markers" d=" M 497.5496049754973 149.57553431052696 C 497.5496049754973 150.12781906035775 497.1018897253281 150.57553431052696 496.5496049754973 150.57553431052696 C 495.9973202256665 150.57553431052696 495.5496049754973 150.12781906035775 495.5496049754973 149.57553431052696 C 495.5496049754973 149.02324956069617 495.9973202256665 148.57553431052696 496.5496049754973 148.57553431052696 C 497.1018897253281 148.57553431052696 497.5496049754973 149.02324956069617 497.5496049754973 149.57553431052696 Z" fill-opacity="1"/><path fill="none" stroke="rgb(0,0,0)" paint-order="fill stroke markers" d=" M 497.5496049754973 149.57553431052696 C 497.5496049754973 150.12781906035775 497.1018897253281 150.57553431052696 496.5496049754973 150.57553431052696 C 495.9973202256665 150.57553431052696 495.5496049754973 150.12781906035775 495.5496049754973 149.57553431052696 C 495.5496049754973 149.02324956069617 495.9973202256665 148.57553431052696 496.5496049754973 148.57553431052696 C 497.1018897253281 148.57553431052696 497.5496049754973 149.02324956069617 497.5496049754973 149.57553431052696 Z" stroke-opacity="1" stroke-linecap="round" stroke-linejoin="round" stroke-miterlimit="10"/><path fill="rgb(0,0,0)" stroke="none" paint-order="stroke fill markers" d=" M 711.3839068226315 88.48001949705983 C 711.3839068226315 89.03230424689062 710.9361915724623 89.48001949705983 710.3839068226315 89.48001949705983 C 709.8316220728007 89.48001949705983 709.3839068226315 89.03230424689062 709.3839068226315 88.48001949705983 C 709.3839068226315 87.92773474722904 709.8316220728007 87.48001949705983 710.3839068226315 87.48001949705983 C 710.9361915724623 87.48001949705983 711.3839068226315 87.92773474722904 711.3839068226315 88.48001949705983 Z" fill-opacity="1"/><path fill="none" stroke="rgb(0,0,0)" paint-order="fill stroke markers" d=" M 711.3839068226315 88.48001949705983 C 711.3839068226315 89.03230424689062 710.9361915724623 89.48001949705983 710.3839068226315 89.48001949705983 C 709.8316220728007 89.48001949705983 709.3839068226315 89.03230424689062 709.3839068226315 88.48001949705983 C 709.3839068226315 87.92773474722904 709.8316220728007 87.48001949705983 710.3839068226315 87.48001949705983 C 710.9361915724623 87.48001949705983 711.3839068226315 87.92773474722904 711.3839068226315 88.48001949705983 Z" stroke-opacity="1" stroke-linecap="round" stroke-linejoin="round" stroke-miterlimit="10"/><path fill="rgb(0,0,0)" stroke="none" paint-order="stroke fill markers" d=" M 772.4794216360984 149.57553431052696 C 772.4794216360984 150.12781906035775 772.0317063859293 150.57553431052696 771.4794216360984 150.57553431052696 C 770.9271368862676 150.57553431052696 770.4794216360984 150.12781906035775 770.4794216360984 149.57553431052696 C 770.4794216360984 149.02324956069617 770.9271368862676 148.57553431052696 771.4794216360984 148.57553431052696 C 772.0317063859293 148.57553431052696 772.4794216360984 149.02324956069617 772.4794216360984 149.57553431052696 Z" fill-opacity="1"/><path fill="none" stroke="rgb(0,0,0)" paint-order="fill stroke markers" d=" M 772.4794216360984 149.57553431052696 C 772.4794216360984 150.12781906035775 772.0317063859293 150.57553431052696 771.4794216360984 150.57553431052696 C 770.9271368862676 150.57553431052696 770.4794216360984 150.12781906035775 770.4794216360984 149.57553431052696 C 770.4794216360984 149.02324956069617 770.9271368862676 148.57553431052696 771.4794216360984 148.57553431052696 C 772.0317063859293 148.57553431052696 772.4794216360984 149.02324956069617 772.4794216360984 149.57553431052696 Z" stroke-opacity="1" stroke-linecap="round" stroke-linejoin="round" stroke-miterlimit="10"/></g></g></svg>