<svg version="1.1" xmlns="http://www.w3.org/2000/svg" xmlns:xlink="http://www.w3.org/1999/xlink" width="879" height="232"><defs><clipPath id="VKlppZBRySok"><path fill="none" stroke="none" d=" M 0 0 L 879 0 L 879 232 L 0 232 L 0 0 Z"/></clipPath></defs><g transform="scale(1,1)" clip-path="url(#VKlppZBRySok)"><g><path fill="rgb(128,128,128)" stroke="none" paint-order="stroke fill markers" fill-rule="evenodd" d=" M 99.42875868796216 149.57553431052696 L 99.42875868796216 88.48001949705983 L 160.5242735014291 88.48001949705983 L 160.5242735014291 149.57553431052696 Z" fill-opacity="0.09803921568627451"/><path fill="rgb(128,128,128)" stroke="none" paint-order="stroke fill markers" fill-rule="evenodd" d=" M 710.3839068226314 88.48001949705983 L 771.4794216360983 88.48001949705983 L 771.4794216360983 149.57553431052696 L 710.3839068226314 149.57553431052696 Z" fill-opacity="0.09803921568627451"/><path fill="none" stroke="rgb(128,128,128)" paint-order="fill stroke markers" d=" M 99.42875868796216 149.57553431052696 L 99.42875868796216 88.48001949705983" stroke-opacity="1" stroke-linecap="round" stroke-linejoin="round" stroke-miterlimit="10" stroke-width="1.5"/><path fill="none" stroke="rgb(128,128,128)" paint-order="fill stroke markers" d=" M 99.42875868796216 88.48001949705983 L 160.5242735014291 88.48001949705983" stroke-opacity="1" stroke-linecap="round" stroke-linejoin="round" stroke-miterlimit="10" stroke-width="1.5"/><path fill="none" stroke="rgb(128,128,128)" paint-order="fill stroke markers" d=" M 160.5242735014291 88.48001949705983 L 160.5242735014291 149.57553431052696" stroke-opacity="1" stroke-linecap="round" stroke-linejoin="round" stroke-miterlimit="10" stroke-width="1.5"/><path fill="none" stroke="rgb(128,128,128)" paint-order="fill stroke markers" d=" M 160.5242735014291 149.57553431052696 L 99.42875868796216 149.57553431052696" stroke-opacity="1" stroke-linecap="round" stroke-linejoin="round" stroke-miterlimit="10" stroke-width="1.5"/><path fill="none" stroke="rgb(128,128,128)" paint-order="fill stroke markers" d=" M 710.3839068226314 88.48001949705983 L 771.4794216360983 88.48001949705983" stroke-opacity="0.6980392156862745" stroke-linecap="round" stroke-linejoin="round" stroke-miterlimit="10"/><path fill="none" stroke="rgb(128,128,128)" paint-order="fill stroke markers" d=" M 771.4794216360983 88.48001949705983 L 771.4794216360983 149.57553431052696" stroke-opacity="0.6980392156862745" stroke-linecap="round" stroke-linejoin="round" stroke-miterlimit="10"/><path fill="none" stroke="rgb(128,128,128)" paint-order="fill stroke markers" d=" M 771.4794216360983 149.57553431052696 L 710.3839068226314 149.57553431052696" stroke-opacity="0.6980392156862745" stroke-linecap="round" stroke-linejoin="round" stroke-miterlimit="10"/><path fill="none" stroke="rgb(128,128,128)" paint-order="fill stroke markers" d=" M 710.3839068226314 149.57553431052696 L 710.3839068226314 88.48001949705983" stroke-opacity="0.6980392156862745" stroke-linecap="round" stroke-linejoin="round" stroke-miterlimit="10"/><path fill="none" stroke="rgb(0,0,0)" paint-order="fill stroke markers" d=" M 404.9063327552968 149.57553431052696 L 496.5496049754972 88.48001949705983" stroke-opacity="1" stroke-linecap="round" stroke-linejoin="round" stroke-miterlimit="10"/><path fill="none" stroke="rgb(0,0,0)" paint-order="fill stroke markers" d=" M 38.33324387449523 149.57553431052696 L 207.61978831489603 149.57553431052696" stroke-opacity="1" stroke-linecap="round" stroke-linejoin="round" stroke-miterlimit="10"/><path fill="rgb(0,0,0)" stroke="none" paint-order="stroke fill markers" fill-rule="evenodd" d=" M 221.61978831489603 149.57553431052696 L 207.61978831489603 153.07553431052696 L 207.61978831489603 146.07553431052696 Z" fill-opacity="1"/><path fill="none" stroke="rgb(0,0,0)" paint-order="fill stroke markers" d=" M 99.42875868796216 210.6710491239941 L 99.42875868796216 41.38450468359268" stroke-opacity="1" stroke-linecap="round" stroke-linejoin="round" stroke-miterlimit="10"/><path fill="rgb(0,0,0)" stroke="none" paint-order="stroke fill markers" fill-rule="evenodd" d=" M 99.42875868796216 27.38450468359268 L 102.92875868796216 41.38450468359268 L 95.92875868796216 41.38450468359268 Z" fill-opacity="1"/><path fill="none" stroke="rgb(0,0,0)" paint-order="fill stroke markers" d=" M 99.42875868796216 149.57553431052696 L 150.62477856481743 98.37951443367152" stroke-opacity="1" stroke-linecap="round" stroke-linejoin="round" stroke-miterlimit="10"/><path fill="rgb(0,0,0)" stroke="none" paint-order="stroke fill markers" fill-rule="evenodd" d=" M 160.5242735014291 88.48001949705983 L 153.09965229897034 100.85438816782442 L 148.14990483066452 95.90464069951861 Z" fill-opacity="1"/><path fill="none" stroke="rgb(0,0,0)" paint-order="fill stroke markers" d=" M 343.8108179418299 149.57553431052696 L 513.0973623822306 149.57553431052696" stroke-opacity="1" stroke-linecap="round" stroke-linejoin="round" stroke-miterlimit="10"/><path fill="rgb(0,0,0)" stroke="none" paint-order="stroke fill markers" fill-rule="evenodd" d=" M 527.0973623822306 149.57553431052696 L 513.0973623822306 153.07553431052696 L 513.0973623822306 146.07553431052696 Z" fill-opacity="1"/><path fill="none" stroke="rgb(0,0,0)" paint-order="fill stroke markers" d=" M 404.9063327552968 210.6710491239941 L 404.9063327552968 41.38450468359268" stroke-opacity="1" stroke-linecap="round" stroke-linejoin="round" stroke-miterlimit="10"/><path fill="rgb(0,0,0)" stroke="none" paint-order="stroke fill markers" fill-rule="evenodd" d=" M 404.9063327552968 27.38450468359268 L 408.4063327552968 41.38450468359268 L 401.4063327552968 41.38450468359268 Z" fill-opacity="1"/><path fill="none" stroke="rgb(0,0,0)" paint-order="fill stroke markers" d=" M 649.2883920091645 149.57553431052696 L 818.5749364495653 149.57553431052696" stroke-opacity="0.6980392156862745" stroke-linecap="round" stroke-linejoin="round" stroke-miterlimit="10"/><path fill="rgb(0,0,0)" stroke="none" paint-order="stroke fill markers" fill-rule="evenodd" d=" M 832.5749364495653 149.57553431052696 L 818.5749364495653 153.07553431052696 L 818.5749364495653 146.07553431052696 Z" fill-opacity="0.6980392156862745"/><path fill="none" stroke="rgb(0,0,0)" paint-order="fill stroke markers" d=" M 710.3839068226314 210.6710491239941 L 710.3839068226314 41.38450468359268" stroke-opacity="0.6980392156862745" stroke-linecap="round" stroke-linejoin="round" stroke-miterlimit="10"/><path fill="rgb(0,0,0)" stroke="none" paint-order="stroke fill markers" fill-rule="evenodd" d=" M 710.3839068226314 27.38450468359268 L 713.8839068226314 41.38450468359268 L 706.8839068226314 41.38450468359268 Z" fill-opacity="0.6980392156862745"/><path fill="none" stroke="rgb(0,0,0)" paint-order="fill stroke markers" d=" M 710.3839068226314 149.57553431052696 L 761.5799266994867 98.37951443367152" stroke-opacity="0.6980392156862745" stroke-linecap="round" stroke-linejoin="round" stroke-miterlimit="10"/><path fill="rgb(0,0,0)" stroke="none" paint-order="stroke fill markers" fill-rule="evenodd" d=" M 771.4794216360983 88.48001949705983 L 764.0548004336396 100.85438816782442 L 759.1050529653338 95.90464069951861 Z" fill-opacity="0.6980392156862745"/><path fill="none" stroke="rgb(0,0,0)" paint-order="fill stroke markers" d=" M 245.99999999999983 119 L 310.42416925750683 119" stroke-opacity="0.6980392156862745" stroke-linecap="round" stroke-linejoin="round" stroke-miterlimit="10" stroke-width="1.5"/><path fill="rgb(0,0,0)" stroke="none" paint-order="stroke fill markers" fill-rule="evenodd" d=" M 325.42416925750683 119 L 310.42416925750683 122.75 L 310.42416925750683 115.25 Z" fill-opacity="0.6980392156862745"/><g transform="scale(27,27)"><g transform="translate(10,3.8342591481481483)"><path fill="rgb(0,0,0)" stroke="none" paint-order="stroke fill markers" d=" M 0.163 -0.067 L 0.306 -0.637 Q 0.264 -0.639 0.245 -0.639 Q 0.227 -0.639 0.22 -0.6395000000000001 Q 0.213 -0.64 0.20800000000000002 -0.644 Q 0.203 -0.648 0.203 -0.657 Q 0.203 -0.671 0.209 -0.6775 Q 0.215 -0.684 0.221 -0.685 Q 0.227 -0.686 0.24 -0.686 L 0.641 -0.686 Q 0.744 -0.686 0.799 -0.648 Q 0.854 -0.61 0.854 -0.547 Q 0.854 -0.488 0.8005 -0.433 Q 0.747 -0.378 0.637 -0.358 Q 0.711 -0.352 0.7575000000000001 -0.317 Q 0.804 -0.28200000000000003 0.804 -0.221 Q 0.804 -0.186 0.7855 -0.1485 Q 0.767 -0.111 0.7315 -0.077 Q 0.6960000000000001 -0.043000000000000003 0.6355000000000001 -0.021500000000000002 Q 0.5750000000000001 0 0.501 0 L 0.077 0 Q 0.043000000000000003 0 0.043000000000000003 -0.018000000000000002 Q 0.043000000000000003 -0.038 0.055 -0.045 Q 0.059000000000000004 -0.047 0.08700000000000001 -0.047 Q 0.123 -0.047 0.14 -0.048 Q 0.153 -0.049 0.1565 -0.052000000000000005 Q 0.16 -0.055 0.163 -0.067 M 0.431 -0.621 L 0.369 -0.375 L 0.527 -0.375 Q 0.5750000000000001 -0.375 0.614 -0.3925 Q 0.653 -0.41000000000000003 0.6745 -0.4375 Q 0.6960000000000001 -0.465 0.7075 -0.4945 Q 0.719 -0.524 0.719 -0.552 Q 0.719 -0.639 0.618 -0.639 L 0.46900000000000003 -0.639 Q 0.451 -0.639 0.442 -0.638 Q 0.435 -0.637 0.431 -0.621 M 0.312 -0.047 L 0.47200000000000003 -0.047 Q 0.522 -0.047 0.5615 -0.0655 Q 0.601 -0.084 0.6225 -0.1135 Q 0.644 -0.14300000000000002 0.6545 -0.17450000000000002 Q 0.665 -0.20600000000000002 0.665 -0.23700000000000002 Q 0.665 -0.339 0.555 -0.339 L 0.36 -0.339 L 0.28800000000000003 -0.048 Q 0.295 -0.047 0.312 -0.047 Z"/></g></g><path fill="none" stroke="rgb(0,0,0)" paint-order="fill stroke markers" d=" M 553.9999999999998 121 L 618.4241692575067 121" stroke-opacity="0.6980392156862745" stroke-linecap="round" stroke-linejoin="round" stroke-miterlimit="10" stroke-width="1.5"/><path fill="rgb(0,0,0)" stroke="none" paint-order="stroke fill markers" fill-rule="evenodd" d=" M 633.4241692575067 121 L 618.4241692575067 124.75 L 618.4241692575067 117.25 Z" fill-opacity="0.6980392156862745"/><path fill="rgb(0,0,0)" stroke="none" paint-order="stroke fill markers" d=" M 161.5242735014291 149.57553431052696 C 161.5242735014291 150.12781906035775 161.07655825125988 150.57553431052696 160.5242735014291 150.57553431052696 C 159.9719887515983 150.57553431052696 159.5242735014291 150.12781906035775 159.5242735014291 149.57553431052696 C 159.5242735014291 149.02324956069617 159.9719887515983 148.57553431052696 160.5242735014291 148.57553431052696 C 161.07655825125988 148.57553431052696 161.5242735014291 149.02324956069617 161.5242735014291 149.57553431052696 Z" fill-opacity="1"/><path fill="none" stroke="rgb(0,0,0)" paint-order="fill stroke markers" d=" M 161.5242735014291 149.57553431052696 C 161.5242735014291 150.12781906035775 161.07655825125988 150.57553431052696 160.5242735014291 150.57553431052696 C 159.9719887515983 150.57553431052696 159.5242735014291 150.12781906035775 159.5242735014291 149.57553431052696 C 159.5242735014291 149.02324956069617 159.9719887515983 148.57553431052696 160.5242735014291 148.57553431052696 C 161.07655825125988 148.57553431052696 161.5242735014291 149.02324956069617 161.5242735014291 149.57553431052696 Z" stroke-opacity="1" stroke-linecap="round" stroke-linejoin="round" stroke-miterlimit="10"/><path fill="rgb(0,0,0)" stroke="none" paint-order="stroke fill markers" d=" M 100.42875868796216 88.48001949705983 C 100.42875868796216 89.03230424689062 99.98104343779295 89.48001949705983 99.42875868796216 89.48001949705983 C 98.87647393813137 89.48001949705983 98.42875868796216 89.03230424689062 98.42875868796216 88.48001949705983 C 98.42875868796216 87.92773474722904 98.87647393813137 87.48001949705983 99.42875868796216 87.48001949705983 C 99.98104343779295 87.48001949705983 100.42875868796216 87.92773474722904 100.42875868796216 88.48001949705983 Z" fill-opacity="1"/><path fill="none" stroke="rgb(0,0,0)" paint-order="fill stroke markers" d=" M 100.42875868796216 88.48001949705983 C 100.42875868796216 89.03230424689062 99.98104343779295 89.48001949705983 99.42875868796216 89.48001949705983 C 98.87647393813137 89.48001949705983 98.42875868796216 89.03230424689062 98.42875868796216 88.48001949705983 C 98.42875868796216 87.92773474722904 98.87647393813137 87.48001949705983 99.42875868796216 87.48001949705983 C 99.98104343779295 87.48001949705983 100.42875868796216 87.92773474722904 100.42875868796216 88.48001949705983 Z" stroke-opacity="1" stroke-linecap="round" stroke-linejoin="round" stroke-miterlimit="10"/><path fill="rgb(0,0,0)" stroke="none" paint-order="stroke fill markers" d=" M 711.3839068226314 88.48001949705983 C 711.3839068226314 89.03230424689062 710.9361915724622 89.48001949705983 710.3839068226314 89.48001949705983 C 709.8316220728005 89.48001949705983 709.3839068226314 89.03230424689062 709.3839068226314 88.48001949705983 C 709.3839068226314 87.92773474722904 709.8316220728005 87.48001949705983 710.3839068226314 87.48001949705983 C 710.9361915724622 87.48001949705983 711.3839068226314 87.92773474722904 711.3839068226314 88.48001949705983 Z" fill-opacity="1"/><path fill="none" stroke="rgb(0,0,0)" paint-order="fill stroke markers" d=" M 711.3839068226314 88.48001949705983 C 711.3839068226314 89.03230424689062 710.9361915724622 89.48001949705983 710.3839068226314 89.48001949705983 C 709.8316220728005 89.48001949705983 709.3839068226314 89.03230424689062 709.3839068226314 88.48001949705983 C 709.3839068226314 87.92773474722904 709.8316220728005 87.48001949705983 710.3839068226314 87.48001949705983 C 710.9361915724622 87.48001949705983 711.3839068226314 87.92773474722904 711.3839068226314 88.48001949705983 Z" stroke-opacity="1" stroke-linecap="round" stroke-linejoin="round" stroke-miterlimit="10"/><path fill="rgb(0,0,0)" stroke="none" paint-order="stroke fill markers" d=" M 772.4794216360983 149.57553431052696 C 772.4794216360983 150.12781906035775 772.0317063859292 150.57553431052696 771.4794216360983 150.57553431052696 C 770.9271368862675 150.57553431052696 770.4794216360983 150.12781906035775 770.4794216360983 149.57553431052696 C 770.4794216360983 149.02324956069617 770.9271368862675 148.57553431052696 771.4794216360983 148.57553431052696 C 772.0317063859292 148.57553431052696 772.4794216360983 149.02324956069617 772.4794216360983 149.57553431052696 Z" fill-opacity="1"/><path fill="none" stroke="rgb(0,0,0)" paint-order="fill stroke markers" d=" M 772.4794216360983 149.57553431052696 C 772.4794216360983 150.12781906035775 772.0317063859292 150.57553431052696 771.4794216360983 150.57553431052696 C 770.9271368862675 150.57553431052696 770.4794216360983 150.12781906035775 770.4794216360983 149.57553431052696 C 770.4794216360983 149.02324956069617 770.9271368862675 148.57553431052696 771.4794216360983 148.57553431052696 C 772.0317063859292 148.57553431052696 772.4794216360983 149.02324956069617 772.4794216360983 149.57553431052696 Z" stroke-opacity="1" stroke-linecap="round" stroke-linejoin="round" stroke-miterlimit="10"/><path fill="none" stroke="rgb(255,0,0)" paint-order="fill stroke markers" d=" M 565 151 L 624.9999999999999 87" stroke-opacity="1" stroke-linecap="round" stroke-linejoin="round" stroke-miterlimit="10" stroke-width="2.5"/></g></g></svg>