<svg version="1.1" xmlns="http://www.w3.org/2000/svg" xmlns:xlink="http://www.w3.org/1999/xlink" width="440" height="273"><defs><clipPath id="RZyJVBToruOh"><path fill="none" stroke="none" d=" M 0 0 L 440 0 L 440 273 L 0 273 L 0 0 Z"/></clipPath></defs><g transform="scale(1,1)" clip-path="url(#RZyJVBToruOh)"><g><path fill="rgb(102,0,153)" stroke="none" paint-order="stroke fill markers" d=" M 63.115 20.016989118687476 C 33.12719534930103 20.016989118687476 8.817276479865647 71.43544884976652 8.817276479865647 134.86333333333343 C 8.817276479865647 198.29121781690034 33.12719534930103 249.70967754797937 63.115 249.70967754797937 C 93.10280465069899 249.70967754797937 117.41272352013436 198.29121781690034 117.41272352013436 134.86333333333343 C 117.41272352013436 71.43544884976652 93.10280465069899 20.016989118687476 63.115 20.016989118687476 Z" fill-opacity="0.11764705882352941"/><path fill="none" stroke="rgb(102,0,153)" paint-order="fill stroke markers" d=" M 63.115 20.016989118687476 C 33.12719534930103 20.016989118687476 8.817276479865647 71.43544884976652 8.817276479865647 134.86333333333343 C 8.817276479865647 198.29121781690034 33.12719534930103 249.70967754797937 63.115 249.70967754797937 C 93.10280465069899 249.70967754797937 117.41272352013436 198.29121781690034 117.41272352013436 134.86333333333343 C 117.41272352013436 71.43544884976652 93.10280465069899 20.016989118687476 63.115 20.016989118687476 Z" stroke-opacity="1" stroke-linecap="round" stroke-linejoin="round" stroke-miterlimit="10"/><path fill="rgb(0,153,255)" stroke="none" paint-order="stroke fill markers" d=" M 348.01499999999993 21.70466737522736 C 318.10937993828 21.70466737522736 293.86608484186394 72.98313628245711 293.86608484186394 136.2383333333333 C 293.86608484186394 199.49353038420946 318.10937993828 250.77199929143922 348.01499999999993 250.77199929143922 C 377.9206200617199 250.77199929143922 402.1639151581359 199.49353038420946 402.1639151581359 136.2383333333333 C 402.1639151581359 72.98313628245711 377.9206200617199 21.70466737522736 348.01499999999993 21.70466737522736 Z" fill-opacity="0.16862745098039217"/><path fill="none" stroke="rgb(0,153,255)" paint-order="fill stroke markers" d=" M 348.01499999999993 21.70466737522736 C 318.10937993828 21.70466737522736 293.86608484186394 72.98313628245711 293.86608484186394 136.2383333333333 C 293.86608484186394 199.49353038420946 318.10937993828 250.77199929143922 348.01499999999993 250.77199929143922 C 377.9206200617199 250.77199929143922 402.1639151581359 199.49353038420946 402.1639151581359 136.2383333333333 C 402.1639151581359 72.98313628245711 377.9206200617199 21.70466737522736 348.01499999999993 21.70466737522736 Z" stroke-opacity="1" stroke-linecap="round" stroke-linejoin="round" stroke-miterlimit="10"/><path fill="none" stroke="rgb(0,0,0)" paint-order="fill stroke markers" d=" M 350.1323808464759 6.869450006804698 C 306.8528650041833 6.655618406793138 271.48475870804083 63.78708713886091 271.13550441044725 134.47615697172458 C 270.78625011285374 205.16522680458826 305.5881033112321 262.64338505985063 348.8676191535247 262.85721665986216 C 392.1471349958173 263.0710482598737 427.51524129195974 205.93957952780596 427.8644955895533 135.25050969494228 C 428.21374988714683 64.56143986207864 393.4118966887685 7.083281606816243 350.1323808464759 6.869450006804698 Z" stroke-opacity="0.6980392156862745" stroke-linecap="round" stroke-linejoin="round" stroke-miterlimit="10"/><path fill="none" stroke="rgb(128,128,128)" paint-order="fill stroke markers" d=" M 64.92380866749741 20.08073171307879 L 348.00040182680414 21.70467153740563" stroke-opacity="0.6980392156862745" stroke-linejoin="round" stroke-miterlimit="10" stroke-width="1.5" stroke-dasharray="9.5,8"/><path fill="none" stroke="rgb(128,128,128)" paint-order="fill stroke markers" d=" M 63.92712920349264 249.6968306438714 L 348.92060723525947 250.75598035107404" stroke-opacity="0.6980392156862745" stroke-linejoin="round" stroke-miterlimit="10" stroke-width="1.5" stroke-dasharray="9.5,8"/><path fill="none" stroke="rgb(0,0,0)" paint-order="fill stroke markers" d=" M 68 102 L 325.01072328681926 92.5856877916916" stroke-opacity="0.6980392156862745" stroke-linecap="round" stroke-linejoin="round" stroke-miterlimit="10" stroke-width="2"/><path fill="rgb(0,0,0)" stroke="none" paint-order="stroke fill markers" fill-rule="evenodd" d=" M 341 92 L 325.15714523474213 96.58300696998678 L 324.8643013388964 88.58836861339641 Z" fill-opacity="0.6980392156862745"/><path fill="none" stroke="rgb(0,0,0)" paint-order="fill stroke markers" d=" M 70 181 L 325.07882433881196 206.4137574064499" stroke-opacity="0.6980392156862745" stroke-linecap="round" stroke-linejoin="round" stroke-miterlimit="10" stroke-width="2"/><path fill="rgb(0,0,0)" stroke="none" paint-order="stroke fill markers" fill-rule="evenodd" d=" M 341 208 L 324.6822636904244 210.3940513217469 L 325.4753849871995 202.43346349115288 Z" fill-opacity="0.6980392156862745"/><path fill="rgb(0,0,255)" stroke="none" paint-order="stroke fill markers" d=" M 73 102 C 73 104.76142374915396 70.76142374915396 107 68 107 C 65.23857625084604 107 63 104.76142374915396 63 102 C 63 99.23857625084604 65.23857625084604 97 68 97 C 70.76142374915396 97 73 99.23857625084604 73 102 Z" fill-opacity="1"/><path fill="none" stroke="rgb(0,0,0)" paint-order="fill stroke markers" d=" M 73 102 C 73 104.76142374915396 70.76142374915396 107 68 107 C 65.23857625084604 107 63 104.76142374915396 63 102 C 63 99.23857625084604 65.23857625084604 97 68 97 C 70.76142374915396 97 73 99.23857625084604 73 102 Z" stroke-opacity="1" stroke-linecap="round" stroke-linejoin="round" stroke-miterlimit="10"/><path fill="rgb(0,0,255)" stroke="none" paint-order="stroke fill markers" d=" M 346 92 C 346 94.76142374915396 343.76142374915395 97 341 97 C 338.23857625084605 97 336 94.76142374915396 336 92 C 336 89.23857625084604 338.23857625084605 87 341 87 C 343.76142374915395 87 346 89.23857625084604 346 92 Z" fill-opacity="1"/><path fill="none" stroke="rgb(0,0,0)" paint-order="fill stroke markers" d=" M 346 92 C 346 94.76142374915396 343.76142374915395 97 341 97 C 338.23857625084605 97 336 94.76142374915396 336 92 C 336 89.23857625084604 338.23857625084605 87 341 87 C 343.76142374915395 87 346 89.23857625084604 346 92 Z" stroke-opacity="1" stroke-linecap="round" stroke-linejoin="round" stroke-miterlimit="10"/><path fill="rgb(0,0,255)" stroke="none" paint-order="stroke fill markers" d=" M 75 181 C 75 183.76142374915398 72.76142374915396 186 70 186 C 67.23857625084604 186 65 183.76142374915398 65 181 C 65 178.23857625084602 67.23857625084604 176 70 176 C 72.76142374915396 176 75 178.23857625084602 75 181 Z" fill-opacity="1"/><path fill="none" stroke="rgb(0,0,0)" paint-order="fill stroke markers" d=" M 75 181 C 75 183.76142374915398 72.76142374915396 186 70 186 C 67.23857625084604 186 65 183.76142374915398 65 181 C 65 178.23857625084602 67.23857625084604 176 70 176 C 72.76142374915396 176 75 178.23857625084602 75 181 Z" stroke-opacity="1" stroke-linecap="round" stroke-linejoin="round" stroke-miterlimit="10"/><path fill="rgb(0,0,255)" stroke="none" paint-order="stroke fill markers" d=" M 346 208 C 346 210.76142374915398 343.76142374915395 213 341 213 C 338.23857625084605 213 336 210.76142374915398 336 208 C 336 205.23857625084602 338.23857625084605 203 341 203 C 343.76142374915395 203 346 205.23857625084602 346 208 Z" fill-opacity="1"/><path fill="none" stroke="rgb(0,0,0)" paint-order="fill stroke markers" d=" M 346 208 C 346 210.76142374915398 343.76142374915395 213 341 213 C 338.23857625084605 213 336 210.76142374915398 336 208 C 336 205.23857625084602 338.23857625084605 203 341 203 C 343.76142374915395 203 346 205.23857625084602 346 208 Z" stroke-opacity="1" stroke-linecap="round" stroke-linejoin="round" stroke-miterlimit="10"/></g></g></svg>