<svg version="1.1" xmlns="http://www.w3.org/2000/svg" xmlns:xlink="http://www.w3.org/1999/xlink" width="442" height="273"><defs><clipPath id="vPkVwdkJvHWX"><path fill="none" stroke="none" d=" M 0 0 L 442 0 L 442 273 L 0 273 L 0 0 Z"/></clipPath></defs><g transform="scale(1,1)" clip-path="url(#vPkVwdkJvHWX)"><g><path fill="rgb(102,0,153)" stroke="none" paint-order="stroke fill markers" d=" M 63.115 20.016989118687476 C 33.12719534930103 20.016989118687476 8.817276479865647 71.43544884976652 8.817276479865647 134.86333333333343 C 8.817276479865647 198.29121781690034 33.12719534930103 249.70967754797937 63.115 249.70967754797937 C 93.10280465069899 249.70967754797937 117.41272352013436 198.29121781690034 117.41272352013436 134.86333333333343 C 117.41272352013436 71.43544884976652 93.10280465069899 20.016989118687476 63.115 20.016989118687476 Z" fill-opacity="0.11764705882352941"/><path fill="none" stroke="rgb(102,0,153)" paint-order="fill stroke markers" d=" M 63.115 20.016989118687476 C 33.12719534930103 20.016989118687476 8.817276479865647 71.43544884976652 8.817276479865647 134.86333333333343 C 8.817276479865647 198.29121781690034 33.12719534930103 249.70967754797937 63.115 249.70967754797937 C 93.10280465069899 249.70967754797937 117.41272352013436 198.29121781690034 117.41272352013436 134.86333333333343 C 117.41272352013436 71.43544884976652 93.10280465069899 20.016989118687476 63.115 20.016989118687476 Z" stroke-opacity="1" stroke-linecap="round" stroke-linejoin="round" stroke-miterlimit="10"/><path fill="rgb(0,153,255)" stroke="none" paint-order="stroke fill markers" d=" M 355.7928120962835 180.16913608318478 C 375.81574450295966 178.3893198692578 390.34943851075906 157.84287081555223 388.2547262310079 134.27735766835445 C 386.1600139512567 110.71184452115665 368.23012031039246 93.05104770288821 348.2071879037164 94.83086391681522 C 328.1842554970402 96.6106801307422 313.65056148924083 117.15712918444777 315.745273768992 140.72264233164555 C 317.8399860487432 164.28815547884335 335.76987968960736 181.9489522971118 355.7928120962835 180.16913608318478 Z" fill-opacity="0.16862745098039217"/><path fill="none" stroke="rgb(0,153,255)" paint-order="fill stroke markers" d=" M 355.7928120962835 180.16913608318478 C 375.81574450295966 178.3893198692578 390.34943851075906 157.84287081555223 388.2547262310079 134.27735766835445 C 386.1600139512567 110.71184452115665 368.23012031039246 93.05104770288821 348.2071879037164 94.83086391681522 C 328.1842554970402 96.6106801307422 313.65056148924083 117.15712918444777 315.745273768992 140.72264233164555 C 317.8399860487432 164.28815547884335 335.76987968960736 181.9489522971118 355.7928120962835 180.16913608318478 Z" stroke-opacity="1" stroke-linecap="round" stroke-linejoin="round" stroke-miterlimit="10"/><path fill="none" stroke="rgb(0,0,0)" paint-order="fill stroke markers" d=" M 350.1323808464759 6.869450006804698 C 306.8528650041833 6.655618406793138 271.48475870804083 63.78708713886091 271.13550441044725 134.47615697172458 C 270.78625011285374 205.16522680458826 305.5881033112321 262.64338505985063 348.8676191535247 262.85721665986216 C 392.1471349958173 263.0710482598737 427.51524129195974 205.93957952780596 427.8644955895533 135.25050969494228 C 428.21374988714683 64.56143986207864 393.4118966887685 7.083281606816243 350.1323808464759 6.869450006804698 Z" stroke-opacity="0.6980392156862745" stroke-linecap="round" stroke-linejoin="round" stroke-miterlimit="10"/><path fill="none" stroke="rgb(128,128,128)" paint-order="fill stroke markers" d=" M 64.92380866749744 20.08073171307879 L 350.99730417489013 94.70937841951869" stroke-opacity="0.6980392156862745" stroke-linejoin="round" stroke-miterlimit="10" stroke-width="1.5" stroke-dasharray="9.5,8"/><path fill="none" stroke="rgb(128,128,128)" paint-order="fill stroke markers" d=" M 63.92712920349264 249.6968306438714 L 350.3831335692516 180.1759974382908" stroke-opacity="0.6980392156862745" stroke-linejoin="round" stroke-miterlimit="10" stroke-width="1.5" stroke-dasharray="9.5,8"/><path fill="none" stroke="rgb(0,0,0)" paint-order="fill stroke markers" d=" M 64 94 L 331.1653153300716 132.70592907608813" stroke-opacity="0.6980392156862745" stroke-linecap="round" stroke-linejoin="round" stroke-miterlimit="10" stroke-width="2"/><path fill="rgb(0,0,0)" stroke="none" paint-order="stroke fill markers" fill-rule="evenodd" d=" M 346.99999999999994 135 L 330.59179759909364 136.6646002435702 L 331.7388330610496 128.74725790860606 Z" fill-opacity="0.6980392156862745"/><path fill="none" stroke="rgb(0,0,0)" paint-order="fill stroke markers" d=" M 69 199 L 331.4078524530273 138.5895591475045" stroke-opacity="0.6980392156862745" stroke-linecap="round" stroke-linejoin="round" stroke-miterlimit="10" stroke-width="2"/><path fill="rgb(0,0,0)" stroke="none" paint-order="stroke fill markers" fill-rule="evenodd" d=" M 347 135 L 332.30524223990346 142.48759603424767 L 330.51046266615117 134.69152226076133 Z" fill-opacity="0.6980392156862745"/><path fill="rgb(0,0,255)" stroke="none" paint-order="stroke fill markers" d=" M 69 94 C 69 96.76142374915396 66.76142374915396 99 64 99 C 61.23857625084603 99 59 96.76142374915396 59 94 C 59 91.23857625084604 61.23857625084603 89 64 89 C 66.76142374915396 89 69 91.23857625084604 69 94 Z" fill-opacity="1"/><path fill="none" stroke="rgb(0,0,0)" paint-order="fill stroke markers" d=" M 69 94 C 69 96.76142374915396 66.76142374915396 99 64 99 C 61.23857625084603 99 59 96.76142374915396 59 94 C 59 91.23857625084604 61.23857625084603 89 64 89 C 66.76142374915396 89 69 91.23857625084604 69 94 Z" stroke-opacity="1" stroke-linecap="round" stroke-linejoin="round" stroke-miterlimit="10"/><path fill="rgb(0,0,255)" stroke="none" paint-order="stroke fill markers" d=" M 352 135 C 352 137.76142374915398 349.76142374915395 140 347 140 C 344.23857625084605 140 342 137.76142374915398 342 135 C 342 132.23857625084602 344.23857625084605 130 347 130 C 349.76142374915395 130 352 132.23857625084602 352 135 Z" fill-opacity="1"/><path fill="none" stroke="rgb(0,0,0)" paint-order="fill stroke markers" d=" M 352 135 C 352 137.76142374915398 349.76142374915395 140 347 140 C 344.23857625084605 140 342 137.76142374915398 342 135 C 342 132.23857625084602 344.23857625084605 130 347 130 C 349.76142374915395 130 352 132.23857625084602 352 135 Z" stroke-opacity="1" stroke-linecap="round" stroke-linejoin="round" stroke-miterlimit="10"/><path fill="rgb(0,0,255)" stroke="none" paint-order="stroke fill markers" d=" M 74 199 C 74 201.76142374915398 71.76142374915396 204 69 204 C 66.23857625084604 204 64 201.76142374915398 64 199 C 64 196.23857625084602 66.23857625084604 194 69 194 C 71.76142374915396 194 74 196.23857625084602 74 199 Z" fill-opacity="1"/><path fill="none" stroke="rgb(0,0,0)" paint-order="fill stroke markers" d=" M 74 199 C 74 201.76142374915398 71.76142374915396 204 69 204 C 66.23857625084604 204 64 201.76142374915398 64 199 C 64 196.23857625084602 66.23857625084604 194 69 194 C 71.76142374915396 194 74 196.23857625084602 74 199 Z" stroke-opacity="1" stroke-linecap="round" stroke-linejoin="round" stroke-miterlimit="10"/></g></g></svg>