<svg version="1.1" xmlns="http://www.w3.org/2000/svg" xmlns:xlink="http://www.w3.org/1999/xlink" width="739" height="366"><defs><clipPath id="cSxIPAnZcbiW"><path fill="none" stroke="none" d=" M 0 0 L 739 0 L 739 366 L 0 366 L 0 0 Z"/></clipPath></defs><g transform="scale(1,1)" clip-path="url(#cSxIPAnZcbiW)"><g><path fill="none" stroke="rgb(192,192,192)" paint-order="fill stroke markers" d=" M 2.821192439887909 308.4504654369787 L 282.7120626949904 308.4504654369787" stroke-opacity="1" stroke-linecap="round" stroke-linejoin="round" stroke-miterlimit="10" stroke-width="1.5"/><path fill="none" stroke="rgb(192,192,192)" paint-order="fill stroke markers" d=" M 2.821192439887909 261.80198706112833 L 282.7120626949904 261.80198706112833" stroke-opacity="1" stroke-linecap="round" stroke-linejoin="round" stroke-miterlimit="10" stroke-width="1.5"/><path fill="none" stroke="rgb(192,192,192)" paint-order="fill stroke markers" d=" M 2.821192439887909 215.1535086852779 L 282.7120626949904 215.1535086852779" stroke-opacity="1" stroke-linecap="round" stroke-linejoin="round" stroke-miterlimit="10" stroke-width="1.5"/><path fill="none" stroke="rgb(192,192,192)" paint-order="fill stroke markers" d=" M 2.821192439887909 168.5050303094275 L 282.7120626949904 168.5050303094275" stroke-opacity="1" stroke-linecap="round" stroke-linejoin="round" stroke-miterlimit="10" stroke-width="1.5"/><path fill="none" stroke="rgb(192,192,192)" paint-order="fill stroke markers" d=" M 2.821192439887909 121.8565519335771 L 282.7120626949904 121.8565519335771" stroke-opacity="1" stroke-linecap="round" stroke-linejoin="round" stroke-miterlimit="10" stroke-width="1.5"/><path fill="none" stroke="rgb(192,192,192)" paint-order="fill stroke markers" d=" M 2.821192439887909 75.20807355772669 L 282.7120626949904 75.20807355772669" stroke-opacity="1" stroke-linecap="round" stroke-linejoin="round" stroke-miterlimit="10" stroke-width="1.5"/><path fill="none" stroke="rgb(192,192,192)" paint-order="fill stroke markers" d=" M 2.821192439887909 28.55959518187629 L 282.7120626949904 28.55959518187629" stroke-opacity="1" stroke-linecap="round" stroke-linejoin="round" stroke-miterlimit="10" stroke-width="1.5"/><path fill="none" stroke="rgb(192,192,192)" paint-order="fill stroke markers" d=" M 2.821192439887909 308.4504654369787 L 2.821192439887909 28.55959518187629" stroke-opacity="1" stroke-linecap="round" stroke-linejoin="round" stroke-miterlimit="10" stroke-width="1.5"/><path fill="none" stroke="rgb(192,192,192)" paint-order="fill stroke markers" d=" M 49.469670815738326 308.4504654369787 L 49.469670815738326 28.55959518187629" stroke-opacity="1" stroke-linecap="round" stroke-linejoin="round" stroke-miterlimit="10" stroke-width="1.5"/><path fill="none" stroke="rgb(192,192,192)" paint-order="fill stroke markers" d=" M 96.11814919158874 308.4504654369787 L 96.11814919158874 28.55959518187629" stroke-opacity="1" stroke-linecap="round" stroke-linejoin="round" stroke-miterlimit="10" stroke-width="1.5"/><path fill="none" stroke="rgb(192,192,192)" paint-order="fill stroke markers" d=" M 142.76662756743914 308.4504654369787 L 142.76662756743914 28.55959518187629" stroke-opacity="1" stroke-linecap="round" stroke-linejoin="round" stroke-miterlimit="10" stroke-width="1.5"/><path fill="none" stroke="rgb(192,192,192)" paint-order="fill stroke markers" d=" M 189.41510594328955 308.4504654369787 L 189.41510594328955 28.55959518187629" stroke-opacity="1" stroke-linecap="round" stroke-linejoin="round" stroke-miterlimit="10" stroke-width="1.5"/><path fill="none" stroke="rgb(192,192,192)" paint-order="fill stroke markers" d=" M 236.06358431913998 308.4504654369787 L 236.06358431913998 28.55959518187629" stroke-opacity="1" stroke-linecap="round" stroke-linejoin="round" stroke-miterlimit="10" stroke-width="1.5"/><path fill="none" stroke="rgb(192,192,192)" paint-order="fill stroke markers" d=" M 282.7120626949904 308.4504654369787 L 282.7120626949904 28.55959518187629" stroke-opacity="1" stroke-linecap="round" stroke-linejoin="round" stroke-miterlimit="10" stroke-width="1.5"/><path fill="rgb(127,0,255)" stroke="none" paint-order="stroke fill markers" fill-rule="evenodd" d=" M 2.821192439887909 308.4504654369787 L 2.821192439887909 28.55959518187629 L 282.7120626949904 28.55959518187629 L 282.7120626949904 308.4504654369787 Z" fill-opacity="0.09803921568627451"/><path fill="rgb(102,204,255)" stroke="none" paint-order="stroke fill markers" fill-rule="evenodd" d=" M 521.9699893201532 10.436097176445202 L 445 87.40608649659838 L 658 312 L 734.9699893201532 235.03001067984684 Z" fill-opacity="0.24705882352941178"/><path fill="none" stroke="rgb(127,0,255)" paint-order="fill stroke markers" d=" M 2.821192439887909 308.4504654369787 L 2.821192439887909 28.55959518187629" stroke-opacity="0.6980392156862745" stroke-linecap="round" stroke-linejoin="round" stroke-miterlimit="10" stroke-width="1.5"/><path fill="none" stroke="rgb(127,0,255)" paint-order="fill stroke markers" d=" M 2.821192439887909 28.55959518187629 L 282.7120626949904 28.55959518187629" stroke-opacity="0.6980392156862745" stroke-linecap="round" stroke-linejoin="round" stroke-miterlimit="10" stroke-width="1.5"/><path fill="none" stroke="rgb(127,0,255)" paint-order="fill stroke markers" d=" M 282.7120626949904 28.55959518187629 L 282.7120626949904 308.4504654369787" stroke-opacity="0.6980392156862745" stroke-linecap="round" stroke-linejoin="round" stroke-miterlimit="10" stroke-width="1.5"/><path fill="none" stroke="rgb(127,0,255)" paint-order="fill stroke markers" d=" M 282.7120626949904 308.4504654369787 L 2.821192439887909 308.4504654369787" stroke-opacity="0.6980392156862745" stroke-linecap="round" stroke-linejoin="round" stroke-miterlimit="10" stroke-width="1.5"/><path fill="none" stroke="rgb(0,0,0)" paint-order="fill stroke markers" d=" M 445 274 L 658 312" stroke-opacity="0.6980392156862745" stroke-linecap="round" stroke-linejoin="round" stroke-miterlimit="10" stroke-width="1.5"/><path fill="none" stroke="rgb(0,0,0)" paint-order="fill stroke markers" d=" M 658 312 L 658 125.40608649659836" stroke-opacity="0.6980392156862745" stroke-linecap="round" stroke-linejoin="round" stroke-miterlimit="10" stroke-width="1.5"/><path fill="none" stroke="rgb(0,0,0)" paint-order="fill stroke markers" d=" M 658 125.40608649659836 L 445 87.40608649659838" stroke-opacity="0.6980392156862745" stroke-linecap="round" stroke-linejoin="round" stroke-miterlimit="10" stroke-width="1.5"/><path fill="none" stroke="rgb(0,0,0)" paint-order="fill stroke markers" d=" M 445 87.40608649659838 L 445 274" stroke-opacity="0.6980392156862745" stroke-linecap="round" stroke-linejoin="round" stroke-miterlimit="10" stroke-width="1.5"/><path fill="none" stroke="rgb(0,0,0)" paint-order="fill stroke markers" d=" M 445 87.40608649659838 L 521.9699893201532 10.436097176445202" stroke-opacity="0.6980392156862745" stroke-linecap="round" stroke-linejoin="round" stroke-miterlimit="10" stroke-width="1.5"/><path fill="none" stroke="rgb(0,0,0)" paint-order="fill stroke markers" d=" M 521.9699893201532 10.436097176445202 L 734.9699893201532 48.436097176445216" stroke-opacity="0.6980392156862745" stroke-linecap="round" stroke-linejoin="round" stroke-miterlimit="10" stroke-width="1.5"/><path fill="none" stroke="rgb(0,0,0)" paint-order="fill stroke markers" d=" M 734.9699893201532 48.436097176445216 L 658 125.40608649659836" stroke-opacity="0.6980392156862745" stroke-linecap="round" stroke-linejoin="round" stroke-miterlimit="10" stroke-width="1.5"/><path fill="none" stroke="rgb(0,0,0)" paint-order="fill stroke markers" d=" M 734.9699893201532 48.436097176445216 L 734.9699893201532 235.03001067984684" stroke-opacity="0.6980392156862745" stroke-linecap="round" stroke-linejoin="round" stroke-miterlimit="10" stroke-width="1.5"/><path fill="none" stroke="rgb(0,0,0)" paint-order="fill stroke markers" d=" M 734.9699893201532 235.03001067984684 L 658 312" stroke-opacity="0.6980392156862745" stroke-linecap="round" stroke-linejoin="round" stroke-miterlimit="10" stroke-width="1.5"/><path fill="none" stroke="rgb(0,0,0)" paint-order="fill stroke markers" d=" M 445 274 L 521.9699893201532 197.03001067984684" stroke-opacity="0.6980392156862745" stroke-linejoin="round" stroke-miterlimit="10" stroke-width="1.5" stroke-dasharray="9.5,8"/><path fill="none" stroke="rgb(0,0,0)" paint-order="fill stroke markers" d=" M 521.9699893201532 197.03001067984684 L 521.9699893201532 10.436097176445202" stroke-opacity="0.6980392156862745" stroke-linejoin="round" stroke-miterlimit="10" stroke-width="1.5" stroke-dasharray="9.5,8"/><path fill="none" stroke="rgb(0,0,0)" paint-order="fill stroke markers" d=" M 521.9699893201532 197.03001067984684 L 734.9699893201532 235.03001067984684" stroke-opacity="0.6980392156862745" stroke-linejoin="round" stroke-miterlimit="10" stroke-width="1.5" stroke-dasharray="9.5,8"/><path fill="none" stroke="rgb(102,204,255)" paint-order="fill stroke markers" d=" M 445 87.40608649659838 L 658 312" stroke-opacity="0.6980392156862745" stroke-linecap="round" stroke-linejoin="round" stroke-miterlimit="10" stroke-width="1.5"/><path fill="none" stroke="rgb(102,204,255)" paint-order="fill stroke markers" d=" M 734.9699893201532 235.03001067984684 L 521.9699893201532 10.436097176445202" stroke-opacity="0.6980392156862745" stroke-linecap="round" stroke-linejoin="round" stroke-miterlimit="10" stroke-width="1.5"/><path fill="none" stroke="rgb(0,0,0)" paint-order="fill stroke markers" d=" M 142.76662756743914 168.5050303094275 L 172.41510594328955 168.5050303094275" stroke-opacity="0.6980392156862745" stroke-linecap="round" stroke-linejoin="round" stroke-miterlimit="10" stroke-width="2.5"/><path fill="rgb(0,0,0)" stroke="none" paint-order="stroke fill markers" fill-rule="evenodd" d=" M 189.41510594328955 168.5050303094275 L 172.41510594328955 172.7550303094275 L 172.41510594328955 164.2550303094275 Z" fill-opacity="0.6980392156862745"/><g transform="scale(27,27)"><g transform="translate(5.777777777777778,7.222222777777778)"><path fill="rgb(0,0,0)" stroke="none" paint-order="stroke fill markers" d=" M 0.222 -0.218 L 0.178 -0.218 Q 0.163 -0.162 0.163 -0.125 Q 0.163 -0.028 0.261 -0.028 Q 0.396 -0.028 0.47100000000000003 -0.107 Q 0.481 -0.11800000000000001 0.486 -0.11800000000000001 Q 0.493 -0.11800000000000001 0.502 -0.108 Q 0.511 -0.098 0.511 -0.092 Q 0.511 -0.081 0.482 -0.0565 Q 0.453 -0.032 0.41300000000000003 -0.016 Q 0.35000000000000003 0.008 0.258 0.008 Q 0.159 0.008 0.10400000000000001 -0.039 Q 0.049 -0.08600000000000001 0.049 -0.17200000000000001 Q 0.049 -0.29 0.1365 -0.371 Q 0.224 -0.452 0.358 -0.452 Q 0.42 -0.452 0.4575 -0.4255 Q 0.495 -0.399 0.495 -0.356 Q 0.495 -0.272 0.396 -0.23800000000000002 Q 0.336 -0.218 0.222 -0.218 M 0.187 -0.254 Q 0.216 -0.254 0.232 -0.254 Q 0.248 -0.254 0.278 -0.256 Q 0.308 -0.258 0.326 -0.2615 Q 0.34400000000000003 -0.265 0.367 -0.2725 Q 0.39 -0.28 0.403 -0.2905 Q 0.41600000000000004 -0.301 0.4255 -0.3175 Q 0.435 -0.334 0.435 -0.355 Q 0.435 -0.386 0.41200000000000003 -0.401 Q 0.389 -0.41600000000000004 0.358 -0.41600000000000004 Q 0.292 -0.41600000000000004 0.246 -0.37 Q 0.20600000000000002 -0.333 0.187 -0.254 Z"/></g><g transform="translate(6.3313867777777775,7.372222777777778) scale(0.7,0.7)"><path fill="rgb(0,0,0)" stroke="none" paint-order="stroke fill markers" d=" M 0.354 -0.623 L 0.354 -0.047 L 0.494 -0.047 L 0.494 0 Q 0.45 -0.003 0.295 -0.003 Q 0.14 -0.003 0.096 0 L 0.096 -0.047 L 0.23500000000000001 -0.047 L 0.23500000000000001 -0.5640000000000001 Q 0.17300000000000001 -0.544 0.105 -0.544 L 0.085 -0.544 L 0.085 -0.591 L 0.105 -0.591 Q 0.229 -0.591 0.306 -0.648 Q 0.315 -0.655 0.328 -0.655 Q 0.34600000000000003 -0.655 0.35000000000000003 -0.6485 Q 0.354 -0.642 0.354 -0.623 Z"/></g></g><path fill="none" stroke="rgb(0,0,0)" paint-order="fill stroke markers" d=" M 142.76662756743914 168.5050303094275 L 142.76662756743914 138.8565519335771" stroke-opacity="0.6980392156862745" stroke-linecap="round" stroke-linejoin="round" stroke-miterlimit="10" stroke-width="2.5"/><path fill="rgb(0,0,0)" stroke="none" paint-order="stroke fill markers" fill-rule="evenodd" d=" M 142.76662756743914 121.8565519335771 L 147.01662756743914 138.8565519335771 L 138.51662756743914 138.8565519335771 Z" fill-opacity="0.6980392156862745"/><g transform="scale(27,27)"><g transform="translate(4,5.666667222222222)"><path fill="rgb(0,0,0)" stroke="none" paint-order="stroke fill markers" d=" M 0.222 -0.218 L 0.178 -0.218 Q 0.163 -0.162 0.163 -0.125 Q 0.163 -0.028 0.261 -0.028 Q 0.396 -0.028 0.47100000000000003 -0.107 Q 0.481 -0.11800000000000001 0.486 -0.11800000000000001 Q 0.493 -0.11800000000000001 0.502 -0.108 Q 0.511 -0.098 0.511 -0.092 Q 0.511 -0.081 0.482 -0.0565 Q 0.453 -0.032 0.41300000000000003 -0.016 Q 0.35000000000000003 0.008 0.258 0.008 Q 0.159 0.008 0.10400000000000001 -0.039 Q 0.049 -0.08600000000000001 0.049 -0.17200000000000001 Q 0.049 -0.29 0.1365 -0.371 Q 0.224 -0.452 0.358 -0.452 Q 0.42 -0.452 0.4575 -0.4255 Q 0.495 -0.399 0.495 -0.356 Q 0.495 -0.272 0.396 -0.23800000000000002 Q 0.336 -0.218 0.222 -0.218 M 0.187 -0.254 Q 0.216 -0.254 0.232 -0.254 Q 0.248 -0.254 0.278 -0.256 Q 0.308 -0.258 0.326 -0.2615 Q 0.34400000000000003 -0.265 0.367 -0.2725 Q 0.39 -0.28 0.403 -0.2905 Q 0.41600000000000004 -0.301 0.4255 -0.3175 Q 0.435 -0.334 0.435 -0.355 Q 0.435 -0.386 0.41200000000000003 -0.401 Q 0.389 -0.41600000000000004 0.358 -0.41600000000000004 Q 0.292 -0.41600000000000004 0.246 -0.37 Q 0.20600000000000002 -0.333 0.187 -0.254 Z"/></g><g transform="translate(4.553609,5.816667222222223) scale(0.7,0.7)"><path fill="rgb(0,0,0)" stroke="none" paint-order="stroke fill markers" d=" M 0.517 -0.222 L 0.486 0 L 0.057 0 L 0.057 -0.018000000000000002 Q 0.057 -0.034 0.059000000000000004 -0.0385 Q 0.061 -0.043000000000000003 0.07 -0.052000000000000005 L 0.271 -0.257 Q 0.379 -0.367 0.379 -0.465 Q 0.379 -0.525 0.34400000000000003 -0.5665 Q 0.309 -0.608 0.247 -0.608 Q 0.186 -0.608 0.14400000000000002 -0.5730000000000001 Q 0.155 -0.5700000000000001 0.166 -0.5645 Q 0.177 -0.559 0.189 -0.542 Q 0.201 -0.525 0.201 -0.501 Q 0.201 -0.466 0.1785 -0.4475 Q 0.156 -0.429 0.129 -0.429 Q 0.10400000000000001 -0.429 0.0805 -0.4465 Q 0.057 -0.464 0.057 -0.503 Q 0.057 -0.5700000000000001 0.11850000000000001 -0.6125 Q 0.18 -0.655 0.272 -0.655 Q 0.379 -0.655 0.448 -0.603 Q 0.517 -0.551 0.517 -0.466 Q 0.517 -0.431 0.507 -0.404 Q 0.497 -0.377 0.46900000000000003 -0.34750000000000003 Q 0.441 -0.318 0.417 -0.299 Q 0.393 -0.28 0.339 -0.24 Q 0.292 -0.20600000000000002 0.195 -0.125 L 0.342 -0.125 Q 0.433 -0.125 0.444 -0.131 Q 0.457 -0.138 0.47000000000000003 -0.222 L 0.517 -0.222 Z"/></g></g><path fill="none" stroke="rgb(0,0,0)" paint-order="fill stroke markers" d=" M 598 167 L 598 148" stroke-opacity="0.6980392156862745" stroke-linecap="round" stroke-linejoin="round" stroke-miterlimit="10" stroke-width="2.5"/><path fill="rgb(0,0,0)" stroke="none" paint-order="stroke fill markers" fill-rule="evenodd" d=" M 598 131 L 602.25 148 L 593.75 148 Z" fill-opacity="0.6980392156862745"/><path fill="none" stroke="rgb(0,0,0)" paint-order="fill stroke markers" d=" M 598 167 L 584.5499365354711 181.52606854169113" stroke-opacity="0.6980392156862745" stroke-linecap="round" stroke-linejoin="round" stroke-miterlimit="10" stroke-width="2.5"/><path fill="rgb(0,0,0)" stroke="none" paint-order="stroke fill markers" fill-rule="evenodd" d=" M 573 194 L 581.4314536708939 178.63858440782334 L 587.6684194000484 184.41355267555892 Z" fill-opacity="0.6980392156862745"/><path fill="none" stroke="rgb(0,0,0)" paint-order="fill stroke markers" d=" M 598 167 L 628.0612338774984 169.55840288319135" stroke-opacity="0.6980392156862745" stroke-linecap="round" stroke-linejoin="round" stroke-miterlimit="10" stroke-width="2.5"/><path fill="rgb(0,0,0)" stroke="none" paint-order="stroke fill markers" fill-rule="evenodd" d=" M 645 171 L 627.7008345982962 173.79309441381676 L 628.4216331567005 165.32371135256594 Z" fill-opacity="0.6980392156862745"/><path fill="none" stroke="rgb(0,0,0)" paint-order="fill stroke markers" d=" M 306.0363018829156 168.5050303094275 L 407.6574978225416 168.5050303094275" stroke-opacity="0.6980392156862745" stroke-linecap="round" stroke-linejoin="round" stroke-miterlimit="10" stroke-width="1.5"/><path fill="rgb(0,0,0)" stroke="none" paint-order="stroke fill markers" fill-rule="evenodd" d=" M 422.6574978225416 168.5050303094275 L 407.6574978225416 172.2550303094275 L 407.6574978225416 164.7550303094275 Z" fill-opacity="0.6980392156862745"/><g transform="scale(27,27)"><g transform="translate(13,5.797222111111111)"><path fill="rgb(0,0,0)" stroke="none" paint-order="stroke fill markers" d=" M 0.645 -0.682 L 0.739 -0.067 Q 0.741 -0.054 0.7435 -0.051500000000000004 Q 0.746 -0.049 0.755 -0.048 Q 0.769 -0.047 0.794 -0.047 Q 0.81 -0.047 0.8165 -0.0465 Q 0.8230000000000001 -0.046 0.8285 -0.042 Q 0.834 -0.038 0.834 -0.029 Q 0.834 -0.016 0.8280000000000001 -0.009000000000000001 Q 0.8220000000000001 -0.002 0.8175 -0.001 Q 0.8130000000000001 0 0.806 0 Q 0.794 0 0.771 -0.001 Q 0.748 -0.002 0.736 -0.002 Q 0.724 -0.002 0.7010000000000001 -0.0025 Q 0.678 -0.003 0.667 -0.003 Q 0.65 -0.003 0.592 -0.0015 Q 0.534 0 0.518 0 Q 0.496 0 0.496 -0.018000000000000002 Q 0.496 -0.032 0.502 -0.0385 Q 0.508 -0.045 0.514 -0.046 Q 0.52 -0.047 0.533 -0.047 Q 0.5740000000000001 -0.047 0.598 -0.052000000000000005 L 0.5750000000000001 -0.198 L 0.305 -0.198 L 0.213 -0.058 Q 0.23500000000000001 -0.047 0.271 -0.047 Q 0.297 -0.047 0.297 -0.029 Q 0.297 0 0.27 0 Q 0.252 0 0.215 -0.0015 Q 0.178 -0.003 0.159 -0.003 Q 0.14300000000000002 -0.003 0.111 -0.0015 Q 0.079 0 0.064 0 Q 0.056 0 0.0505 -0.0055 Q 0.045 -0.011 0.045 -0.018000000000000002 Q 0.045 -0.031 0.051000000000000004 -0.038 Q 0.057 -0.045 0.062 -0.046 Q 0.067 -0.047 0.077 -0.047 Q 0.111 -0.047 0.132 -0.0535 Q 0.153 -0.06 0.1595 -0.0665 Q 0.166 -0.073 0.17400000000000002 -0.085 L 0.5670000000000001 -0.686 Q 0.577 -0.7020000000000001 0.5855 -0.7065 Q 0.594 -0.711 0.611 -0.711 Q 0.63 -0.711 0.636 -0.706 Q 0.642 -0.7010000000000001 0.645 -0.682 M 0.524 -0.533 L 0.336 -0.245 L 0.5680000000000001 -0.245 L 0.524 -0.533 Z"/></g></g><path fill="rgb(102,204,255)" stroke="none" paint-order="stroke fill markers" d=" M 146.76662756743914 168.5050303094275 C 146.76662756743914 170.71416930875068 144.97576656676233 172.5050303094275 142.76662756743914 172.5050303094275 C 140.55748856811596 172.5050303094275 138.76662756743914 170.71416930875068 138.76662756743914 168.5050303094275 C 138.76662756743914 166.2958913101043 140.55748856811596 164.5050303094275 142.76662756743914 164.5050303094275 C 144.97576656676233 164.5050303094275 146.76662756743914 166.2958913101043 146.76662756743914 168.5050303094275 Z" fill-opacity="1"/><path fill="none" stroke="rgb(0,0,0)" paint-order="fill stroke markers" d=" M 146.76662756743914 168.5050303094275 C 146.76662756743914 170.71416930875068 144.97576656676233 172.5050303094275 142.76662756743914 172.5050303094275 C 140.55748856811596 172.5050303094275 138.76662756743914 170.71416930875068 138.76662756743914 168.5050303094275 C 138.76662756743914 166.2958913101043 140.55748856811596 164.5050303094275 142.76662756743914 164.5050303094275 C 144.97576656676233 164.5050303094275 146.76662756743914 166.2958913101043 146.76662756743914 168.5050303094275 Z" stroke-opacity="1" stroke-linecap="round" stroke-linejoin="round" stroke-miterlimit="10"/><path fill="rgb(102,204,255)" stroke="none" paint-order="stroke fill markers" d=" M 602 167 C 602 169.20913899932316 600.2091389993232 171 598 171 C 595.7908610006768 171 594 169.20913899932316 594 167 C 594 164.7908610006768 595.7908610006768 163 598 163 C 600.2091389993232 163 602 164.7908610006768 602 167 Z" fill-opacity="1"/><path fill="none" stroke="rgb(0,0,0)" paint-order="fill stroke markers" d=" M 602 167 C 602 169.20913899932316 600.2091389993232 171 598 171 C 595.7908610006768 171 594 169.20913899932316 594 167 C 594 164.7908610006768 595.7908610006768 163 598 163 C 600.2091389993232 163 602 164.7908610006768 602 167 Z" stroke-opacity="1" stroke-linecap="round" stroke-linejoin="round" stroke-miterlimit="10"/><g transform="scale(27,27)"><g transform="translate(4.962962962962963,12.938076874074074)"><path fill="rgb(0,102,51)" stroke="none" paint-order="stroke fill markers" d=" M 0.268 -0.314 L 0.268 -0.314 L 0.268 -0.092 Q 0.268 -0.051000000000000004 0.28 -0.043000000000000003 Q 0.291 -0.035 0.329 -0.035 Q 0.357 -0.035 0.357 -0.018000000000000002 Q 0.34800000000000003 -0.001 0.324 0 L 0.05 0 Q 0.02 0 0.017 -0.012 Q 0.016 -0.015 0.016 -0.018000000000000002 Q 0.016 -0.035 0.043000000000000003 -0.035 Q 0.09 -0.035 0.099 -0.049 Q 0.10400000000000001 -0.057 0.105 -0.077 L 0.105 -0.092 L 0.105 -0.593 Q 0.105 -0.635 0.092 -0.643 Q 0.081 -0.65 0.043000000000000003 -0.65 Q 0.016 -0.65 0.016 -0.667 Q 0.024 -0.684 0.05 -0.685 L 0.364 -0.685 Q 0.494 -0.685 0.5690000000000001 -0.625 L 0.5700000000000001 -0.624 Q 0.611 -0.59 0.624 -0.541 Q 0.629 -0.521 0.629 -0.498 Q 0.629 -0.369 0.489 -0.333 Q 0.47300000000000003 -0.328 0.454 -0.325 Q 0.495 -0.259 0.578 -0.14100000000000001 Q 0.652 -0.043000000000000003 0.6880000000000001 -0.035 Q 0.7030000000000001 -0.032 0.7030000000000001 -0.018000000000000002 Q 0.6940000000000001 -0.001 0.67 0 L 0.532 0 Q 0.508 0 0.503 -0.007 Q 0.501 -0.009000000000000001 0.499 -0.012 L 0.454 -0.082 L 0.304 -0.314 L 0.268 -0.314 M 0.461 -0.363 L 0.461 -0.363 Q 0.583 -0.385 0.593 -0.47800000000000004 Q 0.594 -0.488 0.594 -0.498 Q 0.594 -0.595 0.482 -0.631 Q 0.468 -0.636 0.454 -0.639 Q 0.492 -0.59 0.492 -0.497 Q 0.492 -0.404 0.461 -0.363 M 0.268 -0.596 L 0.268 -0.34900000000000003 Q 0.385 -0.34900000000000003 0.42 -0.373 Q 0.429 -0.38 0.436 -0.39 Q 0.457 -0.419 0.457 -0.497 Q 0.457 -0.613 0.395 -0.639 Q 0.37 -0.65 0.33 -0.65 Q 0.271 -0.65 0.268 -0.607 L 0.268 -0.596 M 0.132 -0.035 L 0.241 -0.035 Q 0.233 -0.053 0.233 -0.09 L 0.233 -0.599 Q 0.233 -0.634 0.246 -0.65 L 0.132 -0.65 Q 0.14 -0.632 0.14 -0.595 L 0.14 -0.09 Q 0.14 -0.053 0.132 -0.035 M 0.34500000000000003 -0.314 L 0.525 -0.035 L 0.622 -0.035 Q 0.548 -0.109 0.41600000000000004 -0.32 Q 0.386 -0.316 0.364 -0.316 Q 0.359 -0.316 0.34500000000000003 -0.314 Z"/></g><g transform="translate(5.6851869629629626,12.525184874074075) scale(0.7,0.7)"><path fill="rgb(0,102,51)" stroke="none" paint-order="stroke fill markers" d=" M 0.449 -0.17400000000000002 L 0.449 -0.17400000000000002 L 0.421 0 L 0.05 0 Q 0.05 -0.025 0.056 -0.032 L 0.061 -0.037 L 0.253 -0.251 Q 0.358 -0.369 0.358 -0.47200000000000003 Q 0.358 -0.561 0.304 -0.607 L 0.303 -0.608 L 0.302 -0.608 Q 0.27 -0.635 0.224 -0.635 Q 0.152 -0.635 0.109 -0.5730000000000001 Q 0.097 -0.555 0.089 -0.533 Q 0.092 -0.534 0.10200000000000001 -0.534 Q 0.14200000000000002 -0.534 0.153 -0.498 L 0.153 -0.497 Q 0.155 -0.49 0.155 -0.482 Q 0.155 -0.442 0.117 -0.431 Q 0.109 -0.429 0.10300000000000001 -0.429 Q 0.066 -0.429 0.054 -0.46 Q 0.05 -0.47100000000000003 0.05 -0.485 Q 0.05 -0.562 0.109 -0.617 Q 0.162 -0.666 0.23700000000000002 -0.666 Q 0.34700000000000003 -0.666 0.40800000000000003 -0.592 Q 0.443 -0.549 0.448 -0.49 Q 0.449 -0.481 0.449 -0.47200000000000003 Q 0.449 -0.399 0.394 -0.333 Q 0.365 -0.299 0.304 -0.243 L 0.243 -0.189 L 0.233 -0.18 L 0.127 -0.077 L 0.307 -0.077 Q 0.395 -0.077 0.402 -0.085 Q 0.41200000000000003 -0.099 0.424 -0.17400000000000002 L 0.449 -0.17400000000000002 Z"/></g></g><g transform="scale(27,27)"><g transform="translate(21.185185185185187,12.901039837037036)"><path fill="rgb(0,102,51)" stroke="none" paint-order="stroke fill markers" d=" M 0.268 -0.314 L 0.268 -0.314 L 0.268 -0.092 Q 0.268 -0.051000000000000004 0.28 -0.043000000000000003 Q 0.291 -0.035 0.329 -0.035 Q 0.357 -0.035 0.357 -0.018000000000000002 Q 0.34800000000000003 -0.001 0.324 0 L 0.05 0 Q 0.02 0 0.017 -0.012 Q 0.016 -0.015 0.016 -0.018000000000000002 Q 0.016 -0.035 0.043000000000000003 -0.035 Q 0.09 -0.035 0.099 -0.049 Q 0.10400000000000001 -0.057 0.105 -0.077 L 0.105 -0.092 L 0.105 -0.593 Q 0.105 -0.635 0.092 -0.643 Q 0.081 -0.65 0.043000000000000003 -0.65 Q 0.016 -0.65 0.016 -0.667 Q 0.024 -0.684 0.05 -0.685 L 0.364 -0.685 Q 0.494 -0.685 0.5690000000000001 -0.625 L 0.5700000000000001 -0.624 Q 0.611 -0.59 0.624 -0.541 Q 0.629 -0.521 0.629 -0.498 Q 0.629 -0.369 0.489 -0.333 Q 0.47300000000000003 -0.328 0.454 -0.325 Q 0.495 -0.259 0.578 -0.14100000000000001 Q 0.652 -0.043000000000000003 0.6880000000000001 -0.035 Q 0.7030000000000001 -0.032 0.7030000000000001 -0.018000000000000002 Q 0.6940000000000001 -0.001 0.67 0 L 0.532 0 Q 0.508 0 0.503 -0.007 Q 0.501 -0.009000000000000001 0.499 -0.012 L 0.454 -0.082 L 0.304 -0.314 L 0.268 -0.314 M 0.461 -0.363 L 0.461 -0.363 Q 0.583 -0.385 0.593 -0.47800000000000004 Q 0.594 -0.488 0.594 -0.498 Q 0.594 -0.595 0.482 -0.631 Q 0.468 -0.636 0.454 -0.639 Q 0.492 -0.59 0.492 -0.497 Q 0.492 -0.404 0.461 -0.363 M 0.268 -0.596 L 0.268 -0.34900000000000003 Q 0.385 -0.34900000000000003 0.42 -0.373 Q 0.429 -0.38 0.436 -0.39 Q 0.457 -0.419 0.457 -0.497 Q 0.457 -0.613 0.395 -0.639 Q 0.37 -0.65 0.33 -0.65 Q 0.271 -0.65 0.268 -0.607 L 0.268 -0.596 M 0.132 -0.035 L 0.241 -0.035 Q 0.233 -0.053 0.233 -0.09 L 0.233 -0.599 Q 0.233 -0.634 0.246 -0.65 L 0.132 -0.65 Q 0.14 -0.632 0.14 -0.595 L 0.14 -0.09 Q 0.14 -0.053 0.132 -0.035 M 0.34500000000000003 -0.314 L 0.525 -0.035 L 0.622 -0.035 Q 0.548 -0.109 0.41600000000000004 -0.32 Q 0.386 -0.316 0.364 -0.316 Q 0.359 -0.316 0.34500000000000003 -0.314 Z"/></g><g transform="translate(21.907409185185188,12.488147837037037) scale(0.7,0.7)"><path fill="rgb(0,102,51)" stroke="none" paint-order="stroke fill markers" d=" M 0.29 -0.352 L 0.29 -0.352 Q 0.39 -0.332 0.434 -0.254 Q 0.457 -0.215 0.457 -0.171 Q 0.457 -0.08600000000000001 0.387 -0.028 Q 0.326 0.022 0.244 0.022 Q 0.145 0.022 0.085 -0.037 Q 0.042 -0.079 0.042 -0.135 Q 0.042 -0.182 0.084 -0.191 Q 0.091 -0.193 0.098 -0.193 Q 0.136 -0.193 0.149 -0.161 Q 0.153 -0.148 0.154 -0.137 Q 0.154 -0.097 0.11800000000000001 -0.085 Q 0.10400000000000001 -0.08 0.088 -0.082 Q 0.125 -0.02 0.216 -0.008 Q 0.229 -0.006 0.241 -0.006 Q 0.305 -0.006 0.335 -0.069 Q 0.354 -0.109 0.354 -0.171 Q 0.354 -0.304 0.274 -0.331 Q 0.256 -0.337 0.23500000000000001 -0.337 L 0.191 -0.337 Q 0.169 -0.337 0.167 -0.34800000000000003 Q 0.167 -0.358 0.182 -0.36 Q 0.197 -0.36 0.221 -0.363 Q 0.272 -0.365 0.301 -0.402 L 0.301 -0.403 L 0.302 -0.404 L 0.303 -0.405 L 0.304 -0.405 L 0.31 -0.41500000000000004 Q 0.338 -0.462 0.338 -0.529 Q 0.338 -0.622 0.266 -0.638 Q 0.254 -0.641 0.242 -0.641 Q 0.17200000000000001 -0.641 0.128 -0.601 Q 0.117 -0.591 0.109 -0.579 Q 0.171 -0.579 0.171 -0.529 Q 0.171 -0.493 0.14 -0.481 Q 0.131 -0.47800000000000004 0.12 -0.47800000000000004 Q 0.081 -0.47800000000000004 0.07100000000000001 -0.513 L 0.07100000000000001 -0.513 L 0.07100000000000001 -0.514 Q 0.069 -0.522 0.069 -0.53 Q 0.069 -0.597 0.135 -0.637 Q 0.183 -0.666 0.246 -0.666 Q 0.337 -0.666 0.393 -0.612 L 0.395 -0.61 Q 0.43 -0.5740000000000001 0.43 -0.528 Q 0.43 -0.445 0.359 -0.389 Q 0.328 -0.365 0.29 -0.352 Z"/></g></g></g></g></svg>