<svg version="1.1" xmlns="http://www.w3.org/2000/svg" xmlns:xlink="http://www.w3.org/1999/xlink" width="712" height="324"><defs><clipPath id="HdEcSMWGBfAg"><path fill="none" stroke="none" d=" M 0 0 L 712 0 L 712 324 L 0 324 L 0 0 Z"/></clipPath></defs><g transform="scale(1,1)" clip-path="url(#HdEcSMWGBfAg)"><g><path fill="none" stroke="rgb(192,192,192)" paint-order="fill stroke markers" d=" M 5.8211924398879376 286.4504654369788 L 285.7120626949903 286.4504654369788" stroke-opacity="1" stroke-linecap="round" stroke-linejoin="round" stroke-miterlimit="10" stroke-width="1.5"/><path fill="none" stroke="rgb(192,192,192)" paint-order="fill stroke markers" d=" M 5.8211924398879376 239.8019870611284 L 285.7120626949903 239.8019870611284" stroke-opacity="1" stroke-linecap="round" stroke-linejoin="round" stroke-miterlimit="10" stroke-width="1.5"/><path fill="none" stroke="rgb(192,192,192)" paint-order="fill stroke markers" d=" M 5.8211924398879376 193.15350868527798 L 285.7120626949903 193.15350868527798" stroke-opacity="1" stroke-linecap="round" stroke-linejoin="round" stroke-miterlimit="10" stroke-width="1.5"/><path fill="none" stroke="rgb(192,192,192)" paint-order="fill stroke markers" d=" M 5.8211924398879376 146.50503030942758 L 285.7120626949903 146.50503030942758" stroke-opacity="1" stroke-linecap="round" stroke-linejoin="round" stroke-miterlimit="10" stroke-width="1.5"/><path fill="none" stroke="rgb(192,192,192)" paint-order="fill stroke markers" d=" M 5.8211924398879376 99.85655193357718 L 285.7120626949903 99.85655193357718" stroke-opacity="1" stroke-linecap="round" stroke-linejoin="round" stroke-miterlimit="10" stroke-width="1.5"/><path fill="none" stroke="rgb(192,192,192)" paint-order="fill stroke markers" d=" M 5.8211924398879376 53.20807355772676 L 285.7120626949903 53.20807355772676" stroke-opacity="1" stroke-linecap="round" stroke-linejoin="round" stroke-miterlimit="10" stroke-width="1.5"/><path fill="none" stroke="rgb(192,192,192)" paint-order="fill stroke markers" d=" M 5.8211924398879376 6.559595181876347 L 285.7120626949903 6.559595181876347" stroke-opacity="1" stroke-linecap="round" stroke-linejoin="round" stroke-miterlimit="10" stroke-width="1.5"/><path fill="none" stroke="rgb(192,192,192)" paint-order="fill stroke markers" d=" M 5.8211924398879376 286.4504654369788 L 5.8211924398879376 6.559595181876347" stroke-opacity="1" stroke-linecap="round" stroke-linejoin="round" stroke-miterlimit="10" stroke-width="1.5"/><path fill="none" stroke="rgb(192,192,192)" paint-order="fill stroke markers" d=" M 52.46967081573834 286.4504654369788 L 52.46967081573834 6.559595181876347" stroke-opacity="1" stroke-linecap="round" stroke-linejoin="round" stroke-miterlimit="10" stroke-width="1.5"/><path fill="none" stroke="rgb(192,192,192)" paint-order="fill stroke markers" d=" M 99.11814919158874 286.4504654369788 L 99.11814919158874 6.559595181876347" stroke-opacity="1" stroke-linecap="round" stroke-linejoin="round" stroke-miterlimit="10" stroke-width="1.5"/><path fill="none" stroke="rgb(192,192,192)" paint-order="fill stroke markers" d=" M 145.76662756743914 286.4504654369788 L 145.76662756743914 6.559595181876347" stroke-opacity="1" stroke-linecap="round" stroke-linejoin="round" stroke-miterlimit="10" stroke-width="1.5"/><path fill="none" stroke="rgb(192,192,192)" paint-order="fill stroke markers" d=" M 192.41510594328955 286.4504654369788 L 192.41510594328955 6.559595181876347" stroke-opacity="1" stroke-linecap="round" stroke-linejoin="round" stroke-miterlimit="10" stroke-width="1.5"/><path fill="none" stroke="rgb(192,192,192)" paint-order="fill stroke markers" d=" M 239.06358431913995 286.4504654369788 L 239.06358431913995 6.559595181876347" stroke-opacity="1" stroke-linecap="round" stroke-linejoin="round" stroke-miterlimit="10" stroke-width="1.5"/><path fill="none" stroke="rgb(192,192,192)" paint-order="fill stroke markers" d=" M 285.7120626949903 286.4504654369788 L 285.7120626949903 6.559595181876347" stroke-opacity="1" stroke-linecap="round" stroke-linejoin="round" stroke-miterlimit="10" stroke-width="1.5"/><path fill="none" stroke="rgb(192,192,192)" paint-order="fill stroke markers" d=" M 425.6574978225416 286.4504654369788 L 425.6574978225416 6.559595181876347" stroke-opacity="1" stroke-linecap="round" stroke-linejoin="round" stroke-miterlimit="10" stroke-width="1.5"/><path fill="none" stroke="rgb(192,192,192)" paint-order="fill stroke markers" d=" M 472.30597619839193 286.4504654369788 L 472.30597619839193 6.559595181876347" stroke-opacity="1" stroke-linecap="round" stroke-linejoin="round" stroke-miterlimit="10" stroke-width="1.5"/><path fill="none" stroke="rgb(192,192,192)" paint-order="fill stroke markers" d=" M 518.9544545742424 286.4504654369788 L 518.9544545742424 6.559595181876347" stroke-opacity="1" stroke-linecap="round" stroke-linejoin="round" stroke-miterlimit="10" stroke-width="1.5"/><path fill="none" stroke="rgb(192,192,192)" paint-order="fill stroke markers" d=" M 565.6029329500927 286.4504654369788 L 565.6029329500927 6.559595181876347" stroke-opacity="1" stroke-linecap="round" stroke-linejoin="round" stroke-miterlimit="10" stroke-width="1.5"/><path fill="none" stroke="rgb(192,192,192)" paint-order="fill stroke markers" d=" M 612.2514113259432 286.4504654369788 L 612.2514113259432 6.559595181876347" stroke-opacity="1" stroke-linecap="round" stroke-linejoin="round" stroke-miterlimit="10" stroke-width="1.5"/><path fill="none" stroke="rgb(192,192,192)" paint-order="fill stroke markers" d=" M 658.8998897017937 286.4504654369788 L 658.8998897017937 6.559595181876347" stroke-opacity="1" stroke-linecap="round" stroke-linejoin="round" stroke-miterlimit="10" stroke-width="1.5"/><path fill="none" stroke="rgb(192,192,192)" paint-order="fill stroke markers" d=" M 705.548368077644 286.4504654369788 L 705.548368077644 6.559595181876347" stroke-opacity="1" stroke-linecap="round" stroke-linejoin="round" stroke-miterlimit="10" stroke-width="1.5"/><path fill="none" stroke="rgb(192,192,192)" paint-order="fill stroke markers" d=" M 425.6574978225416 286.4504654369788 L 705.548368077644 286.4504654369788" stroke-opacity="1" stroke-linecap="round" stroke-linejoin="round" stroke-miterlimit="10" stroke-width="1.5"/><path fill="none" stroke="rgb(192,192,192)" paint-order="fill stroke markers" d=" M 425.6574978225416 239.8019870611284 L 705.548368077644 239.8019870611284" stroke-opacity="1" stroke-linecap="round" stroke-linejoin="round" stroke-miterlimit="10" stroke-width="1.5"/><path fill="none" stroke="rgb(192,192,192)" paint-order="fill stroke markers" d=" M 425.6574978225416 193.15350868527798 L 705.548368077644 193.15350868527798" stroke-opacity="1" stroke-linecap="round" stroke-linejoin="round" stroke-miterlimit="10" stroke-width="1.5"/><path fill="none" stroke="rgb(192,192,192)" paint-order="fill stroke markers" d=" M 425.6574978225416 146.50503030942758 L 705.548368077644 146.50503030942758" stroke-opacity="1" stroke-linecap="round" stroke-linejoin="round" stroke-miterlimit="10" stroke-width="1.5"/><path fill="none" stroke="rgb(192,192,192)" paint-order="fill stroke markers" d=" M 425.6574978225416 99.85655193357718 L 705.548368077644 99.85655193357718" stroke-opacity="1" stroke-linecap="round" stroke-linejoin="round" stroke-miterlimit="10" stroke-width="1.5"/><path fill="none" stroke="rgb(192,192,192)" paint-order="fill stroke markers" d=" M 425.6574978225416 53.20807355772676 L 705.548368077644 53.20807355772676" stroke-opacity="1" stroke-linecap="round" stroke-linejoin="round" stroke-miterlimit="10" stroke-width="1.5"/><path fill="none" stroke="rgb(192,192,192)" paint-order="fill stroke markers" d=" M 425.6574978225416 6.559595181876347 L 705.548368077644 6.559595181876347" stroke-opacity="1" stroke-linecap="round" stroke-linejoin="round" stroke-miterlimit="10" stroke-width="1.5"/><path fill="rgb(127,0,255)" stroke="none" paint-order="stroke fill markers" fill-rule="evenodd" d=" M 5.8211924398879376 286.4504654369788 L 5.8211924398879376 6.559595181876347 L 285.7120626949903 6.559595181876347 L 285.7120626949903 286.4504654369788 Z" fill-opacity="0.09803921568627451"/><path fill="rgb(0,153,204)" stroke="none" paint-order="stroke fill markers" fill-rule="evenodd" d=" M 425.6574978225416 286.4504654369788 L 565.6029329500927 146.50503030942758 L 705.548368077644 6.559595181876347 L 565.6029329500927 146.50503030942758 Z" fill-opacity="0.09803921568627451"/><path fill="none" stroke="rgb(127,0,255)" paint-order="fill stroke markers" d=" M 5.8211924398879376 286.4504654369788 L 5.8211924398879376 6.559595181876347" stroke-opacity="0.6980392156862745" stroke-linecap="round" stroke-linejoin="round" stroke-miterlimit="10" stroke-width="1.5"/><path fill="none" stroke="rgb(127,0,255)" paint-order="fill stroke markers" d=" M 5.8211924398879376 6.559595181876347 L 285.7120626949903 6.559595181876347" stroke-opacity="0.6980392156862745" stroke-linecap="round" stroke-linejoin="round" stroke-miterlimit="10" stroke-width="1.5"/><path fill="none" stroke="rgb(127,0,255)" paint-order="fill stroke markers" d=" M 285.7120626949903 6.559595181876347 L 285.7120626949903 286.4504654369788" stroke-opacity="0.6980392156862745" stroke-linecap="round" stroke-linejoin="round" stroke-miterlimit="10" stroke-width="1.5"/><path fill="none" stroke="rgb(127,0,255)" paint-order="fill stroke markers" d=" M 285.7120626949903 286.4504654369788 L 5.8211924398879376 286.4504654369788" stroke-opacity="0.6980392156862745" stroke-linecap="round" stroke-linejoin="round" stroke-miterlimit="10" stroke-width="1.5"/><path fill="none" stroke="rgb(0,153,204)" paint-order="fill stroke markers" d=" M 425.6574978225416 286.4504654369788 L 565.6029329500927 146.50503030942758" stroke-opacity="0.6980392156862745" stroke-linecap="round" stroke-linejoin="round" stroke-miterlimit="10" stroke-width="1.5"/><path fill="none" stroke="rgb(0,153,204)" paint-order="fill stroke markers" d=" M 565.6029329500927 146.50503030942758 L 705.548368077644 6.559595181876347" stroke-opacity="0.6980392156862745" stroke-linecap="round" stroke-linejoin="round" stroke-miterlimit="10" stroke-width="1.5"/><path fill="none" stroke="rgb(0,153,204)" paint-order="fill stroke markers" d=" M 705.548368077644 6.559595181876347 L 565.6029329500927 146.50503030942758" stroke-opacity="0.6980392156862745" stroke-linecap="round" stroke-linejoin="round" stroke-miterlimit="10" stroke-width="1.5"/><path fill="none" stroke="rgb(0,153,204)" paint-order="fill stroke markers" d=" M 565.6029329500927 146.50503030942758 L 425.6574978225416 286.4504654369788" stroke-opacity="0.6980392156862745" stroke-linecap="round" stroke-linejoin="round" stroke-miterlimit="10" stroke-width="1.5"/><path fill="none" stroke="rgb(0,0,0)" paint-order="fill stroke markers" d=" M 145.76662756743914 146.50503030942758 L 175.41510594328955 146.50503030942758" stroke-opacity="0.6980392156862745" stroke-linecap="round" stroke-linejoin="round" stroke-miterlimit="10" stroke-width="2.5"/><path fill="rgb(0,0,0)" stroke="none" paint-order="stroke fill markers" fill-rule="evenodd" d=" M 192.41510594328955 146.50503030942758 L 175.41510594328955 150.75503030942758 L 175.41510594328955 142.25503030942758 Z" fill-opacity="0.6980392156862745"/><g transform="scale(27,27)"><g transform="translate(5.7407407407407405,6.333333888888889)"><path fill="rgb(0,0,0)" stroke="none" paint-order="stroke fill markers" d=" M 0.222 -0.218 L 0.178 -0.218 Q 0.163 -0.162 0.163 -0.125 Q 0.163 -0.028 0.261 -0.028 Q 0.396 -0.028 0.47100000000000003 -0.107 Q 0.481 -0.11800000000000001 0.486 -0.11800000000000001 Q 0.493 -0.11800000000000001 0.502 -0.108 Q 0.511 -0.098 0.511 -0.092 Q 0.511 -0.081 0.482 -0.0565 Q 0.453 -0.032 0.41300000000000003 -0.016 Q 0.35000000000000003 0.008 0.258 0.008 Q 0.159 0.008 0.10400000000000001 -0.039 Q 0.049 -0.08600000000000001 0.049 -0.17200000000000001 Q 0.049 -0.29 0.1365 -0.371 Q 0.224 -0.452 0.358 -0.452 Q 0.42 -0.452 0.4575 -0.4255 Q 0.495 -0.399 0.495 -0.356 Q 0.495 -0.272 0.396 -0.23800000000000002 Q 0.336 -0.218 0.222 -0.218 M 0.187 -0.254 Q 0.216 -0.254 0.232 -0.254 Q 0.248 -0.254 0.278 -0.256 Q 0.308 -0.258 0.326 -0.2615 Q 0.34400000000000003 -0.265 0.367 -0.2725 Q 0.39 -0.28 0.403 -0.2905 Q 0.41600000000000004 -0.301 0.4255 -0.3175 Q 0.435 -0.334 0.435 -0.355 Q 0.435 -0.386 0.41200000000000003 -0.401 Q 0.389 -0.41600000000000004 0.358 -0.41600000000000004 Q 0.292 -0.41600000000000004 0.246 -0.37 Q 0.20600000000000002 -0.333 0.187 -0.254 Z"/></g><g transform="translate(6.29434974074074,6.48333388888889) scale(0.7,0.7)"><path fill="rgb(0,0,0)" stroke="none" paint-order="stroke fill markers" d=" M 0.354 -0.623 L 0.354 -0.047 L 0.494 -0.047 L 0.494 0 Q 0.45 -0.003 0.295 -0.003 Q 0.14 -0.003 0.096 0 L 0.096 -0.047 L 0.23500000000000001 -0.047 L 0.23500000000000001 -0.5640000000000001 Q 0.17300000000000001 -0.544 0.105 -0.544 L 0.085 -0.544 L 0.085 -0.591 L 0.105 -0.591 Q 0.229 -0.591 0.306 -0.648 Q 0.315 -0.655 0.328 -0.655 Q 0.34600000000000003 -0.655 0.35000000000000003 -0.6485 Q 0.354 -0.642 0.354 -0.623 Z"/></g></g><path fill="none" stroke="rgb(0,0,0)" paint-order="fill stroke markers" d=" M 145.76662756743914 146.50503030942758 L 145.76662756743914 116.85655193357718" stroke-opacity="0.6980392156862745" stroke-linecap="round" stroke-linejoin="round" stroke-miterlimit="10" stroke-width="2.5"/><path fill="rgb(0,0,0)" stroke="none" paint-order="stroke fill markers" fill-rule="evenodd" d=" M 145.76662756743914 99.85655193357718 L 150.01662756743914 116.85655193357718 L 141.51662756743914 116.85655193357718 Z" fill-opacity="0.6980392156862745"/><g transform="scale(27,27)"><g transform="translate(4.074074074074074,4.81481537037037)"><path fill="rgb(0,0,0)" stroke="none" paint-order="stroke fill markers" d=" M 0.222 -0.218 L 0.178 -0.218 Q 0.163 -0.162 0.163 -0.125 Q 0.163 -0.028 0.261 -0.028 Q 0.396 -0.028 0.47100000000000003 -0.107 Q 0.481 -0.11800000000000001 0.486 -0.11800000000000001 Q 0.493 -0.11800000000000001 0.502 -0.108 Q 0.511 -0.098 0.511 -0.092 Q 0.511 -0.081 0.482 -0.0565 Q 0.453 -0.032 0.41300000000000003 -0.016 Q 0.35000000000000003 0.008 0.258 0.008 Q 0.159 0.008 0.10400000000000001 -0.039 Q 0.049 -0.08600000000000001 0.049 -0.17200000000000001 Q 0.049 -0.29 0.1365 -0.371 Q 0.224 -0.452 0.358 -0.452 Q 0.42 -0.452 0.4575 -0.4255 Q 0.495 -0.399 0.495 -0.356 Q 0.495 -0.272 0.396 -0.23800000000000002 Q 0.336 -0.218 0.222 -0.218 M 0.187 -0.254 Q 0.216 -0.254 0.232 -0.254 Q 0.248 -0.254 0.278 -0.256 Q 0.308 -0.258 0.326 -0.2615 Q 0.34400000000000003 -0.265 0.367 -0.2725 Q 0.39 -0.28 0.403 -0.2905 Q 0.41600000000000004 -0.301 0.4255 -0.3175 Q 0.435 -0.334 0.435 -0.355 Q 0.435 -0.386 0.41200000000000003 -0.401 Q 0.389 -0.41600000000000004 0.358 -0.41600000000000004 Q 0.292 -0.41600000000000004 0.246 -0.37 Q 0.20600000000000002 -0.333 0.187 -0.254 Z"/></g><g transform="translate(4.627683074074074,4.964815370370371) scale(0.7,0.7)"><path fill="rgb(0,0,0)" stroke="none" paint-order="stroke fill markers" d=" M 0.517 -0.222 L 0.486 0 L 0.057 0 L 0.057 -0.018000000000000002 Q 0.057 -0.034 0.059000000000000004 -0.0385 Q 0.061 -0.043000000000000003 0.07 -0.052000000000000005 L 0.271 -0.257 Q 0.379 -0.367 0.379 -0.465 Q 0.379 -0.525 0.34400000000000003 -0.5665 Q 0.309 -0.608 0.247 -0.608 Q 0.186 -0.608 0.14400000000000002 -0.5730000000000001 Q 0.155 -0.5700000000000001 0.166 -0.5645 Q 0.177 -0.559 0.189 -0.542 Q 0.201 -0.525 0.201 -0.501 Q 0.201 -0.466 0.1785 -0.4475 Q 0.156 -0.429 0.129 -0.429 Q 0.10400000000000001 -0.429 0.0805 -0.4465 Q 0.057 -0.464 0.057 -0.503 Q 0.057 -0.5700000000000001 0.11850000000000001 -0.6125 Q 0.18 -0.655 0.272 -0.655 Q 0.379 -0.655 0.448 -0.603 Q 0.517 -0.551 0.517 -0.466 Q 0.517 -0.431 0.507 -0.404 Q 0.497 -0.377 0.46900000000000003 -0.34750000000000003 Q 0.441 -0.318 0.417 -0.299 Q 0.393 -0.28 0.339 -0.24 Q 0.292 -0.20600000000000002 0.195 -0.125 L 0.342 -0.125 Q 0.433 -0.125 0.444 -0.131 Q 0.457 -0.138 0.47000000000000003 -0.222 L 0.517 -0.222 Z"/></g></g><path fill="none" stroke="rgb(0,0,0)" paint-order="fill stroke markers" d=" M 565.6029329500927 146.50503030942758 L 595.2514113259432 146.50503030942758" stroke-opacity="0.6980392156862745" stroke-linecap="round" stroke-linejoin="round" stroke-miterlimit="10" stroke-width="2.5"/><path fill="rgb(0,0,0)" stroke="none" paint-order="stroke fill markers" fill-rule="evenodd" d=" M 612.2514113259432 146.50503030942758 L 595.2514113259432 150.75503030942758 L 595.2514113259432 142.25503030942758 Z" fill-opacity="0.6980392156862745"/><g transform="scale(27,27)"><g transform="translate(21.40740740740741,6.296296851851852)"><path fill="rgb(0,0,0)" stroke="none" paint-order="stroke fill markers" d=" M 0.222 -0.218 L 0.178 -0.218 Q 0.163 -0.162 0.163 -0.125 Q 0.163 -0.028 0.261 -0.028 Q 0.396 -0.028 0.47100000000000003 -0.107 Q 0.481 -0.11800000000000001 0.486 -0.11800000000000001 Q 0.493 -0.11800000000000001 0.502 -0.108 Q 0.511 -0.098 0.511 -0.092 Q 0.511 -0.081 0.482 -0.0565 Q 0.453 -0.032 0.41300000000000003 -0.016 Q 0.35000000000000003 0.008 0.258 0.008 Q 0.159 0.008 0.10400000000000001 -0.039 Q 0.049 -0.08600000000000001 0.049 -0.17200000000000001 Q 0.049 -0.29 0.1365 -0.371 Q 0.224 -0.452 0.358 -0.452 Q 0.42 -0.452 0.4575 -0.4255 Q 0.495 -0.399 0.495 -0.356 Q 0.495 -0.272 0.396 -0.23800000000000002 Q 0.336 -0.218 0.222 -0.218 M 0.187 -0.254 Q 0.216 -0.254 0.232 -0.254 Q 0.248 -0.254 0.278 -0.256 Q 0.308 -0.258 0.326 -0.2615 Q 0.34400000000000003 -0.265 0.367 -0.2725 Q 0.39 -0.28 0.403 -0.2905 Q 0.41600000000000004 -0.301 0.4255 -0.3175 Q 0.435 -0.334 0.435 -0.355 Q 0.435 -0.386 0.41200000000000003 -0.401 Q 0.389 -0.41600000000000004 0.358 -0.41600000000000004 Q 0.292 -0.41600000000000004 0.246 -0.37 Q 0.20600000000000002 -0.333 0.187 -0.254 Z"/></g><g transform="translate(21.96101640740741,6.446296851851852) scale(0.7,0.7)"><path fill="rgb(0,0,0)" stroke="none" paint-order="stroke fill markers" d=" M 0.354 -0.623 L 0.354 -0.047 L 0.494 -0.047 L 0.494 0 Q 0.45 -0.003 0.295 -0.003 Q 0.14 -0.003 0.096 0 L 0.096 -0.047 L 0.23500000000000001 -0.047 L 0.23500000000000001 -0.5640000000000001 Q 0.17300000000000001 -0.544 0.105 -0.544 L 0.085 -0.544 L 0.085 -0.591 L 0.105 -0.591 Q 0.229 -0.591 0.306 -0.648 Q 0.315 -0.655 0.328 -0.655 Q 0.34600000000000003 -0.655 0.35000000000000003 -0.6485 Q 0.354 -0.642 0.354 -0.623 Z"/></g></g><path fill="none" stroke="rgb(0,0,0)" paint-order="fill stroke markers" d=" M 565.6029329500927 146.50503030942758 L 565.6029329500927 116.85655193357718" stroke-opacity="0.6980392156862745" stroke-linecap="round" stroke-linejoin="round" stroke-miterlimit="10" stroke-width="2.5"/><path fill="rgb(0,0,0)" stroke="none" paint-order="stroke fill markers" fill-rule="evenodd" d=" M 565.6029329500927 99.85655193357718 L 569.8529329500927 116.85655193357718 L 561.3529329500927 116.85655193357718 Z" fill-opacity="0.6980392156862745"/><g transform="scale(27,27)"><g transform="translate(19.74074074074074,4.81481537037037)"><path fill="rgb(0,0,0)" stroke="none" paint-order="stroke fill markers" d=" M 0.222 -0.218 L 0.178 -0.218 Q 0.163 -0.162 0.163 -0.125 Q 0.163 -0.028 0.261 -0.028 Q 0.396 -0.028 0.47100000000000003 -0.107 Q 0.481 -0.11800000000000001 0.486 -0.11800000000000001 Q 0.493 -0.11800000000000001 0.502 -0.108 Q 0.511 -0.098 0.511 -0.092 Q 0.511 -0.081 0.482 -0.0565 Q 0.453 -0.032 0.41300000000000003 -0.016 Q 0.35000000000000003 0.008 0.258 0.008 Q 0.159 0.008 0.10400000000000001 -0.039 Q 0.049 -0.08600000000000001 0.049 -0.17200000000000001 Q 0.049 -0.29 0.1365 -0.371 Q 0.224 -0.452 0.358 -0.452 Q 0.42 -0.452 0.4575 -0.4255 Q 0.495 -0.399 0.495 -0.356 Q 0.495 -0.272 0.396 -0.23800000000000002 Q 0.336 -0.218 0.222 -0.218 M 0.187 -0.254 Q 0.216 -0.254 0.232 -0.254 Q 0.248 -0.254 0.278 -0.256 Q 0.308 -0.258 0.326 -0.2615 Q 0.34400000000000003 -0.265 0.367 -0.2725 Q 0.39 -0.28 0.403 -0.2905 Q 0.41600000000000004 -0.301 0.4255 -0.3175 Q 0.435 -0.334 0.435 -0.355 Q 0.435 -0.386 0.41200000000000003 -0.401 Q 0.389 -0.41600000000000004 0.358 -0.41600000000000004 Q 0.292 -0.41600000000000004 0.246 -0.37 Q 0.20600000000000002 -0.333 0.187 -0.254 Z"/></g><g transform="translate(20.294349740740742,4.964815370370371) scale(0.7,0.7)"><path fill="rgb(0,0,0)" stroke="none" paint-order="stroke fill markers" d=" M 0.517 -0.222 L 0.486 0 L 0.057 0 L 0.057 -0.018000000000000002 Q 0.057 -0.034 0.059000000000000004 -0.0385 Q 0.061 -0.043000000000000003 0.07 -0.052000000000000005 L 0.271 -0.257 Q 0.379 -0.367 0.379 -0.465 Q 0.379 -0.525 0.34400000000000003 -0.5665 Q 0.309 -0.608 0.247 -0.608 Q 0.186 -0.608 0.14400000000000002 -0.5730000000000001 Q 0.155 -0.5700000000000001 0.166 -0.5645 Q 0.177 -0.559 0.189 -0.542 Q 0.201 -0.525 0.201 -0.501 Q 0.201 -0.466 0.1785 -0.4475 Q 0.156 -0.429 0.129 -0.429 Q 0.10400000000000001 -0.429 0.0805 -0.4465 Q 0.057 -0.464 0.057 -0.503 Q 0.057 -0.5700000000000001 0.11850000000000001 -0.6125 Q 0.18 -0.655 0.272 -0.655 Q 0.379 -0.655 0.448 -0.603 Q 0.517 -0.551 0.517 -0.466 Q 0.517 -0.431 0.507 -0.404 Q 0.497 -0.377 0.46900000000000003 -0.34750000000000003 Q 0.441 -0.318 0.417 -0.299 Q 0.393 -0.28 0.339 -0.24 Q 0.292 -0.20600000000000002 0.195 -0.125 L 0.342 -0.125 Q 0.433 -0.125 0.444 -0.131 Q 0.457 -0.138 0.47000000000000003 -0.222 L 0.517 -0.222 Z"/></g></g><path fill="none" stroke="rgb(0,0,0)" paint-order="fill stroke markers" d=" M 309.03630188291555 146.50503030942758 L 387.3332586346164 146.50503030942758" stroke-opacity="0.6980392156862745" stroke-linecap="round" stroke-linejoin="round" stroke-miterlimit="10" stroke-width="1.5"/><path fill="rgb(0,0,0)" stroke="none" paint-order="stroke fill markers" fill-rule="evenodd" d=" M 402.3332586346164 146.50503030942758 L 387.3332586346164 150.25503030942758 L 387.3332586346164 142.75503030942758 Z" fill-opacity="0.6980392156862745"/><g transform="scale(27,27)"><g transform="translate(12.666666666666666,5.056481370370371)"><path fill="rgb(0,0,0)" stroke="none" paint-order="stroke fill markers" d=" M 0.645 -0.682 L 0.739 -0.067 Q 0.741 -0.054 0.7435 -0.051500000000000004 Q 0.746 -0.049 0.755 -0.048 Q 0.769 -0.047 0.794 -0.047 Q 0.81 -0.047 0.8165 -0.0465 Q 0.8230000000000001 -0.046 0.8285 -0.042 Q 0.834 -0.038 0.834 -0.029 Q 0.834 -0.016 0.8280000000000001 -0.009000000000000001 Q 0.8220000000000001 -0.002 0.8175 -0.001 Q 0.8130000000000001 0 0.806 0 Q 0.794 0 0.771 -0.001 Q 0.748 -0.002 0.736 -0.002 Q 0.724 -0.002 0.7010000000000001 -0.0025 Q 0.678 -0.003 0.667 -0.003 Q 0.65 -0.003 0.592 -0.0015 Q 0.534 0 0.518 0 Q 0.496 0 0.496 -0.018000000000000002 Q 0.496 -0.032 0.502 -0.0385 Q 0.508 -0.045 0.514 -0.046 Q 0.52 -0.047 0.533 -0.047 Q 0.5740000000000001 -0.047 0.598 -0.052000000000000005 L 0.5750000000000001 -0.198 L 0.305 -0.198 L 0.213 -0.058 Q 0.23500000000000001 -0.047 0.271 -0.047 Q 0.297 -0.047 0.297 -0.029 Q 0.297 0 0.27 0 Q 0.252 0 0.215 -0.0015 Q 0.178 -0.003 0.159 -0.003 Q 0.14300000000000002 -0.003 0.111 -0.0015 Q 0.079 0 0.064 0 Q 0.056 0 0.0505 -0.0055 Q 0.045 -0.011 0.045 -0.018000000000000002 Q 0.045 -0.031 0.051000000000000004 -0.038 Q 0.057 -0.045 0.062 -0.046 Q 0.067 -0.047 0.077 -0.047 Q 0.111 -0.047 0.132 -0.0535 Q 0.153 -0.06 0.1595 -0.0665 Q 0.166 -0.073 0.17400000000000002 -0.085 L 0.5670000000000001 -0.686 Q 0.577 -0.7020000000000001 0.5855 -0.7065 Q 0.594 -0.711 0.611 -0.711 Q 0.63 -0.711 0.636 -0.706 Q 0.642 -0.7010000000000001 0.645 -0.682 M 0.524 -0.533 L 0.336 -0.245 L 0.5680000000000001 -0.245 L 0.524 -0.533 Z"/></g></g><path fill="rgb(102,204,255)" stroke="none" paint-order="stroke fill markers" d=" M 569.6029329500927 146.50503030942758 C 569.6029329500927 148.71416930875074 567.8120719494159 150.50503030942758 565.6029329500927 150.50503030942758 C 563.3937939507696 150.50503030942758 561.6029329500927 148.71416930875074 561.6029329500927 146.50503030942758 C 561.6029329500927 144.2958913101044 563.3937939507696 142.50503030942758 565.6029329500927 142.50503030942758 C 567.8120719494159 142.50503030942758 569.6029329500927 144.2958913101044 569.6029329500927 146.50503030942758 Z" fill-opacity="1"/><path fill="none" stroke="rgb(0,0,0)" paint-order="fill stroke markers" d=" M 569.6029329500927 146.50503030942758 C 569.6029329500927 148.71416930875074 567.8120719494159 150.50503030942758 565.6029329500927 150.50503030942758 C 563.3937939507696 150.50503030942758 561.6029329500927 148.71416930875074 561.6029329500927 146.50503030942758 C 561.6029329500927 144.2958913101044 563.3937939507696 142.50503030942758 565.6029329500927 142.50503030942758 C 567.8120719494159 142.50503030942758 569.6029329500927 144.2958913101044 569.6029329500927 146.50503030942758 Z" stroke-opacity="1" stroke-linecap="round" stroke-linejoin="round" stroke-miterlimit="10"/><path fill="rgb(102,204,255)" stroke="none" paint-order="stroke fill markers" d=" M 149.76662756743914 146.50503030942758 C 149.76662756743914 148.71416930875074 147.97576656676233 150.50503030942758 145.76662756743914 150.50503030942758 C 143.55748856811596 150.50503030942758 141.76662756743914 148.71416930875074 141.76662756743914 146.50503030942758 C 141.76662756743914 144.2958913101044 143.55748856811596 142.50503030942758 145.76662756743914 142.50503030942758 C 147.97576656676233 142.50503030942758 149.76662756743914 144.2958913101044 149.76662756743914 146.50503030942758 Z" fill-opacity="1"/><path fill="none" stroke="rgb(0,0,0)" paint-order="fill stroke markers" d=" M 149.76662756743914 146.50503030942758 C 149.76662756743914 148.71416930875074 147.97576656676233 150.50503030942758 145.76662756743914 150.50503030942758 C 143.55748856811596 150.50503030942758 141.76662756743914 148.71416930875074 141.76662756743914 146.50503030942758 C 141.76662756743914 144.2958913101044 143.55748856811596 142.50503030942758 145.76662756743914 142.50503030942758 C 147.97576656676233 142.50503030942758 149.76662756743914 144.2958913101044 149.76662756743914 146.50503030942758 Z" stroke-opacity="1" stroke-linecap="round" stroke-linejoin="round" stroke-miterlimit="10"/><g transform="scale(27,27)"><g transform="translate(4.962962962962963,11.789928725925925)"><path fill="rgb(0,102,51)" stroke="none" paint-order="stroke fill markers" d=" M 0.268 -0.314 L 0.268 -0.314 L 0.268 -0.092 Q 0.268 -0.051000000000000004 0.28 -0.043000000000000003 Q 0.291 -0.035 0.329 -0.035 Q 0.357 -0.035 0.357 -0.018000000000000002 Q 0.34800000000000003 -0.001 0.324 0 L 0.05 0 Q 0.02 0 0.017 -0.012 Q 0.016 -0.015 0.016 -0.018000000000000002 Q 0.016 -0.035 0.043000000000000003 -0.035 Q 0.09 -0.035 0.099 -0.049 Q 0.10400000000000001 -0.057 0.105 -0.077 L 0.105 -0.092 L 0.105 -0.593 Q 0.105 -0.635 0.092 -0.643 Q 0.081 -0.65 0.043000000000000003 -0.65 Q 0.016 -0.65 0.016 -0.667 Q 0.024 -0.684 0.05 -0.685 L 0.364 -0.685 Q 0.494 -0.685 0.5690000000000001 -0.625 L 0.5700000000000001 -0.624 Q 0.611 -0.59 0.624 -0.541 Q 0.629 -0.521 0.629 -0.498 Q 0.629 -0.369 0.489 -0.333 Q 0.47300000000000003 -0.328 0.454 -0.325 Q 0.495 -0.259 0.578 -0.14100000000000001 Q 0.652 -0.043000000000000003 0.6880000000000001 -0.035 Q 0.7030000000000001 -0.032 0.7030000000000001 -0.018000000000000002 Q 0.6940000000000001 -0.001 0.67 0 L 0.532 0 Q 0.508 0 0.503 -0.007 Q 0.501 -0.009000000000000001 0.499 -0.012 L 0.454 -0.082 L 0.304 -0.314 L 0.268 -0.314 M 0.461 -0.363 L 0.461 -0.363 Q 0.583 -0.385 0.593 -0.47800000000000004 Q 0.594 -0.488 0.594 -0.498 Q 0.594 -0.595 0.482 -0.631 Q 0.468 -0.636 0.454 -0.639 Q 0.492 -0.59 0.492 -0.497 Q 0.492 -0.404 0.461 -0.363 M 0.268 -0.596 L 0.268 -0.34900000000000003 Q 0.385 -0.34900000000000003 0.42 -0.373 Q 0.429 -0.38 0.436 -0.39 Q 0.457 -0.419 0.457 -0.497 Q 0.457 -0.613 0.395 -0.639 Q 0.37 -0.65 0.33 -0.65 Q 0.271 -0.65 0.268 -0.607 L 0.268 -0.596 M 0.132 -0.035 L 0.241 -0.035 Q 0.233 -0.053 0.233 -0.09 L 0.233 -0.599 Q 0.233 -0.634 0.246 -0.65 L 0.132 -0.65 Q 0.14 -0.632 0.14 -0.595 L 0.14 -0.09 Q 0.14 -0.053 0.132 -0.035 M 0.34500000000000003 -0.314 L 0.525 -0.035 L 0.622 -0.035 Q 0.548 -0.109 0.41600000000000004 -0.32 Q 0.386 -0.316 0.364 -0.316 Q 0.359 -0.316 0.34500000000000003 -0.314 Z"/></g><g transform="translate(5.6851869629629626,11.377036725925926) scale(0.7,0.7)"><path fill="rgb(0,102,51)" stroke="none" paint-order="stroke fill markers" d=" M 0.449 -0.17400000000000002 L 0.449 -0.17400000000000002 L 0.421 0 L 0.05 0 Q 0.05 -0.025 0.056 -0.032 L 0.061 -0.037 L 0.253 -0.251 Q 0.358 -0.369 0.358 -0.47200000000000003 Q 0.358 -0.561 0.304 -0.607 L 0.303 -0.608 L 0.302 -0.608 Q 0.27 -0.635 0.224 -0.635 Q 0.152 -0.635 0.109 -0.5730000000000001 Q 0.097 -0.555 0.089 -0.533 Q 0.092 -0.534 0.10200000000000001 -0.534 Q 0.14200000000000002 -0.534 0.153 -0.498 L 0.153 -0.497 Q 0.155 -0.49 0.155 -0.482 Q 0.155 -0.442 0.117 -0.431 Q 0.109 -0.429 0.10300000000000001 -0.429 Q 0.066 -0.429 0.054 -0.46 Q 0.05 -0.47100000000000003 0.05 -0.485 Q 0.05 -0.562 0.109 -0.617 Q 0.162 -0.666 0.23700000000000002 -0.666 Q 0.34700000000000003 -0.666 0.40800000000000003 -0.592 Q 0.443 -0.549 0.448 -0.49 Q 0.449 -0.481 0.449 -0.47200000000000003 Q 0.449 -0.399 0.394 -0.333 Q 0.365 -0.299 0.304 -0.243 L 0.243 -0.189 L 0.233 -0.18 L 0.127 -0.077 L 0.307 -0.077 Q 0.395 -0.077 0.402 -0.085 Q 0.41200000000000003 -0.099 0.424 -0.17400000000000002 L 0.449 -0.17400000000000002 Z"/></g></g><g transform="scale(27,27)"><g transform="translate(20.59259259259259,11.826965762962963)"><path fill="rgb(0,102,51)" stroke="none" paint-order="stroke fill markers" d=" M 0.268 -0.314 L 0.268 -0.314 L 0.268 -0.092 Q 0.268 -0.051000000000000004 0.28 -0.043000000000000003 Q 0.291 -0.035 0.329 -0.035 Q 0.357 -0.035 0.357 -0.018000000000000002 Q 0.34800000000000003 -0.001 0.324 0 L 0.05 0 Q 0.02 0 0.017 -0.012 Q 0.016 -0.015 0.016 -0.018000000000000002 Q 0.016 -0.035 0.043000000000000003 -0.035 Q 0.09 -0.035 0.099 -0.049 Q 0.10400000000000001 -0.057 0.105 -0.077 L 0.105 -0.092 L 0.105 -0.593 Q 0.105 -0.635 0.092 -0.643 Q 0.081 -0.65 0.043000000000000003 -0.65 Q 0.016 -0.65 0.016 -0.667 Q 0.024 -0.684 0.05 -0.685 L 0.364 -0.685 Q 0.494 -0.685 0.5690000000000001 -0.625 L 0.5700000000000001 -0.624 Q 0.611 -0.59 0.624 -0.541 Q 0.629 -0.521 0.629 -0.498 Q 0.629 -0.369 0.489 -0.333 Q 0.47300000000000003 -0.328 0.454 -0.325 Q 0.495 -0.259 0.578 -0.14100000000000001 Q 0.652 -0.043000000000000003 0.6880000000000001 -0.035 Q 0.7030000000000001 -0.032 0.7030000000000001 -0.018000000000000002 Q 0.6940000000000001 -0.001 0.67 0 L 0.532 0 Q 0.508 0 0.503 -0.007 Q 0.501 -0.009000000000000001 0.499 -0.012 L 0.454 -0.082 L 0.304 -0.314 L 0.268 -0.314 M 0.461 -0.363 L 0.461 -0.363 Q 0.583 -0.385 0.593 -0.47800000000000004 Q 0.594 -0.488 0.594 -0.498 Q 0.594 -0.595 0.482 -0.631 Q 0.468 -0.636 0.454 -0.639 Q 0.492 -0.59 0.492 -0.497 Q 0.492 -0.404 0.461 -0.363 M 0.268 -0.596 L 0.268 -0.34900000000000003 Q 0.385 -0.34900000000000003 0.42 -0.373 Q 0.429 -0.38 0.436 -0.39 Q 0.457 -0.419 0.457 -0.497 Q 0.457 -0.613 0.395 -0.639 Q 0.37 -0.65 0.33 -0.65 Q 0.271 -0.65 0.268 -0.607 L 0.268 -0.596 M 0.132 -0.035 L 0.241 -0.035 Q 0.233 -0.053 0.233 -0.09 L 0.233 -0.599 Q 0.233 -0.634 0.246 -0.65 L 0.132 -0.65 Q 0.14 -0.632 0.14 -0.595 L 0.14 -0.09 Q 0.14 -0.053 0.132 -0.035 M 0.34500000000000003 -0.314 L 0.525 -0.035 L 0.622 -0.035 Q 0.548 -0.109 0.41600000000000004 -0.32 Q 0.386 -0.316 0.364 -0.316 Q 0.359 -0.316 0.34500000000000003 -0.314 Z"/></g><g transform="translate(21.314816592592592,11.414073762962964) scale(0.7,0.7)"><path fill="rgb(0,102,51)" stroke="none" paint-order="stroke fill markers" d=" M 0.449 -0.17400000000000002 L 0.449 -0.17400000000000002 L 0.421 0 L 0.05 0 Q 0.05 -0.025 0.056 -0.032 L 0.061 -0.037 L 0.253 -0.251 Q 0.358 -0.369 0.358 -0.47200000000000003 Q 0.358 -0.561 0.304 -0.607 L 0.303 -0.608 L 0.302 -0.608 Q 0.27 -0.635 0.224 -0.635 Q 0.152 -0.635 0.109 -0.5730000000000001 Q 0.097 -0.555 0.089 -0.533 Q 0.092 -0.534 0.10200000000000001 -0.534 Q 0.14200000000000002 -0.534 0.153 -0.498 L 0.153 -0.497 Q 0.155 -0.49 0.155 -0.482 Q 0.155 -0.442 0.117 -0.431 Q 0.109 -0.429 0.10300000000000001 -0.429 Q 0.066 -0.429 0.054 -0.46 Q 0.05 -0.47100000000000003 0.05 -0.485 Q 0.05 -0.562 0.109 -0.617 Q 0.162 -0.666 0.23700000000000002 -0.666 Q 0.34700000000000003 -0.666 0.40800000000000003 -0.592 Q 0.443 -0.549 0.448 -0.49 Q 0.449 -0.481 0.449 -0.47200000000000003 Q 0.449 -0.399 0.394 -0.333 Q 0.365 -0.299 0.304 -0.243 L 0.243 -0.189 L 0.233 -0.18 L 0.127 -0.077 L 0.307 -0.077 Q 0.395 -0.077 0.402 -0.085 Q 0.41200000000000003 -0.099 0.424 -0.17400000000000002 L 0.449 -0.17400000000000002 Z"/></g></g></g></g></svg>