<svg version="1.1" xmlns="http://www.w3.org/2000/svg" xmlns:xlink="http://www.w3.org/1999/xlink" width="510" height="421"><defs><clipPath id="rfkNeLVpCdAa"><path fill="none" stroke="none" d=" M 0 0 L 510 0 L 510 421 L 0 421 L 0 0 Z"/></clipPath></defs><g transform="scale(1,1)" clip-path="url(#rfkNeLVpCdAa)"><g><path fill="rgb(102,204,255)" stroke="none" paint-order="stroke fill markers" fill-rule="evenodd" d=" M 39.00000000000023 268.99999999999983 L 138.99999999999847 268.99999999999983 L 138.99999999999847 168.99999999999994 L 39.00000000000023 168.99999999999994 Z" fill-opacity="0.09803921568627451"/><path fill="none" stroke="rgb(102,204,255)" paint-order="fill stroke markers" d=" M 39.00000000000023 268.99999999999983 L 138.99999999999847 268.99999999999983 L 138.99999999999847 168.99999999999994 L 39.00000000000023 168.99999999999994 Z" stroke-opacity="0.6980392156862745" stroke-linecap="round" stroke-linejoin="round" stroke-miterlimit="10" stroke-width="1.5"/><path fill="rgb(255,102,153)" stroke="none" paint-order="stroke fill markers" fill-rule="evenodd" d=" M 310.9999999999953 86.00000000000004 L 385.99999999999386 86.00000000000004 L 385.99999999999386 11.000000000000114 L 310.9999999999953 11.000000000000114 Z" fill-opacity="0.09803921568627451"/><path fill="none" stroke="rgb(255,102,153)" paint-order="fill stroke markers" d=" M 310.9999999999953 86.00000000000004 L 385.99999999999386 86.00000000000004 L 385.99999999999386 11.000000000000114 L 310.9999999999953 11.000000000000114 Z" stroke-opacity="0.6980392156862745" stroke-linecap="round" stroke-linejoin="round" stroke-miterlimit="10" stroke-width="1.5"/><path fill="none" stroke="rgb(102,204,255)" paint-order="fill stroke markers" d=" M 39.00000000000023 268.99999999999983 L 138.99999999999847 268.99999999999983" stroke-opacity="0.6980392156862745" stroke-linecap="round" stroke-linejoin="round" stroke-miterlimit="10" stroke-width="1.5"/><path fill="none" stroke="rgb(102,204,255)" paint-order="fill stroke markers" d=" M 138.99999999999847 268.99999999999983 L 138.99999999999847 168.99999999999994" stroke-opacity="0.6980392156862745" stroke-linecap="round" stroke-linejoin="round" stroke-miterlimit="10" stroke-width="1.5"/><path fill="none" stroke="rgb(102,204,255)" paint-order="fill stroke markers" d=" M 138.99999999999847 168.99999999999994 L 39.00000000000023 168.99999999999994" stroke-opacity="0.6980392156862745" stroke-linecap="round" stroke-linejoin="round" stroke-miterlimit="10" stroke-width="1.5"/><path fill="none" stroke="rgb(102,204,255)" paint-order="fill stroke markers" d=" M 39.00000000000023 168.99999999999994 L 39.00000000000023 268.99999999999983" stroke-opacity="0.6980392156862745" stroke-linecap="round" stroke-linejoin="round" stroke-miterlimit="10" stroke-width="1.5"/><path fill="none" stroke="rgb(255,102,153)" paint-order="fill stroke markers" d=" M 310.9999999999953 86.00000000000004 L 385.99999999999386 86.00000000000004" stroke-opacity="0.6980392156862745" stroke-linecap="round" stroke-linejoin="round" stroke-miterlimit="10" stroke-width="1.5"/><path fill="none" stroke="rgb(255,102,153)" paint-order="fill stroke markers" d=" M 385.99999999999386 86.00000000000004 L 385.99999999999386 11.000000000000114" stroke-opacity="0.6980392156862745" stroke-linecap="round" stroke-linejoin="round" stroke-miterlimit="10" stroke-width="1.5"/><path fill="none" stroke="rgb(255,102,153)" paint-order="fill stroke markers" d=" M 385.99999999999386 11.000000000000114 L 310.9999999999953 11.000000000000114" stroke-opacity="0.6980392156862745" stroke-linecap="round" stroke-linejoin="round" stroke-miterlimit="10" stroke-width="1.5"/><path fill="none" stroke="rgb(255,102,153)" paint-order="fill stroke markers" d=" M 310.9999999999953 11.000000000000114 L 310.9999999999953 86.00000000000004" stroke-opacity="0.6980392156862745" stroke-linecap="round" stroke-linejoin="round" stroke-miterlimit="10" stroke-width="1.5"/><path fill="none" stroke="rgb(255,153,0)" paint-order="fill stroke markers" d=" M 314.9999999999952 265.9999999999999 L 389.99999999999386 190.99999999999994" stroke-opacity="0.6980392156862745" stroke-linecap="round" stroke-linejoin="round" stroke-miterlimit="10" stroke-width="2.5"/><path fill="rgb(102,204,255)" stroke="none" paint-order="stroke fill markers" d=" M 42.00000000000023 268.99999999999983 C 42.00000000000023 270.6568542494922 40.65685424949261 271.99999999999983 39.00000000000023 271.99999999999983 C 37.343145750507844 271.99999999999983 36.00000000000023 270.6568542494922 36.00000000000023 268.99999999999983 C 36.00000000000023 267.34314575050746 37.343145750507844 265.99999999999983 39.00000000000023 265.99999999999983 C 40.65685424949261 265.99999999999983 42.00000000000023 267.34314575050746 42.00000000000023 268.99999999999983 Z" fill-opacity="1"/><path fill="none" stroke="rgb(0,0,0)" paint-order="fill stroke markers" d=" M 42.00000000000023 268.99999999999983 C 42.00000000000023 270.6568542494922 40.65685424949261 271.99999999999983 39.00000000000023 271.99999999999983 C 37.343145750507844 271.99999999999983 36.00000000000023 270.6568542494922 36.00000000000023 268.99999999999983 C 36.00000000000023 267.34314575050746 37.343145750507844 265.99999999999983 39.00000000000023 265.99999999999983 C 40.65685424949261 265.99999999999983 42.00000000000023 267.34314575050746 42.00000000000023 268.99999999999983 Z" stroke-opacity="1" stroke-linecap="round" stroke-linejoin="round" stroke-miterlimit="10"/><path fill="rgb(102,204,255)" stroke="none" paint-order="stroke fill markers" d=" M 141.99999999999847 268.99999999999983 C 141.99999999999847 270.6568542494922 140.65685424949083 271.99999999999983 138.99999999999847 271.99999999999983 C 137.3431457505061 271.99999999999983 135.99999999999847 270.6568542494922 135.99999999999847 268.99999999999983 C 135.99999999999847 267.34314575050746 137.3431457505061 265.99999999999983 138.99999999999847 265.99999999999983 C 140.65685424949083 265.99999999999983 141.99999999999847 267.34314575050746 141.99999999999847 268.99999999999983 Z" fill-opacity="1"/><path fill="none" stroke="rgb(0,0,0)" paint-order="fill stroke markers" d=" M 141.99999999999847 268.99999999999983 C 141.99999999999847 270.6568542494922 140.65685424949083 271.99999999999983 138.99999999999847 271.99999999999983 C 137.3431457505061 271.99999999999983 135.99999999999847 270.6568542494922 135.99999999999847 268.99999999999983 C 135.99999999999847 267.34314575050746 137.3431457505061 265.99999999999983 138.99999999999847 265.99999999999983 C 140.65685424949083 265.99999999999983 141.99999999999847 267.34314575050746 141.99999999999847 268.99999999999983 Z" stroke-opacity="1" stroke-linecap="round" stroke-linejoin="round" stroke-miterlimit="10"/><path fill="rgb(102,204,255)" stroke="none" paint-order="stroke fill markers" d=" M 141.99999999999847 168.99999999999994 C 141.99999999999847 170.6568542494923 140.65685424949083 171.99999999999994 138.99999999999847 171.99999999999994 C 137.3431457505061 171.99999999999994 135.99999999999847 170.6568542494923 135.99999999999847 168.99999999999994 C 135.99999999999847 167.34314575050757 137.3431457505061 165.99999999999994 138.99999999999847 165.99999999999994 C 140.65685424949083 165.99999999999994 141.99999999999847 167.34314575050757 141.99999999999847 168.99999999999994 Z" fill-opacity="1"/><path fill="none" stroke="rgb(0,0,0)" paint-order="fill stroke markers" d=" M 141.99999999999847 168.99999999999994 C 141.99999999999847 170.6568542494923 140.65685424949083 171.99999999999994 138.99999999999847 171.99999999999994 C 137.3431457505061 171.99999999999994 135.99999999999847 170.6568542494923 135.99999999999847 168.99999999999994 C 135.99999999999847 167.34314575050757 137.3431457505061 165.99999999999994 138.99999999999847 165.99999999999994 C 140.65685424949083 165.99999999999994 141.99999999999847 167.34314575050757 141.99999999999847 168.99999999999994 Z" stroke-opacity="1" stroke-linecap="round" stroke-linejoin="round" stroke-miterlimit="10"/><path fill="rgb(102,204,255)" stroke="none" paint-order="stroke fill markers" d=" M 42.00000000000023 168.99999999999994 C 42.00000000000023 170.6568542494923 40.65685424949261 171.99999999999994 39.00000000000023 171.99999999999994 C 37.343145750507844 171.99999999999994 36.00000000000023 170.6568542494923 36.00000000000023 168.99999999999994 C 36.00000000000023 167.34314575050757 37.343145750507844 165.99999999999994 39.00000000000023 165.99999999999994 C 40.65685424949261 165.99999999999994 42.00000000000023 167.34314575050757 42.00000000000023 168.99999999999994 Z" fill-opacity="1"/><path fill="none" stroke="rgb(0,0,0)" paint-order="fill stroke markers" d=" M 42.00000000000023 168.99999999999994 C 42.00000000000023 170.6568542494923 40.65685424949261 171.99999999999994 39.00000000000023 171.99999999999994 C 37.343145750507844 171.99999999999994 36.00000000000023 170.6568542494923 36.00000000000023 168.99999999999994 C 36.00000000000023 167.34314575050757 37.343145750507844 165.99999999999994 39.00000000000023 165.99999999999994 C 40.65685424949261 165.99999999999994 42.00000000000023 167.34314575050757 42.00000000000023 168.99999999999994 Z" stroke-opacity="1" stroke-linecap="round" stroke-linejoin="round" stroke-miterlimit="10"/><path fill="rgb(255,102,153)" stroke="none" paint-order="stroke fill markers" d=" M 313.9999999999953 86.00000000000004 C 313.9999999999953 87.65685424949243 312.65685424948765 89.00000000000004 310.9999999999953 89.00000000000004 C 309.3431457505029 89.00000000000004 307.9999999999953 87.65685424949243 307.9999999999953 86.00000000000004 C 307.9999999999953 84.34314575050766 309.3431457505029 83.00000000000004 310.9999999999953 83.00000000000004 C 312.65685424948765 83.00000000000004 313.9999999999953 84.34314575050766 313.9999999999953 86.00000000000004 Z" fill-opacity="1"/><path fill="none" stroke="rgb(0,0,0)" paint-order="fill stroke markers" d=" M 313.9999999999953 86.00000000000004 C 313.9999999999953 87.65685424949243 312.65685424948765 89.00000000000004 310.9999999999953 89.00000000000004 C 309.3431457505029 89.00000000000004 307.9999999999953 87.65685424949243 307.9999999999953 86.00000000000004 C 307.9999999999953 84.34314575050766 309.3431457505029 83.00000000000004 310.9999999999953 83.00000000000004 C 312.65685424948765 83.00000000000004 313.9999999999953 84.34314575050766 313.9999999999953 86.00000000000004 Z" stroke-opacity="1" stroke-linecap="round" stroke-linejoin="round" stroke-miterlimit="10"/><path fill="rgb(255,102,153)" stroke="none" paint-order="stroke fill markers" d=" M 388.99999999999386 86.00000000000004 C 388.99999999999386 87.65685424949243 387.65685424948623 89.00000000000004 385.99999999999386 89.00000000000004 C 384.3431457505015 89.00000000000004 382.99999999999386 87.65685424949243 382.99999999999386 86.00000000000004 C 382.99999999999386 84.34314575050766 384.3431457505015 83.00000000000004 385.99999999999386 83.00000000000004 C 387.65685424948623 83.00000000000004 388.99999999999386 84.34314575050766 388.99999999999386 86.00000000000004 Z" fill-opacity="1"/><path fill="none" stroke="rgb(0,0,0)" paint-order="fill stroke markers" d=" M 388.99999999999386 86.00000000000004 C 388.99999999999386 87.65685424949243 387.65685424948623 89.00000000000004 385.99999999999386 89.00000000000004 C 384.3431457505015 89.00000000000004 382.99999999999386 87.65685424949243 382.99999999999386 86.00000000000004 C 382.99999999999386 84.34314575050766 384.3431457505015 83.00000000000004 385.99999999999386 83.00000000000004 C 387.65685424948623 83.00000000000004 388.99999999999386 84.34314575050766 388.99999999999386 86.00000000000004 Z" stroke-opacity="1" stroke-linecap="round" stroke-linejoin="round" stroke-miterlimit="10"/><path fill="rgb(255,102,153)" stroke="none" paint-order="stroke fill markers" d=" M 388.99999999999386 11.000000000000114 C 388.99999999999386 12.656854249492493 387.65685424948623 14.000000000000114 385.99999999999386 14.000000000000114 C 384.3431457505015 14.000000000000114 382.99999999999386 12.656854249492493 382.99999999999386 11.000000000000114 C 382.99999999999386 9.343145750507734 384.3431457505015 8.000000000000114 385.99999999999386 8.000000000000114 C 387.65685424948623 8.000000000000114 388.99999999999386 9.343145750507734 388.99999999999386 11.000000000000114 Z" fill-opacity="1"/><path fill="none" stroke="rgb(0,0,0)" paint-order="fill stroke markers" d=" M 388.99999999999386 11.000000000000114 C 388.99999999999386 12.656854249492493 387.65685424948623 14.000000000000114 385.99999999999386 14.000000000000114 C 384.3431457505015 14.000000000000114 382.99999999999386 12.656854249492493 382.99999999999386 11.000000000000114 C 382.99999999999386 9.343145750507734 384.3431457505015 8.000000000000114 385.99999999999386 8.000000000000114 C 387.65685424948623 8.000000000000114 388.99999999999386 9.343145750507734 388.99999999999386 11.000000000000114 Z" stroke-opacity="1" stroke-linecap="round" stroke-linejoin="round" stroke-miterlimit="10"/><path fill="rgb(255,102,153)" stroke="none" paint-order="stroke fill markers" d=" M 313.9999999999953 11.000000000000114 C 313.9999999999953 12.656854249492493 312.65685424948765 14.000000000000114 310.9999999999953 14.000000000000114 C 309.3431457505029 14.000000000000114 307.9999999999953 12.656854249492493 307.9999999999953 11.000000000000114 C 307.9999999999953 9.343145750507734 309.3431457505029 8.000000000000114 310.9999999999953 8.000000000000114 C 312.65685424948765 8.000000000000114 313.9999999999953 9.343145750507734 313.9999999999953 11.000000000000114 Z" fill-opacity="1"/><path fill="none" stroke="rgb(0,0,0)" paint-order="fill stroke markers" d=" M 313.9999999999953 11.000000000000114 C 313.9999999999953 12.656854249492493 312.65685424948765 14.000000000000114 310.9999999999953 14.000000000000114 C 309.3431457505029 14.000000000000114 307.9999999999953 12.656854249492493 307.9999999999953 11.000000000000114 C 307.9999999999953 9.343145750507734 309.3431457505029 8.000000000000114 310.9999999999953 8.000000000000114 C 312.65685424948765 8.000000000000114 313.9999999999953 9.343145750507734 313.9999999999953 11.000000000000114 Z" stroke-opacity="1" stroke-linecap="round" stroke-linejoin="round" stroke-miterlimit="10"/><path fill="rgb(255,153,0)" stroke="none" paint-order="stroke fill markers" d=" M 317.9999999999952 265.9999999999999 C 317.9999999999952 267.65685424949226 316.6568542494876 268.9999999999999 314.9999999999952 268.9999999999999 C 313.34314575050286 268.9999999999999 311.9999999999952 267.65685424949226 311.9999999999952 265.9999999999999 C 311.9999999999952 264.3431457505075 313.34314575050286 262.9999999999999 314.9999999999952 262.9999999999999 C 316.6568542494876 262.9999999999999 317.9999999999952 264.3431457505075 317.9999999999952 265.9999999999999 Z" fill-opacity="1"/><path fill="none" stroke="rgb(0,0,0)" paint-order="fill stroke markers" d=" M 317.9999999999952 265.9999999999999 C 317.9999999999952 267.65685424949226 316.6568542494876 268.9999999999999 314.9999999999952 268.9999999999999 C 313.34314575050286 268.9999999999999 311.9999999999952 267.65685424949226 311.9999999999952 265.9999999999999 C 311.9999999999952 264.3431457505075 313.34314575050286 262.9999999999999 314.9999999999952 262.9999999999999 C 316.6568542494876 262.9999999999999 317.9999999999952 264.3431457505075 317.9999999999952 265.9999999999999 Z" stroke-opacity="1" stroke-linecap="round" stroke-linejoin="round" stroke-miterlimit="10"/><path fill="rgb(255,153,0)" stroke="none" paint-order="stroke fill markers" d=" M 392.99999999999386 190.99999999999994 C 392.99999999999386 192.6568542494923 391.65685424948623 193.99999999999994 389.99999999999386 193.99999999999994 C 388.3431457505015 193.99999999999994 386.99999999999386 192.6568542494923 386.99999999999386 190.99999999999994 C 386.99999999999386 189.34314575050757 388.3431457505015 187.99999999999994 389.99999999999386 187.99999999999994 C 391.65685424948623 187.99999999999994 392.99999999999386 189.34314575050757 392.99999999999386 190.99999999999994 Z" fill-opacity="1"/><path fill="none" stroke="rgb(0,0,0)" paint-order="fill stroke markers" d=" M 392.99999999999386 190.99999999999994 C 392.99999999999386 192.6568542494923 391.65685424948623 193.99999999999994 389.99999999999386 193.99999999999994 C 388.3431457505015 193.99999999999994 386.99999999999386 192.6568542494923 386.99999999999386 190.99999999999994 C 386.99999999999386 189.34314575050757 388.3431457505015 187.99999999999994 389.99999999999386 187.99999999999994 C 391.65685424948623 187.99999999999994 392.99999999999386 189.34314575050757 392.99999999999386 190.99999999999994 Z" stroke-opacity="1" stroke-linecap="round" stroke-linejoin="round" stroke-miterlimit="10"/><path fill="rgb(204,102,255)" stroke="none" paint-order="stroke fill markers" d=" M 352.9999999999946 392.9999999999998 C 352.9999999999946 395.20913899932293 351.20913899931776 396.9999999999998 348.9999999999946 396.9999999999998 C 346.79086100067144 396.9999999999998 344.9999999999946 395.20913899932293 344.9999999999946 392.9999999999998 C 344.9999999999946 390.7908610006766 346.79086100067144 388.9999999999998 348.9999999999946 388.9999999999998 C 351.20913899931776 388.9999999999998 352.9999999999946 390.7908610006766 352.9999999999946 392.9999999999998 Z" fill-opacity="1"/><path fill="none" stroke="rgb(0,0,0)" paint-order="fill stroke markers" d=" M 352.9999999999946 392.9999999999998 C 352.9999999999946 395.20913899932293 351.20913899931776 396.9999999999998 348.9999999999946 396.9999999999998 C 346.79086100067144 396.9999999999998 344.9999999999946 395.20913899932293 344.9999999999946 392.9999999999998 C 344.9999999999946 390.7908610006766 346.79086100067144 388.9999999999998 348.9999999999946 388.9999999999998 C 351.20913899931776 388.9999999999998 352.9999999999946 390.7908610006766 352.9999999999946 392.9999999999998 Z" stroke-opacity="1" stroke-linecap="round" stroke-linejoin="round" stroke-miterlimit="10"/><g transform="scale(21,21) translate(16.142857142857142,7.190476190476191) scale(0.1,0.1)"><text fill="rgb(0,0,0)" stroke="none" font-family="Serif" font-size="10px" font-style="normal" font-weight="normal" text-decoration="normal" x="0" y="0" text-anchor="start" dominant-baseline="alphabetic">或</text><g transform="scale(10,10) translate(-16.142857142857142,-7.190476190476191)"/></g><g transform="scale(21,21) translate(16,15.904761904761905) scale(0.1,0.1)"><text fill="rgb(0,0,0)" stroke="none" font-family="Serif" font-size="10px" font-style="normal" font-weight="normal" text-decoration="normal" x="0" y="0" text-anchor="start" dominant-baseline="alphabetic">或</text><g transform="scale(10,10) translate(-16,-15.904761904761905)"/></g><g transform="scale(21,21) translate(8.68492096825397,10.384807821000857) scale(1.7999999523162842,1.7999999523162842)"><g transform="translate(0.7,0) scale(0.7,0.7)"><path fill="rgb(0,0,0)" stroke="none" paint-order="stroke fill markers" d=" M 0.179 -0.115 L 0.527 -0.6990000000000001 Q 0.537 -0.715 0.553 -0.716 Q 0.5680000000000001 -0.716 0.5700000000000001 -0.706 Q 0.5710000000000001 -0.7030000000000001 0.5720000000000001 -0.6920000000000001 L 0.633 -0.067 Q 0.636 -0.042 0.645 -0.037 L 0.646 -0.037 L 0.646 -0.037 L 0.646 -0.037 L 0.646 -0.037 L 0.646 -0.036000000000000004 Q 0.658 -0.031 0.6980000000000001 -0.031 Q 0.72 -0.031 0.721 -0.02 Q 0.721 0 0.7030000000000001 0 L 0.591 -0.003 L 0.59 -0.003 L 0.466 0 L 0.465 0 Q 0.451 0 0.451 -0.011 Q 0.459 -0.03 0.47500000000000003 -0.031 Q 0.547 -0.031 0.547 -0.064 Q 0.547 -0.063 0.531 -0.231 L 0.28 -0.231 L 0.20400000000000001 -0.10300000000000001 Q 0.19 -0.078 0.19 -0.066 Q 0.19 -0.035 0.23700000000000002 -0.031 Q 0.253 -0.031 0.253 -0.019 Q 0.253 0 0.234 0 L 0.138 -0.003 L 0.134 -0.003 L 0.05 0 L 0.048 0 Q 0.035 0 0.035 -0.011 Q 0.035 -0.029 0.05 -0.03 L 0.05 -0.031 L 0.056 -0.031 Q 0.11900000000000001 -0.035 0.159 -0.085 Q 0.169 -0.098 0.179 -0.115 M 0.299 -0.262 L 0.528 -0.262 L 0.496 -0.592 L 0.299 -0.262 Z"/></g><g transform="scale(0.5555555702727522,0.5555555702727522) translate(-8.68492096825397,-10.384807821000857)"><g transform="translate(7.634920968253969,10.862794265445302)"><path fill="rgb(0,0,0)" stroke="none" paint-order="stroke fill markers" d=" M 0.661 -0.23 L 0.116 -0.23 Q 0.084 -0.23 0.083 -0.25 Q 0.083 -0.27 0.116 -0.27 L 0.661 -0.27 Q 0.6930000000000001 -0.27 0.6940000000000001 -0.25 Q 0.6940000000000001 -0.23 0.661 -0.23 Z"/></g><g transform="translate(8.19047907936508,10.862794265445302)"><path fill="rgb(0,0,0)" stroke="none" paint-order="stroke fill markers" d=" M 0.661 -0.23 L 0.116 -0.23 Q 0.084 -0.23 0.083 -0.25 Q 0.083 -0.27 0.116 -0.27 L 0.661 -0.27 Q 0.6930000000000001 -0.27 0.6940000000000001 -0.25 Q 0.6940000000000001 -0.23 0.661 -0.23 Z"/></g><g transform="translate(8.74603719047619,10.862794265445302)"><path fill="rgb(0,0,0)" stroke="none" paint-order="stroke fill markers" d=" M 0.661 -0.23 L 0.116 -0.23 Q 0.084 -0.23 0.083 -0.25 Q 0.083 -0.27 0.116 -0.27 L 0.661 -0.27 Q 0.6930000000000001 -0.27 0.6940000000000001 -0.25 Q 0.6940000000000001 -0.23 0.661 -0.23 Z"/></g><g transform="translate(9.301595301587302,10.862794265445302)"><path fill="rgb(0,0,0)" stroke="none" paint-order="stroke fill markers" d=" M 0.661 -0.23 L 0.116 -0.23 Q 0.084 -0.23 0.083 -0.25 Q 0.083 -0.27 0.116 -0.27 L 0.661 -0.27 Q 0.6930000000000001 -0.27 0.6940000000000001 -0.25 Q 0.6940000000000001 -0.23 0.661 -0.23 Z"/></g><g transform="translate(9.857153412698413,10.862794265445302)"><path fill="rgb(0,0,0)" stroke="none" paint-order="stroke fill markers" d=" M 0.661 -0.23 L 0.116 -0.23 Q 0.084 -0.23 0.083 -0.25 Q 0.083 -0.27 0.116 -0.27 L 0.661 -0.27 Q 0.6930000000000001 -0.27 0.6940000000000001 -0.25 Q 0.6940000000000001 -0.23 0.661 -0.23 Z"/></g><g transform="translate(10.412711523809524,10.862794265445302)"><path fill="rgb(0,0,0)" stroke="none" paint-order="stroke fill markers" d=" M 0.661 -0.23 L 0.116 -0.23 Q 0.084 -0.23 0.083 -0.25 Q 0.083 -0.27 0.116 -0.27 L 0.661 -0.27 Q 0.6930000000000001 -0.27 0.6940000000000001 -0.25 Q 0.6940000000000001 -0.23 0.661 -0.23 Z"/></g><g transform="translate(10.968269634920635,10.862794265445302)"><path fill="rgb(0,0,0)" stroke="none" paint-order="stroke fill markers" d=" M 0.661 -0.23 L 0.116 -0.23 Q 0.084 -0.23 0.083 -0.25 Q 0.083 -0.27 0.116 -0.27 L 0.661 -0.27 Q 0.6930000000000001 -0.27 0.6940000000000001 -0.25 Q 0.6940000000000001 -0.23 0.661 -0.23 Z"/></g><g transform="translate(11.523827746031746,10.862794265445302)"><path fill="rgb(0,0,0)" stroke="none" paint-order="stroke fill markers" d=" M 0.661 -0.23 L 0.116 -0.23 Q 0.084 -0.23 0.083 -0.25 Q 0.083 -0.27 0.116 -0.27 L 0.661 -0.27 Q 0.6930000000000001 -0.27 0.6940000000000001 -0.25 Q 0.6940000000000001 -0.23 0.661 -0.23 Z"/></g><g transform="translate(12.030420566216053,10.862794265445302) scale(0.4406862962823471,1)"><g transform="translate(0,0)"><path fill="rgb(0,0,0)" stroke="none" paint-order="stroke fill markers" d=" M 0.661 -0.23 L 0.116 -0.23 Q 0.084 -0.23 0.083 -0.25 Q 0.083 -0.27 0.116 -0.27 L 0.661 -0.27 Q 0.6930000000000001 -0.27 0.6940000000000001 -0.25 Q 0.6940000000000001 -0.23 0.661 -0.23 Z"/></g><g transform="scale(2.269187874540354,1) translate(-12.030420566216053,-10.862794265445302)"><g transform="translate(12.213101259053584,10.862794265445302)"><path fill="rgb(0,0,0)" stroke="none" paint-order="stroke fill markers" d=" M 0.858 -0.23 L 0.089 -0.23 Q 0.059000000000000004 -0.23500000000000001 0.056 -0.25 Q 0.056 -0.27 0.089 -0.27 L 0.858 -0.27 Q 0.79 -0.32 0.756 -0.399 L 0.755 -0.4 Q 0.75 -0.41300000000000003 0.75 -0.41600000000000004 Q 0.75 -0.428 0.765 -0.428 Q 0.776 -0.428 0.782 -0.41400000000000003 Q 0.8260000000000001 -0.315 0.918 -0.268 L 0.919 -0.268 L 0.92 -0.267 L 0.921 -0.267 Q 0.928 -0.263 0.935 -0.26 Q 0.9390000000000001 -0.26 0.9420000000000001 -0.25 Q 0.9420000000000001 -0.243 0.933 -0.23800000000000002 Q 0.931 -0.23800000000000002 0.928 -0.23600000000000002 Q 0.8290000000000001 -0.189 0.783 -0.08600000000000001 L 0.783 -0.08600000000000001 Q 0.782 -0.085 0.781 -0.082 Q 0.776 -0.07200000000000001 0.765 -0.07200000000000001 Q 0.75 -0.07200000000000001 0.75 -0.084 Q 0.75 -0.099 0.779 -0.14400000000000002 Q 0.812 -0.196 0.858 -0.23 Z"/></g></g></g></g></g><g transform="scale(21,21)"><g transform="translate(20.904761904761905,2.8095238095238093)"><path fill="rgb(0,0,0)" stroke="none" paint-order="stroke fill markers" d=" M 0.449 -0.17400000000000002 L 0.449 -0.17400000000000002 L 0.421 0 L 0.05 0 Q 0.05 -0.025 0.056 -0.032 L 0.061 -0.037 L 0.253 -0.251 Q 0.358 -0.369 0.358 -0.47200000000000003 Q 0.358 -0.561 0.304 -0.607 L 0.303 -0.608 L 0.302 -0.608 Q 0.27 -0.635 0.224 -0.635 Q 0.152 -0.635 0.109 -0.5730000000000001 Q 0.097 -0.555 0.089 -0.533 Q 0.092 -0.534 0.10200000000000001 -0.534 Q 0.14200000000000002 -0.534 0.153 -0.498 L 0.153 -0.497 Q 0.155 -0.49 0.155 -0.482 Q 0.155 -0.442 0.117 -0.431 Q 0.109 -0.429 0.10300000000000001 -0.429 Q 0.066 -0.429 0.054 -0.46 Q 0.05 -0.47100000000000003 0.05 -0.485 Q 0.05 -0.562 0.109 -0.617 Q 0.162 -0.666 0.23700000000000002 -0.666 Q 0.34700000000000003 -0.666 0.40800000000000003 -0.592 Q 0.443 -0.549 0.448 -0.49 Q 0.449 -0.481 0.449 -0.47200000000000003 Q 0.449 -0.399 0.394 -0.333 Q 0.365 -0.299 0.304 -0.243 L 0.243 -0.189 L 0.233 -0.18 L 0.127 -0.077 L 0.307 -0.077 Q 0.395 -0.077 0.402 -0.085 Q 0.41200000000000003 -0.099 0.424 -0.17400000000000002 L 0.449 -0.17400000000000002 Z"/></g><g transform="translate(21.404763904761904,2.8095238095238093) scale(0.1,0.1)"><text fill="rgb(0,0,0)" stroke="none" font-family="Serif" font-size="10px" font-style="normal" font-weight="normal" text-decoration="normal" x="0" y="0" text-anchor="start" dominant-baseline="alphabetic">维</text><g transform="scale(10,10) translate(-21.404763904761904,-2.8095238095238093)"/></g></g><g transform="scale(21,21)"><g transform="translate(20.714285714285715,11.333333333333334)"><path fill="rgb(0,0,0)" stroke="none" paint-order="stroke fill markers" d=" M 0.294 -0.64 L 0.294 -0.079 Q 0.294 -0.049 0.306 -0.041 Q 0.323 -0.031 0.387 -0.031 L 0.419 -0.031 L 0.419 0 Q 0.384 -0.003 0.257 -0.003 Q 0.13 -0.003 0.095 0 L 0.095 -0.031 L 0.127 -0.031 Q 0.20400000000000001 -0.031 0.215 -0.049 L 0.216 -0.05 Q 0.22 -0.058 0.22 -0.079 L 0.22 -0.597 Q 0.168 -0.5710000000000001 0.089 -0.5710000000000001 L 0.089 -0.602 Q 0.209 -0.602 0.271 -0.666 Q 0.29 -0.666 0.293 -0.659 L 0.293 -0.659 L 0.293 -0.658 Q 0.294 -0.655 0.294 -0.64 Z"/></g><g transform="translate(21.214287714285714,11.333333333333334) scale(0.1,0.1)"><text fill="rgb(0,0,0)" stroke="none" font-family="Serif" font-size="10px" font-style="normal" font-weight="normal" text-decoration="normal" x="0" y="0" text-anchor="start" dominant-baseline="alphabetic">维</text><g transform="scale(10,10) translate(-21.214287714285714,-11.333333333333334)"/></g></g><g transform="scale(21,21)"><g transform="translate(20.80952380952381,19.19047619047619)"><path fill="rgb(0,0,0)" stroke="none" paint-order="stroke fill markers" d=" M 0.46 -0.32 Q 0.46 -0.17400000000000002 0.423 -0.094 Q 0.364 0.018000000000000002 0.249 0.022 Q 0.158 0.022 0.10300000000000001 -0.05 Q 0.092 -0.063 0.084 -0.079 Q 0.039 -0.162 0.039 -0.32 Q 0.039 -0.467 0.076 -0.547 Q 0.126 -0.659 0.23800000000000002 -0.666 L 0.25 -0.666 Q 0.339 -0.666 0.395 -0.595 L 0.395 -0.594 Q 0.40900000000000003 -0.5760000000000001 0.42 -0.554 Q 0.46 -0.46900000000000003 0.46 -0.32 M 0.249 0 L 0.249 0 Q 0.312 0 0.34600000000000003 -0.061 Q 0.36 -0.088 0.366 -0.125 Q 0.377 -0.189 0.377 -0.332 Q 0.377 -0.47100000000000003 0.367 -0.527 Q 0.34900000000000003 -0.622 0.275 -0.641 Q 0.262 -0.644 0.249 -0.644 Q 0.179 -0.644 0.147 -0.5740000000000001 Q 0.136 -0.55 0.13 -0.516 Q 0.122 -0.462 0.122 -0.332 Q 0.122 -0.181 0.133 -0.121 Q 0.151 -0.025 0.221 -0.004 Q 0.23500000000000001 0 0.249 0 Z"/></g><g transform="translate(21.30952580952381,19.19047619047619) scale(0.1,0.1)"><text fill="rgb(0,0,0)" stroke="none" font-family="Serif" font-size="10px" font-style="normal" font-weight="normal" text-decoration="normal" x="0" y="0" text-anchor="start" dominant-baseline="alphabetic">维</text><g transform="scale(10,10) translate(-21.30952580952381,-19.19047619047619)"/></g></g><g transform="scale(21,21)"><g transform="translate(3.857142857142857,14.06020039047619)"><path fill="rgb(0,0,0)" stroke="none" paint-order="stroke fill markers" d=" M 0.268 -0.314 L 0.268 -0.314 L 0.268 -0.092 Q 0.268 -0.051000000000000004 0.28 -0.043000000000000003 Q 0.291 -0.035 0.329 -0.035 Q 0.357 -0.035 0.357 -0.018000000000000002 Q 0.34800000000000003 -0.001 0.324 0 L 0.05 0 Q 0.02 0 0.017 -0.012 Q 0.016 -0.015 0.016 -0.018000000000000002 Q 0.016 -0.035 0.043000000000000003 -0.035 Q 0.09 -0.035 0.099 -0.049 Q 0.10400000000000001 -0.057 0.105 -0.077 L 0.105 -0.092 L 0.105 -0.593 Q 0.105 -0.635 0.092 -0.643 Q 0.081 -0.65 0.043000000000000003 -0.65 Q 0.016 -0.65 0.016 -0.667 Q 0.024 -0.684 0.05 -0.685 L 0.364 -0.685 Q 0.494 -0.685 0.5690000000000001 -0.625 L 0.5700000000000001 -0.624 Q 0.611 -0.59 0.624 -0.541 Q 0.629 -0.521 0.629 -0.498 Q 0.629 -0.369 0.489 -0.333 Q 0.47300000000000003 -0.328 0.454 -0.325 Q 0.495 -0.259 0.578 -0.14100000000000001 Q 0.652 -0.043000000000000003 0.6880000000000001 -0.035 Q 0.7030000000000001 -0.032 0.7030000000000001 -0.018000000000000002 Q 0.6940000000000001 -0.001 0.67 0 L 0.532 0 Q 0.508 0 0.503 -0.007 Q 0.501 -0.009000000000000001 0.499 -0.012 L 0.454 -0.082 L 0.304 -0.314 L 0.268 -0.314 M 0.461 -0.363 L 0.461 -0.363 Q 0.583 -0.385 0.593 -0.47800000000000004 Q 0.594 -0.488 0.594 -0.498 Q 0.594 -0.595 0.482 -0.631 Q 0.468 -0.636 0.454 -0.639 Q 0.492 -0.59 0.492 -0.497 Q 0.492 -0.404 0.461 -0.363 M 0.268 -0.596 L 0.268 -0.34900000000000003 Q 0.385 -0.34900000000000003 0.42 -0.373 Q 0.429 -0.38 0.436 -0.39 Q 0.457 -0.419 0.457 -0.497 Q 0.457 -0.613 0.395 -0.639 Q 0.37 -0.65 0.33 -0.65 Q 0.271 -0.65 0.268 -0.607 L 0.268 -0.596 M 0.132 -0.035 L 0.241 -0.035 Q 0.233 -0.053 0.233 -0.09 L 0.233 -0.599 Q 0.233 -0.634 0.246 -0.65 L 0.132 -0.65 Q 0.14 -0.632 0.14 -0.595 L 0.14 -0.09 Q 0.14 -0.053 0.132 -0.035 M 0.34500000000000003 -0.314 L 0.525 -0.035 L 0.622 -0.035 Q 0.548 -0.109 0.41600000000000004 -0.32 Q 0.386 -0.316 0.364 -0.316 Q 0.359 -0.316 0.34500000000000003 -0.314 Z"/></g><g transform="translate(4.579366857142857,13.64158699047619) scale(0.7,0.7)"><path fill="rgb(0,0,0)" stroke="none" paint-order="stroke fill markers" d=" M 0.449 -0.17400000000000002 L 0.449 -0.17400000000000002 L 0.421 0 L 0.05 0 Q 0.05 -0.025 0.056 -0.032 L 0.061 -0.037 L 0.253 -0.251 Q 0.358 -0.369 0.358 -0.47200000000000003 Q 0.358 -0.561 0.304 -0.607 L 0.303 -0.608 L 0.302 -0.608 Q 0.27 -0.635 0.224 -0.635 Q 0.152 -0.635 0.109 -0.5730000000000001 Q 0.097 -0.555 0.089 -0.533 Q 0.092 -0.534 0.10200000000000001 -0.534 Q 0.14200000000000002 -0.534 0.153 -0.498 L 0.153 -0.497 Q 0.155 -0.49 0.155 -0.482 Q 0.155 -0.442 0.117 -0.431 Q 0.109 -0.429 0.10300000000000001 -0.429 Q 0.066 -0.429 0.054 -0.46 Q 0.05 -0.47100000000000003 0.05 -0.485 Q 0.05 -0.562 0.109 -0.617 Q 0.162 -0.666 0.23700000000000002 -0.666 Q 0.34700000000000003 -0.666 0.40800000000000003 -0.592 Q 0.443 -0.549 0.448 -0.49 Q 0.449 -0.481 0.449 -0.47200000000000003 Q 0.449 -0.399 0.394 -0.333 Q 0.365 -0.299 0.304 -0.243 L 0.243 -0.189 L 0.233 -0.18 L 0.127 -0.077 L 0.307 -0.077 Q 0.395 -0.077 0.402 -0.085 Q 0.41200000000000003 -0.099 0.424 -0.17400000000000002 L 0.449 -0.17400000000000002 Z"/></g></g></g></g></svg>