<svg version="1.1" xmlns="http://www.w3.org/2000/svg" xmlns:xlink="http://www.w3.org/1999/xlink" width="437" height="273"><defs><clipPath id="uQciPPdkceFB"><path fill="none" stroke="none" d=" M 0 0 L 437 0 L 437 273 L 0 273 L 0 0 Z"/></clipPath></defs><g transform="scale(1,1)" clip-path="url(#uQciPPdkceFB)"><g><path fill="rgb(102,0,153)" stroke="none" paint-order="stroke fill markers" d=" M 63.115000000000016 20.016989118687476 C 33.12719534930105 20.016989118687476 8.817276479865662 71.43544884976652 8.817276479865662 134.86333333333343 C 8.817276479865662 198.29121781690034 33.12719534930105 249.70967754797937 63.115000000000016 249.70967754797937 C 93.102804650699 249.70967754797937 117.41272352013436 198.29121781690034 117.41272352013436 134.86333333333343 C 117.41272352013436 71.43544884976652 93.102804650699 20.016989118687476 63.115000000000016 20.016989118687476 Z" fill-opacity="0.11764705882352941"/><path fill="none" stroke="rgb(102,0,153)" paint-order="fill stroke markers" d=" M 63.115000000000016 20.016989118687476 C 33.12719534930105 20.016989118687476 8.817276479865662 71.43544884976652 8.817276479865662 134.86333333333343 C 8.817276479865662 198.29121781690034 33.12719534930105 249.70967754797937 63.115000000000016 249.70967754797937 C 93.102804650699 249.70967754797937 117.41272352013436 198.29121781690034 117.41272352013436 134.86333333333343 C 117.41272352013436 71.43544884976652 93.102804650699 20.016989118687476 63.115000000000016 20.016989118687476 Z" stroke-opacity="1" stroke-linecap="round" stroke-linejoin="round" stroke-miterlimit="10"/><path fill="rgb(0,153,255)" stroke="none" paint-order="stroke fill markers" d=" M 348.01499999999993 21.70466737522736 C 318.10937993828 21.70466737522736 293.86608484186394 72.98313628245711 293.86608484186394 136.2383333333333 C 293.86608484186394 199.49353038420946 318.10937993828 250.77199929143922 348.01499999999993 250.77199929143922 C 377.9206200617199 250.77199929143922 402.1639151581359 199.49353038420946 402.1639151581359 136.2383333333333 C 402.1639151581359 72.98313628245711 377.9206200617199 21.70466737522736 348.01499999999993 21.70466737522736 Z" fill-opacity="0.16862745098039217"/><path fill="none" stroke="rgb(0,153,255)" paint-order="fill stroke markers" d=" M 348.01499999999993 21.70466737522736 C 318.10937993828 21.70466737522736 293.86608484186394 72.98313628245711 293.86608484186394 136.2383333333333 C 293.86608484186394 199.49353038420946 318.10937993828 250.77199929143922 348.01499999999993 250.77199929143922 C 377.9206200617199 250.77199929143922 402.1639151581359 199.49353038420946 402.1639151581359 136.2383333333333 C 402.1639151581359 72.98313628245711 377.9206200617199 21.70466737522736 348.01499999999993 21.70466737522736 Z" stroke-opacity="1" stroke-linecap="round" stroke-linejoin="round" stroke-miterlimit="10"/><path fill="none" stroke="rgb(0,0,0)" paint-order="fill stroke markers" d=" M 350.1323808464759 6.869450006804698 C 306.8528650041833 6.655618406793138 271.48475870804083 63.78708713886091 271.13550441044725 134.47615697172458 C 270.78625011285374 205.16522680458826 305.5881033112321 262.64338505985063 348.8676191535247 262.85721665986216 C 392.1471349958173 263.0710482598737 427.51524129195974 205.93957952780596 427.8644955895533 135.25050969494228 C 428.21374988714683 64.56143986207864 393.4118966887685 7.083281606816243 350.1323808464759 6.869450006804698 Z" stroke-opacity="0.6980392156862745" stroke-linecap="round" stroke-linejoin="round" stroke-miterlimit="10"/><path fill="none" stroke="rgb(128,128,128)" paint-order="fill stroke markers" d=" M 64.92380866749741 20.08073171307879 L 348.0004018268038 21.70467153740563" stroke-opacity="0.6980392156862745" stroke-linejoin="round" stroke-miterlimit="10" stroke-width="1.5" stroke-dasharray="9.5,8"/><path fill="none" stroke="rgb(128,128,128)" paint-order="fill stroke markers" d=" M 63.927129203492626 249.69683064387144 L 348.92060723525947 250.75598035107404" stroke-opacity="0.6980392156862745" stroke-linejoin="round" stroke-miterlimit="10" stroke-width="1.5" stroke-dasharray="9.5,8"/></g></g></svg>