<svg version="1.1" xmlns="http://www.w3.org/2000/svg" xmlns:xlink="http://www.w3.org/1999/xlink" width="438" height="273"><defs><clipPath id="QxRLyWdBDWUe"><path fill="none" stroke="none" d=" M 0 0 L 438 0 L 438 273 L 0 273 L 0 0 Z"/></clipPath></defs><g transform="scale(1,1)" clip-path="url(#QxRLyWdBDWUe)"><g><path fill="rgb(102,0,153)" stroke="none" paint-order="stroke fill markers" d=" M 63.11500000000001 20.016989118687476 C 33.12719534930104 20.016989118687476 8.817276479865662 71.43544884976652 8.817276479865662 134.86333333333343 C 8.817276479865662 198.29121781690034 33.12719534930104 249.70967754797937 63.11500000000001 249.70967754797937 C 93.102804650699 249.70967754797937 117.41272352013436 198.29121781690034 117.41272352013436 134.86333333333343 C 117.41272352013436 71.43544884976652 93.102804650699 20.016989118687476 63.11500000000001 20.016989118687476 Z" fill-opacity="0.11764705882352941"/><path fill="none" stroke="rgb(102,0,153)" paint-order="fill stroke markers" d=" M 63.11500000000001 20.016989118687476 C 33.12719534930104 20.016989118687476 8.817276479865662 71.43544884976652 8.817276479865662 134.86333333333343 C 8.817276479865662 198.29121781690034 33.12719534930104 249.70967754797937 63.11500000000001 249.70967754797937 C 93.102804650699 249.70967754797937 117.41272352013436 198.29121781690034 117.41272352013436 134.86333333333343 C 117.41272352013436 71.43544884976652 93.102804650699 20.016989118687476 63.11500000000001 20.016989118687476 Z" stroke-opacity="1" stroke-linecap="round" stroke-linejoin="round" stroke-miterlimit="10"/><path fill="rgb(0,153,255)" stroke="none" paint-order="stroke fill markers" d=" M 355.7928120962835 180.16913608318478 C 375.8157445029596 178.3893198692578 390.34943851075906 157.84287081555223 388.2547262310079 134.27735766835445 C 386.1600139512567 110.71184452115665 368.23012031039246 93.05104770288821 348.2071879037164 94.83086391681522 C 328.1842554970402 96.6106801307422 313.65056148924083 117.15712918444777 315.745273768992 140.72264233164555 C 317.8399860487432 164.28815547884335 335.7698796896074 181.9489522971118 355.7928120962835 180.16913608318478 Z" fill-opacity="0.16862745098039217"/><path fill="none" stroke="rgb(0,153,255)" paint-order="fill stroke markers" d=" M 355.7928120962835 180.16913608318478 C 375.8157445029596 178.3893198692578 390.34943851075906 157.84287081555223 388.2547262310079 134.27735766835445 C 386.1600139512567 110.71184452115665 368.23012031039246 93.05104770288821 348.2071879037164 94.83086391681522 C 328.1842554970402 96.6106801307422 313.65056148924083 117.15712918444777 315.745273768992 140.72264233164555 C 317.8399860487432 164.28815547884335 335.7698796896074 181.9489522971118 355.7928120962835 180.16913608318478 Z" stroke-opacity="1" stroke-linecap="round" stroke-linejoin="round" stroke-miterlimit="10"/><path fill="none" stroke="rgb(0,0,0)" paint-order="fill stroke markers" d=" M 350.1323808464758 6.869450006804698 C 306.85286500418323 6.655618406793138 271.4847587080408 63.78708713886091 271.1355044104472 134.47615697172458 C 270.7862501128537 205.16522680458826 305.58810331123203 262.64338505985063 348.86761915352463 262.85721665986216 C 392.1471349958172 263.0710482598737 427.5152412919597 205.93957952780596 427.86449558955326 135.25050969494228 C 428.2137498871468 64.56143986207864 393.4118966887684 7.083281606816243 350.1323808464758 6.869450006804698 Z" stroke-opacity="0.6980392156862745" stroke-linecap="round" stroke-linejoin="round" stroke-miterlimit="10"/><path fill="none" stroke="rgb(128,128,128)" paint-order="fill stroke markers" d=" M 64.92380866749743 20.08073171307879 L 350.9973041748902 94.70937841951869" stroke-opacity="0.6980392156862745" stroke-linejoin="round" stroke-miterlimit="10" stroke-width="1.5" stroke-dasharray="9.5,8"/><path fill="none" stroke="rgb(128,128,128)" paint-order="fill stroke markers" d=" M 63.92712920349264 249.6968306438714 L 350.38313356925164 180.17599743829084" stroke-opacity="0.6980392156862745" stroke-linejoin="round" stroke-miterlimit="10" stroke-width="1.5" stroke-dasharray="9.5,8"/></g></g></svg>