<svg version="1.1" xmlns="http://www.w3.org/2000/svg" xmlns:xlink="http://www.w3.org/1999/xlink" width="610" height="279"><defs><clipPath id="JukSnysgTcZG"><path fill="none" stroke="none" d=" M 0 0 L 610 0 L 610 279 L 0 279 L 0 0 Z"/></clipPath></defs><g transform="scale(1,1)" clip-path="url(#JukSnysgTcZG)"><g><path fill="rgb(0,0,0)" stroke="none" paint-order="stroke fill markers" d=" M 126.52817430503364 127.00300525920349 C 126.52817430503364 128.65985950869586 125.18502855452603 130.0030052592035 123.52817430503364 130.0030052592035 C 121.87132005554126 130.0030052592035 120.52817430503364 128.65985950869586 120.52817430503364 127.00300525920349 C 120.52817430503364 125.34615100971111 121.87132005554126 124.00300525920349 123.52817430503364 124.00300525920349 C 125.18502855452603 124.00300525920349 126.52817430503364 125.34615100971111 126.52817430503364 127.00300525920349 Z" fill-opacity="1"/><path fill="none" stroke="rgb(0,0,0)" paint-order="fill stroke markers" d=" M 126.52817430503364 127.00300525920349 C 126.52817430503364 128.65985950869586 125.18502855452603 130.0030052592035 123.52817430503364 130.0030052592035 C 121.87132005554126 130.0030052592035 120.52817430503364 128.65985950869586 120.52817430503364 127.00300525920349 C 120.52817430503364 125.34615100971111 121.87132005554126 124.00300525920349 123.52817430503364 124.00300525920349 C 125.18502855452603 124.00300525920349 126.52817430503364 125.34615100971111 126.52817430503364 127.00300525920349 Z" stroke-opacity="1" stroke-linecap="round" stroke-linejoin="round" stroke-miterlimit="10"/><path fill="none" stroke="rgb(224,224,224)" paint-order="fill stroke markers" d=" M 603.3944402704725 239.7002253944401 L 377.99999999999955 239.7002253944401" stroke-opacity="1" stroke-linecap="round" stroke-linejoin="round" stroke-miterlimit="10" stroke-width="1.5"/><path fill="none" stroke="rgb(224,224,224)" paint-order="fill stroke markers" d=" M 603.3944402704725 202.13448534936123 L 377.99999999999955 202.13448534936123" stroke-opacity="1" stroke-linecap="round" stroke-linejoin="round" stroke-miterlimit="10" stroke-width="1.5"/><path fill="none" stroke="rgb(224,224,224)" paint-order="fill stroke markers" d=" M 603.3944402704725 164.56874530428237 L 377.99999999999955 164.56874530428237" stroke-opacity="1" stroke-linecap="round" stroke-linejoin="round" stroke-miterlimit="10" stroke-width="1.5"/><path fill="none" stroke="rgb(224,224,224)" paint-order="fill stroke markers" d=" M 603.3944402704725 127.00300525920349 L 377.99999999999955 127.00300525920349" stroke-opacity="1" stroke-linecap="round" stroke-linejoin="round" stroke-miterlimit="10" stroke-width="1.5"/><path fill="none" stroke="rgb(224,224,224)" paint-order="fill stroke markers" d=" M 603.3944402704725 89.43726521412461 L 377.99999999999955 89.43726521412461" stroke-opacity="1" stroke-linecap="round" stroke-linejoin="round" stroke-miterlimit="10" stroke-width="1.5"/><path fill="none" stroke="rgb(224,224,224)" paint-order="fill stroke markers" d=" M 603.3944402704725 51.87152516904574 L 377.99999999999955 51.87152516904574" stroke-opacity="1" stroke-linecap="round" stroke-linejoin="round" stroke-miterlimit="10" stroke-width="1.5"/><path fill="none" stroke="rgb(224,224,224)" paint-order="fill stroke markers" d=" M 603.3944402704725 14.30578512396687 L 377.99999999999955 14.30578512396687" stroke-opacity="1" stroke-linecap="round" stroke-linejoin="round" stroke-miterlimit="10" stroke-width="1.5"/><path fill="none" stroke="rgb(224,224,224)" paint-order="fill stroke markers" d=" M 377.9999999999995 239.7002253944401 L 377.9999999999995 14.30578512396687" stroke-opacity="1" stroke-linecap="round" stroke-linejoin="round" stroke-miterlimit="10" stroke-width="1.5"/><path fill="none" stroke="rgb(224,224,224)" paint-order="fill stroke markers" d=" M 415.5657400450783 239.7002253944401 L 415.5657400450783 14.30578512396687" stroke-opacity="1" stroke-linecap="round" stroke-linejoin="round" stroke-miterlimit="10" stroke-width="1.5"/><path fill="none" stroke="rgb(224,224,224)" paint-order="fill stroke markers" d=" M 453.13148009015714 239.7002253944401 L 453.13148009015714 14.30578512396687" stroke-opacity="1" stroke-linecap="round" stroke-linejoin="round" stroke-miterlimit="10" stroke-width="1.5"/><path fill="none" stroke="rgb(224,224,224)" paint-order="fill stroke markers" d=" M 490.697220135236 239.7002253944401 L 490.697220135236 14.30578512396687" stroke-opacity="1" stroke-linecap="round" stroke-linejoin="round" stroke-miterlimit="10" stroke-width="1.5"/><path fill="none" stroke="rgb(224,224,224)" paint-order="fill stroke markers" d=" M 528.2629601803148 239.7002253944401 L 528.2629601803148 14.30578512396687" stroke-opacity="1" stroke-linecap="round" stroke-linejoin="round" stroke-miterlimit="10" stroke-width="1.5"/><path fill="none" stroke="rgb(224,224,224)" paint-order="fill stroke markers" d=" M 565.8287002253937 239.7002253944401 L 565.8287002253937 14.30578512396687" stroke-opacity="1" stroke-linecap="round" stroke-linejoin="round" stroke-miterlimit="10" stroke-width="1.5"/><path fill="none" stroke="rgb(224,224,224)" paint-order="fill stroke markers" d=" M 603.3944402704725 239.7002253944401 L 603.3944402704725 14.30578512396687" stroke-opacity="1" stroke-linecap="round" stroke-linejoin="round" stroke-miterlimit="10" stroke-width="1.5"/><path fill="rgb(0,153,255)" stroke="none" paint-order="stroke fill markers" fill-rule="evenodd" d=" M 377.99999999999955 239.7002253944401 L 603.3944402704725 239.7002253944401 L 603.3944402704725 14.30578512396687 L 377.99999999999955 14.30578512396687 Z" fill-opacity="0.09803921568627451"/><path fill="rgb(255,102,153)" stroke="none" paint-order="stroke fill markers" fill-rule="evenodd" d=" M 81.13148009015767 9.658151765589707 L 5.999999999999986 84.78963185574744 L 174.99999999999977 121.78963185574744 L 250.13148009015745 46.65815176558969 Z" fill-opacity="0.09803921568627451"/><path fill="rgb(255,102,153)" stroke="none" paint-order="stroke fill markers" fill-rule="evenodd" d=" M 5.999999999999986 84.78963185574744 L 5.999999999999986 204.99999999999986 L 174.99999999999977 241.99999999999983 L 174.99999999999977 121.78963185574744 Z" fill-opacity="0.09803921568627451"/><path fill="rgb(255,102,153)" stroke="none" paint-order="stroke fill markers" fill-rule="evenodd" d=" M 174.99999999999977 121.78963185574744 L 174.99999999999977 241.99999999999983 L 250.13148009015745 166.8685199098421 L 250.13148009015745 46.65815176558969 Z" fill-opacity="0.09803921568627451"/><path fill="none" stroke="rgb(0,153,255)" paint-order="fill stroke markers" d=" M 377.99999999999955 239.7002253944401 L 603.3944402704725 239.7002253944401" stroke-opacity="0.6980392156862745" stroke-linecap="round" stroke-linejoin="round" stroke-miterlimit="10" stroke-width="1.5"/><path fill="none" stroke="rgb(0,153,255)" paint-order="fill stroke markers" d=" M 603.3944402704725 239.7002253944401 L 603.3944402704725 14.30578512396687" stroke-opacity="0.6980392156862745" stroke-linecap="round" stroke-linejoin="round" stroke-miterlimit="10" stroke-width="1.5"/><path fill="none" stroke="rgb(0,153,255)" paint-order="fill stroke markers" d=" M 603.3944402704725 14.30578512396687 L 377.99999999999955 14.30578512396687" stroke-opacity="0.6980392156862745" stroke-linecap="round" stroke-linejoin="round" stroke-miterlimit="10" stroke-width="1.5"/><path fill="none" stroke="rgb(0,153,255)" paint-order="fill stroke markers" d=" M 377.99999999999955 14.30578512396687 L 377.99999999999955 239.7002253944401" stroke-opacity="0.6980392156862745" stroke-linecap="round" stroke-linejoin="round" stroke-miterlimit="10" stroke-width="1.5"/><path fill="none" stroke="rgb(0,0,0)" paint-order="fill stroke markers" d=" M 5.999999999999986 84.78963185574744 L 174.99999999999977 121.78963185574744" stroke-opacity="0.6980392156862745" stroke-linecap="round" stroke-linejoin="round" stroke-miterlimit="10" stroke-width="1.5"/><path fill="none" stroke="rgb(0,0,0)" paint-order="fill stroke markers" d=" M 5.999999999999986 84.78963185574744 L 81.13148009015767 9.658151765589707" stroke-opacity="0.6980392156862745" stroke-linecap="round" stroke-linejoin="round" stroke-miterlimit="10" stroke-width="1.5"/><path fill="none" stroke="rgb(0,0,0)" paint-order="fill stroke markers" d=" M 81.13148009015767 9.658151765589707 L 250.13148009015745 46.65815176558969" stroke-opacity="0.6980392156862745" stroke-linecap="round" stroke-linejoin="round" stroke-miterlimit="10" stroke-width="1.5"/><path fill="none" stroke="rgb(0,0,0)" paint-order="fill stroke markers" d=" M 250.13148009015745 46.65815176558969 L 174.99999999999977 121.78963185574744" stroke-opacity="0.6980392156862745" stroke-linecap="round" stroke-linejoin="round" stroke-miterlimit="10" stroke-width="1.5"/><path fill="none" stroke="rgb(0,0,0)" paint-order="fill stroke markers" d=" M 174.99999999999977 121.78963185574744 L 174.99999999999977 241.99999999999983" stroke-opacity="0.6980392156862745" stroke-linecap="round" stroke-linejoin="round" stroke-miterlimit="10" stroke-width="1.5"/><path fill="none" stroke="rgb(0,0,0)" paint-order="fill stroke markers" d=" M 5.999999999999986 204.99999999999986 L 174.99999999999977 241.99999999999983" stroke-opacity="0.6980392156862745" stroke-linecap="round" stroke-linejoin="round" stroke-miterlimit="10" stroke-width="1.5"/><path fill="none" stroke="rgb(0,0,0)" paint-order="fill stroke markers" d=" M 5.999999999999986 84.78963185574744 L 5.999999999999986 204.99999999999986" stroke-opacity="0.6980392156862745" stroke-linecap="round" stroke-linejoin="round" stroke-miterlimit="10" stroke-width="1.5"/><path fill="none" stroke="rgb(0,0,0)" paint-order="fill stroke markers" d=" M 174.99999999999977 241.99999999999983 L 250.13148009015745 166.8685199098421" stroke-opacity="0.6980392156862745" stroke-linecap="round" stroke-linejoin="round" stroke-miterlimit="10" stroke-width="1.5"/><path fill="none" stroke="rgb(0,0,0)" paint-order="fill stroke markers" d=" M 250.13148009015745 166.8685199098421 L 250.13148009015745 46.65815176558969" stroke-opacity="0.6980392156862745" stroke-linecap="round" stroke-linejoin="round" stroke-miterlimit="10" stroke-width="1.5"/><path fill="none" stroke="rgb(128,128,128)" paint-order="fill stroke markers" d=" M 81.13148009015767 9.658151765589707 L 81.13148009015767 129.86851990984212" stroke-opacity="0.6980392156862745" stroke-linejoin="round" stroke-miterlimit="10" stroke-width="1.5" stroke-dasharray="9.5,8"/><path fill="none" stroke="rgb(128,128,128)" paint-order="fill stroke markers" d=" M 81.13148009015767 129.86851990984212 L 5.999999999999986 204.99999999999986" stroke-opacity="0.6980392156862745" stroke-linejoin="round" stroke-miterlimit="10" stroke-width="1.5" stroke-dasharray="9.5,8"/><path fill="none" stroke="rgb(128,128,128)" paint-order="fill stroke markers" d=" M 81.13148009015767 129.86851990984212 L 250.13148009015745 166.8685199098421" stroke-opacity="0.6980392156862745" stroke-linejoin="round" stroke-miterlimit="10" stroke-width="1.5" stroke-dasharray="9.5,8"/><path fill="none" stroke="rgb(255,102,153)" paint-order="fill stroke markers" d=" M 81.13148009015767 9.658151765589707 L 5.999999999999986 84.78963185574744" stroke-opacity="0.6980392156862745" stroke-linecap="round" stroke-linejoin="round" stroke-miterlimit="10" stroke-width="1.5"/><path fill="none" stroke="rgb(255,102,153)" paint-order="fill stroke markers" d=" M 5.999999999999986 84.78963185574744 L 174.99999999999977 121.78963185574744" stroke-opacity="0.6980392156862745" stroke-linecap="round" stroke-linejoin="round" stroke-miterlimit="10" stroke-width="1.5"/><path fill="none" stroke="rgb(255,102,153)" paint-order="fill stroke markers" d=" M 174.99999999999977 121.78963185574744 L 250.13148009015745 46.65815176558969" stroke-opacity="0.6980392156862745" stroke-linecap="round" stroke-linejoin="round" stroke-miterlimit="10" stroke-width="1.5"/><path fill="none" stroke="rgb(255,102,153)" paint-order="fill stroke markers" d=" M 250.13148009015745 46.65815176558969 L 81.13148009015767 9.658151765589707" stroke-opacity="0.6980392156862745" stroke-linecap="round" stroke-linejoin="round" stroke-miterlimit="10" stroke-width="1.5"/><path fill="none" stroke="rgb(255,102,153)" paint-order="fill stroke markers" d=" M 5.999999999999986 84.78963185574744 L 5.999999999999986 204.99999999999986" stroke-opacity="0.6980392156862745" stroke-linecap="round" stroke-linejoin="round" stroke-miterlimit="10" stroke-width="1.5"/><path fill="none" stroke="rgb(255,102,153)" paint-order="fill stroke markers" d=" M 5.999999999999986 204.99999999999986 L 174.99999999999977 241.99999999999983" stroke-opacity="0.6980392156862745" stroke-linecap="round" stroke-linejoin="round" stroke-miterlimit="10" stroke-width="1.5"/><path fill="none" stroke="rgb(255,102,153)" paint-order="fill stroke markers" d=" M 174.99999999999977 241.99999999999983 L 174.99999999999977 121.78963185574744" stroke-opacity="0.6980392156862745" stroke-linecap="round" stroke-linejoin="round" stroke-miterlimit="10" stroke-width="1.5"/><path fill="none" stroke="rgb(255,102,153)" paint-order="fill stroke markers" d=" M 174.99999999999977 121.78963185574744 L 5.999999999999986 84.78963185574744" stroke-opacity="0.6980392156862745" stroke-linecap="round" stroke-linejoin="round" stroke-miterlimit="10" stroke-width="1.5"/><path fill="none" stroke="rgb(255,102,153)" paint-order="fill stroke markers" d=" M 174.99999999999977 121.78963185574744 L 174.99999999999977 241.99999999999983" stroke-opacity="0.6980392156862745" stroke-linecap="round" stroke-linejoin="round" stroke-miterlimit="10" stroke-width="1.5"/><path fill="none" stroke="rgb(255,102,153)" paint-order="fill stroke markers" d=" M 174.99999999999977 241.99999999999983 L 250.13148009015745 166.8685199098421" stroke-opacity="0.6980392156862745" stroke-linecap="round" stroke-linejoin="round" stroke-miterlimit="10" stroke-width="1.5"/><path fill="none" stroke="rgb(255,102,153)" paint-order="fill stroke markers" d=" M 250.13148009015745 166.8685199098421 L 250.13148009015745 46.65815176558969" stroke-opacity="0.6980392156862745" stroke-linecap="round" stroke-linejoin="round" stroke-miterlimit="10" stroke-width="1.5"/><path fill="none" stroke="rgb(255,102,153)" paint-order="fill stroke markers" d=" M 250.13148009015745 46.65815176558969 L 174.99999999999977 121.78963185574744" stroke-opacity="0.6980392156862745" stroke-linecap="round" stroke-linejoin="round" stroke-miterlimit="10" stroke-width="1.5"/><path fill="none" stroke="rgb(0,0,0)" paint-order="fill stroke markers" d=" M 490.697220135236 127.00300525920349 L 490.697220135236 106.43726521412461" stroke-opacity="0.6980392156862745" stroke-linecap="round" stroke-linejoin="round" stroke-miterlimit="10" stroke-width="2.5"/><path fill="rgb(0,0,0)" stroke="none" paint-order="stroke fill markers" fill-rule="evenodd" d=" M 490.697220135236 89.43726521412461 L 494.947220135236 106.43726521412461 L 486.447220135236 106.43726521412461 Z" fill-opacity="0.6980392156862745"/><path fill="none" stroke="rgb(0,0,0)" paint-order="fill stroke markers" d=" M 490.697220135236 127.00300525920349 L 511.26296018031485 127.00300525920349" stroke-opacity="0.6980392156862745" stroke-linecap="round" stroke-linejoin="round" stroke-miterlimit="10" stroke-width="2.5"/><path fill="rgb(0,0,0)" stroke="none" paint-order="stroke fill markers" fill-rule="evenodd" d=" M 528.2629601803148 127.00300525920349 L 511.26296018031485 131.2530052592035 L 511.26296018031485 122.75300525920349 Z" fill-opacity="0.6980392156862745"/><path fill="none" stroke="rgb(0,0,0)" paint-order="fill stroke markers" d=" M 270.99999999999966 126.99999999999989 L 345.99999999999955 126.99999999999989" stroke-opacity="0.6980392156862745" stroke-linecap="round" stroke-linejoin="round" stroke-miterlimit="10" stroke-width="1.5"/><path fill="rgb(0,0,0)" stroke="none" paint-order="stroke fill markers" fill-rule="evenodd" d=" M 360.99999999999955 126.99999999999989 L 345.99999999999955 130.7499999999999 L 345.99999999999955 123.24999999999989 Z" fill-opacity="0.6980392156862745"/><g transform="scale(23,23)"><g transform="translate(13.173913043478262,5.077415347826087)"><path fill="rgb(0,0,0)" stroke="none" paint-order="stroke fill markers" d=" M 0.645 -0.682 L 0.739 -0.067 Q 0.741 -0.054 0.7435 -0.051500000000000004 Q 0.746 -0.049 0.755 -0.048 Q 0.769 -0.047 0.794 -0.047 Q 0.81 -0.047 0.8165 -0.0465 Q 0.8230000000000001 -0.046 0.8285 -0.042 Q 0.834 -0.038 0.834 -0.029 Q 0.834 -0.016 0.8280000000000001 -0.009000000000000001 Q 0.8220000000000001 -0.002 0.8175 -0.001 Q 0.8130000000000001 0 0.806 0 Q 0.794 0 0.771 -0.001 Q 0.748 -0.002 0.736 -0.002 Q 0.724 -0.002 0.7010000000000001 -0.0025 Q 0.678 -0.003 0.667 -0.003 Q 0.65 -0.003 0.592 -0.0015 Q 0.534 0 0.518 0 Q 0.496 0 0.496 -0.018000000000000002 Q 0.496 -0.032 0.502 -0.0385 Q 0.508 -0.045 0.514 -0.046 Q 0.52 -0.047 0.533 -0.047 Q 0.5740000000000001 -0.047 0.598 -0.052000000000000005 L 0.5750000000000001 -0.198 L 0.305 -0.198 L 0.213 -0.058 Q 0.23500000000000001 -0.047 0.271 -0.047 Q 0.297 -0.047 0.297 -0.029 Q 0.297 0 0.27 0 Q 0.252 0 0.215 -0.0015 Q 0.178 -0.003 0.159 -0.003 Q 0.14300000000000002 -0.003 0.111 -0.0015 Q 0.079 0 0.064 0 Q 0.056 0 0.0505 -0.0055 Q 0.045 -0.011 0.045 -0.018000000000000002 Q 0.045 -0.031 0.051000000000000004 -0.038 Q 0.057 -0.045 0.062 -0.046 Q 0.067 -0.047 0.077 -0.047 Q 0.111 -0.047 0.132 -0.0535 Q 0.153 -0.06 0.1595 -0.0665 Q 0.166 -0.073 0.17400000000000002 -0.085 L 0.5670000000000001 -0.686 Q 0.577 -0.7020000000000001 0.5855 -0.7065 Q 0.594 -0.711 0.611 -0.711 Q 0.63 -0.711 0.636 -0.706 Q 0.642 -0.7010000000000001 0.645 -0.682 M 0.524 -0.533 L 0.336 -0.245 L 0.5680000000000001 -0.245 L 0.524 -0.533 Z"/></g></g><path fill="none" stroke="rgb(0,0,0)" paint-order="fill stroke markers" d=" M 123.52817430503364 127.00300525920349 L 122.5586593176569 100.98959304873858" stroke-opacity="0.6980392156862745" stroke-linecap="round" stroke-linejoin="round" stroke-miterlimit="10" stroke-width="1.5"/><path fill="rgb(0,0,0)" stroke="none" paint-order="stroke fill markers" fill-rule="evenodd" d=" M 121.99999999999984 85.9999999999999 L 126.30605757984158 100.84992821932431 L 118.81126105547223 101.12925787815286 Z" fill-opacity="0.6980392156862745"/><path fill="none" stroke="rgb(0,0,0)" paint-order="fill stroke markers" d=" M 123.52817430503364 127.00300525920349 L 147.24209431990337 131.31593220328196" stroke-opacity="0.6980392156862745" stroke-linecap="round" stroke-linejoin="round" stroke-miterlimit="10" stroke-width="1.5"/><path fill="rgb(0,0,0)" stroke="none" paint-order="stroke fill markers" fill-rule="evenodd" d=" M 161.99999999999977 133.9999999999999 L 146.57107737072388 135.00540862330607 L 147.91311126908286 127.62645578325785 Z" fill-opacity="0.6980392156862745"/><path fill="none" stroke="rgb(0,0,0)" paint-order="fill stroke markers" d=" M 123.52817430503364 127.00300525920349 L 106.14205986811933 145.94836565790004" stroke-opacity="0.6980392156862745" stroke-linecap="round" stroke-linejoin="round" stroke-miterlimit="10" stroke-width="1.5"/><path fill="rgb(0,0,0)" stroke="none" paint-order="stroke fill markers" fill-rule="evenodd" d=" M 95.99999999999987 156.9999999999999 L 103.37915128259438 143.4128506908702 L 108.90496845364429 148.4838806249299 Z" fill-opacity="0.6980392156862745"/><path fill="rgb(102,204,255)" stroke="none" paint-order="stroke fill markers" d=" M 127.52817430503364 127.00300525920349 C 127.52817430503364 129.21214425852668 125.73731330435682 131.0030052592035 123.52817430503364 131.0030052592035 C 121.31903530571047 131.0030052592035 119.52817430503364 129.21214425852668 119.52817430503364 127.00300525920349 C 119.52817430503364 124.79386625988032 121.31903530571047 123.00300525920349 123.52817430503364 123.00300525920349 C 125.73731330435682 123.00300525920349 127.52817430503364 124.79386625988032 127.52817430503364 127.00300525920349 Z" fill-opacity="1"/><path fill="none" stroke="rgb(0,0,0)" paint-order="fill stroke markers" d=" M 127.52817430503364 127.00300525920349 C 127.52817430503364 129.21214425852668 125.73731330435682 131.0030052592035 123.52817430503364 131.0030052592035 C 121.31903530571047 131.0030052592035 119.52817430503364 129.21214425852668 119.52817430503364 127.00300525920349 C 119.52817430503364 124.79386625988032 121.31903530571047 123.00300525920349 123.52817430503364 123.00300525920349 C 125.73731330435682 123.00300525920349 127.52817430503364 124.79386625988032 127.52817430503364 127.00300525920349 Z" stroke-opacity="1" stroke-linecap="round" stroke-linejoin="round" stroke-miterlimit="10"/><g transform="scale(23,23)"><g transform="translate(5,11.60885463478261)"><path fill="rgb(0,100,0)" stroke="none" paint-order="stroke fill markers" d=" M 0.268 -0.314 L 0.268 -0.314 L 0.268 -0.092 Q 0.268 -0.051000000000000004 0.28 -0.043000000000000003 Q 0.291 -0.035 0.329 -0.035 Q 0.357 -0.035 0.357 -0.018000000000000002 Q 0.34800000000000003 -0.001 0.324 0 L 0.05 0 Q 0.02 0 0.017 -0.012 Q 0.016 -0.015 0.016 -0.018000000000000002 Q 0.016 -0.035 0.043000000000000003 -0.035 Q 0.09 -0.035 0.099 -0.049 Q 0.10400000000000001 -0.057 0.105 -0.077 L 0.105 -0.092 L 0.105 -0.593 Q 0.105 -0.635 0.092 -0.643 Q 0.081 -0.65 0.043000000000000003 -0.65 Q 0.016 -0.65 0.016 -0.667 Q 0.024 -0.684 0.05 -0.685 L 0.364 -0.685 Q 0.494 -0.685 0.5690000000000001 -0.625 L 0.5700000000000001 -0.624 Q 0.611 -0.59 0.624 -0.541 Q 0.629 -0.521 0.629 -0.498 Q 0.629 -0.369 0.489 -0.333 Q 0.47300000000000003 -0.328 0.454 -0.325 Q 0.495 -0.259 0.578 -0.14100000000000001 Q 0.652 -0.043000000000000003 0.6880000000000001 -0.035 Q 0.7030000000000001 -0.032 0.7030000000000001 -0.018000000000000002 Q 0.6940000000000001 -0.001 0.67 0 L 0.532 0 Q 0.508 0 0.503 -0.007 Q 0.501 -0.009000000000000001 0.499 -0.012 L 0.454 -0.082 L 0.304 -0.314 L 0.268 -0.314 M 0.461 -0.363 L 0.461 -0.363 Q 0.583 -0.385 0.593 -0.47800000000000004 Q 0.594 -0.488 0.594 -0.498 Q 0.594 -0.595 0.482 -0.631 Q 0.468 -0.636 0.454 -0.639 Q 0.492 -0.59 0.492 -0.497 Q 0.492 -0.404 0.461 -0.363 M 0.268 -0.596 L 0.268 -0.34900000000000003 Q 0.385 -0.34900000000000003 0.42 -0.373 Q 0.429 -0.38 0.436 -0.39 Q 0.457 -0.419 0.457 -0.497 Q 0.457 -0.613 0.395 -0.639 Q 0.37 -0.65 0.33 -0.65 Q 0.271 -0.65 0.268 -0.607 L 0.268 -0.596 M 0.132 -0.035 L 0.241 -0.035 Q 0.233 -0.053 0.233 -0.09 L 0.233 -0.599 Q 0.233 -0.634 0.246 -0.65 L 0.132 -0.65 Q 0.14 -0.632 0.14 -0.595 L 0.14 -0.09 Q 0.14 -0.053 0.132 -0.035 M 0.34500000000000003 -0.314 L 0.525 -0.035 L 0.622 -0.035 Q 0.548 -0.109 0.41600000000000004 -0.32 Q 0.386 -0.316 0.364 -0.316 Q 0.359 -0.316 0.34500000000000003 -0.314 Z"/></g><g transform="translate(5.722224,11.19024123478261) scale(0.7,0.7)"><path fill="rgb(0,100,0)" stroke="none" paint-order="stroke fill markers" d=" M 0.352 -0.352 Q 0.403 -0.341 0.4395 -0.3205 Q 0.47600000000000003 -0.3 0.4935 -0.2745 Q 0.511 -0.249 0.5185 -0.2265 Q 0.526 -0.20400000000000001 0.526 -0.18 Q 0.526 -0.10300000000000001 0.4625 -0.046 Q 0.399 0.011 0.274 0.011 Q 0.176 0.011 0.112 -0.0305 Q 0.048 -0.07200000000000001 0.048 -0.139 Q 0.048 -0.176 0.07 -0.1965 Q 0.092 -0.217 0.125 -0.217 Q 0.158 -0.217 0.1795 -0.196 Q 0.201 -0.17500000000000002 0.201 -0.14100000000000001 Q 0.201 -0.082 0.14300000000000002 -0.066 Q 0.197 -0.032 0.269 -0.032 Q 0.299 -0.032 0.32 -0.044 Q 0.341 -0.056 0.35100000000000003 -0.07050000000000001 Q 0.361 -0.085 0.3665 -0.109 Q 0.372 -0.133 0.3725 -0.1465 Q 0.373 -0.16 0.373 -0.181 Q 0.373 -0.203 0.3725 -0.2165 Q 0.372 -0.23 0.366 -0.2545 Q 0.36 -0.279 0.34950000000000003 -0.293 Q 0.339 -0.307 0.317 -0.3185 Q 0.295 -0.33 0.264 -0.33 L 0.22 -0.33 Q 0.209 -0.33 0.20450000000000002 -0.3305 Q 0.2 -0.331 0.196 -0.335 Q 0.192 -0.339 0.192 -0.34800000000000003 Q 0.192 -0.364 0.20400000000000001 -0.365 Q 0.215 -0.367 0.252 -0.369 Q 0.277 -0.37 0.296 -0.3805 Q 0.315 -0.391 0.3255 -0.40800000000000003 Q 0.336 -0.425 0.343 -0.441 Q 0.35000000000000003 -0.457 0.353 -0.47600000000000003 Q 0.356 -0.495 0.3565 -0.5035000000000001 Q 0.357 -0.512 0.357 -0.519 Q 0.357 -0.616 0.271 -0.616 Q 0.20600000000000002 -0.616 0.161 -0.58 Q 0.219 -0.5660000000000001 0.219 -0.51 Q 0.219 -0.481 0.2 -0.461 Q 0.181 -0.441 0.149 -0.441 Q 0.12 -0.441 0.1 -0.4605 Q 0.08 -0.48 0.08 -0.511 Q 0.08 -0.5720000000000001 0.1345 -0.6135 Q 0.189 -0.655 0.277 -0.655 Q 0.379 -0.655 0.4365 -0.6155 Q 0.494 -0.5760000000000001 0.494 -0.516 Q 0.494 -0.456 0.452 -0.41300000000000003 Q 0.41000000000000003 -0.37 0.352 -0.352 Z"/></g></g><g transform="scale(23,23)"><g transform="translate(21.782608695652176,11.695811156521739)"><path fill="rgb(0,100,0)" stroke="none" paint-order="stroke fill markers" d=" M 0.268 -0.314 L 0.268 -0.314 L 0.268 -0.092 Q 0.268 -0.051000000000000004 0.28 -0.043000000000000003 Q 0.291 -0.035 0.329 -0.035 Q 0.357 -0.035 0.357 -0.018000000000000002 Q 0.34800000000000003 -0.001 0.324 0 L 0.05 0 Q 0.02 0 0.017 -0.012 Q 0.016 -0.015 0.016 -0.018000000000000002 Q 0.016 -0.035 0.043000000000000003 -0.035 Q 0.09 -0.035 0.099 -0.049 Q 0.10400000000000001 -0.057 0.105 -0.077 L 0.105 -0.092 L 0.105 -0.593 Q 0.105 -0.635 0.092 -0.643 Q 0.081 -0.65 0.043000000000000003 -0.65 Q 0.016 -0.65 0.016 -0.667 Q 0.024 -0.684 0.05 -0.685 L 0.364 -0.685 Q 0.494 -0.685 0.5690000000000001 -0.625 L 0.5700000000000001 -0.624 Q 0.611 -0.59 0.624 -0.541 Q 0.629 -0.521 0.629 -0.498 Q 0.629 -0.369 0.489 -0.333 Q 0.47300000000000003 -0.328 0.454 -0.325 Q 0.495 -0.259 0.578 -0.14100000000000001 Q 0.652 -0.043000000000000003 0.6880000000000001 -0.035 Q 0.7030000000000001 -0.032 0.7030000000000001 -0.018000000000000002 Q 0.6940000000000001 -0.001 0.67 0 L 0.532 0 Q 0.508 0 0.503 -0.007 Q 0.501 -0.009000000000000001 0.499 -0.012 L 0.454 -0.082 L 0.304 -0.314 L 0.268 -0.314 M 0.461 -0.363 L 0.461 -0.363 Q 0.583 -0.385 0.593 -0.47800000000000004 Q 0.594 -0.488 0.594 -0.498 Q 0.594 -0.595 0.482 -0.631 Q 0.468 -0.636 0.454 -0.639 Q 0.492 -0.59 0.492 -0.497 Q 0.492 -0.404 0.461 -0.363 M 0.268 -0.596 L 0.268 -0.34900000000000003 Q 0.385 -0.34900000000000003 0.42 -0.373 Q 0.429 -0.38 0.436 -0.39 Q 0.457 -0.419 0.457 -0.497 Q 0.457 -0.613 0.395 -0.639 Q 0.37 -0.65 0.33 -0.65 Q 0.271 -0.65 0.268 -0.607 L 0.268 -0.596 M 0.132 -0.035 L 0.241 -0.035 Q 0.233 -0.053 0.233 -0.09 L 0.233 -0.599 Q 0.233 -0.634 0.246 -0.65 L 0.132 -0.65 Q 0.14 -0.632 0.14 -0.595 L 0.14 -0.09 Q 0.14 -0.053 0.132 -0.035 M 0.34500000000000003 -0.314 L 0.525 -0.035 L 0.622 -0.035 Q 0.548 -0.109 0.41600000000000004 -0.32 Q 0.386 -0.316 0.364 -0.316 Q 0.359 -0.316 0.34500000000000003 -0.314 Z"/></g><g transform="translate(22.504832695652176,11.277197756521739) scale(0.7,0.7)"><path fill="rgb(0,100,0)" stroke="none" paint-order="stroke fill markers" d=" M 0.517 -0.222 L 0.486 0 L 0.057 0 L 0.057 -0.018000000000000002 Q 0.057 -0.034 0.059000000000000004 -0.0385 Q 0.061 -0.043000000000000003 0.07 -0.052000000000000005 L 0.271 -0.257 Q 0.379 -0.367 0.379 -0.465 Q 0.379 -0.525 0.34400000000000003 -0.5665 Q 0.309 -0.608 0.247 -0.608 Q 0.186 -0.608 0.14400000000000002 -0.5730000000000001 Q 0.155 -0.5700000000000001 0.166 -0.5645 Q 0.177 -0.559 0.189 -0.542 Q 0.201 -0.525 0.201 -0.501 Q 0.201 -0.466 0.1785 -0.4475 Q 0.156 -0.429 0.129 -0.429 Q 0.10400000000000001 -0.429 0.0805 -0.4465 Q 0.057 -0.464 0.057 -0.503 Q 0.057 -0.5700000000000001 0.11850000000000001 -0.6125 Q 0.18 -0.655 0.272 -0.655 Q 0.379 -0.655 0.448 -0.603 Q 0.517 -0.551 0.517 -0.466 Q 0.517 -0.431 0.507 -0.404 Q 0.497 -0.377 0.46900000000000003 -0.34750000000000003 Q 0.441 -0.318 0.417 -0.299 Q 0.393 -0.28 0.339 -0.24 Q 0.292 -0.20600000000000002 0.195 -0.125 L 0.342 -0.125 Q 0.433 -0.125 0.444 -0.131 Q 0.457 -0.138 0.47000000000000003 -0.222 L 0.517 -0.222 Z"/></g></g><path fill="rgb(102,204,255)" stroke="none" paint-order="stroke fill markers" d=" M 494.697220135236 127.00300525920349 C 494.697220135236 129.21214425852668 492.9063591345592 131.0030052592035 490.697220135236 131.0030052592035 C 488.48808113591286 131.0030052592035 486.697220135236 129.21214425852668 486.697220135236 127.00300525920349 C 486.697220135236 124.79386625988032 488.48808113591286 123.00300525920349 490.697220135236 123.00300525920349 C 492.9063591345592 123.00300525920349 494.697220135236 124.79386625988032 494.697220135236 127.00300525920349 Z" fill-opacity="1"/><path fill="none" stroke="rgb(0,0,0)" paint-order="fill stroke markers" d=" M 494.697220135236 127.00300525920349 C 494.697220135236 129.21214425852668 492.9063591345592 131.0030052592035 490.697220135236 131.0030052592035 C 488.48808113591286 131.0030052592035 486.697220135236 129.21214425852668 486.697220135236 127.00300525920349 C 486.697220135236 124.79386625988032 488.48808113591286 123.00300525920349 490.697220135236 123.00300525920349 C 492.9063591345592 123.00300525920349 494.697220135236 124.79386625988032 494.697220135236 127.00300525920349 Z" stroke-opacity="1" stroke-linecap="round" stroke-linejoin="round" stroke-miterlimit="10"/></g></g></svg>