<svg version="1.1" xmlns="http://www.w3.org/2000/svg" xmlns:xlink="http://www.w3.org/1999/xlink" width="610" height="276"><defs><clipPath id="nRQyQOSFCNMM"><path fill="none" stroke="none" d=" M 0 0 L 610 0 L 610 276 L 0 276 L 0 0 Z"/></clipPath></defs><g transform="scale(1,1)" clip-path="url(#nRQyQOSFCNMM)"><g><path fill="none" stroke="rgb(224,224,224)" paint-order="fill stroke markers" d=" M 228.22539444027018 232.70022539444017 L 2.830954169797124 232.70022539444017" stroke-opacity="1" stroke-linecap="round" stroke-linejoin="round" stroke-miterlimit="10" stroke-width="1.5"/><path fill="none" stroke="rgb(224,224,224)" paint-order="fill stroke markers" d=" M 228.22539444027018 195.1344853493613 L 2.830954169797124 195.1344853493613" stroke-opacity="1" stroke-linecap="round" stroke-linejoin="round" stroke-miterlimit="10" stroke-width="1.5"/><path fill="none" stroke="rgb(224,224,224)" paint-order="fill stroke markers" d=" M 228.22539444027018 157.56874530428243 L 2.830954169797124 157.56874530428243" stroke-opacity="1" stroke-linecap="round" stroke-linejoin="round" stroke-miterlimit="10" stroke-width="1.5"/><path fill="none" stroke="rgb(224,224,224)" paint-order="fill stroke markers" d=" M 228.22539444027018 120.00300525920356 L 2.830954169797124 120.00300525920356" stroke-opacity="1" stroke-linecap="round" stroke-linejoin="round" stroke-miterlimit="10" stroke-width="1.5"/><path fill="none" stroke="rgb(224,224,224)" paint-order="fill stroke markers" d=" M 228.22539444027018 82.4372652141247 L 2.830954169797124 82.4372652141247" stroke-opacity="1" stroke-linecap="round" stroke-linejoin="round" stroke-miterlimit="10" stroke-width="1.5"/><path fill="none" stroke="rgb(224,224,224)" paint-order="fill stroke markers" d=" M 228.22539444027018 44.87152516904581 L 2.830954169797124 44.87152516904581" stroke-opacity="1" stroke-linecap="round" stroke-linejoin="round" stroke-miterlimit="10" stroke-width="1.5"/><path fill="none" stroke="rgb(224,224,224)" paint-order="fill stroke markers" d=" M 228.22539444027018 7.305785123966942 L 2.830954169797124 7.305785123966942" stroke-opacity="1" stroke-linecap="round" stroke-linejoin="round" stroke-miterlimit="10" stroke-width="1.5"/><path fill="none" stroke="rgb(224,224,224)" paint-order="fill stroke markers" d=" M 2.830954169797124 232.70022539444017 L 2.830954169797124 7.305785123966942" stroke-opacity="1" stroke-linecap="round" stroke-linejoin="round" stroke-miterlimit="10" stroke-width="1.5"/><path fill="none" stroke="rgb(224,224,224)" paint-order="fill stroke markers" d=" M 40.396694214875964 232.70022539444017 L 40.396694214875964 7.305785123966942" stroke-opacity="1" stroke-linecap="round" stroke-linejoin="round" stroke-miterlimit="10" stroke-width="1.5"/><path fill="none" stroke="rgb(224,224,224)" paint-order="fill stroke markers" d=" M 77.9624342599548 232.70022539444017 L 77.9624342599548 7.305785123966942" stroke-opacity="1" stroke-linecap="round" stroke-linejoin="round" stroke-miterlimit="10" stroke-width="1.5"/><path fill="none" stroke="rgb(224,224,224)" paint-order="fill stroke markers" d=" M 115.52817430503364 232.70022539444017 L 115.52817430503364 7.305785123966942" stroke-opacity="1" stroke-linecap="round" stroke-linejoin="round" stroke-miterlimit="10" stroke-width="1.5"/><path fill="none" stroke="rgb(224,224,224)" paint-order="fill stroke markers" d=" M 153.09391435011247 232.70022539444017 L 153.09391435011247 7.305785123966942" stroke-opacity="1" stroke-linecap="round" stroke-linejoin="round" stroke-miterlimit="10" stroke-width="1.5"/><path fill="none" stroke="rgb(224,224,224)" paint-order="fill stroke markers" d=" M 190.65965439519132 232.70022539444017 L 190.65965439519132 7.305785123966942" stroke-opacity="1" stroke-linecap="round" stroke-linejoin="round" stroke-miterlimit="10" stroke-width="1.5"/><path fill="none" stroke="rgb(224,224,224)" paint-order="fill stroke markers" d=" M 228.22539444027018 232.70022539444017 L 228.22539444027018 7.305785123966942" stroke-opacity="1" stroke-linecap="round" stroke-linejoin="round" stroke-miterlimit="10" stroke-width="1.5"/><path fill="none" stroke="rgb(224,224,224)" paint-order="fill stroke markers" d=" M 603.8827948910586 232.70022539444017 L 378.48835462058554 232.70022539444017" stroke-opacity="1" stroke-linecap="round" stroke-linejoin="round" stroke-miterlimit="10" stroke-width="1.5"/><path fill="none" stroke="rgb(224,224,224)" paint-order="fill stroke markers" d=" M 603.8827948910586 195.1344853493613 L 378.48835462058554 195.1344853493613" stroke-opacity="1" stroke-linecap="round" stroke-linejoin="round" stroke-miterlimit="10" stroke-width="1.5"/><path fill="none" stroke="rgb(224,224,224)" paint-order="fill stroke markers" d=" M 603.8827948910586 157.56874530428243 L 378.48835462058554 157.56874530428243" stroke-opacity="1" stroke-linecap="round" stroke-linejoin="round" stroke-miterlimit="10" stroke-width="1.5"/><path fill="none" stroke="rgb(224,224,224)" paint-order="fill stroke markers" d=" M 603.8827948910586 120.00300525920356 L 378.48835462058554 120.00300525920356" stroke-opacity="1" stroke-linecap="round" stroke-linejoin="round" stroke-miterlimit="10" stroke-width="1.5"/><path fill="none" stroke="rgb(224,224,224)" paint-order="fill stroke markers" d=" M 603.8827948910586 82.4372652141247 L 378.48835462058554 82.4372652141247" stroke-opacity="1" stroke-linecap="round" stroke-linejoin="round" stroke-miterlimit="10" stroke-width="1.5"/><path fill="none" stroke="rgb(224,224,224)" paint-order="fill stroke markers" d=" M 603.8827948910586 44.87152516904581 L 378.48835462058554 44.87152516904581" stroke-opacity="1" stroke-linecap="round" stroke-linejoin="round" stroke-miterlimit="10" stroke-width="1.5"/><path fill="none" stroke="rgb(224,224,224)" paint-order="fill stroke markers" d=" M 603.8827948910586 7.305785123966942 L 378.48835462058554 7.305785123966942" stroke-opacity="1" stroke-linecap="round" stroke-linejoin="round" stroke-miterlimit="10" stroke-width="1.5"/><path fill="none" stroke="rgb(224,224,224)" paint-order="fill stroke markers" d=" M 378.48835462058554 232.70022539444017 L 378.48835462058554 7.305785123966942" stroke-opacity="1" stroke-linecap="round" stroke-linejoin="round" stroke-miterlimit="10" stroke-width="1.5"/><path fill="none" stroke="rgb(224,224,224)" paint-order="fill stroke markers" d=" M 416.05409466566437 232.70022539444017 L 416.05409466566437 7.305785123966942" stroke-opacity="1" stroke-linecap="round" stroke-linejoin="round" stroke-miterlimit="10" stroke-width="1.5"/><path fill="none" stroke="rgb(224,224,224)" paint-order="fill stroke markers" d=" M 453.6198347107432 232.70022539444017 L 453.6198347107432 7.305785123966942" stroke-opacity="1" stroke-linecap="round" stroke-linejoin="round" stroke-miterlimit="10" stroke-width="1.5"/><path fill="none" stroke="rgb(224,224,224)" paint-order="fill stroke markers" d=" M 491.185574755822 232.70022539444017 L 491.185574755822 7.305785123966942" stroke-opacity="1" stroke-linecap="round" stroke-linejoin="round" stroke-miterlimit="10" stroke-width="1.5"/><path fill="none" stroke="rgb(224,224,224)" paint-order="fill stroke markers" d=" M 528.7513148009009 232.70022539444017 L 528.7513148009009 7.305785123966942" stroke-opacity="1" stroke-linecap="round" stroke-linejoin="round" stroke-miterlimit="10" stroke-width="1.5"/><path fill="none" stroke="rgb(224,224,224)" paint-order="fill stroke markers" d=" M 566.3170548459798 232.70022539444017 L 566.3170548459798 7.305785123966942" stroke-opacity="1" stroke-linecap="round" stroke-linejoin="round" stroke-miterlimit="10" stroke-width="1.5"/><path fill="none" stroke="rgb(224,224,224)" paint-order="fill stroke markers" d=" M 603.8827948910586 232.70022539444017 L 603.8827948910586 7.305785123966942" stroke-opacity="1" stroke-linecap="round" stroke-linejoin="round" stroke-miterlimit="10" stroke-width="1.5"/><path fill="rgb(102,0,204)" stroke="none" paint-order="stroke fill markers" fill-rule="evenodd" d=" M 2.830954169797124 232.70022539444017 L 228.22539444027018 232.70022539444017 L 228.22539444027018 7.305785123966942 L 2.830954169797124 7.305785123966942 Z" fill-opacity="0.09803921568627451"/><path fill="rgb(0,153,255)" stroke="none" paint-order="stroke fill markers" fill-rule="evenodd" d=" M 378.48835462058554 232.70022539444017 L 603.8827948910586 232.70022539444017 L 603.8827948910586 7.305785123966942 L 378.48835462058554 7.305785123966942 Z" fill-opacity="0.09803921568627451"/><path fill="none" stroke="rgb(102,0,204)" paint-order="fill stroke markers" d=" M 2.830954169797124 232.70022539444017 L 228.22539444027018 232.70022539444017" stroke-opacity="0.6980392156862745" stroke-linecap="round" stroke-linejoin="round" stroke-miterlimit="10" stroke-width="1.5"/><path fill="none" stroke="rgb(102,0,204)" paint-order="fill stroke markers" d=" M 228.22539444027018 232.70022539444017 L 228.22539444027018 7.305785123966942" stroke-opacity="0.6980392156862745" stroke-linecap="round" stroke-linejoin="round" stroke-miterlimit="10" stroke-width="1.5"/><path fill="none" stroke="rgb(102,0,204)" paint-order="fill stroke markers" d=" M 228.22539444027018 7.305785123966942 L 2.830954169797124 7.305785123966942" stroke-opacity="0.6980392156862745" stroke-linecap="round" stroke-linejoin="round" stroke-miterlimit="10" stroke-width="1.5"/><path fill="none" stroke="rgb(102,0,204)" paint-order="fill stroke markers" d=" M 2.830954169797124 7.305785123966942 L 2.830954169797124 232.70022539444017" stroke-opacity="0.6980392156862745" stroke-linecap="round" stroke-linejoin="round" stroke-miterlimit="10" stroke-width="1.5"/><path fill="none" stroke="rgb(0,153,255)" paint-order="fill stroke markers" d=" M 378.48835462058554 232.70022539444017 L 603.8827948910586 232.70022539444017" stroke-opacity="0.6980392156862745" stroke-linecap="round" stroke-linejoin="round" stroke-miterlimit="10" stroke-width="1.5"/><path fill="none" stroke="rgb(0,153,255)" paint-order="fill stroke markers" d=" M 603.8827948910586 232.70022539444017 L 603.8827948910586 7.305785123966942" stroke-opacity="0.6980392156862745" stroke-linecap="round" stroke-linejoin="round" stroke-miterlimit="10" stroke-width="1.5"/><path fill="none" stroke="rgb(0,153,255)" paint-order="fill stroke markers" d=" M 603.8827948910586 7.305785123966942 L 378.48835462058554 7.305785123966942" stroke-opacity="0.6980392156862745" stroke-linecap="round" stroke-linejoin="round" stroke-miterlimit="10" stroke-width="1.5"/><path fill="none" stroke="rgb(0,153,255)" paint-order="fill stroke markers" d=" M 378.48835462058554 7.305785123966942 L 378.48835462058554 232.70022539444017" stroke-opacity="0.6980392156862745" stroke-linecap="round" stroke-linejoin="round" stroke-miterlimit="10" stroke-width="1.5"/><path fill="none" stroke="rgb(0,0,0)" paint-order="fill stroke markers" d=" M 115.52817430503364 120.00300525920356 L 115.52817430503364 99.4372652141247" stroke-opacity="0.6980392156862745" stroke-linecap="round" stroke-linejoin="round" stroke-miterlimit="10" stroke-width="2.5"/><path fill="rgb(0,0,0)" stroke="none" paint-order="stroke fill markers" fill-rule="evenodd" d=" M 115.52817430503364 82.4372652141247 L 119.77817430503364 99.4372652141247 L 111.27817430503364 99.4372652141247 Z" fill-opacity="0.6980392156862745"/><g transform="scale(27,27)"><g transform="translate(3,3.8888894444444446)"><path fill="rgb(0,0,0)" stroke="none" paint-order="stroke fill markers" d=" M 0.222 -0.218 L 0.178 -0.218 Q 0.163 -0.162 0.163 -0.125 Q 0.163 -0.028 0.261 -0.028 Q 0.396 -0.028 0.47100000000000003 -0.107 Q 0.481 -0.11800000000000001 0.486 -0.11800000000000001 Q 0.493 -0.11800000000000001 0.502 -0.108 Q 0.511 -0.098 0.511 -0.092 Q 0.511 -0.081 0.482 -0.0565 Q 0.453 -0.032 0.41300000000000003 -0.016 Q 0.35000000000000003 0.008 0.258 0.008 Q 0.159 0.008 0.10400000000000001 -0.039 Q 0.049 -0.08600000000000001 0.049 -0.17200000000000001 Q 0.049 -0.29 0.1365 -0.371 Q 0.224 -0.452 0.358 -0.452 Q 0.42 -0.452 0.4575 -0.4255 Q 0.495 -0.399 0.495 -0.356 Q 0.495 -0.272 0.396 -0.23800000000000002 Q 0.336 -0.218 0.222 -0.218 M 0.187 -0.254 Q 0.216 -0.254 0.232 -0.254 Q 0.248 -0.254 0.278 -0.256 Q 0.308 -0.258 0.326 -0.2615 Q 0.34400000000000003 -0.265 0.367 -0.2725 Q 0.39 -0.28 0.403 -0.2905 Q 0.41600000000000004 -0.301 0.4255 -0.3175 Q 0.435 -0.334 0.435 -0.355 Q 0.435 -0.386 0.41200000000000003 -0.401 Q 0.389 -0.41600000000000004 0.358 -0.41600000000000004 Q 0.292 -0.41600000000000004 0.246 -0.37 Q 0.20600000000000002 -0.333 0.187 -0.254 Z"/></g><g transform="translate(3.553609,4.038889444444445) scale(0.7,0.7)"><path fill="rgb(0,0,0)" stroke="none" paint-order="stroke fill markers" d=" M 0.517 -0.222 L 0.486 0 L 0.057 0 L 0.057 -0.018000000000000002 Q 0.057 -0.034 0.059000000000000004 -0.0385 Q 0.061 -0.043000000000000003 0.07 -0.052000000000000005 L 0.271 -0.257 Q 0.379 -0.367 0.379 -0.465 Q 0.379 -0.525 0.34400000000000003 -0.5665 Q 0.309 -0.608 0.247 -0.608 Q 0.186 -0.608 0.14400000000000002 -0.5730000000000001 Q 0.155 -0.5700000000000001 0.166 -0.5645 Q 0.177 -0.559 0.189 -0.542 Q 0.201 -0.525 0.201 -0.501 Q 0.201 -0.466 0.1785 -0.4475 Q 0.156 -0.429 0.129 -0.429 Q 0.10400000000000001 -0.429 0.0805 -0.4465 Q 0.057 -0.464 0.057 -0.503 Q 0.057 -0.5700000000000001 0.11850000000000001 -0.6125 Q 0.18 -0.655 0.272 -0.655 Q 0.379 -0.655 0.448 -0.603 Q 0.517 -0.551 0.517 -0.466 Q 0.517 -0.431 0.507 -0.404 Q 0.497 -0.377 0.46900000000000003 -0.34750000000000003 Q 0.441 -0.318 0.417 -0.299 Q 0.393 -0.28 0.339 -0.24 Q 0.292 -0.20600000000000002 0.195 -0.125 L 0.342 -0.125 Q 0.433 -0.125 0.444 -0.131 Q 0.457 -0.138 0.47000000000000003 -0.222 L 0.517 -0.222 Z"/></g></g><path fill="none" stroke="rgb(0,0,0)" paint-order="fill stroke markers" d=" M 115.52817430503364 120.00300525920356 L 136.09391435011247 120.00300525920356" stroke-opacity="0.6980392156862745" stroke-linecap="round" stroke-linejoin="round" stroke-miterlimit="10" stroke-width="2.5"/><path fill="rgb(0,0,0)" stroke="none" paint-order="stroke fill markers" fill-rule="evenodd" d=" M 153.09391435011247 120.00300525920356 L 136.09391435011247 124.25300525920356 L 136.09391435011247 115.75300525920356 Z" fill-opacity="0.6980392156862745"/><g transform="scale(27,27)"><g transform="translate(4.555555555555555,5.259259814814815)"><path fill="rgb(0,0,0)" stroke="none" paint-order="stroke fill markers" d=" M 0.222 -0.218 L 0.178 -0.218 Q 0.163 -0.162 0.163 -0.125 Q 0.163 -0.028 0.261 -0.028 Q 0.396 -0.028 0.47100000000000003 -0.107 Q 0.481 -0.11800000000000001 0.486 -0.11800000000000001 Q 0.493 -0.11800000000000001 0.502 -0.108 Q 0.511 -0.098 0.511 -0.092 Q 0.511 -0.081 0.482 -0.0565 Q 0.453 -0.032 0.41300000000000003 -0.016 Q 0.35000000000000003 0.008 0.258 0.008 Q 0.159 0.008 0.10400000000000001 -0.039 Q 0.049 -0.08600000000000001 0.049 -0.17200000000000001 Q 0.049 -0.29 0.1365 -0.371 Q 0.224 -0.452 0.358 -0.452 Q 0.42 -0.452 0.4575 -0.4255 Q 0.495 -0.399 0.495 -0.356 Q 0.495 -0.272 0.396 -0.23800000000000002 Q 0.336 -0.218 0.222 -0.218 M 0.187 -0.254 Q 0.216 -0.254 0.232 -0.254 Q 0.248 -0.254 0.278 -0.256 Q 0.308 -0.258 0.326 -0.2615 Q 0.34400000000000003 -0.265 0.367 -0.2725 Q 0.39 -0.28 0.403 -0.2905 Q 0.41600000000000004 -0.301 0.4255 -0.3175 Q 0.435 -0.334 0.435 -0.355 Q 0.435 -0.386 0.41200000000000003 -0.401 Q 0.389 -0.41600000000000004 0.358 -0.41600000000000004 Q 0.292 -0.41600000000000004 0.246 -0.37 Q 0.20600000000000002 -0.333 0.187 -0.254 Z"/></g><g transform="translate(5.109164555555555,5.409259814814815) scale(0.7,0.7)"><path fill="rgb(0,0,0)" stroke="none" paint-order="stroke fill markers" d=" M 0.354 -0.623 L 0.354 -0.047 L 0.494 -0.047 L 0.494 0 Q 0.45 -0.003 0.295 -0.003 Q 0.14 -0.003 0.096 0 L 0.096 -0.047 L 0.23500000000000001 -0.047 L 0.23500000000000001 -0.5640000000000001 Q 0.17300000000000001 -0.544 0.105 -0.544 L 0.085 -0.544 L 0.085 -0.591 L 0.105 -0.591 Q 0.229 -0.591 0.306 -0.648 Q 0.315 -0.655 0.328 -0.655 Q 0.34600000000000003 -0.655 0.35000000000000003 -0.6485 Q 0.354 -0.642 0.354 -0.623 Z"/></g></g><path fill="none" stroke="rgb(0,0,0)" paint-order="fill stroke markers" d=" M 491.185574755822 120.00300525920356 L 491.185574755822 99.4372652141247" stroke-opacity="0.6980392156862745" stroke-linecap="round" stroke-linejoin="round" stroke-miterlimit="10" stroke-width="2.5"/><path fill="rgb(0,0,0)" stroke="none" paint-order="stroke fill markers" fill-rule="evenodd" d=" M 491.185574755822 82.4372652141247 L 495.435574755822 99.4372652141247 L 486.935574755822 99.4372652141247 Z" fill-opacity="0.6980392156862745"/><g transform="scale(27,27)"><g transform="translate(16.925925925925927,3.9629635185185186)"><path fill="rgb(0,0,0)" stroke="none" paint-order="stroke fill markers" d=" M 0.222 -0.218 L 0.178 -0.218 Q 0.163 -0.162 0.163 -0.125 Q 0.163 -0.028 0.261 -0.028 Q 0.396 -0.028 0.47100000000000003 -0.107 Q 0.481 -0.11800000000000001 0.486 -0.11800000000000001 Q 0.493 -0.11800000000000001 0.502 -0.108 Q 0.511 -0.098 0.511 -0.092 Q 0.511 -0.081 0.482 -0.0565 Q 0.453 -0.032 0.41300000000000003 -0.016 Q 0.35000000000000003 0.008 0.258 0.008 Q 0.159 0.008 0.10400000000000001 -0.039 Q 0.049 -0.08600000000000001 0.049 -0.17200000000000001 Q 0.049 -0.29 0.1365 -0.371 Q 0.224 -0.452 0.358 -0.452 Q 0.42 -0.452 0.4575 -0.4255 Q 0.495 -0.399 0.495 -0.356 Q 0.495 -0.272 0.396 -0.23800000000000002 Q 0.336 -0.218 0.222 -0.218 M 0.187 -0.254 Q 0.216 -0.254 0.232 -0.254 Q 0.248 -0.254 0.278 -0.256 Q 0.308 -0.258 0.326 -0.2615 Q 0.34400000000000003 -0.265 0.367 -0.2725 Q 0.39 -0.28 0.403 -0.2905 Q 0.41600000000000004 -0.301 0.4255 -0.3175 Q 0.435 -0.334 0.435 -0.355 Q 0.435 -0.386 0.41200000000000003 -0.401 Q 0.389 -0.41600000000000004 0.358 -0.41600000000000004 Q 0.292 -0.41600000000000004 0.246 -0.37 Q 0.20600000000000002 -0.333 0.187 -0.254 Z"/></g><g transform="translate(17.47953492592593,4.1129635185185185) scale(0.7,0.7)"><path fill="rgb(0,0,0)" stroke="none" paint-order="stroke fill markers" d=" M 0.517 -0.222 L 0.486 0 L 0.057 0 L 0.057 -0.018000000000000002 Q 0.057 -0.034 0.059000000000000004 -0.0385 Q 0.061 -0.043000000000000003 0.07 -0.052000000000000005 L 0.271 -0.257 Q 0.379 -0.367 0.379 -0.465 Q 0.379 -0.525 0.34400000000000003 -0.5665 Q 0.309 -0.608 0.247 -0.608 Q 0.186 -0.608 0.14400000000000002 -0.5730000000000001 Q 0.155 -0.5700000000000001 0.166 -0.5645 Q 0.177 -0.559 0.189 -0.542 Q 0.201 -0.525 0.201 -0.501 Q 0.201 -0.466 0.1785 -0.4475 Q 0.156 -0.429 0.129 -0.429 Q 0.10400000000000001 -0.429 0.0805 -0.4465 Q 0.057 -0.464 0.057 -0.503 Q 0.057 -0.5700000000000001 0.11850000000000001 -0.6125 Q 0.18 -0.655 0.272 -0.655 Q 0.379 -0.655 0.448 -0.603 Q 0.517 -0.551 0.517 -0.466 Q 0.517 -0.431 0.507 -0.404 Q 0.497 -0.377 0.46900000000000003 -0.34750000000000003 Q 0.441 -0.318 0.417 -0.299 Q 0.393 -0.28 0.339 -0.24 Q 0.292 -0.20600000000000002 0.195 -0.125 L 0.342 -0.125 Q 0.433 -0.125 0.444 -0.131 Q 0.457 -0.138 0.47000000000000003 -0.222 L 0.517 -0.222 Z"/></g></g><path fill="none" stroke="rgb(0,0,0)" paint-order="fill stroke markers" d=" M 491.185574755822 120.00300525920356 L 511.7513148009009 120.00300525920356" stroke-opacity="0.6980392156862745" stroke-linecap="round" stroke-linejoin="round" stroke-miterlimit="10" stroke-width="2.5"/><path fill="rgb(0,0,0)" stroke="none" paint-order="stroke fill markers" fill-rule="evenodd" d=" M 528.7513148009009 120.00300525920356 L 511.7513148009009 124.25300525920356 L 511.7513148009009 115.75300525920356 Z" fill-opacity="0.6980392156862745"/><g transform="scale(27,27)"><g transform="translate(18.333333333333332,5.370370925925926)"><path fill="rgb(0,0,0)" stroke="none" paint-order="stroke fill markers" d=" M 0.222 -0.218 L 0.178 -0.218 Q 0.163 -0.162 0.163 -0.125 Q 0.163 -0.028 0.261 -0.028 Q 0.396 -0.028 0.47100000000000003 -0.107 Q 0.481 -0.11800000000000001 0.486 -0.11800000000000001 Q 0.493 -0.11800000000000001 0.502 -0.108 Q 0.511 -0.098 0.511 -0.092 Q 0.511 -0.081 0.482 -0.0565 Q 0.453 -0.032 0.41300000000000003 -0.016 Q 0.35000000000000003 0.008 0.258 0.008 Q 0.159 0.008 0.10400000000000001 -0.039 Q 0.049 -0.08600000000000001 0.049 -0.17200000000000001 Q 0.049 -0.29 0.1365 -0.371 Q 0.224 -0.452 0.358 -0.452 Q 0.42 -0.452 0.4575 -0.4255 Q 0.495 -0.399 0.495 -0.356 Q 0.495 -0.272 0.396 -0.23800000000000002 Q 0.336 -0.218 0.222 -0.218 M 0.187 -0.254 Q 0.216 -0.254 0.232 -0.254 Q 0.248 -0.254 0.278 -0.256 Q 0.308 -0.258 0.326 -0.2615 Q 0.34400000000000003 -0.265 0.367 -0.2725 Q 0.39 -0.28 0.403 -0.2905 Q 0.41600000000000004 -0.301 0.4255 -0.3175 Q 0.435 -0.334 0.435 -0.355 Q 0.435 -0.386 0.41200000000000003 -0.401 Q 0.389 -0.41600000000000004 0.358 -0.41600000000000004 Q 0.292 -0.41600000000000004 0.246 -0.37 Q 0.20600000000000002 -0.333 0.187 -0.254 Z"/></g><g transform="translate(18.886942333333334,5.520370925925926) scale(0.7,0.7)"><path fill="rgb(0,0,0)" stroke="none" paint-order="stroke fill markers" d=" M 0.354 -0.623 L 0.354 -0.047 L 0.494 -0.047 L 0.494 0 Q 0.45 -0.003 0.295 -0.003 Q 0.14 -0.003 0.096 0 L 0.096 -0.047 L 0.23500000000000001 -0.047 L 0.23500000000000001 -0.5640000000000001 Q 0.17300000000000001 -0.544 0.105 -0.544 L 0.085 -0.544 L 0.085 -0.591 L 0.105 -0.591 Q 0.229 -0.591 0.306 -0.648 Q 0.315 -0.655 0.328 -0.655 Q 0.34600000000000003 -0.655 0.35000000000000003 -0.6485 Q 0.354 -0.642 0.354 -0.623 Z"/></g></g><g transform="scale(27,27)"><g transform="translate(3.888888888888889,9.832687162962964)"><path fill="rgb(0,100,0)" stroke="none" paint-order="stroke fill markers" d=" M 0.268 -0.314 L 0.268 -0.314 L 0.268 -0.092 Q 0.268 -0.051000000000000004 0.28 -0.043000000000000003 Q 0.291 -0.035 0.329 -0.035 Q 0.357 -0.035 0.357 -0.018000000000000002 Q 0.34800000000000003 -0.001 0.324 0 L 0.05 0 Q 0.02 0 0.017 -0.012 Q 0.016 -0.015 0.016 -0.018000000000000002 Q 0.016 -0.035 0.043000000000000003 -0.035 Q 0.09 -0.035 0.099 -0.049 Q 0.10400000000000001 -0.057 0.105 -0.077 L 0.105 -0.092 L 0.105 -0.593 Q 0.105 -0.635 0.092 -0.643 Q 0.081 -0.65 0.043000000000000003 -0.65 Q 0.016 -0.65 0.016 -0.667 Q 0.024 -0.684 0.05 -0.685 L 0.364 -0.685 Q 0.494 -0.685 0.5690000000000001 -0.625 L 0.5700000000000001 -0.624 Q 0.611 -0.59 0.624 -0.541 Q 0.629 -0.521 0.629 -0.498 Q 0.629 -0.369 0.489 -0.333 Q 0.47300000000000003 -0.328 0.454 -0.325 Q 0.495 -0.259 0.578 -0.14100000000000001 Q 0.652 -0.043000000000000003 0.6880000000000001 -0.035 Q 0.7030000000000001 -0.032 0.7030000000000001 -0.018000000000000002 Q 0.6940000000000001 -0.001 0.67 0 L 0.532 0 Q 0.508 0 0.503 -0.007 Q 0.501 -0.009000000000000001 0.499 -0.012 L 0.454 -0.082 L 0.304 -0.314 L 0.268 -0.314 M 0.461 -0.363 L 0.461 -0.363 Q 0.583 -0.385 0.593 -0.47800000000000004 Q 0.594 -0.488 0.594 -0.498 Q 0.594 -0.595 0.482 -0.631 Q 0.468 -0.636 0.454 -0.639 Q 0.492 -0.59 0.492 -0.497 Q 0.492 -0.404 0.461 -0.363 M 0.268 -0.596 L 0.268 -0.34900000000000003 Q 0.385 -0.34900000000000003 0.42 -0.373 Q 0.429 -0.38 0.436 -0.39 Q 0.457 -0.419 0.457 -0.497 Q 0.457 -0.613 0.395 -0.639 Q 0.37 -0.65 0.33 -0.65 Q 0.271 -0.65 0.268 -0.607 L 0.268 -0.596 M 0.132 -0.035 L 0.241 -0.035 Q 0.233 -0.053 0.233 -0.09 L 0.233 -0.599 Q 0.233 -0.634 0.246 -0.65 L 0.132 -0.65 Q 0.14 -0.632 0.14 -0.595 L 0.14 -0.09 Q 0.14 -0.053 0.132 -0.035 M 0.34500000000000003 -0.314 L 0.525 -0.035 L 0.622 -0.035 Q 0.548 -0.109 0.41600000000000004 -0.32 Q 0.386 -0.316 0.364 -0.316 Q 0.359 -0.316 0.34500000000000003 -0.314 Z"/></g><g transform="translate(4.611112888888889,9.414073762962964) scale(0.7,0.7)"><path fill="rgb(0,100,0)" stroke="none" paint-order="stroke fill markers" d=" M 0.517 -0.222 L 0.486 0 L 0.057 0 L 0.057 -0.018000000000000002 Q 0.057 -0.034 0.059000000000000004 -0.0385 Q 0.061 -0.043000000000000003 0.07 -0.052000000000000005 L 0.271 -0.257 Q 0.379 -0.367 0.379 -0.465 Q 0.379 -0.525 0.34400000000000003 -0.5665 Q 0.309 -0.608 0.247 -0.608 Q 0.186 -0.608 0.14400000000000002 -0.5730000000000001 Q 0.155 -0.5700000000000001 0.166 -0.5645 Q 0.177 -0.559 0.189 -0.542 Q 0.201 -0.525 0.201 -0.501 Q 0.201 -0.466 0.1785 -0.4475 Q 0.156 -0.429 0.129 -0.429 Q 0.10400000000000001 -0.429 0.0805 -0.4465 Q 0.057 -0.464 0.057 -0.503 Q 0.057 -0.5700000000000001 0.11850000000000001 -0.6125 Q 0.18 -0.655 0.272 -0.655 Q 0.379 -0.655 0.448 -0.603 Q 0.517 -0.551 0.517 -0.466 Q 0.517 -0.431 0.507 -0.404 Q 0.497 -0.377 0.46900000000000003 -0.34750000000000003 Q 0.441 -0.318 0.417 -0.299 Q 0.393 -0.28 0.339 -0.24 Q 0.292 -0.20600000000000002 0.195 -0.125 L 0.342 -0.125 Q 0.433 -0.125 0.444 -0.131 Q 0.457 -0.138 0.47000000000000003 -0.222 L 0.517 -0.222 Z"/></g></g><g transform="scale(27,27)"><g transform="translate(18.074074074074073,9.832687162962964)"><path fill="rgb(0,100,0)" stroke="none" paint-order="stroke fill markers" d=" M 0.268 -0.314 L 0.268 -0.314 L 0.268 -0.092 Q 0.268 -0.051000000000000004 0.28 -0.043000000000000003 Q 0.291 -0.035 0.329 -0.035 Q 0.357 -0.035 0.357 -0.018000000000000002 Q 0.34800000000000003 -0.001 0.324 0 L 0.05 0 Q 0.02 0 0.017 -0.012 Q 0.016 -0.015 0.016 -0.018000000000000002 Q 0.016 -0.035 0.043000000000000003 -0.035 Q 0.09 -0.035 0.099 -0.049 Q 0.10400000000000001 -0.057 0.105 -0.077 L 0.105 -0.092 L 0.105 -0.593 Q 0.105 -0.635 0.092 -0.643 Q 0.081 -0.65 0.043000000000000003 -0.65 Q 0.016 -0.65 0.016 -0.667 Q 0.024 -0.684 0.05 -0.685 L 0.364 -0.685 Q 0.494 -0.685 0.5690000000000001 -0.625 L 0.5700000000000001 -0.624 Q 0.611 -0.59 0.624 -0.541 Q 0.629 -0.521 0.629 -0.498 Q 0.629 -0.369 0.489 -0.333 Q 0.47300000000000003 -0.328 0.454 -0.325 Q 0.495 -0.259 0.578 -0.14100000000000001 Q 0.652 -0.043000000000000003 0.6880000000000001 -0.035 Q 0.7030000000000001 -0.032 0.7030000000000001 -0.018000000000000002 Q 0.6940000000000001 -0.001 0.67 0 L 0.532 0 Q 0.508 0 0.503 -0.007 Q 0.501 -0.009000000000000001 0.499 -0.012 L 0.454 -0.082 L 0.304 -0.314 L 0.268 -0.314 M 0.461 -0.363 L 0.461 -0.363 Q 0.583 -0.385 0.593 -0.47800000000000004 Q 0.594 -0.488 0.594 -0.498 Q 0.594 -0.595 0.482 -0.631 Q 0.468 -0.636 0.454 -0.639 Q 0.492 -0.59 0.492 -0.497 Q 0.492 -0.404 0.461 -0.363 M 0.268 -0.596 L 0.268 -0.34900000000000003 Q 0.385 -0.34900000000000003 0.42 -0.373 Q 0.429 -0.38 0.436 -0.39 Q 0.457 -0.419 0.457 -0.497 Q 0.457 -0.613 0.395 -0.639 Q 0.37 -0.65 0.33 -0.65 Q 0.271 -0.65 0.268 -0.607 L 0.268 -0.596 M 0.132 -0.035 L 0.241 -0.035 Q 0.233 -0.053 0.233 -0.09 L 0.233 -0.599 Q 0.233 -0.634 0.246 -0.65 L 0.132 -0.65 Q 0.14 -0.632 0.14 -0.595 L 0.14 -0.09 Q 0.14 -0.053 0.132 -0.035 M 0.34500000000000003 -0.314 L 0.525 -0.035 L 0.622 -0.035 Q 0.548 -0.109 0.41600000000000004 -0.32 Q 0.386 -0.316 0.364 -0.316 Q 0.359 -0.316 0.34500000000000003 -0.314 Z"/></g><g transform="translate(18.796298074074073,9.414073762962964) scale(0.7,0.7)"><path fill="rgb(0,100,0)" stroke="none" paint-order="stroke fill markers" d=" M 0.517 -0.222 L 0.486 0 L 0.057 0 L 0.057 -0.018000000000000002 Q 0.057 -0.034 0.059000000000000004 -0.0385 Q 0.061 -0.043000000000000003 0.07 -0.052000000000000005 L 0.271 -0.257 Q 0.379 -0.367 0.379 -0.465 Q 0.379 -0.525 0.34400000000000003 -0.5665 Q 0.309 -0.608 0.247 -0.608 Q 0.186 -0.608 0.14400000000000002 -0.5730000000000001 Q 0.155 -0.5700000000000001 0.166 -0.5645 Q 0.177 -0.559 0.189 -0.542 Q 0.201 -0.525 0.201 -0.501 Q 0.201 -0.466 0.1785 -0.4475 Q 0.156 -0.429 0.129 -0.429 Q 0.10400000000000001 -0.429 0.0805 -0.4465 Q 0.057 -0.464 0.057 -0.503 Q 0.057 -0.5700000000000001 0.11850000000000001 -0.6125 Q 0.18 -0.655 0.272 -0.655 Q 0.379 -0.655 0.448 -0.603 Q 0.517 -0.551 0.517 -0.466 Q 0.517 -0.431 0.507 -0.404 Q 0.497 -0.377 0.46900000000000003 -0.34750000000000003 Q 0.441 -0.318 0.417 -0.299 Q 0.393 -0.28 0.339 -0.24 Q 0.292 -0.20600000000000002 0.195 -0.125 L 0.342 -0.125 Q 0.433 -0.125 0.444 -0.131 Q 0.457 -0.138 0.47000000000000003 -0.222 L 0.517 -0.222 Z"/></g></g><path fill="none" stroke="rgb(0,0,0)" paint-order="fill stroke markers" d=" M 262.99999999999966 118.99999999999996 L 321.1314800901573 118.99999999999996" stroke-opacity="0.6980392156862745" stroke-linecap="round" stroke-linejoin="round" stroke-miterlimit="10" stroke-width="2.5"/><path fill="rgb(0,0,0)" stroke="none" paint-order="stroke fill markers" fill-rule="evenodd" d=" M 338.1314800901573 118.99999999999996 L 321.1314800901573 123.24999999999996 L 321.1314800901573 114.74999999999996 Z" fill-opacity="0.6980392156862745"/><g transform="scale(27,27)"><g transform="translate(10.592592592592593,3.945370259259259)"><path fill="rgb(0,0,0)" stroke="none" paint-order="stroke fill markers" d=" M 0.645 -0.682 L 0.739 -0.067 Q 0.741 -0.054 0.7435 -0.051500000000000004 Q 0.746 -0.049 0.755 -0.048 Q 0.769 -0.047 0.794 -0.047 Q 0.81 -0.047 0.8165 -0.0465 Q 0.8230000000000001 -0.046 0.8285 -0.042 Q 0.834 -0.038 0.834 -0.029 Q 0.834 -0.016 0.8280000000000001 -0.009000000000000001 Q 0.8220000000000001 -0.002 0.8175 -0.001 Q 0.8130000000000001 0 0.806 0 Q 0.794 0 0.771 -0.001 Q 0.748 -0.002 0.736 -0.002 Q 0.724 -0.002 0.7010000000000001 -0.0025 Q 0.678 -0.003 0.667 -0.003 Q 0.65 -0.003 0.592 -0.0015 Q 0.534 0 0.518 0 Q 0.496 0 0.496 -0.018000000000000002 Q 0.496 -0.032 0.502 -0.0385 Q 0.508 -0.045 0.514 -0.046 Q 0.52 -0.047 0.533 -0.047 Q 0.5740000000000001 -0.047 0.598 -0.052000000000000005 L 0.5750000000000001 -0.198 L 0.305 -0.198 L 0.213 -0.058 Q 0.23500000000000001 -0.047 0.271 -0.047 Q 0.297 -0.047 0.297 -0.029 Q 0.297 0 0.27 0 Q 0.252 0 0.215 -0.0015 Q 0.178 -0.003 0.159 -0.003 Q 0.14300000000000002 -0.003 0.111 -0.0015 Q 0.079 0 0.064 0 Q 0.056 0 0.0505 -0.0055 Q 0.045 -0.011 0.045 -0.018000000000000002 Q 0.045 -0.031 0.051000000000000004 -0.038 Q 0.057 -0.045 0.062 -0.046 Q 0.067 -0.047 0.077 -0.047 Q 0.111 -0.047 0.132 -0.0535 Q 0.153 -0.06 0.1595 -0.0665 Q 0.166 -0.073 0.17400000000000002 -0.085 L 0.5670000000000001 -0.686 Q 0.577 -0.7020000000000001 0.5855 -0.7065 Q 0.594 -0.711 0.611 -0.711 Q 0.63 -0.711 0.636 -0.706 Q 0.642 -0.7010000000000001 0.645 -0.682 M 0.524 -0.533 L 0.336 -0.245 L 0.5680000000000001 -0.245 L 0.524 -0.533 Z"/></g></g><path fill="rgb(102,204,255)" stroke="none" paint-order="stroke fill markers" d=" M 119.52817430503364 120.00300525920356 C 119.52817430503364 122.21214425852673 117.73731330435682 124.00300525920356 115.52817430503364 124.00300525920356 C 113.31903530571047 124.00300525920356 111.52817430503364 122.21214425852673 111.52817430503364 120.00300525920356 C 111.52817430503364 117.79386625988039 113.31903530571047 116.00300525920356 115.52817430503364 116.00300525920356 C 117.73731330435682 116.00300525920356 119.52817430503364 117.79386625988039 119.52817430503364 120.00300525920356 Z" fill-opacity="1"/><path fill="none" stroke="rgb(0,0,0)" paint-order="fill stroke markers" d=" M 119.52817430503364 120.00300525920356 C 119.52817430503364 122.21214425852673 117.73731330435682 124.00300525920356 115.52817430503364 124.00300525920356 C 113.31903530571047 124.00300525920356 111.52817430503364 122.21214425852673 111.52817430503364 120.00300525920356 C 111.52817430503364 117.79386625988039 113.31903530571047 116.00300525920356 115.52817430503364 116.00300525920356 C 117.73731330435682 116.00300525920356 119.52817430503364 117.79386625988039 119.52817430503364 120.00300525920356 Z" stroke-opacity="1" stroke-linecap="round" stroke-linejoin="round" stroke-miterlimit="10"/><path fill="rgb(102,204,255)" stroke="none" paint-order="stroke fill markers" d=" M 495.185574755822 120.00300525920356 C 495.185574755822 122.21214425852673 493.3947137551452 124.00300525920356 491.185574755822 124.00300525920356 C 488.97643575649886 124.00300525920356 487.185574755822 122.21214425852673 487.185574755822 120.00300525920356 C 487.185574755822 117.79386625988039 488.97643575649886 116.00300525920356 491.185574755822 116.00300525920356 C 493.3947137551452 116.00300525920356 495.185574755822 117.79386625988039 495.185574755822 120.00300525920356 Z" fill-opacity="1"/><path fill="none" stroke="rgb(0,0,0)" paint-order="fill stroke markers" d=" M 495.185574755822 120.00300525920356 C 495.185574755822 122.21214425852673 493.3947137551452 124.00300525920356 491.185574755822 124.00300525920356 C 488.97643575649886 124.00300525920356 487.185574755822 122.21214425852673 487.185574755822 120.00300525920356 C 487.185574755822 117.79386625988039 488.97643575649886 116.00300525920356 491.185574755822 116.00300525920356 C 493.3947137551452 116.00300525920356 495.185574755822 117.79386625988039 495.185574755822 120.00300525920356 Z" stroke-opacity="1" stroke-linecap="round" stroke-linejoin="round" stroke-miterlimit="10"/></g></g></svg>