<svg version="1.1" xmlns="http://www.w3.org/2000/svg" xmlns:xlink="http://www.w3.org/1999/xlink" width="658" height="271"><defs><clipPath id="faaaADsUuevP"><path fill="none" stroke="none" d=" M 0 0 L 658 0 L 658 271 L 0 271 L 0 0 Z"/></clipPath></defs><g transform="scale(1,1)" clip-path="url(#faaaADsUuevP)"><g><path fill="rgb(102,0,204)" stroke="none" paint-order="stroke fill markers" fill-rule="evenodd" d=" M 186.79413974455312 231.7002253944402 L 444.49511645379414 231.7002253944402 L 444.49511645379414 6.305785123967155 L 186.79413974455312 6.305785123967155 Z" fill-opacity="0.09803921568627451"/><path fill="none" stroke="rgb(102,0,204)" paint-order="fill stroke markers" d=" M 186.79413974455312 231.7002253944402 L 444.49511645379414 231.7002253944402" stroke-opacity="0.6980392156862745" stroke-linecap="round" stroke-linejoin="round" stroke-miterlimit="10" stroke-width="1.5"/><path fill="none" stroke="rgb(102,0,204)" paint-order="fill stroke markers" d=" M 444.49511645379414 231.7002253944402 L 444.49511645379414 6.305785123967155" stroke-opacity="0.6980392156862745" stroke-linecap="round" stroke-linejoin="round" stroke-miterlimit="10" stroke-width="1.5"/><path fill="none" stroke="rgb(102,0,204)" paint-order="fill stroke markers" d=" M 444.49511645379414 6.305785123967155 L 186.79413974455312 6.305785123967155" stroke-opacity="0.6980392156862745" stroke-linecap="round" stroke-linejoin="round" stroke-miterlimit="10" stroke-width="1.5"/><path fill="none" stroke="rgb(102,0,204)" paint-order="fill stroke markers" d=" M 186.79413974455312 6.305785123967155 L 186.79413974455312 231.7002253944402" stroke-opacity="0.6980392156862745" stroke-linecap="round" stroke-linejoin="round" stroke-miterlimit="10" stroke-width="1.5"/><g transform="scale(23,23)"><g transform="translate(13.434782608695652,11.347985069565217)"><path fill="rgb(0,100,0)" stroke="none" paint-order="stroke fill markers" d=" M 0.268 -0.314 L 0.268 -0.314 L 0.268 -0.092 Q 0.268 -0.051000000000000004 0.28 -0.043000000000000003 Q 0.291 -0.035 0.329 -0.035 Q 0.357 -0.035 0.357 -0.018000000000000002 Q 0.34800000000000003 -0.001 0.324 0 L 0.05 0 Q 0.02 0 0.017 -0.012 Q 0.016 -0.015 0.016 -0.018000000000000002 Q 0.016 -0.035 0.043000000000000003 -0.035 Q 0.09 -0.035 0.099 -0.049 Q 0.10400000000000001 -0.057 0.105 -0.077 L 0.105 -0.092 L 0.105 -0.593 Q 0.105 -0.635 0.092 -0.643 Q 0.081 -0.65 0.043000000000000003 -0.65 Q 0.016 -0.65 0.016 -0.667 Q 0.024 -0.684 0.05 -0.685 L 0.364 -0.685 Q 0.494 -0.685 0.5690000000000001 -0.625 L 0.5700000000000001 -0.624 Q 0.611 -0.59 0.624 -0.541 Q 0.629 -0.521 0.629 -0.498 Q 0.629 -0.369 0.489 -0.333 Q 0.47300000000000003 -0.328 0.454 -0.325 Q 0.495 -0.259 0.578 -0.14100000000000001 Q 0.652 -0.043000000000000003 0.6880000000000001 -0.035 Q 0.7030000000000001 -0.032 0.7030000000000001 -0.018000000000000002 Q 0.6940000000000001 -0.001 0.67 0 L 0.532 0 Q 0.508 0 0.503 -0.007 Q 0.501 -0.009000000000000001 0.499 -0.012 L 0.454 -0.082 L 0.304 -0.314 L 0.268 -0.314 M 0.461 -0.363 L 0.461 -0.363 Q 0.583 -0.385 0.593 -0.47800000000000004 Q 0.594 -0.488 0.594 -0.498 Q 0.594 -0.595 0.482 -0.631 Q 0.468 -0.636 0.454 -0.639 Q 0.492 -0.59 0.492 -0.497 Q 0.492 -0.404 0.461 -0.363 M 0.268 -0.596 L 0.268 -0.34900000000000003 Q 0.385 -0.34900000000000003 0.42 -0.373 Q 0.429 -0.38 0.436 -0.39 Q 0.457 -0.419 0.457 -0.497 Q 0.457 -0.613 0.395 -0.639 Q 0.37 -0.65 0.33 -0.65 Q 0.271 -0.65 0.268 -0.607 L 0.268 -0.596 M 0.132 -0.035 L 0.241 -0.035 Q 0.233 -0.053 0.233 -0.09 L 0.233 -0.599 Q 0.233 -0.634 0.246 -0.65 L 0.132 -0.65 Q 0.14 -0.632 0.14 -0.595 L 0.14 -0.09 Q 0.14 -0.053 0.132 -0.035 M 0.34500000000000003 -0.314 L 0.525 -0.035 L 0.622 -0.035 Q 0.548 -0.109 0.41600000000000004 -0.32 Q 0.386 -0.316 0.364 -0.316 Q 0.359 -0.316 0.34500000000000003 -0.314 Z"/></g><g transform="translate(14.157006608695653,10.929371669565217) scale(0.7,0.7)"><path fill="rgb(0,100,0)" stroke="none" paint-order="stroke fill markers" d=" M 0.517 -0.222 L 0.486 0 L 0.057 0 L 0.057 -0.018000000000000002 Q 0.057 -0.034 0.059000000000000004 -0.0385 Q 0.061 -0.043000000000000003 0.07 -0.052000000000000005 L 0.271 -0.257 Q 0.379 -0.367 0.379 -0.465 Q 0.379 -0.525 0.34400000000000003 -0.5665 Q 0.309 -0.608 0.247 -0.608 Q 0.186 -0.608 0.14400000000000002 -0.5730000000000001 Q 0.155 -0.5700000000000001 0.166 -0.5645 Q 0.177 -0.559 0.189 -0.542 Q 0.201 -0.525 0.201 -0.501 Q 0.201 -0.466 0.1785 -0.4475 Q 0.156 -0.429 0.129 -0.429 Q 0.10400000000000001 -0.429 0.0805 -0.4465 Q 0.057 -0.464 0.057 -0.503 Q 0.057 -0.5700000000000001 0.11850000000000001 -0.6125 Q 0.18 -0.655 0.272 -0.655 Q 0.379 -0.655 0.448 -0.603 Q 0.517 -0.551 0.517 -0.466 Q 0.517 -0.431 0.507 -0.404 Q 0.497 -0.377 0.46900000000000003 -0.34750000000000003 Q 0.441 -0.318 0.417 -0.299 Q 0.393 -0.28 0.339 -0.24 Q 0.292 -0.20600000000000002 0.195 -0.125 L 0.342 -0.125 Q 0.433 -0.125 0.444 -0.131 Q 0.457 -0.138 0.47000000000000003 -0.222 L 0.517 -0.222 Z"/></g></g><path fill="none" stroke="rgb(0,0,0)" paint-order="fill stroke markers" d=" M 320.5281743050339 119.00300525920368 L 289.67063819245436 57.28793303404473" stroke-opacity="0.6980392156862745" stroke-linecap="round" stroke-linejoin="round" stroke-miterlimit="10" stroke-width="1.5"/><path fill="rgb(0,0,0)" stroke="none" paint-order="stroke fill markers" fill-rule="evenodd" d=" M 282.962434259955 43.871525169045995 L 293.02474015870405 55.610882050919884 L 286.3165362262047 58.96498401716957 Z" fill-opacity="0.6980392156862745"/><g transform="scale(23,23)"><g transform="translate(11.043478260869565,1.7607896173913042)"><path fill="rgb(0,0,0)" stroke="none" paint-order="stroke fill markers" d=" M 0.444 -0.402 Q 0.43 -0.41600000000000004 0.405 -0.41600000000000004 Q 0.341 -0.41600000000000004 0.295 -0.358 Q 0.28300000000000003 -0.34400000000000003 0.278 -0.326 Q 0.277 -0.322 0.243 -0.185 Q 0.209 -0.048 0.20800000000000002 -0.045 Q 0.201 -0.017 0.181 -0.0045000000000000005 Q 0.161 0.008 0.14200000000000002 0.008 Q 0.12 0.008 0.1075 -0.0055 Q 0.095 -0.019 0.095 -0.036000000000000004 L 0.113 -0.114 Q 0.124 -0.155 0.133 -0.196 Q 0.136 -0.20800000000000002 0.147 -0.2515 Q 0.158 -0.295 0.161 -0.304 Q 0.17500000000000002 -0.364 0.17500000000000002 -0.38 Q 0.17500000000000002 -0.41600000000000004 0.152 -0.41600000000000004 Q 0.109 -0.41600000000000004 0.084 -0.316 Q 0.077 -0.28800000000000003 0.076 -0.28700000000000003 Q 0.07100000000000001 -0.28200000000000003 0.056 -0.28200000000000003 Q 0.032 -0.28200000000000003 0.032 -0.296 Q 0.032 -0.304 0.043000000000000003 -0.337 Q 0.054 -0.37 0.07 -0.395 Q 0.105 -0.452 0.157 -0.452 Q 0.19 -0.452 0.224 -0.4375 Q 0.258 -0.423 0.274 -0.392 Q 0.33 -0.452 0.40700000000000003 -0.452 Q 0.452 -0.452 0.47850000000000004 -0.4265 Q 0.505 -0.401 0.505 -0.365 Q 0.505 -0.329 0.483 -0.3075 Q 0.461 -0.28600000000000003 0.433 -0.28600000000000003 Q 0.41000000000000003 -0.28600000000000003 0.3965 -0.3 Q 0.383 -0.314 0.383 -0.332 Q 0.383 -0.341 0.386 -0.3525 Q 0.389 -0.364 0.404 -0.3805 Q 0.419 -0.397 0.444 -0.402 Z"/></g><g transform="translate(11.572182260869564,1.9107896173913042) scale(0.7,0.7)"><path fill="rgb(0,0,0)" stroke="none" paint-order="stroke fill markers" d=" M 0.354 -0.623 L 0.354 -0.047 L 0.494 -0.047 L 0.494 0 Q 0.45 -0.003 0.295 -0.003 Q 0.14 -0.003 0.096 0 L 0.096 -0.047 L 0.23500000000000001 -0.047 L 0.23500000000000001 -0.5640000000000001 Q 0.17300000000000001 -0.544 0.105 -0.544 L 0.085 -0.544 L 0.085 -0.591 L 0.105 -0.591 Q 0.229 -0.591 0.306 -0.648 Q 0.315 -0.655 0.328 -0.655 Q 0.34600000000000003 -0.655 0.35000000000000003 -0.6485 Q 0.354 -0.642 0.354 -0.623 Z"/></g><g transform="translate(11.974680160869564,1.3478976173913042) scale(0.7,0.7)"><path fill="rgb(0,0,0)" stroke="none" paint-order="stroke fill markers" d=" M 0.666 -0.677 L 0.685 -0.452 L 0.66 -0.452 Q 0.65 -0.5660000000000001 0.628 -0.6 L 0.628 -0.601 Q 0.603 -0.639 0.525 -0.645 Q 0.506 -0.646 0.48 -0.646 Q 0.434 -0.646 0.423 -0.644 Q 0.406 -0.631 0.405 -0.606 L 0.405 -0.079 Q 0.405 -0.051000000000000004 0.417 -0.043000000000000003 Q 0.436 -0.031 0.51 -0.031 L 0.55 -0.031 L 0.55 0 Q 0.509 -0.003 0.36 -0.003 Q 0.212 -0.003 0.171 0 L 0.171 -0.031 L 0.211 -0.031 Q 0.299 -0.031 0.311 -0.05 Q 0.314 -0.055 0.315 -0.062 Q 0.316 -0.067 0.316 -0.079 L 0.316 -0.606 Q 0.316 -0.634 0.307 -0.64 L 0.306 -0.64 L 0.305 -0.641 L 0.304 -0.641 Q 0.301 -0.643 0.295 -0.644 Q 0.28500000000000003 -0.646 0.241 -0.646 Q 0.139 -0.646 0.106 -0.616 L 0.10200000000000001 -0.612 L 0.101 -0.611 L 0.101 -0.611 Q 0.074 -0.581 0.064 -0.481 Q 0.062 -0.46900000000000003 0.061 -0.452 L 0.036000000000000004 -0.452 L 0.055 -0.677 L 0.666 -0.677 Z"/></g></g><path fill="none" stroke="rgb(0,0,0)" paint-order="fill stroke markers" d=" M 320.5281743050339 119.00300525920368 L 320.5281743050339 58.871525169045995" stroke-opacity="0.6980392156862745" stroke-linecap="round" stroke-linejoin="round" stroke-miterlimit="10" stroke-width="1.5"/><path fill="rgb(0,0,0)" stroke="none" paint-order="stroke fill markers" fill-rule="evenodd" d=" M 320.5281743050339 43.871525169045995 L 324.2781743050339 58.871525169045995 L 316.7781743050339 58.871525169045995 Z" fill-opacity="0.6980392156862745"/><g transform="scale(23,23)"><g transform="translate(13.695652173913043,1.499920052173913)"><path fill="rgb(0,0,0)" stroke="none" paint-order="stroke fill markers" d=" M 0.444 -0.402 Q 0.43 -0.41600000000000004 0.405 -0.41600000000000004 Q 0.341 -0.41600000000000004 0.295 -0.358 Q 0.28300000000000003 -0.34400000000000003 0.278 -0.326 Q 0.277 -0.322 0.243 -0.185 Q 0.209 -0.048 0.20800000000000002 -0.045 Q 0.201 -0.017 0.181 -0.0045000000000000005 Q 0.161 0.008 0.14200000000000002 0.008 Q 0.12 0.008 0.1075 -0.0055 Q 0.095 -0.019 0.095 -0.036000000000000004 L 0.113 -0.114 Q 0.124 -0.155 0.133 -0.196 Q 0.136 -0.20800000000000002 0.147 -0.2515 Q 0.158 -0.295 0.161 -0.304 Q 0.17500000000000002 -0.364 0.17500000000000002 -0.38 Q 0.17500000000000002 -0.41600000000000004 0.152 -0.41600000000000004 Q 0.109 -0.41600000000000004 0.084 -0.316 Q 0.077 -0.28800000000000003 0.076 -0.28700000000000003 Q 0.07100000000000001 -0.28200000000000003 0.056 -0.28200000000000003 Q 0.032 -0.28200000000000003 0.032 -0.296 Q 0.032 -0.304 0.043000000000000003 -0.337 Q 0.054 -0.37 0.07 -0.395 Q 0.105 -0.452 0.157 -0.452 Q 0.19 -0.452 0.224 -0.4375 Q 0.258 -0.423 0.274 -0.392 Q 0.33 -0.452 0.40700000000000003 -0.452 Q 0.452 -0.452 0.47850000000000004 -0.4265 Q 0.505 -0.401 0.505 -0.365 Q 0.505 -0.329 0.483 -0.3075 Q 0.461 -0.28600000000000003 0.433 -0.28600000000000003 Q 0.41000000000000003 -0.28600000000000003 0.3965 -0.3 Q 0.383 -0.314 0.383 -0.332 Q 0.383 -0.341 0.386 -0.3525 Q 0.389 -0.364 0.404 -0.3805 Q 0.419 -0.397 0.444 -0.402 Z"/></g><g transform="translate(14.224356173913042,1.649920052173913) scale(0.7,0.7)"><path fill="rgb(0,0,0)" stroke="none" paint-order="stroke fill markers" d=" M 0.517 -0.222 L 0.486 0 L 0.057 0 L 0.057 -0.018000000000000002 Q 0.057 -0.034 0.059000000000000004 -0.0385 Q 0.061 -0.043000000000000003 0.07 -0.052000000000000005 L 0.271 -0.257 Q 0.379 -0.367 0.379 -0.465 Q 0.379 -0.525 0.34400000000000003 -0.5665 Q 0.309 -0.608 0.247 -0.608 Q 0.186 -0.608 0.14400000000000002 -0.5730000000000001 Q 0.155 -0.5700000000000001 0.166 -0.5645 Q 0.177 -0.559 0.189 -0.542 Q 0.201 -0.525 0.201 -0.501 Q 0.201 -0.466 0.1785 -0.4475 Q 0.156 -0.429 0.129 -0.429 Q 0.10400000000000001 -0.429 0.0805 -0.4465 Q 0.057 -0.464 0.057 -0.503 Q 0.057 -0.5700000000000001 0.11850000000000001 -0.6125 Q 0.18 -0.655 0.272 -0.655 Q 0.379 -0.655 0.448 -0.603 Q 0.517 -0.551 0.517 -0.466 Q 0.517 -0.431 0.507 -0.404 Q 0.497 -0.377 0.46900000000000003 -0.34750000000000003 Q 0.441 -0.318 0.417 -0.299 Q 0.393 -0.28 0.339 -0.24 Q 0.292 -0.20600000000000002 0.195 -0.125 L 0.342 -0.125 Q 0.433 -0.125 0.444 -0.131 Q 0.457 -0.138 0.47000000000000003 -0.222 L 0.517 -0.222 Z"/></g><g transform="translate(14.626854073913043,1.087028052173913) scale(0.7,0.7)"><path fill="rgb(0,0,0)" stroke="none" paint-order="stroke fill markers" d=" M 0.666 -0.677 L 0.685 -0.452 L 0.66 -0.452 Q 0.65 -0.5660000000000001 0.628 -0.6 L 0.628 -0.601 Q 0.603 -0.639 0.525 -0.645 Q 0.506 -0.646 0.48 -0.646 Q 0.434 -0.646 0.423 -0.644 Q 0.406 -0.631 0.405 -0.606 L 0.405 -0.079 Q 0.405 -0.051000000000000004 0.417 -0.043000000000000003 Q 0.436 -0.031 0.51 -0.031 L 0.55 -0.031 L 0.55 0 Q 0.509 -0.003 0.36 -0.003 Q 0.212 -0.003 0.171 0 L 0.171 -0.031 L 0.211 -0.031 Q 0.299 -0.031 0.311 -0.05 Q 0.314 -0.055 0.315 -0.062 Q 0.316 -0.067 0.316 -0.079 L 0.316 -0.606 Q 0.316 -0.634 0.307 -0.64 L 0.306 -0.64 L 0.305 -0.641 L 0.304 -0.641 Q 0.301 -0.643 0.295 -0.644 Q 0.28500000000000003 -0.646 0.241 -0.646 Q 0.139 -0.646 0.106 -0.616 L 0.10200000000000001 -0.612 L 0.101 -0.611 L 0.101 -0.611 Q 0.074 -0.581 0.064 -0.481 Q 0.062 -0.46900000000000003 0.061 -0.452 L 0.036000000000000004 -0.452 L 0.055 -0.677 L 0.666 -0.677 Z"/></g></g><path fill="none" stroke="rgb(0,0,0)" paint-order="fill stroke markers" d=" M 320.5281743050339 119.00300525920368 L 351.3857104176134 180.7180774843626" stroke-opacity="0.6980392156862745" stroke-linecap="round" stroke-linejoin="round" stroke-miterlimit="10" stroke-width="1.5"/><path fill="rgb(0,0,0)" stroke="none" paint-order="stroke fill markers" fill-rule="evenodd" d=" M 358.09391435011275 194.13448534936134 L 348.0316084513637 182.39512846748744 L 354.73981238386307 179.04102650123775 Z" fill-opacity="0.6980392156862745"/><g transform="scale(23,23)"><g transform="translate(15.347826086956522,9.282528747826088)"><path fill="rgb(0,0,0)" stroke="none" paint-order="stroke fill markers" d=" M 0.444 -0.402 Q 0.43 -0.41600000000000004 0.405 -0.41600000000000004 Q 0.341 -0.41600000000000004 0.295 -0.358 Q 0.28300000000000003 -0.34400000000000003 0.278 -0.326 Q 0.277 -0.322 0.243 -0.185 Q 0.209 -0.048 0.20800000000000002 -0.045 Q 0.201 -0.017 0.181 -0.0045000000000000005 Q 0.161 0.008 0.14200000000000002 0.008 Q 0.12 0.008 0.1075 -0.0055 Q 0.095 -0.019 0.095 -0.036000000000000004 L 0.113 -0.114 Q 0.124 -0.155 0.133 -0.196 Q 0.136 -0.20800000000000002 0.147 -0.2515 Q 0.158 -0.295 0.161 -0.304 Q 0.17500000000000002 -0.364 0.17500000000000002 -0.38 Q 0.17500000000000002 -0.41600000000000004 0.152 -0.41600000000000004 Q 0.109 -0.41600000000000004 0.084 -0.316 Q 0.077 -0.28800000000000003 0.076 -0.28700000000000003 Q 0.07100000000000001 -0.28200000000000003 0.056 -0.28200000000000003 Q 0.032 -0.28200000000000003 0.032 -0.296 Q 0.032 -0.304 0.043000000000000003 -0.337 Q 0.054 -0.37 0.07 -0.395 Q 0.105 -0.452 0.157 -0.452 Q 0.19 -0.452 0.224 -0.4375 Q 0.258 -0.423 0.274 -0.392 Q 0.33 -0.452 0.40700000000000003 -0.452 Q 0.452 -0.452 0.47850000000000004 -0.4265 Q 0.505 -0.401 0.505 -0.365 Q 0.505 -0.329 0.483 -0.3075 Q 0.461 -0.28600000000000003 0.433 -0.28600000000000003 Q 0.41000000000000003 -0.28600000000000003 0.3965 -0.3 Q 0.383 -0.314 0.383 -0.332 Q 0.383 -0.341 0.386 -0.3525 Q 0.389 -0.364 0.404 -0.3805 Q 0.419 -0.397 0.444 -0.402 Z"/></g><g transform="translate(15.876530086956521,9.432528747826089) scale(0.7,0.7)"><path fill="rgb(0,0,0)" stroke="none" paint-order="stroke fill markers" d=" M 0.352 -0.352 Q 0.403 -0.341 0.4395 -0.3205 Q 0.47600000000000003 -0.3 0.4935 -0.2745 Q 0.511 -0.249 0.5185 -0.2265 Q 0.526 -0.20400000000000001 0.526 -0.18 Q 0.526 -0.10300000000000001 0.4625 -0.046 Q 0.399 0.011 0.274 0.011 Q 0.176 0.011 0.112 -0.0305 Q 0.048 -0.07200000000000001 0.048 -0.139 Q 0.048 -0.176 0.07 -0.1965 Q 0.092 -0.217 0.125 -0.217 Q 0.158 -0.217 0.1795 -0.196 Q 0.201 -0.17500000000000002 0.201 -0.14100000000000001 Q 0.201 -0.082 0.14300000000000002 -0.066 Q 0.197 -0.032 0.269 -0.032 Q 0.299 -0.032 0.32 -0.044 Q 0.341 -0.056 0.35100000000000003 -0.07050000000000001 Q 0.361 -0.085 0.3665 -0.109 Q 0.372 -0.133 0.3725 -0.1465 Q 0.373 -0.16 0.373 -0.181 Q 0.373 -0.203 0.3725 -0.2165 Q 0.372 -0.23 0.366 -0.2545 Q 0.36 -0.279 0.34950000000000003 -0.293 Q 0.339 -0.307 0.317 -0.3185 Q 0.295 -0.33 0.264 -0.33 L 0.22 -0.33 Q 0.209 -0.33 0.20450000000000002 -0.3305 Q 0.2 -0.331 0.196 -0.335 Q 0.192 -0.339 0.192 -0.34800000000000003 Q 0.192 -0.364 0.20400000000000001 -0.365 Q 0.215 -0.367 0.252 -0.369 Q 0.277 -0.37 0.296 -0.3805 Q 0.315 -0.391 0.3255 -0.40800000000000003 Q 0.336 -0.425 0.343 -0.441 Q 0.35000000000000003 -0.457 0.353 -0.47600000000000003 Q 0.356 -0.495 0.3565 -0.5035000000000001 Q 0.357 -0.512 0.357 -0.519 Q 0.357 -0.616 0.271 -0.616 Q 0.20600000000000002 -0.616 0.161 -0.58 Q 0.219 -0.5660000000000001 0.219 -0.51 Q 0.219 -0.481 0.2 -0.461 Q 0.181 -0.441 0.149 -0.441 Q 0.12 -0.441 0.1 -0.4605 Q 0.08 -0.48 0.08 -0.511 Q 0.08 -0.5720000000000001 0.1345 -0.6135 Q 0.189 -0.655 0.277 -0.655 Q 0.379 -0.655 0.4365 -0.6155 Q 0.494 -0.5760000000000001 0.494 -0.516 Q 0.494 -0.456 0.452 -0.41300000000000003 Q 0.41000000000000003 -0.37 0.352 -0.352 Z"/></g><g transform="translate(16.27902798695652,8.869636747826089) scale(0.7,0.7)"><path fill="rgb(0,0,0)" stroke="none" paint-order="stroke fill markers" d=" M 0.666 -0.677 L 0.685 -0.452 L 0.66 -0.452 Q 0.65 -0.5660000000000001 0.628 -0.6 L 0.628 -0.601 Q 0.603 -0.639 0.525 -0.645 Q 0.506 -0.646 0.48 -0.646 Q 0.434 -0.646 0.423 -0.644 Q 0.406 -0.631 0.405 -0.606 L 0.405 -0.079 Q 0.405 -0.051000000000000004 0.417 -0.043000000000000003 Q 0.436 -0.031 0.51 -0.031 L 0.55 -0.031 L 0.55 0 Q 0.509 -0.003 0.36 -0.003 Q 0.212 -0.003 0.171 0 L 0.171 -0.031 L 0.211 -0.031 Q 0.299 -0.031 0.311 -0.05 Q 0.314 -0.055 0.315 -0.062 Q 0.316 -0.067 0.316 -0.079 L 0.316 -0.606 Q 0.316 -0.634 0.307 -0.64 L 0.306 -0.64 L 0.305 -0.641 L 0.304 -0.641 Q 0.301 -0.643 0.295 -0.644 Q 0.28500000000000003 -0.646 0.241 -0.646 Q 0.139 -0.646 0.106 -0.616 L 0.10200000000000001 -0.612 L 0.101 -0.611 L 0.101 -0.611 Q 0.074 -0.581 0.064 -0.481 Q 0.062 -0.46900000000000003 0.061 -0.452 L 0.036000000000000004 -0.452 L 0.055 -0.677 L 0.666 -0.677 Z"/></g></g><path fill="rgb(102,204,255)" stroke="none" paint-order="stroke fill markers" d=" M 324.5281743050339 119.00300525920368 C 324.5281743050339 121.21214425852685 322.73731330435703 123.00300525920368 320.5281743050339 123.00300525920368 C 318.3190353057107 123.00300525920368 316.5281743050339 121.21214425852685 316.5281743050339 119.00300525920368 C 316.5281743050339 116.7938662598805 318.3190353057107 115.00300525920368 320.5281743050339 115.00300525920368 C 322.73731330435703 115.00300525920368 324.5281743050339 116.7938662598805 324.5281743050339 119.00300525920368 Z" fill-opacity="1"/><path fill="none" stroke="rgb(0,0,0)" paint-order="fill stroke markers" d=" M 324.5281743050339 119.00300525920368 C 324.5281743050339 121.21214425852685 322.73731330435703 123.00300525920368 320.5281743050339 123.00300525920368 C 318.3190353057107 123.00300525920368 316.5281743050339 121.21214425852685 316.5281743050339 119.00300525920368 C 316.5281743050339 116.7938662598805 318.3190353057107 115.00300525920368 320.5281743050339 115.00300525920368 C 322.73731330435703 115.00300525920368 324.5281743050339 116.7938662598805 324.5281743050339 119.00300525920368 Z" stroke-opacity="1" stroke-linecap="round" stroke-linejoin="round" stroke-miterlimit="10"/></g></g></svg>