<svg version="1.1" xmlns="http://www.w3.org/2000/svg" xmlns:xlink="http://www.w3.org/1999/xlink" width="786" height="362"><defs><clipPath id="iaSkyTxROEQJ"><path fill="none" stroke="none" d=" M 0 0 L 786 0 L 786 362 L 0 362 L 0 0 Z"/></clipPath></defs><g transform="scale(1,1)" clip-path="url(#iaSkyTxROEQJ)"><g><path fill="rgb(255,102,153)" stroke="none" paint-order="stroke fill markers" fill-rule="evenodd" d=" M 131.00000000000006 279.99999999999994 L 231 279.99999999999994 L 231 180 L 131.00000000000006 179.99999999999997 Z" fill-opacity="0.09803921568627451"/><path fill="none" stroke="rgb(255,102,153)" paint-order="fill stroke markers" d=" M 131.00000000000006 279.99999999999994 L 231 279.99999999999994 L 231 180 L 131.00000000000006 179.99999999999997 Z" stroke-opacity="0.6980392156862745" stroke-linecap="round" stroke-linejoin="round" stroke-miterlimit="10" stroke-width="1.5"/><path fill="rgb(102,204,255)" stroke="none" paint-order="stroke fill markers" fill-rule="evenodd" d=" M 503.9999999999999 115.99999999999999 L 603.9999999999998 115.99999999999999 L 603.9999999999998 16.00000000000003 L 503.9999999999999 16 Z" fill-opacity="0.09803921568627451"/><path fill="none" stroke="rgb(102,204,255)" paint-order="fill stroke markers" d=" M 503.9999999999999 115.99999999999999 L 603.9999999999998 115.99999999999999 L 603.9999999999998 16.00000000000003 L 503.9999999999999 16 Z" stroke-opacity="0.6980392156862745" stroke-linecap="round" stroke-linejoin="round" stroke-miterlimit="10" stroke-width="1.5"/><path fill="rgb(255,102,153)" stroke="none" paint-order="stroke fill markers" fill-rule="evenodd" d=" M 104.00000000000006 115.99999999999999 L 210 133 L 210 68.50000000000001 L 104.00000000000006 51.5 Z" fill-opacity="0.09803921568627451"/><path fill="rgb(255,102,153)" stroke="none" paint-order="stroke fill markers" fill-rule="evenodd" d=" M 210 133 L 257.5 85.5 L 257.5 21.00000000000003 L 210 68.50000000000001 Z" fill-opacity="0.09803921568627451"/><path fill="rgb(255,102,153)" stroke="none" paint-order="stroke fill markers" fill-rule="evenodd" d=" M 104.00000000000006 51.5 L 210 68.50000000000001 L 257.5 21.00000000000003 L 151.50000000000006 4.000000000000028 Z" fill-opacity="0.09803921568627451"/><path fill="rgb(102,204,255)" stroke="none" paint-order="stroke fill markers" fill-rule="evenodd" d=" M 528.4999999999999 167.99999999999997 L 480.9999999999999 215.49999999999997 L 586.9999999999999 296.99999999999994 L 634.4999999999998 249.49999999999994 Z" fill-opacity="0.09803921568627451"/><path fill="none" stroke="rgb(160,160,160)" paint-order="fill stroke markers" d=" M 104.00000000000006 115.99999999999999 L 151.50000000000006 68.50000000000001" stroke-opacity="0.6980392156862745" stroke-linejoin="round" stroke-miterlimit="10" stroke-width="1.5" stroke-dasharray="9.5,8"/><path fill="none" stroke="rgb(160,160,160)" paint-order="fill stroke markers" d=" M 151.50000000000006 68.50000000000001 L 257.5 85.5" stroke-opacity="0.6980392156862745" stroke-linejoin="round" stroke-miterlimit="10" stroke-width="1.5" stroke-dasharray="9.5,8"/><path fill="none" stroke="rgb(160,160,160)" paint-order="fill stroke markers" d=" M 151.50000000000006 4.000000000000028 L 151.50000000000006 68.50000000000001" stroke-opacity="0.6980392156862745" stroke-linejoin="round" stroke-miterlimit="10" stroke-width="1.5" stroke-dasharray="9.5,8"/><path fill="none" stroke="rgb(255,102,153)" paint-order="fill stroke markers" d=" M 131.00000000000006 279.99999999999994 L 231 279.99999999999994" stroke-opacity="0.6980392156862745" stroke-linecap="round" stroke-linejoin="round" stroke-miterlimit="10" stroke-width="1.5"/><path fill="none" stroke="rgb(255,102,153)" paint-order="fill stroke markers" d=" M 231 279.99999999999994 L 231 180" stroke-opacity="0.6980392156862745" stroke-linecap="round" stroke-linejoin="round" stroke-miterlimit="10" stroke-width="1.5"/><path fill="none" stroke="rgb(255,102,153)" paint-order="fill stroke markers" d=" M 231 180 L 131.00000000000006 179.99999999999997" stroke-opacity="0.6980392156862745" stroke-linecap="round" stroke-linejoin="round" stroke-miterlimit="10" stroke-width="1.5"/><path fill="none" stroke="rgb(255,102,153)" paint-order="fill stroke markers" d=" M 131.00000000000006 179.99999999999997 L 131.00000000000006 279.99999999999994" stroke-opacity="0.6980392156862745" stroke-linecap="round" stroke-linejoin="round" stroke-miterlimit="10" stroke-width="1.5"/><path fill="none" stroke="rgb(0,0,0)" paint-order="fill stroke markers" d=" M 480.9999999999999 215.49999999999997 L 480.9999999999999 279.99999999999994" stroke-opacity="0.6980392156862745" stroke-linecap="round" stroke-linejoin="round" stroke-miterlimit="10" stroke-width="1.5"/><path fill="none" stroke="rgb(0,0,0)" paint-order="fill stroke markers" d=" M 480.9999999999999 279.99999999999994 L 586.9999999999999 296.99999999999994" stroke-opacity="0.6980392156862745" stroke-linecap="round" stroke-linejoin="round" stroke-miterlimit="10" stroke-width="1.5"/><path fill="none" stroke="rgb(0,0,0)" paint-order="fill stroke markers" d=" M 586.9999999999999 296.99999999999994 L 586.9999999999999 232.49999999999994" stroke-opacity="0.6980392156862745" stroke-linecap="round" stroke-linejoin="round" stroke-miterlimit="10" stroke-width="1.5"/><path fill="none" stroke="rgb(0,0,0)" paint-order="fill stroke markers" d=" M 586.9999999999999 232.49999999999994 L 480.9999999999999 215.49999999999997" stroke-opacity="0.6980392156862745" stroke-linecap="round" stroke-linejoin="round" stroke-miterlimit="10" stroke-width="1.5"/><path fill="none" stroke="rgb(0,0,0)" paint-order="fill stroke markers" d=" M 480.9999999999999 215.49999999999997 L 528.4999999999999 167.99999999999997" stroke-opacity="0.6980392156862745" stroke-linecap="round" stroke-linejoin="round" stroke-miterlimit="10" stroke-width="1.5"/><path fill="none" stroke="rgb(0,0,0)" paint-order="fill stroke markers" d=" M 528.4999999999999 167.99999999999997 L 634.4999999999998 184.99999999999997" stroke-opacity="0.6980392156862745" stroke-linecap="round" stroke-linejoin="round" stroke-miterlimit="10" stroke-width="1.5"/><path fill="none" stroke="rgb(0,0,0)" paint-order="fill stroke markers" d=" M 634.4999999999998 184.99999999999997 L 586.9999999999999 232.49999999999994" stroke-opacity="0.6980392156862745" stroke-linecap="round" stroke-linejoin="round" stroke-miterlimit="10" stroke-width="1.5"/><path fill="none" stroke="rgb(0,0,0)" paint-order="fill stroke markers" d=" M 634.4999999999998 184.99999999999997 L 634.4999999999998 249.49999999999994" stroke-opacity="0.6980392156862745" stroke-linecap="round" stroke-linejoin="round" stroke-miterlimit="10" stroke-width="1.5"/><path fill="none" stroke="rgb(0,0,0)" paint-order="fill stroke markers" d=" M 634.4999999999998 249.49999999999994 L 586.9999999999999 296.99999999999994" stroke-opacity="0.6980392156862745" stroke-linecap="round" stroke-linejoin="round" stroke-miterlimit="10" stroke-width="1.5"/><path fill="none" stroke="rgb(0,0,0)" paint-order="fill stroke markers" d=" M 528.4999999999999 167.99999999999997 L 528.4999999999999 232.49999999999994" stroke-opacity="0.6980392156862745" stroke-linejoin="round" stroke-miterlimit="10" stroke-width="1.5" stroke-dasharray="9.5,8"/><path fill="none" stroke="rgb(0,0,0)" paint-order="fill stroke markers" d=" M 528.4999999999999 232.49999999999994 L 480.9999999999999 279.99999999999994" stroke-opacity="0.6980392156862745" stroke-linejoin="round" stroke-miterlimit="10" stroke-width="1.5" stroke-dasharray="9.5,8"/><path fill="none" stroke="rgb(0,0,0)" paint-order="fill stroke markers" d=" M 528.4999999999999 232.49999999999994 L 634.4999999999998 249.49999999999994" stroke-opacity="0.6980392156862745" stroke-linejoin="round" stroke-miterlimit="10" stroke-width="1.5" stroke-dasharray="9.5,8"/><path fill="none" stroke="rgb(102,204,255)" paint-order="fill stroke markers" d=" M 503.9999999999999 115.99999999999999 L 603.9999999999998 115.99999999999999" stroke-opacity="0.6980392156862745" stroke-linecap="round" stroke-linejoin="round" stroke-miterlimit="10" stroke-width="1.5"/><path fill="none" stroke="rgb(102,204,255)" paint-order="fill stroke markers" d=" M 603.9999999999998 115.99999999999999 L 603.9999999999998 16.00000000000003" stroke-opacity="0.6980392156862745" stroke-linecap="round" stroke-linejoin="round" stroke-miterlimit="10" stroke-width="1.5"/><path fill="none" stroke="rgb(102,204,255)" paint-order="fill stroke markers" d=" M 603.9999999999998 16.00000000000003 L 503.9999999999999 16" stroke-opacity="0.6980392156862745" stroke-linecap="round" stroke-linejoin="round" stroke-miterlimit="10" stroke-width="1.5"/><path fill="none" stroke="rgb(102,204,255)" paint-order="fill stroke markers" d=" M 503.9999999999999 16 L 503.9999999999999 115.99999999999999" stroke-opacity="0.6980392156862745" stroke-linecap="round" stroke-linejoin="round" stroke-miterlimit="10" stroke-width="1.5"/><path fill="none" stroke="rgb(255,102,153)" paint-order="fill stroke markers" d=" M 104.00000000000006 115.99999999999999 L 210 133" stroke-opacity="0.6980392156862745" stroke-linecap="round" stroke-linejoin="round" stroke-miterlimit="10" stroke-width="1.5"/><path fill="none" stroke="rgb(255,102,153)" paint-order="fill stroke markers" d=" M 210 133 L 210 68.50000000000001" stroke-opacity="0.6980392156862745" stroke-linecap="round" stroke-linejoin="round" stroke-miterlimit="10" stroke-width="1.5"/><path fill="none" stroke="rgb(255,102,153)" paint-order="fill stroke markers" d=" M 104.00000000000006 51.5 L 104.00000000000006 115.99999999999999" stroke-opacity="0.6980392156862745" stroke-linecap="round" stroke-linejoin="round" stroke-miterlimit="10" stroke-width="1.5"/><path fill="none" stroke="rgb(255,102,153)" paint-order="fill stroke markers" d=" M 210 133 L 257.5 85.5" stroke-opacity="0.6980392156862745" stroke-linecap="round" stroke-linejoin="round" stroke-miterlimit="10" stroke-width="1.5"/><path fill="none" stroke="rgb(255,102,153)" paint-order="fill stroke markers" d=" M 257.5 85.5 L 257.5 21.00000000000003" stroke-opacity="0.6980392156862745" stroke-linecap="round" stroke-linejoin="round" stroke-miterlimit="10" stroke-width="1.5"/><path fill="none" stroke="rgb(255,102,153)" paint-order="fill stroke markers" d=" M 257.5 21.00000000000003 L 210 68.50000000000001" stroke-opacity="0.6980392156862745" stroke-linecap="round" stroke-linejoin="round" stroke-miterlimit="10" stroke-width="1.5"/><path fill="none" stroke="rgb(255,102,153)" paint-order="fill stroke markers" d=" M 104.00000000000006 51.5 L 210 68.50000000000001" stroke-opacity="0.6980392156862745" stroke-linecap="round" stroke-linejoin="round" stroke-miterlimit="10" stroke-width="1.5"/><path fill="none" stroke="rgb(255,102,153)" paint-order="fill stroke markers" d=" M 257.5 21.00000000000003 L 151.50000000000006 4.000000000000028" stroke-opacity="0.6980392156862745" stroke-linecap="round" stroke-linejoin="round" stroke-miterlimit="10" stroke-width="1.5"/><path fill="none" stroke="rgb(255,102,153)" paint-order="fill stroke markers" d=" M 151.50000000000006 4.000000000000028 L 104.00000000000006 51.5" stroke-opacity="0.6980392156862745" stroke-linecap="round" stroke-linejoin="round" stroke-miterlimit="10" stroke-width="1.5"/><path fill="none" stroke="rgb(102,204,255)" paint-order="fill stroke markers" d=" M 528.4999999999999 167.99999999999997 L 480.9999999999999 215.49999999999997" stroke-opacity="0.6980392156862745" stroke-linecap="round" stroke-linejoin="round" stroke-miterlimit="10" stroke-width="1.5"/><path fill="none" stroke="rgb(102,204,255)" paint-order="fill stroke markers" d=" M 480.9999999999999 215.49999999999997 L 586.9999999999999 296.99999999999994" stroke-opacity="0.6980392156862745" stroke-linecap="round" stroke-linejoin="round" stroke-miterlimit="10" stroke-width="1.5"/><path fill="none" stroke="rgb(102,204,255)" paint-order="fill stroke markers" d=" M 586.9999999999999 296.99999999999994 L 634.4999999999998 249.49999999999994" stroke-opacity="0.6980392156862745" stroke-linecap="round" stroke-linejoin="round" stroke-miterlimit="10" stroke-width="1.5"/><path fill="none" stroke="rgb(102,204,255)" paint-order="fill stroke markers" d=" M 634.4999999999998 249.49999999999994 L 528.4999999999999 167.99999999999997" stroke-opacity="0.6980392156862745" stroke-linejoin="round" stroke-miterlimit="10" stroke-width="1.5" stroke-dasharray="9.5,8"/><g transform="scale(21,21) translate(7.238095238095238,16.38095238095238) scale(0.1,0.1)"><text fill="rgb(0,0,0)" stroke="none" font-family="Serif" font-size="10px" font-style="normal" font-weight="normal" text-decoration="normal" x="0" y="0" text-anchor="start" dominant-baseline="alphabetic">定义域</text><g transform="scale(10,10) translate(-7.238095238095238,-16.38095238095238)"/></g><g transform="scale(21,21) translate(26.095238095238095,16.57142857142857) scale(0.1,0.1)"><text fill="rgb(0,0,0)" stroke="none" font-family="Serif" font-size="10px" font-style="normal" font-weight="normal" text-decoration="normal" x="0" y="0" text-anchor="start" dominant-baseline="alphabetic">值域</text><g transform="scale(10,10) translate(-26.095238095238095,-16.57142857142857)"/></g><g transform="scale(28,28) translate(11.911111444444444,5.526808205738523) scale(1.399999976158142,1.399999976158142)"><g transform="translate(0.7,0) scale(0.7,0.7)"><path fill="rgb(0,0,0)" stroke="none" paint-order="stroke fill markers" d=" M 0.179 -0.115 L 0.527 -0.6990000000000001 Q 0.537 -0.715 0.553 -0.716 Q 0.5680000000000001 -0.716 0.5700000000000001 -0.706 Q 0.5710000000000001 -0.7030000000000001 0.5720000000000001 -0.6920000000000001 L 0.633 -0.067 Q 0.636 -0.042 0.645 -0.037 L 0.646 -0.037 L 0.646 -0.037 L 0.646 -0.037 L 0.646 -0.037 L 0.646 -0.036000000000000004 Q 0.658 -0.031 0.6980000000000001 -0.031 Q 0.72 -0.031 0.721 -0.02 Q 0.721 0 0.7030000000000001 0 L 0.591 -0.003 L 0.59 -0.003 L 0.466 0 L 0.465 0 Q 0.451 0 0.451 -0.011 Q 0.459 -0.03 0.47500000000000003 -0.031 Q 0.547 -0.031 0.547 -0.064 Q 0.547 -0.063 0.531 -0.231 L 0.28 -0.231 L 0.20400000000000001 -0.10300000000000001 Q 0.19 -0.078 0.19 -0.066 Q 0.19 -0.035 0.23700000000000002 -0.031 Q 0.253 -0.031 0.253 -0.019 Q 0.253 0 0.234 0 L 0.138 -0.003 L 0.134 -0.003 L 0.05 0 L 0.048 0 Q 0.035 0 0.035 -0.011 Q 0.035 -0.029 0.05 -0.03 L 0.05 -0.031 L 0.056 -0.031 Q 0.11900000000000001 -0.035 0.159 -0.085 Q 0.169 -0.098 0.179 -0.115 M 0.299 -0.262 L 0.528 -0.262 L 0.496 -0.592 L 0.299 -0.262 Z"/></g><g transform="scale(0.7142857264499277,0.7142857264499277) translate(-11.911111444444444,-5.526808205738523)"><g transform="translate(10.861111444444445,6.004794650182967)"><path fill="rgb(0,0,0)" stroke="none" paint-order="stroke fill markers" d=" M 0.661 -0.23 L 0.116 -0.23 Q 0.084 -0.23 0.083 -0.25 Q 0.083 -0.27 0.116 -0.27 L 0.661 -0.27 Q 0.6930000000000001 -0.27 0.6940000000000001 -0.25 Q 0.6940000000000001 -0.23 0.661 -0.23 Z"/></g><g transform="translate(11.416669555555556,6.004794650182967)"><path fill="rgb(0,0,0)" stroke="none" paint-order="stroke fill markers" d=" M 0.661 -0.23 L 0.116 -0.23 Q 0.084 -0.23 0.083 -0.25 Q 0.083 -0.27 0.116 -0.27 L 0.661 -0.27 Q 0.6930000000000001 -0.27 0.6940000000000001 -0.25 Q 0.6940000000000001 -0.23 0.661 -0.23 Z"/></g><g transform="translate(11.972227666666667,6.004794650182967)"><path fill="rgb(0,0,0)" stroke="none" paint-order="stroke fill markers" d=" M 0.661 -0.23 L 0.116 -0.23 Q 0.084 -0.23 0.083 -0.25 Q 0.083 -0.27 0.116 -0.27 L 0.661 -0.27 Q 0.6930000000000001 -0.27 0.6940000000000001 -0.25 Q 0.6940000000000001 -0.23 0.661 -0.23 Z"/></g><g transform="translate(12.527785777777778,6.004794650182967)"><path fill="rgb(0,0,0)" stroke="none" paint-order="stroke fill markers" d=" M 0.661 -0.23 L 0.116 -0.23 Q 0.084 -0.23 0.083 -0.25 Q 0.083 -0.27 0.116 -0.27 L 0.661 -0.27 Q 0.6930000000000001 -0.27 0.6940000000000001 -0.25 Q 0.6940000000000001 -0.23 0.661 -0.23 Z"/></g><g transform="translate(13.083343888888889,6.004794650182967)"><path fill="rgb(0,0,0)" stroke="none" paint-order="stroke fill markers" d=" M 0.661 -0.23 L 0.116 -0.23 Q 0.084 -0.23 0.083 -0.25 Q 0.083 -0.27 0.116 -0.27 L 0.661 -0.27 Q 0.6930000000000001 -0.27 0.6940000000000001 -0.25 Q 0.6940000000000001 -0.23 0.661 -0.23 Z"/></g><g transform="translate(13.638902,6.004794650182967)"><path fill="rgb(0,0,0)" stroke="none" paint-order="stroke fill markers" d=" M 0.661 -0.23 L 0.116 -0.23 Q 0.084 -0.23 0.083 -0.25 Q 0.083 -0.27 0.116 -0.27 L 0.661 -0.27 Q 0.6930000000000001 -0.27 0.6940000000000001 -0.25 Q 0.6940000000000001 -0.23 0.661 -0.23 Z"/></g><g transform="translate(14.19446011111111,6.004794650182967)"><path fill="rgb(0,0,0)" stroke="none" paint-order="stroke fill markers" d=" M 0.661 -0.23 L 0.116 -0.23 Q 0.084 -0.23 0.083 -0.25 Q 0.083 -0.27 0.116 -0.27 L 0.661 -0.27 Q 0.6930000000000001 -0.27 0.6940000000000001 -0.25 Q 0.6940000000000001 -0.23 0.661 -0.23 Z"/></g><g transform="translate(14.731687525283599,6.004794650182967) scale(0.16497577752028011,1)"><g transform="translate(0,0)"><path fill="rgb(0,0,0)" stroke="none" paint-order="stroke fill markers" d=" M 0.661 -0.23 L 0.116 -0.23 Q 0.084 -0.23 0.083 -0.25 Q 0.083 -0.27 0.116 -0.27 L 0.661 -0.27 Q 0.6930000000000001 -0.27 0.6940000000000001 -0.25 Q 0.6940000000000001 -0.23 0.661 -0.23 Z"/></g><g transform="scale(6.061495905828188,1) translate(-14.731687525283599,-6.004794650182967)"><g transform="translate(14.730560409116032,6.004794650182967)"><path fill="rgb(0,0,0)" stroke="none" paint-order="stroke fill markers" d=" M 0.858 -0.23 L 0.089 -0.23 Q 0.059000000000000004 -0.23500000000000001 0.056 -0.25 Q 0.056 -0.27 0.089 -0.27 L 0.858 -0.27 Q 0.79 -0.32 0.756 -0.399 L 0.755 -0.4 Q 0.75 -0.41300000000000003 0.75 -0.41600000000000004 Q 0.75 -0.428 0.765 -0.428 Q 0.776 -0.428 0.782 -0.41400000000000003 Q 0.8260000000000001 -0.315 0.918 -0.268 L 0.919 -0.268 L 0.92 -0.267 L 0.921 -0.267 Q 0.928 -0.263 0.935 -0.26 Q 0.9390000000000001 -0.26 0.9420000000000001 -0.25 Q 0.9420000000000001 -0.243 0.933 -0.23800000000000002 Q 0.931 -0.23800000000000002 0.928 -0.23600000000000002 Q 0.8290000000000001 -0.189 0.783 -0.08600000000000001 L 0.783 -0.08600000000000001 Q 0.782 -0.085 0.781 -0.082 Q 0.776 -0.07200000000000001 0.765 -0.07200000000000001 Q 0.75 -0.07200000000000001 0.75 -0.084 Q 0.75 -0.099 0.779 -0.14400000000000002 Q 0.812 -0.196 0.858 -0.23 Z"/></g></g></g></g></g></g></g></svg>