<svg version="1.1" xmlns="http://www.w3.org/2000/svg" xmlns:xlink="http://www.w3.org/1999/xlink" width="441" height="421"><defs><clipPath id="JTTLCvuxJxPc"><path fill="none" stroke="none" d=" M 0 0 L 441 0 L 441 421 L 0 421 L 0 0 Z"/></clipPath></defs><g transform="scale(1,1)" clip-path="url(#JTTLCvuxJxPc)"><g><path fill="rgb(102,204,255)" stroke="none" paint-order="stroke fill markers" fill-rule="evenodd" d=" M 26.000000000000455 262.99999999999983 L 126.00000000000034 262.99999999999983 L 126.00000000000034 162.99999999999994 L 26.000000000000455 162.99999999999994 Z" fill-opacity="0.09803921568627451"/><path fill="none" stroke="rgb(102,204,255)" paint-order="fill stroke markers" d=" M 26.000000000000455 262.99999999999983 L 126.00000000000034 262.99999999999983 L 126.00000000000034 162.99999999999994 L 26.000000000000455 162.99999999999994 Z" stroke-opacity="0.6980392156862745" stroke-linecap="round" stroke-linejoin="round" stroke-miterlimit="10" stroke-width="1.5"/><path fill="rgb(255,102,153)" stroke="none" paint-order="stroke fill markers" fill-rule="evenodd" d=" M 298.00000000000006 80.00000000000004 L 373 80.00000000000004 L 373 5.000000000000114 L 298.00000000000006 5.000000000000114 Z" fill-opacity="0.09803921568627451"/><path fill="none" stroke="rgb(255,102,153)" paint-order="fill stroke markers" d=" M 298.00000000000006 80.00000000000004 L 373 80.00000000000004 L 373 5.000000000000114 L 298.00000000000006 5.000000000000114 Z" stroke-opacity="0.6980392156862745" stroke-linecap="round" stroke-linejoin="round" stroke-miterlimit="10" stroke-width="1.5"/><path fill="none" stroke="rgb(102,204,255)" paint-order="fill stroke markers" d=" M 26.000000000000455 262.99999999999983 L 126.00000000000034 262.99999999999983" stroke-opacity="0.6980392156862745" stroke-linecap="round" stroke-linejoin="round" stroke-miterlimit="10" stroke-width="1.5"/><path fill="none" stroke="rgb(102,204,255)" paint-order="fill stroke markers" d=" M 126.00000000000034 262.99999999999983 L 126.00000000000034 162.99999999999994" stroke-opacity="0.6980392156862745" stroke-linecap="round" stroke-linejoin="round" stroke-miterlimit="10" stroke-width="1.5"/><path fill="none" stroke="rgb(102,204,255)" paint-order="fill stroke markers" d=" M 126.00000000000034 162.99999999999994 L 26.000000000000455 162.99999999999994" stroke-opacity="0.6980392156862745" stroke-linecap="round" stroke-linejoin="round" stroke-miterlimit="10" stroke-width="1.5"/><path fill="none" stroke="rgb(102,204,255)" paint-order="fill stroke markers" d=" M 26.000000000000455 162.99999999999994 L 26.000000000000455 262.99999999999983" stroke-opacity="0.6980392156862745" stroke-linecap="round" stroke-linejoin="round" stroke-miterlimit="10" stroke-width="1.5"/><path fill="none" stroke="rgb(255,102,153)" paint-order="fill stroke markers" d=" M 298.00000000000006 80.00000000000004 L 373 80.00000000000004" stroke-opacity="0.6980392156862745" stroke-linecap="round" stroke-linejoin="round" stroke-miterlimit="10" stroke-width="1.5"/><path fill="none" stroke="rgb(255,102,153)" paint-order="fill stroke markers" d=" M 373 80.00000000000004 L 373 5.000000000000114" stroke-opacity="0.6980392156862745" stroke-linecap="round" stroke-linejoin="round" stroke-miterlimit="10" stroke-width="1.5"/><path fill="none" stroke="rgb(255,102,153)" paint-order="fill stroke markers" d=" M 373 5.000000000000114 L 298.00000000000006 5.000000000000114" stroke-opacity="0.6980392156862745" stroke-linecap="round" stroke-linejoin="round" stroke-miterlimit="10" stroke-width="1.5"/><path fill="none" stroke="rgb(255,102,153)" paint-order="fill stroke markers" d=" M 298.00000000000006 5.000000000000114 L 298.00000000000006 80.00000000000004" stroke-opacity="0.6980392156862745" stroke-linecap="round" stroke-linejoin="round" stroke-miterlimit="10" stroke-width="1.5"/><path fill="none" stroke="rgb(255,153,0)" paint-order="fill stroke markers" d=" M 302.0000000000001 259.9999999999999 L 377 184.99999999999994" stroke-opacity="0.6980392156862745" stroke-linecap="round" stroke-linejoin="round" stroke-miterlimit="10" stroke-width="2.5"/><path fill="rgb(102,204,255)" stroke="none" paint-order="stroke fill markers" d=" M 29.000000000000455 262.99999999999983 C 29.000000000000455 264.6568542494922 27.656854249492834 265.99999999999983 26.000000000000455 265.99999999999983 C 24.343145750508075 265.99999999999983 23.000000000000455 264.6568542494922 23.000000000000455 262.99999999999983 C 23.000000000000455 261.34314575050746 24.343145750508075 259.99999999999983 26.000000000000455 259.99999999999983 C 27.656854249492834 259.99999999999983 29.000000000000455 261.34314575050746 29.000000000000455 262.99999999999983 Z" fill-opacity="1"/><path fill="none" stroke="rgb(0,0,0)" paint-order="fill stroke markers" d=" M 29.000000000000455 262.99999999999983 C 29.000000000000455 264.6568542494922 27.656854249492834 265.99999999999983 26.000000000000455 265.99999999999983 C 24.343145750508075 265.99999999999983 23.000000000000455 264.6568542494922 23.000000000000455 262.99999999999983 C 23.000000000000455 261.34314575050746 24.343145750508075 259.99999999999983 26.000000000000455 259.99999999999983 C 27.656854249492834 259.99999999999983 29.000000000000455 261.34314575050746 29.000000000000455 262.99999999999983 Z" stroke-opacity="1" stroke-linecap="round" stroke-linejoin="round" stroke-miterlimit="10"/><path fill="rgb(102,204,255)" stroke="none" paint-order="stroke fill markers" d=" M 129.00000000000034 262.99999999999983 C 129.00000000000034 264.6568542494922 127.65685424949272 265.99999999999983 126.00000000000034 265.99999999999983 C 124.34314575050796 265.99999999999983 123.00000000000034 264.6568542494922 123.00000000000034 262.99999999999983 C 123.00000000000034 261.34314575050746 124.34314575050796 259.99999999999983 126.00000000000034 259.99999999999983 C 127.65685424949272 259.99999999999983 129.00000000000034 261.34314575050746 129.00000000000034 262.99999999999983 Z" fill-opacity="1"/><path fill="none" stroke="rgb(0,0,0)" paint-order="fill stroke markers" d=" M 129.00000000000034 262.99999999999983 C 129.00000000000034 264.6568542494922 127.65685424949272 265.99999999999983 126.00000000000034 265.99999999999983 C 124.34314575050796 265.99999999999983 123.00000000000034 264.6568542494922 123.00000000000034 262.99999999999983 C 123.00000000000034 261.34314575050746 124.34314575050796 259.99999999999983 126.00000000000034 259.99999999999983 C 127.65685424949272 259.99999999999983 129.00000000000034 261.34314575050746 129.00000000000034 262.99999999999983 Z" stroke-opacity="1" stroke-linecap="round" stroke-linejoin="round" stroke-miterlimit="10"/><path fill="rgb(102,204,255)" stroke="none" paint-order="stroke fill markers" d=" M 129.00000000000034 162.99999999999994 C 129.00000000000034 164.6568542494923 127.65685424949272 165.99999999999994 126.00000000000034 165.99999999999994 C 124.34314575050796 165.99999999999994 123.00000000000034 164.6568542494923 123.00000000000034 162.99999999999994 C 123.00000000000034 161.34314575050757 124.34314575050796 159.99999999999994 126.00000000000034 159.99999999999994 C 127.65685424949272 159.99999999999994 129.00000000000034 161.34314575050757 129.00000000000034 162.99999999999994 Z" fill-opacity="1"/><path fill="none" stroke="rgb(0,0,0)" paint-order="fill stroke markers" d=" M 129.00000000000034 162.99999999999994 C 129.00000000000034 164.6568542494923 127.65685424949272 165.99999999999994 126.00000000000034 165.99999999999994 C 124.34314575050796 165.99999999999994 123.00000000000034 164.6568542494923 123.00000000000034 162.99999999999994 C 123.00000000000034 161.34314575050757 124.34314575050796 159.99999999999994 126.00000000000034 159.99999999999994 C 127.65685424949272 159.99999999999994 129.00000000000034 161.34314575050757 129.00000000000034 162.99999999999994 Z" stroke-opacity="1" stroke-linecap="round" stroke-linejoin="round" stroke-miterlimit="10"/><path fill="rgb(102,204,255)" stroke="none" paint-order="stroke fill markers" d=" M 29.000000000000455 162.99999999999994 C 29.000000000000455 164.6568542494923 27.656854249492834 165.99999999999994 26.000000000000455 165.99999999999994 C 24.343145750508075 165.99999999999994 23.000000000000455 164.6568542494923 23.000000000000455 162.99999999999994 C 23.000000000000455 161.34314575050757 24.343145750508075 159.99999999999994 26.000000000000455 159.99999999999994 C 27.656854249492834 159.99999999999994 29.000000000000455 161.34314575050757 29.000000000000455 162.99999999999994 Z" fill-opacity="1"/><path fill="none" stroke="rgb(0,0,0)" paint-order="fill stroke markers" d=" M 29.000000000000455 162.99999999999994 C 29.000000000000455 164.6568542494923 27.656854249492834 165.99999999999994 26.000000000000455 165.99999999999994 C 24.343145750508075 165.99999999999994 23.000000000000455 164.6568542494923 23.000000000000455 162.99999999999994 C 23.000000000000455 161.34314575050757 24.343145750508075 159.99999999999994 26.000000000000455 159.99999999999994 C 27.656854249492834 159.99999999999994 29.000000000000455 161.34314575050757 29.000000000000455 162.99999999999994 Z" stroke-opacity="1" stroke-linecap="round" stroke-linejoin="round" stroke-miterlimit="10"/><path fill="rgb(255,102,153)" stroke="none" paint-order="stroke fill markers" d=" M 301.00000000000006 80.00000000000004 C 301.00000000000006 81.65685424949243 299.6568542494924 83.00000000000004 298.00000000000006 83.00000000000004 C 296.3431457505077 83.00000000000004 295.00000000000006 81.65685424949243 295.00000000000006 80.00000000000004 C 295.00000000000006 78.34314575050766 296.3431457505077 77.00000000000004 298.00000000000006 77.00000000000004 C 299.6568542494924 77.00000000000004 301.00000000000006 78.34314575050766 301.00000000000006 80.00000000000004 Z" fill-opacity="1"/><path fill="none" stroke="rgb(0,0,0)" paint-order="fill stroke markers" d=" M 301.00000000000006 80.00000000000004 C 301.00000000000006 81.65685424949243 299.6568542494924 83.00000000000004 298.00000000000006 83.00000000000004 C 296.3431457505077 83.00000000000004 295.00000000000006 81.65685424949243 295.00000000000006 80.00000000000004 C 295.00000000000006 78.34314575050766 296.3431457505077 77.00000000000004 298.00000000000006 77.00000000000004 C 299.6568542494924 77.00000000000004 301.00000000000006 78.34314575050766 301.00000000000006 80.00000000000004 Z" stroke-opacity="1" stroke-linecap="round" stroke-linejoin="round" stroke-miterlimit="10"/><path fill="rgb(255,102,153)" stroke="none" paint-order="stroke fill markers" d=" M 376 80.00000000000004 C 376 81.65685424949243 374.65685424949237 83.00000000000004 373 83.00000000000004 C 371.34314575050763 83.00000000000004 370 81.65685424949243 370 80.00000000000004 C 370 78.34314575050766 371.34314575050763 77.00000000000004 373 77.00000000000004 C 374.65685424949237 77.00000000000004 376 78.34314575050766 376 80.00000000000004 Z" fill-opacity="1"/><path fill="none" stroke="rgb(0,0,0)" paint-order="fill stroke markers" d=" M 376 80.00000000000004 C 376 81.65685424949243 374.65685424949237 83.00000000000004 373 83.00000000000004 C 371.34314575050763 83.00000000000004 370 81.65685424949243 370 80.00000000000004 C 370 78.34314575050766 371.34314575050763 77.00000000000004 373 77.00000000000004 C 374.65685424949237 77.00000000000004 376 78.34314575050766 376 80.00000000000004 Z" stroke-opacity="1" stroke-linecap="round" stroke-linejoin="round" stroke-miterlimit="10"/><path fill="rgb(255,102,153)" stroke="none" paint-order="stroke fill markers" d=" M 376 5.000000000000114 C 376 6.656854249492493 374.65685424949237 8.000000000000114 373 8.000000000000114 C 371.34314575050763 8.000000000000114 370 6.656854249492493 370 5.000000000000114 C 370 3.3431457505077335 371.34314575050763 2.0000000000001137 373 2.0000000000001137 C 374.65685424949237 2.0000000000001137 376 3.3431457505077335 376 5.000000000000114 Z" fill-opacity="1"/><path fill="none" stroke="rgb(0,0,0)" paint-order="fill stroke markers" d=" M 376 5.000000000000114 C 376 6.656854249492493 374.65685424949237 8.000000000000114 373 8.000000000000114 C 371.34314575050763 8.000000000000114 370 6.656854249492493 370 5.000000000000114 C 370 3.3431457505077335 371.34314575050763 2.0000000000001137 373 2.0000000000001137 C 374.65685424949237 2.0000000000001137 376 3.3431457505077335 376 5.000000000000114 Z" stroke-opacity="1" stroke-linecap="round" stroke-linejoin="round" stroke-miterlimit="10"/><path fill="rgb(255,102,153)" stroke="none" paint-order="stroke fill markers" d=" M 301.00000000000006 5.000000000000114 C 301.00000000000006 6.656854249492493 299.6568542494924 8.000000000000114 298.00000000000006 8.000000000000114 C 296.3431457505077 8.000000000000114 295.00000000000006 6.656854249492493 295.00000000000006 5.000000000000114 C 295.00000000000006 3.3431457505077335 296.3431457505077 2.0000000000001137 298.00000000000006 2.0000000000001137 C 299.6568542494924 2.0000000000001137 301.00000000000006 3.3431457505077335 301.00000000000006 5.000000000000114 Z" fill-opacity="1"/><path fill="none" stroke="rgb(0,0,0)" paint-order="fill stroke markers" d=" M 301.00000000000006 5.000000000000114 C 301.00000000000006 6.656854249492493 299.6568542494924 8.000000000000114 298.00000000000006 8.000000000000114 C 296.3431457505077 8.000000000000114 295.00000000000006 6.656854249492493 295.00000000000006 5.000000000000114 C 295.00000000000006 3.3431457505077335 296.3431457505077 2.0000000000001137 298.00000000000006 2.0000000000001137 C 299.6568542494924 2.0000000000001137 301.00000000000006 3.3431457505077335 301.00000000000006 5.000000000000114 Z" stroke-opacity="1" stroke-linecap="round" stroke-linejoin="round" stroke-miterlimit="10"/><path fill="rgb(255,153,0)" stroke="none" paint-order="stroke fill markers" d=" M 305.0000000000001 259.9999999999999 C 305.0000000000001 261.65685424949226 303.6568542494925 262.9999999999999 302.0000000000001 262.9999999999999 C 300.34314575050774 262.9999999999999 299.0000000000001 261.65685424949226 299.0000000000001 259.9999999999999 C 299.0000000000001 258.3431457505075 300.34314575050774 256.9999999999999 302.0000000000001 256.9999999999999 C 303.6568542494925 256.9999999999999 305.0000000000001 258.3431457505075 305.0000000000001 259.9999999999999 Z" fill-opacity="1"/><path fill="none" stroke="rgb(0,0,0)" paint-order="fill stroke markers" d=" M 305.0000000000001 259.9999999999999 C 305.0000000000001 261.65685424949226 303.6568542494925 262.9999999999999 302.0000000000001 262.9999999999999 C 300.34314575050774 262.9999999999999 299.0000000000001 261.65685424949226 299.0000000000001 259.9999999999999 C 299.0000000000001 258.3431457505075 300.34314575050774 256.9999999999999 302.0000000000001 256.9999999999999 C 303.6568542494925 256.9999999999999 305.0000000000001 258.3431457505075 305.0000000000001 259.9999999999999 Z" stroke-opacity="1" stroke-linecap="round" stroke-linejoin="round" stroke-miterlimit="10"/><path fill="rgb(255,153,0)" stroke="none" paint-order="stroke fill markers" d=" M 380 184.99999999999994 C 380 186.6568542494923 378.65685424949237 187.99999999999994 377 187.99999999999994 C 375.34314575050763 187.99999999999994 374 186.6568542494923 374 184.99999999999994 C 374 183.34314575050757 375.34314575050763 181.99999999999994 377 181.99999999999994 C 378.65685424949237 181.99999999999994 380 183.34314575050757 380 184.99999999999994 Z" fill-opacity="1"/><path fill="none" stroke="rgb(0,0,0)" paint-order="fill stroke markers" d=" M 380 184.99999999999994 C 380 186.6568542494923 378.65685424949237 187.99999999999994 377 187.99999999999994 C 375.34314575050763 187.99999999999994 374 186.6568542494923 374 184.99999999999994 C 374 183.34314575050757 375.34314575050763 181.99999999999994 377 181.99999999999994 C 378.65685424949237 181.99999999999994 380 183.34314575050757 380 184.99999999999994 Z" stroke-opacity="1" stroke-linecap="round" stroke-linejoin="round" stroke-miterlimit="10"/><path fill="rgb(204,102,255)" stroke="none" paint-order="stroke fill markers" d=" M 340.00000000000006 386.9999999999998 C 340.00000000000006 389.20913899932293 338.2091389993232 390.9999999999998 336.00000000000006 390.9999999999998 C 333.7908610006769 390.9999999999998 332.00000000000006 389.20913899932293 332.00000000000006 386.9999999999998 C 332.00000000000006 384.7908610006766 333.7908610006769 382.9999999999998 336.00000000000006 382.9999999999998 C 338.2091389993232 382.9999999999998 340.00000000000006 384.7908610006766 340.00000000000006 386.9999999999998 Z" fill-opacity="1"/><path fill="none" stroke="rgb(0,0,0)" paint-order="fill stroke markers" d=" M 340.00000000000006 386.9999999999998 C 340.00000000000006 389.20913899932293 338.2091389993232 390.9999999999998 336.00000000000006 390.9999999999998 C 333.7908610006769 390.9999999999998 332.00000000000006 389.20913899932293 332.00000000000006 386.9999999999998 C 332.00000000000006 384.7908610006766 333.7908610006769 382.9999999999998 336.00000000000006 382.9999999999998 C 338.2091389993232 382.9999999999998 340.00000000000006 384.7908610006766 340.00000000000006 386.9999999999998 Z" stroke-opacity="1" stroke-linecap="round" stroke-linejoin="round" stroke-miterlimit="10"/><g transform="scale(21,21) translate(15.523809523809524,6.904761904761905) scale(0.1,0.1)"><text fill="rgb(0,0,0)" stroke="none" font-family="Serif" font-size="10px" font-style="normal" font-weight="normal" text-decoration="normal" x="0" y="0" text-anchor="start" dominant-baseline="alphabetic">或</text><g transform="scale(10,10) translate(-15.523809523809524,-6.904761904761905)"/></g><g transform="scale(21,21) translate(15.380952380952381,15.619047619047619) scale(0.1,0.1)"><text fill="rgb(0,0,0)" stroke="none" font-family="Serif" font-size="10px" font-style="normal" font-weight="normal" text-decoration="normal" x="0" y="0" text-anchor="start" dominant-baseline="alphabetic">或</text><g transform="scale(10,10) translate(-15.380952380952381,-15.619047619047619)"/></g><g transform="scale(21,21) translate(8.06587334920635,10.09909353528657) scale(1.7999999523162842,1.7999999523162842)"><g transform="translate(0.7,0) scale(0.7,0.7)"><path fill="rgb(0,0,0)" stroke="none" paint-order="stroke fill markers" d=" M 0.179 -0.115 L 0.527 -0.6990000000000001 Q 0.537 -0.715 0.553 -0.716 Q 0.5680000000000001 -0.716 0.5700000000000001 -0.706 Q 0.5710000000000001 -0.7030000000000001 0.5720000000000001 -0.6920000000000001 L 0.633 -0.067 Q 0.636 -0.042 0.645 -0.037 L 0.646 -0.037 L 0.646 -0.037 L 0.646 -0.037 L 0.646 -0.037 L 0.646 -0.036000000000000004 Q 0.658 -0.031 0.6980000000000001 -0.031 Q 0.72 -0.031 0.721 -0.02 Q 0.721 0 0.7030000000000001 0 L 0.591 -0.003 L 0.59 -0.003 L 0.466 0 L 0.465 0 Q 0.451 0 0.451 -0.011 Q 0.459 -0.03 0.47500000000000003 -0.031 Q 0.547 -0.031 0.547 -0.064 Q 0.547 -0.063 0.531 -0.231 L 0.28 -0.231 L 0.20400000000000001 -0.10300000000000001 Q 0.19 -0.078 0.19 -0.066 Q 0.19 -0.035 0.23700000000000002 -0.031 Q 0.253 -0.031 0.253 -0.019 Q 0.253 0 0.234 0 L 0.138 -0.003 L 0.134 -0.003 L 0.05 0 L 0.048 0 Q 0.035 0 0.035 -0.011 Q 0.035 -0.029 0.05 -0.03 L 0.05 -0.031 L 0.056 -0.031 Q 0.11900000000000001 -0.035 0.159 -0.085 Q 0.169 -0.098 0.179 -0.115 M 0.299 -0.262 L 0.528 -0.262 L 0.496 -0.592 L 0.299 -0.262 Z"/></g><g transform="scale(0.5555555702727522,0.5555555702727522) translate(-8.06587334920635,-10.09909353528657)"><g transform="translate(7.01587334920635,10.577079979731016)"><path fill="rgb(0,0,0)" stroke="none" paint-order="stroke fill markers" d=" M 0.661 -0.23 L 0.116 -0.23 Q 0.084 -0.23 0.083 -0.25 Q 0.083 -0.27 0.116 -0.27 L 0.661 -0.27 Q 0.6930000000000001 -0.27 0.6940000000000001 -0.25 Q 0.6940000000000001 -0.23 0.661 -0.23 Z"/></g><g transform="translate(7.571431460317461,10.577079979731016)"><path fill="rgb(0,0,0)" stroke="none" paint-order="stroke fill markers" d=" M 0.661 -0.23 L 0.116 -0.23 Q 0.084 -0.23 0.083 -0.25 Q 0.083 -0.27 0.116 -0.27 L 0.661 -0.27 Q 0.6930000000000001 -0.27 0.6940000000000001 -0.25 Q 0.6940000000000001 -0.23 0.661 -0.23 Z"/></g><g transform="translate(8.126989571428572,10.577079979731016)"><path fill="rgb(0,0,0)" stroke="none" paint-order="stroke fill markers" d=" M 0.661 -0.23 L 0.116 -0.23 Q 0.084 -0.23 0.083 -0.25 Q 0.083 -0.27 0.116 -0.27 L 0.661 -0.27 Q 0.6930000000000001 -0.27 0.6940000000000001 -0.25 Q 0.6940000000000001 -0.23 0.661 -0.23 Z"/></g><g transform="translate(8.682547682539683,10.577079979731016)"><path fill="rgb(0,0,0)" stroke="none" paint-order="stroke fill markers" d=" M 0.661 -0.23 L 0.116 -0.23 Q 0.084 -0.23 0.083 -0.25 Q 0.083 -0.27 0.116 -0.27 L 0.661 -0.27 Q 0.6930000000000001 -0.27 0.6940000000000001 -0.25 Q 0.6940000000000001 -0.23 0.661 -0.23 Z"/></g><g transform="translate(9.238105793650794,10.577079979731016)"><path fill="rgb(0,0,0)" stroke="none" paint-order="stroke fill markers" d=" M 0.661 -0.23 L 0.116 -0.23 Q 0.084 -0.23 0.083 -0.25 Q 0.083 -0.27 0.116 -0.27 L 0.661 -0.27 Q 0.6930000000000001 -0.27 0.6940000000000001 -0.25 Q 0.6940000000000001 -0.23 0.661 -0.23 Z"/></g><g transform="translate(9.793663904761905,10.577079979731016)"><path fill="rgb(0,0,0)" stroke="none" paint-order="stroke fill markers" d=" M 0.661 -0.23 L 0.116 -0.23 Q 0.084 -0.23 0.083 -0.25 Q 0.083 -0.27 0.116 -0.27 L 0.661 -0.27 Q 0.6930000000000001 -0.27 0.6940000000000001 -0.25 Q 0.6940000000000001 -0.23 0.661 -0.23 Z"/></g><g transform="translate(10.349222015873016,10.577079979731016)"><path fill="rgb(0,0,0)" stroke="none" paint-order="stroke fill markers" d=" M 0.661 -0.23 L 0.116 -0.23 Q 0.084 -0.23 0.083 -0.25 Q 0.083 -0.27 0.116 -0.27 L 0.661 -0.27 Q 0.6930000000000001 -0.27 0.6940000000000001 -0.25 Q 0.6940000000000001 -0.23 0.661 -0.23 Z"/></g><g transform="translate(10.904780126984127,10.577079979731016)"><path fill="rgb(0,0,0)" stroke="none" paint-order="stroke fill markers" d=" M 0.661 -0.23 L 0.116 -0.23 Q 0.084 -0.23 0.083 -0.25 Q 0.083 -0.27 0.116 -0.27 L 0.661 -0.27 Q 0.6930000000000001 -0.27 0.6940000000000001 -0.25 Q 0.6940000000000001 -0.23 0.661 -0.23 Z"/></g><g transform="translate(11.411372947168434,10.577079979731016) scale(0.4406862962823471,1)"><g transform="translate(0,0)"><path fill="rgb(0,0,0)" stroke="none" paint-order="stroke fill markers" d=" M 0.661 -0.23 L 0.116 -0.23 Q 0.084 -0.23 0.083 -0.25 Q 0.083 -0.27 0.116 -0.27 L 0.661 -0.27 Q 0.6930000000000001 -0.27 0.6940000000000001 -0.25 Q 0.6940000000000001 -0.23 0.661 -0.23 Z"/></g><g transform="scale(2.269187874540354,1) translate(-11.411372947168434,-10.577079979731016)"><g transform="translate(11.594053640005967,10.577079979731016)"><path fill="rgb(0,0,0)" stroke="none" paint-order="stroke fill markers" d=" M 0.858 -0.23 L 0.089 -0.23 Q 0.059000000000000004 -0.23500000000000001 0.056 -0.25 Q 0.056 -0.27 0.089 -0.27 L 0.858 -0.27 Q 0.79 -0.32 0.756 -0.399 L 0.755 -0.4 Q 0.75 -0.41300000000000003 0.75 -0.41600000000000004 Q 0.75 -0.428 0.765 -0.428 Q 0.776 -0.428 0.782 -0.41400000000000003 Q 0.8260000000000001 -0.315 0.918 -0.268 L 0.919 -0.268 L 0.92 -0.267 L 0.921 -0.267 Q 0.928 -0.263 0.935 -0.26 Q 0.9390000000000001 -0.26 0.9420000000000001 -0.25 Q 0.9420000000000001 -0.243 0.933 -0.23800000000000002 Q 0.931 -0.23800000000000002 0.928 -0.23600000000000002 Q 0.8290000000000001 -0.189 0.783 -0.08600000000000001 L 0.783 -0.08600000000000001 Q 0.782 -0.085 0.781 -0.082 Q 0.776 -0.07200000000000001 0.765 -0.07200000000000001 Q 0.75 -0.07200000000000001 0.75 -0.084 Q 0.75 -0.099 0.779 -0.14400000000000002 Q 0.812 -0.196 0.858 -0.23 Z"/></g></g></g></g></g><g transform="scale(21,21)"><g transform="translate(18.904761904761905,2.428571428571429)"><path fill="rgb(0,0,0)" stroke="none" paint-order="stroke fill markers" d=" M 0.449 -0.17400000000000002 L 0.449 -0.17400000000000002 L 0.421 0 L 0.05 0 Q 0.05 -0.025 0.056 -0.032 L 0.061 -0.037 L 0.253 -0.251 Q 0.358 -0.369 0.358 -0.47200000000000003 Q 0.358 -0.561 0.304 -0.607 L 0.303 -0.608 L 0.302 -0.608 Q 0.27 -0.635 0.224 -0.635 Q 0.152 -0.635 0.109 -0.5730000000000001 Q 0.097 -0.555 0.089 -0.533 Q 0.092 -0.534 0.10200000000000001 -0.534 Q 0.14200000000000002 -0.534 0.153 -0.498 L 0.153 -0.497 Q 0.155 -0.49 0.155 -0.482 Q 0.155 -0.442 0.117 -0.431 Q 0.109 -0.429 0.10300000000000001 -0.429 Q 0.066 -0.429 0.054 -0.46 Q 0.05 -0.47100000000000003 0.05 -0.485 Q 0.05 -0.562 0.109 -0.617 Q 0.162 -0.666 0.23700000000000002 -0.666 Q 0.34700000000000003 -0.666 0.40800000000000003 -0.592 Q 0.443 -0.549 0.448 -0.49 Q 0.449 -0.481 0.449 -0.47200000000000003 Q 0.449 -0.399 0.394 -0.333 Q 0.365 -0.299 0.304 -0.243 L 0.243 -0.189 L 0.233 -0.18 L 0.127 -0.077 L 0.307 -0.077 Q 0.395 -0.077 0.402 -0.085 Q 0.41200000000000003 -0.099 0.424 -0.17400000000000002 L 0.449 -0.17400000000000002 Z"/></g><g transform="translate(19.404763904761904,2.428571428571429) scale(0.1,0.1)"><text fill="rgb(0,0,0)" stroke="none" font-family="Serif" font-size="10px" font-style="normal" font-weight="normal" text-decoration="normal" x="0" y="0" text-anchor="start" dominant-baseline="alphabetic">维</text><g transform="scale(10,10) translate(-19.404763904761904,-2.428571428571429)"/></g></g><g transform="scale(21,21)"><g transform="translate(18.904761904761905,10.571428571428571)"><path fill="rgb(0,0,0)" stroke="none" paint-order="stroke fill markers" d=" M 0.294 -0.64 L 0.294 -0.079 Q 0.294 -0.049 0.306 -0.041 Q 0.323 -0.031 0.387 -0.031 L 0.419 -0.031 L 0.419 0 Q 0.384 -0.003 0.257 -0.003 Q 0.13 -0.003 0.095 0 L 0.095 -0.031 L 0.127 -0.031 Q 0.20400000000000001 -0.031 0.215 -0.049 L 0.216 -0.05 Q 0.22 -0.058 0.22 -0.079 L 0.22 -0.597 Q 0.168 -0.5710000000000001 0.089 -0.5710000000000001 L 0.089 -0.602 Q 0.209 -0.602 0.271 -0.666 Q 0.29 -0.666 0.293 -0.659 L 0.293 -0.659 L 0.293 -0.658 Q 0.294 -0.655 0.294 -0.64 Z"/></g><g transform="translate(19.404763904761904,10.571428571428571) scale(0.1,0.1)"><text fill="rgb(0,0,0)" stroke="none" font-family="Serif" font-size="10px" font-style="normal" font-weight="normal" text-decoration="normal" x="0" y="0" text-anchor="start" dominant-baseline="alphabetic">维</text><g transform="scale(10,10) translate(-19.404763904761904,-10.571428571428571)"/></g></g><g transform="scale(21,21)"><g transform="translate(18.904761904761905,18.904761904761905)"><path fill="rgb(0,0,0)" stroke="none" paint-order="stroke fill markers" d=" M 0.46 -0.32 Q 0.46 -0.17400000000000002 0.423 -0.094 Q 0.364 0.018000000000000002 0.249 0.022 Q 0.158 0.022 0.10300000000000001 -0.05 Q 0.092 -0.063 0.084 -0.079 Q 0.039 -0.162 0.039 -0.32 Q 0.039 -0.467 0.076 -0.547 Q 0.126 -0.659 0.23800000000000002 -0.666 L 0.25 -0.666 Q 0.339 -0.666 0.395 -0.595 L 0.395 -0.594 Q 0.40900000000000003 -0.5760000000000001 0.42 -0.554 Q 0.46 -0.46900000000000003 0.46 -0.32 M 0.249 0 L 0.249 0 Q 0.312 0 0.34600000000000003 -0.061 Q 0.36 -0.088 0.366 -0.125 Q 0.377 -0.189 0.377 -0.332 Q 0.377 -0.47100000000000003 0.367 -0.527 Q 0.34900000000000003 -0.622 0.275 -0.641 Q 0.262 -0.644 0.249 -0.644 Q 0.179 -0.644 0.147 -0.5740000000000001 Q 0.136 -0.55 0.13 -0.516 Q 0.122 -0.462 0.122 -0.332 Q 0.122 -0.181 0.133 -0.121 Q 0.151 -0.025 0.221 -0.004 Q 0.23500000000000001 0 0.249 0 Z"/></g><g transform="translate(19.404763904761904,18.904761904761905) scale(0.1,0.1)"><text fill="rgb(0,0,0)" stroke="none" font-family="Serif" font-size="10px" font-style="normal" font-weight="normal" text-decoration="normal" x="0" y="0" text-anchor="start" dominant-baseline="alphabetic">维</text><g transform="scale(10,10) translate(-19.404763904761904,-18.904761904761905)"/></g></g><g transform="scale(21,21)"><g transform="translate(3.2857142857142856,13.726867057142858)"><path fill="rgb(0,100,0)" stroke="none" paint-order="stroke fill markers" d=" M 0.268 -0.314 L 0.268 -0.314 L 0.268 -0.092 Q 0.268 -0.051000000000000004 0.28 -0.043000000000000003 Q 0.291 -0.035 0.329 -0.035 Q 0.357 -0.035 0.357 -0.018000000000000002 Q 0.34800000000000003 -0.001 0.324 0 L 0.05 0 Q 0.02 0 0.017 -0.012 Q 0.016 -0.015 0.016 -0.018000000000000002 Q 0.016 -0.035 0.043000000000000003 -0.035 Q 0.09 -0.035 0.099 -0.049 Q 0.10400000000000001 -0.057 0.105 -0.077 L 0.105 -0.092 L 0.105 -0.593 Q 0.105 -0.635 0.092 -0.643 Q 0.081 -0.65 0.043000000000000003 -0.65 Q 0.016 -0.65 0.016 -0.667 Q 0.024 -0.684 0.05 -0.685 L 0.364 -0.685 Q 0.494 -0.685 0.5690000000000001 -0.625 L 0.5700000000000001 -0.624 Q 0.611 -0.59 0.624 -0.541 Q 0.629 -0.521 0.629 -0.498 Q 0.629 -0.369 0.489 -0.333 Q 0.47300000000000003 -0.328 0.454 -0.325 Q 0.495 -0.259 0.578 -0.14100000000000001 Q 0.652 -0.043000000000000003 0.6880000000000001 -0.035 Q 0.7030000000000001 -0.032 0.7030000000000001 -0.018000000000000002 Q 0.6940000000000001 -0.001 0.67 0 L 0.532 0 Q 0.508 0 0.503 -0.007 Q 0.501 -0.009000000000000001 0.499 -0.012 L 0.454 -0.082 L 0.304 -0.314 L 0.268 -0.314 M 0.461 -0.363 L 0.461 -0.363 Q 0.583 -0.385 0.593 -0.47800000000000004 Q 0.594 -0.488 0.594 -0.498 Q 0.594 -0.595 0.482 -0.631 Q 0.468 -0.636 0.454 -0.639 Q 0.492 -0.59 0.492 -0.497 Q 0.492 -0.404 0.461 -0.363 M 0.268 -0.596 L 0.268 -0.34900000000000003 Q 0.385 -0.34900000000000003 0.42 -0.373 Q 0.429 -0.38 0.436 -0.39 Q 0.457 -0.419 0.457 -0.497 Q 0.457 -0.613 0.395 -0.639 Q 0.37 -0.65 0.33 -0.65 Q 0.271 -0.65 0.268 -0.607 L 0.268 -0.596 M 0.132 -0.035 L 0.241 -0.035 Q 0.233 -0.053 0.233 -0.09 L 0.233 -0.599 Q 0.233 -0.634 0.246 -0.65 L 0.132 -0.65 Q 0.14 -0.632 0.14 -0.595 L 0.14 -0.09 Q 0.14 -0.053 0.132 -0.035 M 0.34500000000000003 -0.314 L 0.525 -0.035 L 0.622 -0.035 Q 0.548 -0.109 0.41600000000000004 -0.32 Q 0.386 -0.316 0.364 -0.316 Q 0.359 -0.316 0.34500000000000003 -0.314 Z"/></g><g transform="translate(4.007938285714285,13.308253657142858) scale(0.7,0.7)"><path fill="rgb(0,100,0)" stroke="none" paint-order="stroke fill markers" d=" M 0.449 -0.17400000000000002 L 0.449 -0.17400000000000002 L 0.421 0 L 0.05 0 Q 0.05 -0.025 0.056 -0.032 L 0.061 -0.037 L 0.253 -0.251 Q 0.358 -0.369 0.358 -0.47200000000000003 Q 0.358 -0.561 0.304 -0.607 L 0.303 -0.608 L 0.302 -0.608 Q 0.27 -0.635 0.224 -0.635 Q 0.152 -0.635 0.109 -0.5730000000000001 Q 0.097 -0.555 0.089 -0.533 Q 0.092 -0.534 0.10200000000000001 -0.534 Q 0.14200000000000002 -0.534 0.153 -0.498 L 0.153 -0.497 Q 0.155 -0.49 0.155 -0.482 Q 0.155 -0.442 0.117 -0.431 Q 0.109 -0.429 0.10300000000000001 -0.429 Q 0.066 -0.429 0.054 -0.46 Q 0.05 -0.47100000000000003 0.05 -0.485 Q 0.05 -0.562 0.109 -0.617 Q 0.162 -0.666 0.23700000000000002 -0.666 Q 0.34700000000000003 -0.666 0.40800000000000003 -0.592 Q 0.443 -0.549 0.448 -0.49 Q 0.449 -0.481 0.449 -0.47200000000000003 Q 0.449 -0.399 0.394 -0.333 Q 0.365 -0.299 0.304 -0.243 L 0.243 -0.189 L 0.233 -0.18 L 0.127 -0.077 L 0.307 -0.077 Q 0.395 -0.077 0.402 -0.085 Q 0.41200000000000003 -0.099 0.424 -0.17400000000000002 L 0.449 -0.17400000000000002 Z"/></g></g></g></g></svg>