<svg version="1.1" xmlns="http://www.w3.org/2000/svg" xmlns:xlink="http://www.w3.org/1999/xlink" width="587" height="272"><defs><clipPath id="eLTfJIqpOpqL"><path fill="none" stroke="none" d=" M 0 0 L 587 0 L 587 272 L 0 272 L 0 0 Z"/></clipPath></defs><g transform="scale(1,1)" clip-path="url(#eLTfJIqpOpqL)"><g><path fill="none" stroke="rgb(0,0,0)" paint-order="fill stroke markers" d=" M 73 185 L 67.79084668186175 187.75419488331713 L 65.83765529451307 189.15961893250005 L 64.30325229593109 190.58239065111061 L 63.17603634183047 192.02135748745735 L 62.761498086371546 192.74655390237822 L 62.444406087925984 193.47536688984883 L 62.223310178458064 194.20765238090772 L 62.09676018993224 194.94326630659353 L 62.063305954312796 195.68206459794476 L 62.12149730356413 196.42390318600002 L 62.26988406965046 197.16863800179786 L 62.5070160845363 197.91612497637686 L 63.24171518856343 199.41877912603255 L 64.31399327136035 200.93071308327566 L 65.71224898864176 202.45077429641472 L 69.44028794951686 205.51066828361485 L 74.33302131690658 208.58924067410123 L 80.29763833652873 211.67727105434219 L 87.24132825410118 214.76553901080604 L 95.07128031534177 217.84482412996113 L 103.69468376596825 220.9059059982757 L 113.01872785169854 223.9395642022181 L 122.95060181825039 226.93657832825667 L 128.1154716461212 228.41846248283335 L 133.39749491134165 229.88772796285969 L 138.78507026962637 231.34322221664422 L 144.2665963766902 232.78379269249547 L 149.8304718882477 234.20828683872202 L 155.46509546001374 235.61555210363235 L 161.15886574770303 237.00443593553504 L 166.9001814070303 238.37378578273862 L 172.67744109371012 239.72244909355163 L 178.47904346345751 241.0492733162826 L 184.29338717198698 242.3531058992401 L 190.10887087501322 243.63279429073265 L 195.9138932282512 244.88718593906873 L 201.6968528874154 246.11512829255696 L 207.44614850822074 247.31546879950588 L 213.1501787463818 248.487054908224 L 218.7973422576134 249.62873406701982 L 224.37603769763027 250.73935372420198 L 229.874663722147 251.81776132807892 L 235.28161898687847 252.86280432695924 L 240.5853021475394 253.87333016915142 L 245.77411185984448 254.84818630296408 L 255.76203700605288 256.6863266833892 L 265.2112240480992 258.37009464746427 L 274.16532837025665 259.89513261969677 L 282.6735610029016 261.25728099463635 L 290.7851329764104 262.4523801668326 L 298.54925532115993 263.47627053083517 L 306.0151390675261 264.32479248119364 L 313.2319952458856 264.9937864124576 L 320.24903488661505 265.4790927191768 L 327.1154690200906 265.7765517959007 L 333.8805086766888 265.882004037179 L 340.59336488678616 265.7912898375613 L 347.3032486807591 265.5002495915972 L 354.0593710889837 265.00472369383635 L 360.9109431418371 264.30055253882836 L 367.90717586969544 263.38357652112285 L 375.097280302935 262.24963603526936 L 382.5304674719319 260.89457147581766 L 390.2546703981198 259.3144332159971 L 398.27264788014566 257.5126938178421 L 406.5309583928336 255.50205963621238 L 414.97264415729484 253.29581475143442 L 423.54074739464164 250.90724324383484 L 432.1783103259857 248.3496291937399 L 440.8283751724401 245.63625668147643 L 449.4339841551159 242.7804097873708 L 457.93817949512487 239.7953725917494 L 466.28400341358076 236.6944291749389 L 474.4144981315937 233.49086361726543 L 482.27270587027704 230.19795999905614 L 489.8016688507421 226.82900240063668 L 496.94442929410087 223.39727490233423 L 503.6440294214656 219.91606158447502 L 509.8435114539497 216.39864652738544 L 515.4859176126623 212.8583138113921 L 520.5142901187182 209.30834751682121 L 524.8716711932274 205.76203172399994 L 528.5011030573033 202.23265051325416 L 531.3456279320571 198.73348796491078 L 533.3484256757508 195.27781238192205 L 534.0214271454663 193.56985464343865 L 534.4783870095846 191.8759448260198 L 534.7232974571946 190.19646967913397 L 534.7601506773864 188.5318159522495 L 534.5929388592531 186.88237039483488 L 534.22565419188 185.24851975635852 L 532.9068350657842 182.02915023409415 L 531.9632849852419 180.44440484924294 L 530.835630811822 178.8768013812037 L 528.0439789427135 175.79456719343457 L 524.5638169711804 172.78554166653413 L 520.4270824099425 169.85281879624966 L 515.6657127717247 166.99949257832847 L 510.3116455692452 164.22865700851804 L 504.39681831522813 161.54340608256558 L 497.9531685223919 158.9468337962185 L 491.01263370345913 156.44203414522406 L 483.607151371151 154.03210112532963 L 475.7686590381902 151.72012873228257 L 467.52909421729584 149.50921096183032 L 458.92039442119113 147.40244180972002 L 449.97449716259666 145.40291527169916 L 440.7233399542329 143.51372534351495 L 431.19886030882327 141.73796602091488 L 421.43299573908826 140.0787312996462 L 411.45768375774685 138.53911517545626 L 406.4014654604501 137.81513096093693 L 401.3048618775239 137.1222116440925 L 396.1718651980556 136.46074397439142 L 391.0064676111384 135.8311147013021 L 385.81266130586107 135.23371057429296 L 380.5944384713124 134.66891834283243 L 375.355791296587 134.13712475638897 L 370.1007119707692 133.63871656443098 L 364.83319268295224 133.17408051642673 L 359.55722562222786 132.74360336184486 L 354.2768029776847 132.34767185015366 L 348.9959169384103 131.98667273082168 L 343.71855969349764 131.6609927533171 L 338.4487234320356 131.3710186671085 L 333.19040034311865 131.1171372216642 L 327.94758261582854 130.8997351664528 L 322.72426243926543 130.71919925094255 L 317.5244320025082 130.57591622460197 L 312.3520834946571 130.4702728368994 L 307.21120910480084 130.40265583730323 L 302.10580102202545 130.37345197528205 L 297.03985143541973 130.38304800030397 L 287.04229650709254 130.52018670935172 L 277.2504818325384 130.81716596019348 L 267.6951531155357 131.27681697969427 L 258.38591522144975 131.89730988309412 L 249.31422143648058 132.67281274300797 L 240.47093544874195 133.59736363803057 L 231.8469209463427 134.66500064675876 L 223.4330416173958 135.86976184778655 L 215.22016115001148 137.2056853197115 L 207.19914323229926 138.66680914112766 L 199.3608515523701 140.2471713906312 L 191.69614979833483 141.9408101468182 L 184.19590165830584 143.74176348828377 L 176.85097082039334 145.6440694936244 L 169.6522209727076 147.64176624143377 L 162.5905158033587 149.7288918103091 L 155.65671900045902 151.89948427884548 L 148.84169425211815 154.14758172563867 L 142.13630524644833 156.4672222292845 L 135.5314156715591 158.8524438683787 L 129.01788921556067 161.29728472151643 L 122.58658956656609 163.79578286729344 L 116.22838041268562 166.34197638430481 L 109.93412544202795 168.92990335114706 L 103.69468834270617 171.55360184641668 L 97.50093280282908 174.20710994870734 L 91.34372251050974 176.88446573661554 L 85.21392115385834 179.57970728873636 L 79.1023924209851 182.2868726836663 L 73.00000000000023 185.00000000000045 Z" stroke-opacity="0.6980392156862745" stroke-linecap="round" stroke-linejoin="round" stroke-miterlimit="10" stroke-width="1.5"/><path fill="rgb(0,0,0)" stroke="none" paint-order="stroke fill markers" fill-rule="evenodd" d=" M 73 185 L 67.79084668186175 187.75419488331713 L 65.83765529451307 189.15961893250005 L 64.30325229593109 190.58239065111061 L 63.17603634183047 192.02135748745735 L 62.761498086371546 192.74655390237822 L 62.444406087925984 193.47536688984883 L 62.223310178458064 194.20765238090772 L 62.09676018993224 194.94326630659353 L 62.063305954312796 195.68206459794476 L 62.12149730356413 196.42390318600002 L 62.26988406965046 197.16863800179786 L 62.5070160845363 197.91612497637686 L 63.24171518856343 199.41877912603255 L 64.31399327136035 200.93071308327566 L 65.71224898864176 202.45077429641472 L 69.44028794951686 205.51066828361485 L 74.33302131690658 208.58924067410123 L 80.29763833652873 211.67727105434219 L 87.24132825410118 214.76553901080604 L 95.07128031534177 217.84482412996113 L 103.69468376596825 220.9059059982757 L 113.01872785169854 223.9395642022181 L 122.95060181825039 226.93657832825667 L 128.1154716461212 228.41846248283335 L 133.39749491134165 229.88772796285969 L 138.78507026962637 231.34322221664422 L 144.2665963766902 232.78379269249547 L 149.8304718882477 234.20828683872202 L 155.46509546001374 235.61555210363235 L 161.15886574770303 237.00443593553504 L 166.9001814070303 238.37378578273862 L 172.67744109371012 239.72244909355163 L 178.47904346345751 241.0492733162826 L 184.29338717198698 242.3531058992401 L 190.10887087501322 243.63279429073265 L 195.9138932282512 244.88718593906873 L 201.6968528874154 246.11512829255696 L 207.44614850822074 247.31546879950588 L 213.1501787463818 248.487054908224 L 218.7973422576134 249.62873406701982 L 224.37603769763027 250.73935372420198 L 229.874663722147 251.81776132807892 L 235.28161898687847 252.86280432695924 L 240.5853021475394 253.87333016915142 L 245.77411185984448 254.84818630296408 L 255.76203700605288 256.6863266833892 L 265.2112240480992 258.37009464746427 L 274.16532837025665 259.89513261969677 L 282.6735610029016 261.25728099463635 L 290.7851329764104 262.4523801668326 L 298.54925532115993 263.47627053083517 L 306.0151390675261 264.32479248119364 L 313.2319952458856 264.9937864124576 L 320.24903488661505 265.4790927191768 L 327.1154690200906 265.7765517959007 L 333.8805086766888 265.882004037179 L 340.59336488678616 265.7912898375613 L 347.3032486807591 265.5002495915972 L 354.0593710889837 265.00472369383635 L 360.9109431418371 264.30055253882836 L 367.90717586969544 263.38357652112285 L 375.097280302935 262.24963603526936 L 382.5304674719319 260.89457147581766 L 390.2546703981198 259.3144332159971 L 398.27264788014566 257.5126938178421 L 406.5309583928336 255.50205963621238 L 414.97264415729484 253.29581475143442 L 423.54074739464164 250.90724324383484 L 432.1783103259857 248.3496291937399 L 440.8283751724401 245.63625668147643 L 449.4339841551159 242.7804097873708 L 457.93817949512487 239.7953725917494 L 466.28400341358076 236.6944291749389 L 474.4144981315937 233.49086361726543 L 482.27270587027704 230.19795999905614 L 489.8016688507421 226.82900240063668 L 496.94442929410087 223.39727490233423 L 503.6440294214656 219.91606158447502 L 509.8435114539497 216.39864652738544 L 515.4859176126623 212.8583138113921 L 520.5142901187182 209.30834751682121 L 524.8716711932274 205.76203172399994 L 528.5011030573033 202.23265051325416 L 531.3456279320571 198.73348796491078 L 533.3484256757508 195.27781238192205 L 534.0214271454663 193.56985464343865 L 534.4783870095846 191.8759448260198 L 534.7232974571946 190.19646967913397 L 534.7601506773864 188.5318159522495 L 534.5929388592531 186.88237039483488 L 534.22565419188 185.24851975635852 L 532.9068350657842 182.02915023409415 L 531.9632849852419 180.44440484924294 L 530.835630811822 178.8768013812037 L 528.0439789427135 175.79456719343457 L 524.5638169711804 172.78554166653413 L 520.4270824099425 169.85281879624966 L 515.6657127717247 166.99949257832847 L 510.3116455692452 164.22865700851804 L 504.39681831522813 161.54340608256558 L 497.9531685223919 158.9468337962185 L 491.01263370345913 156.44203414522406 L 483.607151371151 154.03210112532963 L 475.7686590381902 151.72012873228257 L 467.52909421729584 149.50921096183032 L 458.92039442119113 147.40244180972002 L 449.97449716259666 145.40291527169916 L 440.7233399542329 143.51372534351495 L 431.19886030882327 141.73796602091488 L 421.43299573908826 140.0787312996462 L 411.45768375774685 138.53911517545626 L 406.4014654604501 137.81513096093693 L 401.3048618775239 137.1222116440925 L 396.1718651980556 136.46074397439142 L 391.0064676111384 135.8311147013021 L 385.81266130586107 135.23371057429296 L 380.5944384713124 134.66891834283243 L 375.355791296587 134.13712475638897 L 370.1007119707692 133.63871656443098 L 364.83319268295224 133.17408051642673 L 359.55722562222786 132.74360336184486 L 354.2768029776847 132.34767185015366 L 348.9959169384103 131.98667273082168 L 343.71855969349764 131.6609927533171 L 338.4487234320356 131.3710186671085 L 333.19040034311865 131.1171372216642 L 327.94758261582854 130.8997351664528 L 322.72426243926543 130.71919925094255 L 317.5244320025082 130.57591622460197 L 312.3520834946571 130.4702728368994 L 307.21120910480084 130.40265583730323 L 302.10580102202545 130.37345197528205 L 297.03985143541973 130.38304800030397 L 287.04229650709254 130.52018670935172 L 277.2504818325384 130.81716596019348 L 267.6951531155357 131.27681697969427 L 258.38591522144975 131.89730988309412 L 249.31422143648058 132.67281274300797 L 240.47093544874195 133.59736363803057 L 231.8469209463427 134.66500064675876 L 223.4330416173958 135.86976184778655 L 215.22016115001148 137.2056853197115 L 207.19914323229926 138.66680914112766 L 199.3608515523701 140.2471713906312 L 191.69614979833483 141.9408101468182 L 184.19590165830584 143.74176348828377 L 176.85097082039334 145.6440694936244 L 169.6522209727076 147.64176624143377 L 162.5905158033587 149.7288918103091 L 155.65671900045902 151.89948427884548 L 148.84169425211815 154.14758172563867 L 142.13630524644833 156.4672222292845 L 135.5314156715591 158.8524438683787 L 129.01788921556067 161.29728472151643 L 122.58658956656609 163.79578286729344 L 116.22838041268562 166.34197638430481 L 109.93412544202795 168.92990335114706 L 103.69468834270617 171.55360184641668 L 97.50093280282908 174.20710994870734 L 91.34372251050974 176.88446573661554 L 85.21392115385834 179.57970728873636 L 79.1023924209851 182.2868726836663 L 73.00000000000023 185.00000000000045 Z" fill-opacity="0.09803921568627451"/><g transform="scale(21,21)"><g transform="translate(4.523809523809524,9.588093904761905)"><path fill="rgb(0,0,0)" stroke="none" paint-order="stroke fill markers" d=" M 0.308 -0.34800000000000003 L 0.308 -0.34800000000000003 L 0.27 -0.223 Q 0.23900000000000002 -0.123 0.199 -0.022 Q 0.19 -0.003 0.153 0.015 Q 0.136 0.022 0.126 0.022 Q 0.115 0.022 0.115 0.015 Q 0.115 0.012 0.125 -0.015 Q 0.242 -0.317 0.27 -0.532 Q 0.274 -0.5650000000000001 0.274 -0.584 Q 0.274 -0.615 0.246 -0.625 Q 0.23700000000000002 -0.628 0.226 -0.628 Q 0.151 -0.628 0.123 -0.581 L 0.123 -0.58 Q 0.114 -0.5640000000000001 0.106 -0.54 Q 0.096 -0.51 0.049 -0.493 Q 0.037 -0.489 0.03 -0.489 Q 0.028 -0.489 0.02 -0.492 Q 0.036000000000000004 -0.58 0.134 -0.638 Q 0.211 -0.683 0.292 -0.683 Q 0.356 -0.678 0.359 -0.626 Q 0.359 -0.597 0.34600000000000003 -0.516 Q 0.332 -0.44 0.319 -0.393 Q 0.335 -0.403 0.364 -0.403 L 0.63 -0.403 Q 0.681 -0.544 0.729 -0.627 Q 0.742 -0.65 0.749 -0.656 Q 0.784 -0.683 0.807 -0.683 Q 0.8180000000000001 -0.683 0.8180000000000001 -0.675 Q 0.8180000000000001 -0.671 0.811 -0.661 Q 0.707 -0.461 0.662 -0.272 Q 0.64 -0.177 0.64 -0.10300000000000001 Q 0.64 -0.036000000000000004 0.657 -0.019 L 0.657 -0.019 Q 0.668 -0.008 0.686 -0.008 Q 0.6940000000000001 -0.008 0.711 -0.013000000000000001 Q 0.715 -0.035 0.742 -0.053 Q 0.772 -0.074 0.791 -0.074 Q 0.801 -0.074 0.801 -0.066 Q 0.801 -0.034 0.743 0.005 Q 0.68 0.047 0.62 0.047 Q 0.5660000000000001 0.047 0.558 -0.006 Q 0.555 -0.022 0.555 -0.06 Q 0.555 -0.182 0.614 -0.358 Q 0.598 -0.34800000000000003 0.5690000000000001 -0.34800000000000003 L 0.308 -0.34800000000000003 Z"/></g></g><path fill="none" stroke="rgb(0,0,0)" paint-order="fill stroke markers" d=" M 397.99999999999955 25.000000000000057 L 394.99999999999955 159" stroke-opacity="0.6980392156862745" stroke-linejoin="round" stroke-miterlimit="10" stroke-width="1.5" stroke-dasharray="9.5,8"/><path fill="none" stroke="rgb(128,128,128)" paint-order="fill stroke markers" d=" M 397.99999999999955 25.000000000000057 L 521.9999999999994 188" stroke-opacity="0.6980392156862745" stroke-linejoin="round" stroke-miterlimit="10" stroke-width="1.5" stroke-dasharray="9.5,8"/><path fill="none" stroke="rgb(128,128,128)" paint-order="fill stroke markers" d=" M 397.99999999999955 25.000000000000057 L 454.9999999999995 219.99999999999997" stroke-opacity="0.6980392156862745" stroke-linejoin="round" stroke-miterlimit="10" stroke-width="1.5" stroke-dasharray="9.5,8"/><path fill="none" stroke="rgb(128,128,128)" paint-order="fill stroke markers" d=" M 397.99999999999955 25.000000000000057 L 170.99999999999983 188" stroke-opacity="0.6980392156862745" stroke-linejoin="round" stroke-miterlimit="10" stroke-width="1.5" stroke-dasharray="9.5,8"/><path fill="none" stroke="rgb(128,128,128)" paint-order="fill stroke markers" d=" M 397.99999999999955 25.000000000000057 L 223.99999999999974 195" stroke-opacity="0.6980392156862745" stroke-linejoin="round" stroke-miterlimit="10" stroke-width="1.5" stroke-dasharray="9.5,8"/><path fill="none" stroke="rgb(128,128,128)" paint-order="fill stroke markers" d=" M 397.99999999999955 25.000000000000057 L 489.9999999999995 210" stroke-opacity="0.6980392156862745" stroke-linejoin="round" stroke-miterlimit="10" stroke-width="1.5" stroke-dasharray="9.5,8"/><path fill="none" stroke="rgb(128,128,128)" paint-order="fill stroke markers" d=" M 397.99999999999955 25.000000000000057 L 238.99999999999977 229.99999999999997" stroke-opacity="0.6980392156862745" stroke-linejoin="round" stroke-miterlimit="10" stroke-width="1.5" stroke-dasharray="9.5,8"/><path fill="none" stroke="rgb(128,128,128)" paint-order="fill stroke markers" d=" M 397.99999999999955 25.000000000000057 L 340.99999999999966 204" stroke-opacity="0.6980392156862745" stroke-linejoin="round" stroke-miterlimit="10" stroke-width="1.5" stroke-dasharray="9.5,8"/><path fill="none" stroke="rgb(128,128,128)" paint-order="fill stroke markers" d=" M 397.99999999999955 25.000000000000057 L 296.99999999999966 211" stroke-opacity="0.6980392156862745" stroke-linejoin="round" stroke-miterlimit="10" stroke-width="1.5" stroke-dasharray="9.5,8"/><path fill="rgb(0,153,255)" stroke="none" paint-order="stroke fill markers" d=" M 401.99999999999955 25.000000000000057 C 401.99999999999955 27.20913899932323 400.2091389993227 29.000000000000057 397.99999999999955 29.000000000000057 C 395.7908610006764 29.000000000000057 393.99999999999955 27.20913899932323 393.99999999999955 25.000000000000057 C 393.99999999999955 22.790861000676884 395.7908610006764 21.000000000000057 397.99999999999955 21.000000000000057 C 400.2091389993227 21.000000000000057 401.99999999999955 22.790861000676884 401.99999999999955 25.000000000000057 Z" fill-opacity="1"/><path fill="none" stroke="rgb(0,0,0)" paint-order="fill stroke markers" d=" M 401.99999999999955 25.000000000000057 C 401.99999999999955 27.20913899932323 400.2091389993227 29.000000000000057 397.99999999999955 29.000000000000057 C 395.7908610006764 29.000000000000057 393.99999999999955 27.20913899932323 393.99999999999955 25.000000000000057 C 393.99999999999955 22.790861000676884 395.7908610006764 21.000000000000057 397.99999999999955 21.000000000000057 C 400.2091389993227 21.000000000000057 401.99999999999955 22.790861000676884 401.99999999999955 25.000000000000057 Z" stroke-opacity="1" stroke-linecap="round" stroke-linejoin="round" stroke-miterlimit="10"/><g transform="scale(21,21)"><g transform="translate(19.952380952380953,1.4563497619047618)"><path fill="rgb(0,153,255)" stroke="none" paint-order="stroke fill markers" d=" M 0.367 -0.4 L 0.367 -0.4 L 0.307 -0.083 Q 0.298 -0.021 0.271 0.059000000000000004 Q 0.261 0.088 0.251 0.108 Q 0.216 0.182 0.164 0.2 Q 0.151 0.20500000000000002 0.138 0.20500000000000002 Q 0.088 0.20500000000000002 0.064 0.171 Q 0.053 0.156 0.053 0.136 Q 0.053 0.096 0.08700000000000001 0.081 Q 0.097 0.076 0.108 0.076 Q 0.137 0.076 0.14400000000000002 0.101 Q 0.145 0.106 0.145 0.111 Q 0.145 0.145 0.115 0.159 Q 0.10400000000000001 0.164 0.09 0.165 Q 0.109 0.183 0.138 0.183 Q 0.182 0.183 0.20700000000000002 0.085 Q 0.212 0.062 0.219 0.025 L 0.225 -0.005 L 0.3 -0.4 L 0.234 -0.4 Q 0.209 -0.4 0.20700000000000002 -0.40800000000000003 L 0.20600000000000002 -0.40800000000000003 L 0.20600000000000002 -0.41200000000000003 Q 0.20600000000000002 -0.429 0.223 -0.431 L 0.223 -0.431 L 0.23600000000000002 -0.431 L 0.305 -0.431 Q 0.329 -0.556 0.338 -0.588 Q 0.368 -0.6880000000000001 0.444 -0.7030000000000001 Q 0.455 -0.705 0.465 -0.705 Q 0.517 -0.705 0.541 -0.671 L 0.541 -0.671 Q 0.552 -0.656 0.552 -0.636 Q 0.552 -0.596 0.518 -0.581 Q 0.508 -0.5760000000000001 0.497 -0.5760000000000001 Q 0.468 -0.5760000000000001 0.461 -0.601 Q 0.46 -0.606 0.46 -0.611 Q 0.46 -0.642 0.488 -0.657 Q 0.499 -0.664 0.514 -0.665 Q 0.495 -0.683 0.465 -0.683 Q 0.434 -0.683 0.418 -0.649 Q 0.41100000000000003 -0.635 0.394 -0.545 L 0.373 -0.431 L 0.456 -0.431 Q 0.481 -0.431 0.483 -0.42 Q 0.483 -0.402 0.467 -0.4 L 0.466 -0.4 L 0.453 -0.4 L 0.367 -0.4 Z"/></g></g><path fill="rgb(255,0,0)" stroke="none" paint-order="stroke fill markers" d=" M 398.99999999999955 159 C 398.99999999999955 161.20913899932316 397.2091389993227 163 394.99999999999955 163 C 392.7908610006764 163 390.99999999999955 161.20913899932316 390.99999999999955 159 C 390.99999999999955 156.7908610006768 392.7908610006764 155 394.99999999999955 155 C 397.2091389993227 155 398.99999999999955 156.7908610006768 398.99999999999955 159 Z" fill-opacity="1"/><path fill="none" stroke="rgb(0,0,0)" paint-order="fill stroke markers" d=" M 398.99999999999955 159 C 398.99999999999955 161.20913899932316 397.2091389993227 163 394.99999999999955 163 C 392.7908610006764 163 390.99999999999955 161.20913899932316 390.99999999999955 159 C 390.99999999999955 156.7908610006768 392.7908610006764 155 394.99999999999955 155 C 397.2091389993227 155 398.99999999999955 156.7908610006768 398.99999999999955 159 Z" stroke-opacity="1" stroke-linecap="round" stroke-linejoin="round" stroke-miterlimit="10"/><g transform="scale(21,21)"><g transform="translate(17.714285714285715,8.88492119047619)"><path fill="rgb(255,0,0)" stroke="none" paint-order="stroke fill markers" d=" M 0.28700000000000003 -0.683 L 0.209 -0.365 Q 0.271 -0.442 0.357 -0.442 Q 0.446 -0.442 0.467 -0.373 L 0.467 -0.372 Q 0.47200000000000003 -0.355 0.47200000000000003 -0.335 Q 0.47200000000000003 -0.279 0.41100000000000003 -0.115 Q 0.393 -0.07100000000000001 0.393 -0.044 Q 0.393 -0.011 0.417 -0.011 Q 0.47900000000000004 -0.011 0.515 -0.121 L 0.519 -0.135 Q 0.524 -0.151 0.529 -0.152 L 0.529 -0.153 L 0.534 -0.153 Q 0.546 -0.153 0.546 -0.14300000000000002 Q 0.546 -0.126 0.525 -0.08 Q 0.482 0.011 0.41500000000000004 0.011 Q 0.364 0.011 0.342 -0.032 Q 0.333 -0.05 0.333 -0.07100000000000001 Q 0.333 -0.089 0.34600000000000003 -0.126 Q 0.40800000000000003 -0.28400000000000003 0.40800000000000003 -0.35000000000000003 Q 0.40800000000000003 -0.42 0.354 -0.42 Q 0.306 -0.42 0.258 -0.385 Q 0.221 -0.356 0.193 -0.299 L 0.19 -0.293 Q 0.186 -0.269 0.179 -0.248 Q 0.17400000000000002 -0.225 0.162 -0.181 L 0.14 -0.091 L 0.121 -0.015 Q 0.114 0.006 0.09 0.01 Q 0.08700000000000001 0.011 0.084 0.011 Q 0.06 0.011 0.056 -0.01 Q 0.055 -0.014 0.055 -0.017 Q 0.055 -0.025 0.059000000000000004 -0.039 L 0.20400000000000001 -0.615 L 0.20700000000000002 -0.635 Q 0.20700000000000002 -0.646 0.193 -0.649 L 0.193 -0.649 Q 0.181 -0.652 0.157 -0.652 Q 0.135 -0.652 0.133 -0.664 Q 0.133 -0.681 0.152 -0.684 L 0.274 -0.6940000000000001 Q 0.28700000000000003 -0.6940000000000001 0.28700000000000003 -0.683 Z"/></g><g transform="translate(18.568223825396824,8.88492119047619)"><path fill="rgb(255,0,0)" stroke="none" paint-order="stroke fill markers" d=" M 0.687 -0.327 L 0.09 -0.327 Q 0.058 -0.327 0.056 -0.34700000000000003 Q 0.056 -0.367 0.089 -0.367 L 0.6880000000000001 -0.367 Q 0.72 -0.367 0.721 -0.34700000000000003 Q 0.721 -0.327 0.687 -0.327 M 0.6880000000000001 -0.133 L 0.089 -0.133 Q 0.057 -0.133 0.056 -0.153 Q 0.056 -0.17300000000000001 0.09 -0.17300000000000001 L 0.687 -0.17300000000000001 Q 0.719 -0.17300000000000001 0.721 -0.153 Q 0.721 -0.133 0.6880000000000001 -0.133 Z"/></g><g transform="translate(19.623783436507935,8.88492119047619)"><path fill="rgb(255,0,0)" stroke="none" paint-order="stroke fill markers" d=" M 0.47100000000000003 -0.377 L 0.47100000000000003 -0.377 L 0.36 0.067 Q 0.34500000000000003 0.127 0.28200000000000003 0.168 Q 0.224 0.20500000000000002 0.148 0.20500000000000002 Q 0.025 0.20500000000000002 0.016 0.155 Q 0.015 0.15 0.015 0.14400000000000002 Q 0.015 0.10300000000000001 0.052000000000000005 0.089 Q 0.061 0.08600000000000001 0.069 0.08600000000000001 Q 0.1 0.08600000000000001 0.106 0.113 Q 0.107 0.117 0.107 0.121 Q 0.107 0.153 0.077 0.169 Q 0.07200000000000001 0.171 0.066 0.17300000000000001 Q 0.097 0.183 0.146 0.183 Q 0.244 0.183 0.29 0.075 L 0.323 -0.057 L 0.322 -0.058 Q 0.277 -0.008 0.221 -0.001 Q 0.213 0 0.20600000000000002 0 Q 0.136 0 0.098 -0.061 Q 0.073 -0.10200000000000001 0.073 -0.158 Q 0.073 -0.265 0.149 -0.354 Q 0.219 -0.436 0.3 -0.442 L 0.311 -0.442 Q 0.365 -0.442 0.398 -0.391 L 0.404 -0.379 Q 0.41300000000000003 -0.417 0.445 -0.422 Q 0.47100000000000003 -0.422 0.47400000000000003 -0.395 L 0.47100000000000003 -0.377 M 0.341 -0.128 L 0.341 -0.128 L 0.389 -0.319 Q 0.392 -0.331 0.392 -0.334 Q 0.392 -0.354 0.375 -0.382 L 0.375 -0.382 Q 0.363 -0.402 0.34500000000000003 -0.41200000000000003 Q 0.33 -0.42 0.312 -0.42 Q 0.26 -0.42 0.213 -0.353 Q 0.20600000000000002 -0.342 0.2 -0.331 Q 0.168 -0.271 0.149 -0.164 Q 0.14400000000000002 -0.133 0.14400000000000002 -0.114 Q 0.14400000000000002 -0.048 0.182 -0.028 Q 0.193 -0.022 0.209 -0.022 Q 0.248 -0.022 0.29 -0.058 Q 0.334 -0.096 0.341 -0.128 Z"/></g></g></g></g></svg>