<svg version="1.1" xmlns="http://www.w3.org/2000/svg" xmlns:xlink="http://www.w3.org/1999/xlink" width="444" height="272"><defs><clipPath id="dLPpsomiUufw"><path fill="none" stroke="none" d=" M 0 0 L 444 0 L 444 272 L 0 272 L 0 0 Z"/></clipPath></defs><g transform="scale(1,1)" clip-path="url(#dLPpsomiUufw)"><g><path fill="none" stroke="rgb(0,0,0)" paint-order="fill stroke markers" d=" M 172.5 2.5 L 172.5 272.5" stroke-opacity="1" stroke-miterlimit="10"/><path fill="none" stroke="rgb(0,0,0)" paint-order="fill stroke markers" d=" M 172.5 1.5 L 167.5 6.5" stroke-opacity="1" stroke-miterlimit="10"/><path fill="none" stroke="rgb(0,0,0)" paint-order="fill stroke markers" d=" M 172.5 1.5 L 177.5 6.5" stroke-opacity="1" stroke-miterlimit="10"/><path fill="none" stroke="rgb(0,0,0)" paint-order="fill stroke markers" d=" M 0.5 252.5 L 442.5 252.5" stroke-opacity="1" stroke-miterlimit="10"/><path fill="none" stroke="rgb(0,0,0)" paint-order="fill stroke markers" d=" M 443.5 252.5 L 438.5 247.5" stroke-opacity="1" stroke-miterlimit="10"/><path fill="none" stroke="rgb(0,0,0)" paint-order="fill stroke markers" d=" M 443.5 252.5 L 438.5 257.5" stroke-opacity="1" stroke-miterlimit="10"/><path fill="none" stroke="rgb(0,0,0)" paint-order="fill stroke markers" d=" M 23.5 252.5 L 23.5 255.5" stroke-opacity="1" stroke-miterlimit="10"/><path fill="none" stroke="rgb(0,0,0)" paint-order="fill stroke markers" d=" M 72.5 252.5 L 72.5 255.5" stroke-opacity="1" stroke-miterlimit="10"/><path fill="none" stroke="rgb(0,0,0)" paint-order="fill stroke markers" d=" M 122.5 252.5 L 122.5 255.5" stroke-opacity="1" stroke-miterlimit="10"/><path fill="none" stroke="rgb(0,0,0)" paint-order="fill stroke markers" d=" M 222.5 252.5 L 222.5 255.5" stroke-opacity="1" stroke-miterlimit="10"/><path fill="none" stroke="rgb(0,0,0)" paint-order="fill stroke markers" d=" M 272.5 252.5 L 272.5 255.5" stroke-opacity="1" stroke-miterlimit="10"/><path fill="none" stroke="rgb(0,0,0)" paint-order="fill stroke markers" d=" M 322.5 252.5 L 322.5 255.5" stroke-opacity="1" stroke-miterlimit="10"/><path fill="none" stroke="rgb(0,0,0)" paint-order="fill stroke markers" d=" M 372.5 252.5 L 372.5 255.5" stroke-opacity="1" stroke-miterlimit="10"/><path fill="none" stroke="rgb(0,0,0)" paint-order="fill stroke markers" d=" M 422.5 252.5 L 422.5 255.5" stroke-opacity="1" stroke-miterlimit="10"/><path fill="none" stroke="rgb(0,0,0)" paint-order="fill stroke markers" d=" M 169.5 202.5 L 172.5 202.5" stroke-opacity="1" stroke-miterlimit="10"/><path fill="none" stroke="rgb(0,0,0)" paint-order="fill stroke markers" d=" M 169.5 152.5 L 172.5 152.5" stroke-opacity="1" stroke-miterlimit="10"/><path fill="none" stroke="rgb(0,0,0)" paint-order="fill stroke markers" d=" M 169.5 102.5 L 172.5 102.5" stroke-opacity="1" stroke-miterlimit="10"/><path fill="none" stroke="rgb(0,0,0)" paint-order="fill stroke markers" d=" M 169.5 52.5 L 172.5 52.5" stroke-opacity="1" stroke-miterlimit="10"/><path fill="none" stroke="rgb(0,0,0)" paint-order="fill stroke markers" d=" M 23.00000000000003 -197.9999999999998 C 122.99999999999991 402 222.9999999999998 402 322.99999999999966 -197.9999999999998" stroke-opacity="0.6980392156862745" stroke-linecap="round" stroke-linejoin="round" stroke-miterlimit="10" stroke-width="2.5"/><path fill="none" stroke="rgb(0,0,0)" paint-order="fill stroke markers" d=" M 274.9999999999998 209.00000000000006 L 375.9999999999996 209.00000000000006" stroke-opacity="0.6980392156862745" stroke-linecap="round" stroke-linejoin="round" stroke-miterlimit="10" stroke-width="1.5"/><path fill="none" stroke="rgb(0,0,0)" paint-order="fill stroke markers" d=" M 274.9999999999998 209.00000000000006 L 221.21339384902694 237.90026599156755" stroke-opacity="0.6980392156862745" stroke-linecap="round" stroke-linejoin="round" stroke-miterlimit="10" stroke-width="1.5"/><path fill="rgb(0,0,0)" stroke="none" paint-order="stroke fill markers" fill-rule="evenodd" d=" M 207.99999999999983 245.00000000000003 L 219.43846034691882 234.5969175293108 L 222.98832735113507 241.20361445382431 Z" fill-opacity="0.6980392156862745"/><path fill="rgb(102,204,255)" stroke="none" paint-order="stroke fill markers" d=" M 176.99999999999986 252.00000000000003 C 176.99999999999986 254.20913899932322 175.20913899932305 256 172.99999999999986 256 C 170.79086100067667 256 168.99999999999986 254.20913899932322 168.99999999999986 252.00000000000003 C 168.99999999999986 249.79086100067684 170.79086100067667 248.00000000000003 172.99999999999986 248.00000000000003 C 175.20913899932305 248.00000000000003 176.99999999999986 249.79086100067684 176.99999999999986 252.00000000000003 Z" fill-opacity="1"/><path fill="none" stroke="rgb(0,0,0)" paint-order="fill stroke markers" d=" M 176.99999999999986 252.00000000000003 C 176.99999999999986 254.20913899932322 175.20913899932305 256 172.99999999999986 256 C 170.79086100067667 256 168.99999999999986 254.20913899932322 168.99999999999986 252.00000000000003 C 168.99999999999986 249.79086100067684 170.79086100067667 248.00000000000003 172.99999999999986 248.00000000000003 C 175.20913899932305 248.00000000000003 176.99999999999986 249.79086100067684 176.99999999999986 252.00000000000003 Z" stroke-opacity="1" stroke-linecap="round" stroke-linejoin="round" stroke-miterlimit="10"/><g transform="scale(23,23)"><g transform="translate(1.3478260869565217,7.820524539130434)"><path fill="rgb(0,0,0)" stroke="none" paint-order="stroke fill markers" d=" M 0.486 -0.381 L 0.39 0.001 Q 0.366 0.099 0.28300000000000003 0.16 Q 0.222 0.20500000000000002 0.156 0.20500000000000002 Q 0.089 0.20500000000000002 0.061 0.159 Q 0.05 0.14 0.05 0.11800000000000001 Q 0.05 0.067 0.091 0.055 Q 0.099 0.053 0.106 0.053 Q 0.138 0.053 0.14200000000000002 0.081 Q 0.14300000000000002 0.084 0.14300000000000002 0.088 Q 0.14300000000000002 0.111 0.123 0.129 Q 0.109 0.14100000000000001 0.08 0.14100000000000001 Q 0.098 0.183 0.156 0.183 Q 0.218 0.183 0.266 0.12 Q 0.305 0.068 0.328 -0.021 Q 0.329 -0.025 0.331 -0.034 Q 0.28600000000000003 0.011 0.23 0.011 Q 0.15 0.011 0.121 -0.048 Q 0.108 -0.074 0.108 -0.108 Q 0.108 -0.163 0.161 -0.305 Q 0.163 -0.311 0.166 -0.318 Q 0.183 -0.364 0.183 -0.388 Q 0.183 -0.42 0.158 -0.42 Q 0.10300000000000001 -0.42 0.068 -0.329 L 0.068 -0.328 Q 0.062 -0.313 0.057 -0.296 Q 0.046 -0.279 0.041 -0.278 Q 0.029 -0.278 0.029 -0.28800000000000003 Q 0.029 -0.306 0.05 -0.35100000000000003 Q 0.094 -0.442 0.161 -0.442 Q 0.214 -0.442 0.23500000000000001 -0.397 Q 0.243 -0.38 0.243 -0.36 Q 0.243 -0.339 0.223 -0.28800000000000003 Q 0.17200000000000001 -0.156 0.17200000000000001 -0.092 Q 0.17200000000000001 -0.011 0.234 -0.011 Q 0.292 -0.011 0.335 -0.073 Q 0.34500000000000003 -0.088 0.34700000000000003 -0.096 L 0.392 -0.276 Q 0.399 -0.309 0.41200000000000003 -0.356 Q 0.422 -0.399 0.426 -0.41000000000000003 Q 0.439 -0.431 0.461 -0.431 Q 0.486 -0.426 0.49 -0.404 Q 0.49 -0.395 0.486 -0.381 Z"/></g><g transform="translate(2.1517656980676327,7.820524539130434)"><path fill="rgb(0,0,0)" stroke="none" paint-order="stroke fill markers" d=" M 0.687 -0.327 L 0.09 -0.327 Q 0.058 -0.327 0.056 -0.34700000000000003 Q 0.056 -0.367 0.089 -0.367 L 0.6880000000000001 -0.367 Q 0.72 -0.367 0.721 -0.34700000000000003 Q 0.721 -0.327 0.687 -0.327 M 0.6880000000000001 -0.133 L 0.089 -0.133 Q 0.057 -0.133 0.056 -0.153 Q 0.056 -0.17300000000000001 0.09 -0.17300000000000001 L 0.687 -0.17300000000000001 Q 0.719 -0.17300000000000001 0.721 -0.153 Q 0.721 -0.133 0.6880000000000001 -0.133 Z"/></g><g transform="translate(3.207325309178744,7.820524539130434)"><path fill="rgb(0,0,0)" stroke="none" paint-order="stroke fill markers" d=" M 0.334 -0.302 L 0.3 -0.165 Q 0.28300000000000003 -0.097 0.28300000000000003 -0.077 Q 0.28300000000000003 -0.025 0.32 -0.014 Q 0.328 -0.011 0.338 -0.011 Q 0.388 -0.011 0.429 -0.061 Q 0.456 -0.093 0.47100000000000003 -0.14200000000000002 Q 0.47400000000000003 -0.153 0.484 -0.153 Q 0.496 -0.153 0.496 -0.14300000000000002 Q 0.496 -0.11800000000000001 0.465 -0.07100000000000001 Q 0.41100000000000003 0.011 0.336 0.011 Q 0.268 0.011 0.23700000000000002 -0.046 Q 0.231 -0.055 0.228 -0.065 Q 0.20400000000000001 -0.017 0.162 0.002 Q 0.14300000000000002 0.011 0.123 0.011 Q 0.063 0.011 0.039 -0.024 Q 0.029 -0.037 0.029 -0.055 Q 0.029 -0.092 0.061 -0.107 Q 0.07200000000000001 -0.113 0.084 -0.113 Q 0.114 -0.113 0.12 -0.088 Q 0.121 -0.083 0.121 -0.078 Q 0.121 -0.044 0.08700000000000001 -0.028 Q 0.081 -0.025 0.074 -0.024 Q 0.095 -0.011 0.124 -0.011 Q 0.177 -0.011 0.20800000000000002 -0.082 Q 0.214 -0.097 0.219 -0.115 Q 0.273 -0.319 0.273 -0.353 Q 0.267 -0.41500000000000004 0.219 -0.42 Q 0.167 -0.42 0.124 -0.367 L 0.124 -0.366 Q 0.124 -0.365 0.123 -0.365 Q 0.108 -0.34500000000000003 0.096 -0.319 Q 0.091 -0.307 0.08700000000000001 -0.295 L 0.085 -0.289 Q 0.083 -0.278 0.07200000000000001 -0.278 Q 0.06 -0.278 0.06 -0.28800000000000003 Q 0.06 -0.313 0.092 -0.36 Q 0.146 -0.442 0.221 -0.442 Q 0.298 -0.442 0.329 -0.366 Q 0.361 -0.428 0.41400000000000003 -0.44 Q 0.424 -0.442 0.434 -0.442 Q 0.493 -0.442 0.517 -0.40900000000000003 Q 0.527 -0.395 0.527 -0.376 Q 0.527 -0.335 0.49 -0.321 Q 0.481 -0.318 0.47300000000000003 -0.318 Q 0.442 -0.318 0.436 -0.34500000000000003 Q 0.435 -0.34900000000000003 0.435 -0.353 Q 0.435 -0.383 0.464 -0.4 Q 0.47300000000000003 -0.405 0.483 -0.40700000000000003 Q 0.462 -0.42 0.433 -0.42 Q 0.365 -0.42 0.337 -0.314 Q 0.335 -0.308 0.334 -0.302 Z"/></g><g transform="translate(3.7788533091787437,7.407632539130434) scale(0.7,0.7)"><path fill="rgb(0,0,0)" stroke="none" paint-order="stroke fill markers" d=" M 0.449 -0.17400000000000002 L 0.449 -0.17400000000000002 L 0.421 0 L 0.05 0 Q 0.05 -0.025 0.056 -0.032 L 0.061 -0.037 L 0.253 -0.251 Q 0.358 -0.369 0.358 -0.47200000000000003 Q 0.358 -0.561 0.304 -0.607 L 0.303 -0.608 L 0.302 -0.608 Q 0.27 -0.635 0.224 -0.635 Q 0.152 -0.635 0.109 -0.5730000000000001 Q 0.097 -0.555 0.089 -0.533 Q 0.092 -0.534 0.10200000000000001 -0.534 Q 0.14200000000000002 -0.534 0.153 -0.498 L 0.153 -0.497 Q 0.155 -0.49 0.155 -0.482 Q 0.155 -0.442 0.117 -0.431 Q 0.109 -0.429 0.10300000000000001 -0.429 Q 0.066 -0.429 0.054 -0.46 Q 0.05 -0.47100000000000003 0.05 -0.485 Q 0.05 -0.562 0.109 -0.617 Q 0.162 -0.666 0.23700000000000002 -0.666 Q 0.34700000000000003 -0.666 0.40800000000000003 -0.592 Q 0.443 -0.549 0.448 -0.49 Q 0.449 -0.481 0.449 -0.47200000000000003 Q 0.449 -0.399 0.394 -0.333 Q 0.365 -0.299 0.304 -0.243 L 0.243 -0.189 L 0.233 -0.18 L 0.127 -0.077 L 0.307 -0.077 Q 0.395 -0.077 0.402 -0.085 Q 0.41200000000000003 -0.099 0.424 -0.17400000000000002 L 0.449 -0.17400000000000002 Z"/></g></g><g transform="scale(23,23) translate(12.347826086956522,8.695652173913043) scale(0.1,0.1)"><text fill="rgb(0,0,0)" stroke="none" font-family="Serif" font-size="10px" font-style="normal" font-weight="normal" text-decoration="normal" x="0" y="0" text-anchor="start" dominant-baseline="alphabetic">最小值</text><g transform="scale(10,10) translate(-12.347826086956522,-8.695652173913043)"/></g></g></g></svg>