<svg version="1.1" xmlns="http://www.w3.org/2000/svg" xmlns:xlink="http://www.w3.org/1999/xlink" width="503" height="403"><defs><clipPath id="obbXIPgUOHpf"><path fill="none" stroke="none" d=" M 0 0 L 503 0 L 503 403 L 0 403 L 0 0 Z"/></clipPath></defs><g transform="scale(1,1)" clip-path="url(#obbXIPgUOHpf)"><g><path fill="none" stroke="rgb(0,0,0)" paint-order="fill stroke markers" d=" M 10.5 2.5 L 10.5 403.5" stroke-opacity="1" stroke-miterlimit="10"/><path fill="none" stroke="rgb(0,0,0)" paint-order="fill stroke markers" d=" M 10.5 1.5 L 2.5 9.5" stroke-opacity="1" stroke-miterlimit="10"/><path fill="none" stroke="rgb(0,0,0)" paint-order="fill stroke markers" d=" M 10.5 1.5 L 18.5 9.5" stroke-opacity="1" stroke-miterlimit="10"/><path fill="none" stroke="rgb(0,0,0)" paint-order="fill stroke markers" d=" M 0.5 393.5 L 501.5 393.5" stroke-opacity="1" stroke-miterlimit="10"/><path fill="none" stroke="rgb(0,0,0)" paint-order="fill stroke markers" d=" M 502.5 393.5 L 494.5 385.5" stroke-opacity="1" stroke-miterlimit="10"/><path fill="none" stroke="rgb(0,0,0)" paint-order="fill stroke markers" d=" M 502.5 393.5 L 494.5 401.5" stroke-opacity="1" stroke-miterlimit="10"/><path fill="none" stroke="rgb(0,0,0)" paint-order="fill stroke markers" d=" M -5 355.79769531248814 L 508 91.08969531248641" stroke-opacity="0.6980392156862745" stroke-linecap="round" stroke-linejoin="round" stroke-miterlimit="10" stroke-width="2.5"/><path fill="rgb(0,0,255)" stroke="none" paint-order="stroke fill markers" d=" M 89.79296875000182 314.47070312498704 C 89.79296875000182 317.232126874141 87.55439249915578 319.47070312498704 84.79296875000182 319.47070312498704 C 82.03154500084786 319.47070312498704 79.79296875000182 317.232126874141 79.79296875000182 314.47070312498704 C 79.79296875000182 311.7092793758331 82.03154500084786 309.47070312498704 84.79296875000182 309.47070312498704 C 87.55439249915578 309.47070312498704 89.79296875000182 311.7092793758331 89.79296875000182 314.47070312498704 Z" fill-opacity="1"/><path fill="none" stroke="rgb(0,0,0)" paint-order="fill stroke markers" d=" M 89.79296875000182 314.47070312498704 C 89.79296875000182 317.232126874141 87.55439249915578 319.47070312498704 84.79296875000182 319.47070312498704 C 82.03154500084786 319.47070312498704 79.79296875000182 317.232126874141 79.79296875000182 314.47070312498704 C 79.79296875000182 311.7092793758331 82.03154500084786 309.47070312498704 84.79296875000182 309.47070312498704 C 87.55439249915578 309.47070312498704 89.79296875000182 311.7092793758331 89.79296875000182 314.47070312498704 Z" stroke-opacity="1" stroke-linecap="round" stroke-linejoin="round" stroke-miterlimit="10"/><path fill="rgb(0,0,255)" stroke="none" paint-order="stroke fill markers" d=" M 200.85156250000182 254.66992187498658 C 200.85156250000182 257.43134562414053 198.6129862491558 259.6699218749866 195.85156250000182 259.6699218749866 C 193.09013875084784 259.6699218749866 190.85156250000182 257.43134562414053 190.85156250000182 254.66992187498658 C 190.85156250000182 251.9084981258326 193.09013875084784 249.66992187498658 195.85156250000182 249.66992187498658 C 198.6129862491558 249.66992187498658 200.85156250000182 251.9084981258326 200.85156250000182 254.66992187498658 Z" fill-opacity="1"/><path fill="none" stroke="rgb(0,0,0)" paint-order="fill stroke markers" d=" M 200.85156250000182 254.66992187498658 C 200.85156250000182 257.43134562414053 198.6129862491558 259.6699218749866 195.85156250000182 259.6699218749866 C 193.09013875084784 259.6699218749866 190.85156250000182 257.43134562414053 190.85156250000182 254.66992187498658 C 190.85156250000182 251.9084981258326 193.09013875084784 249.66992187498658 195.85156250000182 249.66992187498658 C 198.6129862491558 249.66992187498658 200.85156250000182 251.9084981258326 200.85156250000182 254.66992187498658 Z" stroke-opacity="1" stroke-linecap="round" stroke-linejoin="round" stroke-miterlimit="10"/><path fill="rgb(0,0,255)" stroke="none" paint-order="stroke fill markers" d=" M 166.67968750000205 246.12695312498636 C 166.67968750000205 248.88837687414033 164.44111124915602 251.12695312498636 161.67968750000205 251.12695312498636 C 158.91826375084807 251.12695312498636 156.67968750000205 248.88837687414033 156.67968750000205 246.12695312498636 C 156.67968750000205 243.36552937583238 158.91826375084807 241.12695312498636 161.67968750000205 241.12695312498636 C 164.44111124915602 241.12695312498636 166.67968750000205 243.36552937583238 166.67968750000205 246.12695312498636 Z" fill-opacity="1"/><path fill="none" stroke="rgb(0,0,0)" paint-order="fill stroke markers" d=" M 166.67968750000205 246.12695312498636 C 166.67968750000205 248.88837687414033 164.44111124915602 251.12695312498636 161.67968750000205 251.12695312498636 C 158.91826375084807 251.12695312498636 156.67968750000205 248.88837687414033 156.67968750000205 246.12695312498636 C 156.67968750000205 243.36552937583238 158.91826375084807 241.12695312498636 161.67968750000205 241.12695312498636 C 164.44111124915602 241.12695312498636 166.67968750000205 243.36552937583238 166.67968750000205 246.12695312498636 Z" stroke-opacity="1" stroke-linecap="round" stroke-linejoin="round" stroke-miterlimit="10"/><path fill="rgb(0,0,255)" stroke="none" paint-order="stroke fill markers" d=" M 277.73828125000205 237.58398437498636 C 277.73828125000205 240.34540812414033 275.499704999156 242.58398437498636 272.73828125000205 242.58398437498636 C 269.9768575008481 242.58398437498636 267.73828125000205 240.34540812414033 267.73828125000205 237.58398437498636 C 267.73828125000205 234.82256062583238 269.9768575008481 232.58398437498636 272.73828125000205 232.58398437498636 C 275.499704999156 232.58398437498636 277.73828125000205 234.82256062583238 277.73828125000205 237.58398437498636 Z" fill-opacity="1"/><path fill="none" stroke="rgb(0,0,0)" paint-order="fill stroke markers" d=" M 277.73828125000205 237.58398437498636 C 277.73828125000205 240.34540812414033 275.499704999156 242.58398437498636 272.73828125000205 242.58398437498636 C 269.9768575008481 242.58398437498636 267.73828125000205 240.34540812414033 267.73828125000205 237.58398437498636 C 267.73828125000205 234.82256062583238 269.9768575008481 232.58398437498636 272.73828125000205 232.58398437498636 C 275.499704999156 232.58398437498636 277.73828125000205 234.82256062583238 277.73828125000205 237.58398437498636 Z" stroke-opacity="1" stroke-linecap="round" stroke-linejoin="round" stroke-miterlimit="10"/><path fill="rgb(0,0,255)" stroke="none" paint-order="stroke fill markers" d=" M 354.6250000000023 203.41210937498613 C 354.6250000000023 206.1735331241401 352.3864237491562 208.41210937498613 349.6250000000023 208.41210937498613 C 346.8635762508483 208.41210937498613 344.6250000000023 206.1735331241401 344.6250000000023 203.41210937498613 C 344.6250000000023 200.65068562583215 346.8635762508483 198.41210937498613 349.6250000000023 198.41210937498613 C 352.3864237491562 198.41210937498613 354.6250000000023 200.65068562583215 354.6250000000023 203.41210937498613 Z" fill-opacity="1"/><path fill="none" stroke="rgb(0,0,0)" paint-order="fill stroke markers" d=" M 354.6250000000023 203.41210937498613 C 354.6250000000023 206.1735331241401 352.3864237491562 208.41210937498613 349.6250000000023 208.41210937498613 C 346.8635762508483 208.41210937498613 344.6250000000023 206.1735331241401 344.6250000000023 203.41210937498613 C 344.6250000000023 200.65068562583215 346.8635762508483 198.41210937498613 349.6250000000023 198.41210937498613 C 352.3864237491562 198.41210937498613 354.6250000000023 200.65068562583215 354.6250000000023 203.41210937498613 Z" stroke-opacity="1" stroke-linecap="round" stroke-linejoin="round" stroke-miterlimit="10"/><path fill="rgb(0,0,255)" stroke="none" paint-order="stroke fill markers" d=" M 397.3398437500023 117.98242187498522 C 397.3398437500023 120.74384562413918 395.1012674991562 122.98242187498522 392.3398437500023 122.98242187498522 C 389.5784200008483 122.98242187498522 387.3398437500023 120.74384562413918 387.3398437500023 117.98242187498522 C 387.3398437500023 115.22099812583126 389.5784200008483 112.98242187498522 392.3398437500023 112.98242187498522 C 395.1012674991562 112.98242187498522 397.3398437500023 115.22099812583126 397.3398437500023 117.98242187498522 Z" fill-opacity="1"/><path fill="none" stroke="rgb(0,0,0)" paint-order="fill stroke markers" d=" M 397.3398437500023 117.98242187498522 C 397.3398437500023 120.74384562413918 395.1012674991562 122.98242187498522 392.3398437500023 122.98242187498522 C 389.5784200008483 122.98242187498522 387.3398437500023 120.74384562413918 387.3398437500023 117.98242187498522 C 387.3398437500023 115.22099812583126 389.5784200008483 112.98242187498522 392.3398437500023 112.98242187498522 C 395.1012674991562 112.98242187498522 397.3398437500023 115.22099812583126 397.3398437500023 117.98242187498522 Z" stroke-opacity="1" stroke-linecap="round" stroke-linejoin="round" stroke-miterlimit="10"/></g></g></svg>