<svg version="1.1" xmlns="http://www.w3.org/2000/svg" xmlns:xlink="http://www.w3.org/1999/xlink" width="506" height="405"><defs><clipPath id="SfaQehHuRlWo"><path fill="none" stroke="none" d=" M 0 0 L 506 0 L 506 405 L 0 405 L 0 0 Z"/></clipPath></defs><g transform="scale(1,1)" clip-path="url(#SfaQehHuRlWo)"><g><path fill="none" stroke="rgb(0,0,0)" paint-order="fill stroke markers" d=" M 10.5 2.5 L 10.5 405.5" stroke-opacity="1" stroke-miterlimit="10"/><path fill="none" stroke="rgb(0,0,0)" paint-order="fill stroke markers" d=" M 10.5 1.5 L 2.5 9.5" stroke-opacity="1" stroke-miterlimit="10"/><path fill="none" stroke="rgb(0,0,0)" paint-order="fill stroke markers" d=" M 10.5 1.5 L 18.5 9.5" stroke-opacity="1" stroke-miterlimit="10"/><path fill="none" stroke="rgb(0,0,0)" paint-order="fill stroke markers" d=" M 0.5 394.5 L 504.5 394.5" stroke-opacity="1" stroke-miterlimit="10"/><path fill="none" stroke="rgb(0,0,0)" paint-order="fill stroke markers" d=" M 505.5 394.5 L 497.5 386.5" stroke-opacity="1" stroke-miterlimit="10"/><path fill="none" stroke="rgb(0,0,0)" paint-order="fill stroke markers" d=" M 505.5 394.5 L 497.5 402.5" stroke-opacity="1" stroke-miterlimit="10"/><path fill="none" stroke="rgb(0,0,0)" paint-order="fill stroke markers" d=" M -5 355.7976953124877 L 511 89.54169531248584" stroke-opacity="0.6980392156862745" stroke-linecap="round" stroke-linejoin="round" stroke-miterlimit="10" stroke-width="2.5"/><path fill="none" stroke="rgb(255,0,0)" paint-order="fill stroke markers" d=" M 298.9999999999998 392.99999999999955 L 298.9999999999998 198.93369531248663" stroke-opacity="0.6980392156862745" stroke-linejoin="round" stroke-miterlimit="10" stroke-width="2.5" stroke-dasharray="10.5,8"/><path fill="none" stroke="rgb(255,0,0)" paint-order="fill stroke markers" d=" M 298.9999999999998 198.93369531248663 L 12 202.99999999999955" stroke-opacity="0.6980392156862745" stroke-linejoin="round" stroke-miterlimit="10" stroke-width="2.5" stroke-dasharray="10.5,8"/><path fill="rgb(0,0,255)" stroke="none" paint-order="stroke fill markers" d=" M 89.79296875000159 314.4707031249866 C 89.79296875000159 317.23212687414053 87.55439249915555 319.4707031249866 84.79296875000159 319.4707031249866 C 82.03154500084763 319.4707031249866 79.79296875000159 317.23212687414053 79.79296875000159 314.4707031249866 C 79.79296875000159 311.70927937583264 82.03154500084763 309.4707031249866 84.79296875000159 309.4707031249866 C 87.55439249915555 309.4707031249866 89.79296875000159 311.70927937583264 89.79296875000159 314.4707031249866 Z" fill-opacity="1"/><path fill="none" stroke="rgb(0,0,0)" paint-order="fill stroke markers" d=" M 89.79296875000159 314.4707031249866 C 89.79296875000159 317.23212687414053 87.55439249915555 319.4707031249866 84.79296875000159 319.4707031249866 C 82.03154500084763 319.4707031249866 79.79296875000159 317.23212687414053 79.79296875000159 314.4707031249866 C 79.79296875000159 311.70927937583264 82.03154500084763 309.4707031249866 84.79296875000159 309.4707031249866 C 87.55439249915555 309.4707031249866 89.79296875000159 311.70927937583264 89.79296875000159 314.4707031249866 Z" stroke-opacity="1" stroke-linecap="round" stroke-linejoin="round" stroke-miterlimit="10"/><path fill="rgb(0,0,255)" stroke="none" paint-order="stroke fill markers" d=" M 200.85156250000182 254.66992187498613 C 200.85156250000182 257.4313456241401 198.6129862491558 259.66992187498613 195.85156250000182 259.66992187498613 C 193.09013875084784 259.66992187498613 190.85156250000182 257.4313456241401 190.85156250000182 254.66992187498613 C 190.85156250000182 251.90849812583215 193.09013875084784 249.66992187498613 195.85156250000182 249.66992187498613 C 198.6129862491558 249.66992187498613 200.85156250000182 251.90849812583215 200.85156250000182 254.66992187498613 Z" fill-opacity="1"/><path fill="none" stroke="rgb(0,0,0)" paint-order="fill stroke markers" d=" M 200.85156250000182 254.66992187498613 C 200.85156250000182 257.4313456241401 198.6129862491558 259.66992187498613 195.85156250000182 259.66992187498613 C 193.09013875084784 259.66992187498613 190.85156250000182 257.4313456241401 190.85156250000182 254.66992187498613 C 190.85156250000182 251.90849812583215 193.09013875084784 249.66992187498613 195.85156250000182 249.66992187498613 C 198.6129862491558 249.66992187498613 200.85156250000182 251.90849812583215 200.85156250000182 254.66992187498613 Z" stroke-opacity="1" stroke-linecap="round" stroke-linejoin="round" stroke-miterlimit="10"/><path fill="rgb(0,0,255)" stroke="none" paint-order="stroke fill markers" d=" M 166.67968750000182 246.1269531249859 C 166.67968750000182 248.88837687413988 164.4411112491558 251.1269531249859 161.67968750000182 251.1269531249859 C 158.91826375084784 251.1269531249859 156.67968750000182 248.88837687413988 156.67968750000182 246.1269531249859 C 156.67968750000182 243.36552937583193 158.91826375084784 241.1269531249859 161.67968750000182 241.1269531249859 C 164.4411112491558 241.1269531249859 166.67968750000182 243.36552937583193 166.67968750000182 246.1269531249859 Z" fill-opacity="1"/><path fill="none" stroke="rgb(0,0,0)" paint-order="fill stroke markers" d=" M 166.67968750000182 246.1269531249859 C 166.67968750000182 248.88837687413988 164.4411112491558 251.1269531249859 161.67968750000182 251.1269531249859 C 158.91826375084784 251.1269531249859 156.67968750000182 248.88837687413988 156.67968750000182 246.1269531249859 C 156.67968750000182 243.36552937583193 158.91826375084784 241.1269531249859 161.67968750000182 241.1269531249859 C 164.4411112491558 241.1269531249859 166.67968750000182 243.36552937583193 166.67968750000182 246.1269531249859 Z" stroke-opacity="1" stroke-linecap="round" stroke-linejoin="round" stroke-miterlimit="10"/><path fill="rgb(0,0,255)" stroke="none" paint-order="stroke fill markers" d=" M 277.7382812500018 237.5839843749859 C 277.7382812500018 240.34540812413988 275.49970499915577 242.5839843749859 272.7382812500018 242.5839843749859 C 269.97685750084787 242.5839843749859 267.7382812500018 240.34540812413988 267.7382812500018 237.5839843749859 C 267.7382812500018 234.82256062583193 269.97685750084787 232.5839843749859 272.7382812500018 232.5839843749859 C 275.49970499915577 232.5839843749859 277.7382812500018 234.82256062583193 277.7382812500018 237.5839843749859 Z" fill-opacity="1"/><path fill="none" stroke="rgb(0,0,0)" paint-order="fill stroke markers" d=" M 277.7382812500018 237.5839843749859 C 277.7382812500018 240.34540812413988 275.49970499915577 242.5839843749859 272.7382812500018 242.5839843749859 C 269.97685750084787 242.5839843749859 267.7382812500018 240.34540812413988 267.7382812500018 237.5839843749859 C 267.7382812500018 234.82256062583193 269.97685750084787 232.5839843749859 272.7382812500018 232.5839843749859 C 275.49970499915577 232.5839843749859 277.7382812500018 234.82256062583193 277.7382812500018 237.5839843749859 Z" stroke-opacity="1" stroke-linecap="round" stroke-linejoin="round" stroke-miterlimit="10"/><path fill="rgb(0,0,255)" stroke="none" paint-order="stroke fill markers" d=" M 354.62500000000205 203.41210937498568 C 354.62500000000205 206.17353312413965 352.386423749156 208.41210937498568 349.62500000000205 208.41210937498568 C 346.8635762508481 208.41210937498568 344.62500000000205 206.17353312413965 344.62500000000205 203.41210937498568 C 344.62500000000205 200.6506856258317 346.8635762508481 198.41210937498568 349.62500000000205 198.41210937498568 C 352.386423749156 198.41210937498568 354.62500000000205 200.6506856258317 354.62500000000205 203.41210937498568 Z" fill-opacity="1"/><path fill="none" stroke="rgb(0,0,0)" paint-order="fill stroke markers" d=" M 354.62500000000205 203.41210937498568 C 354.62500000000205 206.17353312413965 352.386423749156 208.41210937498568 349.62500000000205 208.41210937498568 C 346.8635762508481 208.41210937498568 344.62500000000205 206.17353312413965 344.62500000000205 203.41210937498568 C 344.62500000000205 200.6506856258317 346.8635762508481 198.41210937498568 349.62500000000205 198.41210937498568 C 352.386423749156 198.41210937498568 354.62500000000205 200.6506856258317 354.62500000000205 203.41210937498568 Z" stroke-opacity="1" stroke-linecap="round" stroke-linejoin="round" stroke-miterlimit="10"/><path fill="rgb(0,0,255)" stroke="none" paint-order="stroke fill markers" d=" M 397.3398437500023 117.98242187498477 C 397.3398437500023 120.74384562413873 395.1012674991562 122.98242187498477 392.3398437500023 122.98242187498477 C 389.5784200008483 122.98242187498477 387.3398437500023 120.74384562413873 387.3398437500023 117.98242187498477 C 387.3398437500023 115.2209981258308 389.5784200008483 112.98242187498477 392.3398437500023 112.98242187498477 C 395.1012674991562 112.98242187498477 397.3398437500023 115.2209981258308 397.3398437500023 117.98242187498477 Z" fill-opacity="1"/><path fill="none" stroke="rgb(0,0,0)" paint-order="fill stroke markers" d=" M 397.3398437500023 117.98242187498477 C 397.3398437500023 120.74384562413873 395.1012674991562 122.98242187498477 392.3398437500023 122.98242187498477 C 389.5784200008483 122.98242187498477 387.3398437500023 120.74384562413873 387.3398437500023 117.98242187498477 C 387.3398437500023 115.2209981258308 389.5784200008483 112.98242187498477 392.3398437500023 112.98242187498477 C 395.1012674991562 112.98242187498477 397.3398437500023 115.2209981258308 397.3398437500023 117.98242187498477 Z" stroke-opacity="1" stroke-linecap="round" stroke-linejoin="round" stroke-miterlimit="10"/><path fill="rgb(255,0,0)" stroke="none" paint-order="stroke fill markers" d=" M 303.9999999999998 392.99999999999955 C 303.9999999999998 395.7614237491535 301.7614237491537 397.99999999999955 298.9999999999998 397.99999999999955 C 296.2385762508458 397.99999999999955 293.9999999999998 395.7614237491535 293.9999999999998 392.99999999999955 C 293.9999999999998 390.2385762508456 296.2385762508458 387.99999999999955 298.9999999999998 387.99999999999955 C 301.7614237491537 387.99999999999955 303.9999999999998 390.2385762508456 303.9999999999998 392.99999999999955 Z" fill-opacity="1"/><path fill="none" stroke="rgb(0,0,0)" paint-order="fill stroke markers" d=" M 303.9999999999998 392.99999999999955 C 303.9999999999998 395.7614237491535 301.7614237491537 397.99999999999955 298.9999999999998 397.99999999999955 C 296.2385762508458 397.99999999999955 293.9999999999998 395.7614237491535 293.9999999999998 392.99999999999955 C 293.9999999999998 390.2385762508456 296.2385762508458 387.99999999999955 298.9999999999998 387.99999999999955 C 301.7614237491537 387.99999999999955 303.9999999999998 390.2385762508456 303.9999999999998 392.99999999999955 Z" stroke-opacity="1" stroke-linecap="round" stroke-linejoin="round" stroke-miterlimit="10"/><path fill="rgb(255,0,0)" stroke="none" paint-order="stroke fill markers" d=" M 303.9999999999998 198.93369531248663 C 303.9999999999998 201.6951190616406 301.7614237491537 203.93369531248663 298.9999999999998 203.93369531248663 C 296.2385762508458 203.93369531248663 293.9999999999998 201.6951190616406 293.9999999999998 198.93369531248663 C 293.9999999999998 196.17227156333266 296.2385762508458 193.93369531248663 298.9999999999998 193.93369531248663 C 301.7614237491537 193.93369531248663 303.9999999999998 196.17227156333266 303.9999999999998 198.93369531248663 Z" fill-opacity="1"/><path fill="none" stroke="rgb(0,0,0)" paint-order="fill stroke markers" d=" M 303.9999999999998 198.93369531248663 C 303.9999999999998 201.6951190616406 301.7614237491537 203.93369531248663 298.9999999999998 203.93369531248663 C 296.2385762508458 203.93369531248663 293.9999999999998 201.6951190616406 293.9999999999998 198.93369531248663 C 293.9999999999998 196.17227156333266 296.2385762508458 193.93369531248663 298.9999999999998 193.93369531248663 C 301.7614237491537 193.93369531248663 303.9999999999998 196.17227156333266 303.9999999999998 198.93369531248663 Z" stroke-opacity="1" stroke-linecap="round" stroke-linejoin="round" stroke-miterlimit="10"/><path fill="rgb(255,0,0)" stroke="none" paint-order="stroke fill markers" d=" M 17 202.99999999999955 C 17 205.76142374915352 14.761423749153966 207.99999999999955 12 207.99999999999955 C 9.238576250846034 207.99999999999955 7 205.76142374915352 7 202.99999999999955 C 7 200.23857625084557 9.238576250846034 197.99999999999955 12 197.99999999999955 C 14.761423749153966 197.99999999999955 17 200.23857625084557 17 202.99999999999955 Z" fill-opacity="1"/><path fill="none" stroke="rgb(0,0,0)" paint-order="fill stroke markers" d=" M 17 202.99999999999955 C 17 205.76142374915352 14.761423749153966 207.99999999999955 12 207.99999999999955 C 9.238576250846034 207.99999999999955 7 205.76142374915352 7 202.99999999999955 C 7 200.23857625084557 9.238576250846034 197.99999999999955 12 197.99999999999955 C 14.761423749153966 197.99999999999955 17 200.23857625084557 17 202.99999999999955 Z" stroke-opacity="1" stroke-linecap="round" stroke-linejoin="round" stroke-miterlimit="10"/><g transform="scale(35,35)"><g transform="translate(9.285714285714286,10.730159285714286)"><path fill="rgb(0,0,0)" stroke="none" paint-order="stroke fill markers" d=" M 0.536 -0.401 Q 0.516 -0.41600000000000004 0.488 -0.41600000000000004 Q 0.461 -0.41600000000000004 0.4375 -0.392 Q 0.41400000000000003 -0.368 0.403 -0.325 Q 0.4 -0.316 0.385 -0.257 Q 0.37 -0.198 0.368 -0.189 Q 0.34600000000000003 -0.099 0.34600000000000003 -0.078 Q 0.34600000000000003 -0.028 0.402 -0.028 Q 0.44 -0.028 0.482 -0.0575 Q 0.524 -0.08700000000000001 0.544 -0.149 Q 0.548 -0.162 0.5670000000000001 -0.162 Q 0.591 -0.162 0.591 -0.148 Q 0.591 -0.134 0.578 -0.1095 Q 0.5650000000000001 -0.085 0.542 -0.058 Q 0.519 -0.031 0.48 -0.0115 Q 0.441 0.008 0.397 0.008 Q 0.295 0.008 0.259 -0.053 Q 0.215 0.008 0.152 0.008 Q 0.105 0.008 0.07150000000000001 -0.0165 Q 0.038 -0.041 0.038 -0.08 Q 0.038 -0.115 0.06 -0.1365 Q 0.082 -0.158 0.11 -0.158 Q 0.133 -0.158 0.1465 -0.14400000000000002 Q 0.16 -0.13 0.16 -0.112 Q 0.16 -0.091 0.1455 -0.07050000000000001 Q 0.131 -0.05 0.106 -0.043000000000000003 Q 0.126 -0.028 0.154 -0.028 Q 0.181 -0.028 0.20450000000000002 -0.051500000000000004 Q 0.228 -0.075 0.23900000000000002 -0.11900000000000001 L 0.273 -0.256 Q 0.296 -0.34800000000000003 0.296 -0.366 Q 0.296 -0.41600000000000004 0.24 -0.41600000000000004 Q 0.202 -0.41600000000000004 0.16 -0.3865 Q 0.11800000000000001 -0.357 0.098 -0.295 Q 0.094 -0.28200000000000003 0.075 -0.28200000000000003 Q 0.051000000000000004 -0.28200000000000003 0.051000000000000004 -0.296 Q 0.051000000000000004 -0.31 0.064 -0.3345 Q 0.077 -0.359 0.1 -0.386 Q 0.123 -0.41300000000000003 0.162 -0.4325 Q 0.201 -0.452 0.245 -0.452 Q 0.34700000000000003 -0.452 0.383 -0.391 Q 0.427 -0.452 0.49 -0.452 Q 0.537 -0.452 0.5705 -0.4275 Q 0.604 -0.403 0.604 -0.364 Q 0.604 -0.329 0.582 -0.3075 Q 0.56 -0.28600000000000003 0.532 -0.28600000000000003 Q 0.509 -0.28600000000000003 0.4955 -0.3 Q 0.482 -0.314 0.482 -0.332 Q 0.482 -0.353 0.4965 -0.3735 Q 0.511 -0.394 0.536 -0.401 Z"/></g></g></g></g></svg>