<svg version="1.1" xmlns="http://www.w3.org/2000/svg" xmlns:xlink="http://www.w3.org/1999/xlink" width="487" height="403"><defs><clipPath id="NcmmpguWhqmz"><path fill="none" stroke="none" d=" M 0 0 L 487 0 L 487 403 L 0 403 L 0 0 Z"/></clipPath></defs><g transform="scale(1,1)" clip-path="url(#NcmmpguWhqmz)"><g><path fill="none" stroke="rgb(0,0,0)" paint-order="fill stroke markers" d=" M 10.5 2.5 L 10.5 403.5" stroke-opacity="1" stroke-miterlimit="10"/><path fill="none" stroke="rgb(0,0,0)" paint-order="fill stroke markers" d=" M 10.5 1.5 L 3.5 8.5" stroke-opacity="1" stroke-miterlimit="10"/><path fill="none" stroke="rgb(0,0,0)" paint-order="fill stroke markers" d=" M 10.5 1.5 L 17.5 8.5" stroke-opacity="1" stroke-miterlimit="10"/><path fill="none" stroke="rgb(0,0,0)" paint-order="fill stroke markers" d=" M 0.5 393.5 L 485.5 393.5" stroke-opacity="1" stroke-miterlimit="10"/><path fill="none" stroke="rgb(0,0,0)" paint-order="fill stroke markers" d=" M 486.5 393.5 L 479.5 386.5" stroke-opacity="1" stroke-miterlimit="10"/><path fill="none" stroke="rgb(0,0,0)" paint-order="fill stroke markers" d=" M 486.5 393.5 L 479.5 400.5" stroke-opacity="1" stroke-miterlimit="10"/><path fill="rgb(0,0,255)" stroke="none" paint-order="stroke fill markers" d=" M 89.79296875000159 314.47070312498704 C 89.79296875000159 317.232126874141 87.55439249915555 319.47070312498704 84.79296875000159 319.47070312498704 C 82.03154500084763 319.47070312498704 79.79296875000159 317.232126874141 79.79296875000159 314.47070312498704 C 79.79296875000159 311.7092793758331 82.03154500084763 309.47070312498704 84.79296875000159 309.47070312498704 C 87.55439249915555 309.47070312498704 89.79296875000159 311.7092793758331 89.79296875000159 314.47070312498704 Z" fill-opacity="1"/><path fill="none" stroke="rgb(0,0,0)" paint-order="fill stroke markers" d=" M 89.79296875000159 314.47070312498704 C 89.79296875000159 317.232126874141 87.55439249915555 319.47070312498704 84.79296875000159 319.47070312498704 C 82.03154500084763 319.47070312498704 79.79296875000159 317.232126874141 79.79296875000159 314.47070312498704 C 79.79296875000159 311.7092793758331 82.03154500084763 309.47070312498704 84.79296875000159 309.47070312498704 C 87.55439249915555 309.47070312498704 89.79296875000159 311.7092793758331 89.79296875000159 314.47070312498704 Z" stroke-opacity="1" stroke-linecap="round" stroke-linejoin="round" stroke-miterlimit="10"/><path fill="rgb(0,0,255)" stroke="none" paint-order="stroke fill markers" d=" M 200.8515625000016 254.66992187498658 C 200.8515625000016 257.43134562414053 198.61298624915557 259.6699218749866 195.8515625000016 259.6699218749866 C 193.09013875084761 259.6699218749866 190.8515625000016 257.43134562414053 190.8515625000016 254.66992187498658 C 190.8515625000016 251.9084981258326 193.09013875084761 249.66992187498658 195.8515625000016 249.66992187498658 C 198.61298624915557 249.66992187498658 200.8515625000016 251.9084981258326 200.8515625000016 254.66992187498658 Z" fill-opacity="1"/><path fill="none" stroke="rgb(0,0,0)" paint-order="fill stroke markers" d=" M 200.8515625000016 254.66992187498658 C 200.8515625000016 257.43134562414053 198.61298624915557 259.6699218749866 195.8515625000016 259.6699218749866 C 193.09013875084761 259.6699218749866 190.8515625000016 257.43134562414053 190.8515625000016 254.66992187498658 C 190.8515625000016 251.9084981258326 193.09013875084761 249.66992187498658 195.8515625000016 249.66992187498658 C 198.61298624915557 249.66992187498658 200.8515625000016 251.9084981258326 200.8515625000016 254.66992187498658 Z" stroke-opacity="1" stroke-linecap="round" stroke-linejoin="round" stroke-miterlimit="10"/><path fill="rgb(0,0,255)" stroke="none" paint-order="stroke fill markers" d=" M 166.67968750000182 246.12695312498636 C 166.67968750000182 248.88837687414033 164.4411112491558 251.12695312498636 161.67968750000182 251.12695312498636 C 158.91826375084784 251.12695312498636 156.67968750000182 248.88837687414033 156.67968750000182 246.12695312498636 C 156.67968750000182 243.36552937583238 158.91826375084784 241.12695312498636 161.67968750000182 241.12695312498636 C 164.4411112491558 241.12695312498636 166.67968750000182 243.36552937583238 166.67968750000182 246.12695312498636 Z" fill-opacity="1"/><path fill="none" stroke="rgb(0,0,0)" paint-order="fill stroke markers" d=" M 166.67968750000182 246.12695312498636 C 166.67968750000182 248.88837687414033 164.4411112491558 251.12695312498636 161.67968750000182 251.12695312498636 C 158.91826375084784 251.12695312498636 156.67968750000182 248.88837687414033 156.67968750000182 246.12695312498636 C 156.67968750000182 243.36552937583238 158.91826375084784 241.12695312498636 161.67968750000182 241.12695312498636 C 164.4411112491558 241.12695312498636 166.67968750000182 243.36552937583238 166.67968750000182 246.12695312498636 Z" stroke-opacity="1" stroke-linecap="round" stroke-linejoin="round" stroke-miterlimit="10"/><path fill="rgb(0,0,255)" stroke="none" paint-order="stroke fill markers" d=" M 277.7382812500018 237.58398437498636 C 277.7382812500018 240.34540812414033 275.49970499915577 242.58398437498636 272.7382812500018 242.58398437498636 C 269.97685750084787 242.58398437498636 267.7382812500018 240.34540812414033 267.7382812500018 237.58398437498636 C 267.7382812500018 234.82256062583238 269.97685750084787 232.58398437498636 272.7382812500018 232.58398437498636 C 275.49970499915577 232.58398437498636 277.7382812500018 234.82256062583238 277.7382812500018 237.58398437498636 Z" fill-opacity="1"/><path fill="none" stroke="rgb(0,0,0)" paint-order="fill stroke markers" d=" M 277.7382812500018 237.58398437498636 C 277.7382812500018 240.34540812414033 275.49970499915577 242.58398437498636 272.7382812500018 242.58398437498636 C 269.97685750084787 242.58398437498636 267.7382812500018 240.34540812414033 267.7382812500018 237.58398437498636 C 267.7382812500018 234.82256062583238 269.97685750084787 232.58398437498636 272.7382812500018 232.58398437498636 C 275.49970499915577 232.58398437498636 277.7382812500018 234.82256062583238 277.7382812500018 237.58398437498636 Z" stroke-opacity="1" stroke-linecap="round" stroke-linejoin="round" stroke-miterlimit="10"/><path fill="rgb(0,0,255)" stroke="none" paint-order="stroke fill markers" d=" M 354.62500000000205 203.41210937498613 C 354.62500000000205 206.1735331241401 352.386423749156 208.41210937498613 349.62500000000205 208.41210937498613 C 346.8635762508481 208.41210937498613 344.62500000000205 206.1735331241401 344.62500000000205 203.41210937498613 C 344.62500000000205 200.65068562583215 346.8635762508481 198.41210937498613 349.62500000000205 198.41210937498613 C 352.386423749156 198.41210937498613 354.62500000000205 200.65068562583215 354.62500000000205 203.41210937498613 Z" fill-opacity="1"/><path fill="none" stroke="rgb(0,0,0)" paint-order="fill stroke markers" d=" M 354.62500000000205 203.41210937498613 C 354.62500000000205 206.1735331241401 352.386423749156 208.41210937498613 349.62500000000205 208.41210937498613 C 346.8635762508481 208.41210937498613 344.62500000000205 206.1735331241401 344.62500000000205 203.41210937498613 C 344.62500000000205 200.65068562583215 346.8635762508481 198.41210937498613 349.62500000000205 198.41210937498613 C 352.386423749156 198.41210937498613 354.62500000000205 200.65068562583215 354.62500000000205 203.41210937498613 Z" stroke-opacity="1" stroke-linecap="round" stroke-linejoin="round" stroke-miterlimit="10"/><path fill="rgb(0,0,255)" stroke="none" paint-order="stroke fill markers" d=" M 397.33984375000205 117.98242187498522 C 397.33984375000205 120.74384562413918 395.101267499156 122.98242187498522 392.33984375000205 122.98242187498522 C 389.5784200008481 122.98242187498522 387.33984375000205 120.74384562413918 387.33984375000205 117.98242187498522 C 387.33984375000205 115.22099812583126 389.5784200008481 112.98242187498522 392.33984375000205 112.98242187498522 C 395.101267499156 112.98242187498522 397.33984375000205 115.22099812583126 397.33984375000205 117.98242187498522 Z" fill-opacity="1"/><path fill="none" stroke="rgb(0,0,0)" paint-order="fill stroke markers" d=" M 397.33984375000205 117.98242187498522 C 397.33984375000205 120.74384562413918 395.101267499156 122.98242187498522 392.33984375000205 122.98242187498522 C 389.5784200008481 122.98242187498522 387.33984375000205 120.74384562413918 387.33984375000205 117.98242187498522 C 387.33984375000205 115.22099812583126 389.5784200008481 112.98242187498522 392.33984375000205 112.98242187498522 C 395.101267499156 112.98242187498522 397.33984375000205 115.22099812583126 397.33984375000205 117.98242187498522 Z" stroke-opacity="1" stroke-linecap="round" stroke-linejoin="round" stroke-miterlimit="10"/><g transform="scale(31,31) translate(11.387096774193548,12.193548387096774) scale(0.1,0.1)"><text fill="rgb(0,0,0)" stroke="none" font-family="Serif" font-size="10px" font-style="normal" font-weight="normal" text-decoration="normal" x="0" y="0" text-anchor="start" dominant-baseline="alphabetic">父亲身高</text><g transform="scale(10,10) translate(-11.387096774193548,-12.193548387096774)"/></g><g transform="scale(31,31) translate(0.6774193548387096,1.3548387096774195) scale(0.1,0.1)"><text fill="rgb(0,0,0)" stroke="none" font-family="Serif" font-size="10px" font-style="normal" font-weight="normal" text-decoration="normal" x="0" y="0" text-anchor="start" dominant-baseline="alphabetic">儿子身高</text><g transform="scale(10,10) translate(-0.6774193548387096,-1.3548387096774195)"/></g></g></g></svg>