<svg version="1.1" xmlns="http://www.w3.org/2000/svg" xmlns:xlink="http://www.w3.org/1999/xlink" width="513" height="300"><defs><clipPath id="HArgSRXwLczH"><path fill="none" stroke="none" d=" M 0 0 L 513 0 L 513 300 L 0 300 L 0 0 Z"/></clipPath></defs><g transform="scale(1,1)" clip-path="url(#HArgSRXwLczH)"><g><path fill="none" stroke="rgb(0,0,0)" paint-order="fill stroke markers" d=" M 10.5 2.5 L 10.5 300.5" stroke-opacity="1" stroke-miterlimit="10"/><path fill="none" stroke="rgb(0,0,0)" paint-order="fill stroke markers" d=" M 10.5 1.5 L 6.5 5.5" stroke-opacity="1" stroke-miterlimit="10"/><path fill="none" stroke="rgb(0,0,0)" paint-order="fill stroke markers" d=" M 10.5 1.5 L 14.5 5.5" stroke-opacity="1" stroke-miterlimit="10"/><path fill="none" stroke="rgb(0,0,0)" paint-order="fill stroke markers" d=" M 0.5 289.5 L 511.5 289.5" stroke-opacity="1" stroke-miterlimit="10"/><path fill="none" stroke="rgb(0,0,0)" paint-order="fill stroke markers" d=" M 512.5 289.5 L 508.5 285.5" stroke-opacity="1" stroke-miterlimit="10"/><path fill="none" stroke="rgb(0,0,0)" paint-order="fill stroke markers" d=" M 512.5 289.5 L 508.5 293.5" stroke-opacity="1" stroke-miterlimit="10"/><path fill="none" stroke="rgb(255,102,153)" paint-order="fill stroke markers" d=" M 86.79296875000182 231.4707031249843 L 86.79296875000182 152.3818644919545" stroke-opacity="1" stroke-linejoin="round" stroke-miterlimit="10" stroke-width="1.5" stroke-dasharray="9.5,8"/><path fill="none" stroke="rgb(255,102,153)" paint-order="fill stroke markers" d=" M 197.85156250000182 171.66992187498363 L 197.85156250000182 124.77958241958618" stroke-opacity="1" stroke-linejoin="round" stroke-miterlimit="10" stroke-width="1.5" stroke-dasharray="9.5,8"/><path fill="none" stroke="rgb(255,102,153)" paint-order="fill stroke markers" d=" M 163.67968750000205 163.12695312498363 L 163.67968750000205 133.27259228800722" stroke-opacity="1" stroke-linejoin="round" stroke-miterlimit="10" stroke-width="1.5" stroke-dasharray="9.5,8"/><path fill="none" stroke="rgb(255,102,153)" paint-order="fill stroke markers" d=" M 274.73828125000205 154.5839843749834 L 274.73828125000205 105.67031021563866" stroke-opacity="1" stroke-linejoin="round" stroke-miterlimit="10" stroke-width="1.5" stroke-dasharray="9.5,8"/><path fill="none" stroke="rgb(255,102,153)" paint-order="fill stroke markers" d=" M 351.6250000000023 120.41210937498317 L 351.6250000000023 86.56103801169138" stroke-opacity="1" stroke-linejoin="round" stroke-miterlimit="10" stroke-width="1.5" stroke-dasharray="9.5,8"/><path fill="none" stroke="rgb(255,102,153)" paint-order="fill stroke markers" d=" M 394.3398437500023 34.982421874982265 L 394.3398437500023 75.94477567616491" stroke-opacity="1" stroke-linejoin="round" stroke-miterlimit="10" stroke-width="1.5" stroke-dasharray="9.5,8"/><path fill="none" stroke="rgb(0,0,0)" paint-order="fill stroke markers" d=" M -5 175.19590643274427 L 518 45.21052631578539" stroke-opacity="0.6980392156862745" stroke-linecap="round" stroke-linejoin="round" stroke-miterlimit="10" stroke-width="1.5"/><path fill="rgb(0,0,255)" stroke="none" paint-order="stroke fill markers" d=" M 91.79296875000182 231.4707031249843 C 91.79296875000182 234.2321268741383 89.55439249915578 236.4707031249843 86.79296875000182 236.4707031249843 C 84.03154500084786 236.4707031249843 81.79296875000182 234.2321268741383 81.79296875000182 231.4707031249843 C 81.79296875000182 228.70927937583033 84.03154500084786 226.4707031249843 86.79296875000182 226.4707031249843 C 89.55439249915578 226.4707031249843 91.79296875000182 228.70927937583033 91.79296875000182 231.4707031249843 Z" fill-opacity="1"/><path fill="none" stroke="rgb(0,0,0)" paint-order="fill stroke markers" d=" M 91.79296875000182 231.4707031249843 C 91.79296875000182 234.2321268741383 89.55439249915578 236.4707031249843 86.79296875000182 236.4707031249843 C 84.03154500084786 236.4707031249843 81.79296875000182 234.2321268741383 81.79296875000182 231.4707031249843 C 81.79296875000182 228.70927937583033 84.03154500084786 226.4707031249843 86.79296875000182 226.4707031249843 C 89.55439249915578 226.4707031249843 91.79296875000182 228.70927937583033 91.79296875000182 231.4707031249843 Z" stroke-opacity="1" stroke-linecap="round" stroke-linejoin="round" stroke-miterlimit="10"/><path fill="rgb(0,0,255)" stroke="none" paint-order="stroke fill markers" d=" M 202.85156250000182 171.66992187498363 C 202.85156250000182 174.4313456241376 200.6129862491558 176.66992187498363 197.85156250000182 176.66992187498363 C 195.09013875084784 176.66992187498363 192.85156250000182 174.4313456241376 192.85156250000182 171.66992187498363 C 192.85156250000182 168.90849812582965 195.09013875084784 166.66992187498363 197.85156250000182 166.66992187498363 C 200.6129862491558 166.66992187498363 202.85156250000182 168.90849812582965 202.85156250000182 171.66992187498363 Z" fill-opacity="1"/><path fill="none" stroke="rgb(0,0,0)" paint-order="fill stroke markers" d=" M 202.85156250000182 171.66992187498363 C 202.85156250000182 174.4313456241376 200.6129862491558 176.66992187498363 197.85156250000182 176.66992187498363 C 195.09013875084784 176.66992187498363 192.85156250000182 174.4313456241376 192.85156250000182 171.66992187498363 C 192.85156250000182 168.90849812582965 195.09013875084784 166.66992187498363 197.85156250000182 166.66992187498363 C 200.6129862491558 166.66992187498363 202.85156250000182 168.90849812582965 202.85156250000182 171.66992187498363 Z" stroke-opacity="1" stroke-linecap="round" stroke-linejoin="round" stroke-miterlimit="10"/><path fill="rgb(0,0,255)" stroke="none" paint-order="stroke fill markers" d=" M 168.67968750000205 163.12695312498363 C 168.67968750000205 165.8883768741376 166.44111124915602 168.12695312498363 163.67968750000205 168.12695312498363 C 160.91826375084807 168.12695312498363 158.67968750000205 165.8883768741376 158.67968750000205 163.12695312498363 C 158.67968750000205 160.36552937582965 160.91826375084807 158.12695312498363 163.67968750000205 158.12695312498363 C 166.44111124915602 158.12695312498363 168.67968750000205 160.36552937582965 168.67968750000205 163.12695312498363 Z" fill-opacity="1"/><path fill="none" stroke="rgb(0,0,0)" paint-order="fill stroke markers" d=" M 168.67968750000205 163.12695312498363 C 168.67968750000205 165.8883768741376 166.44111124915602 168.12695312498363 163.67968750000205 168.12695312498363 C 160.91826375084807 168.12695312498363 158.67968750000205 165.8883768741376 158.67968750000205 163.12695312498363 C 158.67968750000205 160.36552937582965 160.91826375084807 158.12695312498363 163.67968750000205 158.12695312498363 C 166.44111124915602 158.12695312498363 168.67968750000205 160.36552937582965 168.67968750000205 163.12695312498363 Z" stroke-opacity="1" stroke-linecap="round" stroke-linejoin="round" stroke-miterlimit="10"/><path fill="rgb(0,0,255)" stroke="none" paint-order="stroke fill markers" d=" M 279.73828125000205 154.5839843749834 C 279.73828125000205 157.34540812413738 277.499704999156 159.5839843749834 274.73828125000205 159.5839843749834 C 271.9768575008481 159.5839843749834 269.73828125000205 157.34540812413738 269.73828125000205 154.5839843749834 C 269.73828125000205 151.82256062582942 271.9768575008481 149.5839843749834 274.73828125000205 149.5839843749834 C 277.499704999156 149.5839843749834 279.73828125000205 151.82256062582942 279.73828125000205 154.5839843749834 Z" fill-opacity="1"/><path fill="none" stroke="rgb(0,0,0)" paint-order="fill stroke markers" d=" M 279.73828125000205 154.5839843749834 C 279.73828125000205 157.34540812413738 277.499704999156 159.5839843749834 274.73828125000205 159.5839843749834 C 271.9768575008481 159.5839843749834 269.73828125000205 157.34540812413738 269.73828125000205 154.5839843749834 C 269.73828125000205 151.82256062582942 271.9768575008481 149.5839843749834 274.73828125000205 149.5839843749834 C 277.499704999156 149.5839843749834 279.73828125000205 151.82256062582942 279.73828125000205 154.5839843749834 Z" stroke-opacity="1" stroke-linecap="round" stroke-linejoin="round" stroke-miterlimit="10"/><path fill="rgb(0,0,255)" stroke="none" paint-order="stroke fill markers" d=" M 356.6250000000023 120.41210937498317 C 356.6250000000023 123.17353312413714 354.3864237491562 125.41210937498317 351.6250000000023 125.41210937498317 C 348.8635762508483 125.41210937498317 346.6250000000023 123.17353312413714 346.6250000000023 120.41210937498317 C 346.6250000000023 117.65068562582921 348.8635762508483 115.41210937498317 351.6250000000023 115.41210937498317 C 354.3864237491562 115.41210937498317 356.6250000000023 117.65068562582921 356.6250000000023 120.41210937498317 Z" fill-opacity="1"/><path fill="none" stroke="rgb(0,0,0)" paint-order="fill stroke markers" d=" M 356.6250000000023 120.41210937498317 C 356.6250000000023 123.17353312413714 354.3864237491562 125.41210937498317 351.6250000000023 125.41210937498317 C 348.8635762508483 125.41210937498317 346.6250000000023 123.17353312413714 346.6250000000023 120.41210937498317 C 346.6250000000023 117.65068562582921 348.8635762508483 115.41210937498317 351.6250000000023 115.41210937498317 C 354.3864237491562 115.41210937498317 356.6250000000023 117.65068562582921 356.6250000000023 120.41210937498317 Z" stroke-opacity="1" stroke-linecap="round" stroke-linejoin="round" stroke-miterlimit="10"/><path fill="rgb(0,0,255)" stroke="none" paint-order="stroke fill markers" d=" M 399.3398437500023 34.982421874982265 C 399.3398437500023 37.74384562413623 397.1012674991562 39.982421874982265 394.3398437500023 39.982421874982265 C 391.5784200008483 39.982421874982265 389.3398437500023 37.74384562413623 389.3398437500023 34.982421874982265 C 389.3398437500023 32.220998125828295 391.5784200008483 29.982421874982265 394.3398437500023 29.982421874982265 C 397.1012674991562 29.982421874982265 399.3398437500023 32.220998125828295 399.3398437500023 34.982421874982265 Z" fill-opacity="1"/><path fill="none" stroke="rgb(0,0,0)" paint-order="fill stroke markers" d=" M 399.3398437500023 34.982421874982265 C 399.3398437500023 37.74384562413623 397.1012674991562 39.982421874982265 394.3398437500023 39.982421874982265 C 391.5784200008483 39.982421874982265 389.3398437500023 37.74384562413623 389.3398437500023 34.982421874982265 C 389.3398437500023 32.220998125828295 391.5784200008483 29.982421874982265 394.3398437500023 29.982421874982265 C 397.1012674991562 29.982421874982265 399.3398437500023 32.220998125828295 399.3398437500023 34.982421874982265 Z" stroke-opacity="1" stroke-linecap="round" stroke-linejoin="round" stroke-miterlimit="10"/><g transform="scale(21,21) translate(19.761904761904763,13.428571428571429) scale(0.1,0.1)"><text fill="rgb(0,0,0)" stroke="none" font-family="Serif" font-size="10px" font-style="normal" font-weight="normal" text-decoration="normal" x="0" y="0" text-anchor="start" dominant-baseline="alphabetic">父亲身高</text><g transform="scale(10,10) translate(-19.761904761904763,-13.428571428571429)"/></g><g transform="scale(21,21) translate(0.7619047619047619,1.7142857142857144) scale(0.1,0.1)"><text fill="rgb(0,0,0)" stroke="none" font-family="Serif" font-size="10px" font-style="normal" font-weight="normal" text-decoration="normal" x="0" y="0" text-anchor="start" dominant-baseline="alphabetic">儿子身高</text><g transform="scale(10,10) translate(-0.7619047619047619,-1.7142857142857144)"/></g><g transform="scale(21,21)"><g transform="translate(12.047619047619047,1.7446437238095234)"><path fill="rgb(0,0,0)" stroke="none" paint-order="stroke fill markers" d=" M 0.52490234375 1.7568359375 Q 0.431640625 1.67578125 0.365478515625 1.57275390625 Q 0.29931640625 1.4697265625 0.258544921875 1.3525390625 Q 0.2177734375 1.2353515625 0.198974609375 1.11181640625 Q 0.18017578125 0.98828125 0.18017578125 0.85986328125 Q 0.18017578125 0.73095703125 0.198974609375 0.607177734375 Q 0.2177734375 0.4833984375 0.258544921875 0.3662109375 Q 0.29931640625 0.2490234375 0.365478515625 0.14599609375 Q 0.431640625 0.04296875 0.52490234375 -0.0380859375 Q 0.52490234375 -0.0400390625 0.52978515625 -0.0400390625 L 0.55322265625 -0.0400390625 Q 0.55615234375 -0.0400390625 0.55859375 -0.036865234375 Q 0.56103515625 -0.03369140625 0.56103515625 -0.03076171875 Q 0.56103515625 -0.02685546875 0.55908203125 -0.02490234375 Q 0.4736328125 0.060546875 0.416015625 0.16259765625 Q 0.3583984375 0.2646484375 0.32373046875 0.381103515625 Q 0.2890625 0.49755859375 0.2744140625 0.616943359375 Q 0.259765625 0.736328125 0.259765625 0.86083984375 Q 0.259765625 0.98486328125 0.2744140625 1.104736328125 Q 0.2890625 1.224609375 0.32373046875 1.33984375 Q 0.3583984375 1.455078125 0.416748046875 1.5576171875 Q 0.47509765625 1.66015625 0.55908203125 1.744140625 Q 0.56103515625 1.74609375 0.56103515625 1.75 Q 0.56103515625 1.75244140625 0.558349609375 1.755615234375 Q 0.5556640625 1.7587890625 0.55322265625 1.7587890625 L 0.52978515625 1.7587890625 Q 0.52490234375 1.7587890625 0.52490234375 1.7568359375 Z"/></g><g transform="translate(12.644843047619048,2.8546537238095233)"><path fill="rgb(0,0,0)" stroke="none" paint-order="stroke fill markers" d=" M 0.486 -0.381 L 0.39 0.001 Q 0.366 0.099 0.28300000000000003 0.16 Q 0.222 0.20500000000000002 0.156 0.20500000000000002 Q 0.089 0.20500000000000002 0.061 0.159 Q 0.05 0.14 0.05 0.11800000000000001 Q 0.05 0.067 0.091 0.055 Q 0.099 0.053 0.106 0.053 Q 0.138 0.053 0.14200000000000002 0.081 Q 0.14300000000000002 0.084 0.14300000000000002 0.088 Q 0.14300000000000002 0.111 0.123 0.129 Q 0.109 0.14100000000000001 0.08 0.14100000000000001 Q 0.098 0.183 0.156 0.183 Q 0.218 0.183 0.266 0.12 Q 0.305 0.068 0.328 -0.021 Q 0.329 -0.025 0.331 -0.034 Q 0.28600000000000003 0.011 0.23 0.011 Q 0.15 0.011 0.121 -0.048 Q 0.108 -0.074 0.108 -0.108 Q 0.108 -0.163 0.161 -0.305 Q 0.163 -0.311 0.166 -0.318 Q 0.183 -0.364 0.183 -0.388 Q 0.183 -0.42 0.158 -0.42 Q 0.10300000000000001 -0.42 0.068 -0.329 L 0.068 -0.328 Q 0.062 -0.313 0.057 -0.296 Q 0.046 -0.279 0.041 -0.278 Q 0.029 -0.278 0.029 -0.28800000000000003 Q 0.029 -0.306 0.05 -0.35100000000000003 Q 0.094 -0.442 0.161 -0.442 Q 0.214 -0.442 0.23500000000000001 -0.397 Q 0.243 -0.38 0.243 -0.36 Q 0.243 -0.339 0.223 -0.28800000000000003 Q 0.17200000000000001 -0.156 0.17200000000000001 -0.092 Q 0.17200000000000001 -0.011 0.234 -0.011 Q 0.292 -0.011 0.335 -0.073 Q 0.34500000000000003 -0.088 0.34700000000000003 -0.096 L 0.392 -0.276 Q 0.399 -0.309 0.41200000000000003 -0.356 Q 0.422 -0.399 0.426 -0.41000000000000003 Q 0.439 -0.431 0.461 -0.431 Q 0.486 -0.426 0.49 -0.404 Q 0.49 -0.395 0.486 -0.381 Z"/></g><g transform="translate(13.135125047619049,3.0046537238095232) scale(0.7,0.7)"><path fill="rgb(0,0,0)" stroke="none" paint-order="stroke fill markers" d=" M 0.28400000000000003 -0.625 Q 0.28400000000000003 -0.594 0.253 -0.578 Q 0.242 -0.5720000000000001 0.231 -0.5720000000000001 Q 0.201 -0.5720000000000001 0.194 -0.599 Q 0.193 -0.604 0.193 -0.608 Q 0.193 -0.636 0.221 -0.653 Q 0.234 -0.661 0.247 -0.661 Q 0.277 -0.661 0.28300000000000003 -0.634 L 0.28300000000000003 -0.633 Q 0.28400000000000003 -0.629 0.28400000000000003 -0.625 M 0.20800000000000002 -0.249 L 0.169 -0.14400000000000002 Q 0.14100000000000001 -0.063 0.14 -0.044 Q 0.14 -0.011 0.164 -0.011 Q 0.227 -0.011 0.262 -0.123 L 0.266 -0.135 Q 0.271 -0.151 0.276 -0.152 L 0.276 -0.153 L 0.281 -0.153 Q 0.293 -0.153 0.293 -0.14300000000000002 Q 0.293 -0.125 0.271 -0.079 Q 0.228 0.011 0.162 0.011 Q 0.109 0.011 0.088 -0.033 Q 0.08 -0.051000000000000004 0.08 -0.07100000000000001 Q 0.08 -0.091 0.10300000000000001 -0.151 Q 0.17300000000000001 -0.339 0.17200000000000001 -0.336 Q 0.183 -0.364 0.183 -0.388 Q 0.183 -0.42 0.158 -0.42 Q 0.10300000000000001 -0.42 0.068 -0.329 L 0.068 -0.328 Q 0.062 -0.313 0.057 -0.296 Q 0.046 -0.279 0.041 -0.278 Q 0.029 -0.278 0.029 -0.28800000000000003 Q 0.029 -0.306 0.051000000000000004 -0.35100000000000003 Q 0.094 -0.442 0.161 -0.442 Q 0.214 -0.442 0.23500000000000001 -0.397 Q 0.243 -0.38 0.243 -0.36 Q 0.243 -0.34 0.23 -0.307 Q 0.213 -0.261 0.20800000000000002 -0.249 Z"/></g><g transform="translate(13.598507036507936,2.8546537238095233)"><path fill="rgb(0,0,0)" stroke="none" paint-order="stroke fill markers" d=" M 0.661 -0.23 L 0.116 -0.23 Q 0.084 -0.23 0.083 -0.25 Q 0.083 -0.27 0.116 -0.27 L 0.661 -0.27 Q 0.6930000000000001 -0.27 0.6940000000000001 -0.25 Q 0.6940000000000001 -0.23 0.661 -0.23 Z"/></g><g transform="translate(14.598510925396823,2.8546537238095233)"><path fill="rgb(0,0,0)" stroke="none" paint-order="stroke fill markers" d=" M 0.28700000000000003 -0.683 L 0.209 -0.365 Q 0.271 -0.442 0.357 -0.442 Q 0.446 -0.442 0.467 -0.373 L 0.467 -0.372 Q 0.47200000000000003 -0.355 0.47200000000000003 -0.335 Q 0.47200000000000003 -0.279 0.41100000000000003 -0.115 Q 0.393 -0.07100000000000001 0.393 -0.044 Q 0.393 -0.011 0.417 -0.011 Q 0.47900000000000004 -0.011 0.515 -0.121 L 0.519 -0.135 Q 0.524 -0.151 0.529 -0.152 L 0.529 -0.153 L 0.534 -0.153 Q 0.546 -0.153 0.546 -0.14300000000000002 Q 0.546 -0.126 0.525 -0.08 Q 0.482 0.011 0.41500000000000004 0.011 Q 0.364 0.011 0.342 -0.032 Q 0.333 -0.05 0.333 -0.07100000000000001 Q 0.333 -0.089 0.34600000000000003 -0.126 Q 0.40800000000000003 -0.28400000000000003 0.40800000000000003 -0.35000000000000003 Q 0.40800000000000003 -0.42 0.354 -0.42 Q 0.306 -0.42 0.258 -0.385 Q 0.221 -0.356 0.193 -0.299 L 0.19 -0.293 Q 0.186 -0.269 0.179 -0.248 Q 0.17400000000000002 -0.225 0.162 -0.181 L 0.14 -0.091 L 0.121 -0.015 Q 0.114 0.006 0.09 0.01 Q 0.08700000000000001 0.011 0.084 0.011 Q 0.06 0.011 0.056 -0.01 Q 0.055 -0.014 0.055 -0.017 Q 0.055 -0.025 0.059000000000000004 -0.039 L 0.20400000000000001 -0.615 L 0.20700000000000002 -0.635 Q 0.20700000000000002 -0.646 0.193 -0.649 L 0.193 -0.649 Q 0.181 -0.652 0.157 -0.652 Q 0.135 -0.652 0.133 -0.664 Q 0.133 -0.681 0.152 -0.684 L 0.274 -0.6940000000000001 Q 0.28700000000000003 -0.6940000000000001 0.28700000000000003 -0.683 Z"/></g><g transform="translate(15.174670425396823,2.8546537238095233)"><path fill="rgb(0,0,0)" stroke="none" paint-order="stroke fill markers" d=" M 0.331 0.24 L 0.331 0.24 Q 0.331 0.25 0.321 0.25 Q 0.309 0.25 0.268 0.209 Q 0.20600000000000002 0.147 0.165 0.062 Q 0.099 -0.074 0.099 -0.25 Q 0.099 -0.419 0.162 -0.555 Q 0.214 -0.666 0.294 -0.733 Q 0.315 -0.75 0.321 -0.75 Q 0.331 -0.75 0.331 -0.74 Q 0.331 -0.735 0.318 -0.723 Q 0.157 -0.559 0.157 -0.25 Q 0.157 0.058 0.314 0.218 Q 0.331 0.23500000000000001 0.331 0.24 Z"/></g><g transform="translate(15.563560425396822,2.8546537238095233)"><path fill="rgb(0,0,0)" stroke="none" paint-order="stroke fill markers" d=" M 0.334 -0.302 L 0.3 -0.165 Q 0.28300000000000003 -0.097 0.28300000000000003 -0.077 Q 0.28300000000000003 -0.025 0.32 -0.014 Q 0.328 -0.011 0.338 -0.011 Q 0.388 -0.011 0.429 -0.061 Q 0.456 -0.093 0.47100000000000003 -0.14200000000000002 Q 0.47400000000000003 -0.153 0.484 -0.153 Q 0.496 -0.153 0.496 -0.14300000000000002 Q 0.496 -0.11800000000000001 0.465 -0.07100000000000001 Q 0.41100000000000003 0.011 0.336 0.011 Q 0.268 0.011 0.23700000000000002 -0.046 Q 0.231 -0.055 0.228 -0.065 Q 0.20400000000000001 -0.017 0.162 0.002 Q 0.14300000000000002 0.011 0.123 0.011 Q 0.063 0.011 0.039 -0.024 Q 0.029 -0.037 0.029 -0.055 Q 0.029 -0.092 0.061 -0.107 Q 0.07200000000000001 -0.113 0.084 -0.113 Q 0.114 -0.113 0.12 -0.088 Q 0.121 -0.083 0.121 -0.078 Q 0.121 -0.044 0.08700000000000001 -0.028 Q 0.081 -0.025 0.074 -0.024 Q 0.095 -0.011 0.124 -0.011 Q 0.177 -0.011 0.20800000000000002 -0.082 Q 0.214 -0.097 0.219 -0.115 Q 0.273 -0.319 0.273 -0.353 Q 0.267 -0.41500000000000004 0.219 -0.42 Q 0.167 -0.42 0.124 -0.367 L 0.124 -0.366 Q 0.124 -0.365 0.123 -0.365 Q 0.108 -0.34500000000000003 0.096 -0.319 Q 0.091 -0.307 0.08700000000000001 -0.295 L 0.085 -0.289 Q 0.083 -0.278 0.07200000000000001 -0.278 Q 0.06 -0.278 0.06 -0.28800000000000003 Q 0.06 -0.313 0.092 -0.36 Q 0.146 -0.442 0.221 -0.442 Q 0.298 -0.442 0.329 -0.366 Q 0.361 -0.428 0.41400000000000003 -0.44 Q 0.424 -0.442 0.434 -0.442 Q 0.493 -0.442 0.517 -0.40900000000000003 Q 0.527 -0.395 0.527 -0.376 Q 0.527 -0.335 0.49 -0.321 Q 0.481 -0.318 0.47300000000000003 -0.318 Q 0.442 -0.318 0.436 -0.34500000000000003 Q 0.435 -0.34900000000000003 0.435 -0.353 Q 0.435 -0.383 0.464 -0.4 Q 0.47300000000000003 -0.405 0.483 -0.40700000000000003 Q 0.462 -0.42 0.433 -0.42 Q 0.365 -0.42 0.337 -0.314 Q 0.335 -0.308 0.334 -0.302 Z"/></g><g transform="translate(16.135088425396823,3.0046537238095232) scale(0.7,0.7)"><path fill="rgb(0,0,0)" stroke="none" paint-order="stroke fill markers" d=" M 0.28400000000000003 -0.625 Q 0.28400000000000003 -0.594 0.253 -0.578 Q 0.242 -0.5720000000000001 0.231 -0.5720000000000001 Q 0.201 -0.5720000000000001 0.194 -0.599 Q 0.193 -0.604 0.193 -0.608 Q 0.193 -0.636 0.221 -0.653 Q 0.234 -0.661 0.247 -0.661 Q 0.277 -0.661 0.28300000000000003 -0.634 L 0.28300000000000003 -0.633 Q 0.28400000000000003 -0.629 0.28400000000000003 -0.625 M 0.20800000000000002 -0.249 L 0.169 -0.14400000000000002 Q 0.14100000000000001 -0.063 0.14 -0.044 Q 0.14 -0.011 0.164 -0.011 Q 0.227 -0.011 0.262 -0.123 L 0.266 -0.135 Q 0.271 -0.151 0.276 -0.152 L 0.276 -0.153 L 0.281 -0.153 Q 0.293 -0.153 0.293 -0.14300000000000002 Q 0.293 -0.125 0.271 -0.079 Q 0.228 0.011 0.162 0.011 Q 0.109 0.011 0.088 -0.033 Q 0.08 -0.051000000000000004 0.08 -0.07100000000000001 Q 0.08 -0.091 0.10300000000000001 -0.151 Q 0.17300000000000001 -0.339 0.17200000000000001 -0.336 Q 0.183 -0.364 0.183 -0.388 Q 0.183 -0.42 0.158 -0.42 Q 0.10300000000000001 -0.42 0.068 -0.329 L 0.068 -0.328 Q 0.062 -0.313 0.057 -0.296 Q 0.046 -0.279 0.041 -0.278 Q 0.029 -0.278 0.029 -0.28800000000000003 Q 0.029 -0.306 0.051000000000000004 -0.35100000000000003 Q 0.094 -0.442 0.161 -0.442 Q 0.214 -0.442 0.23500000000000001 -0.397 Q 0.243 -0.38 0.243 -0.36 Q 0.243 -0.34 0.23 -0.307 Q 0.213 -0.261 0.20800000000000002 -0.249 Z"/></g><g transform="translate(16.376247525396824,2.8546537238095233)"><path fill="rgb(0,0,0)" stroke="none" paint-order="stroke fill markers" d=" M 0.289 -0.25 L 0.289 -0.25 Q 0.289 -0.081 0.226 0.055 Q 0.17400000000000002 0.166 0.094 0.233 Q 0.073 0.25 0.067 0.25 Q 0.057 0.25 0.057 0.24 Q 0.057 0.23500000000000001 0.07 0.223 Q 0.231 0.059000000000000004 0.231 -0.25 Q 0.231 -0.555 0.081 -0.712 L 0.076 -0.717 Q 0.057 -0.735 0.057 -0.74 Q 0.057 -0.75 0.067 -0.75 Q 0.079 -0.75 0.12 -0.709 Q 0.182 -0.647 0.223 -0.562 Q 0.289 -0.426 0.289 -0.25 Z"/></g><g transform="translate(16.765137525396824,1.7446437238095234)"><path fill="rgb(0,0,0)" stroke="none" paint-order="stroke fill markers" d=" M 0.0439453125 1.7587890625 Q 0.03515625 1.7587890625 0.03515625 1.75 Q 0.03515625 1.74609375 0.037109375 1.744140625 Q 0.1220703125 1.6591796875 0.1806640625 1.555419921875 Q 0.2392578125 1.45166015625 0.27294921875 1.33837890625 Q 0.306640625 1.22509765625 0.3212890625 1.10546875 Q 0.3359375 0.98583984375 0.3359375 0.85888671875 Q 0.3359375 0.72900390625 0.321044921875 0.6103515625 Q 0.30615234375 0.49169921875 0.2724609375 0.37890625 Q 0.23876953125 0.26611328125 0.180419921875 0.162353515625 Q 0.1220703125 0.05859375 0.037109375 -0.02490234375 Q 0.03515625 -0.02685546875 0.03515625 -0.03076171875 Q 0.03515625 -0.0400390625 0.0439453125 -0.0400390625 L 0.06689453125 -0.0400390625 Q 0.06982421875 -0.0400390625 0.07177734375 -0.0380859375 Q 0.1640625 0.04150390625 0.23095703125 0.145751953125 Q 0.2978515625 0.25 0.338623046875 0.366943359375 Q 0.37939453125 0.48388671875 0.397705078125 0.607421875 Q 0.416015625 0.73095703125 0.416015625 0.85986328125 Q 0.416015625 0.98828125 0.397705078125 1.111572265625 Q 0.37939453125 1.23486328125 0.338623046875 1.35205078125 Q 0.2978515625 1.46923828125 0.23095703125 1.5732421875 Q 0.1640625 1.67724609375 0.07177734375 1.7568359375 Q 0.06982421875 1.7587890625 0.06689453125 1.7587890625 L 0.0439453125 1.7587890625 Z"/></g><g transform="translate(17.362361525396825,1.9749203238095234) scale(0.7,0.7)"><path fill="rgb(0,0,0)" stroke="none" paint-order="stroke fill markers" d=" M 0.449 -0.17400000000000002 L 0.449 -0.17400000000000002 L 0.421 0 L 0.05 0 Q 0.05 -0.025 0.056 -0.032 L 0.061 -0.037 L 0.253 -0.251 Q 0.358 -0.369 0.358 -0.47200000000000003 Q 0.358 -0.561 0.304 -0.607 L 0.303 -0.608 L 0.302 -0.608 Q 0.27 -0.635 0.224 -0.635 Q 0.152 -0.635 0.109 -0.5730000000000001 Q 0.097 -0.555 0.089 -0.533 Q 0.092 -0.534 0.10200000000000001 -0.534 Q 0.14200000000000002 -0.534 0.153 -0.498 L 0.153 -0.497 Q 0.155 -0.49 0.155 -0.482 Q 0.155 -0.442 0.117 -0.431 Q 0.109 -0.429 0.10300000000000001 -0.429 Q 0.066 -0.429 0.054 -0.46 Q 0.05 -0.47100000000000003 0.05 -0.485 Q 0.05 -0.562 0.109 -0.617 Q 0.162 -0.666 0.23700000000000002 -0.666 Q 0.34700000000000003 -0.666 0.40800000000000003 -0.592 Q 0.443 -0.549 0.448 -0.49 Q 0.449 -0.481 0.449 -0.47200000000000003 Q 0.449 -0.399 0.394 -0.333 Q 0.365 -0.299 0.304 -0.243 L 0.243 -0.189 L 0.233 -0.18 L 0.127 -0.077 L 0.307 -0.077 Q 0.395 -0.077 0.402 -0.085 Q 0.41200000000000003 -0.099 0.424 -0.17400000000000002 L 0.449 -0.17400000000000002 Z"/></g><g transform="translate(17.902839615873013,2.8546537238095233)"><path fill="rgb(0,0,0)" stroke="none" paint-order="stroke fill markers" d=" M 0.28300000000000003 -0.5630000000000001 L 0.28300000000000003 -0.383 Q 0.28300000000000003 -0.306 0.214 -0.27 Q 0.193 -0.258 0.165 -0.25 Q 0.266 -0.221 0.281 -0.147 Q 0.28300000000000003 -0.137 0.28300000000000003 -0.056 L 0.28300000000000003 0.094 Q 0.28300000000000003 0.131 0.28600000000000003 0.14200000000000002 Q 0.299 0.192 0.354 0.215 Q 0.38 0.226 0.41100000000000003 0.228 Q 0.426 0.229 0.427 0.23900000000000002 Q 0.427 0.25 0.40700000000000003 0.25 Q 0.33 0.25 0.276 0.217 Q 0.272 0.215 0.268 0.212 Q 0.223 0.18 0.218 0.132 Q 0.216 0.117 0.216 0.083 L 0.216 -0.115 Q 0.216 -0.209 0.122 -0.233 Q 0.106 -0.23800000000000002 0.088 -0.23900000000000002 Q 0.073 -0.24 0.07200000000000001 -0.25 Q 0.07200000000000001 -0.261 0.08600000000000001 -0.261 Q 0.149 -0.265 0.19 -0.306 Q 0.211 -0.329 0.214 -0.364 Q 0.216 -0.382 0.216 -0.444 L 0.216 -0.627 Q 0.218 -0.6880000000000001 0.292 -0.725 Q 0.343 -0.75 0.40700000000000003 -0.75 Q 0.425 -0.75 0.427 -0.739 Q 0.427 -0.73 0.418 -0.728 Q 0.35000000000000003 -0.724 0.312 -0.687 L 0.311 -0.686 L 0.307 -0.682 Q 0.28600000000000003 -0.66 0.28400000000000003 -0.617 L 0.28400000000000003 -0.616 Q 0.28300000000000003 -0.602 0.28300000000000003 -0.5630000000000001 Z"/></g></g><path fill="rgb(102,204,255)" stroke="none" paint-order="stroke fill markers" d=" M 90.79296875000182 152.3818644919545 C 90.79296875000182 154.59100349127766 89.00210774932499 156.3818644919545 86.79296875000182 156.3818644919545 C 84.58382975067865 156.3818644919545 82.79296875000182 154.59100349127766 82.79296875000182 152.3818644919545 C 82.79296875000182 150.17272549263132 84.58382975067865 148.3818644919545 86.79296875000182 148.3818644919545 C 89.00210774932499 148.3818644919545 90.79296875000182 150.17272549263132 90.79296875000182 152.3818644919545 Z" fill-opacity="1"/><path fill="none" stroke="rgb(0,0,0)" paint-order="fill stroke markers" d=" M 90.79296875000182 152.3818644919545 C 90.79296875000182 154.59100349127766 89.00210774932499 156.3818644919545 86.79296875000182 156.3818644919545 C 84.58382975067865 156.3818644919545 82.79296875000182 154.59100349127766 82.79296875000182 152.3818644919545 C 82.79296875000182 150.17272549263132 84.58382975067865 148.3818644919545 86.79296875000182 148.3818644919545 C 89.00210774932499 148.3818644919545 90.79296875000182 150.17272549263132 90.79296875000182 152.3818644919545 Z" stroke-opacity="1" stroke-linecap="round" stroke-linejoin="round" stroke-miterlimit="10"/><path fill="rgb(102,204,255)" stroke="none" paint-order="stroke fill markers" d=" M 201.85156250000182 124.77958241958618 C 201.85156250000182 126.98872141890935 200.06070149932498 128.77958241958618 197.85156250000182 128.77958241958618 C 195.64242350067863 128.77958241958618 193.85156250000182 126.98872141890935 193.85156250000182 124.77958241958618 C 193.85156250000182 122.570443420263 195.64242350067863 120.77958241958618 197.85156250000182 120.77958241958618 C 200.06070149932498 120.77958241958618 201.85156250000182 122.570443420263 201.85156250000182 124.77958241958618 Z" fill-opacity="1"/><path fill="none" stroke="rgb(0,0,0)" paint-order="fill stroke markers" d=" M 201.85156250000182 124.77958241958618 C 201.85156250000182 126.98872141890935 200.06070149932498 128.77958241958618 197.85156250000182 128.77958241958618 C 195.64242350067863 128.77958241958618 193.85156250000182 126.98872141890935 193.85156250000182 124.77958241958618 C 193.85156250000182 122.570443420263 195.64242350067863 120.77958241958618 197.85156250000182 120.77958241958618 C 200.06070149932498 120.77958241958618 201.85156250000182 122.570443420263 201.85156250000182 124.77958241958618 Z" stroke-opacity="1" stroke-linecap="round" stroke-linejoin="round" stroke-miterlimit="10"/><path fill="rgb(102,204,255)" stroke="none" paint-order="stroke fill markers" d=" M 167.67968750000205 133.27259228800722 C 167.67968750000205 135.48173128733038 165.8888264993252 137.27259228800722 163.67968750000205 137.27259228800722 C 161.47054850067886 137.27259228800722 159.67968750000205 135.48173128733038 159.67968750000205 133.27259228800722 C 159.67968750000205 131.06345328868403 161.47054850067886 129.27259228800722 163.67968750000205 129.27259228800722 C 165.8888264993252 129.27259228800722 167.67968750000205 131.06345328868403 167.67968750000205 133.27259228800722 Z" fill-opacity="1"/><path fill="none" stroke="rgb(0,0,0)" paint-order="fill stroke markers" d=" M 167.67968750000205 133.27259228800722 C 167.67968750000205 135.48173128733038 165.8888264993252 137.27259228800722 163.67968750000205 137.27259228800722 C 161.47054850067886 137.27259228800722 159.67968750000205 135.48173128733038 159.67968750000205 133.27259228800722 C 159.67968750000205 131.06345328868403 161.47054850067886 129.27259228800722 163.67968750000205 129.27259228800722 C 165.8888264993252 129.27259228800722 167.67968750000205 131.06345328868403 167.67968750000205 133.27259228800722 Z" stroke-opacity="1" stroke-linecap="round" stroke-linejoin="round" stroke-miterlimit="10"/><path fill="rgb(102,204,255)" stroke="none" paint-order="stroke fill markers" d=" M 278.73828125000205 105.67031021563866 C 278.73828125000205 107.87944921496184 276.9474202493252 109.67031021563866 274.73828125000205 109.67031021563866 C 272.5291422506789 109.67031021563866 270.73828125000205 107.87944921496184 270.73828125000205 105.67031021563866 C 270.73828125000205 103.46117121631549 272.5291422506789 101.67031021563866 274.73828125000205 101.67031021563866 C 276.9474202493252 101.67031021563866 278.73828125000205 103.46117121631549 278.73828125000205 105.67031021563866 Z" fill-opacity="1"/><path fill="none" stroke="rgb(0,0,0)" paint-order="fill stroke markers" d=" M 278.73828125000205 105.67031021563866 C 278.73828125000205 107.87944921496184 276.9474202493252 109.67031021563866 274.73828125000205 109.67031021563866 C 272.5291422506789 109.67031021563866 270.73828125000205 107.87944921496184 270.73828125000205 105.67031021563866 C 270.73828125000205 103.46117121631549 272.5291422506789 101.67031021563866 274.73828125000205 101.67031021563866 C 276.9474202493252 101.67031021563866 278.73828125000205 103.46117121631549 278.73828125000205 105.67031021563866 Z" stroke-opacity="1" stroke-linecap="round" stroke-linejoin="round" stroke-miterlimit="10"/><path fill="rgb(102,204,255)" stroke="none" paint-order="stroke fill markers" d=" M 355.6250000000023 86.56103801169138 C 355.6250000000023 88.77017701101455 353.83413899932543 90.56103801169138 351.6250000000023 90.56103801169138 C 349.4158610006791 90.56103801169138 347.6250000000023 88.77017701101455 347.6250000000023 86.56103801169138 C 347.6250000000023 84.35189901236821 349.4158610006791 82.56103801169138 351.6250000000023 82.56103801169138 C 353.83413899932543 82.56103801169138 355.6250000000023 84.35189901236821 355.6250000000023 86.56103801169138 Z" fill-opacity="1"/><path fill="none" stroke="rgb(0,0,0)" paint-order="fill stroke markers" d=" M 355.6250000000023 86.56103801169138 C 355.6250000000023 88.77017701101455 353.83413899932543 90.56103801169138 351.6250000000023 90.56103801169138 C 349.4158610006791 90.56103801169138 347.6250000000023 88.77017701101455 347.6250000000023 86.56103801169138 C 347.6250000000023 84.35189901236821 349.4158610006791 82.56103801169138 351.6250000000023 82.56103801169138 C 353.83413899932543 82.56103801169138 355.6250000000023 84.35189901236821 355.6250000000023 86.56103801169138 Z" stroke-opacity="1" stroke-linecap="round" stroke-linejoin="round" stroke-miterlimit="10"/><path fill="rgb(102,204,255)" stroke="none" paint-order="stroke fill markers" d=" M 398.3398437500023 75.94477567616491 C 398.3398437500023 78.15391467548808 396.54898274932543 79.94477567616491 394.3398437500023 79.94477567616491 C 392.1307047506791 79.94477567616491 390.3398437500023 78.15391467548808 390.3398437500023 75.94477567616491 C 390.3398437500023 73.73563667684174 392.1307047506791 71.94477567616491 394.3398437500023 71.94477567616491 C 396.54898274932543 71.94477567616491 398.3398437500023 73.73563667684174 398.3398437500023 75.94477567616491 Z" fill-opacity="1"/><path fill="none" stroke="rgb(0,0,0)" paint-order="fill stroke markers" d=" M 398.3398437500023 75.94477567616491 C 398.3398437500023 78.15391467548808 396.54898274932543 79.94477567616491 394.3398437500023 79.94477567616491 C 392.1307047506791 79.94477567616491 390.3398437500023 78.15391467548808 390.3398437500023 75.94477567616491 C 390.3398437500023 73.73563667684174 392.1307047506791 71.94477567616491 394.3398437500023 71.94477567616491 C 396.54898274932543 71.94477567616491 398.3398437500023 73.73563667684174 398.3398437500023 75.94477567616491 Z" stroke-opacity="1" stroke-linecap="round" stroke-linejoin="round" stroke-miterlimit="10"/></g></g></svg>