<?xml version="1.0" encoding="UTF-8" standalone="no"?>
<!-- Created with Inkscape (http://www.inkscape.org/) -->
<svg
   xmlns:dc="http://purl.org/dc/elements/1.1/"
   xmlns:cc="http://web.resource.org/cc/"
   xmlns:rdf="http://www.w3.org/1999/02/22-rdf-syntax-ns#"
   xmlns:svg="http://www.w3.org/2000/svg"
   xmlns="http://www.w3.org/2000/svg"
   xmlns:xlink="http://www.w3.org/1999/xlink"
   xmlns:sodipodi="http://sodipodi.sourceforge.net/DTD/sodipodi-0.dtd"
   xmlns:inkscape="http://www.inkscape.org/namespaces/inkscape"
   width="650"
   height="325"
   id="svg2"
   sodipodi:version="0.32"
   inkscape:version="0.45.1"
   version="1.0"
   sodipodi:docbase="C:\Documents and Settings\JJB\My Documents"
   sodipodi:docname="X cubed (narrow).svg"
   inkscape:output_extension="org.inkscape.output.svg.inkscape">
  <sodipodi:namedview
     id="base"
     pagecolor="#ffffff"
     bordercolor="#666666"
     borderopacity="1.0"
     gridtolerance="10000"
     guidetolerance="10"
     objecttolerance="10"
     inkscape:pageopacity="0.0"
     inkscape:pageshadow="2"
     inkscape:zoom="1"
     inkscape:cx="339.5987"
     inkscape:cy="125.15514"
     inkscape:document-units="px"
     inkscape:current-layer="layer1"
     width="650px"
     height="325px"
     gridspacingx="5px"
     gridspacingy="5px"
     showgrid="true"
     inkscape:grid-points="true"
     inkscape:window-width="1382"
     inkscape:window-height="874"
     inkscape:window-x="50"
     inkscape:window-y="0"
     showguides="true"
     inkscape:guide-bbox="true" />
  <defs
     id="defs4">
    <linearGradient
       id="linearGradient9716">
      <stop
         offset="0"
         style="stop-color:#ff0000;stop-opacity:1;"
         id="stop9718" />
      <stop
         offset="0.22971708"
         style="stop-color:#ff0000;stop-opacity:1;"
         id="stop9772" />
      <stop
         offset="0.45943415"
         style="stop-color:#ff6100;stop-opacity:1;"
         id="stop9728" />
      <stop
         offset="0.49477524"
         style="stop-color:#ffe000;stop-opacity:1;"
         id="stop9730" />
      <stop
         offset="0.50927126"
         style="stop-color:#00ff00;stop-opacity:1;"
         id="stop9732" />
      <stop
         offset="0.52875704"
         style="stop-color:#007c9e;stop-opacity:1;"
         id="stop9734" />
      <stop
         offset="0.55361122"
         style="stop-color:#000071;stop-opacity:1;"
         id="stop9736" />
      <stop
         offset="0.57093382"
         style="stop-color:#830087;stop-opacity:1;"
         id="stop9738" />
      <stop
         offset="0.63222897"
         style="stop-color:#ff37c3;stop-opacity:1;"
         id="stop9774" />
      <stop
         offset="0.81611449"
         style="stop-color:#ff00e1;stop-opacity:1;"
         id="stop9776" />
      <stop
         offset="1"
         style="stop-color:#ffb0ff;stop-opacity:1;"
         id="stop9720" />
    </linearGradient>
    <linearGradient
       id="linearGradient2895"
       gradientUnits="userSpaceOnUse"
       y2="26.290426"
       x2="263.82959"
       xlink:href="#linearGradient2889"
       y1="304.50995"
       x1="92.604424" />
    <mask
       id="mask2858">
      <path
         style="fill:#e8e7fe;fill-opacity:1;fill-rule:evenodd;stroke:#000000;stroke-width:3.125;stroke-linecap:butt;stroke-linejoin:miter;stroke-miterlimit:4;stroke-dasharray:none;stroke-opacity:1"
         id="use2848"
         d="M 100,24 C 100,24 88.5,66.5 134,76 C 179.5,85.5 217,67 217,67 C 217,67 211,163.46447 196,192.46447 C 181,221.46447 141.5,254 118,254 C 94.5,254 76,238.5 70,223.5 C 64,208.5 60.5,128 71,102 C 78.202941,84.164147 73,78.5 82,49.5 C 87.643273,31.316121 100.5,23 100,24 z " />
    </mask>
    <mask
       id="mask2799">
      <path
         style="fill:#e8e7fe;fill-opacity:1;fill-rule:evenodd;stroke:#000000;stroke-width:3.125;stroke-linecap:butt;stroke-linejoin:round;stroke-miterlimit:4;stroke-dasharray:none;stroke-opacity:1"
         id="use2796"
         d="M 168.99397,144.76334 C 168.99397,144.76334 214.49314,156.63269 246.14473,148.71979 C 277.79633,140.80689 309.44793,103.22062 309.44793,103.22062 C 309.44793,103.22062 344.06686,191.25162 348.02331,221.91411 C 351.97976,252.57659 350.00153,289.17375 327.25195,311.92334 C 304.50236,334.67292 255.67246,325.40751 232.29716,302.03221 C 218.4143,288.14936 204.60201,261.4786 192.73266,233.78346 C 180.86331,206.08831 168.00485,143.77423 168.99397,144.76334 z " />
    </mask>
    <linearGradient
       id="linearGradient2812">
      <stop
         offset="0"
         style="stop-color:black;stop-opacity:1"
         id="stop2814" />
      <stop
         offset="1"
         style="stop-color:white;stop-opacity:0"
         id="stop2816" />
    </linearGradient>
    <linearGradient
       id="linearGradient2889">
      <stop
         offset="0"
         style="stop-color:#a0a3e1;stop-opacity:1"
         id="stop2891" />
      <stop
         offset="1"
         style="stop-color:#dedcfa;stop-opacity:1"
         id="stop2893" />
    </linearGradient>
  </defs>
  <metadata
     id="metadata7">
    <rdf:RDF>
      <cc:Work
         rdf:about="">
        <dc:format>image/svg+xml</dc:format>
        <dc:type
           rdf:resource="http://purl.org/dc/dcmitype/StillImage" />
      </cc:Work>
    </rdf:RDF>
  </metadata>
  <g
     inkscape:label="Layer 1"
     id="layer1"
     inkscape:groupmode="layer">
    <g
       id="g13999"
       transform="matrix(0.7,0,0,0.7,209.73907,64.266504)" />
    <path
       style="fill:none;stroke:#000000;stroke-width:1;stroke-opacity:1"
       d="M 5,162.5 L 630,162.5"
       id="path3621" />
    <path
       style="fill:none;stroke:#000000;stroke-width:1;stroke-opacity:1"
       d="M 317.5,312.36998 L 317.5,15.000001"
       sodipodi:nodetypes="cc"
       id="path3619" />
    <path
       style="fill:#000000;fill-rule:evenodd;stroke:#000000;stroke-width:2;stroke-linecap:butt;stroke-linejoin:miter;stroke-opacity:1"
       d="M 317.5,7.5 L 315,22.5 L 320,22.5 L 317.5,7.5 z "
       sodipodi:nodetypes="cccc"
       id="path3623" />
    <path
       style="fill:#000000;fill-rule:evenodd;stroke:#000000;stroke-width:2;stroke-linecap:butt;stroke-linejoin:miter;stroke-opacity:1"
       d="M 645,162.5 L 630,160 L 630,165 L 645,162.5 z "
       sodipodi:nodetypes="cccc"
       id="path3625" />
    <path
       title="x*x*x"
       style="fill:none;stroke:#ff0000;stroke-width:2;stroke-opacity:1"
       id="path6241"
       d="M 54.543406,284.94565 C 64.191037,272.05617 73.838669,260.52212 83.4863,250.2011 C 93.133932,239.88007 102.78156,230.77664 112.42919,222.74111 C 122.07683,214.7056 131.72446,207.7444 141.37208,201.7087 C 151.01973,195.673 160.66735,190.56838 170.31498,186.24685 C 179.96262,181.9253 189.61024,178.39157 199.25789,175.49853 C 208.90551,172.60548 218.55314,170.35697 228.20077,168.60675 C 237.8484,166.85653 247.49604,165.60758 257.14367,164.7145 C 266.7913,163.82143 276.43892,163.28637 286.08656,162.96477 C 295.73419,162.64318 305.38183,162.53635 315.02946,162.50057 C 324.67708,162.46479 334.32472,162.50049 343.97235,162.46485 C 353.61998,162.42921 363.26762,162.32181 372.91524,162.00064 C 382.56288,161.67947 392.21051,161.14328 401.85814,160.25092 C 411.50577,159.35857 421.1534,158.10789 430.80103,156.35868 C 440.44867,154.60945 450.0963,152.35867 459.74392,149.4669 C 469.39156,146.57513 479.03918,143.03854 488.68683,138.71858 C 498.33446,134.39862 507.98208,129.29057 517.62972,123.25672 C 527.27734,117.22288 536.92498,110.25768 546.57262,102.22431 C 556.22024,94.190922 565.86788,85.082922 575.5155,74.764326 C 585.16314,64.44573 594.81077,52.909254 604.4584,40.019775" />
    <g
       id="g6321"
       transform="matrix(1.2,0,0,1.2,350.63501,-289.48844)">
      <g
         style="font-style:normal;font-variant:normal;font-weight:normal;font-stretch:normal;letter-spacing:normal;word-spacing:normal;text-anchor:start;fill:none;fill-opacity:1;fill-rule:evenodd;stroke:#000000;stroke-width:0.83333331;stroke-linecap:butt;stroke-linejoin:miter;stroke-miterlimit:10.43299961;stroke-dasharray:none;stroke-dashoffset:0;stroke-opacity:1"
         id="g6323"
         xml:space="preserve"
         transform="matrix(0.4642857,0,0,-0.4642857,-81.25,487.5)"><path
           style="fill:#000000;stroke-width:0"
           id="path6325"
           d="M 480.21,424.98 L 480.22,425.01 L 480.23,425.04 L 480.24,425.07 L 480.25,425.1 L 480.26,425.16 L 480.28,425.21 L 480.29,425.27 L 480.3,425.31 L 480.32,425.36 L 480.33,425.4 L 480.34,425.44 L 480.35,425.48 L 480.35,425.52 L 480.36,425.56 L 480.37,425.59 L 480.37,425.62 L 480.38,425.65 L 480.39,425.68 L 480.39,425.71 L 480.39,425.74 L 480.4,425.77 L 480.4,425.79 L 480.4,425.85 L 480.41,425.9 L 480.41,425.95 L 480.41,426 L 480.41,426.03 L 480.41,426.06 L 480.41,426.09 L 480.41,426.13 C 480.41,427.02 479.71,427.47 478.96,427.47 C 478.46,427.47 477.67,427.17 477.22,426.42 C 477.12,426.18 476.72,424.63 476.52,423.73 C 476.18,422.44 475.82,421.09 475.53,419.75 L 473.29,410.78 C 473.09,410.04 470.95,406.55 467.66,406.55 C 465.12,406.55 464.57,408.74 464.57,410.58 C 464.57,412.88 465.41,415.96 467.11,420.35 C 467.91,422.39 468.11,422.94 468.11,423.93 C 468.11,426.18 466.51,428.02 464.02,428.02 C 459.29,428.02 457.45,420.79 457.45,420.35 C 457.45,419.85 457.94,419.85 458.04,419.85 C 458.54,419.85 458.59,419.95 458.84,420.75 C 460.18,425.43 462.18,426.92 463.87,426.92 C 464.27,426.92 465.12,426.92 465.12,425.33 C 465.12,424.08 464.62,422.79 464.27,421.84 C 462.28,416.56 461.38,413.72 461.38,411.38 C 461.38,406.95 464.52,405.45 467.46,405.45 C 469.4,405.45 471.09,406.3 472.49,407.7 C 471.84,405.1 471.24,402.66 469.25,400.02 C 467.96,398.33 466.06,396.88 463.77,396.88 C 463.07,396.88 460.83,397.04 459.98,398.98 C 460.78,398.98 461.43,398.98 462.13,399.57 C 462.63,400.02 463.13,400.67 463.13,401.62 C 463.13,403.16 461.78,403.36 461.28,403.36 C 460.13,403.36 458.49,402.56 458.49,400.12 C 458.49,397.63 460.68,395.79 463.77,395.79 C 468.9,395.79 474.03,400.32 475.43,405.95 L 480.21,424.98 z " /><path
           style="fill:#000000;stroke-width:0"
           id="path6327"
           d="M 530.22,422.29 L 530.36,422.29 L 530.51,422.29 L 530.66,422.3 L 530.73,422.3 L 530.8,422.3 L 530.87,422.31 L 530.95,422.32 L 531.02,422.33 L 531.09,422.34 L 531.15,422.36 L 531.22,422.37 L 531.29,422.39 L 531.35,422.41 L 531.41,422.44 L 531.47,422.47 L 531.52,422.5 L 531.58,422.53 L 531.63,422.57 L 531.67,422.61 L 531.72,422.66 L 531.75,422.71 L 531.77,422.74 L 531.79,422.76 L 531.81,422.79 L 531.82,422.82 L 531.84,422.85 L 531.85,422.89 L 531.86,422.92 L 531.87,422.96 L 531.88,422.99 L 531.89,423.03 L 531.9,423.07 L 531.9,423.11 L 531.91,423.15 L 531.91,423.19 L 531.91,423.24 L 531.91,423.29 C 531.91,424.28 530.97,424.28 530.27,424.28 L 500.43,424.28 C 499.73,424.28 498.79,424.28 498.79,423.29 C 498.79,422.29 499.73,422.29 500.48,422.29 L 530.22,422.29 z " /><path
           style="fill:#000000;stroke-width:0"
           id="path6329"
           d="M 530.27,412.63 L 530.4,412.63 L 530.54,412.63 L 530.68,412.63 L 530.75,412.64 L 530.82,412.64 L 530.89,412.65 L 530.96,412.66 L 531.03,412.67 L 531.1,412.68 L 531.16,412.69 L 531.23,412.71 L 531.29,412.73 L 531.35,412.75 L 531.41,412.77 L 531.47,412.8 L 531.53,412.83 L 531.58,412.87 L 531.63,412.91 L 531.67,412.95 L 531.72,412.99 L 531.74,413.02 L 531.76,413.05 L 531.77,413.07 L 531.79,413.1 L 531.81,413.13 L 531.82,413.16 L 531.84,413.19 L 531.85,413.22 L 531.86,413.26 L 531.87,413.29 L 531.88,413.33 L 531.89,413.37 L 531.9,413.41 L 531.9,413.45 L 531.91,413.49 L 531.91,413.53 L 531.91,413.58 L 531.91,413.62 C 531.91,414.62 530.97,414.62 530.22,414.62 L 500.48,414.62 C 499.73,414.62 498.79,414.62 498.79,413.62 C 498.79,412.63 499.73,412.63 500.43,412.63 L 530.27,412.63 z " /><path
           style="fill:#000000;stroke-width:0"
           id="path6331"
           d="M 564.64,421.04 L 564.67,421.17 L 564.7,421.32 L 564.75,421.49 L 564.79,421.67 L 564.85,421.86 L 564.91,422.07 L 564.97,422.28 L 565.04,422.51 L 565.12,422.74 L 565.21,422.98 L 565.31,423.23 L 565.41,423.47 L 565.52,423.72 L 565.64,423.97 L 565.77,424.22 L 565.91,424.47 L 566.06,424.71 L 566.21,424.95 L 566.38,425.18 L 566.56,425.4 L 566.74,425.62 L 566.94,425.82 L 567.15,426.01 L 567.37,426.19 L 567.6,426.35 L 567.85,426.49 L 567.97,426.56 L 568.1,426.62 L 568.23,426.67 L 568.37,426.72 L 568.51,426.77 L 568.65,426.81 L 568.79,426.84 L 568.94,426.87 L 569.09,426.89 L 569.25,426.91 L 569.41,426.92 L 569.57,426.92 C 569.82,426.92 571.02,426.92 572.06,426.27 C 570.66,426.02 569.67,424.78 569.67,423.59 C 569.67,422.79 570.22,421.84 571.56,421.84 C 572.66,421.84 574.25,422.74 574.25,424.73 C 574.25,427.32 571.31,428.02 569.62,428.02 C 566.73,428.02 564.98,425.38 564.39,424.23 C 563.15,427.52 560.45,428.02 559.01,428.02 C 553.83,428.02 550.99,421.59 550.99,420.35 C 550.99,419.85 551.49,419.85 551.59,419.85 C 551.98,419.85 552.13,419.95 552.23,420.39 C 553.93,425.68 557.22,426.92 558.91,426.92 C 559.85,426.92 561.6,426.47 561.6,423.59 C 561.6,422.04 560.75,418.7 558.91,411.73 C 558.11,408.64 556.37,406.55 554.18,406.55 C 553.88,406.55 552.73,406.55 551.69,407.2 C 552.93,407.45 554.03,408.49 554.03,409.89 C 554.03,411.23 552.93,411.63 552.18,411.63 C 550.69,411.63 549.45,410.33 549.45,408.74 C 549.45,406.45 551.93,405.45 554.13,405.45 C 557.41,405.45 559.21,408.94 559.35,409.24 C 559.96,407.39 561.75,405.45 564.74,405.45 C 569.87,405.45 572.71,411.88 572.71,413.13 C 572.71,413.62 572.26,413.62 572.11,413.62 C 571.66,413.62 571.56,413.42 571.46,413.07 C 569.82,407.74 566.43,406.55 564.84,406.55 C 562.9,406.55 562.1,408.14 562.1,409.84 C 562.1,410.93 562.4,412.03 562.95,414.22 L 564.64,421.04 z " /><path
           style="fill:#000000;stroke-width:0"
           id="path6333"
           d="M 586.52,435.64 L 586.77,435.64 L 587.02,435.62 L 587.26,435.6 L 587.5,435.56 L 587.73,435.51 L 587.96,435.45 L 588.18,435.38 L 588.4,435.29 L 588.61,435.2 L 588.81,435.09 L 589,434.98 L 589.19,434.85 L 589.37,434.72 L 589.55,434.57 L 589.72,434.41 L 589.87,434.24 L 590.03,434.06 L 590.17,433.86 L 590.3,433.66 L 590.43,433.45 L 590.55,433.22 L 590.66,432.99 L 590.75,432.74 L 590.84,432.48 L 590.92,432.21 L 590.99,431.93 L 591.05,431.64 L 591.1,431.34 L 591.14,431.03 L 591.17,430.71 L 591.19,430.38 L 591.19,430.03 C 591.19,425.71 588.68,424.42 586.66,424.42 C 585.27,424.42 582.2,424.8 580.73,426.86 C 582.37,426.93 582.75,428.08 582.75,428.81 C 582.75,429.93 581.92,430.73 580.84,430.73 C 579.86,430.73 578.88,430.14 578.88,428.71 C 578.88,425.43 582.51,423.3 586.73,423.3 C 591.57,423.3 594.92,426.55 594.92,430.03 C 594.92,432.75 592.69,435.47 588.85,436.27 C 592.52,437.6 593.84,440.21 593.84,442.34 C 593.84,445.1 590.67,447.15 586.8,447.15 C 582.93,447.15 579.97,445.27 579.97,442.48 C 579.97,441.3 580.73,440.63 581.78,440.63 C 582.86,440.63 583.55,441.43 583.55,442.41 C 583.55,443.42 582.86,444.16 581.78,444.22 C 583,445.76 585.4,446.14 586.7,446.14 C 588.26,446.14 590.46,445.38 590.46,442.34 C 590.46,440.88 589.97,439.27 589.07,438.19 C 587.91,436.87 586.94,436.8 585.2,436.69 C 584.32,436.62 584.25,436.62 584.08,436.59 C 584.01,436.59 583.73,436.52 583.73,436.13 C 583.73,435.64 584.04,435.64 584.64,435.64 L 586.52,435.64 z " /></g>    </g>
    <path
       style="fill:none;fill-rule:evenodd;stroke:#000000;stroke-width:1px;stroke-linecap:butt;stroke-linejoin:miter;stroke-opacity:1"
       d="M 317.35714,40.5 L 307.35714,40.5"
       id="path6380" />
    <path
       style="fill:none;fill-rule:evenodd;stroke:#000000;stroke-width:1px;stroke-linecap:butt;stroke-linejoin:miter;stroke-opacity:1"
       d="M 317.5,70.5 L 310.35714,70.5"
       id="path6382" />
    <path
       style="fill:none;fill-rule:evenodd;stroke:#000000;stroke-width:1px;stroke-linecap:butt;stroke-linejoin:miter;stroke-opacity:1"
       d="M 317.49293,101.5 L 310.35713,101.5"
       id="path6384" />
    <path
       style="fill:none;fill-rule:evenodd;stroke:#000000;stroke-width:1px;stroke-linecap:butt;stroke-linejoin:miter;stroke-opacity:1"
       d="M 317.5,131.5 L 310.35714,131.5"
       id="path6386" />
    <g
       id="g6442"
       transform="translate(163.97894,-250.59501)">
      <g
         style="font-style:normal;font-variant:normal;font-weight:normal;font-stretch:normal;letter-spacing:normal;word-spacing:normal;text-anchor:start;fill:none;fill-opacity:1;fill-rule:evenodd;stroke:#000000;stroke-linecap:butt;stroke-linejoin:miter;stroke-miterlimit:10.43299961;stroke-dasharray:none;stroke-dashoffset:0;stroke-opacity:1"
         id="g6444"
         xml:space="preserve"
         transform="matrix(0.4642857,0,0,-0.4642857,-81.25,487.5)"><path
           style="fill:#000000;stroke-width:0"
           id="path6446"
           d="M 470.64,437.88 L 470.64,437.93 L 470.64,437.99 L 470.64,438.04 L 470.64,438.09 L 470.64,438.14 L 470.64,438.19 L 470.64,438.23 L 470.64,438.28 L 470.64,438.32 L 470.64,438.36 L 470.64,438.4 L 470.64,438.44 L 470.64,438.48 L 470.63,438.52 L 470.63,438.55 L 470.63,438.59 L 470.62,438.62 L 470.62,438.65 L 470.61,438.71 L 470.6,438.76 L 470.58,438.81 L 470.57,438.86 L 470.55,438.9 L 470.53,438.94 L 470.5,438.98 L 470.47,439.01 L 470.44,439.03 L 470.41,439.06 L 470.37,439.08 L 470.32,439.1 L 470.3,439.11 L 470.27,439.12 L 470.25,439.12 L 470.22,439.13 L 470.19,439.14 L 470.16,439.14 L 470.13,439.15 L 470.1,439.15 L 470.07,439.16 L 470.03,439.16 L 469.99,439.16 L 469.96,439.16 L 469.92,439.17 L 469.88,439.17 L 469.84,439.17 L 469.79,439.17 L 469.75,439.17 L 469.7,439.17 L 469.65,439.18 L 469.6,439.18 L 469.55,439.18 L 469.5,439.18 C 466.41,435.99 462.03,435.99 460.43,435.99 L 460.43,434.44 C 461.43,434.44 464.37,434.44 466.96,435.74 L 466.96,409.93 C 466.96,408.14 466.81,407.54 462.33,407.54 L 460.73,407.54 L 460.73,406 C 462.48,406.15 466.81,406.15 468.8,406.15 C 470.79,406.15 475.13,406.15 476.87,406 L 476.87,407.54 L 475.28,407.54 C 470.79,407.54 470.64,408.09 470.64,409.93 L 470.64,437.88 z " /></g>    </g>
    <path
       style="fill:none;fill-rule:evenodd;stroke:#000000;stroke-width:1px;stroke-linecap:butt;stroke-linejoin:miter;stroke-opacity:1"
       d="M 317.5,192.5 L 310.35714,192.5"
       id="path6503" />
    <path
       style="fill:none;fill-rule:evenodd;stroke:#000000;stroke-width:1px;stroke-linecap:butt;stroke-linejoin:miter;stroke-opacity:1"
       d="M 317.49293,223.5 L 310.35713,223.5"
       id="path6505" />
    <path
       style="fill:none;fill-rule:evenodd;stroke:#000000;stroke-width:1px;stroke-linecap:butt;stroke-linejoin:miter;stroke-opacity:1"
       d="M 317.5,253.5 L 310.35714,253.5"
       id="path6507" />
    <path
       style="fill:none;fill-rule:evenodd;stroke:#000000;stroke-width:1px;stroke-linecap:butt;stroke-linejoin:miter;stroke-opacity:1"
       d="M 317.35714,284.5 L 307.35714,284.5"
       id="path6509" />
    <g
       id="g6569"
       transform="translate(146.20321,-7)">
      <g
         style="font-style:normal;font-variant:normal;font-weight:normal;font-stretch:normal;letter-spacing:normal;word-spacing:normal;text-anchor:start;fill:none;fill-opacity:1;fill-rule:evenodd;stroke:#000000;stroke-linecap:butt;stroke-linejoin:miter;stroke-miterlimit:10.43299961;stroke-dasharray:none;stroke-dashoffset:0;stroke-opacity:1"
         id="g6571"
         xml:space="preserve"
         transform="matrix(0.4642857,0,0,-0.4642857,-81.25,487.5)"><path
           style="fill:#000000;stroke-width:0"
           id="path6573"
           d="M 488.93,417.46 L 489.06,417.46 L 489.2,417.46 L 489.34,417.46 L 489.41,417.47 L 489.48,417.47 L 489.55,417.48 L 489.62,417.49 L 489.69,417.5 L 489.75,417.51 L 489.82,417.52 L 489.88,417.54 L 489.95,417.56 L 490.01,417.58 L 490.07,417.61 L 490.13,417.63 L 490.18,417.67 L 490.23,417.7 L 490.28,417.74 L 490.33,417.78 L 490.37,417.83 L 490.39,417.85 L 490.41,417.88 L 490.43,417.9 L 490.45,417.93 L 490.46,417.96 L 490.48,417.99 L 490.49,418.02 L 490.51,418.06 L 490.52,418.09 L 490.53,418.12 L 490.54,418.16 L 490.55,418.2 L 490.55,418.24 L 490.56,418.28 L 490.56,418.32 L 490.57,418.36 L 490.57,418.41 L 490.57,418.45 C 490.57,419.45 489.63,419.45 488.93,419.45 L 461.78,419.45 C 461.08,419.45 460.13,419.45 460.13,418.45 C 460.13,417.46 461.08,417.46 461.78,417.46 L 488.93,417.46 z " /><path
           style="fill:#000000;stroke-width:0"
           id="path6575"
           d="M 508.64,437.88 L 508.64,437.93 L 508.64,437.99 L 508.64,438.04 L 508.64,438.09 L 508.64,438.14 L 508.64,438.19 L 508.64,438.23 L 508.64,438.28 L 508.64,438.32 L 508.64,438.36 L 508.64,438.4 L 508.64,438.44 L 508.64,438.48 L 508.63,438.52 L 508.63,438.55 L 508.63,438.59 L 508.62,438.62 L 508.62,438.65 L 508.61,438.71 L 508.6,438.76 L 508.58,438.81 L 508.57,438.86 L 508.55,438.9 L 508.53,438.94 L 508.5,438.98 L 508.47,439.01 L 508.44,439.03 L 508.41,439.06 L 508.37,439.08 L 508.32,439.1 L 508.3,439.11 L 508.27,439.12 L 508.25,439.12 L 508.22,439.13 L 508.19,439.14 L 508.16,439.14 L 508.13,439.15 L 508.1,439.15 L 508.07,439.16 L 508.03,439.16 L 507.99,439.16 L 507.96,439.16 L 507.92,439.17 L 507.88,439.17 L 507.84,439.17 L 507.79,439.17 L 507.75,439.17 L 507.7,439.17 L 507.65,439.18 L 507.6,439.18 L 507.55,439.18 L 507.5,439.18 C 504.41,435.99 500.03,435.99 498.43,435.99 L 498.43,434.44 C 499.43,434.44 502.37,434.44 504.96,435.74 L 504.96,409.93 C 504.96,408.14 504.81,407.54 500.33,407.54 L 498.73,407.54 L 498.73,406 C 500.48,406.15 504.81,406.15 506.8,406.15 C 508.79,406.15 513.13,406.15 514.87,406 L 514.87,407.54 L 513.28,407.54 C 508.79,407.54 508.64,408.09 508.64,409.93 L 508.64,437.88 z " /></g>    </g>
    <path
       style="fill:none;fill-rule:evenodd;stroke:#000000;stroke-width:1px;stroke-linecap:butt;stroke-linejoin:miter;stroke-opacity:1"
       d="M 388.08164,162.5 L 388.08164,169.64286"
       id="path6648" />
    <path
       style="fill:none;fill-rule:evenodd;stroke:#000000;stroke-width:1px;stroke-linecap:butt;stroke-linejoin:miter;stroke-opacity:1"
       d="M 460.83674,162.50707 L 460.83674,169.64287"
       id="path6650" />
    <path
       style="fill:none;fill-rule:evenodd;stroke:#000000;stroke-width:1px;stroke-linecap:butt;stroke-linejoin:miter;stroke-opacity:1"
       d="M 531.2449,162.5 L 531.2449,169.64286"
       id="path6652" />
    <path
       style="fill:none;fill-rule:evenodd;stroke:#000000;stroke-width:1px;stroke-linecap:butt;stroke-linejoin:miter;stroke-opacity:1"
       d="M 604.00001,162.64286 L 604.00001,172.64286"
       id="path6388" />
    <use
       id="use6662"
       width="650"
       transform="translate(303.86714,144.095)"
       y="0"
       xlink:href="#g6442"
       x="0"
       height="325" />
    <path
       style="fill:none;fill-rule:evenodd;stroke:#000000;stroke-width:1px;stroke-linecap:butt;stroke-linejoin:miter;stroke-opacity:1"
       d="M 31.173463,162.64286 L 31.173463,172.64286"
       id="path6666" />
    <path
       style="fill:none;fill-rule:evenodd;stroke:#000000;stroke-width:1px;stroke-linecap:butt;stroke-linejoin:miter;stroke-opacity:1"
       d="M 101.58163,162.5 L 101.58163,169.64286"
       id="path6668" />
    <path
       style="fill:none;fill-rule:evenodd;stroke:#000000;stroke-width:1px;stroke-linecap:butt;stroke-linejoin:miter;stroke-opacity:1"
       d="M 174.33673,162.50707 L 174.33673,169.64287"
       id="path6670" />
    <path
       style="fill:none;fill-rule:evenodd;stroke:#000000;stroke-width:1px;stroke-linecap:butt;stroke-linejoin:miter;stroke-opacity:1"
       d="M 244.74489,162.5 L 244.74489,169.64286"
       id="path6672" />
    <g
       id="g6684"
       transform="translate(-116.38178,-106.59501)">
      <g
         style="font-style:normal;font-variant:normal;font-weight:normal;font-stretch:normal;letter-spacing:normal;word-spacing:normal;text-anchor:start;fill:none;fill-opacity:1;fill-rule:evenodd;stroke:#000000;stroke-linecap:butt;stroke-linejoin:miter;stroke-miterlimit:10.43299961;stroke-dasharray:none;stroke-dashoffset:0;stroke-opacity:1"
         id="g6686"
         xml:space="preserve"
         transform="matrix(0.4642857,0,0,-0.4642857,-81.25,487.5)"><path
           style="fill:#000000;stroke-width:0"
           id="path6688"
           d="M 488.93,417.46 L 489.06,417.46 L 489.2,417.46 L 489.34,417.46 L 489.41,417.47 L 489.48,417.47 L 489.55,417.48 L 489.62,417.49 L 489.69,417.5 L 489.75,417.51 L 489.82,417.52 L 489.88,417.54 L 489.95,417.56 L 490.01,417.58 L 490.07,417.61 L 490.13,417.63 L 490.18,417.67 L 490.23,417.7 L 490.28,417.74 L 490.33,417.78 L 490.37,417.83 L 490.39,417.85 L 490.41,417.88 L 490.43,417.9 L 490.45,417.93 L 490.46,417.96 L 490.48,417.99 L 490.49,418.02 L 490.51,418.06 L 490.52,418.09 L 490.53,418.12 L 490.54,418.16 L 490.55,418.2 L 490.55,418.24 L 490.56,418.28 L 490.56,418.32 L 490.57,418.36 L 490.57,418.41 L 490.57,418.45 C 490.57,419.45 489.63,419.45 488.93,419.45 L 461.78,419.45 C 461.08,419.45 460.13,419.45 460.13,418.45 C 460.13,417.46 461.08,417.46 461.78,417.46 L 488.93,417.46 z " /><path
           style="fill:#000000;stroke-width:0"
           id="path6690"
           d="M 508.64,437.88 L 508.64,437.93 L 508.64,437.99 L 508.64,438.04 L 508.64,438.09 L 508.64,438.14 L 508.64,438.19 L 508.64,438.23 L 508.64,438.28 L 508.64,438.32 L 508.64,438.36 L 508.64,438.4 L 508.64,438.44 L 508.64,438.48 L 508.63,438.52 L 508.63,438.55 L 508.63,438.59 L 508.62,438.62 L 508.62,438.65 L 508.61,438.71 L 508.6,438.76 L 508.58,438.81 L 508.57,438.86 L 508.55,438.9 L 508.53,438.94 L 508.5,438.98 L 508.47,439.01 L 508.44,439.03 L 508.41,439.06 L 508.37,439.08 L 508.32,439.1 L 508.3,439.11 L 508.27,439.12 L 508.25,439.12 L 508.22,439.13 L 508.19,439.14 L 508.16,439.14 L 508.13,439.15 L 508.1,439.15 L 508.07,439.16 L 508.03,439.16 L 507.99,439.16 L 507.96,439.16 L 507.92,439.17 L 507.88,439.17 L 507.84,439.17 L 507.79,439.17 L 507.75,439.17 L 507.7,439.17 L 507.65,439.18 L 507.6,439.18 L 507.55,439.18 L 507.5,439.18 C 504.41,435.99 500.03,435.99 498.43,435.99 L 498.43,434.44 C 499.43,434.44 502.37,434.44 504.96,435.74 L 504.96,409.93 C 504.96,408.14 504.81,407.54 500.33,407.54 L 498.73,407.54 L 498.73,406 C 500.48,406.15 504.81,406.15 506.8,406.15 C 508.79,406.15 513.13,406.15 514.87,406 L 514.87,407.54 L 513.28,407.54 C 508.79,407.54 508.64,408.09 508.64,409.93 L 508.64,437.88 z " /></g>    </g>
    <g
       id="g6761"
       transform="matrix(2,0,0,2,65.405014,-572.48073)">
      <g
         style="font-style:normal;font-variant:normal;font-weight:normal;font-stretch:normal;letter-spacing:normal;word-spacing:normal;text-anchor:start;fill:none;fill-opacity:1;fill-rule:evenodd;stroke:#000000;stroke-width:0.5;stroke-linecap:butt;stroke-linejoin:miter;stroke-miterlimit:10.43299961;stroke-dasharray:none;stroke-dashoffset:0;stroke-opacity:1"
         id="g6763"
         xml:space="preserve"
         transform="matrix(0.4642857,0,0,-0.4642857,-81.25,487.5)"><path
           style="fill:#000000;stroke-width:0"
           id="path6765"
           d="M 480.21,424.98 L 480.22,425.01 L 480.23,425.04 L 480.24,425.07 L 480.25,425.1 L 480.26,425.16 L 480.28,425.21 L 480.29,425.27 L 480.3,425.31 L 480.32,425.36 L 480.33,425.4 L 480.34,425.44 L 480.35,425.48 L 480.35,425.52 L 480.36,425.56 L 480.37,425.59 L 480.37,425.62 L 480.38,425.65 L 480.39,425.68 L 480.39,425.71 L 480.39,425.74 L 480.4,425.77 L 480.4,425.79 L 480.4,425.85 L 480.41,425.9 L 480.41,425.95 L 480.41,426 L 480.41,426.03 L 480.41,426.06 L 480.41,426.09 L 480.41,426.13 C 480.41,427.02 479.71,427.47 478.96,427.47 C 478.46,427.47 477.67,427.17 477.22,426.42 C 477.12,426.18 476.72,424.63 476.52,423.73 C 476.18,422.44 475.82,421.09 475.53,419.75 L 473.29,410.78 C 473.09,410.04 470.95,406.55 467.66,406.55 C 465.12,406.55 464.57,408.74 464.57,410.58 C 464.57,412.88 465.41,415.96 467.11,420.35 C 467.91,422.39 468.11,422.94 468.11,423.93 C 468.11,426.18 466.51,428.02 464.02,428.02 C 459.29,428.02 457.45,420.79 457.45,420.35 C 457.45,419.85 457.94,419.85 458.04,419.85 C 458.54,419.85 458.59,419.95 458.84,420.75 C 460.18,425.43 462.18,426.92 463.87,426.92 C 464.27,426.92 465.12,426.92 465.12,425.33 C 465.12,424.08 464.62,422.79 464.27,421.84 C 462.28,416.56 461.38,413.72 461.38,411.38 C 461.38,406.95 464.52,405.45 467.46,405.45 C 469.4,405.45 471.09,406.3 472.49,407.7 C 471.84,405.1 471.24,402.66 469.25,400.02 C 467.96,398.33 466.06,396.88 463.77,396.88 C 463.07,396.88 460.83,397.04 459.98,398.98 C 460.78,398.98 461.43,398.98 462.13,399.57 C 462.63,400.02 463.13,400.67 463.13,401.62 C 463.13,403.16 461.78,403.36 461.28,403.36 C 460.13,403.36 458.49,402.56 458.49,400.12 C 458.49,397.63 460.68,395.79 463.77,395.79 C 468.9,395.79 474.03,400.32 475.43,405.95 L 480.21,424.98 z " /></g>    </g>
    <g
       id="g6909"
       transform="matrix(2,0,0,2,361.72501,-447.55287)">
      <g
         style="font-style:normal;font-variant:normal;font-weight:normal;font-stretch:normal;letter-spacing:normal;word-spacing:normal;text-anchor:start;fill:none;fill-opacity:1;fill-rule:evenodd;stroke:#000000;stroke-width:0.5;stroke-linecap:butt;stroke-linejoin:miter;stroke-miterlimit:10.43299961;stroke-dasharray:none;stroke-dashoffset:0;stroke-opacity:1"
         id="g6911"
         xml:space="preserve"
         transform="matrix(0.4642857,0,0,-0.4642857,-81.25,487.5)"><path
           style="fill:#000000;stroke-width:0"
           id="path6913"
           d="M 472.64,421.04 L 472.67,421.17 L 472.7,421.32 L 472.75,421.49 L 472.79,421.67 L 472.85,421.86 L 472.91,422.07 L 472.97,422.28 L 473.04,422.51 L 473.12,422.74 L 473.21,422.98 L 473.31,423.23 L 473.41,423.47 L 473.52,423.72 L 473.64,423.97 L 473.77,424.22 L 473.91,424.47 L 474.06,424.71 L 474.21,424.95 L 474.38,425.18 L 474.56,425.4 L 474.74,425.62 L 474.94,425.82 L 475.15,426.01 L 475.37,426.19 L 475.6,426.35 L 475.85,426.49 L 475.97,426.56 L 476.1,426.62 L 476.23,426.67 L 476.37,426.72 L 476.51,426.77 L 476.65,426.81 L 476.79,426.84 L 476.94,426.87 L 477.09,426.89 L 477.25,426.91 L 477.41,426.92 L 477.57,426.92 C 477.82,426.92 479.02,426.92 480.06,426.27 C 478.66,426.02 477.67,424.78 477.67,423.59 C 477.67,422.79 478.21,421.84 479.56,421.84 C 480.66,421.84 482.25,422.74 482.25,424.73 C 482.25,427.32 479.31,428.02 477.62,428.02 C 474.73,428.02 472.98,425.38 472.39,424.23 C 471.14,427.52 468.45,428.02 467.01,428.02 C 461.83,428.02 458.99,421.59 458.99,420.35 C 458.99,419.85 459.49,419.85 459.59,419.85 C 459.98,419.85 460.13,419.95 460.23,420.39 C 461.93,425.68 465.21,426.92 466.91,426.92 C 467.86,426.92 469.6,426.47 469.6,423.59 C 469.6,422.04 468.75,418.7 466.91,411.73 C 466.11,408.64 464.37,406.55 462.18,406.55 C 461.88,406.55 460.73,406.55 459.69,407.2 C 460.93,407.45 462.03,408.49 462.03,409.89 C 462.03,411.23 460.93,411.63 460.18,411.63 C 458.69,411.63 457.45,410.33 457.45,408.74 C 457.45,406.45 459.93,405.45 462.13,405.45 C 465.41,405.45 467.21,408.94 467.36,409.24 C 467.96,407.39 469.75,405.45 472.74,405.45 C 477.87,405.45 480.71,411.88 480.71,413.13 C 480.71,413.62 480.26,413.62 480.11,413.62 C 479.66,413.62 479.56,413.42 479.46,413.07 C 477.82,407.74 474.43,406.55 472.84,406.55 C 470.89,406.55 470.1,408.14 470.1,409.84 C 470.1,410.93 470.39,412.03 470.95,414.22 L 472.64,421.04 z " /></g>    </g>
    <path
       style="fill:none;stroke:#000000;stroke-width:2;stroke-opacity:1"
       id="path6988"
       sodipodi:cx="302.5"
       sodipodi:cy="172.5"
       sodipodi:type="arc"
       d="M 305 172.5 A 2.5 2.5 0 1 1  300,172.5 A 2.5 2.5 0 1 1  305 172.5 z"
       transform="translate(15,-10)"
       sodipodi:rx="2.5"
       sodipodi:ry="2.5" />
    <g
       id="g7066"
       transform="translate(172.39894,-117.59501)">
      <g
         id="g7068"
         transform="matrix(0.4642857,0,0,-0.4642857,-81.25,487.5)"
         style="font-style:normal;font-variant:normal;font-weight:normal;font-stretch:normal;letter-spacing:normal;word-spacing:normal;text-anchor:start;fill:none;fill-opacity:1;fill-rule:evenodd;stroke:#000000;stroke-linecap:butt;stroke-linejoin:miter;stroke-miterlimit:10.43299961;stroke-dasharray:none;stroke-dashoffset:0;stroke-opacity:1"
         xml:space="preserve"><path
           id="path7070"
           d="M 478.91,421.94 L 478.91,422.69 L 478.9,423.43 L 478.88,424.18 L 478.85,424.92 L 478.8,425.67 L 478.74,426.41 L 478.67,427.15 L 478.57,427.88 L 478.46,428.61 L 478.32,429.34 L 478.16,430.06 L 477.97,430.78 L 477.75,431.49 L 477.51,432.2 L 477.23,432.9 L 477.08,433.25 L 476.92,433.6 C 474.63,438.38 470.55,439.18 468.45,439.18 C 465.46,439.18 461.83,437.88 459.79,433.25 C 458.19,429.81 457.94,425.93 457.94,421.94 C 457.94,418.2 458.14,413.72 460.18,409.93 C 462.33,405.9 465.96,404.9 468.4,404.9 L 468.4,406 C 466.46,406 463.52,407.25 462.63,412.03 C 462.08,415.02 462.08,419.6 462.08,422.54 C 462.08,425.73 462.08,429.01 462.48,431.7 C 463.42,437.63 467.16,438.08 468.4,438.08 C 470.05,438.08 473.34,437.18 474.28,432.25 C 474.78,429.46 474.78,425.68 474.78,422.54 C 474.78,418.8 474.78,415.41 474.23,412.23 C 473.48,407.5 470.64,406 468.4,406 L 468.4,406 L 468.4,404.9 C 471.09,404.9 474.88,405.95 477.07,410.68 C 478.66,414.12 478.91,418 478.91,421.94 z "
           style="fill:#000000;stroke-width:0" /></g>    </g>
  </g>
</svg>
