<svg version="1.1" xmlns="http://www.w3.org/2000/svg" xmlns:xlink="http://www.w3.org/1999/xlink" width="641" height="305"><defs><clipPath id="BNbtCMMRxRTt"><path fill="none" stroke="none" d=" M 0 0 L 641 0 L 641 305 L 0 305 L 0 0 Z"/></clipPath></defs><g transform="scale(1,1)" clip-path="url(#BNbtCMMRxRTt)"><g><path fill="none" stroke="rgb(0,0,0)" paint-order="fill stroke markers" d=" M 194.9999999999999 39.000000000000014 L 234.9999999999999 73" stroke-opacity="0.6980392156862745" stroke-linecap="round" stroke-linejoin="round" stroke-miterlimit="10" stroke-width="1.5"/><path fill="none" stroke="rgb(0,0,0)" paint-order="fill stroke markers" d=" M 144.99999999999997 128.99999999999997 L 207.9999999999999 128.99999999999997" stroke-opacity="0.6980392156862745" stroke-linecap="round" stroke-linejoin="round" stroke-miterlimit="10" stroke-width="1.5"/><path fill="none" stroke="rgb(0,0,0)" paint-order="fill stroke markers" d=" M 180.99999999999991 219.99999999999994 L 219.9999999999999 181.99999999999994" stroke-opacity="0.6980392156862745" stroke-linecap="round" stroke-linejoin="round" stroke-miterlimit="10" stroke-width="1.5"/><path fill="none" stroke="rgb(0,0,0)" paint-order="fill stroke markers" d=" M 321.9999999999998 40.000000000000014 L 320.9999999999998 87" stroke-opacity="0.6980392156862745" stroke-linecap="round" stroke-linejoin="round" stroke-miterlimit="10" stroke-width="1.5"/><path fill="none" stroke="rgb(0,0,0)" paint-order="fill stroke markers" d=" M 451.9999999999996 127.99999999999999 L 401.99999999999966 127.99999999999999" stroke-opacity="0.6980392156862745" stroke-linecap="round" stroke-linejoin="round" stroke-miterlimit="10" stroke-width="1.5"/><g transform="scale(39,39)"><g transform="translate(5.256410256410256,2.2158359)"><path fill="rgb(0,0,0)" stroke="none" paint-order="stroke fill markers" d=" M 0.10595703125 2.1708984375 Q 0.130859375 2.19580078125 0.1669921875 2.19580078125 Q 0.203125 2.19580078125 0.23291015625 2.146240234375 Q 0.2626953125 2.0966796875 0.28515625 2.0224609375 Q 0.3076171875 1.9482421875 0.318115234375 1.898193359375 Q 0.32861328125 1.84814453125 0.34423828125 1.76904296875 Q 0.3583984375 1.6953125 0.37158203125 1.62109375 Q 0.384765625 1.546875 0.398681640625 1.463134765625 Q 0.41259765625 1.37939453125 0.427978515625 1.293212890625 Q 0.443359375 1.20703125 0.462890625 1.10986328125 Q 0.4892578125 0.98193359375 0.500732421875 0.927001953125 Q 0.51220703125 0.8720703125 0.53564453125 0.768310546875 Q 0.55908203125 0.66455078125 0.566650390625 0.631591796875 Q 0.57421875 0.5986328125 0.60986328125 0.451171875 L 0.623046875 0.39892578125 Q 0.6455078125 0.31103515625 0.65771484375 0.265869140625 Q 0.669921875 0.220703125 0.695556640625 0.155517578125 Q 0.72119140625 0.09033203125 0.755859375 0.045166015625 Q 0.79052734375 0 0.83203125 0 Q 0.861328125 0 0.886474609375 0.01318359375 Q 0.91162109375 0.0263671875 0.92724609375 0.04931640625 Q 0.94287109375 0.072265625 0.94287109375 0.10205078125 Q 0.94287109375 0.12353515625 0.9287109375 0.1376953125 Q 0.91455078125 0.15185546875 0.89306640625 0.15185546875 Q 0.87109375 0.15185546875 0.8564453125 0.1376953125 Q 0.841796875 0.12353515625 0.841796875 0.10205078125 Q 0.841796875 0.080078125 0.8564453125 0.0654296875 Q 0.87109375 0.05078125 0.89306640625 0.05078125 Q 0.8671875 0.02587890625 0.8330078125 0.02587890625 Q 0.814453125 0.02587890625 0.792236328125 0.080078125 Q 0.77001953125 0.13427734375 0.751220703125 0.207763671875 Q 0.732421875 0.28125 0.722412109375 0.330322265625 Q 0.71240234375 0.37939453125 0.6982421875 0.453125 Q 0.681640625 0.53662109375 0.670654296875 0.5986328125 Q 0.65966796875 0.66064453125 0.64404296875 0.751953125 Q 0.62841796875 0.84326171875 0.613525390625 0.92578125 Q 0.5986328125 1.00830078125 0.578125 1.11181640625 Q 0.56494140625 1.17724609375 0.5400390625 1.295654296875 Q 0.51513671875 1.4140625 0.507080078125 1.44970703125 Q 0.4990234375 1.4853515625 0.466064453125 1.6240234375 Q 0.43310546875 1.7626953125 0.43115234375 1.77099609375 L 0.4189453125 1.81689453125 Q 0.39306640625 1.9228515625 0.366943359375 2.003173828125 Q 0.3408203125 2.08349609375 0.290283203125 2.15283203125 Q 0.23974609375 2.22216796875 0.1669921875 2.22216796875 Q 0.12353515625 2.22216796875 0.08984375 2.19287109375 Q 0.05615234375 2.16357421875 0.05615234375 2.12109375 Q 0.05615234375 2.09912109375 0.07080078125 2.08447265625 Q 0.08544921875 2.06982421875 0.10693359375 2.06982421875 Q 0.12109375 2.06982421875 0.132568359375 2.07666015625 Q 0.14404296875 2.08349609375 0.150634765625 2.09521484375 Q 0.1572265625 2.10693359375 0.1572265625 2.12109375 Q 0.1572265625 2.142578125 0.142578125 2.15673828125 Q 0.1279296875 2.1708984375 0.10595703125 2.1708984375 Z"/></g><g transform="translate(6.256413256410257,2.4861115) scale(0.7,0.7)"><path fill="rgb(0,0,0)" stroke="none" paint-order="stroke fill markers" d=" M 0.23900000000000002 -0.683 L 0.165 -0.382 Q 0.223 -0.442 0.28200000000000003 -0.442 Q 0.357 -0.442 0.394 -0.373 Q 0.41500000000000004 -0.333 0.41500000000000004 -0.28200000000000003 Q 0.41500000000000004 -0.176 0.341 -0.084 Q 0.272 0.001 0.189 0.01 Q 0.181 0.011 0.17400000000000002 0.011 Q 0.10200000000000001 0.011 0.067 -0.056 Q 0.047 -0.094 0.047 -0.146 Q 0.047 -0.18 0.063 -0.247 L 0.145 -0.5730000000000001 Q 0.159 -0.632 0.159 -0.635 Q 0.159 -0.646 0.145 -0.649 L 0.145 -0.649 Q 0.133 -0.652 0.109 -0.652 Q 0.08700000000000001 -0.652 0.085 -0.664 Q 0.085 -0.681 0.10400000000000001 -0.684 L 0.226 -0.6940000000000001 Q 0.23900000000000002 -0.6940000000000001 0.23900000000000002 -0.683 M 0.145 -0.305 L 0.123 -0.213 Q 0.107 -0.15 0.107 -0.112 Q 0.107 -0.026000000000000002 0.159 -0.013000000000000001 Q 0.166 -0.011 0.17400000000000002 -0.011 Q 0.227 -0.011 0.273 -0.081 Q 0.28300000000000003 -0.096 0.292 -0.114 Q 0.319 -0.171 0.337 -0.268 Q 0.343 -0.303 0.343 -0.326 Q 0.343 -0.406 0.294 -0.418 L 0.293 -0.419 Q 0.28700000000000003 -0.42 0.28 -0.42 Q 0.22 -0.42 0.16 -0.34 Q 0.152 -0.33 0.145 -0.305 Z"/></g><g transform="translate(5.811967256410257,4.4730818999999995) scale(0.7,0.7)"><path fill="rgb(0,0,0)" stroke="none" paint-order="stroke fill markers" d=" M 0.373 -0.378 Q 0.378 -0.41200000000000003 0.404 -0.42 Q 0.40900000000000003 -0.422 0.41500000000000004 -0.422 Q 0.441 -0.422 0.444 -0.395 Q 0.444 -0.389 0.437 -0.361 L 0.401 -0.221 Q 0.386 -0.158 0.379 -0.131 Q 0.366 -0.079 0.366 -0.057 Q 0.366 -0.011 0.396 -0.011 Q 0.434 -0.011 0.46 -0.091 Q 0.465 -0.108 0.47200000000000003 -0.135 Q 0.48 -0.152 0.486 -0.153 Q 0.498 -0.153 0.498 -0.14300000000000002 Q 0.498 -0.128 0.48 -0.073 Q 0.47400000000000003 -0.056 0.468 -0.044 Q 0.44 0.011 0.394 0.011 Q 0.338 0.011 0.313 -0.037 Q 0.306 -0.049 0.303 -0.064 Q 0.24 0.011 0.17300000000000001 0.011 Q 0.098 0.011 0.062 -0.057 Q 0.04 -0.097 0.04 -0.149 Q 0.04 -0.257 0.115 -0.34900000000000003 Q 0.185 -0.433 0.267 -0.441 Q 0.274 -0.442 0.281 -0.442 Q 0.342 -0.442 0.373 -0.378 M 0.308 -0.11900000000000001 L 0.308 -0.11900000000000001 L 0.358 -0.315 Q 0.361 -0.33 0.361 -0.332 Q 0.361 -0.353 0.343 -0.383 Q 0.321 -0.42 0.28200000000000003 -0.42 Q 0.23 -0.42 0.183 -0.352 Q 0.17400000000000002 -0.339 0.166 -0.324 Q 0.137 -0.266 0.117 -0.159 Q 0.111 -0.125 0.111 -0.105 Q 0.111 -0.037 0.149 -0.017 Q 0.16 -0.011 0.17500000000000002 -0.011 Q 0.231 -0.011 0.28800000000000003 -0.082 Q 0.302 -0.098 0.307 -0.115 L 0.307 -0.116 Q 0.308 -0.11800000000000001 0.308 -0.11900000000000001 Z"/></g><g transform="translate(6.9585407247863245,3.5769589)"><path fill="rgb(0,0,0)" stroke="none" paint-order="stroke fill markers" d=" M 0.367 -0.4 L 0.367 -0.4 L 0.307 -0.083 Q 0.298 -0.021 0.271 0.059000000000000004 Q 0.261 0.088 0.251 0.108 Q 0.216 0.182 0.164 0.2 Q 0.151 0.20500000000000002 0.138 0.20500000000000002 Q 0.088 0.20500000000000002 0.064 0.171 Q 0.053 0.156 0.053 0.136 Q 0.053 0.096 0.08700000000000001 0.081 Q 0.097 0.076 0.108 0.076 Q 0.137 0.076 0.14400000000000002 0.101 Q 0.145 0.106 0.145 0.111 Q 0.145 0.145 0.115 0.159 Q 0.10400000000000001 0.164 0.09 0.165 Q 0.109 0.183 0.138 0.183 Q 0.182 0.183 0.20700000000000002 0.085 Q 0.212 0.062 0.219 0.025 L 0.225 -0.005 L 0.3 -0.4 L 0.234 -0.4 Q 0.209 -0.4 0.20700000000000002 -0.40800000000000003 L 0.20600000000000002 -0.40800000000000003 L 0.20600000000000002 -0.41200000000000003 Q 0.20600000000000002 -0.429 0.223 -0.431 L 0.223 -0.431 L 0.23600000000000002 -0.431 L 0.305 -0.431 Q 0.329 -0.556 0.338 -0.588 Q 0.368 -0.6880000000000001 0.444 -0.7030000000000001 Q 0.455 -0.705 0.465 -0.705 Q 0.517 -0.705 0.541 -0.671 L 0.541 -0.671 Q 0.552 -0.656 0.552 -0.636 Q 0.552 -0.596 0.518 -0.581 Q 0.508 -0.5760000000000001 0.497 -0.5760000000000001 Q 0.468 -0.5760000000000001 0.461 -0.601 Q 0.46 -0.606 0.46 -0.611 Q 0.46 -0.642 0.488 -0.657 Q 0.499 -0.664 0.514 -0.665 Q 0.495 -0.683 0.465 -0.683 Q 0.434 -0.683 0.418 -0.649 Q 0.41100000000000003 -0.635 0.394 -0.545 L 0.373 -0.431 L 0.456 -0.431 Q 0.481 -0.431 0.483 -0.42 Q 0.483 -0.402 0.467 -0.4 L 0.466 -0.4 L 0.453 -0.4 L 0.367 -0.4 Z"/></g><g transform="translate(7.5557667247863245,3.5769589)"><path fill="rgb(0,0,0)" stroke="none" paint-order="stroke fill markers" d=" M 0.331 0.24 L 0.331 0.24 Q 0.331 0.25 0.321 0.25 Q 0.309 0.25 0.268 0.209 Q 0.20600000000000002 0.147 0.165 0.062 Q 0.099 -0.074 0.099 -0.25 Q 0.099 -0.419 0.162 -0.555 Q 0.214 -0.666 0.294 -0.733 Q 0.315 -0.75 0.321 -0.75 Q 0.331 -0.75 0.331 -0.74 Q 0.331 -0.735 0.318 -0.723 Q 0.157 -0.559 0.157 -0.25 Q 0.157 0.058 0.314 0.218 Q 0.331 0.23500000000000001 0.331 0.24 Z"/></g><g transform="translate(7.9446567247863245,3.5769589)"><path fill="rgb(0,0,0)" stroke="none" paint-order="stroke fill markers" d=" M 0.334 -0.302 L 0.3 -0.165 Q 0.28300000000000003 -0.097 0.28300000000000003 -0.077 Q 0.28300000000000003 -0.025 0.32 -0.014 Q 0.328 -0.011 0.338 -0.011 Q 0.388 -0.011 0.429 -0.061 Q 0.456 -0.093 0.47100000000000003 -0.14200000000000002 Q 0.47400000000000003 -0.153 0.484 -0.153 Q 0.496 -0.153 0.496 -0.14300000000000002 Q 0.496 -0.11800000000000001 0.465 -0.07100000000000001 Q 0.41100000000000003 0.011 0.336 0.011 Q 0.268 0.011 0.23700000000000002 -0.046 Q 0.231 -0.055 0.228 -0.065 Q 0.20400000000000001 -0.017 0.162 0.002 Q 0.14300000000000002 0.011 0.123 0.011 Q 0.063 0.011 0.039 -0.024 Q 0.029 -0.037 0.029 -0.055 Q 0.029 -0.092 0.061 -0.107 Q 0.07200000000000001 -0.113 0.084 -0.113 Q 0.114 -0.113 0.12 -0.088 Q 0.121 -0.083 0.121 -0.078 Q 0.121 -0.044 0.08700000000000001 -0.028 Q 0.081 -0.025 0.074 -0.024 Q 0.095 -0.011 0.124 -0.011 Q 0.177 -0.011 0.20800000000000002 -0.082 Q 0.214 -0.097 0.219 -0.115 Q 0.273 -0.319 0.273 -0.353 Q 0.267 -0.41500000000000004 0.219 -0.42 Q 0.167 -0.42 0.124 -0.367 L 0.124 -0.366 Q 0.124 -0.365 0.123 -0.365 Q 0.108 -0.34500000000000003 0.096 -0.319 Q 0.091 -0.307 0.08700000000000001 -0.295 L 0.085 -0.289 Q 0.083 -0.278 0.07200000000000001 -0.278 Q 0.06 -0.278 0.06 -0.28800000000000003 Q 0.06 -0.313 0.092 -0.36 Q 0.146 -0.442 0.221 -0.442 Q 0.298 -0.442 0.329 -0.366 Q 0.361 -0.428 0.41400000000000003 -0.44 Q 0.424 -0.442 0.434 -0.442 Q 0.493 -0.442 0.517 -0.40900000000000003 Q 0.527 -0.395 0.527 -0.376 Q 0.527 -0.335 0.49 -0.321 Q 0.481 -0.318 0.47300000000000003 -0.318 Q 0.442 -0.318 0.436 -0.34500000000000003 Q 0.435 -0.34900000000000003 0.435 -0.353 Q 0.435 -0.383 0.464 -0.4 Q 0.47300000000000003 -0.405 0.483 -0.40700000000000003 Q 0.462 -0.42 0.433 -0.42 Q 0.365 -0.42 0.337 -0.314 Q 0.335 -0.308 0.334 -0.302 Z"/></g><g transform="translate(8.516184724786324,3.5769589)"><path fill="rgb(0,0,0)" stroke="none" paint-order="stroke fill markers" d=" M 0.289 -0.25 L 0.289 -0.25 Q 0.289 -0.081 0.226 0.055 Q 0.17400000000000002 0.166 0.094 0.233 Q 0.073 0.25 0.067 0.25 Q 0.057 0.25 0.057 0.24 Q 0.057 0.23500000000000001 0.07 0.223 Q 0.231 0.059000000000000004 0.231 -0.25 Q 0.231 -0.555 0.081 -0.712 L 0.076 -0.717 Q 0.057 -0.735 0.057 -0.74 Q 0.057 -0.75 0.067 -0.75 Q 0.079 -0.75 0.12 -0.709 Q 0.182 -0.647 0.223 -0.562 Q 0.289 -0.426 0.289 -0.25 Z"/></g><g transform="translate(8.905074724786324,3.5769589)"><path fill="rgb(0,0,0)" stroke="none" paint-order="stroke fill markers" d=" M 0.516 -0.683 L 0.372 -0.105 Q 0.366 -0.08 0.366 -0.057 Q 0.366 -0.011 0.396 -0.011 Q 0.434 -0.011 0.46 -0.091 Q 0.465 -0.108 0.47200000000000003 -0.135 Q 0.48 -0.152 0.486 -0.153 Q 0.498 -0.153 0.498 -0.14300000000000002 Q 0.498 -0.128 0.48 -0.073 Q 0.47400000000000003 -0.056 0.468 -0.044 Q 0.44 0.011 0.394 0.011 Q 0.338 0.011 0.313 -0.037 Q 0.306 -0.049 0.303 -0.064 Q 0.24 0.011 0.17300000000000001 0.011 Q 0.098 0.011 0.062 -0.057 Q 0.04 -0.097 0.04 -0.149 Q 0.04 -0.257 0.115 -0.34900000000000003 Q 0.185 -0.433 0.267 -0.441 Q 0.274 -0.442 0.281 -0.442 Q 0.342 -0.442 0.373 -0.378 L 0.433 -0.615 L 0.436 -0.635 Q 0.436 -0.646 0.422 -0.649 Q 0.41000000000000003 -0.652 0.386 -0.652 Q 0.364 -0.652 0.362 -0.664 Q 0.362 -0.681 0.376 -0.683 Q 0.47000000000000003 -0.6940000000000001 0.503 -0.6940000000000001 Q 0.516 -0.6940000000000001 0.516 -0.683 M 0.308 -0.11900000000000001 L 0.308 -0.11900000000000001 L 0.358 -0.315 Q 0.361 -0.33 0.361 -0.332 Q 0.361 -0.353 0.343 -0.383 Q 0.321 -0.42 0.28200000000000003 -0.42 Q 0.23 -0.42 0.183 -0.352 Q 0.17400000000000002 -0.339 0.166 -0.324 Q 0.137 -0.266 0.117 -0.159 Q 0.111 -0.125 0.111 -0.105 Q 0.111 -0.037 0.149 -0.017 Q 0.16 -0.011 0.17500000000000002 -0.011 Q 0.231 -0.011 0.28800000000000003 -0.082 Q 0.302 -0.098 0.307 -0.115 L 0.307 -0.116 Q 0.308 -0.11800000000000001 0.308 -0.11900000000000001 Z"/></g><g transform="translate(9.425562724786325,3.5769589)"><path fill="rgb(0,0,0)" stroke="none" paint-order="stroke fill markers" d=" M 0.334 -0.302 L 0.3 -0.165 Q 0.28300000000000003 -0.097 0.28300000000000003 -0.077 Q 0.28300000000000003 -0.025 0.32 -0.014 Q 0.328 -0.011 0.338 -0.011 Q 0.388 -0.011 0.429 -0.061 Q 0.456 -0.093 0.47100000000000003 -0.14200000000000002 Q 0.47400000000000003 -0.153 0.484 -0.153 Q 0.496 -0.153 0.496 -0.14300000000000002 Q 0.496 -0.11800000000000001 0.465 -0.07100000000000001 Q 0.41100000000000003 0.011 0.336 0.011 Q 0.268 0.011 0.23700000000000002 -0.046 Q 0.231 -0.055 0.228 -0.065 Q 0.20400000000000001 -0.017 0.162 0.002 Q 0.14300000000000002 0.011 0.123 0.011 Q 0.063 0.011 0.039 -0.024 Q 0.029 -0.037 0.029 -0.055 Q 0.029 -0.092 0.061 -0.107 Q 0.07200000000000001 -0.113 0.084 -0.113 Q 0.114 -0.113 0.12 -0.088 Q 0.121 -0.083 0.121 -0.078 Q 0.121 -0.044 0.08700000000000001 -0.028 Q 0.081 -0.025 0.074 -0.024 Q 0.095 -0.011 0.124 -0.011 Q 0.177 -0.011 0.20800000000000002 -0.082 Q 0.214 -0.097 0.219 -0.115 Q 0.273 -0.319 0.273 -0.353 Q 0.267 -0.41500000000000004 0.219 -0.42 Q 0.167 -0.42 0.124 -0.367 L 0.124 -0.366 Q 0.124 -0.365 0.123 -0.365 Q 0.108 -0.34500000000000003 0.096 -0.319 Q 0.091 -0.307 0.08700000000000001 -0.295 L 0.085 -0.289 Q 0.083 -0.278 0.07200000000000001 -0.278 Q 0.06 -0.278 0.06 -0.28800000000000003 Q 0.06 -0.313 0.092 -0.36 Q 0.146 -0.442 0.221 -0.442 Q 0.298 -0.442 0.329 -0.366 Q 0.361 -0.428 0.41400000000000003 -0.44 Q 0.424 -0.442 0.434 -0.442 Q 0.493 -0.442 0.517 -0.40900000000000003 Q 0.527 -0.395 0.527 -0.376 Q 0.527 -0.335 0.49 -0.321 Q 0.481 -0.318 0.47300000000000003 -0.318 Q 0.442 -0.318 0.436 -0.34500000000000003 Q 0.435 -0.34900000000000003 0.435 -0.353 Q 0.435 -0.383 0.464 -0.4 Q 0.47300000000000003 -0.405 0.483 -0.40700000000000003 Q 0.462 -0.42 0.433 -0.42 Q 0.365 -0.42 0.337 -0.314 Q 0.335 -0.308 0.334 -0.302 Z"/></g></g><g transform="scale(15,15) translate(5.2,9.133333333333333) scale(0.1,0.1)"><text fill="rgb(0,0,0)" stroke="none" font-family="Serif" font-size="10px" font-style="normal" font-weight="normal" text-decoration="normal" x="0" y="0" text-anchor="start" dominant-baseline="alphabetic">积分号</text><g transform="scale(10,10) translate(-5.2,-9.133333333333333)"/></g><g transform="scale(15,15) translate(7.333333333333333,16.2) scale(0.1,0.1)"><text fill="rgb(0,0,0)" stroke="none" font-family="Serif" font-size="10px" font-style="normal" font-weight="normal" text-decoration="normal" x="0" y="0" text-anchor="start" dominant-baseline="alphabetic">积分下限</text><g transform="scale(10,10) translate(-7.333333333333333,-16.2)"/></g><g transform="scale(15,15) translate(8.2,2) scale(0.1,0.1)"><text fill="rgb(0,0,0)" stroke="none" font-family="Serif" font-size="10px" font-style="normal" font-weight="normal" text-decoration="normal" x="0" y="0" text-anchor="start" dominant-baseline="alphabetic">积分上限</text><g transform="scale(10,10) translate(-8.2,-2)"/></g><g transform="scale(15,15) translate(17.8,1.5833333154519398) scale(1.399999976158142,1.399999976158142)"><g transform="translate(0,0)"><path fill="rgb(0,0,0)" stroke="none" paint-order="stroke fill markers" d=" M 0.367 -0.4 L 0.367 -0.4 L 0.307 -0.083 Q 0.298 -0.021 0.271 0.059000000000000004 Q 0.261 0.088 0.251 0.108 Q 0.216 0.182 0.164 0.2 Q 0.151 0.20500000000000002 0.138 0.20500000000000002 Q 0.088 0.20500000000000002 0.064 0.171 Q 0.053 0.156 0.053 0.136 Q 0.053 0.096 0.08700000000000001 0.081 Q 0.097 0.076 0.108 0.076 Q 0.137 0.076 0.14400000000000002 0.101 Q 0.145 0.106 0.145 0.111 Q 0.145 0.145 0.115 0.159 Q 0.10400000000000001 0.164 0.09 0.165 Q 0.109 0.183 0.138 0.183 Q 0.182 0.183 0.20700000000000002 0.085 Q 0.212 0.062 0.219 0.025 L 0.225 -0.005 L 0.3 -0.4 L 0.234 -0.4 Q 0.209 -0.4 0.20700000000000002 -0.40800000000000003 L 0.20600000000000002 -0.40800000000000003 L 0.20600000000000002 -0.41200000000000003 Q 0.20600000000000002 -0.429 0.223 -0.431 L 0.223 -0.431 L 0.23600000000000002 -0.431 L 0.305 -0.431 Q 0.329 -0.556 0.338 -0.588 Q 0.368 -0.6880000000000001 0.444 -0.7030000000000001 Q 0.455 -0.705 0.465 -0.705 Q 0.517 -0.705 0.541 -0.671 L 0.541 -0.671 Q 0.552 -0.656 0.552 -0.636 Q 0.552 -0.596 0.518 -0.581 Q 0.508 -0.5760000000000001 0.497 -0.5760000000000001 Q 0.468 -0.5760000000000001 0.461 -0.601 Q 0.46 -0.606 0.46 -0.611 Q 0.46 -0.642 0.488 -0.657 Q 0.499 -0.664 0.514 -0.665 Q 0.495 -0.683 0.465 -0.683 Q 0.434 -0.683 0.418 -0.649 Q 0.41100000000000003 -0.635 0.394 -0.545 L 0.373 -0.431 L 0.456 -0.431 Q 0.481 -0.431 0.483 -0.42 Q 0.483 -0.402 0.467 -0.4 L 0.466 -0.4 L 0.453 -0.4 L 0.367 -0.4 Z"/></g><g transform="translate(0.597226,0)"><path fill="rgb(0,0,0)" stroke="none" paint-order="stroke fill markers" d=" M 0.331 0.24 L 0.331 0.24 Q 0.331 0.25 0.321 0.25 Q 0.309 0.25 0.268 0.209 Q 0.20600000000000002 0.147 0.165 0.062 Q 0.099 -0.074 0.099 -0.25 Q 0.099 -0.419 0.162 -0.555 Q 0.214 -0.666 0.294 -0.733 Q 0.315 -0.75 0.321 -0.75 Q 0.331 -0.75 0.331 -0.74 Q 0.331 -0.735 0.318 -0.723 Q 0.157 -0.559 0.157 -0.25 Q 0.157 0.058 0.314 0.218 Q 0.331 0.23500000000000001 0.331 0.24 Z"/></g><g transform="translate(0.986116,0)"><path fill="rgb(0,0,0)" stroke="none" paint-order="stroke fill markers" d=" M 0.334 -0.302 L 0.3 -0.165 Q 0.28300000000000003 -0.097 0.28300000000000003 -0.077 Q 0.28300000000000003 -0.025 0.32 -0.014 Q 0.328 -0.011 0.338 -0.011 Q 0.388 -0.011 0.429 -0.061 Q 0.456 -0.093 0.47100000000000003 -0.14200000000000002 Q 0.47400000000000003 -0.153 0.484 -0.153 Q 0.496 -0.153 0.496 -0.14300000000000002 Q 0.496 -0.11800000000000001 0.465 -0.07100000000000001 Q 0.41100000000000003 0.011 0.336 0.011 Q 0.268 0.011 0.23700000000000002 -0.046 Q 0.231 -0.055 0.228 -0.065 Q 0.20400000000000001 -0.017 0.162 0.002 Q 0.14300000000000002 0.011 0.123 0.011 Q 0.063 0.011 0.039 -0.024 Q 0.029 -0.037 0.029 -0.055 Q 0.029 -0.092 0.061 -0.107 Q 0.07200000000000001 -0.113 0.084 -0.113 Q 0.114 -0.113 0.12 -0.088 Q 0.121 -0.083 0.121 -0.078 Q 0.121 -0.044 0.08700000000000001 -0.028 Q 0.081 -0.025 0.074 -0.024 Q 0.095 -0.011 0.124 -0.011 Q 0.177 -0.011 0.20800000000000002 -0.082 Q 0.214 -0.097 0.219 -0.115 Q 0.273 -0.319 0.273 -0.353 Q 0.267 -0.41500000000000004 0.219 -0.42 Q 0.167 -0.42 0.124 -0.367 L 0.124 -0.366 Q 0.124 -0.365 0.123 -0.365 Q 0.108 -0.34500000000000003 0.096 -0.319 Q 0.091 -0.307 0.08700000000000001 -0.295 L 0.085 -0.289 Q 0.083 -0.278 0.07200000000000001 -0.278 Q 0.06 -0.278 0.06 -0.28800000000000003 Q 0.06 -0.313 0.092 -0.36 Q 0.146 -0.442 0.221 -0.442 Q 0.298 -0.442 0.329 -0.366 Q 0.361 -0.428 0.41400000000000003 -0.44 Q 0.424 -0.442 0.434 -0.442 Q 0.493 -0.442 0.517 -0.40900000000000003 Q 0.527 -0.395 0.527 -0.376 Q 0.527 -0.335 0.49 -0.321 Q 0.481 -0.318 0.47300000000000003 -0.318 Q 0.442 -0.318 0.436 -0.34500000000000003 Q 0.435 -0.34900000000000003 0.435 -0.353 Q 0.435 -0.383 0.464 -0.4 Q 0.47300000000000003 -0.405 0.483 -0.40700000000000003 Q 0.462 -0.42 0.433 -0.42 Q 0.365 -0.42 0.337 -0.314 Q 0.335 -0.308 0.334 -0.302 Z"/></g><g transform="translate(1.557644,0)"><path fill="rgb(0,0,0)" stroke="none" paint-order="stroke fill markers" d=" M 0.289 -0.25 L 0.289 -0.25 Q 0.289 -0.081 0.226 0.055 Q 0.17400000000000002 0.166 0.094 0.233 Q 0.073 0.25 0.067 0.25 Q 0.057 0.25 0.057 0.24 Q 0.057 0.23500000000000001 0.07 0.223 Q 0.231 0.059000000000000004 0.231 -0.25 Q 0.231 -0.555 0.081 -0.712 L 0.076 -0.717 Q 0.057 -0.735 0.057 -0.74 Q 0.057 -0.75 0.067 -0.75 Q 0.079 -0.75 0.12 -0.709 Q 0.182 -0.647 0.223 -0.562 Q 0.289 -0.426 0.289 -0.25 Z"/></g><g transform="scale(0.7142857264499277,0.7142857264499277) translate(-17.8,-1.5833333154519398) translate(20.858481553591012,1.5833333154519398) scale(0.1,0.1)"><text fill="rgb(0,0,0)" stroke="none" font-family="Serif" font-size="10px" font-style="normal" font-weight="normal" text-decoration="normal" x="0" y="0" text-anchor="start" dominant-baseline="alphabetic">是被积函数</text><g transform="scale(10,10) translate(-20.858481553591012,-1.5833333154519398)"/></g></g><g transform="scale(15,15) translate(31.333333333333332,8.733333333333334) scale(1.399999976158142,1.399999976158142)"><g transform="translate(0,0)"><path fill="rgb(0,0,0)" stroke="none" paint-order="stroke fill markers" d=" M 0.334 -0.302 L 0.3 -0.165 Q 0.28300000000000003 -0.097 0.28300000000000003 -0.077 Q 0.28300000000000003 -0.025 0.32 -0.014 Q 0.328 -0.011 0.338 -0.011 Q 0.388 -0.011 0.429 -0.061 Q 0.456 -0.093 0.47100000000000003 -0.14200000000000002 Q 0.47400000000000003 -0.153 0.484 -0.153 Q 0.496 -0.153 0.496 -0.14300000000000002 Q 0.496 -0.11800000000000001 0.465 -0.07100000000000001 Q 0.41100000000000003 0.011 0.336 0.011 Q 0.268 0.011 0.23700000000000002 -0.046 Q 0.231 -0.055 0.228 -0.065 Q 0.20400000000000001 -0.017 0.162 0.002 Q 0.14300000000000002 0.011 0.123 0.011 Q 0.063 0.011 0.039 -0.024 Q 0.029 -0.037 0.029 -0.055 Q 0.029 -0.092 0.061 -0.107 Q 0.07200000000000001 -0.113 0.084 -0.113 Q 0.114 -0.113 0.12 -0.088 Q 0.121 -0.083 0.121 -0.078 Q 0.121 -0.044 0.08700000000000001 -0.028 Q 0.081 -0.025 0.074 -0.024 Q 0.095 -0.011 0.124 -0.011 Q 0.177 -0.011 0.20800000000000002 -0.082 Q 0.214 -0.097 0.219 -0.115 Q 0.273 -0.319 0.273 -0.353 Q 0.267 -0.41500000000000004 0.219 -0.42 Q 0.167 -0.42 0.124 -0.367 L 0.124 -0.366 Q 0.124 -0.365 0.123 -0.365 Q 0.108 -0.34500000000000003 0.096 -0.319 Q 0.091 -0.307 0.08700000000000001 -0.295 L 0.085 -0.289 Q 0.083 -0.278 0.07200000000000001 -0.278 Q 0.06 -0.278 0.06 -0.28800000000000003 Q 0.06 -0.313 0.092 -0.36 Q 0.146 -0.442 0.221 -0.442 Q 0.298 -0.442 0.329 -0.366 Q 0.361 -0.428 0.41400000000000003 -0.44 Q 0.424 -0.442 0.434 -0.442 Q 0.493 -0.442 0.517 -0.40900000000000003 Q 0.527 -0.395 0.527 -0.376 Q 0.527 -0.335 0.49 -0.321 Q 0.481 -0.318 0.47300000000000003 -0.318 Q 0.442 -0.318 0.436 -0.34500000000000003 Q 0.435 -0.34900000000000003 0.435 -0.353 Q 0.435 -0.383 0.464 -0.4 Q 0.47300000000000003 -0.405 0.483 -0.40700000000000003 Q 0.462 -0.42 0.433 -0.42 Q 0.365 -0.42 0.337 -0.314 Q 0.335 -0.308 0.334 -0.302 Z"/></g><g transform="scale(0.7142857264499277,0.7142857264499277) translate(-31.333333333333332,-8.733333333333334) translate(32.13347251970704,8.733333333333334) scale(0.1,0.1)"><text fill="rgb(0,0,0)" stroke="none" font-family="Serif" font-size="10px" font-style="normal" font-weight="normal" text-decoration="normal" x="0" y="0" text-anchor="start" dominant-baseline="alphabetic">是积分变量</text><g transform="scale(10,10) translate(-32.13347251970704,-8.733333333333334)"/></g></g><g transform="scale(21,21)"><g transform="translate(25.062057761904768,11.761904761904763) rotate(90,0,0)"><g transform="translate(0,5.100051000000002)"><path fill="rgb(0,0,0)" stroke="none" paint-order="stroke fill markers" d=" M 0.3837890625 0.90087890625 L 0.3837890625 0.4560546875 Q 0.3837890625 0.3935546875 0.3701171875 0.334716796875 Q 0.3564453125 0.27587890625 0.330078125 0.2236328125 Q 0.3037109375 0.17138671875 0.263916015625 0.125 Q 0.22412109375 0.07861328125 0.173828125 0.046875 Q 0.169921875 0.044921875 0.169921875 0.041015625 L 0.169921875 0.009765625 Q 0.169921875 0.0009765625 0.17919921875 0.0009765625 L 0.2099609375 0.0009765625 Q 0.2109375 0.0009765625 0.21484375 0.0029296875 Q 0.298828125 0.04638671875 0.364501953125 0.116455078125 Q 0.43017578125 0.1865234375 0.467041015625 0.273681640625 Q 0.50390625 0.36083984375 0.50390625 0.4541015625 L 0.50390625 0.90087890625 Q 0.50390625 0.90380859375 0.501220703125 0.906982421875 Q 0.49853515625 0.91015625 0.49609375 0.91015625 L 0.39306640625 0.91015625 Q 0.3896484375 0.91015625 0.38671875 0.9072265625 Q 0.3837890625 0.904296875 0.3837890625 0.90087890625 Z"/></g><g transform="translate(0,6.000060000000002)"><path fill="rgb(0,0,0)" stroke="none" paint-order="stroke fill markers" d=" M 0.3837890625 0.30078125 L 0.3837890625 -0.0009765625 Q 0.3837890625 -0.00439453125 0.38623046875 -0.007080078125 Q 0.388671875 -0.009765625 0.39306640625 -0.009765625 L 0.49609375 -0.009765625 Q 0.4990234375 -0.009765625 0.50146484375 -0.007080078125 Q 0.50390625 -0.00439453125 0.50390625 -0.0009765625 L 0.50390625 0.30078125 Q 0.50390625 0.3037109375 0.501220703125 0.306884765625 Q 0.49853515625 0.31005859375 0.49609375 0.31005859375 L 0.39306640625 0.31005859375 Q 0.3837890625 0.31005859375 0.3837890625 0.30078125 Z"/></g><g transform="translate(0,6.300063000000002)"><path fill="rgb(0,0,0)" stroke="none" paint-order="stroke fill markers" d=" M 0.3837890625 0.30078125 L 0.3837890625 -0.0009765625 Q 0.3837890625 -0.00439453125 0.38623046875 -0.007080078125 Q 0.388671875 -0.009765625 0.39306640625 -0.009765625 L 0.49609375 -0.009765625 Q 0.4990234375 -0.009765625 0.50146484375 -0.007080078125 Q 0.50390625 -0.00439453125 0.50390625 -0.0009765625 L 0.50390625 0.30078125 Q 0.50390625 0.3037109375 0.501220703125 0.306884765625 Q 0.49853515625 0.31005859375 0.49609375 0.31005859375 L 0.39306640625 0.31005859375 Q 0.3837890625 0.31005859375 0.3837890625 0.30078125 Z"/></g><g transform="translate(0,6.600066000000003)"><path fill="rgb(0,0,0)" stroke="none" paint-order="stroke fill markers" d=" M 0.3837890625 0.30078125 L 0.3837890625 -0.0009765625 Q 0.3837890625 -0.00439453125 0.38623046875 -0.007080078125 Q 0.388671875 -0.009765625 0.39306640625 -0.009765625 L 0.49609375 -0.009765625 Q 0.4990234375 -0.009765625 0.50146484375 -0.007080078125 Q 0.50390625 -0.00439453125 0.50390625 -0.0009765625 L 0.50390625 0.30078125 Q 0.50390625 0.3037109375 0.501220703125 0.306884765625 Q 0.49853515625 0.31005859375 0.49609375 0.31005859375 L 0.39306640625 0.31005859375 Q 0.3837890625 0.31005859375 0.3837890625 0.30078125 Z"/></g><g transform="translate(0,6.900069000000003)"><path fill="rgb(0,0,0)" stroke="none" paint-order="stroke fill markers" d=" M 0.3837890625 0.30078125 L 0.3837890625 -0.0009765625 Q 0.3837890625 -0.00439453125 0.38623046875 -0.007080078125 Q 0.388671875 -0.009765625 0.39306640625 -0.009765625 L 0.49609375 -0.009765625 Q 0.4990234375 -0.009765625 0.50146484375 -0.007080078125 Q 0.50390625 -0.00439453125 0.50390625 -0.0009765625 L 0.50390625 0.30078125 Q 0.50390625 0.3037109375 0.501220703125 0.306884765625 Q 0.49853515625 0.31005859375 0.49609375 0.31005859375 L 0.39306640625 0.31005859375 Q 0.3837890625 0.31005859375 0.3837890625 0.30078125 Z"/></g><g transform="translate(0,7.200072000000003)"><path fill="rgb(0,0,0)" stroke="none" paint-order="stroke fill markers" d=" M 0.3837890625 0.30078125 L 0.3837890625 -0.0009765625 Q 0.3837890625 -0.00439453125 0.38623046875 -0.007080078125 Q 0.388671875 -0.009765625 0.39306640625 -0.009765625 L 0.49609375 -0.009765625 Q 0.4990234375 -0.009765625 0.50146484375 -0.007080078125 Q 0.50390625 -0.00439453125 0.50390625 -0.0009765625 L 0.50390625 0.30078125 Q 0.50390625 0.3037109375 0.501220703125 0.306884765625 Q 0.49853515625 0.31005859375 0.49609375 0.31005859375 L 0.39306640625 0.31005859375 Q 0.3837890625 0.31005859375 0.3837890625 0.30078125 Z"/></g><g transform="translate(0,7.500075000000003)"><path fill="rgb(0,0,0)" stroke="none" paint-order="stroke fill markers" d=" M 0.3837890625 0.30078125 L 0.3837890625 -0.0009765625 Q 0.3837890625 -0.00439453125 0.38623046875 -0.007080078125 Q 0.388671875 -0.009765625 0.39306640625 -0.009765625 L 0.49609375 -0.009765625 Q 0.4990234375 -0.009765625 0.50146484375 -0.007080078125 Q 0.50390625 -0.00439453125 0.50390625 -0.0009765625 L 0.50390625 0.30078125 Q 0.50390625 0.3037109375 0.501220703125 0.306884765625 Q 0.49853515625 0.31005859375 0.49609375 0.31005859375 L 0.39306640625 0.31005859375 Q 0.3837890625 0.31005859375 0.3837890625 0.30078125 Z"/></g><g transform="translate(0,7.800078000000004)"><path fill="rgb(0,0,0)" stroke="none" paint-order="stroke fill markers" d=" M 0.3837890625 0.30078125 L 0.3837890625 -0.0009765625 Q 0.3837890625 -0.00439453125 0.38623046875 -0.007080078125 Q 0.388671875 -0.009765625 0.39306640625 -0.009765625 L 0.49609375 -0.009765625 Q 0.4990234375 -0.009765625 0.50146484375 -0.007080078125 Q 0.50390625 -0.00439453125 0.50390625 -0.0009765625 L 0.50390625 0.30078125 Q 0.50390625 0.3037109375 0.501220703125 0.306884765625 Q 0.49853515625 0.31005859375 0.49609375 0.31005859375 L 0.39306640625 0.31005859375 Q 0.3837890625 0.31005859375 0.3837890625 0.30078125 Z"/></g><g transform="translate(0,8.100081000000003)"><path fill="rgb(0,0,0)" stroke="none" paint-order="stroke fill markers" d=" M 0.3837890625 0.30078125 L 0.3837890625 -0.0009765625 Q 0.3837890625 -0.00439453125 0.38623046875 -0.007080078125 Q 0.388671875 -0.009765625 0.39306640625 -0.009765625 L 0.49609375 -0.009765625 Q 0.4990234375 -0.009765625 0.50146484375 -0.007080078125 Q 0.50390625 -0.00439453125 0.50390625 -0.0009765625 L 0.50390625 0.30078125 Q 0.50390625 0.3037109375 0.501220703125 0.306884765625 Q 0.49853515625 0.31005859375 0.49609375 0.31005859375 L 0.39306640625 0.31005859375 Q 0.3837890625 0.31005859375 0.3837890625 0.30078125 Z"/></g><g transform="translate(0,8.400084000000003)"><path fill="rgb(0,0,0)" stroke="none" paint-order="stroke fill markers" d=" M 0.3837890625 0.30078125 L 0.3837890625 -0.0009765625 Q 0.3837890625 -0.00439453125 0.38623046875 -0.007080078125 Q 0.388671875 -0.009765625 0.39306640625 -0.009765625 L 0.49609375 -0.009765625 Q 0.4990234375 -0.009765625 0.50146484375 -0.007080078125 Q 0.50390625 -0.00439453125 0.50390625 -0.0009765625 L 0.50390625 0.30078125 Q 0.50390625 0.3037109375 0.501220703125 0.306884765625 Q 0.49853515625 0.31005859375 0.49609375 0.31005859375 L 0.39306640625 0.31005859375 Q 0.3837890625 0.31005859375 0.3837890625 0.30078125 Z"/></g><g transform="translate(0,8.700087000000003)"><path fill="rgb(0,0,0)" stroke="none" paint-order="stroke fill markers" d=" M 0.3837890625 0.30078125 L 0.3837890625 -0.0009765625 Q 0.3837890625 -0.00439453125 0.38623046875 -0.007080078125 Q 0.388671875 -0.009765625 0.39306640625 -0.009765625 L 0.49609375 -0.009765625 Q 0.4990234375 -0.009765625 0.50146484375 -0.007080078125 Q 0.50390625 -0.00439453125 0.50390625 -0.0009765625 L 0.50390625 0.30078125 Q 0.50390625 0.3037109375 0.501220703125 0.306884765625 Q 0.49853515625 0.31005859375 0.49609375 0.31005859375 L 0.39306640625 0.31005859375 Q 0.3837890625 0.31005859375 0.3837890625 0.30078125 Z"/></g><g transform="translate(0,9.000090000000004)"><path fill="rgb(0,0,0)" stroke="none" paint-order="stroke fill markers" d=" M 0.3837890625 0.30078125 L 0.3837890625 -0.0009765625 Q 0.3837890625 -0.00439453125 0.38623046875 -0.007080078125 Q 0.388671875 -0.009765625 0.39306640625 -0.009765625 L 0.49609375 -0.009765625 Q 0.4990234375 -0.009765625 0.50146484375 -0.007080078125 Q 0.50390625 -0.00439453125 0.50390625 -0.0009765625 L 0.50390625 0.30078125 Q 0.50390625 0.3037109375 0.501220703125 0.306884765625 Q 0.49853515625 0.31005859375 0.49609375 0.31005859375 L 0.39306640625 0.31005859375 Q 0.3837890625 0.31005859375 0.3837890625 0.30078125 Z"/></g><g transform="translate(0,9.300093000000004)"><path fill="rgb(0,0,0)" stroke="none" paint-order="stroke fill markers" d=" M 0.3837890625 1.80078125 L 0.3837890625 1.36376953125 Q 0.3837890625 1.29443359375 0.4033203125 1.2265625 Q 0.4228515625 1.15869140625 0.460205078125 1.096923828125 Q 0.49755859375 1.03515625 0.54931640625 0.984375 Q 0.60107421875 0.93359375 0.66015625 0.89990234375 Q 0.59912109375 0.8642578125 0.548583984375 0.81494140625 Q 0.498046875 0.765625 0.46044921875 0.70361328125 Q 0.4228515625 0.6416015625 0.4033203125 0.5732421875 Q 0.3837890625 0.5048828125 0.3837890625 0.43701171875 L 0.3837890625 -0.0009765625 Q 0.3837890625 -0.00439453125 0.38623046875 -0.007080078125 Q 0.388671875 -0.009765625 0.39306640625 -0.009765625 L 0.49609375 -0.009765625 Q 0.4990234375 -0.009765625 0.50146484375 -0.007080078125 Q 0.50390625 -0.00439453125 0.50390625 -0.0009765625 L 0.50390625 0.43505859375 Q 0.50390625 0.52294921875 0.527099609375 0.605224609375 Q 0.55029296875 0.6875 0.59765625 0.75830078125 Q 0.64501953125 0.8291015625 0.71484375 0.8779296875 Q 0.7177734375 0.880859375 0.7177734375 0.884765625 L 0.7177734375 0.916015625 Q 0.7177734375 0.9189453125 0.71484375 0.921875 Q 0.64501953125 0.970703125 0.59765625 1.041748046875 Q 0.55029296875 1.11279296875 0.527099609375 1.1953125 Q 0.50390625 1.27783203125 0.50390625 1.3662109375 L 0.50390625 1.80078125 Q 0.50390625 1.8037109375 0.501220703125 1.806884765625 Q 0.49853515625 1.81005859375 0.49609375 1.81005859375 L 0.39306640625 1.81005859375 Q 0.3837890625 1.81005859375 0.3837890625 1.80078125 Z"/></g><g transform="translate(0,11.100111000000004)"><path fill="rgb(0,0,0)" stroke="none" paint-order="stroke fill markers" d=" M 0.3837890625 0.30078125 L 0.3837890625 -0.0009765625 Q 0.3837890625 -0.00439453125 0.38623046875 -0.007080078125 Q 0.388671875 -0.009765625 0.39306640625 -0.009765625 L 0.49609375 -0.009765625 Q 0.4990234375 -0.009765625 0.50146484375 -0.007080078125 Q 0.50390625 -0.00439453125 0.50390625 -0.0009765625 L 0.50390625 0.30078125 Q 0.50390625 0.3037109375 0.501220703125 0.306884765625 Q 0.49853515625 0.31005859375 0.49609375 0.31005859375 L 0.39306640625 0.31005859375 Q 0.3837890625 0.31005859375 0.3837890625 0.30078125 Z"/></g><g transform="translate(0,11.400114000000004)"><path fill="rgb(0,0,0)" stroke="none" paint-order="stroke fill markers" d=" M 0.3837890625 0.30078125 L 0.3837890625 -0.0009765625 Q 0.3837890625 -0.00439453125 0.38623046875 -0.007080078125 Q 0.388671875 -0.009765625 0.39306640625 -0.009765625 L 0.49609375 -0.009765625 Q 0.4990234375 -0.009765625 0.50146484375 -0.007080078125 Q 0.50390625 -0.00439453125 0.50390625 -0.0009765625 L 0.50390625 0.30078125 Q 0.50390625 0.3037109375 0.501220703125 0.306884765625 Q 0.49853515625 0.31005859375 0.49609375 0.31005859375 L 0.39306640625 0.31005859375 Q 0.3837890625 0.31005859375 0.3837890625 0.30078125 Z"/></g><g transform="translate(0,11.700117000000004)"><path fill="rgb(0,0,0)" stroke="none" paint-order="stroke fill markers" d=" M 0.3837890625 0.30078125 L 0.3837890625 -0.0009765625 Q 0.3837890625 -0.00439453125 0.38623046875 -0.007080078125 Q 0.388671875 -0.009765625 0.39306640625 -0.009765625 L 0.49609375 -0.009765625 Q 0.4990234375 -0.009765625 0.50146484375 -0.007080078125 Q 0.50390625 -0.00439453125 0.50390625 -0.0009765625 L 0.50390625 0.30078125 Q 0.50390625 0.3037109375 0.501220703125 0.306884765625 Q 0.49853515625 0.31005859375 0.49609375 0.31005859375 L 0.39306640625 0.31005859375 Q 0.3837890625 0.31005859375 0.3837890625 0.30078125 Z"/></g><g transform="translate(0,12.000120000000004)"><path fill="rgb(0,0,0)" stroke="none" paint-order="stroke fill markers" d=" M 0.3837890625 0.30078125 L 0.3837890625 -0.0009765625 Q 0.3837890625 -0.00439453125 0.38623046875 -0.007080078125 Q 0.388671875 -0.009765625 0.39306640625 -0.009765625 L 0.49609375 -0.009765625 Q 0.4990234375 -0.009765625 0.50146484375 -0.007080078125 Q 0.50390625 -0.00439453125 0.50390625 -0.0009765625 L 0.50390625 0.30078125 Q 0.50390625 0.3037109375 0.501220703125 0.306884765625 Q 0.49853515625 0.31005859375 0.49609375 0.31005859375 L 0.39306640625 0.31005859375 Q 0.3837890625 0.31005859375 0.3837890625 0.30078125 Z"/></g><g transform="translate(0,12.300123000000005)"><path fill="rgb(0,0,0)" stroke="none" paint-order="stroke fill markers" d=" M 0.3837890625 0.30078125 L 0.3837890625 -0.0009765625 Q 0.3837890625 -0.00439453125 0.38623046875 -0.007080078125 Q 0.388671875 -0.009765625 0.39306640625 -0.009765625 L 0.49609375 -0.009765625 Q 0.4990234375 -0.009765625 0.50146484375 -0.007080078125 Q 0.50390625 -0.00439453125 0.50390625 -0.0009765625 L 0.50390625 0.30078125 Q 0.50390625 0.3037109375 0.501220703125 0.306884765625 Q 0.49853515625 0.31005859375 0.49609375 0.31005859375 L 0.39306640625 0.31005859375 Q 0.3837890625 0.31005859375 0.3837890625 0.30078125 Z"/></g><g transform="translate(0,12.600126000000005)"><path fill="rgb(0,0,0)" stroke="none" paint-order="stroke fill markers" d=" M 0.3837890625 0.30078125 L 0.3837890625 -0.0009765625 Q 0.3837890625 -0.00439453125 0.38623046875 -0.007080078125 Q 0.388671875 -0.009765625 0.39306640625 -0.009765625 L 0.49609375 -0.009765625 Q 0.4990234375 -0.009765625 0.50146484375 -0.007080078125 Q 0.50390625 -0.00439453125 0.50390625 -0.0009765625 L 0.50390625 0.30078125 Q 0.50390625 0.3037109375 0.501220703125 0.306884765625 Q 0.49853515625 0.31005859375 0.49609375 0.31005859375 L 0.39306640625 0.31005859375 Q 0.3837890625 0.31005859375 0.3837890625 0.30078125 Z"/></g><g transform="translate(0,12.900129000000005)"><path fill="rgb(0,0,0)" stroke="none" paint-order="stroke fill markers" d=" M 0.3837890625 0.30078125 L 0.3837890625 -0.0009765625 Q 0.3837890625 -0.00439453125 0.38623046875 -0.007080078125 Q 0.388671875 -0.009765625 0.39306640625 -0.009765625 L 0.49609375 -0.009765625 Q 0.4990234375 -0.009765625 0.50146484375 -0.007080078125 Q 0.50390625 -0.00439453125 0.50390625 -0.0009765625 L 0.50390625 0.30078125 Q 0.50390625 0.3037109375 0.501220703125 0.306884765625 Q 0.49853515625 0.31005859375 0.49609375 0.31005859375 L 0.39306640625 0.31005859375 Q 0.3837890625 0.31005859375 0.3837890625 0.30078125 Z"/></g><g transform="translate(0,13.200132000000005)"><path fill="rgb(0,0,0)" stroke="none" paint-order="stroke fill markers" d=" M 0.3837890625 0.30078125 L 0.3837890625 -0.0009765625 Q 0.3837890625 -0.00439453125 0.38623046875 -0.007080078125 Q 0.388671875 -0.009765625 0.39306640625 -0.009765625 L 0.49609375 -0.009765625 Q 0.4990234375 -0.009765625 0.50146484375 -0.007080078125 Q 0.50390625 -0.00439453125 0.50390625 -0.0009765625 L 0.50390625 0.30078125 Q 0.50390625 0.3037109375 0.501220703125 0.306884765625 Q 0.49853515625 0.31005859375 0.49609375 0.31005859375 L 0.39306640625 0.31005859375 Q 0.3837890625 0.31005859375 0.3837890625 0.30078125 Z"/></g><g transform="translate(0,13.500135000000006)"><path fill="rgb(0,0,0)" stroke="none" paint-order="stroke fill markers" d=" M 0.3837890625 0.30078125 L 0.3837890625 -0.0009765625 Q 0.3837890625 -0.00439453125 0.38623046875 -0.007080078125 Q 0.388671875 -0.009765625 0.39306640625 -0.009765625 L 0.49609375 -0.009765625 Q 0.4990234375 -0.009765625 0.50146484375 -0.007080078125 Q 0.50390625 -0.00439453125 0.50390625 -0.0009765625 L 0.50390625 0.30078125 Q 0.50390625 0.3037109375 0.501220703125 0.306884765625 Q 0.49853515625 0.31005859375 0.49609375 0.31005859375 L 0.39306640625 0.31005859375 Q 0.3837890625 0.31005859375 0.3837890625 0.30078125 Z"/></g><g transform="translate(0,13.800138000000006)"><path fill="rgb(0,0,0)" stroke="none" paint-order="stroke fill markers" d=" M 0.3837890625 0.30078125 L 0.3837890625 -0.0009765625 Q 0.3837890625 -0.00439453125 0.38623046875 -0.007080078125 Q 0.388671875 -0.009765625 0.39306640625 -0.009765625 L 0.49609375 -0.009765625 Q 0.4990234375 -0.009765625 0.50146484375 -0.007080078125 Q 0.50390625 -0.00439453125 0.50390625 -0.0009765625 L 0.50390625 0.30078125 Q 0.50390625 0.3037109375 0.501220703125 0.306884765625 Q 0.49853515625 0.31005859375 0.49609375 0.31005859375 L 0.39306640625 0.31005859375 Q 0.3837890625 0.31005859375 0.3837890625 0.30078125 Z"/></g><g transform="translate(0,14.100141000000006)"><path fill="rgb(0,0,0)" stroke="none" paint-order="stroke fill markers" d=" M 0.3837890625 0.30078125 L 0.3837890625 -0.0009765625 Q 0.3837890625 -0.00439453125 0.38623046875 -0.007080078125 Q 0.388671875 -0.009765625 0.39306640625 -0.009765625 L 0.49609375 -0.009765625 Q 0.4990234375 -0.009765625 0.50146484375 -0.007080078125 Q 0.50390625 -0.00439453125 0.50390625 -0.0009765625 L 0.50390625 0.30078125 Q 0.50390625 0.3037109375 0.501220703125 0.306884765625 Q 0.49853515625 0.31005859375 0.49609375 0.31005859375 L 0.39306640625 0.31005859375 Q 0.3837890625 0.31005859375 0.3837890625 0.30078125 Z"/></g><g transform="translate(0,14.400144000000006)"><path fill="rgb(0,0,0)" stroke="none" paint-order="stroke fill markers" d=" M 0.169921875 0.89111328125 L 0.169921875 0.85986328125 Q 0.169921875 0.85498046875 0.173828125 0.85302734375 Q 0.240234375 0.810546875 0.2880859375 0.7451171875 Q 0.3359375 0.6796875 0.35986328125 0.60302734375 Q 0.3837890625 0.5263671875 0.3837890625 0.44384765625 L 0.3837890625 -0.0009765625 Q 0.3837890625 -0.00439453125 0.38623046875 -0.007080078125 Q 0.388671875 -0.009765625 0.39306640625 -0.009765625 L 0.49609375 -0.009765625 Q 0.4990234375 -0.009765625 0.50146484375 -0.007080078125 Q 0.50390625 -0.00439453125 0.50390625 -0.0009765625 L 0.50390625 0.44580078125 Q 0.50390625 0.517578125 0.482666015625 0.58447265625 Q 0.46142578125 0.6513671875 0.423095703125 0.709228515625 Q 0.384765625 0.76708984375 0.3310546875 0.815673828125 Q 0.27734375 0.8642578125 0.21484375 0.89697265625 Q 0.2109375 0.89892578125 0.2099609375 0.89892578125 L 0.17919921875 0.89892578125 Q 0.169921875 0.89892578125 0.169921875 0.89111328125 Z"/></g></g><g transform="translate(9.852517372676733,13.385795749387785) scale(1.399999976158142,1.399999976158142)"><g transform="translate(0,0) scale(0.7,0.7)"><path fill="rgb(0,0,0)" stroke="none" paint-order="stroke fill markers" d=" M 0.367 -0.4 L 0.367 -0.4 L 0.307 -0.083 Q 0.298 -0.021 0.271 0.059000000000000004 Q 0.261 0.088 0.251 0.108 Q 0.216 0.182 0.164 0.2 Q 0.151 0.20500000000000002 0.138 0.20500000000000002 Q 0.088 0.20500000000000002 0.064 0.171 Q 0.053 0.156 0.053 0.136 Q 0.053 0.096 0.08700000000000001 0.081 Q 0.097 0.076 0.108 0.076 Q 0.137 0.076 0.14400000000000002 0.101 Q 0.145 0.106 0.145 0.111 Q 0.145 0.145 0.115 0.159 Q 0.10400000000000001 0.164 0.09 0.165 Q 0.109 0.183 0.138 0.183 Q 0.182 0.183 0.20700000000000002 0.085 Q 0.212 0.062 0.219 0.025 L 0.225 -0.005 L 0.3 -0.4 L 0.234 -0.4 Q 0.209 -0.4 0.20700000000000002 -0.40800000000000003 L 0.20600000000000002 -0.40800000000000003 L 0.20600000000000002 -0.41200000000000003 Q 0.20600000000000002 -0.429 0.223 -0.431 L 0.223 -0.431 L 0.23600000000000002 -0.431 L 0.305 -0.431 Q 0.329 -0.556 0.338 -0.588 Q 0.368 -0.6880000000000001 0.444 -0.7030000000000001 Q 0.455 -0.705 0.465 -0.705 Q 0.517 -0.705 0.541 -0.671 L 0.541 -0.671 Q 0.552 -0.656 0.552 -0.636 Q 0.552 -0.596 0.518 -0.581 Q 0.508 -0.5760000000000001 0.497 -0.5760000000000001 Q 0.468 -0.5760000000000001 0.461 -0.601 Q 0.46 -0.606 0.46 -0.611 Q 0.46 -0.642 0.488 -0.657 Q 0.499 -0.664 0.514 -0.665 Q 0.495 -0.683 0.465 -0.683 Q 0.434 -0.683 0.418 -0.649 Q 0.41100000000000003 -0.635 0.394 -0.545 L 0.373 -0.431 L 0.456 -0.431 Q 0.481 -0.431 0.483 -0.42 Q 0.483 -0.402 0.467 -0.4 L 0.466 -0.4 L 0.453 -0.4 L 0.367 -0.4 Z"/></g><g transform="translate(0.41805820000000005,0) scale(0.7,0.7)"><path fill="rgb(0,0,0)" stroke="none" paint-order="stroke fill markers" d=" M 0.331 0.24 L 0.331 0.24 Q 0.331 0.25 0.321 0.25 Q 0.309 0.25 0.268 0.209 Q 0.20600000000000002 0.147 0.165 0.062 Q 0.099 -0.074 0.099 -0.25 Q 0.099 -0.419 0.162 -0.555 Q 0.214 -0.666 0.294 -0.733 Q 0.315 -0.75 0.321 -0.75 Q 0.331 -0.75 0.331 -0.74 Q 0.331 -0.735 0.318 -0.723 Q 0.157 -0.559 0.157 -0.25 Q 0.157 0.058 0.314 0.218 Q 0.331 0.23500000000000001 0.331 0.24 Z"/></g><g transform="translate(0.6902812,0) scale(0.7,0.7)"><path fill="rgb(0,0,0)" stroke="none" paint-order="stroke fill markers" d=" M 0.334 -0.302 L 0.3 -0.165 Q 0.28300000000000003 -0.097 0.28300000000000003 -0.077 Q 0.28300000000000003 -0.025 0.32 -0.014 Q 0.328 -0.011 0.338 -0.011 Q 0.388 -0.011 0.429 -0.061 Q 0.456 -0.093 0.47100000000000003 -0.14200000000000002 Q 0.47400000000000003 -0.153 0.484 -0.153 Q 0.496 -0.153 0.496 -0.14300000000000002 Q 0.496 -0.11800000000000001 0.465 -0.07100000000000001 Q 0.41100000000000003 0.011 0.336 0.011 Q 0.268 0.011 0.23700000000000002 -0.046 Q 0.231 -0.055 0.228 -0.065 Q 0.20400000000000001 -0.017 0.162 0.002 Q 0.14300000000000002 0.011 0.123 0.011 Q 0.063 0.011 0.039 -0.024 Q 0.029 -0.037 0.029 -0.055 Q 0.029 -0.092 0.061 -0.107 Q 0.07200000000000001 -0.113 0.084 -0.113 Q 0.114 -0.113 0.12 -0.088 Q 0.121 -0.083 0.121 -0.078 Q 0.121 -0.044 0.08700000000000001 -0.028 Q 0.081 -0.025 0.074 -0.024 Q 0.095 -0.011 0.124 -0.011 Q 0.177 -0.011 0.20800000000000002 -0.082 Q 0.214 -0.097 0.219 -0.115 Q 0.273 -0.319 0.273 -0.353 Q 0.267 -0.41500000000000004 0.219 -0.42 Q 0.167 -0.42 0.124 -0.367 L 0.124 -0.366 Q 0.124 -0.365 0.123 -0.365 Q 0.108 -0.34500000000000003 0.096 -0.319 Q 0.091 -0.307 0.08700000000000001 -0.295 L 0.085 -0.289 Q 0.083 -0.278 0.07200000000000001 -0.278 Q 0.06 -0.278 0.06 -0.28800000000000003 Q 0.06 -0.313 0.092 -0.36 Q 0.146 -0.442 0.221 -0.442 Q 0.298 -0.442 0.329 -0.366 Q 0.361 -0.428 0.41400000000000003 -0.44 Q 0.424 -0.442 0.434 -0.442 Q 0.493 -0.442 0.517 -0.40900000000000003 Q 0.527 -0.395 0.527 -0.376 Q 0.527 -0.335 0.49 -0.321 Q 0.481 -0.318 0.47300000000000003 -0.318 Q 0.442 -0.318 0.436 -0.34500000000000003 Q 0.435 -0.34900000000000003 0.435 -0.353 Q 0.435 -0.383 0.464 -0.4 Q 0.47300000000000003 -0.405 0.483 -0.40700000000000003 Q 0.462 -0.42 0.433 -0.42 Q 0.365 -0.42 0.337 -0.314 Q 0.335 -0.308 0.334 -0.302 Z"/></g><g transform="translate(1.0903508,0) scale(0.7,0.7)"><path fill="rgb(0,0,0)" stroke="none" paint-order="stroke fill markers" d=" M 0.289 -0.25 L 0.289 -0.25 Q 0.289 -0.081 0.226 0.055 Q 0.17400000000000002 0.166 0.094 0.233 Q 0.073 0.25 0.067 0.25 Q 0.057 0.25 0.057 0.24 Q 0.057 0.23500000000000001 0.07 0.223 Q 0.231 0.059000000000000004 0.231 -0.25 Q 0.231 -0.555 0.081 -0.712 L 0.076 -0.717 Q 0.057 -0.735 0.057 -0.74 Q 0.057 -0.75 0.067 -0.75 Q 0.079 -0.75 0.12 -0.709 Q 0.182 -0.647 0.223 -0.562 Q 0.289 -0.426 0.289 -0.25 Z"/></g><g transform="scale(0.7142857264499277,0.7142857264499277) translate(-9.852517372676733,-13.385795749387785) translate(11.993454460190442,13.385795749387785) scale(0.06999999999999999,0.06999999999999999)"><text fill="rgb(0,0,0)" stroke="none" font-family="Serif" font-size="10px" font-style="normal" font-weight="normal" text-decoration="normal" x="0" y="0" text-anchor="start" dominant-baseline="alphabetic">在区间</text><g transform="scale(14.285714285714286,14.285714285714286) translate(-11.993454460190442,-13.385795749387785) translate(14.354788260607675,13.385795749387785) scale(1.399999976158142,1.399999976158142)"><g transform="translate(0,0) scale(0.7,0.7)"><path fill="rgb(0,0,0)" stroke="none" paint-order="stroke fill markers" d=" M 0.255 0.25 L 0.11800000000000001 0.25 L 0.11800000000000001 -0.75 L 0.255 -0.75 L 0.255 -0.71 L 0.158 -0.71 L 0.158 0.21 L 0.255 0.21 L 0.255 0.25 Z"/></g><g transform="translate(0.1944453,0) scale(0.7,0.7)"><path fill="rgb(0,0,0)" stroke="none" paint-order="stroke fill markers" d=" M 0.373 -0.378 Q 0.378 -0.41200000000000003 0.404 -0.42 Q 0.40900000000000003 -0.422 0.41500000000000004 -0.422 Q 0.441 -0.422 0.444 -0.395 Q 0.444 -0.389 0.437 -0.361 L 0.401 -0.221 Q 0.386 -0.158 0.379 -0.131 Q 0.366 -0.079 0.366 -0.057 Q 0.366 -0.011 0.396 -0.011 Q 0.434 -0.011 0.46 -0.091 Q 0.465 -0.108 0.47200000000000003 -0.135 Q 0.48 -0.152 0.486 -0.153 Q 0.498 -0.153 0.498 -0.14300000000000002 Q 0.498 -0.128 0.48 -0.073 Q 0.47400000000000003 -0.056 0.468 -0.044 Q 0.44 0.011 0.394 0.011 Q 0.338 0.011 0.313 -0.037 Q 0.306 -0.049 0.303 -0.064 Q 0.24 0.011 0.17300000000000001 0.011 Q 0.098 0.011 0.062 -0.057 Q 0.04 -0.097 0.04 -0.149 Q 0.04 -0.257 0.115 -0.34900000000000003 Q 0.185 -0.433 0.267 -0.441 Q 0.274 -0.442 0.281 -0.442 Q 0.342 -0.442 0.373 -0.378 M 0.308 -0.11900000000000001 L 0.308 -0.11900000000000001 L 0.358 -0.315 Q 0.361 -0.33 0.361 -0.332 Q 0.361 -0.353 0.343 -0.383 Q 0.321 -0.42 0.28200000000000003 -0.42 Q 0.23 -0.42 0.183 -0.352 Q 0.17400000000000002 -0.339 0.166 -0.324 Q 0.137 -0.266 0.117 -0.159 Q 0.111 -0.125 0.111 -0.105 Q 0.111 -0.037 0.149 -0.017 Q 0.16 -0.011 0.17500000000000002 -0.011 Q 0.231 -0.011 0.28800000000000003 -0.082 Q 0.302 -0.098 0.307 -0.115 L 0.307 -0.116 Q 0.308 -0.11800000000000001 0.308 -0.11900000000000001 Z"/></g><g transform="translate(0.5644583,0) scale(0.7,0.7)"><path fill="rgb(0,0,0)" stroke="none" paint-order="stroke fill markers" d=" M 0.203 -0.001 L 0.203 -0.001 Q 0.203 0.096 0.14 0.169 Q 0.123 0.189 0.112 0.193 Q 0.10200000000000001 0.193 0.10200000000000001 0.182 Q 0.10200000000000001 0.177 0.113 0.166 Q 0.17300000000000001 0.106 0.18 0.019 Q 0.181 0.009000000000000001 0.181 -0.001 Q 0.181 -0.016 0.179 -0.016 Q 0.178 -0.016 0.17400000000000002 -0.013000000000000001 Q 0.16 0 0.139 0 Q 0.10200000000000001 0 0.09 -0.034 Q 0.08600000000000001 -0.043000000000000003 0.08600000000000001 -0.053 Q 0.08600000000000001 -0.089 0.117 -0.10200000000000001 Q 0.127 -0.106 0.139 -0.106 Q 0.183 -0.106 0.198 -0.048 Q 0.203 -0.027 0.203 -0.001 Z"/></g><g transform="translate(0.7589036,0) scale(0.7,0.7)"><path fill="rgb(0,0,0)" stroke="none" paint-order="stroke fill markers" d=" M 0.23900000000000002 -0.683 L 0.165 -0.382 Q 0.223 -0.442 0.28200000000000003 -0.442 Q 0.357 -0.442 0.394 -0.373 Q 0.41500000000000004 -0.333 0.41500000000000004 -0.28200000000000003 Q 0.41500000000000004 -0.176 0.341 -0.084 Q 0.272 0.001 0.189 0.01 Q 0.181 0.011 0.17400000000000002 0.011 Q 0.10200000000000001 0.011 0.067 -0.056 Q 0.047 -0.094 0.047 -0.146 Q 0.047 -0.18 0.063 -0.247 L 0.145 -0.5730000000000001 Q 0.159 -0.632 0.159 -0.635 Q 0.159 -0.646 0.145 -0.649 L 0.145 -0.649 Q 0.133 -0.652 0.109 -0.652 Q 0.08700000000000001 -0.652 0.085 -0.664 Q 0.085 -0.681 0.10400000000000001 -0.684 L 0.226 -0.6940000000000001 Q 0.23900000000000002 -0.6940000000000001 0.23900000000000002 -0.683 M 0.145 -0.305 L 0.123 -0.213 Q 0.107 -0.15 0.107 -0.112 Q 0.107 -0.026000000000000002 0.159 -0.013000000000000001 Q 0.166 -0.011 0.17400000000000002 -0.011 Q 0.227 -0.011 0.273 -0.081 Q 0.28300000000000003 -0.096 0.292 -0.114 Q 0.319 -0.171 0.337 -0.268 Q 0.343 -0.303 0.343 -0.326 Q 0.343 -0.406 0.294 -0.418 L 0.293 -0.419 Q 0.28700000000000003 -0.42 0.28 -0.42 Q 0.22 -0.42 0.16 -0.34 Q 0.152 -0.33 0.145 -0.305 Z"/></g><g transform="translate(1.0593205,0) scale(0.7,0.7)"><path fill="rgb(0,0,0)" stroke="none" paint-order="stroke fill markers" d=" M 0.159 -0.75 L 0.159 0.25 L 0.022 0.25 L 0.022 0.21 L 0.11900000000000001 0.21 L 0.11900000000000001 -0.71 L 0.022 -0.71 L 0.022 -0.75 L 0.159 -0.75 Z"/></g><g transform="scale(0.7142857264499277,0.7142857264499277) translate(-14.354788260607675,-13.385795749387785) translate(16.343394150715568,13.385795749387785) scale(0.06999999999999999,0.06999999999999999)"><text fill="rgb(0,0,0)" stroke="none" font-family="Serif" font-size="10px" font-style="normal" font-weight="normal" text-decoration="normal" x="0" y="0" text-anchor="start" dominant-baseline="alphabetic">上的定积分</text><g transform="scale(14.285714285714286,14.285714285714286) translate(-16.343394150715568,-13.385795749387785)"/></g></g></g></g></g><g transform="scale(21,21)"><g transform="translate(21.100081000000003,7.714285714285714) rotate(90,0,0)"><g transform="translate(0,2.7000270000000004)"><path fill="rgb(0,0,0)" stroke="none" paint-order="stroke fill markers" d=" M 0.3837890625 0.90087890625 L 0.3837890625 0.4560546875 Q 0.3837890625 0.3935546875 0.3701171875 0.334716796875 Q 0.3564453125 0.27587890625 0.330078125 0.2236328125 Q 0.3037109375 0.17138671875 0.263916015625 0.125 Q 0.22412109375 0.07861328125 0.173828125 0.046875 Q 0.169921875 0.044921875 0.169921875 0.041015625 L 0.169921875 0.009765625 Q 0.169921875 0.0009765625 0.17919921875 0.0009765625 L 0.2099609375 0.0009765625 Q 0.2109375 0.0009765625 0.21484375 0.0029296875 Q 0.298828125 0.04638671875 0.364501953125 0.116455078125 Q 0.43017578125 0.1865234375 0.467041015625 0.273681640625 Q 0.50390625 0.36083984375 0.50390625 0.4541015625 L 0.50390625 0.90087890625 Q 0.50390625 0.90380859375 0.501220703125 0.906982421875 Q 0.49853515625 0.91015625 0.49609375 0.91015625 L 0.39306640625 0.91015625 Q 0.3896484375 0.91015625 0.38671875 0.9072265625 Q 0.3837890625 0.904296875 0.3837890625 0.90087890625 Z"/></g><g transform="translate(0,3.6000360000000002)"><path fill="rgb(0,0,0)" stroke="none" paint-order="stroke fill markers" d=" M 0.3837890625 0.30078125 L 0.3837890625 -0.0009765625 Q 0.3837890625 -0.00439453125 0.38623046875 -0.007080078125 Q 0.388671875 -0.009765625 0.39306640625 -0.009765625 L 0.49609375 -0.009765625 Q 0.4990234375 -0.009765625 0.50146484375 -0.007080078125 Q 0.50390625 -0.00439453125 0.50390625 -0.0009765625 L 0.50390625 0.30078125 Q 0.50390625 0.3037109375 0.501220703125 0.306884765625 Q 0.49853515625 0.31005859375 0.49609375 0.31005859375 L 0.39306640625 0.31005859375 Q 0.3837890625 0.31005859375 0.3837890625 0.30078125 Z"/></g><g transform="translate(0,3.9000390000000005)"><path fill="rgb(0,0,0)" stroke="none" paint-order="stroke fill markers" d=" M 0.3837890625 0.30078125 L 0.3837890625 -0.0009765625 Q 0.3837890625 -0.00439453125 0.38623046875 -0.007080078125 Q 0.388671875 -0.009765625 0.39306640625 -0.009765625 L 0.49609375 -0.009765625 Q 0.4990234375 -0.009765625 0.50146484375 -0.007080078125 Q 0.50390625 -0.00439453125 0.50390625 -0.0009765625 L 0.50390625 0.30078125 Q 0.50390625 0.3037109375 0.501220703125 0.306884765625 Q 0.49853515625 0.31005859375 0.49609375 0.31005859375 L 0.39306640625 0.31005859375 Q 0.3837890625 0.31005859375 0.3837890625 0.30078125 Z"/></g><g transform="translate(0,4.200042000000001)"><path fill="rgb(0,0,0)" stroke="none" paint-order="stroke fill markers" d=" M 0.3837890625 0.30078125 L 0.3837890625 -0.0009765625 Q 0.3837890625 -0.00439453125 0.38623046875 -0.007080078125 Q 0.388671875 -0.009765625 0.39306640625 -0.009765625 L 0.49609375 -0.009765625 Q 0.4990234375 -0.009765625 0.50146484375 -0.007080078125 Q 0.50390625 -0.00439453125 0.50390625 -0.0009765625 L 0.50390625 0.30078125 Q 0.50390625 0.3037109375 0.501220703125 0.306884765625 Q 0.49853515625 0.31005859375 0.49609375 0.31005859375 L 0.39306640625 0.31005859375 Q 0.3837890625 0.31005859375 0.3837890625 0.30078125 Z"/></g><g transform="translate(0,4.500045000000001)"><path fill="rgb(0,0,0)" stroke="none" paint-order="stroke fill markers" d=" M 0.3837890625 1.80078125 L 0.3837890625 1.36376953125 Q 0.3837890625 1.29443359375 0.4033203125 1.2265625 Q 0.4228515625 1.15869140625 0.460205078125 1.096923828125 Q 0.49755859375 1.03515625 0.54931640625 0.984375 Q 0.60107421875 0.93359375 0.66015625 0.89990234375 Q 0.59912109375 0.8642578125 0.548583984375 0.81494140625 Q 0.498046875 0.765625 0.46044921875 0.70361328125 Q 0.4228515625 0.6416015625 0.4033203125 0.5732421875 Q 0.3837890625 0.5048828125 0.3837890625 0.43701171875 L 0.3837890625 -0.0009765625 Q 0.3837890625 -0.00439453125 0.38623046875 -0.007080078125 Q 0.388671875 -0.009765625 0.39306640625 -0.009765625 L 0.49609375 -0.009765625 Q 0.4990234375 -0.009765625 0.50146484375 -0.007080078125 Q 0.50390625 -0.00439453125 0.50390625 -0.0009765625 L 0.50390625 0.43505859375 Q 0.50390625 0.52294921875 0.527099609375 0.605224609375 Q 0.55029296875 0.6875 0.59765625 0.75830078125 Q 0.64501953125 0.8291015625 0.71484375 0.8779296875 Q 0.7177734375 0.880859375 0.7177734375 0.884765625 L 0.7177734375 0.916015625 Q 0.7177734375 0.9189453125 0.71484375 0.921875 Q 0.64501953125 0.970703125 0.59765625 1.041748046875 Q 0.55029296875 1.11279296875 0.527099609375 1.1953125 Q 0.50390625 1.27783203125 0.50390625 1.3662109375 L 0.50390625 1.80078125 Q 0.50390625 1.8037109375 0.501220703125 1.806884765625 Q 0.49853515625 1.81005859375 0.49609375 1.81005859375 L 0.39306640625 1.81005859375 Q 0.3837890625 1.81005859375 0.3837890625 1.80078125 Z"/></g><g transform="translate(0,6.300063000000001)"><path fill="rgb(0,0,0)" stroke="none" paint-order="stroke fill markers" d=" M 0.3837890625 0.30078125 L 0.3837890625 -0.0009765625 Q 0.3837890625 -0.00439453125 0.38623046875 -0.007080078125 Q 0.388671875 -0.009765625 0.39306640625 -0.009765625 L 0.49609375 -0.009765625 Q 0.4990234375 -0.009765625 0.50146484375 -0.007080078125 Q 0.50390625 -0.00439453125 0.50390625 -0.0009765625 L 0.50390625 0.30078125 Q 0.50390625 0.3037109375 0.501220703125 0.306884765625 Q 0.49853515625 0.31005859375 0.49609375 0.31005859375 L 0.39306640625 0.31005859375 Q 0.3837890625 0.31005859375 0.3837890625 0.30078125 Z"/></g><g transform="translate(0,6.600066000000001)"><path fill="rgb(0,0,0)" stroke="none" paint-order="stroke fill markers" d=" M 0.3837890625 0.30078125 L 0.3837890625 -0.0009765625 Q 0.3837890625 -0.00439453125 0.38623046875 -0.007080078125 Q 0.388671875 -0.009765625 0.39306640625 -0.009765625 L 0.49609375 -0.009765625 Q 0.4990234375 -0.009765625 0.50146484375 -0.007080078125 Q 0.50390625 -0.00439453125 0.50390625 -0.0009765625 L 0.50390625 0.30078125 Q 0.50390625 0.3037109375 0.501220703125 0.306884765625 Q 0.49853515625 0.31005859375 0.49609375 0.31005859375 L 0.39306640625 0.31005859375 Q 0.3837890625 0.31005859375 0.3837890625 0.30078125 Z"/></g><g transform="translate(0,6.900069000000001)"><path fill="rgb(0,0,0)" stroke="none" paint-order="stroke fill markers" d=" M 0.3837890625 0.30078125 L 0.3837890625 -0.0009765625 Q 0.3837890625 -0.00439453125 0.38623046875 -0.007080078125 Q 0.388671875 -0.009765625 0.39306640625 -0.009765625 L 0.49609375 -0.009765625 Q 0.4990234375 -0.009765625 0.50146484375 -0.007080078125 Q 0.50390625 -0.00439453125 0.50390625 -0.0009765625 L 0.50390625 0.30078125 Q 0.50390625 0.3037109375 0.501220703125 0.306884765625 Q 0.49853515625 0.31005859375 0.49609375 0.31005859375 L 0.39306640625 0.31005859375 Q 0.3837890625 0.31005859375 0.3837890625 0.30078125 Z"/></g><g transform="translate(0,7.200072000000001)"><path fill="rgb(0,0,0)" stroke="none" paint-order="stroke fill markers" d=" M 0.169921875 0.89111328125 L 0.169921875 0.85986328125 Q 0.169921875 0.85498046875 0.173828125 0.85302734375 Q 0.240234375 0.810546875 0.2880859375 0.7451171875 Q 0.3359375 0.6796875 0.35986328125 0.60302734375 Q 0.3837890625 0.5263671875 0.3837890625 0.44384765625 L 0.3837890625 -0.0009765625 Q 0.3837890625 -0.00439453125 0.38623046875 -0.007080078125 Q 0.388671875 -0.009765625 0.39306640625 -0.009765625 L 0.49609375 -0.009765625 Q 0.4990234375 -0.009765625 0.50146484375 -0.007080078125 Q 0.50390625 -0.00439453125 0.50390625 -0.0009765625 L 0.50390625 0.44580078125 Q 0.50390625 0.517578125 0.482666015625 0.58447265625 Q 0.46142578125 0.6513671875 0.423095703125 0.709228515625 Q 0.384765625 0.76708984375 0.3310546875 0.815673828125 Q 0.27734375 0.8642578125 0.21484375 0.89697265625 Q 0.2109375 0.89892578125 0.2099609375 0.89892578125 L 0.17919921875 0.89892578125 Q 0.169921875 0.89892578125 0.169921875 0.89111328125 Z"/></g></g><g transform="translate(13.936026999791384,9.303176714285714) scale(0.06999999999999999,0.06999999999999999)"><text fill="rgb(0,0,0)" stroke="none" font-family="Serif" font-size="10px" font-style="normal" font-weight="normal" text-decoration="normal" x="0" y="0" text-anchor="start" dominant-baseline="alphabetic">被积表达式</text><g transform="scale(14.285714285714286,14.285714285714286) translate(-13.936026999791384,-9.303176714285714)"/></g></g></g></g></svg>